<svg height="215.43306" width="1311.0236" xmlns="http://www.w3.org/2000/svg"><g transform="matrix(1.2077694 0 0 1.2077694 -185.414795 -493.364956)"><g transform="matrix(2.3692229 0 0 2.3692229 165.3853 420.75627)"><path d="m321.356 43.14-226.266 1.994-.322.484 226.588 1.867z" fill="#0095d8"/><path d="m392.807 45.622.305-.485-71.756-1.997v4.345z" fill="#002454"/><g fill="#0095d8"><path d="m432.468 7.599-9.919 10.726-9.857-10.748h-8.338v25.436h6.532v-16.381l10.962 11.418 11.006-11.582v16.545h7.918v-25.414z"/><path d="m379.537 7.599h-7.923v25.408h26.559v-5.626h-18.636z"/><path d="m365.265 7.599h-10.489l-13.511 9.983v-9.983h-7.938l.001 25.414h7.937v-10.596l12.566 10.596h12.275l-16.625-13.892z"/></g><g fill="#002454"><path d="m309.472 12.122v-4.523h-24.595v25.408h24.556v-4.537h-17.828v-6.167h17.576v-4.522h-17.576v-5.659z"/><path d="m256.136 20.278c0-5.875 6.602-7.935 11.716-7.935 3.728 0 8.526 1.172 11.242 2.689l-.001-5.737c-2.929-1.065-7.749-2.063-11.648-2.063-9.922 0-19.227 4.743-19.227 12.916 0 7.868 9.068 13.239 17.951 13.239 4.967 0 9.661-.963 13.207-2.613v-5.536c-3.338 1.734-7.511 2.905-11.998 2.905-5.762.001-11.242-3.06-11.242-7.865z"/><path d="m238.039 23.439-18.993-15.844-5.117.004v25.422h5.72v-16.083l18.986 16.083h5.124v-25.422h-5.72z"/><path d="m113.015 33.021h6.729v-8.625h17.72v-4.523h-17.72v-7.74h18.158v-4.534h-24.887z"/><path d="m46.897999 7.599h6.728v25.422001h-6.728z"/><path d="m22.217 7.599c-5.134 8.364-10.034 16.868-14.843 25.422 0 .003 6.366 0 6.366 0l3.263-5.775h15.174l3.435 5.775h7.916c-4.976-8.623-10.229-17.077-15.656-25.422zm-2.766 15.122 4.819-8.457 5.04 8.457z"/><path d="m189.701 7.599c-5.134 8.364-10.034 16.868-14.843 25.422 0 .003 6.366 0 6.366 0l3.262-5.775h15.174l3.435 5.775h7.916c-4.977-8.623-10.229-17.077-15.656-25.422zm-2.767 15.122 4.82-8.457 5.039 8.457z"/><path d="m171.878 15.39c0-5.02-4.563-7.794-10.073-7.794h-18.57v25.425h6.734v-8.8h6.3l8.069 8.796 8.928.004-9.229-9.914c4.331-1.078 7.841-4.065 7.841-7.717zm-14.191 4.294h-7.717v-7.551h9.205c2.636 0 5.057 1.234 5.057 3.604-.001 2.387-2.419 3.947-6.545 3.947z"/><path d="m91.076 15.39c0-5.02-4.562-7.794-10.073-7.794h-18.57v25.425h6.734v-8.8h6.3l8.069 8.796 8.928.004-9.229-9.914c4.332-1.078 7.841-4.065 7.841-7.717zm-14.191 4.294h-7.717v-7.551h9.205c2.636 0 5.057 1.234 5.057 3.604-.001 2.387-2.418 3.947-6.545 3.947z"/></g></g><path d="m926.85828 557.36803c.26298-1.14907 4.11771-18.02978 4.11771-29.31202 0-11.29409-3.8571-28.23403-4.11534-29.35231v-.03317s0 .01185-.00237.01659c-.00711-.02606-.01185-.04502-.01185-.04502v.09003c-.25587 1.11828-4.11771 18.02268-4.11771 29.31914 0 11.28224 3.84762 28.19375 4.11297 29.34756v.03554s.00237-.01422.00237-.01658c.00711.0308.01422.04975.01422.04975z" fill="#e2001a"/></g></svg>