<?xml version="1.0" encoding="UTF-8" standalone="no"?>
<!-- Created with Inkscape (http://www.inkscape.org/) -->
<svg
   xmlns:svg="http://www.w3.org/2000/svg"
   xmlns="http://www.w3.org/2000/svg"
   version="1.0"
   width="1311.0236"
   height="215.43306"
   id="svg2">
  <defs
     id="defs4" />
  <g
     transform="translate(-182.85595,-413.04605)"
     id="layer1">
    <g
       transform="matrix(1.2077694,0,0,1.2077694,-2.5588446,-80.318906)"
       id="g2569">
      <polygon
         points="321.356,43.14 95.09,45.134 94.768,45.618 321.356,47.485 321.356,43.14 "
         transform="matrix(2.3692229,0,0,2.3692229,165.3853,420.75627)"
         id="polygon2426"
         style="fill:#0095d8" />
      <polygon
         points="392.807,45.622 393.112,45.137 321.356,43.14 321.356,47.485 392.807,45.622 "
         transform="matrix(2.3692229,0,0,2.3692229,165.3853,420.75627)"
         id="polygon2428"
         style="fill:#002454" />
      <g
         transform="matrix(2.3692229,0,0,2.3692229,165.3853,420.75627)"
         id="g2432">
	<g
   id="g2434">
		<polygon
   points="432.468,7.599 422.549,18.325 412.692,7.577 404.354,7.577 404.354,33.013 410.886,33.013 410.886,16.632 421.848,28.05 432.854,16.468 432.854,33.013 440.772,33.013 440.772,7.599 432.468,7.599 "
   id="polygon2436"
   style="fill:#0095d8" />

		<polygon
   points="379.537,7.599 371.614,7.599 371.614,33.007 398.173,33.007 398.173,27.381 379.537,27.381 379.537,7.599 "
   id="polygon2438"
   style="fill:#0095d8" />

		<polygon
   points="365.265,7.599 354.776,7.599 341.265,17.582 341.265,7.599 333.327,7.599 333.328,33.013 341.265,33.013 341.265,22.417 353.831,33.013 366.106,33.013 349.481,19.121 365.265,7.599 "
   id="polygon2440"
   style="fill:#0095d8" />

	</g>

	<g
   id="g2442">
		<polygon
   points="309.472,12.122 309.472,7.599 284.877,7.599 284.877,33.007 309.433,33.007 309.433,28.47 291.605,28.47 291.605,22.303 309.181,22.303 309.181,17.781 291.605,17.781 291.605,12.122 309.472,12.122 "
   id="polygon2444"
   style="fill:#002454" />

		<path
   d="M 256.136,20.278 C 256.136,14.403 262.738,12.343 267.852,12.343 C 271.58,12.343 276.378,13.515 279.094,15.032 L 279.093,9.295 C 276.164,8.23 271.344,7.232 267.445,7.232 C 257.523,7.232 248.218,11.975 248.218,20.148 C 248.218,28.016 257.286,33.387 266.169,33.387 C 271.136,33.387 275.83,32.424 279.376,30.774 L 279.376,25.238 C 276.038,26.972 271.865,28.143 267.378,28.143 C 261.616,28.144 256.136,25.083 256.136,20.278 z"
   id="path2446"
   style="fill:#002454" />

		<polygon
   points="238.039,23.439 219.046,7.595 213.929,7.599 213.929,33.021 219.649,33.021 219.649,16.938 238.635,33.021 243.759,33.021 243.759,7.599 238.039,7.599 238.039,23.439 "
   id="polygon2448"
   style="fill:#002454" />

		<polygon
   points="113.015,33.021 119.744,33.021 119.744,24.396 137.464,24.396 137.464,19.873 119.744,19.873 119.744,12.133 137.902,12.133 137.902,7.599 113.015,7.599 113.015,33.021 "
   id="polygon2450"
   style="fill:#002454" />

		<rect
   width="6.7280002"
   height="25.422001"
   x="46.897999"
   y="7.599"
   id="rect2452"
   style="fill:#002454" />

		<path
   d="M 22.217,7.599 C 17.083,15.963 12.183,24.467 7.374,33.021 C 7.374,33.024 13.74,33.021 13.74,33.021 L 17.003,27.246 L 32.177,27.246 L 35.612,33.021 L 43.528,33.021 C 38.552,24.398 33.299,15.944 27.872,7.599 L 22.217,7.599 z M 19.451,22.721 L 24.27,14.264 L 29.31,22.721 L 19.451,22.721 z"
   id="path2454"
   style="fill:#002454" />

		<path
   d="M 189.701,7.599 C 184.567,15.963 179.667,24.467 174.858,33.021 C 174.858,33.024 181.224,33.021 181.224,33.021 L 184.486,27.246 L 199.66,27.246 L 203.095,33.021 L 211.011,33.021 C 206.034,24.398 200.782,15.944 195.355,7.599 L 189.701,7.599 z M 186.934,22.721 L 191.754,14.264 L 196.793,22.721 L 186.934,22.721 z"
   id="path2456"
   style="fill:#002454" />

		<path
   d="M 171.878,15.39 C 171.878,10.37 167.315,7.596 161.805,7.596 L 143.235,7.596 L 143.235,33.021 L 149.969,33.021 L 149.969,24.221 L 156.269,24.221 L 164.338,33.017 L 173.266,33.021 L 164.037,23.107 C 168.368,22.029 171.878,19.042 171.878,15.39 z M 157.687,19.684 L 149.97,19.684 L 149.97,12.133 L 159.175,12.133 C 161.811,12.133 164.232,13.367 164.232,15.737 C 164.231,18.124 161.813,19.684 157.687,19.684 z"
   id="path2458"
   style="fill:#002454" />

		<path
   d="M 91.076,15.39 C 91.076,10.37 86.514,7.596 81.003,7.596 L 62.433,7.596 L 62.433,33.021 L 69.167,33.021 L 69.167,24.221 L 75.467,24.221 L 83.536,33.017 L 92.464,33.021 L 83.235,23.107 C 87.567,22.029 91.076,19.042 91.076,15.39 z M 76.885,19.684 L 69.168,19.684 L 69.168,12.133 L 78.373,12.133 C 81.009,12.133 83.43,13.367 83.43,15.737 C 83.429,18.124 81.012,19.684 76.885,19.684 z"
   id="path2460"
   style="fill:#002454" />

	</g>

</g>
      <path
         d="M 926.85828,557.36803 C 927.12126,556.21896 930.97599,539.33825 930.97599,528.05601 C 930.97599,516.76192 927.11889,499.82198 926.86065,498.7037 L 926.86065,498.67053 C 926.86065,498.67053 926.86065,498.68238 926.85828,498.68712 C 926.85117,498.66106 926.84643,498.6421 926.84643,498.6421 L 926.84643,498.73213 C 926.59056,499.85041 922.72872,516.75481 922.72872,528.05127 C 922.72872,539.33351 926.57634,556.24502 926.84169,557.39883 L 926.84169,557.43437 C 926.84169,557.43437 926.84406,557.42015 926.84406,557.41779 C 926.85117,557.44859 926.85828,557.46754 926.85828,557.46754 L 926.85828,557.36803 L 926.85828,557.36803 z"
         id="path2430"
         style="fill:#e2001a" />
    </g>
  </g>
</svg>
