<?xml version="1.0" encoding="UTF-8"?>
<svg width="1245px" height="147px" viewBox="0 0 1245 147" version="1.1" xmlns="http://www.w3.org/2000/svg" xmlns:xlink="http://www.w3.org/1999/xlink">
    <!-- Generator: Sketch 51.3 (57544) - http://www.bohemiancoding.com/sketch -->
    <title>Untitled</title>
    <desc>Created with Sketch.</desc>
    <defs></defs>
    <g id="Page-1" stroke="none" stroke-width="1" fill="none" fill-rule="evenodd">
        <g id="airfrance" fill-rule="nonzero">
            <g id="Group" transform="translate(1.362834, 0.841916)">
                <polygon id="Shape" fill="#0095D8" points="899.52181 103.413704 252.067326 109.119485 251.145931 110.504438 899.52181 115.846812"></polygon>
                <polygon id="Shape" fill="#002454" points="1103.97705 110.515884 1104.8498 109.128069 899.52181 103.413704 899.52181 115.846812"></polygon>
                <g transform="translate(932.840824, 0.000000)" fill="#0095D8" id="Shape">
                    <polygon points="284.625187 1.71402348 256.242218 32.4062035 228.036659 1.65107103 204.177681 1.65107103 204.177681 74.4355471 222.868836 74.4355471 222.868836 27.5617264 254.236324 60.2340471 285.729717 27.0924445 285.729717 74.4355471 308.386875 74.4355471 308.386875 1.71402348"></polygon>
                    <polygon points="133.164458 1.71402348 110.492993 1.71402348 110.492993 74.4183783 186.490905 74.4183783 186.490905 58.3197204 133.164458 58.3197204"></polygon>
                    <polygon points="92.3254883 1.71402348 62.3114779 1.71402348 23.6500902 30.2801276 23.6500902 1.71402348 0.935702299 1.71402348 0.938563774 74.4355471 23.6500902 74.4355471 23.6500902 44.1153588 59.6073841 74.4355471 94.7319887 74.4355471 47.1599682 34.6839375"></polygon>
                </g>
                <g fill="#002454" id="Shape">
                    <polygon points="865.516042 14.6564745 865.516042 1.71402348 795.138066 1.71402348 795.138066 74.4183783 865.404445 74.4183783 865.404445 61.4358665 814.39007 61.4358665 814.39007 43.7891507 864.683353 43.7891507 864.683353 30.8495611 814.39007 30.8495611 814.39007 14.6564745"></polygon>
                    <path d="M712.896416,37.994664 C712.896416,21.1834988 731.787873,15.2888605 746.421456,15.2888605 C757.089034,15.2888605 770.818391,18.6425091 778.590157,22.9833666 L778.587296,6.56708494 C770.206035,3.51961415 756.413726,0.663862182 745.256836,0.663862182 C716.865281,0.663862182 690.239257,14.2358377 690.239257,37.6226723 C690.239257,60.1367569 716.187112,75.5057387 741.605594,75.5057387 C755.81854,75.5057387 769.250303,72.7501384 779.397093,68.0287048 L779.397093,52.1875796 C769.84549,57.1493771 757.904555,60.5001642 745.065117,60.5001642 C728.577298,60.5030257 712.896416,51.744051 712.896416,37.994664 Z"></path>
                    <polygon points="661.112304 47.0397862 606.764311 1.70257758 592.122144 1.71402348 592.122144 74.4584389 608.48978 74.4584389 608.48978 28.4373378 662.817743 74.4584389 677.479941 74.4584389 677.479941 1.71402348 661.112304 1.71402348"></polygon>
                    <polygon points="303.359264 74.4584389 322.614128 74.4584389 322.614128 49.7782177 373.319464 49.7782177 373.319464 36.8357667 322.614128 36.8357667 322.614128 14.6879508 374.57279 14.6879508 374.57279 1.71402348 303.359264 1.71402348"></polygon>
                    <polygon points="114.167124 1.71402348 133.419127 1.71402348 133.419127 74.4584418 114.167124 74.4584418"></polygon>
                    <path d="M43.5430639,1.71402348 C28.8522516,25.6473997 14.8310245,49.9813824 1.07019162,74.4584389 C1.07019162,74.4670233 19.286341,74.4584389 19.286341,74.4584389 L28.6233336,57.9334212 L72.0433541,57.9334212 L81.8725204,74.4584389 L104.523956,74.4584389 C90.2852567,49.7839407 75.2539289,25.5930317 59.7247045,1.71402348 L43.5430639,1.71402348 Z M35.6282242,44.9852472 L49.4176719,20.7857538 L63.8395055,44.9852472 L35.6282242,44.9852472 Z"></path>
                    <path d="M522.794329,1.71402348 C508.103517,25.6473997 494.08229,49.9813824 480.321457,74.4584389 C480.321457,74.4670233 498.537607,74.4584389 498.537607,74.4584389 L507.871738,57.9334212 L551.291758,57.9334212 L561.120925,74.4584389 L583.77236,74.4584389 C569.530799,49.7839407 554.502333,25.5930317 538.973109,1.71402348 L522.794329,1.71402348 Z M514.876628,44.9852472 L528.668937,20.7857538 L543.08791,44.9852472 L514.876628,44.9852472 Z"></path>
                    <path d="M471.794262,24.0077746 C471.794262,9.64317048 458.737352,1.70543905 442.970625,1.70543905 L389.833036,1.70543905 L389.833036,74.4584389 L409.102208,74.4584389 L409.102208,49.2774596 L427.1295,49.2774596 L450.218741,74.446993 L475.765989,74.4584389 L449.357437,46.0897765 C461.750485,43.0051066 471.794262,34.457881 471.794262,24.0077746 Z M431.187071,36.2949479 L409.105069,36.2949479 L409.105069,14.6879508 L435.444946,14.6879508 C442.987794,14.6879508 449.915425,18.2190108 449.915425,25.0007064 C449.912563,31.831047 442.993517,36.2949479 431.187071,36.2949479 Z"></path>
                    <path d="M240.581365,24.0077746 C240.581365,9.64317048 227.527317,1.70543905 211.757729,1.70543905 L158.620139,1.70543905 L158.620139,74.4584389 L177.889311,74.4584389 L177.889311,49.2774596 L195.916603,49.2774596 L219.005845,74.446993 L244.553093,74.4584389 L218.144541,46.0897765 C230.54045,43.0051066 240.581365,34.457881 240.581365,24.0077746 Z M199.974175,36.2949479 L177.892173,36.2949479 L177.892173,14.6879508 L204.232049,14.6879508 C211.774897,14.6879508 218.702528,18.2190108 218.702528,25.0007064 C218.699667,31.831047 211.783482,36.2949479 199.974175,36.2949479 Z"></path>
                </g>
            </g>
            <path d="M901.016274,145.807095 C901.333893,144.419284 905.989518,124.031279 905.989518,110.404934 C905.989518,96.7642781 901.331031,76.3047369 901.019136,74.9541125 L901.019136,74.9140508 C901.019136,74.9140508 901.019136,74.9283629 901.016274,74.9340877 C901.007686,74.9026132 901.001962,74.8797139 901.001962,74.8797139 L901.001962,74.9884494 C900.69293,76.3390738 896.028718,96.7556908 896.028718,110.39921 C896.028718,124.025554 900.675755,144.450758 900.996237,145.844294 L900.996237,145.887219 C900.996237,145.887219 900.999099,145.870044 900.999099,145.867194 C901.007686,145.904393 901.016274,145.92728 901.016274,145.92728 L901.016274,145.807095 Z" id="Shape" fill="#E2001A"></path>
        </g>
    </g>
</svg>