<svg width="1356" height="146" viewBox="0 0 1356 146" xmlns="http://www.w3.org/2000/svg"><title>LHH-Logo-2018-OneLine-Small</title><g fill="#05164D" fill-rule="evenodd"><path d="M345.909 89.055c0 9.032-4.584 13.076-11.998 13.076-8.223 0-12.132-4.044-12.132-13.076V50.232h-20.356v39.767c0 22.377 9.032 30.196 26.422 30.196 10.649 0 16.446-4.583 19.277-9.841v7.819h19.142V50.232h-20.355v38.823m35.993-41.385v2.562h-10.246v16.581h10.246v51.36h20.355v-51.36h14.963V50.232h-14.963v-2.697c0-5.931 3.37-8.088 9.706-8.088 2.426 0 5.257.27 5.257.27V23.271s-3.37-.809-8.627-.809c-16.311 0-26.691 8.762-26.691 25.208M82.499 53.914c-6.235 13.797-16.203 19.573-24.617 19.463-7.825-.103-15.731-5.226-22.034-8.705l1.938-1.451 13.802 5.939 2.387-1.888-27.89-12.473-3.58 2.759-9.987-4.117.242 4.137c13.063 5.929 18.778 9.252 33.261 19.482 13.759 9.187 25.925 15.99 40.34 20.166 6.175 2 13.39 3.571 17.216 4.507l5.384-5.245c-15.502-.055-30.93-5.868-37.763-13.931 9.826-6.22 23.712-6.776 37.426-5.416l3.288-3.057c-9.141-1.006-20.209-1.446-27.596-1.1a24.815 24.815 0 0 0 2.698-3.065c7.975-.191 18.898.1 27.889 1.251l3.291-3.205c-8.992-1.151-19.025-1.726-28.327-1.7.901-1.169 1.356-2.049 1.958-2.927 7.68-.195 20.368.562 29.36 1.713l3.141-3.06c-8.84-1.444-22.708-2.364-30.536-2.171.602-.878 1.059-1.906 1.513-2.786 8.277-.63 23.17.894 31.715 2.335l3.29-3.205c-15.757-3.16-36.86-4.026-47.809-2.25M256.263 23.81h-21.838v94.363h62.414V99.166h-40.576V23.81"/><path d="M71.981.179C32.86-.333.707 30.843.195 69.964c-.512 39.12 30.81 71.423 69.93 71.935 39.121.512 71.278-30.96 71.79-70.08.512-39.121-30.814-71.128-69.934-71.64zm-1.802 137.586c-36.611-.479-66.186-30.839-65.703-67.745.481-36.759 30.841-66.335 67.452-65.855 36.759.481 66.335 30.841 65.853 67.6-.483 36.906-30.843 66.482-67.602 66zm382.898-107.35h-20.355v19.817h-10.246v16.581h10.246v28.713c0 16.446 9.84 23.86 26.152 23.86 4.988 0 9.706-1.078 9.706-1.078v-16.311s-3.37.404-5.797.404c-5.931 0-9.706-1.888-9.706-9.167V66.813h15.503V50.232h-15.503V30.415m274.809 45.16l-7.144-.944c-5.797-.808-7.414-2.426-7.414-5.392 0-2.965 2.561-5.257 9.301-5.257 6.875 0 9.032 2.426 9.706 6.336h19.816c-.943-14.694-10.919-22.108-29.522-22.108-20.086 0-29.657 9.571-29.657 22.512 0 13.48 8.627 19.277 23.591 21.299l7.144.944c7.01.943 9.707 2.561 9.707 6.066 0 3.774-3.236 5.662-11.19 5.662-7.818 0-11.323-2.427-11.862-7.415h-20.086c.405 13.616 8.627 22.917 31.948 22.917 21.434 0 31.545-8.493 31.545-22.782 0-14.154-8.628-19.546-25.883-21.838M793.4 48.21c-20.086 0-29.792 7.684-30.601 22.108h19.817c.269-3.775 2.426-6.606 10.784-6.606 7.414 0 10.919 2.427 10.919 6.066 0 3.236-2.022 4.449-7.01 4.988l-12.941 1.348c-17.525 1.887-25.478 9.167-25.478 22.378 0 12.267 7.549 21.703 23.591 21.703 10.919 0 17.39-3.505 23.051-10.515v8.493h18.603v-44.62c0-18.738-10.919-25.343-30.735-25.343zm11.324 43.541c0 7.415-7.011 12.942-17.795 12.942-5.257 0-8.358-2.427-8.358-7.01 0-3.505 2.157-6.471 9.032-7.414l11.728-1.618c2.022-.27 4.179-.674 5.393-1.079v4.179zM580.51 48.209c-20.086 0-29.792 7.684-30.601 22.108h19.817c.269-3.774 2.426-6.605 10.784-6.605 7.414 0 10.919 2.426 10.919 6.066 0 3.235-2.022 4.449-7.01 4.988l-12.941 1.348C553.954 78.001 546 85.281 546 98.492c0 12.267 7.549 21.703 23.591 21.703 10.919 0 17.39-3.505 23.052-10.515v8.493h18.603v-44.62c0-18.738-10.92-25.344-30.736-25.344zm11.324 43.542c0 7.415-7.01 12.942-17.795 12.942-5.257 0-8.357-2.427-8.357-7.01 0-3.505 2.157-6.471 9.032-7.415l11.727-1.617c2.023-.27 4.18-.674 5.393-1.079v4.179zm66.481-43.542c-10.92 0-16.716 4.584-19.547 9.841v-7.818h-19.143v67.941h20.356V79.349c0-9.032 4.583-13.076 12.267-13.076 8.493 0 12.402 4.044 12.402 13.076v38.824h20.356V78.405c0-22.377-9.032-30.196-26.691-30.196m-144.668 0c-9.571 0-15.098 3.64-18.603 8.628V23.945h-20.49v94.228h20.355V79.349c0-9.032 4.584-13.076 12.268-13.076 8.492 0 12.402 4.044 12.402 13.076v38.824h20.355V78.405c0-22.377-9.032-30.196-26.287-30.196m383.135 18.867h58.96V25h9.782v93.8h-9.782V76.188h-58.96V118.8H887V25h9.782v42.076zm81.973 19.698c0-20.77 10.72-33.634 32.027-33.634 21.306 0 32.16 12.864 32.16 33.634s-10.854 33.634-32.16 33.634c-21.306 0-32.027-12.864-32.027-33.634zm9.649 0c0 15.812 7.102 25.058 22.378 25.058s22.512-9.246 22.512-25.058-7.236-25.058-22.512-25.058-22.378 9.246-22.378 25.058zm70.583 32.026c-2.814 0-4.422-1.608-4.422-4.422V25h9.38v93.8h-4.958zm19.53-79.462V27.68h10.987v11.658h-10.988zm.803 79.462V54.748h9.38V118.8h-9.38zm75.408-93.8h9.38v93.8h-9.112v-8.978c-4.422 7.102-12.328 10.586-22.914 10.586-21.172 0-31.624-12.596-31.624-33.5 0-21.038 10.452-33.768 31.624-33.768 10.318 0 18.09 3.35 22.646 10.184V25zm-22.11 86.832c15.142 0 22.378-9.112 22.378-24.924 0-15.946-7.236-25.192-22.378-25.192s-22.512 9.246-22.512 25.192c0 15.812 7.37 24.924 22.512 24.924zm88.137 6.968v-8.04c-4.958 6.298-13.534 9.648-23.182 9.648-16.214 0-22.646-8.978-22.646-19.43 0-11.524 6.566-17.822 20.904-19.43l17.152-1.876c5.762-.67 7.638-2.814 7.638-7.772 0-5.896-4.422-10.184-16.616-10.184-11.122 0-15.41 3.886-16.214 10.184h-8.978c.67-10.452 7.772-18.76 25.192-18.76 18.492 0 25.862 7.906 25.862 19.832V118.8h-9.112zm-.134-32.83c-1.742.67-4.824 1.34-8.174 1.742l-14.204 1.474c-9.38.938-13.936 4.69-13.936 11.39 0 7.102 4.154 11.256 15.142 11.256 11.256 0 21.172-5.762 21.172-17.42V85.97zm25.425-31.222l22.513 50.25 21.038-50.25h10.184l-38.995 91.12h-10.184l13.266-30.016-28.006-61.104h10.184zm107.97 17.152h-8.978c-1.608-6.968-5.896-10.184-16.214-10.184-11.524 0-15.678 3.886-15.678 10.05 0 4.824 2.68 6.968 9.38 8.04l13.802 2.144c12.73 2.01 19.162 7.638 19.162 18.358 0 12.596-8.978 20.1-27.068 20.1-20.1 0-26.532-8.978-27.47-20.368h8.978c1.34 8.308 5.896 11.792 18.492 11.792 12.73 0 17.42-4.288 17.42-10.854 0-5.762-2.948-8.576-10.988-9.782l-14.07-2.144c-11.524-1.742-17.286-7.236-17.286-16.75 0-10.988 7.906-19.162 25.326-19.162 16.214 0 23.718 7.638 25.192 18.76z"/></g></svg>