
<svg width="200px" height="214px" viewBox="0 0 200 214" version="1.1" xmlns="http://www.w3.org/2000/svg" xmlns:xlink="http://www.w3.org/1999/xlink">
    <defs>
        <linearGradient x1="66.5114881%" y1="44.0987723%" x2="6.32806359%" y2="22.5760324%" id="linearGradient-1">
            <stop stop-color="#AF94C3" offset="0%"></stop>
            <stop stop-color="#8CF4D3" offset="100%"></stop>
        </linearGradient>
    </defs>
    <g id="Page-1" stroke="none" stroke-width="1" fill="none" fill-rule="evenodd">
        <g id="Desktop-HD" transform="translate(-39.000000, -537.000000)" fill="url(#linearGradient-1)">
            <path d="M57.1818182,573.322233 L178.673751,537 L239,636.148836 L185,711 L82.5,751 L39,660.313527 L57.1818182,573.322233 Z M182.866411,659.186719 C180.664415,659.023134 176.092617,661.538256 174.860171,662.190738 C170.405837,664.471635 164.223096,668.057497 160.173362,670.922096 C159.888091,671.107988 159.509594,671.36452 159.226187,671.552271 C157.433728,672.738758 155.431959,673.575792 153.326852,674.019061 C141.530047,676.580656 124.309358,676.861353 124.309358,676.861353 L123.313706,676.907826 C122.557768,676.9543 121.890548,676.419548 121.773614,675.673502 C121.716194,675.276206 121.826317,674.872938 122.077824,674.559498 C122.329331,674.246058 122.699774,674.050421 123.101151,674.019061 L148.684202,671.528105 C151.503354,671.225101 153.753827,668.524086 153.446181,665.495902 C153.136671,662.469576 150.412611,660.257458 147.595324,660.58277 L124.829559,660.303931 C123.289467,660.279765 120.8022,659.883815 119.310586,659.441391 C104.648016,655.063629 96.380743,659.162553 91.9730224,661.071666 C90.9547286,659.349344 89.0474151,658.348886 87.0469658,658.487764 L77.239601,659.162553 C73.9711009,659.394918 71.5062081,662.166572 71.7430019,665.380648 L73.3073325,687.594772 C73.5441263,690.810707 76.3632776,693.231024 79.6317776,692.998659 L89.4391424,692.32387 C91.4302737,692.191053 93.174067,690.945109 93.9400889,689.107934 L137.0291,690.9966 C141.839557,691.507803 146.338639,690.925961 150.556178,688.66737 L151.78676,688.016747 L184.382264,668.572418 C185.993208,667.615073 187.130564,665.962491 187.179041,664.122158 C187.249893,661.887733 185.968969,659.419084 182.866411,659.186719 Z M83.2079232,687.73605 C81.3620504,687.73605 79.870436,686.267501 79.870436,684.451334 C79.870436,682.635166 81.3620504,681.168477 83.2079232,681.168477 C85.0575251,681.168477 86.5491395,682.637025 86.5491395,684.451334 C86.5491395,686.245194 85.0575251,687.73605 83.2097877,687.73605 L83.2079232,687.73605 Z M157.990581,662.448523 C158.446641,663.781887 158.624174,665.19548 158.512082,666.600939 C158.843607,666.366921 159.197483,666.108565 159.529009,665.874547 C162.842403,663.481947 169.657303,659.683366 173.490336,657.689533 C174.685504,657.051672 175.91829,656.487732 177.181818,656.000859 C175.50184,654.851362 173.702661,654.804559 171.85692,655.532823 C168.189651,657.009945 161.469737,660.362955 158.037143,662.285647 C158.036341,662.343728 158.020277,662.400565 157.990581,662.450395 L157.990581,662.448523 Z M163.078941,652.904332 C160.830899,653.819811 155.766751,655.506613 153.518709,656.727251 C154.487211,657.33757 155.340238,658.0883 156.074064,658.97944 C156.215615,658.885833 156.359027,658.767888 156.52479,658.674281 L158.156343,657.736336 C160.570148,656.375288 165.680858,654.523737 168.331201,653.303099 C166.651223,652.200406 164.876257,652.153603 163.078941,652.904332 Z M106.594792,617.350443 C106.926318,617.818479 106.902105,618.147977 106.594792,618.617885 C105.152906,620.763347 103.74099,622.929006 102.359459,625.114225 C101.033356,627.224131 101.86217,629.663535 104.203338,630.554676 C106.643217,631.49262 109.05516,632.408098 111.493177,633.299239 C112.014678,633.486453 112.180441,633.744809 112.202791,634.259649 C112.321991,636.699053 112.580879,639.138457 112.556666,641.57786 C112.534316,644.064068 114.735796,646.245116 117.715802,645.307172 C120.081181,644.556442 122.521061,644.015392 124.910653,643.335804 C125.383729,643.195393 125.66683,643.289 125.998355,643.687767 C127.587704,645.666142 129.19699,647.628251 130.825965,649.573788 C132.600931,651.708032 135.156286,651.708032 136.907039,649.573788 C138.513534,647.614803 140.10725,645.645265 141.688086,643.665301 C141.995399,643.290872 142.254287,643.148589 142.751576,643.290872 C145.236156,643.970461 147.720735,644.625711 150.229528,645.282834 C152.784883,645.962422 154.937937,644.416031 155.08135,641.811878 C155.2229,639.256402 155.36445,636.723391 155.459438,634.166042 C155.481788,633.580061 155.742539,633.346043 156.24169,633.158828 C158.607069,632.290153 160.948236,631.376547 163.291266,630.461069 C165.824271,629.476321 166.628872,627.036917 165.16122,624.784728 C163.764342,622.674821 162.391677,620.540577 160.972449,618.453136 C160.640923,617.9851 160.665136,617.655603 160.972449,617.187567 C162.342572,615.124756 163.699125,613.052871 165.042019,610.972048 C166.628872,608.532644 165.800058,606.09324 163.054728,605.108493 C160.711698,604.266028 158.392881,603.348677 156.074064,602.506212 C155.576776,602.318998 155.388663,602.060642 155.36445,601.521465 C155.24525,598.988454 155.1037,596.477908 154.96215,593.969235 C154.820599,591.295813 152.689895,589.771888 150.087978,590.449604 C147.625748,591.108599 145.16538,591.741384 142.729226,592.44531 C142.161162,592.608186 141.876199,592.467775 141.522323,592.046543 C139.959683,590.099513 138.35048,588.152483 136.765489,586.229791 C135.037086,584.095547 132.435168,584.095547 130.684414,586.229791 C129.121774,588.152483 127.536783,590.05271 126.022568,592.022205 C125.596055,592.561383 125.217966,592.65499 124.60334,592.467775 C122.211885,591.788187 119.798081,591.177868 118.07154,590.70796 C114.711583,589.912299 112.746642,591.271475 112.558529,593.991701 C112.385297,596.537733 112.259246,599.086787 112.180441,601.637537 C112.156228,602.176715 111.966253,602.412605 111.493177,602.59982 C109.078301,603.490198 106.672444,604.405099 104.275975,605.344383 C101.791395,606.329131 101.011006,608.744197 102.476797,610.972048 C103.796973,613.131958 105.170057,615.258739 106.594792,617.350443 Z M124.698328,628.115272 C124.933003,627.272807 125.169541,626.426598 125.430292,625.582261 C125.737605,624.597513 125.998355,624.48144 126.897945,624.949476 C128.436373,625.74701 130.092138,626.19258 131.796329,626.404132 C132.887449,626.559759 134.000133,626.413481 135.014735,625.981028 C136.931252,625.161029 137.238565,622.955643 135.605149,621.64327 C135.061298,621.197699 134.422459,620.868202 133.783621,620.58738 C132.103642,619.860988 130.352889,619.297473 128.767898,618.359529 C126.188331,616.835604 124.554915,614.746291 124.769103,611.629171 C124.981428,608.10954 126.992932,605.930364 130.233689,604.758402 C131.584004,604.264156 131.584004,604.288494 131.584004,602.904979 L131.584004,601.497127 C131.606354,600.441237 131.796329,600.278361 132.837469,600.254023 L133.805971,600.254023 C136.031662,600.254023 136.031662,600.254023 136.055875,602.459409 C136.055875,604.030138 136.055875,604.030138 137.640866,604.288494 C138.847768,604.475708 140.006245,604.827671 141.120022,605.320045 C141.734649,605.578401 141.971187,606.023971 141.781211,606.656756 C141.498111,607.619038 141.23736,608.579448 140.930047,609.517392 C140.646947,610.408533 140.337771,610.550816 139.486607,610.127711 C137.77319,609.293402 135.87323,608.921766 133.973596,609.049356 C133.469681,609.057772 132.971826,609.161287 132.505943,609.354516 C130.848315,610.080908 130.565214,611.887527 131.984442,613.012685 C132.695918,613.574328 133.52287,613.997433 134.375897,614.349396 C135.841687,614.959715 137.333553,615.545696 138.728568,616.296426 C143.202302,618.733958 144.384991,624.292354 141.261573,628.090934 C140.139199,629.443502 138.625717,630.411255 136.931252,630.859835 C136.173213,631.071388 135.841687,631.445816 135.8659,632.219012 C135.890112,632.969742 135.8659,633.744809 135.8659,634.495539 C135.8659,635.175128 135.512024,635.549556 134.848973,635.549556 C134.020159,635.573894 133.191344,635.573894 132.364393,635.549556 C131.630566,635.527091 131.299041,635.128324 131.299041,634.424398 C131.299041,633.862754 131.299041,633.321705 131.274828,632.758189 C131.252478,631.541296 131.228266,631.470154 130.021363,631.305406 C128.507148,631.071388 126.992932,630.719424 125.596055,630.062302 C124.48414,629.523124 124.389152,629.242303 124.696465,628.115272 L124.698328,628.115272 Z" id="handusd"></path>
        </g>
    </g>
</svg>