
<svg width="401px" height="414px" viewBox="0 0 401 414" version="1.1" xmlns="http://www.w3.org/2000/svg" xmlns:xlink="http://www.w3.org/1999/xlink">
    <defs>
        <linearGradient x1="30.9661099%" y1="37.6872348%" x2="87.2345144%" y2="82.5315679%" id="linearGradient-1">
            <stop stop-color="#AF94C3" offset="0%"></stop>
            <stop stop-color="#8CF4D3" offset="100%"></stop>
        </linearGradient>
        <linearGradient x1="16.173041%" y1="42.5626919%" x2="116.173041%" y2="69.6501184%" id="linearGradient-2">
            <stop stop-color="#AF94C3" offset="0%"></stop>
            <stop stop-color="#8CF4D3" offset="100%"></stop>
        </linearGradient>
        <linearGradient x1="16.173041%" y1="45.8354508%" x2="116.173041%" y2="61.0031591%" id="linearGradient-3">
            <stop stop-color="#AF94C3" offset="0%"></stop>
            <stop stop-color="#8CF4D3" offset="100%"></stop>
        </linearGradient>
    </defs>
    <g id="Page-1" stroke="none" stroke-width="1" fill="none" fill-rule="evenodd">
        <g id="Desktop-HD" transform="translate(-892.000000, -398.000000)">
            <g id="map" transform="translate(892.174869, 397.949777)">
                <polygon id="Rectangle" fill="url(#linearGradient-1)" transform="translate(356.172787, 33.347656) rotate(270.000000) translate(-356.172787, -33.347656) " points="322.906604 -11 354.47022 18.78125 376.964435 7.3125 389.43897 18.78125 389.43897 77.6953125 356.172787 77.6953125 344.392095 57 322.906604 18.78125"></polygon>
                <path d="M221.104865,226.723475 L262.810883,213.08285 L266.857758,241.246912 L290.357758,268.08285 L311.857758,291.250999 L320.857758,320.983052 L311.857758,345.8641 C332.871491,359.917666 340.702896,368.131208 335.351973,370.504725 C333.577089,371.292013 326.282204,392.029695 320.857758,388.08285 C312.577185,382.057877 304.085024,349.693828 290.357758,345.8641 C287.43057,345.047453 284.095309,349.705808 280.351973,359.839165 L241.325392,320.983052 L141.95932,291.250999 L111.170258,251.653162 L157.889008,268.08285 L221.104865,226.723475 Z" id="Rectangle" fill="url(#linearGradient-2)" transform="translate(224.075626, 300.832355) scale(1, -1) rotate(-270.000000) translate(-224.075626, -300.832355) "></path>
                <path d="M1.13686838e-13,12.0502232 L138.3125,12.0502232 L193.3125,35.0502232 L318.314714,35.0502232 L330.137631,84.5438068 L234.225066,68.0267857 L259.3125,97.1624806 L259.3125,125.276786 L234.225066,189.556008 L232.828125,145.034598 L211.476562,204.050223 L193.3125,204.050223 L165.068816,189.556008 L193.3125,164.870536 C181.174619,165.779208 171.760058,165.779208 165.068816,164.870536 C158.377573,163.961864 149.458801,170.188426 138.3125,183.550223 L138.3125,156.531605 L51.5128608,105.678781 L36.9765625,97.1624806 L36.9765625,76.3031158 L63.984375,60.5560083 L110.453125,97.1624806 L110.453125,60.5560083 L36.9765625,60.5560083 L1.13686838e-13,12.0502232 Z" id="Path" fill="url(#linearGradient-3)" transform="translate(165.068816, 108.050223) scale(-1, 1) translate(-165.068816, -108.050223) "></path>
            </g>
        </g>
    </g>
</svg>