
<svg width="200px" height="209px" viewBox="0 0 200 209" version="1.1" xmlns="http://www.w3.org/2000/svg" xmlns:xlink="http://www.w3.org/1999/xlink">
    <defs>
        <linearGradient x1="66.1468945%" y1="63.4868421%" x2="4.21350244%" y2="0%" id="linearGradient-1">
            <stop stop-color="#AF94C3" offset="0%"></stop>
            <stop stop-color="#8CF4D3" offset="100%"></stop>
        </linearGradient>
    </defs>
    <g id="Page-1" stroke="none" stroke-width="1" fill="none" fill-rule="evenodd">
        <g id="Desktop-HD" transform="translate(-690.000000, -542.000000)" fill="url(#linearGradient-1)">
            <path d="M734.285634,751 L690,644.080573 L708.109375,565 L856.671875,542 L883.988356,685.192539 L890,725.386621 L734.285634,751 Z M727,646.991421 L727.055098,654.857889 C727.055098,659.931369 740.023828,664 756.027549,664 C772.028974,664 785,659.902275 785,654.857889 L785,646.991421 C784.993113,646.653488 784.935719,646.32003 784.820931,646 C777.424003,649.867214 766.526045,651.427079 756,651.427079 C745.473955,651.427079 734.546153,649.82693 727.176773,646 C727.064281,646.32003 727.004592,646.653488 727,646.991421 Z M727.041324,698.856752 C727.041324,703.930863 740.023828,708 756.027549,708 C772.028974,708 785,703.930863 785,698.856752 L785,690.989306 C784.995408,690.653569 784.933423,690.317831 784.820931,690 C777.451552,693.825168 766.526045,695.425516 756,695.425516 C745.471659,695.425516 734.575997,693.865456 727.176773,690 C727.061985,690.317831 727.004592,690.651331 727,690.989306 L727.041324,698.856752 Z M851.986229,698.856752 L851.986229,690.989306 C851.979344,690.653569 851.919671,690.317831 851.80721,690 C844.439872,693.825168 833.515096,695.425516 822.991967,695.425516 C812.468838,695.425516 801.573899,693.865456 794.179019,690 C794.064263,690.317831 794.006885,690.651331 794,690.989306 L794,698.856752 C794.055083,703.930863 807.036287,708 823.019509,708 C839.005026,708 852,703.930863 852,698.856752 L851.986229,698.856752 Z M727.011487,676.871508 C727.011487,681.90838 739.992276,686 756.005744,686 C772.021509,686 785,681.93743 785,676.871508 L785,669.01676 C784.996496,668.679641 784.93675,668.345312 784.823094,668.026816 C777.517092,671.848045 766.528223,673.41676 756.021826,673.41676 C745.513131,673.41676 734.581699,671.861453 727.176906,668 C727.063092,668.318456 727.003342,668.652811 727,668.989944 L727.013785,676.871508 L727.011487,676.871508 Z M727,625.437521 L727,633.562479 C727,638.77114 739.98336,643 756,643 C772.018938,643 785,638.79887 785,633.562479 L785,625.437521 C785,620.22886 772.018938,616 756,616 C739.98336,616 727,620.22886 727,625.451387 L727,625.437521 Z M841.562406,600.290773 C842.033408,600.210517 842.49448,600.079957 842.937736,599.901326 C843.349415,599.740017 843.742695,599.52801 844.106076,599.27222 C844.929568,598.685253 845.542468,597.848126 845.853987,596.884841 C845.99198,596.366347 846.031078,595.824808 845.975881,595.294791 C845.941218,594.749128 845.810405,594.213923 845.589501,593.713959 C845.34941,593.201149 845.029578,592.729788 844.641949,592.317481 L827.921799,573.826817 C827.655184,573.537084 827.355703,573.279548 827.029445,573.059445 C826.340856,572.603939 825.570809,572.286235 824.76176,572.123851 C823.916462,571.958716 823.047288,571.958716 822.20199,572.123851 C821.792434,572.204725 821.391845,572.325911 821.006051,572.485645 C820.63577,572.637737 820.279288,572.831308 819.948105,573.059445 C819.625013,573.279147 819.329296,573.536766 819.06725,573.826817 L802.3471,592.262175 C801.780785,592.877634 801.370592,593.620599 801.151161,594.42833 C800.920724,595.283917 800.954401,596.189382 801.247756,597.025411 C801.316752,597.216677 801.401848,597.403335 801.496143,597.58308 C801.718206,598.019551 802.005129,598.419704 802.3471,598.769856 C803.063838,599.46502 803.943162,599.968935 804.90457,600.235467 C805.438143,600.369124 805.983215,600.435952 806.528287,600.431343 L813.499233,600.431343 L812.675875,624.286696 C812.671275,625.042546 812.825367,625.789178 813.128952,626.478199 C813.407237,627.160307 813.818916,627.777892 814.33869,628.294082 C814.872263,628.828707 815.502431,629.250416 816.194696,629.538469 C816.928358,629.842652 817.712618,629.999353 818.503778,629.999353 L828.540468,629.999353 C830.095408,630.02271 831.593324,629.413215 832.691757,628.310213 C833.204631,627.784805 833.60711,627.162612 833.876196,626.478199 C834.159082,625.77996 834.290175,625.026415 834.260277,624.27287 L833.436919,600.417516 L840.145678,600.417516 C840.619454,600.42443 841.093229,600.387559 841.562406,600.306904 L841.562406,600.293078 L841.562406,600.290773 Z M852,668.989183 C851.995408,668.653488 851.935719,668.317792 851.823227,668 C844.453847,671.82693 833.526045,673.427079 823,673.427079 C812.473955,673.427079 801.575997,671.867214 794.179069,668 C794.064281,668.32003 794.004592,668.653488 794,668.991421 L794,676.857889 C794,681.902275 806.971026,686 822.972451,686 C838.976172,686 851.944902,681.931369 851.944902,676.857889 L852,668.991421 L852,668.989183 Z M852,647.439024 C852,642.228498 839.018938,638 823,638 C806.98336,638 794,642.20077 794,647.439024 L794,655.560976 C794,660.769191 806.98336,665 823,665 C839.018938,665 852,660.796919 852,655.560976 L852,647.439024 Z" id="db"></path>
        </g>
    </g>
</svg>