<?xml version="1.0" encoding="utf-8"?>
<!-- Generator: Adobe Illustrator 20.1.0, SVG Export Plug-In . SVG Version: 6.00 Build 0)  -->
<svg version="1.1" id="Objects" xmlns="http://www.w3.org/2000/svg" xmlns:xlink="http://www.w3.org/1999/xlink" x="0px" y="0px"
	 viewBox="0 0 800 800" style="enable-background:new 0 0 800 800;" xml:space="preserve">
<style type="text/css">
	.st0{fill:url(#SVGID_1_);}
	.st1{fill:url(#SVGID_2_);}
	.st2{opacity:0.5;fill:url(#SVGID_3_);}
	.st3{fill:url(#SVGID_4_);}
	.st4{fill:url(#SVGID_5_);}
	.st5{fill:url(#SVGID_6_);}
	.st6{fill:url(#SVGID_7_);}
	.st7{fill:url(#SVGID_8_);}
	.st8{fill:url(#SVGID_9_);}
	.st9{fill:url(#SVGID_10_);}
	.st10{fill:url(#SVGID_11_);}
	.st11{fill:url(#SVGID_12_);}
	.st12{fill:url(#SVGID_13_);}
	.st13{fill:url(#SVGID_14_);}
	.st14{fill:url(#SVGID_15_);}
	.st15{fill:url(#SVGID_16_);}
	.st16{fill:url(#SVGID_17_);}
	.st17{fill:url(#SVGID_18_);}
	.st18{fill:url(#SVGID_19_);}
	.st19{fill:url(#SVGID_20_);}
	.st20{fill:url(#SVGID_21_);}
	.st21{fill:url(#SVGID_22_);}
	.st22{fill:url(#SVGID_23_);}
	.st23{fill:url(#SVGID_24_);}
	.st24{fill:url(#SVGID_25_);}
	.st25{fill:url(#SVGID_26_);}
</style>
<g>
	<g>
		
			<image style="overflow:visible;" width="248" height="415" xlink:href="19215126.png"  transform="matrix(0.24 0 0 0.24 370.5574 285.8023)">
		</image>
		
			<image style="overflow:visible;" width="219" height="395" xlink:href="1921512A.png"  transform="matrix(0.24 0 0 0.24 318.4812 285.8062)">
		</image>
		<linearGradient id="SVGID_1_" gradientUnits="userSpaceOnUse" x1="374.1565" y1="402.8166" x2="374.1565" y2="360.4738">
			<stop  offset="0" style="stop-color:#CED5E9"/>
			<stop  offset="1" style="stop-color:#E2E6F2"/>
		</linearGradient>
		<polygon class="st0" points="318.5,380.6 370.7,360.5 429.8,385.2 379.9,402.8 		"/>
	</g>
	<g>
		
			<image style="overflow:visible;" width="252" height="423" xlink:href="1921512D.png"  transform="matrix(0.24 0 0 0.24 291.487 254.0665)">
		</image>
		
			<image style="overflow:visible;" width="223" height="403" xlink:href="1921512E.png"  transform="matrix(0.24 0 0 0.24 238.3865 254.0704)">
		</image>
		<linearGradient id="SVGID_2_" gradientUnits="userSpaceOnUse" x1="295.1562" y1="373.3868" x2="295.1562" y2="330.2086">
			<stop  offset="0" style="stop-color:#99A7D0"/>
			<stop  offset="0.205" style="stop-color:#9FACD3"/>
			<stop  offset="0.4858" style="stop-color:#B1BCDB"/>
			<stop  offset="0.8091" style="stop-color:#CED4E8"/>
			<stop  offset="1" style="stop-color:#E2E6F2"/>
		</linearGradient>
		<polygon class="st1" points="238.4,350.7 291.7,330.2 351.9,355.4 301,373.4 		"/>
	</g>
	
		<radialGradient id="SVGID_3_" cx="386.4861" cy="652.7806" r="151.2085" gradientTransform="matrix(1 0 0 0.2012 0 514.7697)" gradientUnits="userSpaceOnUse">
		<stop  offset="5.376340e-03" style="stop-color:#224099"/>
		<stop  offset="0.9677" style="stop-color:#C8CFE6;stop-opacity:3.225800e-02"/>
		<stop  offset="1" style="stop-color:#CAD1E7;stop-opacity:0"/>
	</radialGradient>
	<ellipse class="st2" cx="386.5" cy="646.1" rx="212" ry="56.3"/>
	<g>
		
			<image style="overflow:visible;" width="169" height="284" xlink:href="1921512C.png"  transform="matrix(0.24 0 0 0.24 433.2898 533.7139)">
		</image>
		
			<image style="overflow:visible;" width="150" height="270" xlink:href="1921512B.png"  transform="matrix(0.24 0 0 0.24 397.7009 533.717)">
		</image>
		<linearGradient id="SVGID_4_" gradientUnits="userSpaceOnUse" x1="435.7498" y1="613.6807" x2="435.7498" y2="584.7443">
			<stop  offset="0" style="stop-color:#99A7D0"/>
			<stop  offset="0.205" style="stop-color:#9FACD3"/>
			<stop  offset="0.4858" style="stop-color:#B1BCDB"/>
			<stop  offset="0.8091" style="stop-color:#CED4E8"/>
			<stop  offset="1" style="stop-color:#E2E6F2"/>
		</linearGradient>
		<polygon class="st3" points="397.7,598.5 433.4,584.7 473.8,601.6 439.7,613.7 		"/>
	</g>
	<g>
		
			<image style="overflow:visible;" width="163" height="273" xlink:href="19215125.png"  transform="matrix(0.24 0 0 0.24 382.2898 569.1866)">
		</image>
		
			<image style="overflow:visible;" width="144" height="261" xlink:href="19215127.png"  transform="matrix(0.24 0 0 0.24 347.9851 569.1896)">
		</image>
		<linearGradient id="SVGID_5_" gradientUnits="userSpaceOnUse" x1="384.6604" y1="646.2667" x2="384.6604" y2="618.3741">
			<stop  offset="0" style="stop-color:#7689C0"/>
			<stop  offset="0.1835" style="stop-color:#7C8EC3"/>
			<stop  offset="0.4348" style="stop-color:#8E9DCB"/>
			<stop  offset="0.724" style="stop-color:#ABB6D8"/>
			<stop  offset="0.9946" style="stop-color:#CCD3E8"/>
		</linearGradient>
		<polygon class="st4" points="348,631.6 382.4,618.4 421.3,634.7 388.4,646.3 		"/>
	</g>
	<g>
		
			<image style="overflow:visible;" width="166" height="277" xlink:href="19215124.png"  transform="matrix(0.24 0 0 0.24 292.7546 533.4493)">
		</image>
		
			<image style="overflow:visible;" width="147" height="264" xlink:href="A1D0BAD9.png"  transform="matrix(0.24 0 0 0.24 257.9504 533.4532)">
		</image>
		<linearGradient id="SVGID_6_" gradientUnits="userSpaceOnUse" x1="295.1603" y1="611.6553" x2="295.1603" y2="583.3555">
			<stop  offset="0" style="stop-color:#99A7D0"/>
			<stop  offset="0.205" style="stop-color:#9FACD3"/>
			<stop  offset="0.4858" style="stop-color:#B1BCDB"/>
			<stop  offset="0.8091" style="stop-color:#CED4E8"/>
			<stop  offset="1" style="stop-color:#E2E6F2"/>
		</linearGradient>
		<polygon class="st5" points="257.9,596.8 292.9,583.4 332.4,599.9 299,611.7 		"/>
	</g>
	<g>
		
			<image style="overflow:visible;" width="218" height="365" xlink:href="A1D0BADF.png"  transform="matrix(0.24 0 0 0.24 365.4875 491.1866)">
		</image>
		
			<image style="overflow:visible;" width="193" height="348" xlink:href="A1D0BAD8.png"  transform="matrix(0.24 0 0 0.24 319.6116 491.1895)">
		</image>
		<linearGradient id="SVGID_7_" gradientUnits="userSpaceOnUse" x1="368.6579" y1="594.2667" x2="368.6579" y2="556.9659">
			<stop  offset="0" style="stop-color:#99A7D0"/>
			<stop  offset="0.1335" style="stop-color:#A7B3D6"/>
			<stop  offset="0.4932" style="stop-color:#C7CFE5"/>
			<stop  offset="0.7949" style="stop-color:#DBE0EF"/>
			<stop  offset="1" style="stop-color:#E2E6F2"/>
		</linearGradient>
		<polygon class="st6" points="319.6,574.7 365.6,557 417.7,578.7 373.7,594.3 		"/>
	</g>
	<g>
		
			<image style="overflow:visible;" width="248" height="415" xlink:href="A1D0BADB.png"  transform="matrix(0.24 0 0 0.24 438.5574 314.0523)">
		</image>
		
			<image style="overflow:visible;" width="219" height="395" xlink:href="A1D0BAC7.png"  transform="matrix(0.24 0 0 0.24 386.4812 314.0562)">
		</image>
		<linearGradient id="SVGID_8_" gradientUnits="userSpaceOnUse" x1="442.1565" y1="431.0666" x2="442.1565" y2="388.7248">
			<stop  offset="0" style="stop-color:#CED5E9"/>
			<stop  offset="1" style="stop-color:#E2E6F2"/>
		</linearGradient>
		<polygon class="st7" points="386.5,408.8 438.7,388.7 497.8,413.4 447.9,431.1 		"/>
	</g>
	<g>
		
			<image style="overflow:visible;" width="205" height="344" xlink:href="A1D0BAD7.png"  transform="matrix(0.24 0 0 0.24 292.1745 356.2188)">
		</image>
		
			<image style="overflow:visible;" width="182" height="328" xlink:href="A1D0BAC9.png"  transform="matrix(0.24 0 0 0.24 248.9988 356.2209)">
		</image>
		<linearGradient id="SVGID_9_" gradientUnits="userSpaceOnUse" x1="295.1584" y1="453.2344" x2="295.1584" y2="418.1281">
			<stop  offset="0" style="stop-color:#99A7D0"/>
			<stop  offset="0.205" style="stop-color:#9FACD3"/>
			<stop  offset="0.4858" style="stop-color:#B1BCDB"/>
			<stop  offset="0.8091" style="stop-color:#CED4E8"/>
			<stop  offset="1" style="stop-color:#E2E6F2"/>
		</linearGradient>
		<polygon class="st8" points="249,434.8 292.3,418.1 341.3,438.6 299.9,453.2 		"/>
	</g>
	<g>
		
			<image style="overflow:visible;" width="212" height="355" xlink:href="A1D0BACB.png"  transform="matrix(0.24 0 0 0.24 292.0759 444.6231)">
		</image>
		
			<image style="overflow:visible;" width="188" height="339" xlink:href="A1D0BAC8.png"  transform="matrix(0.24 0 0 0.24 247.4807 444.627)">
		</image>
		<linearGradient id="SVGID_10_" gradientUnits="userSpaceOnUse" x1="295.1582" y1="544.8292" x2="295.1582" y2="508.5685">
			<stop  offset="0" style="stop-color:#B6C0DD"/>
			<stop  offset="0.4068" style="stop-color:#C9D1E6"/>
			<stop  offset="1" style="stop-color:#E2E6F2"/>
		</linearGradient>
		<polygon class="st9" points="247.5,525.8 292.2,508.6 342.8,529.7 300.1,544.8 		"/>
	</g>
	<g>
		
			<image style="overflow:visible;" width="248" height="415" xlink:href="A1D0BACF.png"  transform="matrix(0.24 0 0 0.24 435.2243 265.1359)">
		</image>
		
			<image style="overflow:visible;" width="219" height="395" xlink:href="A1D0BAEC.png"  transform="matrix(0.24 0 0 0.24 383.1482 265.1397)">
		</image>
		<linearGradient id="SVGID_11_" gradientUnits="userSpaceOnUse" x1="438.8235" y1="382.1505" x2="438.8235" y2="339.8077">
			<stop  offset="0" style="stop-color:#576EB1"/>
			<stop  offset="0.9946" style="stop-color:#B2BCDB"/>
		</linearGradient>
		<polygon class="st10" points="383.1,359.9 435.4,339.8 494.5,364.5 444.6,382.2 		"/>
	</g>
	<g>
		
			<image style="overflow:visible;" width="191" height="319" xlink:href="A1D0BAEF.png"  transform="matrix(0.24 0 0 0.24 624.4265 281.3926)">
		</image>
		
			<image style="overflow:visible;" width="169" height="304" xlink:href="A1D0BAED.png"  transform="matrix(0.24 0 0 0.24 584.366 281.3893)">
		</image>
		<linearGradient id="SVGID_12_" gradientUnits="userSpaceOnUse" x1="627.1951" y1="371.4005" x2="627.1951" y2="338.8272">
			<stop  offset="0" style="stop-color:#CED5E9"/>
			<stop  offset="1" style="stop-color:#E2E6F2"/>
		</linearGradient>
		<polygon class="st11" points="584.4,354.3 624.6,338.8 670,357.8 631.6,371.4 		"/>
	</g>
	<g>
		
			<image style="overflow:visible;" width="164" height="275" xlink:href="A1D0BAE3.png"  transform="matrix(0.24 0 0 0.24 621.3161 124.7038)">
		</image>
		
			<image style="overflow:visible;" width="145" height="262" xlink:href="A1D0BAE4.png"  transform="matrix(0.24 0 0 0.24 586.8669 124.7008)">
		</image>
		<linearGradient id="SVGID_13_" gradientUnits="userSpaceOnUse" x1="623.697" y1="202.1042" x2="623.697" y2="174.0934">
			<stop  offset="0" style="stop-color:#CED5E9"/>
			<stop  offset="1" style="stop-color:#E2E6F2"/>
		</linearGradient>
		<polygon class="st12" points="586.9,187.4 621.4,174.1 660.5,190.5 627.5,202.1 		"/>
	</g>
	<g>
		
			<image style="overflow:visible;" width="241" height="404" xlink:href="A1D0BAE7.png"  transform="matrix(0.24 0 0 0.24 164.6863 338.3926)">
		</image>
		
			<image style="overflow:visible;" width="213" height="385" xlink:href="A1D0BAE5.png"  transform="matrix(0.24 0 0 0.24 113.9441 338.3888)">
		</image>
		<linearGradient id="SVGID_14_" gradientUnits="userSpaceOnUse" x1="168.1929" y1="452.4005" x2="168.1929" y2="411.1426">
			<stop  offset="0" style="stop-color:#CED5E9"/>
			<stop  offset="1" style="stop-color:#E2E6F2"/>
		</linearGradient>
		<polygon class="st13" points="113.9,430.7 164.8,411.1 222.4,435.2 173.8,452.4 		"/>
	</g>
	<g>
		
			<image style="overflow:visible;" width="132" height="221" xlink:href="A1D0BAE2.png"  transform="matrix(0.24 0 0 0.24 230.7263 503.6719)">
		</image>
		
			<image style="overflow:visible;" width="117" height="211" xlink:href="A1D0BB1C.png"  transform="matrix(0.24 0 0 0.24 202.9548 503.669)">
		</image>
		<linearGradient id="SVGID_15_" gradientUnits="userSpaceOnUse" x1="232.6458" y1="566.0674" x2="232.6458" y2="543.4865">
			<stop  offset="0" style="stop-color:#CED5E9"/>
			<stop  offset="1" style="stop-color:#E2E6F2"/>
		</linearGradient>
		<polygon class="st14" points="203,554.2 230.8,543.5 262.3,556.7 235.7,566.1 		"/>
	</g>
	<g>
		
			<image style="overflow:visible;" width="85" height="142" xlink:href="A1D0BB1F.png"  transform="matrix(0.24 0 0 0.24 154.4167 489.8643)">
		</image>
		
			<image style="overflow:visible;" width="75" height="136" xlink:href="A1D0BB03.png"  transform="matrix(0.24 0 0 0.24 136.6091 489.8625)">
		</image>
		<linearGradient id="SVGID_16_" gradientUnits="userSpaceOnUse" x1="155.6477" y1="529.8741" x2="155.6477" y2="515.3947">
			<stop  offset="0" style="stop-color:#CED5E9"/>
			<stop  offset="1" style="stop-color:#E2E6F2"/>
		</linearGradient>
		<polygon class="st15" points="136.6,522.3 154.5,515.4 174.7,523.8 157.6,529.9 		"/>
	</g>
	<g>
		
			<image style="overflow:visible;" width="104" height="173" xlink:href="A1D0BB01.png"  transform="matrix(0.24 0 0 0.24 542.696 237.9865)">
		</image>
		
			<image style="overflow:visible;" width="92" height="165" xlink:href="A1D0BB3F.png"  transform="matrix(0.24 0 0 0.24 520.9675 237.9836)">
		</image>
		<linearGradient id="SVGID_17_" gradientUnits="userSpaceOnUse" x1="544.1985" y1="286.8058" x2="544.1985" y2="269.1388">
			<stop  offset="0" style="stop-color:#CED5E9"/>
			<stop  offset="1" style="stop-color:#E2E6F2"/>
		</linearGradient>
		<polygon class="st16" points="521,277.5 542.8,269.1 567.4,279.5 546.6,286.8 		"/>
	</g>
	<g>
		
			<image style="overflow:visible;" width="98" height="163" xlink:href="A1D0BB02.png"  transform="matrix(0.24 0 0 0.24 679.7839 392.3907)">
		</image>
		
			<image style="overflow:visible;" width="86" height="156" xlink:href="A1D0BB05.png"  transform="matrix(0.24 0 0 0.24 659.3054 392.3888)">
		</image>
		<linearGradient id="SVGID_18_" gradientUnits="userSpaceOnUse" x1="681.1989" y1="438.4005" x2="681.1989" y2="421.7502">
			<stop  offset="0" style="stop-color:#CED5E9"/>
			<stop  offset="1" style="stop-color:#E2E6F2"/>
		</linearGradient>
		<polygon class="st17" points="659.3,429.7 679.8,421.8 703.1,431.5 683.5,438.4 		"/>
	</g>
	<g>
		
			<image style="overflow:visible;" width="140" height="234" xlink:href="A1D0BB06.png"  transform="matrix(0.24 0 0 0.24 644.7927 478.0373)">
		</image>
		
			<image style="overflow:visible;" width="124" height="223" xlink:href="A1D0BB07.png"  transform="matrix(0.24 0 0 0.24 615.4128 478.0342)">
		</image>
		<linearGradient id="SVGID_19_" gradientUnits="userSpaceOnUse" x1="646.822" y1="544.045" x2="646.822" y2="520.1573">
			<stop  offset="0" style="stop-color:#CED5E9"/>
			<stop  offset="1" style="stop-color:#E2E6F2"/>
		</linearGradient>
		<polygon class="st18" points="615.4,531.5 644.9,520.2 678.2,534.1 650.1,544 		"/>
	</g>
	<g>
		
			<image style="overflow:visible;" width="303" height="508" xlink:href="A1D0BB0C.png"  transform="matrix(0.24 0 0 0.24 364.2453 112.3721)">
		</image>
		
			<image style="overflow:visible;" width="268" height="484" xlink:href="A1D0BB0D.png"  transform="matrix(0.24 0 0 0.24 300.4358 112.3765)">
		</image>
		<linearGradient id="SVGID_20_" gradientUnits="userSpaceOnUse" x1="368.6541" y1="255.7477" x2="368.6541" y2="203.8658">
			<stop  offset="0" style="stop-color:#CED5E9"/>
			<stop  offset="1" style="stop-color:#E2E6F2"/>
		</linearGradient>
		<polygon class="st19" points="300.4,228.5 364.4,203.9 436.9,234.2 375.7,255.7 		"/>
	</g>
	<g>
		<g>
			
				<image style="overflow:visible;" width="248" height="415" xlink:href="A1D0BB0E.png"  transform="matrix(0.24 0 0 0.24 504.5574 378.3859)">
			</image>
			
				<image style="overflow:visible;" width="219" height="395" xlink:href="A1D0BB6A.png"  transform="matrix(0.24 0 0 0.24 452.4812 378.3897)">
			</image>
			<linearGradient id="SVGID_21_" gradientUnits="userSpaceOnUse" x1="452.4802" y1="474.2296" x2="563.8327" y2="474.2296">
				<stop  offset="0" style="stop-color:#576EB1"/>
				<stop  offset="0.9946" style="stop-color:#B2BCDB"/>
			</linearGradient>
			<polygon class="st20" points="452.5,473.2 504.7,453.1 563.8,477.8 513.9,495.4 			"/>
		</g>
		<g>
			
				<image style="overflow:visible;" width="248" height="415" xlink:href="A1D0BB69.png"  transform="matrix(0.24 0 0 0.24 436.5574 350.1359)">
			</image>
			
				<image style="overflow:visible;" width="219" height="395" xlink:href="A1D0BB6E.png"  transform="matrix(0.24 0 0 0.24 384.4812 350.1397)">
			</image>
			<linearGradient id="SVGID_22_" gradientUnits="userSpaceOnUse" x1="384.4802" y1="445.9796" x2="495.8327" y2="445.9796">
				<stop  offset="0" style="stop-color:#576EB1"/>
				<stop  offset="0.9946" style="stop-color:#B2BCDB"/>
			</linearGradient>
			<polygon class="st21" points="384.5,444.9 436.7,424.8 495.8,449.5 445.9,467.2 			"/>
		</g>
		<g>
			
				<image style="overflow:visible;" width="248" height="415" xlink:href="A1D0BB68.png"  transform="matrix(0.24 0 0 0.24 367.5574 322.5518)">
			</image>
			
				<image style="overflow:visible;" width="219" height="395" xlink:href="A1D0BB6B.png"  transform="matrix(0.24 0 0 0.24 315.4812 322.5558)">
			</image>
			<linearGradient id="SVGID_23_" gradientUnits="userSpaceOnUse" x1="371.1565" y1="439.5674" x2="371.1565" y2="397.2238">
				<stop  offset="0" style="stop-color:#99A7D0"/>
				<stop  offset="0.205" style="stop-color:#9FACD3"/>
				<stop  offset="0.4858" style="stop-color:#B1BCDB"/>
				<stop  offset="0.8091" style="stop-color:#CED4E8"/>
				<stop  offset="1" style="stop-color:#E2E6F2"/>
			</linearGradient>
			<polygon class="st22" points="315.5,417.3 367.7,397.2 426.8,422 376.9,439.6 			"/>
		</g>
	</g>
	<g>
		<g>
			
				<image style="overflow:visible;" width="248" height="415" xlink:href="A1D0BB77.png"  transform="matrix(0.24 0 0 0.24 436.5574 435.4688)">
			</image>
			
				<image style="overflow:visible;" width="219" height="395" xlink:href="A1D0BB66.png"  transform="matrix(0.24 0 0 0.24 384.4812 435.4727)">
			</image>
			<linearGradient id="SVGID_24_" gradientUnits="userSpaceOnUse" x1="440.1565" y1="552.4844" x2="440.1565" y2="510.1407">
				<stop  offset="0" style="stop-color:#99A7D0"/>
				<stop  offset="0.1335" style="stop-color:#A7B3D6"/>
				<stop  offset="0.4932" style="stop-color:#C7CFE5"/>
				<stop  offset="0.7949" style="stop-color:#DBE0EF"/>
				<stop  offset="1" style="stop-color:#E2E6F2"/>
			</linearGradient>
			<polygon class="st23" points="384.5,530.2 436.7,510.1 495.8,534.9 445.9,552.5 			"/>
		</g>
		<g>
			
				<image style="overflow:visible;" width="248" height="415" xlink:href="A1D0BB79.png"  transform="matrix(0.24 0 0 0.24 367.5574 407.8849)">
			</image>
			
				<image style="overflow:visible;" width="219" height="395" xlink:href="A1D0BB7A.png"  transform="matrix(0.24 0 0 0.24 315.4812 407.8888)">
			</image>
			<linearGradient id="SVGID_25_" gradientUnits="userSpaceOnUse" x1="371.1565" y1="524.9006" x2="371.1565" y2="482.5568">
				<stop  offset="0" style="stop-color:#B6C0DD"/>
				<stop  offset="0.4068" style="stop-color:#C9D1E6"/>
				<stop  offset="1" style="stop-color:#E2E6F2"/>
			</linearGradient>
			<polygon class="st24" points="315.5,502.7 367.7,482.6 426.8,507.3 376.9,524.9 			"/>
		</g>
	</g>
	<g>
		
			<image style="overflow:visible;" width="339" height="569" xlink:href="A1D0BB78.png"  transform="matrix(0.24 0 0 0.24 533.2517 282.131)">
		</image>
		
			<image style="overflow:visible;" width="300" height="542" xlink:href="A1D0BB55.png"  transform="matrix(0.24 0 0 0.24 461.8005 282.1231)">
		</image>
		<linearGradient id="SVGID_26_" gradientUnits="userSpaceOnUse" x1="538.1891" y1="442.6661" x2="538.1891" y2="384.5695">
			<stop  offset="0" style="stop-color:#CED5E9"/>
			<stop  offset="1" style="stop-color:#E2E6F2"/>
		</linearGradient>
		<polygon class="st25" points="461.8,412.1 533.5,384.6 614.6,418.5 546.1,442.7 		"/>
	</g>
</g>
</svg>
