
<svg width="200px" height="213px" viewBox="0 0 200 213" version="1.1" xmlns="http://www.w3.org/2000/svg" xmlns:xlink="http://www.w3.org/1999/xlink">
    <defs>
        <linearGradient x1="66.6668894%" y1="44.0987723%" x2="5.91703586%" y2="22.5760324%" id="linearGradient-1">
            <stop stop-color="#AF94C3" offset="0%"></stop>
            <stop stop-color="#8CF4D3" offset="100%"></stop>
        </linearGradient>
    </defs>
    <g id="Page-1" stroke="none" stroke-width="1" fill="none" fill-rule="evenodd">
        <g id="Desktop-HD" transform="translate(-1159.000000, -285.000000)" fill="url(#linearGradient-1)">
            <path d="M1159,324.879565 L1292.64113,285 L1359,393.859289 L1292.64113,474.227679 L1184.88917,498 L1168.71494,413.62459 L1159,324.879565 Z M1235.5,421 C1256.21068,421 1273,403.98682 1273,383 C1273,362.01318 1256.21068,345 1235.5,345 C1214.78932,345 1198,362.01318 1198,383 C1198,403.98682 1214.78932,421 1235.5,421 Z M1293.18173,353.104211 L1285.15154,361.210488 L1285.15154,382.611639 C1285.15154,410.265553 1262.85833,432.761868 1235.45461,432.761868 L1214.24438,432.761868 L1200,447.135374 L1208.786,456 L1219.39215,445.298392 L1235.45461,445.298392 C1269.70822,445.298392 1297.57577,417.177482 1297.57577,382.611639 L1297.57577,366.403217 L1301.96981,361.968837 L1310,370.075114 L1310,345 L1285.15154,345 L1293.18173,353.104211 Z" id="direct"></path>
        </g>
    </g>
</svg>