<svg width="200px" height="209px" viewBox="0 0 200 209" version="1.1" xmlns="http://www.w3.org/2000/svg" xmlns:xlink="http://www.w3.org/1999/xlink">
    <defs>
        <linearGradient x1="50%" y1="37.8370098%" x2="66.5384291%" y2="131.408292%" id="linearGradient-1">
            <stop stop-color="#AF94C3" offset="0%"></stop>
            <stop stop-color="#8CF4D3" offset="100%"></stop>
        </linearGradient>
    </defs>
    <g id="Page-1" stroke="none" stroke-width="1" fill="none" fill-rule="evenodd">
        <g id="Desktop-HD" transform="translate(-1132.000000, -46.000000)" fill="url(#linearGradient-1)">
            <g id="idea" transform="translate(1132.000000, 46.000000)">
                <path d="M44.2856343,209 L0,102.080573 L18.109375,23 L166.671875,0 L193.988356,143.192539 L200,183.386621 L44.2856343,209 Z M147.943003,114.689487 L141.100777,97.4945389 C140.952024,97.1216199 140.549029,96.9211582 140.165124,97.0291168 L118.822399,102.987203 L66.1755968,102.987203 L44.8328718,97.0291168 C44.4489666,96.9211582 44.0459718,97.1216199 43.8972189,97.4945389 L37.0549924,114.689487 C36.9736738,114.89624 36.9828836,115.128041 37.0803443,115.327569 C37.1778049,115.527096 37.3544169,115.67572 37.5665052,115.736687 L58.5800976,121.761506 L58.6123322,171.907308 C58.6132312,172.463379 58.8331722,172.996303 59.2237465,173.388783 C59.6143208,173.781263 60.1435169,174.001131 60.6948596,173.999996 L124.334522,173.999996 C124.885865,174.001131 125.415061,173.781263 125.805636,173.388783 C126.19621,172.996303 126.416151,172.463379 126.41705,171.907308 L126.429774,121.885562 C126.429774,121.842784 126.427229,121.801718 126.424684,121.760651 L147.432339,115.737542 C147.645056,115.677516 147.822389,115.529017 147.920005,115.329172 C148.017621,115.129327 148.026292,114.897025 147.943852,114.690343 L147.943003,114.689487 Z M63.2676929,119.836507 L66.6523301,107.086168 L118.346514,107.086168 L121.731151,119.836507 L63.2676929,119.836507 Z M100.364561,89.9273992 C100.363179,88.9274019 99.5498926,88.1157841 98.5431814,88.1097554 L87.4432198,88.1097554 C86.4326644,88.1097554 85.6218402,88.9134697 85.6218402,89.9138914 L85.6218402,91.7838778 C85.6210668,93.2588318 86.7060179,94.5127355 88.1741515,94.7336443 L88.6263092,96.4322506 C88.8772535,97.3573879 89.7219372,98.0001641 90.6865164,98 L95.2998848,98 C96.2644641,98.0001641 97.1091478,97.3573879 97.3600921,96.4322506 L97.8249986,94.7336443 C99.2859551,94.5132191 100.365347,93.2652186 100.364561,91.7973856 L100.364561,89.9273992 Z M108.912211,64.7226829 L108.912211,64.7218386 C108.912211,55.9789131 101.732933,48.8940704 92.8937599,48.9599209 C84.0401382,49.0257715 76.9942973,56.1232777 77.0877886,64.8940631 C77.1247783,68.9128545 78.7142025,72.7640428 81.5277732,75.652184 C83.6279267,77.7990805 84.9971487,80.5909745 85.4629051,83.5272332 C85.6490377,84.7919013 86.7649833,85.7129646 88.0551626,85.7129646 L97.9312387,85.7129646 C99.2263464,85.7175567 100.331994,84.7847919 100.537095,83.5145697 C100.990707,80.5596296 102.356119,77.8172731 104.445029,75.6656918 C107.210671,72.8341186 108.912211,68.9759524 108.912211,64.7226829 Z M94.7950321,55.1751988 L94.7941822,55.1751988 C94.79555,55.6480387 94.6067063,56.1018305 94.2696275,56.4357042 C93.9325487,56.769578 93.475167,56.9558673 92.9991501,56.9531634 C88.6526567,56.9531634 85.1033887,60.4559056 85.1033887,64.7750256 C85.1015131,65.757844 84.2986422,66.5534577 83.3092066,66.5529902 C82.3194392,66.5539238 81.5160504,65.7581738 81.5141745,64.7750256 C81.5141745,58.4938972 86.6723419,53.3972342 93,53.3972342 C93.9897674,53.3963006 94.7931562,54.1920506 94.7950321,55.1751988 Z M92.9991501,43.7847439 C93.9885858,43.7852114 94.7914566,42.9895977 94.7933322,42.0067793 L94.7933322,35.7779936 C94.7914572,34.7955049 93.9891039,34.0000273 93,34.000029 C92.5239831,33.9973251 92.0666013,34.1836144 91.7295226,34.5174882 C91.3924438,34.851362 91.2036001,35.3051537 91.2049679,35.7779936 L91.2049679,42.0067793 C91.2068438,42.9899275 92.0102326,43.7856775 93,43.7847439 L92.9991501,43.7847439 Z M71.876926,64.7091751 C71.8750501,63.7260268 71.0716614,62.9302768 70.081894,62.9312105 L63.7941822,62.9312105 C62.8047465,62.9307429 62.0018756,63.7263567 62,64.7091751 C62.0018756,65.6919935 62.8047465,66.4876072 63.7941822,66.4871396 L70.081894,66.4871396 C70.5579109,66.4898436 71.0152926,66.3035542 71.3523714,65.9696805 C71.6894501,65.6358067 71.8782939,65.182015 71.876926,64.7091751 Z M122.204968,62.9312105 L115.917256,62.9312105 C114.92782,62.9307429 114.12495,63.7263567 114.123074,64.7091751 C114.12495,65.6919935 114.92782,66.4876072 115.917256,66.4871396 L122.204968,66.4871396 C123.194735,66.4880733 123.998124,65.6923233 124,64.7091751 C123.998124,63.7260268 123.194735,62.9302768 122.204968,62.9312105 Z M75.533284,79.5111945 L71.0797006,83.9223365 C70.7412762,84.2546011 70.5508181,84.7075939 70.5508181,85.1802506 C70.5508181,85.6529074 70.7412762,86.1059002 71.0797006,86.4381648 C71.4256182,86.780081 71.8913747,86.9514613 72.3426825,86.9514613 C72.7948402,86.9514613 73.2605966,86.780081 73.6056643,86.4373205 L78.0592477,82.0261786 C78.3976721,81.693914 78.5881302,81.2409212 78.5881302,80.7682644 C78.5881302,80.2956077 78.3976721,79.8426149 78.0592477,79.5103503 C77.7255737,79.1752225 77.2707824,78.9866369 76.7962658,78.9866369 C76.3217492,78.9866369 75.866958,79.1752225 75.533284,79.5103503 L75.533284,79.5111945 Z M109.205434,50.4348042 C109.656742,50.4348042 110.122498,50.2634239 110.467566,49.9206634 L114.921149,45.5095215 C115.259574,45.1772569 115.450032,44.7242641 115.450032,44.2516073 C115.450032,43.7789506 115.259574,43.3259578 114.921149,42.9936932 C114.584731,42.658849 114.128041,42.4706787 113.651793,42.4706787 C113.175545,42.4706787 112.718855,42.658849 112.382437,42.9936932 L107.928853,47.4056793 C107.590429,47.7379439 107.399971,48.1909368 107.399971,48.6635935 C107.399971,49.1362502 107.590429,49.589243 107.928853,49.9215077 C108.270701,50.2514356 108.728798,50.4356305 109.205434,50.4348042 Z M75.533284,49.9079999 C75.8792016,50.2499161 76.3441081,50.4212964 76.7962658,50.4212964 C77.2484235,50.4212964 77.71418,50.2499161 78.0592477,49.9079999 C78.3976721,49.5757352 78.5881302,49.1227424 78.5881302,48.6500857 C78.5881302,48.177429 78.3976721,47.7244361 78.0592477,47.3921715 L73.6056643,42.9810296 C73.2692458,42.6461855 72.8125564,42.4580151 72.3363081,42.4580151 C71.8600597,42.4580151 71.4033703,42.6461855 71.0669518,42.9810296 C70.7285274,43.3132942 70.5380693,43.766287 70.5380693,44.2389438 C70.5380693,44.7116005 70.7285274,45.1645933 71.0669518,45.4968579 L75.533284,49.9079999 Z M110.467566,79.5111945 C110.131147,79.1763504 109.674458,78.9881801 109.19821,78.9881801 C108.721961,78.9881801 108.265272,79.1763504 107.928853,79.5111945 C107.590692,79.8434268 107.400401,80.296238 107.400401,80.7686866 C107.400401,81.2411351 107.590692,81.6939463 107.928853,82.0261786 L112.382437,86.4373205 C112.727505,86.780081 113.193261,86.9514613 113.645419,86.9514613 C114.096726,86.9514613 114.562483,86.780081 114.907551,86.4373205 C115.245712,86.1050882 115.436003,85.6522771 115.436003,85.1798285 C115.436003,84.7073799 115.245712,84.2545688 114.907551,83.9223365 L110.467566,79.5111945 Z" id="Combined-Shape"></path>
            </g>
        </g>
    </g>
</svg>