<svg width="151px" height="158px" viewBox="0 0 151 158" version="1.1" xmlns="http://www.w3.org/2000/svg" xmlns:xlink="http://www.w3.org/1999/xlink">
    <defs>
        <linearGradient x1="65.5255733%" y1="71.3426009%" x2="21.7581697%" y2="20.6434709%" id="linearGradient-1">
            <stop stop-color="#AF94C3" offset="0%"></stop>
            <stop stop-color="#8CF4D3" offset="100%"></stop>
        </linearGradient>
    </defs>
    <g id="Page-1" stroke="none" stroke-width="1" fill="none" fill-rule="evenodd">
        <g id="Desktop-HD" transform="translate(-836.000000, -338.000000)" fill="url(#linearGradient-1)">
            <path d="M874.346621,338.534595 L964.155046,356.071391 L986.243737,442.880344 L937.409712,495.248424 L853.671312,474.550691 L836.368286,401.02577 L874.346621,338.534595 Z M885.580357,374.611607 C877.723175,379.209844 871.495559,385.448621 866.897321,393.328125 C862.299084,401.207629 860,409.812453 860,419.142857 C860,428.473261 862.299084,437.078086 866.897321,444.957589 C871.495559,452.837093 877.734336,459.07587 885.613839,463.674107 C893.493343,468.272344 902.098168,470.571429 911.428571,470.571429 C920.758975,470.571429 929.3638,468.272344 937.243304,463.674107 C945.122807,459.07587 951.361584,452.837093 955.959821,444.957589 C960.558059,437.078086 962.857143,428.473261 962.857143,419.142857 C962.857143,409.812453 960.558059,401.207629 955.959821,393.328125 C951.361584,385.448621 945.122807,379.209844 937.243304,374.611607 C929.3638,370.01337 920.758975,367.714286 911.428571,367.714286 C902.098168,367.714286 893.482182,370.01337 885.580357,374.611607 Z M929.776786,402.602679 C930.937506,401.843746 931.897318,401.575892 932.65625,401.799107 C933.638398,402.066966 933.794646,402.424105 933.125,402.870536 C933.035714,402.959822 932.801341,402.993304 932.421875,402.970982 C932.042409,402.948661 931.785715,402.959821 931.651786,403.004464 C932.053573,403.09375 932.388392,403.216517 932.65625,403.372768 C932.924108,403.529019 932.991072,403.74107 932.857143,404.008929 C933.571432,404.410716 933.705359,404.85714 933.258929,405.348214 C932.678569,405.928574 931.986611,406.174108 931.183036,406.084821 C931.316965,406.084821 931.316965,406.174106 931.183036,406.352679 L930.044643,407.089286 C929.955357,407.133929 929.665181,407.245535 929.174107,407.424107 C928.683033,407.602679 928.348215,407.80357 928.169643,408.026786 C928.035714,408.205358 927.96875,408.473212 927.96875,408.830357 C927.96875,409.187502 927.946429,409.455356 927.901786,409.633929 C927.857143,409.812501 927.678573,409.857143 927.366071,409.767857 C927.232142,410.035716 926.8192,410.247767 926.127232,410.404018 C925.435264,410.560269 924.97768,410.794641 924.754464,411.107143 C925.066966,411.464288 925.044645,411.821427 924.6875,412.178571 C924.151783,412.625002 923.683038,412.58036 923.28125,412.044643 C923.058035,412.133929 922.890626,412.357141 922.779018,412.714286 C922.66741,413.07143 922.500001,413.316964 922.276786,413.450893 C922.589287,413.941967 922.544645,414.299106 922.142857,414.522321 C922.1875,414.522321 922.287946,414.566964 922.444196,414.65625 C922.600447,414.745536 922.767856,414.857142 922.946429,414.991071 C923.125001,415.125001 923.236607,415.191964 923.28125,415.191964 C923.102678,415.593752 922.857144,415.794643 922.544643,415.794643 C922.812501,416.508932 922.477683,417.290174 921.540179,418.138393 C921.361606,418.316965 921.082591,418.495535 920.703125,418.674107 C920.323659,418.852679 919.97768,418.997767 919.665179,419.109375 C919.352677,419.220983 919.174107,419.299107 919.129464,419.34375 C918.683033,419.745538 918.348215,420.15848 918.125,420.582589 C917.901785,421.006699 917.868303,421.419641 918.024554,421.821429 C918.180804,422.223216 918.593747,422.491071 919.263393,422.625 L919.330357,423.160714 L919.330357,424.366071 L919.397321,424.901786 C919.441965,425.214287 919.475446,425.493302 919.497768,425.738839 C919.520089,425.984376 919.520089,426.296873 919.497768,426.676339 C919.475446,427.055805 919.375001,427.267857 919.196429,427.3125 C919.017856,427.357143 918.772323,427.312501 918.459821,427.178571 C918.102677,426.999999 917.678574,426.017866 917.1875,424.232143 C917.098214,423.785712 916.830359,423.250003 916.383929,422.625 C916.160713,422.848215 915.970983,422.993303 915.814732,423.060268 C915.658481,423.127232 915.546875,423.138393 915.479911,423.09375 C915.412946,423.049107 915.290179,422.948661 915.111607,422.792411 C914.933035,422.63616 914.776786,422.513393 914.642857,422.424107 C914.419642,422.290178 914.029021,422.178572 913.470982,422.089286 C912.912944,422 912.566965,421.888394 912.433036,421.754464 C911.361602,422.55804 910.714287,422.357149 910.491071,421.151786 C910.401785,421.375001 910.412946,421.676337 910.524554,422.055804 C910.636161,422.43527 910.691964,422.647321 910.691964,422.691964 C910.379463,423.272324 909.888396,423.316967 909.21875,422.825893 C908.950892,422.558034 908.337058,422.524553 907.377232,422.725446 C906.417406,422.92634 905.781252,422.959822 905.46875,422.825893 C905.513393,422.825893 905.602678,422.892856 905.736607,423.026786 C905.870536,423.116072 905.959821,423.183035 906.004464,423.227679 C905.959821,423.406251 905.892858,423.540178 905.803571,423.629464 C905.714285,423.71875 905.625,423.752232 905.535714,423.729911 C905.446428,423.707589 905.345983,423.707589 905.234375,423.729911 C905.122767,423.752232 905.022322,423.785714 904.933036,423.830357 C904.754463,423.964286 904.531251,424.198659 904.263393,424.533482 C903.995534,424.868305 903.794644,425.080357 903.660714,425.169643 C903.928573,425.883932 904.051339,426.430802 904.029018,426.810268 C904.006696,427.189734 903.939733,427.747764 903.828125,428.484375 C903.716517,429.220986 903.660714,429.812498 903.660714,430.258929 C903.660714,430.973218 903.872766,431.799102 904.296875,432.736607 C904.720984,433.674112 905.223211,434.321427 905.803571,434.678571 C906.116073,434.857144 906.651782,434.96875 907.410714,435.013393 C908.169647,435.058036 908.705356,435.013394 909.017857,434.879464 C909.285716,434.745535 909.486606,434.589287 909.620536,434.410714 C909.754465,434.232142 909.866071,433.975448 909.955357,433.640625 C910.044643,433.305802 910.111607,433.071429 910.15625,432.9375 C910.468752,432.089281 911.049103,431.642857 911.897321,431.598214 C912.433038,431.553571 912.823659,431.609374 913.069196,431.765625 C913.314733,431.921876 913.415179,432.133927 913.370536,432.401786 C913.325893,432.669644 913.236608,432.948659 913.102679,433.238839 C912.968749,433.529019 912.80134,433.852677 912.600446,434.209821 C912.399553,434.566966 912.276786,434.834821 912.232143,435.013393 C912.142857,435.370538 912.064732,435.872765 911.997768,436.520089 C911.930803,437.167414 911.875,437.558035 911.830357,437.691964 C911.919643,437.736607 912.254461,437.758929 912.834821,437.758929 C912.834821,437.669642 912.868303,437.524555 912.935268,437.323661 C913.002232,437.122767 913.035714,437 913.035714,436.955357 C913.25893,437.312502 913.616069,437.513393 914.107143,437.558036 C914.598217,437.602679 914.955356,437.424109 915.178571,437.022321 C915.267858,437.156251 915.535712,437.491069 915.982143,438.026786 C916.428574,438.562503 916.674107,439.008927 916.71875,439.366071 C916.763393,439.544644 916.852678,439.834819 916.986607,440.236607 C917.120536,440.638395 917.165179,440.91741 917.120536,441.073661 C917.075893,441.229911 916.852681,441.308036 916.450893,441.308036 C916.272321,441.308036 916.160715,441.374999 916.116071,441.508929 C916.071428,441.642858 916.071428,441.810267 916.116071,442.011161 C916.160715,442.212055 916.216518,442.401785 916.283482,442.580357 C916.350447,442.758929 916.439732,442.94866 916.551339,443.149554 C916.662947,443.350447 916.71875,443.473214 916.71875,443.517857 C917.522325,444.991079 918.616065,445.39286 920,444.723214 C920,446.017864 919.687503,446.732142 919.0625,446.866071 C918.705355,446.955358 918.303574,446.732146 917.857143,446.196429 C917.410712,445.660712 917.254464,445.214288 917.388393,444.857143 C917.34375,445.080358 917.187501,445.281249 916.919643,445.459821 C916.696427,445.191963 916.294646,444.857145 915.714286,444.455357 C915.133926,444.053569 914.732144,443.718751 914.508929,443.450893 C914.419642,443.316964 914.296876,443.127233 914.140625,442.881696 C913.984374,442.636159 913.783483,442.312502 913.537946,441.910714 C913.292409,441.508927 913.11384,441.162948 913.002232,440.872768 C912.890624,440.582588 912.879464,440.415179 912.96875,440.370536 C912.120531,440.72768 910.892865,440.482147 909.285714,439.633929 C908.973213,439.455356 908.504467,438.986611 907.879464,438.227679 C907.254461,437.468746 906.607146,437.133928 905.9375,437.223214 C905.714285,437.267857 905.412948,437.345982 905.033482,437.457589 C904.654016,437.569197 904.330358,437.625 904.0625,437.625 C903.794642,437.625 903.437502,437.535715 902.991071,437.357143 C902.633927,437.223214 902.154021,436.96652 901.551339,436.587054 C900.948658,436.207587 900.535715,435.973215 900.3125,435.883929 C900.178571,435.794642 899.888395,435.638394 899.441964,435.415179 L898.370536,434.879464 C898.102677,434.745535 897.823662,434.533484 897.533482,434.243304 C897.243302,433.953124 897.053572,433.651787 896.964286,433.339286 C896.875,433.071427 896.763394,432.535718 896.629464,431.732143 C896.495535,430.928567 896.316965,430.348216 896.09375,429.991071 C895.825892,429.589284 895.446431,429.15402 894.955357,428.685268 C894.464283,428.216516 894.017859,427.982143 893.616071,427.982143 C893.973216,427.982143 893.973216,427.680807 893.616071,427.078125 C893.258927,426.475443 892.94643,426.04018 892.678571,425.772321 C892.589285,425.683035 892.321431,425.39286 891.875,424.901786 C891.428569,424.410712 891.049109,423.986609 890.736607,423.629464 C890.424106,423.27232 890.156251,422.859377 889.933036,422.390625 C889.70982,421.921873 889.665178,421.531252 889.799107,421.21875 C889.84375,421.174107 889.799108,421.107143 889.665179,421.017857 C889.531249,420.928571 889.36384,420.839286 889.162946,420.75 C888.962053,420.660714 888.772322,420.58259 888.59375,420.515625 C888.415178,420.44866 888.28125,420.415179 888.191964,420.415179 C888.28125,420.593751 888.381696,420.917408 888.493304,421.386161 C888.604911,421.854913 888.727678,422.200892 888.861607,422.424107 C888.950893,422.602679 889.330354,423.249994 890,424.366071 C891.16072,426.241081 891.696429,427.624996 891.607143,428.517857 C891.339284,428.607143 891.160715,428.562501 891.071429,428.383929 C890.982142,428.205356 890.915179,427.959823 890.870536,427.647321 C890.825893,427.33482 890.78125,427.111608 890.736607,426.977679 C890.602678,426.70982 890.256699,426.419644 889.698661,426.107143 C889.140622,425.794641 888.794644,425.482144 888.660714,425.169643 C888.705357,425.169643 888.76116,425.147322 888.828125,425.102679 C888.89509,425.058035 888.950893,425.035714 888.995536,425.035714 C889.040179,424.633927 888.805806,424.120539 888.292411,423.495536 C887.779015,422.870533 887.566964,422.424108 887.65625,422.15625 C887.299105,421.888392 886.986608,421.363843 886.71875,420.582589 C886.450892,419.801335 886.227679,419.299108 886.049107,419.075893 C885.870535,418.808034 885.647323,418.573662 885.379464,418.372768 C885.111606,418.171874 884.776788,417.948662 884.375,417.703125 C883.973212,417.457588 883.705358,417.290179 883.571429,417.200893 C883.482142,417.15625 883.303573,416.955359 883.035714,416.598214 C881.562493,414.812491 881.116069,413.852679 881.696429,413.71875 C881.116069,413.852679 880.636163,413.417416 880.256696,412.412946 C879.87723,411.408477 879.754464,410.638396 879.888393,410.102679 L879.754464,410.035714 C879.799107,409.857142 879.821429,409.332594 879.821429,408.462054 C879.821429,407.591514 879.877232,406.799111 879.988839,406.084821 C880.100447,405.370532 880.312498,405.013393 880.625,405.013393 C880.312498,405.058036 880.078126,404.779021 879.921875,404.176339 C879.765624,403.573658 879.754464,403.160715 879.888393,402.9375 C879.933036,402.803571 880.133927,402.892856 880.491071,403.205357 C880.848216,403.517859 881.049107,403.71875 881.09375,403.808036 C881.67411,403.495534 881.897322,403.093752 881.763393,402.602679 C881.674107,402.424106 881.205361,401.955361 880.357143,401.196429 C878.43749,399.946422 877.455357,399.34375 877.410714,399.388393 C877.678573,398.897319 877.611609,398.473216 877.209821,398.116071 C876.763391,398.38393 876.506697,398.450894 876.439732,398.316964 C876.372768,398.183035 876.316965,397.937502 876.272321,397.580357 C876.227678,397.223212 876.116072,397.022322 875.9375,396.977679 C875.714285,396.933035 875.44643,396.754466 875.133929,396.441964 C879.107163,390.102647 884.352646,385.147339 890.870536,381.575893 C891.138394,381.53125 891.629461,381.508929 892.34375,381.508929 C892.700895,381.553572 893.035713,381.665178 893.348214,381.84375 C893.660716,382.022322 893.984373,382.267856 894.319196,382.580357 C894.65402,382.892859 894.910713,383.116071 895.089286,383.25 C895.178572,382.982142 895.066966,382.58036 894.754464,382.044643 C894.84375,381.776784 895.334817,381.50893 896.227679,381.241071 C897.254469,381.107142 897.924106,381.129463 898.236607,381.308036 C897.968749,380.906248 897.522325,380.348218 896.897321,379.633929 L896.5625,379.96875 C896.205355,379.656248 895.267865,379.812497 893.75,380.4375 C893.660714,380.482143 893.437502,380.60491 893.080357,380.805804 C892.723213,381.006697 892.433037,381.151785 892.209821,381.241071 C891.941963,381.330358 891.674108,381.352679 891.40625,381.308036 C893.549118,380.147316 895.647311,379.232146 897.700893,378.5625 C897.834822,378.651786 898.058034,378.841516 898.370536,379.131696 C898.683037,379.421876 898.928571,379.633928 899.107143,379.767857 C898.973214,379.678571 898.883929,379.723213 898.839286,379.901786 C898.660713,380.437503 898.660713,380.883927 898.839286,381.241071 C899.062501,381.553573 899.363837,381.732143 899.743304,381.776786 C900.12277,381.821429 900.580354,381.799108 901.116071,381.709821 C901.651788,381.620535 902.008928,381.575893 902.1875,381.575893 L902.857143,381.642857 C904.285721,381.776786 904.843752,381.642859 904.53125,381.241071 C904.665179,381.419644 904.821428,381.787944 905,382.345982 C905.178572,382.904021 905.379463,383.294642 905.602679,383.517857 C905.825894,383.339285 905.870536,383.026788 905.736607,382.580357 C905.602678,382.133926 905.602678,381.821429 905.736607,381.642857 C905.78125,381.553571 905.915177,381.464286 906.138393,381.375 C906.361608,381.285714 906.618302,381.185268 906.908482,381.073661 C907.198662,380.962053 907.388392,380.883929 907.477679,380.839286 C907.745537,380.660713 907.566967,380.348217 906.941964,379.901786 C906.852678,379.857143 906.662948,379.790179 906.372768,379.700893 C906.082588,379.611607 905.825894,379.522322 905.602679,379.433036 C905.379463,379.34375 905.145091,379.220983 904.899554,379.064732 C904.654017,378.908481 904.542411,378.729912 904.564732,378.529018 C904.587054,378.328124 904.70982,378.07143 904.933036,377.758929 C905.200894,377.535713 905.636158,377.446428 906.238839,377.491071 C906.841521,377.535715 907.299106,377.647321 907.611607,377.825893 C908.81697,378.495539 908.99554,379.098212 908.147321,379.633929 C908.593752,379.678572 909.129461,379.857141 909.754464,380.169643 C910.379467,380.482144 910.625001,380.816963 910.491071,381.174107 C910.848216,380.504461 911.205355,380.169643 911.5625,380.169643 C911.785715,380.214286 911.997767,380.515622 912.198661,381.073661 C912.399555,381.631699 912.522321,381.933035 912.566964,381.977679 C912.924109,382.468752 913.281248,382.580358 913.638393,382.3125 C913.995537,382.044642 914.363837,381.65402 914.743304,381.140625 C915.12277,380.62723 915.334821,380.392857 915.379464,380.4375 C914.933033,380.258928 914.888391,380.080358 915.245536,379.901786 C915.915182,379.499998 916.517854,379.388392 917.053571,379.566964 C917.232144,379.65625 917.410713,379.857141 917.589286,380.169643 C917.991073,380.973218 917.92411,381.352679 917.388393,381.308036 C917.790181,381.66518 917.95759,382.111604 917.890625,382.647321 C917.82366,383.183038 917.477682,383.428572 916.852679,383.383929 C916.629463,383.383929 916.305806,383.272323 915.881696,383.049107 C915.457587,382.825892 915.13393,382.703125 914.910714,382.680804 C914.687499,382.658482 914.375002,382.781249 913.973214,383.049107 C913.794642,383.272323 913.560269,383.651783 913.270089,384.1875 C912.979909,384.723217 912.723215,385.102677 912.5,385.325893 C911.830354,385.995539 910.714294,386.241072 909.151786,386.0625 C909.285715,386.0625 909.274554,386.196427 909.118304,386.464286 C908.962053,386.732144 908.750001,387.03348 908.482143,387.368304 C908.214284,387.703127 908.058036,387.892857 908.013393,387.9375 C907.611605,388.383931 907.343751,388.897319 907.209821,389.477679 C907.209821,389.566965 907.1875,389.868301 907.142857,390.381696 C907.098214,390.895092 907.008929,391.285713 906.875,391.553571 C907.410717,391.419642 907.83482,391.687497 908.147321,392.357143 C908.41518,392.982146 908.41518,393.316964 908.147321,393.361607 C909.620543,393.138392 910.915173,393.227677 912.03125,393.629464 C913.638401,394.209824 914.55357,394.790176 914.776786,395.370536 C915.044644,394.968748 915.691959,394.946427 916.71875,395.303571 C917.120538,395.526787 917.477677,396.196423 917.790179,397.3125 C917.968751,397.982146 918.270087,398.562498 918.694196,399.053571 C919.118306,399.544645 919.57589,399.678573 920.066964,399.455357 L920.267857,399.321429 C920.446429,399.232142 920.591517,399.154018 920.703125,399.087054 C920.814733,399.020089 920.937499,398.930804 921.071429,398.819196 C921.205358,398.707589 921.283482,398.607143 921.305804,398.517857 C921.328125,398.428571 921.294643,398.339286 921.205357,398.25 C920.892856,397.982142 920.658483,397.613842 920.502232,397.145089 C920.345981,396.676337 920.379463,396.263395 920.602679,395.90625 C920.736608,395.727678 921.093747,395.459823 921.674107,395.102679 C922.254467,394.745534 922.611606,394.388395 922.745536,394.03125 C922.924108,393.45089 922.700896,392.970984 922.075893,392.591518 C921.45089,392.212052 921.138393,391.866073 921.138393,391.553571 C921.138393,391.330356 921.283481,391.062502 921.573661,390.75 C921.863841,390.437498 921.986607,390.147323 921.941964,389.879464 C921.941964,389.745535 921.86384,389.46652 921.707589,389.042411 C921.551339,388.618301 921.462054,388.305805 921.439732,388.104911 C921.417411,387.904017 921.517856,387.669644 921.741071,387.401786 C922.053573,387.223213 922.790173,387.234374 923.950893,387.435268 C925.111613,387.636162 925.870534,387.848213 926.227679,388.071429 C926.361608,388.160715 926.651783,388.294642 927.098214,388.473214 C927.544645,388.651787 927.935266,388.841517 928.270089,389.042411 C928.604912,389.243305 928.794643,389.433035 928.839286,389.611607 L928.504464,389.611607 C928.816966,389.879466 929.006696,390.191962 929.073661,390.549107 C929.140625,390.906252 928.973216,391.174106 928.571429,391.352679 C928.839287,391.308035 929.196426,391.374999 929.642857,391.553571 C930.357146,391.82143 930.379468,392.066963 929.709821,392.290179 C929.843751,392.245535 930.033481,392.200893 930.279018,392.15625 C930.524555,392.111607 930.714285,392.044643 930.848214,391.955357 C930.9375,391.910714 931.049106,391.83259 931.183036,391.720982 C931.316965,391.609374 931.41741,391.542411 931.484375,391.520089 C931.55134,391.497768 931.651785,391.475447 931.785714,391.453125 C931.919644,391.430803 932.053571,391.464285 932.1875,391.553571 C932.232143,391.553571 932.332589,391.441965 932.488839,391.21875 C932.64509,390.995535 932.812499,390.772323 932.991071,390.549107 C933.169644,390.325892 933.325892,390.214286 933.459821,390.214286 C933.593751,390.214286 933.716517,390.270089 933.828125,390.381696 C933.939733,390.493304 934.029018,390.616071 934.095982,390.75 C934.162947,390.883929 934.22991,391.029017 934.296875,391.185268 C934.36384,391.341519 934.419643,391.464285 934.464286,391.553571 C934.553572,391.732144 934.765623,391.955356 935.100446,392.223214 C935.43527,392.491073 935.647321,392.736606 935.736607,392.959821 C935.78125,393.093751 935.870535,393.428569 936.004464,393.964286 C936.138394,394.500003 936.316963,394.868303 936.540179,395.069196 C936.763394,395.27009 937.098212,395.437499 937.544643,395.571429 C937.633929,395.616072 937.83482,395.59375 938.147321,395.504464 C938.459823,395.415178 938.716517,395.392857 938.917411,395.4375 C939.118305,395.482143 939.21875,395.660713 939.21875,395.973214 C939.486608,395.705356 939.620536,395.526786 939.620536,395.4375 C939.665179,396.01786 939.810267,396.486605 940.055804,396.84375 C940.301341,397.200895 940.691962,397.357143 941.227679,397.3125 L941.09375,398.785714 C940.959821,399.00893 940.625003,399.176339 940.089286,399.287946 C939.553569,399.399554 939.218751,399.5 939.084821,399.589286 C938.950892,399.633929 938.627235,399.901783 938.113839,400.392857 C937.600444,400.883931 937.388392,401.174107 937.477679,401.263393 C936.718746,400.415174 935.580365,400.169641 934.0625,400.526786 C932.366063,400.794644 931.20536,401.062499 930.580357,401.330357 C929.866068,401.687502 929.375001,402.02232 929.107143,402.334821 C929.0625,402.379465 928.984376,402.535713 928.872768,402.803571 C928.76116,403.07143 928.649554,403.316963 928.537946,403.540179 C928.426339,403.763394 928.325893,403.875 928.236607,403.875 C928.504466,403.830357 928.805802,403.618305 929.140625,403.238839 C929.475448,402.859373 929.6875,402.647322 929.776786,402.602679 Z M918.861607,461.330357 C918.772321,460.883926 918.727679,460.526787 918.727679,460.258929 C918.683035,459.901784 918.839284,459.421878 919.196429,458.819196 C919.553573,458.216515 919.732143,457.75893 919.732143,457.446429 C919.017854,457.267856 918.749999,456.687505 918.928571,455.705357 C919.017858,455.035711 919.665173,454.142863 920.870536,453.026786 C921.718754,452.267853 921.986609,451.196435 921.674107,449.8125 C921.540178,449.23214 921.428572,448.383934 921.339286,447.267857 C921.25,446.15178 921.160715,445.370538 921.071429,444.924107 C921.071429,445.058036 921.28348,445.180803 921.707589,445.292411 C922.131699,445.404018 922.388392,445.549106 922.477679,445.727679 C922.566965,445.593749 922.678571,445.348216 922.8125,444.991071 C922.946429,444.633927 923.080356,444.366072 923.214286,444.1875 C923.303572,444.053571 923.493302,443.886162 923.783482,443.685268 C924.073662,443.484374 924.263392,443.361607 924.352679,443.316964 C924.441965,443.272321 924.642856,443.127233 924.955357,442.881696 C925.267859,442.636159 925.524553,442.446429 925.725446,442.3125 C925.92634,442.178571 926.194195,442.078125 926.529018,442.011161 C926.863841,441.944196 927.098214,442.044642 927.232143,442.3125 C927.455358,442.580358 927.410716,442.993301 927.098214,443.551339 C926.785713,444.109378 926.785713,444.499999 927.098214,444.723214 C927.142857,444.589285 927.1875,444.299109 927.232143,443.852679 C927.276786,443.406248 927.410713,443.07143 927.633929,442.848214 C927.901787,442.580356 928.158481,442.424107 928.404018,442.379464 C928.649555,442.334821 928.872767,442.368303 929.073661,442.479911 C929.274555,442.591518 929.508927,442.747767 929.776786,442.948661 C930.044644,443.149555 930.290177,443.272321 930.513393,443.316964 C931.183039,443.54018 931.986602,444.031246 932.924107,444.790179 C932.879464,444.745535 932.879464,444.689732 932.924107,444.622768 C932.96875,444.555803 933.058035,444.48884 933.191964,444.421875 C933.325894,444.35491 933.44866,444.287947 933.560268,444.220982 C933.671876,444.154018 933.794642,444.098215 933.928571,444.053571 L934.129464,443.986607 C934.441966,443.986607 934.665178,443.964286 934.799107,443.919643 C934.933036,443.875 935.122767,443.919642 935.368304,444.053571 C935.613841,444.187501 935.78125,444.287946 935.870536,444.354911 C935.959822,444.421875 936.11607,444.544642 936.339286,444.723214 C936.562501,444.901787 936.71875,445.035714 936.808036,445.125 C936.941965,445.214286 937.187498,445.370535 937.544643,445.59375 C937.901787,445.816965 938.180803,445.995535 938.381696,446.129464 C938.58259,446.263394 938.76116,446.464284 938.917411,446.732143 C939.073661,447.000001 939.129465,447.290177 939.084821,447.602679 C939.35268,447.647322 939.888389,447.825891 940.691964,448.138393 C940.825894,448.227679 941.104909,448.305803 941.529018,448.372768 C941.953127,448.439732 942.232142,448.540178 942.366071,448.674107 C935.892825,455.504498 928.058082,459.723206 918.861607,461.330357 Z" id="Shape"></path>
        </g>
    </g>
</svg>