
<svg width="200px" height="207px" viewBox="0 0 200 207" version="1.1" xmlns="http://www.w3.org/2000/svg" xmlns:xlink="http://www.w3.org/1999/xlink">
    <defs>
        <linearGradient x1="18.2354275%" y1="37.6872348%" x2="96.951564%" y2="-18.1770005%" id="linearGradient-1">
            <stop stop-color="#AF94C3" offset="0%"></stop>
            <stop stop-color="#8CF4D3" offset="100%"></stop>
        </linearGradient>
    </defs>
    <g id="Page-1" stroke="none" stroke-width="1" fill="none" fill-rule="evenodd">
        <g id="Desktop-HD" transform="translate(-932.000000, -296.000000)" fill="url(#linearGradient-1)">
            <path d="M932,359.15173 L1033.49254,296 L1132,359.15173 L1132,459.928173 L1033.49254,502.390625 L932,469.5 L932,359.15173 Z M1093.34246,358.271209 L1058.26653,338 L1047.71207,356.30184 C1046.38045,358.610866 1042.93794,358.256208 1042.08802,355.725388 C1041.60516,354.276609 1040.60852,353.055241 1039.2867,352.292386 C1036.32695,350.581243 1032.53013,351.595928 1030.826,354.551053 C1029.1208,357.507248 1030.14092,361.305622 1033.10174,363.015694 C1034.42294,363.780171 1035.97829,364.033294 1037.47339,363.727152 C1040.10986,363.198916 1042.10301,366.025463 1040.78316,368.314131 L1033.42287,381.075381 L1041.81506,385.924871 C1042.09337,384.926257 1042.49692,383.958717 1043.02251,383.047964 C1046.43397,377.13343 1054.02334,375.107273 1059.94604,378.52956 C1065.86767,381.951847 1067.90899,389.544309 1064.49752,395.458843 C1063.9761,396.36321 1063.34315,397.198366 1062.61356,397.944662 L1076.55166,406 L1096.75821,370.968171 C1099.31975,366.525841 1097.79117,360.841674 1093.34353,358.271209 L1093.34246,358.271209 Z M1019.7901,372.586037 C1020.8443,372.586037 1021.88777,372.718059 1022.89478,372.973585 L1022.89478,357 L982.317267,357 C977.171751,357 973,361.131008 973,366.228757 L973,406.424103 L994.199786,406.424103 C996.869062,406.424103 998.297538,409.554299 996.522668,411.543145 C995.507005,412.67458 994.945907,414.137312 994.946196,415.652859 C994.946196,419.043906 997.732368,421.804654 1001.15556,421.804654 C1004.57983,421.804654 1007.36707,419.043906 1007.36707,415.652859 C1007.36736,414.137312 1006.80627,412.67458 1005.7906,411.543145 C1004.01466,409.554299 1005.44421,406.424103 1008.11349,406.424103 L1022.89478,406.424103 L1022.89478,396.806733 C1021.88777,397.062259 1020.8443,397.194281 1019.78902,397.194281 C1012.93835,397.194281 1007.36707,391.675979 1007.36707,384.889627 C1007.36707,378.103275 1012.93835,372.584973 1019.78902,372.584973 L1019.7901,372.586037 Z M1057.80021,412.575897 C1055.13201,412.575897 1053.70246,409.445701 1055.47733,407.456855 C1056.49299,406.32542 1057.05409,404.862688 1057.0538,403.347141 C1057.0538,399.956094 1054.26763,397.195346 1050.84444,397.195346 C1047.42017,397.195346 1044.63293,399.956094 1044.63293,403.348205 C1044.63264,404.863753 1045.19373,406.326485 1046.2094,407.457919 C1047.98534,409.445701 1046.55579,412.575897 1043.88651,412.575897 L1029.10522,412.575897 L1029.10522,422.192202 C1030.11223,421.936676 1031.1557,421.804654 1032.21098,421.804654 C1039.06165,421.804654 1044.63293,427.322957 1044.63293,434.109308 C1044.63293,440.89566 1039.06165,446.413963 1032.21098,446.413963 C1031.1557,446.413963 1030.11223,446.281941 1029.10522,446.026415 L1029.10522,462 L1069.68273,462 C1074.82825,462 1079,457.868992 1079,452.771243 L1079,412.575897 L1057.80021,412.575897 Z M1031.82957,427.560845 C1030.31045,427.56 1028.84373,428.122173 1027.70706,429.140949 C1025.71241,430.925702 1022.57338,429.481312 1022.57338,426.812262 L1022.57338,412 L1012.92828,412 C1013.18401,413.009242 1013.3172,414.055104 1013.3172,415.112815 C1013.3172,421.977166 1007.78181,427.560845 1000.97526,427.560845 C994.168713,427.560845 988.63333,421.977166 988.63333,415.112815 C988.63333,414.055104 988.76652,413.009242 989.022245,412 L973,412 L973,452.663708 C973,457.81978 977.144878,462 982.25725,462 L1022.57338,462 L1022.57338,440.756382 C1022.57338,438.07656 1025.71987,436.649404 1027.70706,438.427694 C1028.84357,439.446861 1030.31031,440.009424 1031.82957,440.008875 C1035.23178,440.008875 1038,437.215958 1038,433.784322 C1038,430.353762 1035.23178,427.560845 1031.82957,427.560845 Z" id="puzzle"></path>
        </g>
    </g>
</svg>