<svg xmlns="http://www.w3.org/2000/svg" xmlns:xlink="http://www.w3.org/1999/xlink" width="363" height="363"><defs><circle id="a" cx="181.5" cy="181.5" r="181.5"/></defs><g fill="none" fill-rule="evenodd"><path fill="#FFF" fill-rule="nonzero" d="M181.5 357c96.926 0 175.5-78.574 175.5-175.5S278.426 6 181.5 6 6 84.574 6 181.5 84.574 357 181.5 357zm0 6C81.26 363 0 281.74 0 181.5S81.26 0 181.5 0 363 81.26 363 181.5 281.74 363 181.5 363z"/><mask id="b" fill="#fff"><use xlink:href="#a"/></mask><g mask="url(#b)"><path stroke="#FFF" stroke-width="6" d="M198.208 87.815C225.731 80.454 246 55.344 246 25.5c0-35.622-28.878-64.5-64.5-64.5S117-10.122 117 25.5c0 29.696 20.069 54.705 47.384 62.204"/><path fill="#FFF" fill-rule="nonzero" d="M163 47h37v43.424c-.88.281-1.784.49-2.71.627a54.67 54.67 0 0 1-2.948.347V52.664H172.78l17.925 2.82V88.24l-22.112 3.102c-.84-.087-1.71-.184-2.61-.291-.9-.108-1.894-.317-2.983-.627V47zm21 21v5h3v-5h-3zM54 174l-25 21.87 2.491 2.926 3.202-2.803V224h14.3v-14.988h10.016V224h14.299v-28.006l3.201 2.803L79 195.87 54 174zm0 23.666c-3.058 0-5.537-2.512-5.537-5.612s2.48-5.612 5.538-5.612c3.058 0 5.536 2.513 5.536 5.612s-2.478 5.612-5.536 5.612zm93.238 85.937l-14.85-2.476-4.304-6.455a5.99 5.99 0 0 0-4.992-2.672h-22.184a5.99 5.99 0 0 0-4.992 2.672l-4.342 6.514-9.164 2.291a4.494 4.494 0 0 0-3.41 4.365v7.537a6.58 6.58 0 0 0 1.94 4.682A6.67 6.67 0 0 0 85.62 302h3.88c.052 0 .096-.026.148-.031.685 3.433 3.718 6.03 7.351 6.03s6.666-2.597 7.352-6.03c.05.005.095.03.148.03H124c.053 0 .097-.025.149-.03.685 3.433 3.718 6.03 7.351 6.03s6.666-2.597 7.352-6.03c.05.005.095.03.148.03h6.574a2.984 2.984 0 0 0 2.684-1.658l2.426-4.855a1.49 1.49 0 0 0 .12-.33l.158-.672a1.47 1.47 0 0 0 .038-.34v-6.103a4.484 4.484 0 0 0-3.762-4.439zM97 305a4.505 4.505 0 0 1-4.5-4.5c0-2.482 2.019-4.5 4.5-4.5 2.482 0 4.5 2.018 4.5 4.5 0 2.481-2.018 4.5-4.5 4.5zm29.016-18H98.5a1.497 1.497 0 0 1-1.286-.73 1.494 1.494 0 0 1-.035-1.478l3.21-6a1.498 1.498 0 0 1 1.322-.792h20.578a1.5 1.5 0 0 1 1.275.709l3.726 6c.287.463.302 1.044.035 1.52-.263.476-.764.77-1.31.77zm5.484 18a4.505 4.505 0 0 1-4.5-4.5c0-2.482 2.019-4.5 4.5-4.5 2.482 0 4.5 2.018 4.5 4.5 0 2.481-2.018 4.5-4.5 4.5zm-36.832-45.252l4.5 3c.246.164.536.252.832.252h13.05c1.688 3.538 5.269 6 9.45 6 5.799 0 10.5-4.701 10.5-10.5s-4.701-10.5-10.5-10.5c-4.181 0-7.762 2.462-9.45 6H100c-.296 0-.586.088-.832.252l-4.5 3A1.504 1.504 0 0 0 94 258.5c0 .5.252.97.668 1.248zM125.5 255.5c1.655 0 3 1.346 3 3s-1.345 3-3 3-3-1.346-3-3 1.345-3 3-3z"/><g fill="#FFF" fill-rule="nonzero"><path d="M293 189v12l17.176-6.036 1.324-.466 1.325.466L330 201v-12zm40.493 44.685c-.722.556-1.12.862-2.119.862-.999 0-1.397-.306-2.12-.862-.924-.71-2.192-1.685-4.506-1.685-2.313 0-3.58.974-4.506 1.686-.722.555-1.12.86-2.118.86-.999 0-1.397-.305-2.12-.86-.925-.712-2.192-1.686-4.505-1.686-2.314 0-3.581.974-4.506 1.686-.723.555-1.12.86-2.12.86-.998 0-1.396-.305-2.118-.86-.925-.712-2.192-1.686-4.506-1.686s-3.58.974-4.506 1.686c-.722.555-1.12.86-2.118.86-.999 0-1.397-.305-2.119-.86-.925-.712-2.192-1.686-4.506-1.686v4.453c.998 0 1.396.306 2.119.862.925.71 2.192 1.685 4.506 1.685s3.58-.974 4.506-1.685c.722-.556 1.12-.862 2.119-.862.998 0 1.396.306 2.118.862.926.71 2.192 1.685 4.506 1.685s3.581-.974 4.506-1.685c.723-.556 1.12-.862 2.119-.862.998 0 1.396.306 2.119.862.925.71 2.192 1.685 4.506 1.685s3.58-.974 4.506-1.685c.722-.556 1.12-.862 2.119-.862.998 0 1.396.306 2.119.862.925.71 2.192 1.685 4.506 1.685s3.581-.974 4.507-1.685c.722-.556 1.12-.862 2.119-.862V232c-2.314 0-3.582.974-4.507 1.685zm-20.481-54.522V176h-4.162v3.163H299V185h24v-5.837z"/><path d="M286 207.982l8.861 21.492c1.027-.346 2.27-.591 3.762-.591 3.417 0 5.521 1.287 6.735 2.117.942-.645 2.426-1.563 4.642-1.942V200l-24 7.982zM314 200v29.058c2.214.38 3.696 1.297 4.638 1.942 1.213-.83 3.317-2.117 6.733-2.117 1.451 0 2.664.233 3.674.564L338 207.985 314 200z"/></g><g fill="#FFF" fill-rule="nonzero"><path d="M226.777 278L246 269.754l-15.88-5.601a2.677 2.677 0 0 0-1.949.065l-5.533 2.372a2.717 2.717 0 0 0-1.127 4.08l5.266 7.33z"/><path d="M283.781 267.698c-1.524-3.597-10.853-3.047-14.434-1.514l-50.992 21.852-8.6-6.607a2.72 2.72 0 0 0-2.729-.344l-4.368 1.872a2.742 2.742 0 0 0-1.515 1.644 2.754 2.754 0 0 0 .213 2.231l8.613 15.265a5.074 5.074 0 0 0 6.42 2.18l19.358-8.295 5.477 22.916a2.74 2.74 0 0 0 1.428 1.81 2.72 2.72 0 0 0 2.298.072l5.563-2.384a2.744 2.744 0 0 0 1.551-1.76c7.371-25.578 6.398-22.2 9.091-31.542l13.722-5.88c3.583-1.536 10.432-7.92 8.904-11.516z"/></g><path fill="#FFF" d="M90.41 185.941l7.063 3.756-1.878 3.532L85 187.595l.939-1.766L90.634 177l3.531 1.878-3.755 7.063zm51.977 59.228l7.564-2.605 1.302 3.782-11.346 3.907-.651-1.891-3.256-9.455 3.782-1.302 2.605 7.564zm78.186.099l1.39-7.879 3.938.695-2.083 11.817-1.97-.347-9.848-1.736.695-3.94 7.878 1.39zm52.493-59.38l-4.357-6.71 3.355-2.178 6.536 10.064-1.678 1.09-8.386 5.446-2.179-3.355 6.71-4.357z"/><path fill="#FFF" fill-rule="nonzero" d="M193.062 101.739l-.491-1.939-3.878.983.491 1.939c4.96 19.572 14.36 37.038 28.182 52.375 13.863 15.383 31.983 26.32 54.317 32.808l1.921.557 1.116-3.84-1.92-.559c-21.641-6.285-39.114-16.832-52.463-31.643-13.39-14.857-22.476-31.743-27.275-50.681zm-22.611.128l.51-1.934 3.868 1.021-.51 1.934c-5.14 19.467-14.626 36.877-28.444 52.21-13.863 15.382-31.983 26.32-54.317 32.807l-1.92.557-1.116-3.84 1.92-.559c21.64-6.285 39.114-16.832 52.462-31.643 13.394-14.862 22.572-31.706 27.547-50.553zm15.796 1.737l-.097-1.998-3.995.194.096 1.997c1.246 25.736 4.784 51.057 10.612 75.96 5.843 24.964 14.23 47.052 25.168 66.259l.99 1.738 3.475-1.98-.99-1.738c-10.739-18.858-18.99-40.587-24.748-65.191-5.773-24.667-9.277-49.746-10.511-75.241zm-9.337-.162l.117-1.996 3.993.233-.116 1.996c-1.505 25.824-5.171 51.185-10.998 76.081-5.843 24.965-14.23 47.053-25.168 66.26l-.99 1.738-3.476-1.98.99-1.738c10.74-18.858 18.99-40.587 24.749-65.191 5.774-24.673 9.408-49.807 10.9-75.403z"/></g></g></svg>