<svg xmlns="http://www.w3.org/2000/svg" xmlns:xlink="http://www.w3.org/1999/xlink" viewBox="0 0 249.78 103.21"><defs><style>.cls-1{fill:none;}.cls-2{fill:#1a1a18;}.cls-3{fill:url(#ITB_Gradient);}.cls-4{fill:#fff;}</style><radialGradient id="ITB_Gradient" cx="-10.75" cy="34.62" fx="-3.540235632754067" fy="20.510510868333117" r="36.93" gradientTransform="translate(52.78 -0.44) scale(1.14 0.97)" gradientUnits="userSpaceOnUse"><stop offset="0" stop-color="#fed060"/><stop offset="0.08" stop-color="#fecf5a"/><stop offset="0.18" stop-color="#fecc4a"/><stop offset="0.3" stop-color="#fdc830"/><stop offset="0.43" stop-color="#fcc10c"/><stop offset="0.46" stop-color="#fcbf00"/><stop offset="0.56" stop-color="#fab101"/><stop offset="0.74" stop-color="#f38c04"/><stop offset="0.99" stop-color="#e9500a"/><stop offset="1" stop-color="#e84c0a"/></radialGradient></defs><title>ITB_Berlin_sRGB_M_Claim_onwhite Kopie</title><g id="Box"><rect class="cls-1" x="-50.8" y="-18.79" width="345.17" height="151.65"/></g><g id="Logo"><path class="cls-2" d="M145.17,26.35a2.58,2.58,0,0,1-2.8,2.76h-5.16V23.64h5.16a2.54,2.54,0,0,1,2.8,2.71m-.43-12.11A2.42,2.42,0,0,1,142,16.77h-4.77V11.7H142a2.43,2.43,0,0,1,2.76,2.54m8.08,12.55A7.26,7.26,0,0,0,149,20a7.5,7.5,0,0,0,3.41-6.17c0-5.38-3.46-9-9.93-9H129.55V36h13.56c5.56,0,9.71-3.24,9.71-9.19M124.6,11.65V4.83h-23v6.82h7.66V36H117V11.65ZM96.7,4.83H89V36H96.7Z"/><path class="cls-2" d="M89,47.74h3.82c2.62,0,5.08.87,5.08,3.95A3.31,3.31,0,0,1,95,55.35v0a3.75,3.75,0,0,1,3.4,3.81c0,3.5-2.85,4.58-6.18,4.58H89Zm1.59,14.67h1.65c2.14,0,4.56-.57,4.56-3.13,0-2.85-2.46-3.15-4.81-3.15h-1.4Zm0-7.66h1.77c1.68,0,3.91-.43,3.91-3,0-2.32-2.13-2.64-3.49-2.64H90.66Z"/><path class="cls-2" d="M101.65,47.74h7.86v1.38h-6.27v5.72h6v1.38h-6v6.19h6.55v1.38h-8.14Z"/><path class="cls-2" d="M112.49,47.74h4.14c2.85,0,4.71,1.22,4.71,4.16a3.78,3.78,0,0,1-3.56,3.7v0c1.28.16,1.56.85,2.07,1.93l2.73,6.21h-1.75l-2.32-5.43c-.92-2.07-1.61-2.14-3.13-2.14h-1.31v7.57h-1.58Zm1.58,7.1h1.68c1.86,0,4-.71,4-2.94,0-2.62-1.86-2.78-4-2.78h-1.64Z"/><path class="cls-2" d="M124.9,47.74h1.59V62.41h6.44v1.38h-8Z"/><path class="cls-2" d="M135,47.74h1.59v16H135Z"/><path class="cls-2" d="M140.16,47.74h2l8.16,14.12h.05V47.74H152v16h-2.14l-8-13.84h0V63.79h-1.58Z"/><path class="cls-2" d="M185.77,5.76h-2.29V4.83h5.63v.93h-2.28v6.43h-1.06Z"/><path class="cls-2" d="M190.18,4.28h1v3.3h0a2,2,0,0,1,1.73-.89c1.39,0,2,.86,2,2.31v3.19h-1V9.41c0-1.26-.27-1.87-1.14-1.92-1.12,0-1.63.91-1.63,2.21v2.49h-1Z"/><path class="cls-2" d="M200.78,12a4.06,4.06,0,0,1-1.7.35c-1.91,0-2.78-1.16-2.78-2.91a2.5,2.5,0,0,1,2.52-2.72c1.79,0,2.37,1.31,2.37,3h-3.84a1.77,1.77,0,0,0,1.78,1.8,3.16,3.16,0,0,0,1.65-.54Zm-.64-3a1.36,1.36,0,0,0-1.34-1.5A1.5,1.5,0,0,0,197.35,9Z"/><path class="cls-2" d="M204.63,4.83h1.16l1.77,6.31h0l1.57-6.31h1.49l1.6,6.31h0L214,4.83h1.12l-2.27,7.36h-1.36l-1.6-6.43h0l-1.62,6.43h-1.41Z"/><path class="cls-2" d="M218.2,6.69a2.65,2.65,0,0,1,2.73,2.81,2.74,2.74,0,1,1-5.47,0A2.65,2.65,0,0,1,218.2,6.69Zm0,4.83a1.81,1.81,0,0,0,1.68-2,1.71,1.71,0,1,0-3.36,0A1.8,1.8,0,0,0,218.2,11.52Z"/><path class="cls-2" d="M222.3,6.81h.93v.84h0a1.65,1.65,0,0,1,1.4-1,3,3,0,0,1,.66.07v.89a1.37,1.37,0,0,0-.55-.1c-.88,0-1.46.85-1.46,2.2v2.44h-1Z"/><path class="cls-2" d="M226.47,4.28h1v7.91h-1Z"/><path class="cls-2" d="M233.08,11.43h0a2.17,2.17,0,0,1-1.84.89c-1.62,0-2.31-1.45-2.31-2.91s.76-2.72,2.32-2.72a2,2,0,0,1,1.79.86h0V4.28h1v7.91h-.95Zm-1.62.09c1.11,0,1.58-1.11,1.58-2s-.52-2-1.59-2-1.5,1-1.48,2S230.39,11.52,231.46,11.52Z"/><path class="cls-2" d="M236.24,4.83h1.18l-.93,2.59h-.9Z"/><path class="cls-2" d="M238.2,11.14a2.65,2.65,0,0,0,1.23.38c.45,0,1-.19,1-.77,0-1-2.33-.9-2.33-2.41,0-1.11.83-1.65,1.9-1.65a4,4,0,0,1,1.23.21l-.08.86a3,3,0,0,0-1-.27c-.5,0-.94.21-.94.65,0,1.1,2.33.78,2.33,2.5a1.7,1.7,0,0,1-1.88,1.68,3,3,0,0,1-1.48-.3Z"/><path class="cls-2" d="M184.3,17.49h1v6.43h3.08v.93H184.3Z"/><path class="cls-2" d="M193.64,24.63a4.06,4.06,0,0,1-1.7.35c-1.9,0-2.78-1.16-2.78-2.91a2.5,2.5,0,0,1,2.52-2.72c1.79,0,2.37,1.31,2.37,3h-3.83a1.76,1.76,0,0,0,1.77,1.8,3.16,3.16,0,0,0,1.65-.54Zm-.64-3a1.36,1.36,0,0,0-1.34-1.5,1.48,1.48,0,0,0-1.44,1.5Z"/><path class="cls-2" d="M195.61,19.85a3.44,3.44,0,0,1,1.77-.5c1.54,0,2.16.76,2.16,2.22V23.8a8.91,8.91,0,0,0,0,1.05h-.93v-.69h0A2,2,0,0,1,197,25c-1.16,0-2-.51-2-1.68,0-1.35,1.48-1.77,2.5-1.77.39,0,.67,0,1.06,0,0-.93-.34-1.4-1.33-1.4a2.51,2.51,0,0,0-1.56.55Zm2.94,2.44-.63,0c-.54,0-1.87.08-1.87,1a1,1,0,0,0,1,.88,1.36,1.36,0,0,0,1.5-1.42Z"/><path class="cls-2" d="M205.07,24.09h0a2.18,2.18,0,0,1-1.84.89c-1.62,0-2.31-1.45-2.31-2.91s.76-2.72,2.32-2.72a1.92,1.92,0,0,1,1.78.86h0V16.94h1v7.91h-1Zm-1.63.09c1.12,0,1.59-1.11,1.59-2s-.52-2-1.6-2-1.49,1-1.47,2S202.38,24.18,203.44,24.18Z"/><path class="cls-2" d="M208.84,18.27h-1.12V17.16h1.12Zm-1.05,1.2h1v5.38h-1Z"/><path class="cls-2" d="M210.53,19.47h1v.86h0a2,2,0,0,1,1.76-1c1.4,0,2,.86,2,2.31v3.19h-1V22.07c0-1.26-.28-1.87-1.14-1.92-1.13,0-1.64.91-1.64,2.21v2.49h-1Z"/><path class="cls-2" d="M221.77,24.62c0,1.63-.85,2.57-2.78,2.57a5.31,5.31,0,0,1-1.92-.37l.1-.91a4.18,4.18,0,0,0,1.94.48,1.63,1.63,0,0,0,1.67-1.84V24h0a2.26,2.26,0,0,1-1.81.83,2.36,2.36,0,0,1-2.3-2.64c0-1.39.78-2.86,2.41-2.86a1.77,1.77,0,0,1,1.77.93h0v-.81h.92Zm-1-2.39c0-1.12-.52-2.08-1.57-2.08s-1.5,1.09-1.5,2,.57,1.9,1.5,1.9A1.68,1.68,0,0,0,220.78,22.23Z"/><path class="cls-2" d="M185.77,31.08h-2.29v-.93h5.63v.93h-2.28v6.43h-1.06Z"/><path class="cls-2" d="M189.38,32.14h.92V33h0a1.65,1.65,0,0,1,1.41-1,2.93,2.93,0,0,1,.65.07V33a1.37,1.37,0,0,0-.55-.1c-.88,0-1.46.85-1.46,2.2v2.44h-1Z"/><path class="cls-2" d="M193.6,32.51a3.5,3.5,0,0,1,1.78-.5c1.53,0,2.16.76,2.16,2.22v2.23a8.91,8.91,0,0,0,0,1h-.93v-.69h0a2,2,0,0,1-1.67.82c-1.16,0-2-.51-2-1.68,0-1.35,1.48-1.77,2.5-1.77.39,0,.66,0,1.06,0,0-.93-.34-1.4-1.33-1.4a2.51,2.51,0,0,0-1.56.55Zm3,2.44-.64,0c-.53,0-1.86.08-1.86,1a1,1,0,0,0,1,.88,1.36,1.36,0,0,0,1.5-1.42Z"/><path class="cls-2" d="M201.49,37.51h-1.18l-1.93-5.37h1.09l1.45,4.38h0l1.49-4.38h1Z"/><path class="cls-2" d="M208.45,37.29a4.06,4.06,0,0,1-1.7.35c-1.91,0-2.78-1.16-2.78-2.91A2.5,2.5,0,0,1,206.49,32c1.79,0,2.37,1.31,2.37,3H205a1.76,1.76,0,0,0,1.77,1.79,3.17,3.17,0,0,0,1.66-.54Zm-.64-3a1.36,1.36,0,0,0-1.34-1.5,1.5,1.5,0,0,0-1.45,1.5Z"/><path class="cls-2" d="M210.32,29.6h1v7.91h-1Z"/><path class="cls-2" d="M217.62,31.08h-2.29v-.93H221v.93h-2.29v6.43h-1Z"/><path class="cls-2" d="M221.22,32.14h.93V33h0a1.65,1.65,0,0,1,1.4-1,3,3,0,0,1,.66.07V33a1.37,1.37,0,0,0-.55-.1c-.88,0-1.46.85-1.46,2.2v2.44h-1Z"/><path class="cls-2" d="M225.45,32.51a3.49,3.49,0,0,1,1.77-.5c1.54,0,2.16.76,2.16,2.22v2.23a6.45,6.45,0,0,0,.05,1h-.93v-.69h0a2,2,0,0,1-1.67.82c-1.16,0-2-.51-2-1.68,0-1.35,1.48-1.77,2.5-1.77.39,0,.66,0,1,0,0-.93-.33-1.4-1.32-1.4a2.54,2.54,0,0,0-1.57.55ZM228.39,35l-.63,0c-.54,0-1.87.08-1.87,1a1,1,0,0,0,1,.88,1.36,1.36,0,0,0,1.5-1.42Z"/><path class="cls-2" d="M234.91,36.75h0a2.15,2.15,0,0,1-1.83.89c-1.63,0-2.31-1.45-2.31-2.91s.76-2.72,2.32-2.72a1.93,1.93,0,0,1,1.78.86h0V29.6h1v7.91h-1Zm-1.62.09c1.12,0,1.58-1.11,1.58-2s-.52-2-1.59-2-1.5,1-1.48,2S232.22,36.84,233.29,36.84Z"/><path class="cls-2" d="M241.74,37.29a4.06,4.06,0,0,1-1.7.35c-1.9,0-2.78-1.16-2.78-2.91A2.5,2.5,0,0,1,239.78,32c1.79,0,2.37,1.31,2.37,3h-3.84a1.77,1.77,0,0,0,1.78,1.79,3.16,3.16,0,0,0,1.65-.54Zm-.64-3a1.36,1.36,0,0,0-1.34-1.5,1.5,1.5,0,0,0-1.45,1.5Z"/><path class="cls-2" d="M187.65,43.92a3.26,3.26,0,0,0-1.38-.31c-.59,0-1.29.22-1.29,1,0,1.42,3.16,1.09,3.16,3.52,0,1.57-1.21,2.19-2.68,2.19A4.84,4.84,0,0,1,184,50l.1-1a4.41,4.41,0,0,0,1.53.36,1.32,1.32,0,0,0,1.45-1.2c0-1.65-3.17-1.19-3.17-3.48,0-1.31,1-2,2.36-2a4.93,4.93,0,0,1,1.58.26Z"/><path class="cls-2" d="M189.53,42.26h1v3.31h0a2,2,0,0,1,1.73-.9c1.39,0,2,.86,2,2.31v3.19h-1V47.39c0-1.26-.28-1.87-1.14-1.92-1.13,0-1.64.91-1.64,2.21v2.49h-1Z"/><path class="cls-2" d="M198.38,44.67a2.65,2.65,0,0,1,2.73,2.81,2.74,2.74,0,1,1-5.48,0A2.66,2.66,0,0,1,198.38,44.67Zm0,4.83a1.8,1.8,0,0,0,1.67-2,1.71,1.71,0,1,0-3.36,0A1.81,1.81,0,0,0,198.38,49.5Z"/><path class="cls-2" d="M208.47,50.17h-1.15l-1.4-4.51h0l-1.36,4.51h-1.15l-1.73-5.37h1.09L204,49.25h0l1.37-4.45h1.17l1.35,4.45h0l1.3-4.45h1Z"/><path class="cls-2" d="M210.62,44.51a2.22,2.22,0,1,1,2.22,2.22A2.22,2.22,0,0,1,210.62,44.51Zm3.89,0a1.68,1.68,0,1,0-1.67,1.79A1.7,1.7,0,0,0,214.51,44.51ZM212,43.25h.93c.61,0,.93.2.93.73a.62.62,0,0,1-.65.68l.67,1.1h-.48l-.65-1.08h-.28v1.08H212Zm.47,1.07h.41c.28,0,.52,0,.52-.37s-.27-.35-.51-.35h-.42Z"/><path class="cls-2" d="M171.54,1h1.13V67.62h-1.13Z"/></g><g id="Globe"><path class="cls-3" d="M35.89,1A33.31,33.31,0,1,0,69.2,34.31,33.31,33.31,0,0,0,35.89,1Z"/><path class="cls-4" d="M63.53,33.89a.55.55,0,0,1,.14.21,3.82,3.82,0,0,0,.6.79l.14,0a.46.46,0,0,1,.29.17,3,3,0,0,0,.8.37c.08,0,.85-.22.91-.09s.09.22.13.33a.24.24,0,0,0,.23.16c.34,0,1.1.15,1.52.2,0-.58,0-1.17,0-1.76a32.32,32.32,0,0,0-8.19-21.54c-.22.07-.58.18-.62.18a.65.65,0,0,0-.16-.33,9.41,9.41,0,0,0-1.44.94.76.76,0,0,1-.06.25.41.41,0,0,1-.46,0c-.07-.06-.29-.31-.23-.34a1.43,1.43,0,0,1,.21-.12.09.09,0,0,0,0-.14,6.76,6.76,0,0,0-1-.32h0s0,0,0,.06c.24.14.31.64.32.69s.26.26.28.36v.15c0,.05-.31.05-.4,0s-.25,0-.32.08-.3.26-.35.34.09.49.11.51,0,.11,0,.16a2,2,0,0,1-.87-.25.58.58,0,0,0-.31.16.13.13,0,0,0,0,.15c.1.1.46.45.38.44a7.26,7.26,0,0,1-.7-.28.16.16,0,0,1-.14-.11c0-.12-.25-.49-.25-.57s-.07-.3-.29-.38a1.55,1.55,0,0,1-.48-.32,1.37,1.37,0,0,1,.4.09,6.67,6.67,0,0,0,1.07.26,1.61,1.61,0,0,0,.79-.07.39.39,0,0,0,.11-.06,1,1,0,0,0-.18-.94.76.76,0,0,1-.19-.12.69.69,0,0,0-.25-.1c-.16,0-1.92-.58-2-.58a.91.91,0,0,1-.23,0c-.07,0-.37-.27-.41-.23a2.17,2.17,0,0,1-.69-.06s.45-.27.41-.29a3.13,3.13,0,0,0-.66-.2,2.5,2.5,0,0,0-.25.08s-.06-.22-.14-.24-.26.22-.28.25,0,0-.07,0l0,0c0-.06-.21-.15-.22-.18a10.75,10.75,0,0,0-1.54.52s0,0,0,.07,0,.07,0,.1-.33.07-.33.07a3.16,3.16,0,0,0-.69.24.13.13,0,0,0,.06.19s.1.12.06.14-.1.07-.17,0a.65.65,0,0,0-.24,0s-.09,0-.08-.07a1.42,1.42,0,0,0,.08-.18s0,0,0,0h0l-.32.27s0,.07,0,.1,0,.09,0,.13l0,.06h.17a3,3,0,0,0,.32-.06l.19,0h0a4.53,4.53,0,0,0-.5.31s0,.1,0,.15-.15.29-.23.32a2.53,2.53,0,0,0-.44.64,1.56,1.56,0,0,1-.06.47c0,.06-1.24,1-1.21,1.05s-.23.3-.39.28l-.31.2a.06.06,0,0,0,0,0c0,.1-.4.26-.41.29a5.22,5.22,0,0,0,.12,1,1.76,1.76,0,0,1,.09.2s-.12.22-.16.26.24.24.21.28-.14.28-.11.31a1.63,1.63,0,0,0,.59.33,8.71,8.71,0,0,0,.85-.48,3.91,3.91,0,0,1,.43-.27c.05,0,.41,1,.51,1.16a2.36,2.36,0,0,1,.22.65.6.6,0,0,0-.44.18s.07.28.1.33a.08.08,0,0,1,0,.08s-.28-.28-.44-.34c0,0,.08-.28.2-.33s-.24-.31-.17-.47a.41.41,0,0,0,0-.22.1.1,0,0,0-.1-.09,4.23,4.23,0,0,1-.64.36s-.12.68-.13.71.11,1.16,0,1.13a4.2,4.2,0,0,0-1.4.62,1,1,0,0,1-.5.71,2.54,2.54,0,0,0-.42.46,2.45,2.45,0,0,1-.82.49c-.09,0-.32-.13-.37-.13s-.06.29,0,.38-.61.05-.67.07a1.13,1.13,0,0,0-.47.23,6.3,6.3,0,0,0,1.16,1.08.22.22,0,0,1,.13.25,3.53,3.53,0,0,1-.39,1.25c-.18-.07-1.05,0-1.22-.08s-1.11-.12-1.27.08c0,0-.09,0-.14.05l-.09,0c-.06,0-.11.12-.08.17A3.8,3.8,0,0,1,39,29.22c0,.1-.08.19-.12.29a.2.2,0,0,0,0,.2,1.92,1.92,0,0,1,.2.72s0,.07.06.08.78.07.83.15.12.21.19.3a.26.26,0,0,0,.33.08,1.64,1.64,0,0,0,.22-.14,1,1,0,0,1,.6-.16,3.54,3.54,0,0,0,.46,0,7.84,7.84,0,0,0,.92-.91.15.15,0,0,0,0-.19c-.2-.25-.09-.45.09-.64s.4-.49.63-.5a.6.6,0,0,0,.42-.54c0-.1.06-.41.07-.46a.33.33,0,0,1,.32-.21c.23.05.9.23,1,.14s.93-.63,1.09-.57a2.24,2.24,0,0,1,.53.66c.22.19,1.56,1.18,1.76,1.3a.67.67,0,0,0,.31.27.22.22,0,0,1,.11.1,3.1,3.1,0,0,1,.14.5c-.05.15-.09.28-.29.32s-1.13.18-1.14.2a8.39,8.39,0,0,0,1,.61s.17-.16.17-.21.06-.4.18-.39a.26.26,0,0,0,.26-.13l.25-.46c0-.1-.11-.56-.09-.63a.18.18,0,0,1,.26-.09c.08.06.15.13.24.19a.08.08,0,0,0,.08,0c.07-.09.07-.24,0-.28a3.64,3.64,0,0,0-.81-.47c-.11,0-.17-.26-.2-.26a.65.65,0,0,0-.2-.05.52.52,0,0,1-.4-.21c-.08-.09-.75-.86-.82-.91s.13-.71.22-.74.11.21.14.29a.74.74,0,0,0,.44.18.14.14,0,0,1,.16.11.9.9,0,0,0,.43.49c.16.1,1,.5,1.08.59s.18.2.28.3.09.84.25.95.61.94.61.93-.07.11,0,.11v0h0a4.65,4.65,0,0,0,.42.6.69.69,0,0,0,.4.08c.06,0,.19-.37.17-.52s0,0,0,0,.22-.07.33-.1-.05-.34-.18-.42-.14-.06-.18-.12a4.35,4.35,0,0,1-.38-.71s.45.15.52,0,.14-.23.16-.22.38-.08.48-.07a.29.29,0,0,1,.26.28,1.84,1.84,0,0,1,0,.62s.34.2.33.23-.18.08-.27.14l0,0s.32.23.36.26-.08.12,0,.16.56.51.63.49a.32.32,0,0,1,.37.13.45.45,0,0,0,.68-.06.26.26,0,0,1,.32-.09.76.76,0,0,1,.32.17.5.5,0,0,0,.48.12.85.85,0,0,0,.48-.28.15.15,0,0,1,.18-.05,1.33,1.33,0,0,0,.4.05c-.06.18-.46,2.33-.56,2.47a.25.25,0,0,1-.18.1c-.25,0-1-.1-1.06-.11s-.84.23-.94.21c-.38-.08-2.6-.79-2.67-.8a1.31,1.31,0,0,0-.87.07c-.18.09-.21.91-.26,1l-.1.12a5.47,5.47,0,0,1-1.72-.62c0-.06,0-.12-.08-.19a.33.33,0,0,0-.21-.22c-.3-.1-1.75-.52-1.92-.57a.17.17,0,0,1,0-.23l.22-.22c.11-.12-.11-.68-.1-.71s.08-.19.12-.29a1.38,1.38,0,0,0-.71-.23c-.13,0-3.2.32-3.31.38a5.57,5.57,0,0,1-1.46.6c-.13-.05-.94-.1-1-.13s-.35-.18-.42,0a1.51,1.51,0,0,0-.1.3c0,.24-.77.72-.95.83a2.78,2.78,0,0,0-.54,1.07c0,.11,0,.21,0,.32a3.21,3.21,0,0,1-.43.69,2.58,2.58,0,0,1-.64.33.43.43,0,0,0-.29.2,1.94,1.94,0,0,1-.38.48.83.83,0,0,0-.29.35c-.13.24-1,1.86-1.06,2a6.65,6.65,0,0,0,.28,1,3.72,3.72,0,0,1-.38,1.83,7.33,7.33,0,0,0,.29,1.07c0,.12.45.32.54.35s1.07,1.46,1.17,1.63a14.92,14.92,0,0,0,2.2,1.45,16.64,16.64,0,0,1,2.05-.21,1.26,1.26,0,0,0,.45,0,14.73,14.73,0,0,1,2.12-.62s.95.93,1.14.93,1-.16,1.11,0a1.76,1.76,0,0,1,.36.6c0,.1-.43,1.45-.44,1.48a3.61,3.61,0,0,0,.75,1c.07.06.73,1.1.83,1.26a1.5,1.5,0,0,1,.18.59s0,.08,0,.12.26,1.17,0,1.34a10.11,10.11,0,0,0-.7,1.82c0,.08,2.11,4.88,2.12,5a2.55,2.55,0,0,0,.49.21s1.74-.15,1.77-.16,1.63-.54,1.87-.68a13.4,13.4,0,0,0,1.46-1.21,6,6,0,0,1,.25-.69,6.54,6.54,0,0,0,1.06-.53,10.51,10.51,0,0,1,.06-1.3c.37-.23,1.71-1,1.84-1.06a1.38,1.38,0,0,0,.64-.6c.07-.11.2-1.36.27-1.53s-.33-1-.35-1.2-.15-.63,0-.8a8.9,8.9,0,0,1,.79-1.1,1.57,1.57,0,0,0,.42-.35A22.84,22.84,0,0,1,62,46a4.9,4.9,0,0,0,1.53-1.79,3.7,3.7,0,0,1,.46-.79,1.61,1.61,0,0,0,.27-.54,3,3,0,0,0,.12-.78c0-.07-.12-.14-.18-.12l0,0a14.83,14.83,0,0,1-2.62.64s-.48-.52-.45-.57.1-.24,0-.35a.88.88,0,0,1-.23-.24c-.14-.21-1.3-1.08-1.36-1.37s-.82-1.22-.82-1.32a5.09,5.09,0,0,0-.14-.87c0-.27-.63-.74-.65-.79a.39.39,0,0,1,0-.15c0-.18-.69-1.34-.78-1.72,0-.07.51-.36.57-.29s.44.7.63,1,.3.64.41.68a.6.6,0,0,1,.41.42,5.62,5.62,0,0,0,.52,1.34c.08.06.18.1.25.16a.74.74,0,0,1,.29.41c0,.2.79,1.26.74,1.48a.28.28,0,0,0,0,.2,5.42,5.42,0,0,1,.19.72,1.28,1.28,0,0,0,.11.27,33.75,33.75,0,0,0,3.64-1.31.41.41,0,0,1,.3-.31c.21-.06,1.76-1.07,1.81-1.11a1.62,1.62,0,0,0,.1-.42c0-.08.51-.62.64-.88s.07-.25-.06-.4a1.43,1.43,0,0,1-.24-.31.28.28,0,0,0-.23-.16,1.59,1.59,0,0,1-.38-.06.35.35,0,0,1-.2-.12.72.72,0,0,1-.22-.44c0-.15,0-.3,0-.46a0,0,0,0,0,0,0,.13.13,0,0,0-.09,0,5.72,5.72,0,0,0-.55.65c-.12.2-.81.27-1,.35s-.13,0-.18-.07a3.57,3.57,0,0,1-.15-.73.14.14,0,0,0,0-.09s-.22.1-.26.16-.09.08-.15,0a6.4,6.4,0,0,0-.34-.72,9.22,9.22,0,0,1-.64-.9.86.86,0,0,1,0-.35A1.81,1.81,0,0,1,63.53,33.89Z"/><polygon class="cls-4" points="25.06 62.53 25.07 62.53 25.06 62.53 25.06 62.53"/><path class="cls-4" d="M28.58,48.64a3.62,3.62,0,0,1-.59-.19c-.13-.1-.82-.6-1-.73s-1.07-.17-1.44-.28a.88.88,0,0,0-.29.09s-.32-.39-.36-.4c-.21,0-2-.82-2.07-.83h0a1.82,1.82,0,0,0,0-.56c-.07-.08-.56-.92-.63-1a6.91,6.91,0,0,0-1-.69,8.28,8.28,0,0,0-1.1-.18,7.39,7.39,0,0,1-.67-.58,4,4,0,0,0-.76-.49,6.48,6.48,0,0,1-.72-.66c0-.06.15-.13.14-.16a3.67,3.67,0,0,1-.62-.15s-.06,0-.07,0-.35.35-.53.2a6.24,6.24,0,0,0-.84-.22,2.9,2.9,0,0,0-.66-.54s-.52.45-.55.39.13-.45.08-.48a.5.5,0,0,0-.35.1c-.08.1-.87.36-.92.43s-.36.69-.42.77a.66.66,0,0,0,0,.15s-.05,0-.06,0-.85-.49-1-.4l-.13.08a.23.23,0,0,1-.31,0,.81.81,0,0,1-.48-.4c-.08-.11-.14-.24-.21-.36a.33.33,0,0,1,0-.13c0-.16.07-.55.06-.61s0-.74,0-.9a.7.7,0,0,0-.18-.14s-1.47-.31-1.46-.33.49-1.86.53-1.93,0-.34-.09-.34-.92.18-1,.3a2.89,2.89,0,0,1-.26.79c0,.18-.12.17-.24.11s-.65.15-.72,0-.36-.32-.4-.43-.36-1.23-.36-1.32a12.18,12.18,0,0,1,.49-2.54,7.85,7.85,0,0,1,1.35-.36c.09.18.47.09.53,0a2.38,2.38,0,0,0,.05-.26,6.42,6.42,0,0,1,1.69,0c.08.12.42,1.49.5,1.74a1.33,1.33,0,0,0,.18.31.13.13,0,0,0,.23,0A1.72,1.72,0,0,0,12,35s-.25-1.64-.22-2a.48.48,0,0,1,.05-.18c.14-.19,1.16-1.09,1.23-1.16s.67-.61.71-.65,0-.26,0-.35,0-.79,0-.93.12.26.14.28l0,0a6.27,6.27,0,0,0,.28-.69s.46-.48.49-.68.56-.32.6-.34,0-.17,0-.17c.23,0,.46-.11.7-.11,0,0,.07-.05.11-.08s0-.64,0-.74a4.88,4.88,0,0,1,1.4-.81c.06,0,.17-.23.2-.24s.29-.08.43-.12l0,0s-.52.6-.51.66a.29.29,0,0,0,.13.22s2.19-1.14,2.22-1.16a1.8,1.8,0,0,0-.17-.54,2.73,2.73,0,0,0-.41.49c-.05.07-.23.05-.27.05v0a5.81,5.81,0,0,1-.46-.52l-.07,0a2,2,0,0,0,.11.31h0c-.16,0-.23-.1-.24-.28s.09-.57,0-.58-.07-.05,0-.06.4-.35.37-.42a.26.26,0,0,0-.09-.14.39.39,0,0,0-.39-.09,3.37,3.37,0,0,0-1.14.49.24.24,0,0,1,.1-.19,1.62,1.62,0,0,1,.51-.32.45.45,0,0,0,.28-.23s0-.05.06-.08a2.37,2.37,0,0,1,.29-.25c.1-.06.19,0,.29,0a7.84,7.84,0,0,1,1.19.08c.18,0,.36-.08.53-.05l.13,0,.13-.06a1.15,1.15,0,0,0,.33-.29.42.42,0,0,1,.28-.17l.22-.05a1,1,0,0,0,.59-.28c.1-.07.21-.63.23-.68s-.14-.34-.3-.31c0,0-.06-.27-.14-.28h-.17l.06-.05.13-.05c.05,0-.44-.44-.58-.5a.18.18,0,0,1-.05-.07.57.57,0,0,0-.2-.34,1,1,0,0,1-.12-.16.11.11,0,0,1,0-.16l.18-.17a.15.15,0,0,0,0-.16,16,16,0,0,1-.16-1.81s-1.09.87-1.15.9l-.2.11c-.08,0-.45-.44-.43-.53a4.8,4.8,0,0,1,.43-.92s0-.1,0-.11a1.55,1.55,0,0,1-.44-.17s0-.18,0-.21a4.49,4.49,0,0,1-.18-.43c-.05-.09-.38,0-.43,0s-.54-.15-.6-.16a.46.46,0,0,0-.44.24c-.06.1,0,.4-.1.46a1.68,1.68,0,0,0-.25.29,1.49,1.49,0,0,0-.07.52c0,.1-.53.58-.67.73a.19.19,0,0,0-.05.23,4.57,4.57,0,0,1,.11.77c0,.17-.15.34-.12.52a7.93,7.93,0,0,1-.88.64l-.32.15a14.58,14.58,0,0,0-.38,1.55,3.48,3.48,0,0,1-.44.42.1.1,0,0,1-.14,0s0-.08,0-.12-.18-.51-.25-.67a13.06,13.06,0,0,1,.48-1.24s0-.1,0-.1a3,3,0,0,1-.72-.12,10.63,10.63,0,0,0-1.09-1.13.2.2,0,0,0-.17,0,.82.82,0,0,1-.33.09,5.35,5.35,0,0,0,.26-1,0,0,0,0,0,0,0h-.14s-.08,0-.08-.08a.22.22,0,0,1,0-.11c0-.09,1.82-2.06,1.9-2.21s.19-.05.24-.06.32-.35.33-.41a.48.48,0,0,0,.44-.25.11.11,0,0,1,.11,0,11.34,11.34,0,0,0,1.14-.66,2,2,0,0,1,.42-.37h0a2.53,2.53,0,0,1-.13.22c-.14.23-.35.45-.47.69a.28.28,0,0,1-.14.12l-.1.08c-.05.05-.06.14,0,.17H16c.05,0,.07,0,.05.12l0,.08c0,.09,0,.13.12.1a.39.39,0,0,0,.16-.07c.17-.16.4-.23.53-.43a.11.11,0,0,1,.08,0c.07,0,.13.08.11.18s0,.08,0,.09l.28.08a.07.07,0,0,0,.07,0,.86.86,0,0,0,.18-.14c.06-.06,0-.14,0-.16l0,0q-.12,0-.09-.15a.28.28,0,0,0,0-.27.32.32,0,0,1-.08-.14c0-.14-.18-.18-.2-.31l-.07,0c-.07,0-.07,0,0-.08l.17-.15s0-.05,0-.07,0,0-.06,0-.1.06-.15,0a.46.46,0,0,0-.16,0h0l.07,0c.13-.1.13-.1.1-.22a0,0,0,0,1,0,0,.06.06,0,0,1,.05-.06c.12,0,.24-.05.25.09a0,0,0,0,0,0,0,5.44,5.44,0,0,0,1.16-.38.58.58,0,0,0,.25-.18c.05-.06.22-.65.26-.72a4.29,4.29,0,0,0,.5-.33c.09-.07,0-.48-.13-.46s-.08,0-.07-.1h0s.82.21.86.19l.1-.06a1.83,1.83,0,0,0,.45-.36l.21.07s0,.07,0,.09a.51.51,0,0,0-.11.16c0,.05,0,.08,0,.13a.47.47,0,0,0,.08.29s-.14.11-.18.13a.34.34,0,0,0-.08.09,1.13,1.13,0,0,0,.22.27,1.66,1.66,0,0,1,.2.71.2.2,0,0,1-.12.12c-.09,0-.49.32-.62.4s-.35.18-.29.47c0,0,0,.06,0,.06a1.33,1.33,0,0,0-.42.12,1.34,1.34,0,0,1-.57-.09.08.08,0,0,0-.08,0c-.09.09-.38.32-.41.36a.19.19,0,0,0,0,.22c.09.12,1,0,1.1,0a.13.13,0,0,1,.14.09c0,.11.06.64.08.68a.51.51,0,0,0,.24.24h0s.87.54.94.55.06,0,.08,0a1.15,1.15,0,0,0-.22-.76.2.2,0,0,1,0-.2,2.48,2.48,0,0,1,.65.52c0,.07.05.14.08.2s0,0,.06,0,.05,0,0-.07,0-.19.09-.3.3-.31.3-.38a1.91,1.91,0,0,1,0-.53c0-.09-.19-.29-.25-.34s0-.36-.05-.45,0,0,0-.06a1.82,1.82,0,0,0,.35-.24s.09,0,.11,0a1.57,1.57,0,0,1,.19.5.5.5,0,0,0,0,.22.48.48,0,0,0,.24.14s.07,0,.08,0l.12-.23a4.44,4.44,0,0,1,.8-.52A.52.52,0,0,0,23.9,14a.21.21,0,0,0,0-.1,6.51,6.51,0,0,0-1.09-1.14c-.05,0,0,0,0-.08a2.09,2.09,0,0,1,.48-.28.21.21,0,0,0,.11,0s-.05-.23,0-.31.06-.37.07-.46-.41-.42-.43-.43a.44.44,0,0,0,0-.34,1.17,1.17,0,0,0-.51-.07h0s.12-.12.16-.16a0,0,0,0,0,0-.06s-.05,0-.05-.05.08-.22,0-.25L22.46,10h.27a.14.14,0,0,0,.1-.07.89.89,0,0,0,.08-.31c0-.11-.45-.23-.55-.27s-.1,0-.15.05l-.15.12h0l0,0c.05-.12,0-.13-.11-.14a6.85,6.85,0,0,0-1.57.75s0,.06-.06.07a1.76,1.76,0,0,0-.2.09c-.08,0-.12.08-.13.13a1.09,1.09,0,0,1,0,.18s0,0,0,0l0,0s-.06,0-.07,0-.05-.25,0-.35l0,0a.63.63,0,0,1,.12-.11,7.62,7.62,0,0,1,1.15-.8l.07,0s0-.05,0-.05a.1.1,0,0,0-.07-.07,1.26,1.26,0,0,0-.78.12c-.13,0-.26.13-.39.19a6.53,6.53,0,0,1-.56.35s-.64.55-.79.69-.07.15,0,.17l.25.07s0,0,.05.06,0,0,0,.06-.06,0-.07,0a1.19,1.19,0,0,1-.16-.08.26.26,0,0,0-.27.13l-.07.16c0,.09,0,.13,0,.19s.68.24.66.3h0l-.08,0c-.12,0-.47.5-.49.52s-.12.09-.18.13-.38.3-.43.35a.18.18,0,0,1-.15.07s0-.07-.05-.08-.39.48-.43.47a1,1,0,0,1,.22-.62,1.08,1.08,0,0,0,.15-.54s-.49.38-.56.42l0,0s.14-.26.17-.38.08-.07.13-.09.12-.1.07-.13-.27-.11-.3-.13,0,0,0-.06a3.67,3.67,0,0,0,.51-.35,4.39,4.39,0,0,1,.31-.69c0-.11.09-.24.07-.35s0-.07.1-.1.65-.44.66-.43a.46.46,0,0,1,.14.05,11.24,11.24,0,0,0,1.25-.63c.06,0,.07-.13,0-.15h0c-.16,0-.67-.13-.79-.11s-.85.56-1,.66-.36.42-.48.55a2.07,2.07,0,0,1-.38.21,12.69,12.69,0,0,0-1.15,1,1.06,1.06,0,0,0,0,.31h0s-.42-.22-.44-.2-.83.55-.81.56.2.13.21.27h0a.87.87,0,0,0-.37.13,2.65,2.65,0,0,1-.29.29.21.21,0,0,1-.15,0s-.57,0-.6,0-.39-.31-.38-.36.05-.55,0-.53l-.52.12a.34.34,0,0,0-.2.14c0,.05,0,.11,0,.14s.14,0,.17-.05l.45-.13s0,0,0,0l0,0a7.36,7.36,0,0,0-.88.46,5.13,5.13,0,0,1-.29.43s0-.34,0-.4a1.1,1.1,0,0,0,0-.18s0-.05-.09,0l-.15.05-.08,0A32.3,32.3,0,0,0,3.47,33.61a2.84,2.84,0,0,0,.2.58c0,.05.06.09.06.14a.73.73,0,0,0,.15.32l.12.17a.13.13,0,0,1,0,.12L4,35a.24.24,0,0,0,0,.2.87.87,0,0,0,.16.17.34.34,0,0,1,.11.24.35.35,0,0,0,.06.14,5.28,5.28,0,0,1,.51,1.4,1.77,1.77,0,0,0,0,.58c0,.12.37.4.43.52a13.54,13.54,0,0,0,1.51,1.1c.36.17.36.17.71,0a.21.21,0,0,1,.28.07c.18.23.4.41.57.67a4.56,4.56,0,0,0,1.25.55,5.18,5.18,0,0,1,.65,1c0,.15.37.34.41.37s.39.53.51.56a.22.22,0,0,0,.11,0c.11,0,.49.27.57.36s.2-.26.23-.29.27-.3.3-.28a14.25,14.25,0,0,1,.79,2.13,10.87,10.87,0,0,1-.73,1,5.63,5.63,0,0,0-.09,1.16.51.51,0,0,0,.25.25l0,0a2.24,2.24,0,0,1-.16.34,1.78,1.78,0,0,0,.14.89,2.26,2.26,0,0,0,.26.16c.1.07,2,2.78,2.08,2.87a8.65,8.65,0,0,0,.92.67c.06,0,1.06.67,1.26.82a8.38,8.38,0,0,1,.58,1.58s.32.82.46,1.16c0,.09.56,1.6.67,1.73a4.27,4.27,0,0,1,.27.67,7.3,7.3,0,0,1,.13.73,7.12,7.12,0,0,0,.91,1.19c.05,0,0,.08,0,.15s0,0,0,.06l.22.23s.12.05.14,0a.06.06,0,0,0,0-.09.65.65,0,0,1-.1-.15,5.9,5.9,0,0,1,.8.85s0,0,0,0,.07.21.14.22a.26.26,0,0,1,.13.06.29.29,0,0,0,.11.15.22.22,0,0,0-.15,0s0,0,0,.06a2.64,2.64,0,0,0,.3.18s.41.18.48.19.64.35.67.35a1,1,0,0,1,.35.16h0l1.05.18h.06l.33.07a1,1,0,0,1,.26,0c.05,0,.93,0,1,0s.05,0,0,0,0,0,0,0h.14l.15,0h0a.37.37,0,0,0-.15,0l-.64-.08a7,7,0,0,0-.9-.21h-.12s0,0,.1,0h.08s0,0,0,0l-.52-.2c-.08,0,.05-.56,0-.59a5.34,5.34,0,0,1-1-.48,1.63,1.63,0,0,1,.28-.11l0,0c0-.06-.23-.36-.19-.4s.27-.11.22-.16a1.31,1.31,0,0,0-.12-.11s-.67-.28-.69-.3.55.08.65.08-.1-.51-.12-.53,1.27-.17,1.24-.27a8.91,8.91,0,0,0-.85-.94,2.3,2.3,0,0,1,.61.13l.37,0c.2,0,.41-.29.48-.34s.08-.41.08-.51h0c.21,0,.3-.1.31-.25s0,0,0,0h0c.07,0,.2-.48.31-.66s-.22-.9-.05-1,.77-.44.83-.5.12-.08.12-.16l.32,0c.08,0,.57,0,.65-.11a4,4,0,0,0,.21-.41c.06-.13.11-.26.18-.39a.33.33,0,0,0,0-.32.3.3,0,0,1,0-.26,3.41,3.41,0,0,0-.06-1.13c0-.15-.06-.3-.09-.45a5.64,5.64,0,0,1,.46-.7,4.58,4.58,0,0,1,.51-.61,2.32,2.32,0,0,0,.21-1A4.27,4.27,0,0,0,28.58,48.64Z"/><path class="cls-4" d="M26.94,12.88h0Z"/><path class="cls-4" d="M36.15,12.19l0,0a1.9,1.9,0,0,1-.52-.08,1.31,1.31,0,0,0-.48,0l0,0a2.53,2.53,0,0,1,.24-.12c.09,0,.16-.09.16-.17a1.19,1.19,0,0,1,.09-.27,2.44,2.44,0,0,0,.23.41c.06.08.41.1.47.1s.19,0,.21-.13,0-.21.07-.31a1.31,1.31,0,0,0-.38-.67c-.06,0-.1-.44-.1-.44s.31.46.41.47.11,0,.12,0a1,1,0,0,1,.17-.3s.52-.42.54-.45A.41.41,0,0,0,37.4,10S37,9.81,37,9.8a5.77,5.77,0,0,1,.62-.05c.15,0,.25-.18.16-.24s-.13-.19-.16-.2,0,0,0-.05,0,0,.08,0h.12c.07,0,.11-.49.16-.52a0,0,0,0,0,0-.07c-.06,0-.16,0-.21-.06h0c.08-.06-.06-.16-.07-.16a2.21,2.21,0,0,1,.41-.14s0,0,0,0,.18.09.14.19a.27.27,0,0,0,0,.23h0s0-.05,0-.08a.35.35,0,0,1,.15-.28.32.32,0,0,0,.13-.22s0-.09-.1-.1h-.16L38.3,8s0,0,0,0a.11.11,0,0,1,.06,0c.16,0,.18,0,.13-.1a.24.24,0,0,0-.11-.09l-.1-.07h0l0,0a.2.2,0,0,0,.23-.06c.07-.08.89-.83,1-.87l1.16-.51.14,0c.21-.06.23-.1.09-.17l0,0a1.46,1.46,0,0,0-.56-.09c-.13,0-1.23.13-1.15.08l.06,0c.17-.11,0-.13-.2-.12h0l-.07,0a1.81,1.81,0,0,1-.4,0c-.09,0,0,0,.21,0l.47,0a2.21,2.21,0,0,0,.48-.07c.08,0,.11-.06.06-.07l-.24-.06c-.14,0-.42-.12-.46-.12-.25,0-2-.11-2.11-.09h-.05a.58.58,0,0,1-.2,0h-.09v0s0,0,0,0h-.07c-.1,0-1.31.12-1.4.12l-.1,0,0,0s-.1.31-.14.31-.25-.25-.27-.28-.05,0-.11,0-.77.26-.79.27,0-.06,0-.08,0-.08.09-.12v0h-.09a.23.23,0,0,0-.11,0s0,0-.06.06l-.16,0h0s0,0,0,0l.17-.08a.21.21,0,0,0,.1-.07s0,0-.09,0l-1.13.08a.24.24,0,0,0-.16,0l0,0-.86.21-.07,0a.34.34,0,0,1-.14,0,11.34,11.34,0,0,0-1.54.31c-.09,0-.09.08,0,.09l.26,0v0s0,0-.06,0l-.61.27c-.05,0-1,.1-1.12.1a6.32,6.32,0,0,0-1,.22c-.08,0-.13.09-.08.13a.41.41,0,0,1,.09.18.53.53,0,0,0,0,.12,2,2,0,0,0,.6,0l.06,0a0,0,0,0,1,0,0s-1,.09-1.09.12-.24.14-.18.19.07.1.18.13,0,0,0,0a.86.86,0,0,0-.24.13.3.3,0,0,0,.19.23c.08,0,.31-.09.38-.08a1.68,1.68,0,0,0,.68,0h.05a5.74,5.74,0,0,1,.74.36S28,10.14,28,10.16s-.44.56-.42.57l-.21.23,0,.15h.42L28,11s-.13.17-.19.23,0,.08,0,.08l0,.22-.51-.07c-.08,0-.19.14-.19.14v0s0,.07,0,.09-.34.3-.35.37.12.31.12.31h0l.47-.07v-.43l.54.14-.1.17h0s-.85.6-.92.61-.78,1.17-.85,1.24,0,.91-.08,1.1c0,0,.16,1.76.16,1.76s0,.06,0,.08l.15.18c.14,0,.19.09.16.22s.05,0,.07,0l.28-.06.13-.05c.09,0,.17,0,.16.07a.33.33,0,0,0,.1.3s0,.07.06.1.06.07.1.06.2.05.3.05a.29.29,0,0,0,.21-.11c.12-.16.5-.87.5-.87l.27-.51.57-.54.19-.41.22-.29,0-.07.56-.37.51,0,.9-.37.45-.25.42-.41.82-.37,1.09-.25s1.45-.63,1.77-.82A.12.12,0,0,0,36.15,12.19Z"/><path class="cls-4" d="M62,51.08a.39.39,0,0,0-.15.23.32.32,0,0,1-.17.19s0,.06-.05.07-.2.09-.23.21a.51.51,0,0,1-.29.29c-.13.06-.24.17-.37.23a2.45,2.45,0,0,1-.41.12h0l-.4.15a2.4,2.4,0,0,1-.18.26.52.52,0,0,0-.12.49.88.88,0,0,0,0,.15.36.36,0,0,1-.12.4c-.13.13-.23.27-.36.4a.46.46,0,0,0-.18.49A.52.52,0,0,1,59,55a.78.78,0,0,0,0,.22.31.31,0,0,0,0,.13.75.75,0,0,0,.42.25c.1,0,.21,0,.31-.08l.23,0a.53.53,0,0,0,.39-.21,2.56,2.56,0,0,0,.2-.26c.14-.22.26-.45.42-.67s.4-.68.64-1a1.64,1.64,0,0,0,.14-.3,2.33,2.33,0,0,1,.19-.39c.07-.11.07-.25.24-.3a.35.35,0,0,0,.1-.2c0-.12,0-.24,0-.36a.92.92,0,0,0-.19-.72S62,51.06,62,51.08Z"/><path class="cls-4" d="M57.89,11a1,1,0,0,0,.17,0,.34.34,0,0,1,.25.09.26.26,0,0,1,.09.12c0,.06.25.15.44.22-.43-.44-.88-.86-1.34-1.27a2.43,2.43,0,0,0,.26.84A.31.31,0,0,0,57.89,11Z"/><path class="cls-4" d="M23.59,6.77c.11,0,.32,0,.38,0l.15,0h0l.58-.18h0a1.06,1.06,0,0,1-.37.17.75.75,0,0,0-.22.13s0,0,0,.06h.07c.11,0,.13,0,.08.08a.24.24,0,0,1-.06.08.3.3,0,0,1-.15.1H24A.59.59,0,0,0,24.1,7s0,0-.06,0a.54.54,0,0,0-.25,0l-.08,0a.27.27,0,0,0-.08.07.9.9,0,0,0-.12.24H23.4a1.72,1.72,0,0,0-.68.12h0l-.12,0c-.07,0-.33.11-.29.14s.7.25.73.26.38-.11.43-.09a.54.54,0,0,0,.38.05S23.93,8,24,8l.92-.25c.1-.08.11-.12,0-.15s.77-.41.79-.43.13-.07.18-.06a1.64,1.64,0,0,0,.38,0s.12-.1.12-.11a3.86,3.86,0,0,0,.68-.24c.08,0,.44-.26.39-.27a.42.42,0,0,0-.12,0h0l.19,0h.34a.91.91,0,0,0,.23-.09l.09,0c.13,0,1.47-.35,1.54-.36L31,5.77l.08,0s0,0-.06,0h-.12a.23.23,0,0,1,.13,0c.19,0,1.53-.22,1.56-.24s0,0-.05,0-.07,0,0,0l.11-.06s0,0,0,0h-.21c-.07,0-2.65-.14-2.73-.13l-.6.1c-.06,0-.15,0-.15,0a5.28,5.28,0,0,0-.56,0s0,0,0,.07l-.31,0s-1,0-1.05,0,0,.06,0,.06-.45.21-.47.24.19.14.21.15a.51.51,0,0,0,.27.06l1.3-.06s0,0,0,0,.15,0,.18,0c-.25,0-1,.09-1.13.08h-.21l-.15,0c-.05,0-.2,0-.37-.08h0a.38.38,0,0,0-.18,0c-.11,0-.13-.05-.11-.07s-.06,0-.08,0a.42.42,0,0,0-.12,0,0,0,0,0,1,0,0l.15-.1.17-.09c.09,0,.06-.07,0-.1a.64.64,0,0,0-.21,0s-.06.07,0,.07,0,0,0,0h0c-.06,0-1.45.33-1.47.35a5.77,5.77,0,0,0-.56.27c-.06,0-.06.06,0,.08a.3.3,0,0,0,.16,0l.08,0a0,0,0,0,1,0,0l-.06,0h-.07a.68.68,0,0,0-.41.09,2.51,2.51,0,0,0-.24.19c-.1.09-.08.16,0,.2A.18.18,0,0,0,23.59,6.77Z"/><path class="cls-4" d="M12.79,11.92l.19-.1a.68.68,0,0,1,.26-.07.5.5,0,0,0,.3-.09l.15-.08s.05,0,.05,0a0,0,0,0,1,0,0c0,.05,0,.07.08.09s0,.12,0,.16,0,0,0,0a2.19,2.19,0,0,0,.68,0c.06,0,.32-.47.35-.49s.44,0,.52-.09.09-.13.06-.19-.13-.54-.13-.61a.19.19,0,0,1,.1-.15,2.81,2.81,0,0,0,.43-.49l.42-.42a.66.66,0,0,1,.17-.12A5.68,5.68,0,0,0,17,9.06a.4.4,0,0,0,.12-.1c.07-.1.05-.15-.06-.16a1.85,1.85,0,0,0-.56.19.71.71,0,0,1-.08.18s0,0,0,0,0-.07-.06-.08l-.09,0c-.08,0-.16,0-.24.07l-.16.13c-.12.12-.22.24-.36.36s-.22.25-.34.37l0,0,0,0a.11.11,0,0,1-.1,0s0,0,0-.06.18-.22.29-.32a.79.79,0,0,0,.25-.42s0,0,0-.06-.1,0-.13,0l-.16.2s-.06.06-.1.05H15A32.76,32.76,0,0,0,12.38,12h.13A.49.49,0,0,0,12.79,11.92Z"/><path class="cls-4" d="M40.45,19.51s0,0-.08,0,0,.39,0,.54,0,.36,0,.4a1.67,1.67,0,0,0,.34.11,1.35,1.35,0,0,1,0,.32c0,.09.17.17.19.17a.7.7,0,0,1,.25,0c.09,0,.26.43.24.52-.06.25-.51.26-.5.29s0,.26.08.36a.14.14,0,0,1,0,.18,1.39,1.39,0,0,0-.24.36,1.94,1.94,0,0,1,.57.2l0,0s-.85.64-.84.66l0,0s1.93-.42,2.14-.43.51-.35.47-.38l-.09,0s.11-.3.17-.4a.31.31,0,0,0-.26-.47h-.24S42,21,42,20.81s-.49-.5-.48-.54a6.48,6.48,0,0,0,.31-.64c0-.08-.19-.19-.22-.19a1.4,1.4,0,0,1-.4-.09c.06-.07.13-.14.19-.22a.22.22,0,0,0,0-.08.1.1,0,0,0-.1-.08l-.41,0C40.79,19,40.54,19.38,40.45,19.51Z"/><path class="cls-4" d="M46.28,7.58a.56.56,0,0,0,0,.13A.9.9,0,0,0,46.4,8a7.09,7.09,0,0,0,.69.47.16.16,0,0,0,.15,0l0,0c0-.12.33-.83.3-1s0,0,0-.05.38.16.47.24,0,.19,0,.23a1.61,1.61,0,0,0,.54.11.48.48,0,0,0,.28-.28,12.28,12.28,0,0,1-1.08-.62l-.07,0-.16,0c-.1,0-.59-.34-.68-.35l-.14,0c-.05,0-.17.12-.19.16h-.06a6.51,6.51,0,0,0-.77,0,.36.36,0,0,0-.19.12c-.07.08,0,.14.08.2A3.64,3.64,0,0,0,46.28,7.58Z"/><path class="cls-4" d="M20.63,8.51c0,.09.3.18.43.14s.05,0,.08,0,0,0,0,0-.06,0-.06.08,0,0,.07.06,1.31.13,1.43.11A2.44,2.44,0,0,0,23,8.84c.1-.05.68-.51.57-.57a.11.11,0,0,1-.05-.08,5.69,5.69,0,0,0-1.1,0c-.11,0-.22.05-.24,0s-.06,0-.1,0-.23-.23-.28-.23,0,0,0,0,.28,0,.37-.07.09,0,.08-.06,0,0,0,0S22,7.48,22,7.48s0-.17-.07-.18-.1-.1-.2-.12a1.09,1.09,0,0,0-.45.14c0,.09.27.37.23.42l-.1.15a2.25,2.25,0,0,1-.43.27A.86.86,0,0,0,20.63,8.51Z"/><path class="cls-4" d="M17,8.09,17.37,8h.06l.2,0a.22.22,0,0,0,.16,0L18,8A.75.75,0,0,0,18.19,8l.5-.25a.57.57,0,0,0,.13-.08c.1-.07.12-.14.06-.18h-.07a.44.44,0,0,0-.16.06s0,0-.06,0-.11,0,0-.1,0,0,.06-.1a.24.24,0,0,0,.11-.08.77.77,0,0,1,.23-.2S19,7,19,7a.2.2,0,0,0-.13,0l-.41.15a.27.27,0,0,0-.14.1l0,.07s-.07.07-.15.09l0,0c-.08,0-.11.06-.12.1a.09.09,0,0,1,0,0,.21.21,0,0,1-.13.07l-.28,0s0,0,0,0a.32.32,0,0,0,.08-.09l-.94.67a1.33,1.33,0,0,0,.19,0A.94.94,0,0,1,17,8.09Z"/><path class="cls-4" d="M35.14,15.8a5.86,5.86,0,0,0,1.16.33.28.28,0,0,0,.18,0c.25-.09,1.41-.61,1.45-.66a5.63,5.63,0,0,0,.31-.57l0,0s-.33-.47-.37-.46a.15.15,0,0,1-.17,0,.17.17,0,0,0-.24,0,4.69,4.69,0,0,1-1.07.25s-.17-.11-.2-.07a.17.17,0,0,0,0,.15c0,.08-.19.18-.22.19s-.19-.46-.22-.49-.7.3-.79.4a3.59,3.59,0,0,0,.53.11s0,0,0,.07-.07.12-.17.13-.18.21-.11.23a.77.77,0,0,1,.22.22S35.14,15.73,35.14,15.8Z"/><path class="cls-4" d="M18.37,8.9h0l-.05-.05a.11.11,0,0,0-.08,0c-.06,0-.91.7-.92.69a.32.32,0,0,1,0-.17s0,0-.08,0a.47.47,0,0,0-.35.19c-.05.08-.1.16-.14.24s0,.05,0,.06,0,.64,0,.68.08,0,.13,0l.71-.31a4.11,4.11,0,0,0,.57-.54c0-.05,0-.09,0-.13s0-.09-.08-.11,0,0,0-.05A4.7,4.7,0,0,0,18.81,9s0-.06-.07-.06h-.25l-.11,0h0Z"/><polygon class="cls-4" points="22.7 24.7 22.71 24.71 22.71 24.71 22.7 24.7"/><path class="cls-4" d="M22.18,25.18a.53.53,0,0,0,.27.13,1.31,1.31,0,0,0,.26-.6h0v0a.62.62,0,0,1,0-.38s0,0,0,0-.05-.39-.07-.43-.15-.15-.2-.12a1.24,1.24,0,0,1-.43.1,1,1,0,0,1,0-.69,1.63,1.63,0,0,0,.25-.4,1.15,1.15,0,0,0-.53.22,11.75,11.75,0,0,1-1,1.24c-.05,0,0,.22-.06.28s-.17.29-.13.29,1.14.08,1.24.12-.16.24-.14.26a.08.08,0,0,0,.07,0,5.57,5.57,0,0,0,.53-.33A1.06,1.06,0,0,0,22.18,25.18Z"/><path class="cls-4" d="M49.1,6.55a1.43,1.43,0,0,0-.22,0c-.15,0-1.31,0-1.4-.07a1.68,1.68,0,0,0-.37.21A8.22,8.22,0,0,0,48.24,7,2,2,0,0,0,49.1,6.55Z"/><path class="cls-4" d="M20.85,7.42V7.34a1.89,1.89,0,0,0-.54,0,1.92,1.92,0,0,0-.28.29l0,0s0,0,0,0a.88.88,0,0,0,0-.16h0l-.08,0c-.1.07-.05-.22-.06-.24s-.09,0-.12,0a.57.57,0,0,0-.13.08c-.06,0-.35.56-.27.56h.34a.18.18,0,0,1-.07.05l-.16,0c-.07,0-.27.26-.23.26l.26,0a.53.53,0,0,0,.3-.11l.05,0A.46.46,0,0,1,20,8l.19-.15c.07,0,.17-.09.25-.14l0,0,.32-.21Z"/><path class="cls-4" d="M40.34,20.89a1.81,1.81,0,0,0-.5-.14,3.1,3.1,0,0,0-.48.43s-.49.11-.49.15a1.16,1.16,0,0,0,0,.5c.08.08-.2.55-.23.57s.37.46.54.4a6.4,6.4,0,0,0,.91-.42,1.46,1.46,0,0,0,.12-.74c0-.07.26-.47.19-.59A.86.86,0,0,0,40.34,20.89Z"/><path class="cls-4" d="M21.59,6.4l.07,0c.1,0,.11.11-.08.22s-.06.06,0,.08a.23.23,0,0,0,.2,0,7.92,7.92,0,0,0,.83-.42c.09,0,.08-.16.13-.18S22.63,6,22.66,6s0-.08-.1-.08-1,.36-1,.37l-.1,0c-.09,0-.08.08,0,.09Z"/><path class="cls-4" d="M12.75,37.22a1,1,0,0,1-.25-.14,1.21,1.21,0,0,0-.28-.18c-.05,0-1-.41-1-.4a2.76,2.76,0,0,0-.81.57s0,0,0,0a6,6,0,0,1,.8-.25c0,.08.32.19.41.22s1,.63,1,.64,0,.33.05.33a4.91,4.91,0,0,0,.93-.08A4.18,4.18,0,0,0,12.75,37.22Z"/><path class="cls-4" d="M13.87,38.79a4.75,4.75,0,0,1,.51,0c.09,0,.25.18.27.18s1.06-.33,1.07-.37a5.79,5.79,0,0,0-.48-.46,1.27,1.27,0,0,0-.72-.11c-.06,0-.23-.1-.26-.12s-.11,0-.16.09.15.5.08.46S13.8,38.79,13.87,38.79Z"/><path class="cls-4" d="M22.22,6.73a2.7,2.7,0,0,0,.57,0A1.08,1.08,0,0,1,23,6.62h0s.15-.1.12-.14a.49.49,0,0,1,0-.19,1.8,1.8,0,0,0-.63.24S22.24,6.7,22.22,6.73Z"/><path class="cls-4" d="M20,8.52l0,0a2.16,2.16,0,0,0,.53-.36c.05-.07.05-.13,0-.17a.27.27,0,0,0-.16,0h-.11a3.75,3.75,0,0,1-.4.21C19.83,8.27,19.94,8.48,20,8.52Z"/><path class="cls-4" d="M20.31,8h0Z"/><path class="cls-4" d="M20.14,6.2c.09,0,.08,0,.13.06a.62.62,0,0,0,.45-.09l.09-.07,0,0c.07-.06,0-.09-.08-.07l-.34,0-.27,0-.12,0-.06,0s0,0,0,0S20.13,6.16,20.14,6.2Z"/><path class="cls-4" d="M45.71,28.53a2.13,2.13,0,0,1,.08.61c0,.31.16.38.43.2a.21.21,0,0,0,.12-.16c0-.1,0-.21,0-.31h0v-.36c0-.17-.2-.37-.41-.22l-.17.11A.11.11,0,0,0,45.71,28.53Z"/><path class="cls-4" d="M20.74,12.88a.11.11,0,0,0,0-.15.3.3,0,0,0-.3,0,1.65,1.65,0,0,0-.45.38l0,0c-.06.11,0,.18.11.18a.77.77,0,0,0,.57-.3Z"/><path class="cls-4" d="M22.4,7.08l.2,0s.07,0,0-.06a.55.55,0,0,0-.39-.12.51.51,0,0,0-.26.09S22,7,22,7a1.34,1.34,0,0,0,.4.08Z"/><path class="cls-4" d="M57.72,12.62a.32.32,0,0,0,.26-.28.13.13,0,0,0,0-.07.59.59,0,0,0-.39-.12c-.06,0-.14,0-.14.1a.45.45,0,0,0,0,.12.79.79,0,0,0,.08.16A.23.23,0,0,0,57.72,12.62Z"/><path class="cls-4" d="M16.74,15.92l-.19,0a.31.31,0,0,0-.12.05l-.21.17a.15.15,0,0,0,0,.12s0,.07.06.07a.38.38,0,0,0,.15,0,1.23,1.23,0,0,0,.45-.3.13.13,0,0,0,0-.08s0,0,0,0Z"/><path class="cls-4" d="M19.13,23.57s0,.08,0,.12l.05.06a.51.51,0,0,0,.24.22l.32.09h0l.06-.06a0,0,0,0,0,0,0,.78.78,0,0,0-.65-.4S19.15,23.55,19.13,23.57Z"/><path class="cls-4" d="M56.48,31.48c.14-.07.17-.21.22-.33s0,0,0,0l-.4.06a.75.75,0,0,0-.33.14s0,.14,0,.19a.27.27,0,0,0,.28.1A2.36,2.36,0,0,0,56.48,31.48Z"/><path class="cls-4" d="M46.14,28.07a.42.42,0,0,0,.07-.13c0-.11,0-.21,0-.27a.88.88,0,0,1,0-.14s0,0,0-.05a.1.1,0,0,0-.14-.09l-.18.09a.21.21,0,0,0-.09.22.71.71,0,0,0,.15.37A.13.13,0,0,0,46.14,28.07Z"/><path class="cls-4" d="M12.45,38.6s0,0,0,.08a.4.4,0,0,0,.48.23l.1,0a.1.1,0,0,0,0-.12.39.39,0,0,0-.38-.17Z"/><path class="cls-4" d="M52.82,31.45l.42-.07s0,0,0,0a.08.08,0,0,0,0-.08.53.53,0,0,0-.38-.13,1.85,1.85,0,0,1-.47,0s-.06,0-.09,0a.1.1,0,0,0,0,.08s0,.08,0,.08l.5.13Z"/><path class="cls-4" d="M16.15,38.72s0,.07-.06.11a.13.13,0,0,0,.06.11.2.2,0,0,0,.08,0,.46.46,0,0,0,.42-.09.05.05,0,0,0,0-.08.27.27,0,0,0-.1-.09.84.84,0,0,0-.19,0Z"/><path class="cls-4" d="M20.27,6.92a2.43,2.43,0,0,0,.29-.22s0,0,0-.06,0,0,0,0l-.07,0a2.61,2.61,0,0,0-.28.17.2.2,0,0,0-.08.08s0,0,0,.05A.15.15,0,0,0,20.27,6.92Z"/><path class="cls-4" d="M17,16.64s0,0,.06.06.06,0,.08,0,.13-.14.18-.21a.15.15,0,0,0,.05-.07.1.1,0,0,0-.14-.14A.44.44,0,0,0,17,16.64Z"/><path class="cls-4" d="M38.12,9.13a.22.22,0,0,0,0,.08s0,.09.06.12a.33.33,0,0,0,.24,0l0,0,0,0a1.09,1.09,0,0,1-.08-.15A.17.17,0,0,0,38.12,9.13Z"/><path class="cls-4" d="M24,5.84l.24-.09s0,0,0,0-.05,0-.1,0-.27,0-.26.1,0,0,0,0Z"/><path class="cls-4" d="M22.85,7.25A.34.34,0,0,0,23,7.17s0-.1-.08-.09l-.07,0a.43.43,0,0,0-.19.14v0A.34.34,0,0,0,22.85,7.25Z"/><path class="cls-4" d="M21.25,6.75a.24.24,0,0,0,.16-.07s0-.09-.1-.08a.26.26,0,0,0-.19.08C21.12,6.73,21.15,6.75,21.25,6.75Z"/><path class="cls-4" d="M19.14,6.68h.14a1,1,0,0,0,.27-.07.75.75,0,0,0,.2-.11.33.33,0,0,1,.15,0l.2-.06a.07.07,0,0,0,0,0s0,0,0,0a1.79,1.79,0,0,0-.41,0l-.24,0L19,6.59l0,.06S19.09,6.67,19.14,6.68Z"/><path class="cls-4" d="M15.55,19.87a.13.13,0,0,0-.09.14s0,0,0,0a.08.08,0,0,0,.1.08A.41.41,0,0,0,15.8,20a.08.08,0,0,0,0-.08c0-.06-.05-.09-.1-.07Z"/><path class="cls-4" d="M18.85,8.83a.1.1,0,0,0,0-.05h0a1,1,0,0,0-.3,0,.33.33,0,0,0-.2.11.82.82,0,0,0,.31,0Z"/><path class="cls-4" d="M18.59,8c.05,0,.08-.07.07-.11s0,0,0,0a.53.53,0,0,0-.25.12s0,.06,0,.06A.35.35,0,0,0,18.59,8Z"/><path class="cls-4" d="M45.58,7.24l0,0c0,.11.11.18.28.23h0a0,0,0,0,0,0,0c0-.09-.18-.15-.25-.22Z"/><path class="cls-4" d="M14.29,21.69a.27.27,0,0,0-.08.1s0,.07,0,.07l.14.05h.07l.07,0a.14.14,0,0,0,0-.11A.16.16,0,0,0,14.29,21.69Z"/><path class="cls-4" d="M18.17,42.06v.09a.11.11,0,0,0,.11.12.14.14,0,0,0,.14-.13.2.2,0,0,0-.13-.18A.1.1,0,0,0,18.17,42.06Z"/><path class="cls-4" d="M40.08,19.43s0,0,0,0h0Z"/><path class="cls-4" d="M40.36,19.18s0-.06,0-.07h0a.19.19,0,0,0-.17.15.88.88,0,0,0,0,.17l.09,0A.36.36,0,0,0,40.36,19.18Z"/><path class="cls-4" d="M20,17.57s0,0,0,0l.06,0,.12-.07a.26.26,0,0,0,0-.08s-.06-.06-.1,0Z"/><path class="cls-4" d="M20.3,7.29h0Z"/><path class="cls-4" d="M21.22,16.91s0,.07,0,.1a.06.06,0,0,0,.07,0,.34.34,0,0,0,.08-.09.47.47,0,0,0,0-.12s0,0,0,0l-.07,0Z"/><path class="cls-4" d="M20.22,8S20.15,8,20,8,20,8.08,20.22,8Z"/><polygon class="cls-4" points="20.04 7.99 20.04 7.98 20.03 7.98 20.03 7.99 20.04 7.99"/><path class="cls-4" d="M58.05,11l0,0,.14.09h.07s0-.05,0-.08a.26.26,0,0,0-.15-.07Z"/><polygon class="cls-4" points="24.13 8.09 24.14 8.09 24.13 8.09 24.12 8.09 24.13 8.09"/><path class="cls-4" d="M13.77,36.83h0Z"/><path class="cls-4" d="M9.18,33.81h0Z"/><path class="cls-4" d="M19.88,12.71h0v0S19.88,12.7,19.88,12.71Z"/><path class="cls-4" d="M24.15,6.74l0,0s0,0,0,0Z"/><path class="cls-4" d="M15.13,11.52h0Z"/><path class="cls-4" d="M51.06,30h0Z"/><path class="cls-4" d="M46.65,27.3h0Z"/><path class="cls-4" d="M40.34,20.48h0Z"/><path class="cls-4" d="M19.6,12.06h0v0Z"/><path class="cls-4" d="M49.55,11.74h0Z"/><path class="cls-4" d="M48.37,31h0v0S48.38,31,48.37,31Z"/><path class="cls-4" d="M17.5,38.9a0,0,0,0,1,0,0s0,0,0,0Z"/><path class="cls-4" d="M36.87,5.29s0,0,0,0h0Z"/><path class="cls-4" d="M30.11,6h0Z"/><path class="cls-4" d="M20.65,7.26h0Z"/><path class="cls-4" d="M49.12,6.54h0Z"/><path d="M89.62,96.81,94.85,88h3.47v9h1.78v2.08H98.32V102H95.64v-2.9h-6Zm6,.18V90.93h0L92.14,97Z"/><path d="M106.9,98V95.87h10.16V98Z"/><path d="M126.8,94.69a4.27,4.27,0,0,1-1.68-1.32,3.08,3.08,0,0,1-.64-1.92,3.3,3.3,0,0,1,1.28-2.8,5.31,5.31,0,0,1,3.16-.88,6.47,6.47,0,0,1,3.28.78,2.83,2.83,0,0,1,1.4,2.58A3.55,3.55,0,0,1,133,93a3.73,3.73,0,0,1-1.76,1.44v0c1.8.87,2.7,2.09,2.68,3.66a3.65,3.65,0,0,1-1.36,3.08,5.57,5.57,0,0,1-3.44,1,5.93,5.93,0,0,1-3.46-1,3.47,3.47,0,0,1-1.46-3.06c0-1.52.86-2.67,2.56-3.46Zm.24,3.46a1.82,1.82,0,0,0,.66,1.4,2.19,2.19,0,0,0,2.88.08,1.78,1.78,0,0,0,.58-1.36,2,2,0,0,0-.72-1.6,4.58,4.58,0,0,0-1.62-.82,3.76,3.76,0,0,0-1.26.88A2,2,0,0,0,127,98.15Zm.12-6.62a1.43,1.43,0,0,0,.22.76,2.3,2.3,0,0,0,.54.58,4.24,4.24,0,0,0,.72.42,3,3,0,0,0,.36.18l.36.16a2.74,2.74,0,0,0,1.1-.8,2.11,2.11,0,0,0,.46-1.22,1.75,1.75,0,0,0-.44-1.28,1.89,1.89,0,0,0-1.28-.48,2.35,2.35,0,0,0-1.38.42A1.48,1.48,0,0,0,127.16,91.53Z"/><path d="M141.85,88h4.47l3.32,10.58h0L153,88h4.48v14H154.8V90.45h0L151,102h-2.68l-3.76-11.52,0,0V102h-2.67Z"/><path d="M160.94,92.21a9.46,9.46,0,0,1,3.57-.78q4.47-.06,4.41,4.34v1.32c0,.51,0,1,0,1.4s0,.82,0,1.18c0,.75.06,1.51.12,2.3h-2.32a12.27,12.27,0,0,1-.12-1.54h0a3.28,3.28,0,0,1-1.34,1.3,3.77,3.77,0,0,1-1.84.48,4.3,4.3,0,0,1-2.46-.8,2.71,2.71,0,0,1-1.14-2.26,3.24,3.24,0,0,1,.52-1.88,3,3,0,0,1,1.24-1.06,5.59,5.59,0,0,1,1.7-.5l.9-.07.86,0h1.48a2.22,2.22,0,0,0-.56-1.74,2.7,2.7,0,0,0-1.76-.48A5.23,5.23,0,0,0,161,94.51ZM162.38,99a1,1,0,0,0,.5.94,2.05,2.05,0,0,0,1.2.32,2.24,2.24,0,0,0,1.88-.92,3.75,3.75,0,0,0,.56-2.12h-1.86l-.24,0a3.7,3.7,0,0,0-1,.24,1.74,1.74,0,0,0-.74.54A1.37,1.37,0,0,0,162.38,99Z"/><path d="M171.66,91.67H174V94h0a3.51,3.51,0,0,1,.88-1.66,2.49,2.49,0,0,1,1.94-.92,4.15,4.15,0,0,1,.82.08v2.7a2.65,2.65,0,0,0-1.2-.22,1.71,1.71,0,0,0-1.24.44,2.48,2.48,0,0,0-.66,1.1,5.67,5.67,0,0,0-.24,1.36l0,.67c0,.22,0,.43,0,.63V102h-2.68Z"/><path d="M185.7,93.89a2.58,2.58,0,0,0-.76-.28l-.48-.07a5,5,0,0,0-.58,0,2.54,2.54,0,0,0-2,.88,3.56,3.56,0,0,0-.76,2.38,3.93,3.93,0,0,0,.7,2.38,2.43,2.43,0,0,0,2.08,1,3.85,3.85,0,0,0,1.16-.18,4.27,4.27,0,0,0,.9-.3l.12,2.22a5.8,5.8,0,0,1-1.2.24l-.69.07c-.24,0-.51,0-.79,0a4.63,4.63,0,0,1-3.78-1.56,5.79,5.79,0,0,1-1.3-3.88,5.67,5.67,0,0,1,1.3-3.8,4.7,4.7,0,0,1,3.68-1.54,8.59,8.59,0,0,1,2.6.34Z"/><path d="M187.9,87h2.68v6.1h0a3.72,3.72,0,0,1,3.24-1.64,3.22,3.22,0,0,1,2.68,1.14,4.77,4.77,0,0,1,.82,2.9V102h-2.68V96a4.52,4.52,0,0,0,0-.52,2.9,2.9,0,0,0-.2-.94,1.42,1.42,0,0,0-.5-.74,1.79,1.79,0,0,0-1-.26,1.9,1.9,0,0,0-1.16.34,2.45,2.45,0,0,0-.72.86,3.84,3.84,0,0,0-.36,1.1,5.7,5.7,0,0,0-.12,1.12v5H187.9Z"/><path d="M205.12,102V99.63l.65-.61.87-.81c.34-.29.67-.61,1-.94s.67-.69,1-1.06A17.68,17.68,0,0,0,210.42,94a4.14,4.14,0,0,0,.74-2.1,1.72,1.72,0,0,0-.7-1.44,2.73,2.73,0,0,0-1.58-.44,4.51,4.51,0,0,0-1.7.32c-.26.11-.53.23-.79.37s-.5.28-.73.43l-.22-2.32a9.22,9.22,0,0,1,2-.74,10,10,0,0,1,2.13-.26q4.29,0,4.38,4.08a5.75,5.75,0,0,1-.48,2.16,8.81,8.81,0,0,1-.56,1,8.59,8.59,0,0,1-.72,1c-.56.68-1.13,1.33-1.71,1.94s-1.17,1.2-1.79,1.76h5.7V102Z"/><path d="M221,102.21a4.24,4.24,0,0,1-4-2.52,7.68,7.68,0,0,1-.66-2.34c-.05-.41-.09-.81-.12-1.19s0-.76,0-1.13a14.57,14.57,0,0,1,.24-2.64,8.69,8.69,0,0,1,.78-2.32,4.87,4.87,0,0,1,1.5-1.68,4.11,4.11,0,0,1,2.32-.62,4.6,4.6,0,0,1,2.5.66,4.49,4.49,0,0,1,1.48,1.74,8.64,8.64,0,0,1,.72,2.34,18.45,18.45,0,0,1,.18,2.52,16.76,16.76,0,0,1-.18,2.46,8,8,0,0,1-.74,2.32,4.33,4.33,0,0,1-1.48,1.72A4.52,4.52,0,0,1,221,102.21Zm0-2.08a1.53,1.53,0,0,0,1.26-.56,3.25,3.25,0,0,0,.61-1.34,7.56,7.56,0,0,0,.24-1.68V94.27c0-.27,0-.55,0-.84a8.61,8.61,0,0,0-.24-1.68,3,3,0,0,0-.61-1.36,1.61,1.61,0,0,0-1.24-.54,1.45,1.45,0,0,0-1.17.54,3.38,3.38,0,0,0-.63,1.36c-.06.27-.1.54-.14.82l-.09.86q0,.43,0,.84c0,.27,0,.52,0,.76s0,.46,0,.71,0,.52,0,.81l.09.86c0,.28.08.55.14.82a3.79,3.79,0,0,0,.63,1.34A1.39,1.39,0,0,0,221,100.13Z"/><path d="M227.36,102V99.63L228,99l.87-.81c.34-.29.67-.61,1-.94s.67-.69,1-1.06A17.68,17.68,0,0,0,232.66,94a4.14,4.14,0,0,0,.74-2.1,1.72,1.72,0,0,0-.7-1.44,2.73,2.73,0,0,0-1.58-.44,4.51,4.51,0,0,0-1.7.32c-.26.11-.53.23-.79.37s-.5.28-.73.43l-.22-2.32a9.22,9.22,0,0,1,2-.74,10,10,0,0,1,2.13-.26q4.29,0,4.38,4.08a5.75,5.75,0,0,1-.48,2.16,8.81,8.81,0,0,1-.56,1,8.59,8.59,0,0,1-.72,1c-.56.68-1.13,1.33-1.71,1.94s-1.17,1.2-1.79,1.76h5.7V102Z"/><path d="M243.2,102.21a4.24,4.24,0,0,1-4-2.52,7.68,7.68,0,0,1-.66-2.34c-.05-.41-.09-.81-.12-1.19s0-.76,0-1.13a14.57,14.57,0,0,1,.24-2.64,8.69,8.69,0,0,1,.78-2.32,4.87,4.87,0,0,1,1.5-1.68,4.11,4.11,0,0,1,2.32-.62,4.6,4.6,0,0,1,2.5.66,4.49,4.49,0,0,1,1.48,1.74,8.64,8.64,0,0,1,.72,2.34,18.45,18.45,0,0,1,.18,2.52,16.76,16.76,0,0,1-.18,2.46,8,8,0,0,1-.74,2.32,4.33,4.33,0,0,1-1.48,1.72A4.52,4.52,0,0,1,243.2,102.21Zm0-2.08a1.53,1.53,0,0,0,1.26-.56,3.25,3.25,0,0,0,.61-1.34,8.2,8.2,0,0,0,.24-1.68V94.27c0-.27,0-.55,0-.84a7.92,7.92,0,0,0-.24-1.68,3,3,0,0,0-.61-1.36,1.61,1.61,0,0,0-1.24-.54,1.45,1.45,0,0,0-1.17.54,3.38,3.38,0,0,0-.63,1.36,7.37,7.37,0,0,0-.13.82c0,.28-.07.57-.1.86s0,.57,0,.84,0,.52,0,.76,0,.46,0,.71,0,.52,0,.81.06.58.1.86a7.37,7.37,0,0,0,.13.82,3.79,3.79,0,0,0,.63,1.34A1.39,1.39,0,0,0,243.19,100.13Z"/></g></svg>