<svg xmlns="http://www.w3.org/2000/svg" xmlns:xlink="http://www.w3.org/1999/xlink" width="363" height="363"><defs><circle id="a" cx="181.5" cy="181.5" r="181.5"/></defs><g fill="none" fill-rule="evenodd"><path fill="#FFF" fill-rule="nonzero" d="M181.5 357c96.926 0 175.5-78.574 175.5-175.5S278.426 6 181.5 6 6 84.574 6 181.5 84.574 357 181.5 357zm0 6C81.26 363 0 281.74 0 181.5S81.26 0 181.5 0 363 81.26 363 181.5 281.74 363 181.5 363z"/><mask id="b" fill="#fff"><use xlink:href="#a"/></mask><g mask="url(#b)" fill="#FFF" fill-rule="nonzero"><path d="M168.23 246l-6.23 2.013L167.95 267l6.05-2.587zm-25.865 14L138 264.692 148.42 274l6.58-2.714zm-14.969 26L126 292.276l8 1.724v-6.576zM126 315.475l1.919 6.525L139 318.185V311zM195.77 246L190 264.413l6.05 2.587 5.95-18.987zm25.865 14L209 271.286l6.579 2.714L226 264.692zm14.969 26L230 287.424V294l8-1.724zM225 311v7.185L236.081 322l1.919-6.525z"/><path d="M222.62 345.37v-11.68h-5.258v-30.807h5.258v-17.507L181.5 268l-41.12 17.376v17.507h5.258v30.807h-5.258v11.68H134V358h95v-12.63h-6.38zm-50.213-11.68h-8.583v-30.807h8.583v30.807zm26.77 0h-8.584v-30.807h8.583v30.807zM92.033 158H54.3c-2.686 0-4.872 2.173-4.872 4.841v3.092h-4.435c-2.686 0-4.872 2.173-4.872 4.842v50.268c0 2.669 2.186 4.842 4.872 4.842h37.734c2.686 0 4.872-2.173 4.872-4.842v-3.092h4.434c2.686 0 4.871-2.172 4.871-4.84v-50.27c0-2.668-2.185-4.841-4.871-4.841zM83.7 221.043a.974.974 0 0 1-.974.969H44.993a.974.974 0 0 1-.975-.969v-50.268c0-.534.438-.969.975-.969h4.435v43.304c0 2.668 2.186 4.841 4.872 4.841h29.4v3.092zm9.306-7.933a.973.973 0 0 1-.974.969H54.3a.973.973 0 0 1-.975-.969v-50.269c0-.533.437-.968.975-.968h37.732c.538 0 .975.435.975.968v50.27z"/><path d="M87.457 170.028H58.876a1.943 1.943 0 0 0-1.95 1.936c0 1.07.874 1.937 1.95 1.937h28.58a1.942 1.942 0 0 0 1.95-1.937 1.943 1.943 0 0 0-1.95-1.936zm0 9.217H58.876a1.943 1.943 0 0 0-1.95 1.937c0 1.07.874 1.936 1.95 1.936h28.58a1.942 1.942 0 0 0 1.95-1.936 1.943 1.943 0 0 0-1.95-1.937zm0 9.218H58.876a1.943 1.943 0 0 0-1.95 1.936c0 1.07.874 1.937 1.95 1.937h28.58a1.942 1.942 0 0 0 1.95-1.937 1.943 1.943 0 0 0-1.95-1.936zm0 9.217H58.876a1.943 1.943 0 0 0-1.95 1.937c0 1.07.874 1.936 1.95 1.936h28.58a1.942 1.942 0 0 0 1.95-1.936 1.943 1.943 0 0 0-1.95-1.937zM181.5 97c-16.817 0-30.5 13.683-30.5 30.5s13.683 30.5 30.5 30.5 30.5-13.683 30.5-30.5S198.317 97 181.5 97zm0 57.188c-14.716 0-26.688-11.97-26.688-26.688 0-14.716 11.972-26.688 26.688-26.688 14.718 0 26.688 11.972 26.688 26.688 0 14.718-11.97 26.688-26.688 26.688zm0-32.407a5.726 5.726 0 0 0-5.719 5.719 5.726 5.726 0 0 0 5.719 5.719 5.726 5.726 0 0 0 5.719-5.719 5.726 5.726 0 0 0-5.719-5.719zm0 7.625a1.907 1.907 0 1 1 .001-3.814 1.907 1.907 0 0 1-.001 3.814zm0 17.156c-10.511 0-19.063-8.55-19.063-19.062a1.905 1.905 0 0 0-1.906-1.906 1.905 1.905 0 0 0-1.906 1.906c0 12.614 10.261 22.875 22.875 22.875a1.905 1.905 0 0 0 1.906-1.906 1.905 1.905 0 0 0-1.906-1.906zm0-41.937a1.905 1.905 0 0 0-1.906 1.906c0 1.054.852 1.906 1.906 1.906 10.511 0 19.063 8.552 19.063 19.063 0 1.054.852 1.906 1.906 1.906a1.905 1.905 0 0 0 1.906-1.906c0-12.614-10.261-22.875-22.875-22.875z"/><path stroke="#FFF" stroke-width="2" d="M318.197 203.633H314.3v-6.908c0-1.66-1.369-3.01-3.05-3.01h-27.642L278.025 186h-20.974c-1.682 0-3.051 1.351-3.051 3.01v48.146h.007c-.006.62.19 1.227.583 1.735a2.856 2.856 0 0 0 2.274 1.109h49.981c1.291 0 2.428-.858 2.736-1.998L321 207.103v-.195c0-1.898-1.18-3.275-2.803-3.275zm-61.964-14.622c0-.445.368-.807.818-.807h19.824l5.583 7.714h28.79c.451 0 .818.362.818.807v6.908h-43.85c-.16 0-.32.013-.475.04-1.087.179-1.99.961-2.26 1.957l-9.248 24.891v-41.51zm51.22 48.325a.631.631 0 0 1-.608.46h-49.98a.619.619 0 0 1-.501-.245c-.07-.09-.179-.282-.137-.45l11.38-30.805a.631.631 0 0 1 .608-.46h49.982c.425 0 .533.602.56.903l-11.303 30.597z"/><g transform="translate(74 42)"><ellipse cx="32.97" cy="12.545" rx="2.806" ry="2.788"/><path d="M46.493 14.906c-.98-2.444-2.778-5.97-5.775-8.89-2.987-2.91-6.55-4.62-9.014-5.542C28.999-.538 25.926.1 23.874 2.1l-7.21 7.025c-2.137 2.082-2.753 5.286-1.532 7.973.378.833.79 1.648 1.23 2.436L.537 35.023A1.778 1.778 0 0 0 0 36.294v7.909C0 45.195.822 46 1.836 46h8.078c1.014 0 1.836-.805 1.836-1.797v-3.236h3.305c1.014 0 1.836-.804 1.836-1.797v-3.235h3.304c1.014 0 1.836-.805 1.836-1.797 0-.993-.822-1.798-1.836-1.798h-5.14c-1.014 0-1.836.805-1.836 1.798v3.235H9.914c-1.014 0-1.836.804-1.836 1.797v3.235H3.672V37.04l16.28-15.94a1.77 1.77 0 0 0 .272-2.204 28.874 28.874 0 0 1-1.737-3.26c-.606-1.334-.297-2.927.768-3.965l7.21-7.025a3.761 3.761 0 0 1 3.928-.815c2.132.798 5.204 2.266 7.734 4.732 2.546 2.48 4.096 5.532 4.948 7.656a3.515 3.515 0 0 1-.823 3.836l-7.296 7.11a3.755 3.755 0 0 1-4.04.771 24.028 24.028 0 0 1-3.305-1.65 1.859 1.859 0 0 0-2.525.591c-.53.846-.26 1.953.604 2.472a27.745 27.745 0 0 0 3.815 1.906c2.767 1.127 5.923.521 8.041-1.542l7.296-7.11c2.07-2.016 2.718-5.038 1.65-7.698z"/></g><g stroke="#FFF"><path d="M313.594 30.11a1.387 1.387 0 0 0 0-1.961L296.85 11.406a1.387 1.387 0 0 0-1.961 0 7.443 7.443 0 0 1-5.298 2.195 7.443 7.443 0 0 1-5.298-2.195 1.387 1.387 0 0 0-1.961 0l-38.927 38.927a1.387 1.387 0 0 0 0 1.961c2.921 2.921 2.921 7.675 0 10.596a1.387 1.387 0 0 0 0 1.961l16.743 16.743a1.387 1.387 0 0 0 1.96 0 7.443 7.443 0 0 1 5.299-2.195c2.001 0 3.883.78 5.298 2.195a1.387 1.387 0 0 0 1.96 0l38.928-38.927a1.387 1.387 0 0 0 0-1.961c-2.922-2.921-2.922-7.675 0-10.596zm-2.876 11.51L273.62 78.717a10.188 10.188 0 0 0-6.213-2.091c-2.274 0-4.436.734-6.213 2.091l-14.913-14.912a10.29 10.29 0 0 0 0-12.426l37.097-37.096a10.188 10.188 0 0 0 6.213 2.091 10.19 10.19 0 0 0 6.213-2.091l14.913 14.912a10.289 10.289 0 0 0 0 12.425z"/><path d="M301.139 28.063a4.183 4.183 0 0 0-1.216-2.986 4.188 4.188 0 0 0-2.942-1.216c-1.12 0-2.159.44-2.923 1.237l-2.77 2.892-1.081 1.145-11.87-3.616a1.386 1.386 0 0 0-1.384.346l-2.536 2.536a1.387 1.387 0 0 0 .264 2.168l8.962 5.408-3.197 3.357-3.143-.226a1.385 1.385 0 0 0-1.08.402l-2.135 2.135a1.387 1.387 0 0 0 .372 2.227l4.483 2.185 2.186 4.483a1.386 1.386 0 0 0 2.226.373l2.135-2.135c.285-.285.432-.68.403-1.08l-.226-3.144 3.356-3.196 5.408 8.961a1.387 1.387 0 0 0 2.168.264l2.537-2.536c.361-.362.494-.893.346-1.382l-3.594-11.877 4.014-3.846a4.01 4.01 0 0 0 1.237-2.879zm-3.156.876l-4.628 4.435c-.378.361-.52.903-.368 1.403l3.6 11.896-.696.697-5.386-8.924a1.387 1.387 0 0 0-2.144-.288l-5.081 4.839c-.3.286-.456.69-.427 1.104l.228 3.164-.312.312-1.543-3.164a1.387 1.387 0 0 0-.638-.64l-3.164-1.542.312-.312 3.164.228c.412.03.818-.127 1.104-.427l4.839-5.081a1.387 1.387 0 0 0-.288-2.144l-8.924-5.386.695-.695 11.895 3.624c.503.153 1.05.008 1.412-.375l1.664-1.762 2.764-2.885a1.26 1.26 0 0 1 .92-.382c.368 0 .725.147.981.404.26.26.407.623.403.995a1.26 1.26 0 0 1-.382.906zM260.99 48.322a1.387 1.387 0 0 0-1.962 0l-4.024 4.023a1.387 1.387 0 0 0 1.961 1.962l4.024-4.024a1.386 1.386 0 0 0 0-1.961zm2.837-2.843a1.387 1.387 0 0 0-1.961.006l-.024.023a1.387 1.387 0 1 0 1.967 1.955l.024-.023a1.387 1.387 0 0 0-.006-1.961zm3.925 3.925a1.387 1.387 0 0 0-1.962 0l-6.864 6.864a1.387 1.387 0 0 0 1.961 1.961l6.865-6.864a1.387 1.387 0 0 0 0-1.961zm3.922 3.922a1.387 1.387 0 0 0-1.961 0l-6.864 6.864a1.387 1.387 0 0 0 1.96 1.961l6.865-6.864a1.387 1.387 0 0 0 0-1.961zm3.922 3.922a1.387 1.387 0 0 0-1.961 0l-6.864 6.864a1.387 1.387 0 0 0 1.96 1.961l6.865-6.864a1.387 1.387 0 0 0 0-1.96zm-2.919 10.763a1.387 1.387 0 0 0-1.96 0l-.024.024a1.387 1.387 0 0 0 1.961 1.96l.023-.022a1.387 1.387 0 0 0 0-1.962zm6.841-6.841a1.387 1.387 0 0 0-1.96 0l-4.025 4.024a1.387 1.387 0 0 0 1.962 1.961l4.023-4.024a1.387 1.387 0 0 0 0-1.96z"/></g><path d="M52 238.5a1.5 1.5 0 0 1 3 0v18a1.5 1.5 0 0 1-3 0v-18zm115-72a1.5 1.5 0 0 1 3 0v12a1.5 1.5 0 0 1-3 0v-12zm101 91a1.5 1.5 0 0 1 3 0v12a1.5 1.5 0 0 1-3 0v-12zm2-166a1.5 1.5 0 0 1 3 0v12a1.5 1.5 0 0 1-3 0v-12zm-190 143a1.5 1.5 0 0 1 3 0v18a1.5 1.5 0 0 1-3 0v-18zm115-72a1.5 1.5 0 0 1 3 0v18a1.5 1.5 0 0 1-3 0v-18zm101 91a1.5 1.5 0 0 1 3 0v18a1.5 1.5 0 0 1-3 0v-18zm2-184a1.5 1.5 0 0 1 3 0v18a1.5 1.5 0 0 1-3 0v-18zm-181 8a1.5 1.5 0 0 1 3 0v18a1.5 1.5 0 0 1-3 0v-18zm-51 171a1.5 1.5 0 0 1 3 0v18a1.5 1.5 0 0 1-3 0v-18zm115-72a1.5 1.5 0 0 1 3 0v12.042a1.5 1.5 0 0 1-3 0V176.5zm101 91a1.5 1.5 0 0 1 3 0v12.042a1.5 1.5 0 0 1-3 0V267.5zm2-176a1.5 1.5 0 0 1 3 0v12.042a1.5 1.5 0 0 1-3 0V91.5zm-181-4a1.5 1.5 0 0 1 3 0v18a1.5 1.5 0 0 1-3 0v-18z"/></g></g></svg>