<svg xmlns="http://www.w3.org/2000/svg" xmlns:xlink="http://www.w3.org/1999/xlink" width="363" height="363"><defs><circle id="a" cx="181.5" cy="181.5" r="181.5"/></defs><g fill="none" fill-rule="evenodd"><path fill="#FFF" fill-rule="nonzero" d="M181.5 357c96.926 0 175.5-78.574 175.5-175.5S278.426 6 181.5 6 6 84.574 6 181.5 84.574 357 181.5 357zm0 6C81.26 363 0 281.74 0 181.5S81.26 0 181.5 0 363 81.26 363 181.5 281.74 363 181.5 363z"/><mask id="b" fill="#fff"><use xlink:href="#a"/></mask><g fill="#FFF" fill-rule="nonzero" mask="url(#b)"><path d="M259.88 158.314v33.245c0 .583.464 1.055.994 1.055.46 0 .96-.455 1.006-.933l3.293-34.818c.442-2.738 2.382-4.576 4.998-4.576 2.763 0 5.01 2.283 5.01 5.044v102.882c0 1.484 1.155 2.628 2.544 2.628h1.162c1.396 0 2.455-.995 2.553-2.472l4.464-54.015c.436-2.655 2.566-4.692 5.185-4.692 2.67 0 5.1 2.144 5.201 4.868l5.402 53.898c.194 1.476 1.545 2.604 2.763 2.439 1.36-.184 2.348-1.418 2.348-3.048V157.134c0-2.76 2.248-5.044 5.01-5.044 2.671 0 4.922 1.955 5.009 4.684l3.278 34.669c.059.54.49 1.06.973 1.216.587.04 1.032-.406 1.032-1.1v-34.117c.53-17.942-13.92-32.395-31.701-31.854-16.947.538-30.524 15.107-30.524 32.726zm30.434-35.605c19.37-.59 35.252 15.147 34.67 34.818v34.032c0 2.36-1.936 4.328-4.454 3.935-1.743-.394-3.1-1.968-3.293-3.738l-3.293-34.819c0-1.18-.968-1.967-2.13-1.967s-2.13.984-2.13 2.164V259.82c0 2.951-1.938 5.508-4.843 5.902-2.905.393-5.617-1.967-6.004-4.918l-5.424-54.097c0-1.18-1.162-2.164-2.324-2.164s-2.13.984-2.324 2.164l-4.455 53.9c-.194 2.951-2.518 5.115-5.423 5.115h-1.162c-2.906 0-5.424-2.36-5.424-5.508V157.33c0-1.18-.968-2.164-2.13-2.164s-1.937.787-2.13 1.967l-3.293 34.819c-.194 1.967-1.937 3.54-3.874 3.54-2.13 0-3.874-1.77-3.874-3.934v-33.245c0-19.081 14.72-35.015 33.314-35.605zm1.162-8.11c7.278 0 13.197-6.01 13.197-13.446 0-7.437-5.919-13.448-13.197-13.448-7.277 0-13.196 6.01-13.196 13.448 0 7.436 5.919 13.447 13.196 13.447zm0 2.88c-8.878 0-16.076-7.31-16.076-16.326 0-9.018 7.198-16.328 16.076-16.328 8.88 0 16.077 7.31 16.077 16.328 0 9.017-7.198 16.327-16.077 16.327zM43.88 158.314v33.245c0 .583.464 1.055.994 1.055.46 0 .96-.455 1.006-.933l3.293-34.818c.442-2.738 2.382-4.576 4.998-4.576 2.763 0 5.01 2.283 5.01 5.044v102.882c0 1.484 1.155 2.628 2.544 2.628h1.162c1.396 0 2.455-.995 2.553-2.472l4.464-54.015c.436-2.655 2.566-4.692 5.185-4.692 2.67 0 5.1 2.144 5.201 4.868l5.402 53.898c.194 1.476 1.545 2.604 2.763 2.439 1.36-.184 2.348-1.418 2.348-3.048V157.134c0-2.76 2.248-5.044 5.01-5.044 2.671 0 4.922 1.955 5.009 4.684l3.278 34.669c.059.54.49 1.06.973 1.216.587.04 1.032-.406 1.032-1.1v-34.117c.53-17.942-13.92-32.395-31.701-31.854-16.947.538-30.524 15.107-30.524 32.726zm30.434-35.605c19.37-.59 35.252 15.147 34.67 34.818v34.032c0 2.36-1.936 4.328-4.454 3.935-1.743-.394-3.1-1.968-3.293-3.738l-3.293-34.819c0-1.18-.968-1.967-2.13-1.967s-2.13.984-2.13 2.164V259.82c0 2.951-1.938 5.508-4.843 5.902-2.905.393-5.617-1.967-6.004-4.918l-5.424-54.097c0-1.18-1.162-2.164-2.324-2.164s-2.13.984-2.324 2.164l-4.455 53.9c-.194 2.951-2.518 5.115-5.423 5.115h-1.162c-2.906 0-5.424-2.36-5.424-5.508V157.33c0-1.18-.968-2.164-2.13-2.164s-1.937.787-2.13 1.967l-3.293 34.819c-.194 1.967-1.937 3.54-3.874 3.54-2.13 0-3.874-1.77-3.874-3.934v-33.245c0-19.081 14.72-35.015 33.314-35.605zm1.162-8.11c7.278 0 13.197-6.01 13.197-13.446 0-7.437-5.919-13.448-13.197-13.448-7.277 0-13.196 6.01-13.196 13.448 0 7.436 5.919 13.447 13.196 13.447zm0 2.88c-8.878 0-16.076-7.31-16.076-16.326 0-9.018 7.198-16.328 16.076-16.328 8.88 0 16.077 7.31 16.077 16.328 0 9.017-7.198 16.327-16.077 16.327z"/><path d="M142.21 120.492c-5.417 7.414-8.86 13.963-10.33 19.647-1.061 4.109-2.114 10.708-2.114 17.692 0 16.039-.385 40.625 0 47.397.375 6.614 2.576 10.87 11.516 10.87 1.412 0 2.951-.626 4.617-1.877v72.173c0 3.669-2.415 6.849-6.038 7.338-3.624.489-7.005-2.446-7.488-6.115l-6.763-67.262c0-1.467-1.45-2.69-2.899-2.69-1.45 0-2.657 1.223-2.898 2.69l-5.556 67.018c-.241 3.668-3.14 6.359-6.763 6.359h-1.45c-3.622 0-6.762-2.935-6.762-6.849v-127.92c0-1.467-1.208-2.69-2.657-2.69-1.45 0-2.416.979-2.657 2.446l-4.106 43.292c-.242 2.446-2.416 4.403-4.831 4.403-2.657 0-4.831-2.201-4.831-4.892v-41.335c0-23.725 18.357-43.537 41.545-44.27 7.382-.225 14.357 1.447 20.465 4.575zm22.77 64.19v16.84c0 2.935-2.415 5.381-5.555 4.892-2.159-.486-2.091-4.454-2.327-6.664 2.463-4.21 5.09-9.232 7.883-15.068zm-41.786-75.267c-11.072 0-20.048-9.09-20.048-20.301 0-11.212 8.976-20.301 20.048-20.301 11.072 0 20.048 9.089 20.048 20.3 0 11.213-8.976 20.302-20.048 20.302zm100.576 11.077c5.418 7.414 8.86 13.963 10.33 19.647 1.062 4.109 2.115 10.708 2.115 17.692 0 16.039.385 40.625 0 47.397-.375 6.614-2.576 10.87-11.516 10.87-1.413 0-2.952-.626-4.617-1.877v72.173c0 3.669 2.415 6.849 6.038 7.338 3.623.489 7.005-2.446 7.488-6.115l6.763-67.262c0-1.467 1.45-2.69 2.899-2.69s2.657 1.223 2.898 2.69l5.556 67.018c.241 3.668 3.14 6.359 6.763 6.359h1.449c3.623 0 6.763-2.935 6.763-6.849v-127.92c0-1.467 1.208-2.69 2.657-2.69 1.45 0 2.415.979 2.657 2.446l4.106 43.292c.242 2.446 2.416 4.403 4.83 4.403 2.658 0 4.832-2.201 4.832-4.892v-41.335c0-23.725-18.357-43.537-41.545-44.27-7.382-.225-14.358 1.447-20.465 4.575zM201 184.682v16.84c0 2.935 2.415 5.381 5.555 4.892 2.174-.49 1.34-2.69 1.582-4.892l.372-2.415c-2.355-4.075-4.858-8.883-7.509-14.425zm41.787-75.267c11.072 0 20.047-9.09 20.047-20.301 0-11.212-8.975-20.301-20.047-20.301-11.073 0-20.048 9.089-20.048 20.3 0 11.213 8.975 20.302 20.048 20.302z"/><path d="M181.875 106.963c27.871-.847 50.725 21.749 49.889 49.994v48.865c0 3.39-2.787 6.214-6.41 5.649-2.509-.565-4.46-2.825-4.738-5.367l-4.738-49.994c0-1.695-1.394-2.825-3.066-2.825s-3.066 1.413-3.066 3.107v147.441c0 4.237-2.787 7.909-6.968 8.474-4.18.565-8.082-2.825-8.64-7.062l-7.803-77.674c0-1.695-1.673-3.107-3.345-3.107-1.672 0-3.066 1.412-3.344 3.107l-6.41 77.392c-.28 4.237-3.624 7.344-7.804 7.344h-1.673c-4.18 0-7.803-3.39-7.803-7.91V156.676c0-1.695-1.394-3.107-3.066-3.107s-2.787 1.13-3.066 2.824l-4.738 49.995c-.279 2.824-2.787 5.084-5.574 5.084-3.066 0-5.574-2.542-5.574-5.65v-47.734c0-27.398 21.182-50.277 47.937-51.124zm1.673-7.508c-12.776 0-23.133-10.496-23.133-23.444 0-12.947 10.357-23.443 23.133-23.443 12.775 0 23.132 10.496 23.132 23.443 0 12.948-10.357 23.444-23.132 23.444z"/></g></g></svg>