<svg xmlns="http://www.w3.org/2000/svg" width="238" height="862"><g fill="#FFF" fill-rule="evenodd"><path d="M93.394 851.06V861h-1.918v-4.242h-4.508V861h-1.932v-9.94h1.932v4.018h4.508v-4.018h1.918zm5.18 10.08a4.027 4.027 0 0 1-1.61-.308 3.616 3.616 0 0 1-1.211-.833 3.677 3.677 0 0 1-.763-1.211 3.954 3.954 0 0 1-.266-1.442c0-.513.089-.999.266-1.456a3.68 3.68 0 0 1 .763-1.211c.331-.35.735-.628 1.211-.833a4.027 4.027 0 0 1 1.61-.308c.597 0 1.132.103 1.603.308.471.205.873.483 1.204.833.331.35.586.754.763 1.211.177.457.266.943.266 1.456 0 .504-.089.985-.266 1.442-.177.457-.43.861-.756 1.211a3.54 3.54 0 0 1-1.204.833 4.027 4.027 0 0 1-1.61.308zm-1.918-3.794c0 .327.049.623.147.889.098.266.233.497.406.693a1.787 1.787 0 0 0 1.365.616 1.787 1.787 0 0 0 1.365-.616c.173-.196.308-.43.406-.7.098-.27.147-.57.147-.896 0-.317-.049-.611-.147-.882a2.157 2.157 0 0 0-.406-.7 1.787 1.787 0 0 0-1.365-.616c-.27 0-.523.056-.756.168a1.9 1.9 0 0 0-.609.462c-.173.196-.308.43-.406.7a2.57 2.57 0 0 0-.147.882zm11.312 3.276c-.252.112-.56.224-.924.336a3.882 3.882 0 0 1-1.148.168 2.68 2.68 0 0 1-.735-.098 1.616 1.616 0 0 1-.602-.315 1.538 1.538 0 0 1-.413-.56 2.027 2.027 0 0 1-.154-.833v-4.214h-.966v-1.442h.966v-2.38h1.876v2.38h1.54v1.442h-1.54v3.584c0 .261.068.446.203.553a.775.775 0 0 0 .497.161c.196 0 .387-.033.574-.098.187-.065.336-.121.448-.168l.378 1.484zm4.2.518c-.588 0-1.12-.1-1.596-.301a3.66 3.66 0 0 1-1.218-.819 3.635 3.635 0 0 1-.777-1.204 3.864 3.864 0 0 1-.273-1.442c0-.523.089-1.015.266-1.477.177-.462.434-.868.77-1.218s.744-.628 1.225-.833a4.078 4.078 0 0 1 1.617-.308c.597 0 1.132.103 1.603.308.471.205.873.48 1.204.826.331.345.583.747.756 1.204a4 4 0 0 1 .259 1.428c0 .121-.002.238-.007.35a1.424 1.424 0 0 1-.035.28h-5.67c.028.29.098.546.21.77a1.903 1.903 0 0 0 1.736 1.064c.373 0 .726-.091 1.057-.273.331-.182.558-.422.679-.721l1.61.448c-.27.56-.702 1.02-1.295 1.379-.593.36-1.3.539-2.121.539zm1.904-4.424c-.047-.55-.25-.992-.609-1.323a1.861 1.861 0 0 0-1.309-.497 1.868 1.868 0 0 0-1.288.504c-.168.159-.306.35-.413.574-.107.224-.17.471-.189.742h3.808zm3.066-5.936h1.876v7.868c0 .27.065.48.196.63.13.15.317.224.56.224.112 0 .236-.019.371-.056a2.51 2.51 0 0 0 .385-.14l.252 1.428a3.628 3.628 0 0 1-.882.28c-.336.065-.64.098-.91.098-.588 0-1.043-.156-1.365-.469-.322-.313-.483-.758-.483-1.337v-8.526zm7.56 10.22v-9.94h4.214c.457 0 .88.096 1.267.287.387.191.721.443 1.001.756.28.313.5.667.658 1.064a3.2 3.2 0 0 1 .238 1.197c0 .42-.075.828-.224 1.225-.15.397-.36.749-.63 1.057-.27.308-.597.555-.98.742-.383.187-.803.28-1.26.28h-2.352V861h-1.932zm1.932-5.026h2.24c.355 0 .651-.145.889-.434.238-.29.357-.681.357-1.176a1.93 1.93 0 0 0-.112-.679 1.65 1.65 0 0 0-.294-.511 1.17 1.17 0 0 0-.427-.315 1.251 1.251 0 0 0-.497-.105h-2.156v3.22zM141.526 861v-6.58l-2.562 4.9h-1.05l-2.562-4.9V861h-1.932v-9.94h2.072l2.94 5.656 2.968-5.656h2.058V861h-1.932zm9.926-7.336a2.388 2.388 0 0 0-.357-.266 4.338 4.338 0 0 0-.63-.329 5.426 5.426 0 0 0-.805-.273 3.516 3.516 0 0 0-.882-.112c-.532 0-.929.098-1.19.294-.261.196-.392.471-.392.826 0 .205.049.376.147.511.098.135.24.254.427.357.187.103.422.196.707.28.285.084.614.173.987.266.485.13.926.27 1.323.42.397.15.733.336 1.008.56.275.224.488.492.637.805.15.313.224.698.224 1.155 0 .532-.1.987-.301 1.365-.2.378-.471.684-.812.917a3.53 3.53 0 0 1-1.176.511 5.9 5.9 0 0 1-1.393.161 7.482 7.482 0 0 1-2.212-.336 6.83 6.83 0 0 1-1.96-.952l.854-1.666c.084.084.236.194.455.329.22.135.478.27.777.406.299.135.63.25.994.343.364.093.737.14 1.12.14 1.064 0 1.596-.34 1.596-1.022a.838.838 0 0 0-.182-.546 1.544 1.544 0 0 0-.518-.392 4.958 4.958 0 0 0-.812-.308 144.08 144.08 0 0 0-1.064-.308 9.046 9.046 0 0 1-1.239-.427 3.257 3.257 0 0 1-.875-.546 2.046 2.046 0 0 1-.525-.728c-.117-.275-.175-.604-.175-.987 0-.504.093-.952.28-1.344a2.72 2.72 0 0 1 .777-.98 3.52 3.52 0 0 1 1.155-.595c.439-.135.91-.203 1.414-.203.7 0 1.344.11 1.932.329.588.22 1.101.478 1.54.777l-.854 1.568z"/><path d="M91.321 828h55.358c.995 0 1.8-.802 1.8-1.792v-.686c0-.989-.804-1.79-1.8-1.79h-2.085V779.32c0-2.765-2.149-5.005-4.8-5.005H98.208c-2.65 0-4.8 2.24-4.8 5.005v44.412H91.32c-.994 0-1.8.801-1.8 1.791v.686c0 .987.805 1.791 1.8 1.791zm36.516-46.593h9.296v6.533h-9.296v-6.533zm0 11.597h9.296v6.532h-9.296v-6.532zm0 11.597h9.296v6.53h-9.296v-6.53zm-13.57-22.906h9.112v6.404h-9.112v-6.404zm0 11.383h9.112v6.405h-9.112v-6.405zm0 11.385h9.112v13.406h-9.112v-13.406zm-13.4-22.768h9.113v6.404h-9.113v-6.404zm0 11.383h9.113v6.405h-9.113v-6.405zm0 11.385h9.113v6.401h-9.113v-6.401zm11.696-36.942c.118-.119.078-.238-.089-.263l-2.543-.388a.637.637 0 0 1-.432-.321l-1.149-2.435c-.072-.152-.189-.152-.26 0l-1.15 2.435a.639.639 0 0 1-.431.321l-2.543.388c-.168.024-.208.143-.09.263l1.851 1.888a.68.68 0 0 1 .165.52l-.44 2.68c-.026.165.072.234.22.153l2.28-1.256a.616.616 0 0 1 .535 0l2.28 1.256c.149.081.246.014.22-.153l-.44-2.68a.68.68 0 0 1 .166-.52l1.85-1.888zm10.717 0c.12-.119.078-.238-.09-.263l-2.54-.388a.64.64 0 0 1-.432-.321l-1.149-2.435c-.071-.152-.188-.152-.258 0l-1.149 2.435a.644.644 0 0 1-.433.321l-2.543.388c-.167.024-.207.143-.088.263l1.85 1.888a.685.685 0 0 1 .164.52l-.44 2.68c-.025.165.072.234.22.153l2.28-1.256a.616.616 0 0 1 .536 0l2.28 1.256c.147.081.244.014.218-.153l-.439-2.68a.67.67 0 0 1 .165-.52l1.848-1.888zm10.844.071c.119-.12.077-.238-.09-.264l-2.604-.397a.635.635 0 0 1-.433-.322l-1.176-2.495c-.072-.151-.189-.151-.26 0l-1.176 2.495a.65.65 0 0 1-.433.322l-2.606.397c-.167.025-.208.144-.09.264l1.897 1.935c.118.12.19.353.163.519l-.448 2.745c-.027.167.07.236.217.154l2.337-1.286a.617.617 0 0 1 .537 0l2.335 1.286c.149.082.246.013.22-.154l-.451-2.745a.677.677 0 0 1 .166-.519l1.895-1.935z" fill-rule="nonzero"/><path d="M104.843 739.814l-5.657-5.657 1.415-1.414 4.242 4.242 4.243-4.242 1.414 1.414z"/><path fill-rule="nonzero" d="M103 215h2v215h-2zm1 310h2v213h-2z"/><path d="M86.169 267.775c-.103.616-.383 1.108-.84 1.477-.457.369-1.022.553-1.694.553-.42 0-.805-.077-1.155-.231a2.511 2.511 0 0 1-.896-.658 3.03 3.03 0 0 1-.574-1.022 4.078 4.078 0 0 1-.203-1.323c0-.71.142-1.33.427-1.862a2.86 2.86 0 0 1 1.183-1.204l.602.658c-.41.196-.737.495-.98.896s-.364.905-.364 1.512c0 .7.17 1.25.511 1.652.34.401.828.602 1.463.602.644 0 1.153-.21 1.526-.63.373-.42.56-1.027.56-1.82v-.35h.812v.378c0 .719.166 1.27.497 1.652.331.383.763.574 1.295.574a1.7 1.7 0 0 0 .742-.154c.215-.103.394-.245.539-.427a1.91 1.91 0 0 0 .329-.644c.075-.247.112-.516.112-.805 0-.532-.119-1.001-.357-1.407a2.284 2.284 0 0 0-.987-.917l.588-.616c.243.112.464.27.665.476.2.205.371.439.511.7a3.991 3.991 0 0 1 .448 1.848c0 .43-.06.824-.182 1.183-.121.36-.292.67-.511.931a2.294 2.294 0 0 1-1.813.826c-.28 0-.548-.042-.805-.126a2.197 2.197 0 0 1-.686-.364 2.089 2.089 0 0 1-.504-.581 2.014 2.014 0 0 1-.259-.777zm-3.304 3.584h1.372v.826h-1.372v-.826zm0 6.552h9.94v4.116c0 .43-.091.824-.273 1.183-.182.36-.42.67-.714.931a3.388 3.388 0 0 1-1.001.616 3.03 3.03 0 0 1-1.134.224c-.41 0-.805-.07-1.183-.21a3.201 3.201 0 0 1-1.001-.588 2.957 2.957 0 0 1-.7-.903 2.55 2.55 0 0 1-.266-1.169v-3.22h-3.668v-.98zm4.536.98v3.178c0 .29.063.553.189.791s.294.441.504.609c.21.168.453.299.728.392.275.093.562.14.861.14.308 0 .6-.054.875-.161a2.37 2.37 0 0 0 .721-.434c.205-.182.366-.397.483-.644a1.8 1.8 0 0 0 .175-.777v-3.094h-4.536zm-4.676 9.814c0-.793.264-1.384.791-1.771s1.314-.581 2.359-.581h4.284v.952h-4.116c-1.652 0-2.478.565-2.478 1.694a2.595 2.595 0 0 0 .546 1.575c.177.229.387.434.63.616s.518.329.826.441h4.592v.952h-6.062c-.261 0-.392.112-.392.336h-.84a1.735 1.735 0 0 1-.028-.273v-.147a.76.76 0 0 1 .238-.546c.15-.14.35-.21.602-.21h.84a3.395 3.395 0 0 1-1.323-1.295 3.452 3.452 0 0 1-.469-1.743zm6.594 9.674c-.019-.644-.196-1.204-.532-1.68a2.683 2.683 0 0 0-1.386-1.008h-4.536v-.952h7.294v.896h-1.75c.56.27.999.635 1.316 1.092.317.457.476.947.476 1.47a.96.96 0 0 1-.014.182h-.868zm-2.786.406c.513 0 .999.089 1.456.266.457.177.856.427 1.197.749a3.5 3.5 0 0 1 .805 1.155c.196.448.294.943.294 1.484 0 .69-.156 1.293-.469 1.806a3.02 3.02 0 0 1-1.267 1.162l-.294-.924c.373-.205.665-.492.875-.861.21-.369.315-.777.315-1.225 0-.373-.075-.721-.224-1.043a2.66 2.66 0 0 0-.609-.84 2.8 2.8 0 0 0-.917-.56 3.233 3.233 0 0 0-1.162-.203c-.41 0-.798.07-1.162.21-.364.14-.679.331-.945.574a2.733 2.733 0 0 0-.63.847 2.355 2.355 0 0 0-.231 1.029 2.677 2.677 0 0 0 .371 1.33c.117.196.25.364.399.504.15.14.308.238.476.294l-.28.938a2.386 2.386 0 0 1-.721-.448 3.09 3.09 0 0 1-.574-.693 3.4 3.4 0 0 1-.378-.882 3.753 3.753 0 0 1-.133-1.001 3.555 3.555 0 0 1 1.127-2.632c.35-.327.754-.581 1.211-.763a3.939 3.939 0 0 1 1.47-.273zm-3.668 14.322v-.952h4.074c.83 0 1.451-.142 1.862-.427.41-.285.616-.702.616-1.253 0-.27-.054-.539-.161-.805a3.03 3.03 0 0 0-1.099-1.358 2.785 2.785 0 0 0-.826-.385h-4.466v-.952h10.22v.952h-4.578c.55.29.985.69 1.302 1.204a3.11 3.11 0 0 1 .476 1.666c0 .42-.077.775-.231 1.064a1.97 1.97 0 0 1-.644.714 2.817 2.817 0 0 1-.994.406 6.052 6.052 0 0 1-1.281.126h-4.27zm-.14 3.864c0-.345.058-.665.175-.959a2.42 2.42 0 0 1 .483-.77 2.184 2.184 0 0 1 1.61-.693c.317 0 .611.075.882.224.27.15.504.36.7.63.196.27.348.593.455.966.107.373.161.784.161 1.232 0 .373-.033.751-.098 1.134a4.915 4.915 0 0 1-.28 1.022h.658c.644 0 1.155-.182 1.533-.546.378-.364.567-.868.567-1.512 0-.373-.075-.756-.224-1.148a5.536 5.536 0 0 0-.644-1.19l.63-.336c.635.943.952 1.857.952 2.744 0 .915-.257 1.633-.77 2.156-.513.523-1.223.784-2.128.784h-3.29c-.261 0-.392.117-.392.35h-.84a2.27 2.27 0 0 1-.042-.364c0-.243.06-.432.182-.567a.685.685 0 0 1 .504-.217l.574-.028a3.308 3.308 0 0 1-1.008-1.267 3.898 3.898 0 0 1-.35-1.645zm.728.224c0 .495.093.95.28 1.365.187.415.434.73.742.945a.872.872 0 0 0 .273.189.697.697 0 0 0 .273.063h1.19c.121-.317.215-.646.28-.987.065-.34.098-.688.098-1.043 0-.672-.14-1.218-.42-1.638-.28-.42-.649-.63-1.106-.63a1.51 1.51 0 0 0-.63.133c-.196.089-.366.21-.511.364a1.705 1.705 0 0 0-.343.553 1.866 1.866 0 0 0-.126.686zm-.728 7.994c0-.57.093-1.125.28-1.666a4.004 4.004 0 0 1 .812-1.4l.644.434a4.73 4.73 0 0 0-.756 1.253 3.68 3.68 0 0 0-.252 1.365c0 .588.119 1.057.357 1.407.238.35.576.525 1.015.525a.88.88 0 0 0 .511-.14c.135-.093.254-.231.357-.413.103-.182.194-.41.273-.686.08-.275.161-.595.245-.959.103-.42.205-.784.308-1.092a3.34 3.34 0 0 1 .35-.763c.13-.2.292-.35.483-.448.191-.098.432-.147.721-.147.364 0 .686.072.966.217.28.145.511.34.693.588.182.247.32.537.413.868.093.331.14.684.14 1.057 0 .56-.091 1.069-.273 1.526-.182.457-.422.826-.721 1.106l-.56-.462c.28-.27.49-.6.63-.987s.21-.791.21-1.211c0-.252-.026-.485-.077-.7a1.685 1.685 0 0 0-.245-.567 1.207 1.207 0 0 0-.427-.385 1.262 1.262 0 0 0-.609-.14c-.196 0-.355.033-.476.098a.836.836 0 0 0-.315.322c-.089.15-.168.338-.238.567-.07.229-.142.506-.217.833-.112.467-.224.877-.336 1.232a3.87 3.87 0 0 1-.392.889c-.15.238-.331.418-.546.539a1.571 1.571 0 0 1-.784.182c-.672 0-1.204-.257-1.596-.77-.392-.513-.588-1.204-.588-2.072zm0 7.546a3.507 3.507 0 0 1 1.127-2.618c.35-.327.754-.581 1.211-.763a3.939 3.939 0 0 1 1.47-.273c.513 0 .996.091 1.449.273.453.182.85.434 1.19.756.34.322.611.707.812 1.155.2.448.301.933.301 1.456a3.478 3.478 0 0 1-1.12 2.604 3.844 3.844 0 0 1-2.618 1.008h-.224a.563.563 0 0 1-.154-.014v-6.244a3.07 3.07 0 0 0-1.085.273 2.982 2.982 0 0 0-.861.595c-.243.243-.432.52-.567.833a2.493 2.493 0 0 0-.203 1.001 2.821 2.821 0 0 0 .364 1.344c.112.196.25.373.413.532.163.159.343.28.539.364l-.224.826a2.426 2.426 0 0 1-.735-.476 3.323 3.323 0 0 1-.574-.714c-.163-.27-.29-.57-.378-.896a3.884 3.884 0 0 1-.133-1.022zm4.172 2.688a2.946 2.946 0 0 0 1.904-.861 2.6 2.6 0 0 0 .742-1.827 2.621 2.621 0 0 0-.742-1.841 2.683 2.683 0 0 0-.84-.574 3.18 3.18 0 0 0-1.064-.259v5.362z" opacity=".3"/><path d="M119.449 424h.037c29.548.01 53.504 23.955 53.514 53.5 0 29.533-23.938 53.48-53.48 53.5h-.073C90.53 530.98 66.972 508.029 66 479.343v-3.687c.972-28.677 24.522-51.637 53.449-51.656zm33.595 25.077l6.255 1.063a48.44 48.44 0 0 0-4.332-5.413l-1.923 4.35zm10.662 8.943l-.002.002a48.255 48.255 0 0 0-2.792-5.385l-2.756 3.63 5.55 1.753zm1.74 4.551a48.754 48.754 0 0 0-.72-2.05l-7.266-2.295-.052 5.678.348 3.798 7.69-5.13zm1.83 7.798a47.992 47.992 0 0 0-1.208-5.716l-6.474 4.32 7.681 1.396zm.525 7.131c0-1.66-.084-3.32-.253-4.97l-9.508-1.729.273 2.976v.004l.282 3.072 9.196 1.403c.004-.252.01-.503.01-.756zm-.425 6.417c.156-1.178.27-2.37.34-3.572l-9.551-1.455-2.619 4.295 4.958 4.731 6.872-4zm-1.982 8.667a48.044 48.044 0 0 0 1.552-6.012l-4.877 2.84 3.325 3.172zm-3.065 7.256a47.967 47.967 0 0 0 2.303-5.11l-4.432-4.23-5.586 3.253 7.715 6.087zm-41.844 25.953h-.003a48.34 48.34 0 0 0 40.83-24.107l-2.677-2.11-7.814 5.687a1.04 1.04 0 0 1-1.403-.167l-5.022-5.912-6.027 3.56-.01.004-5.413 3.136a1.04 1.04 0 0 1-1.183-.096l-5.285-4.346-5.993 9.249v15.102zm-1.074-17.266l5.184-7.992-5.41-1.449c-.01-.002-.018-.008-.027-.011a.953.953 0 0 1-.118-.051 1.06 1.06 0 0 1-.164-.085 1.006 1.006 0 0 1-.097-.08 1.002 1.002 0 0 1-.13-.13 1.086 1.086 0 0 1-.158-.279c-.009-.022-.024-.04-.032-.063l-1.951-6.348-4.527 5.907 7.43 10.58zm-1.005 17.265h-.003v-15.08l-7.76-11.048-4.084 5.232a1.04 1.04 0 0 1-1.187.333l-11.722-4.41-4.567 3.229c-.01.007-.02.009-.03.015a1.02 1.02 0 0 1-.237.117c-.009.004-.017.011-.027.011a.997.997 0 0 1-.22.044l-8.889.742a48.306 48.306 0 0 0 38.726 20.815zm-40.465-23.51h-.003c.145.241.293.48.442.721l8.356-.698-4.157-6.906-1.74.88-2.898 6.002zm-4.612-10.245h-.003a48.02 48.02 0 0 0 3.371 8.039l2.04-4.224-5.408-3.815zm-1.256-4.846h-.003c.113.565.243 1.126.378 1.684l7.697 5.426 4.383-2.216-2.75-5.124-2.063-2.55-7.642 2.78zm-.945-8.11h-.003c.065 2.022.257 4.037.575 6.035l6.632-2.413-3.573-4.415-3.631.793zm.623-9.524a48.467 48.467 0 0 0-.647 7.402l8.396-1.833L76.614 469l-4.863.556zm1.756-7.15a47.841 47.841 0 0 0-1.353 5.013l3.525-.402-2.172-4.61zm2.13-5.36h-.002a46.044 46.044 0 0 0-1.128 2.605l3.355 7.116 8.403-.96-1.13-2.298-9.498-6.463zm9.795-13.873a48.493 48.493 0 0 0-8.12 10.626l7.47-3.51 2.671-6.978-2.02-.138zm7.097-5.804v-.001a48.587 48.587 0 0 0-5.018 3.865l8.713.597-3.695-4.46zm7.28-4.02a48.14 48.14 0 0 0-5.516 2.891l4.083 4.929 2.602-4.935-1.168-2.885zm10.137-3.22a48.023 48.023 0 0 0-8.22 2.412l1.035 2.557 4.737-.98 2.448-3.99zm3.889-.61c-.391.046-.78.095-1.168.15l-3.266 5.324 4.132 5.65 4.87.431v-7.196l-4.568-4.359zm5.614-.326c-.964 0-1.919.032-2.869.087l3.154 2.996 4.495-2.848a48.312 48.312 0 0 0-4.78-.235zm14.271 2.14a48.03 48.03 0 0 0-6.28-1.48l-5.17 3.277 10.57 2.896.88-4.693zm10.06 11.78l-9.851-4.518-3.601 4.15 7.01 3.914 6.442-3.545zM135.712 432l-.887 4.723 9.364 4.296-2.324-6.325a48.106 48.106 0 0 0-6.153-2.694zm19.893 24.183l3.07-4.041-6.694-1.138-4.395 5.616 7.762 5.356.05-5.176v-.021c.002-.07.01-.14.027-.208v-.012a1.03 1.03 0 0 1 .08-.211c.01-.022.024-.04.036-.061.02-.036.04-.07.064-.104zm-2.263 26.622l3.229-5.29-.214-2.323-5.923 1.668c-.007.003-.012 0-.023.003-.01.003-.02.011-.032.011l-4.185.935 3.358 4.773.01.017c.018.031.036.063.052.096.016.03.033.059.046.09.002.005.007.009.007.014l1.445 3.666 2.23-3.656v-.004zm-1.28 6.09l1.24 3.213 5.331-3.105-4.195-4.004-2.375 3.896zm-3.41 7.537l-2.481 1.633 4.204 4.95 6.564-4.779-4.338-3.423-3.949 1.62zm-8.273-4.638l-1.195 8.05 4.884-2.884 2.182-1.435-5.871-3.73zm-1.96-41.678l9.366 2.875 2.434-3.11-4.398-5.518-7.436 4.091.035 1.662zm6.866 6.07l1.13-1.443-7.98-2.448v4.158l3.333 3.763 3.517-4.03zm-4.38 12.863l13.28-5.346-7.924-5.474-3.546 4.062-1.81 6.758zm1.056 1.818l8.277 3.891 5.923-1.667-.704-7.658-13.496 5.434zm2.259 5.257l.006-.002 2.73-.61-6.555-3.081v4.545l3.819-.852zm3.872 8.362l-7.645 2.625.142 2.358 7.677 4.877 3.167-1.298-1.496-3.882-1.845-4.68zm-7.69.443l6.649-2.28-3.059-4.347-3.59.802v5.825zm-6.676-23.58l5.194 7.083 1.705-6.367-3.778-4.266-4.203-.866 1.082 4.415zm-4.624 29.251l9.388-1.42-.127-2.098-8.728-3.84-.533 7.358zm1.666 1.85l6.366 7.067 1.216-8.216-7.582 1.148zm-2.234.623l-6.646 4.588 4.621 1.237.01.005c.074.02.145.048.212.084.016.009.03.02.045.03a1 1 0 0 1 .125.083l5.627 4.627 3.682-2.132-7.676-8.522zm-1.022-9.298l-9.391 6.456 1.903 6.19 6.916-4.778.572-7.868zm-10.456-4.81v5.432l.606 3.628 5.344-3.674-5.95-5.385zm-2.928-11.951l2.633 8.498 4.277-.388-3.663-8.11h-3.247zm-7.26 20.838l8.79.798-.667-3.997a1.048 1.048 0 0 1-.014-.17v-.346l-7.78.074-.33 3.641zm-2.558 5.804l6.069 2.955 4.553-5.942-8.602-.78-2.02 3.767zm-6.198-.684l-2.92 6.21 10.197 3.835 3.689-4.726-6.65-3.241-4.316-2.078zm-3.882-2.96l-7.843 3.46-1.95.987 4.36 7.248 4.1-2.899.26-.182 3.186-6.775-2.113-1.84zm-9.025-5.448l-1.34 1.896 2.541 4.734 5.738-2.533-6.939-4.097zm-3.954-7.696c-.011.002-.021.01-.032.014l-4.19.914 5.56 6.87 5.08-7.19-.186-2.326-6.21 1.718h-.022zm6.063-3.83l-.417-5.21-8.102.926 2.769 5.875 5.75-1.59zm3.927-20.625l-5.433-.309-8.13 3.82 7.955 5.413 3.741-6.048a.046.046 0 0 1 .007-.009c.002-.003.005-.007.005-.01l1.855-2.857zm1.295-2.013l4.192-6.46-7.114-.486-2.54 6.634 5.462.312zm16.142-2.673l-9.683-3.446-4.024 6.2h10.618l3.09-2.754zm1.407-1.705l1.699-4.243-4.087-5.587-4.89 1.012-2.766 5.246 10.044 3.572zm3.564 7.877l-3.188-4.979-3.436 3.065v4.76l6.224-.425.4-2.421zm6.907-.851l-1.987-9.876-4.928-.437-1.797 4.491 3.49 5.45 5.222.372zm7.704-11.104l3.519-4.05-11.305-3.098v6.458l7.786.69zm-1.072 12.068l4.42-8.17-3.224-1.8-7.655-.679 1.997 9.925 2.708.5 1.754.224zm4.257.546l4.904 1.012v-4.675l-.052-2.435-2.874-1.604-4.025 7.438 1.967.251c.01.001.01.003.028.008.018.005.035.002.052.005zm-8.502 22.433l.007.006a1.014 1.014 0 0 1-.27.064l-4.209.383 6.288 5.692 2.898-1.993v-6.032l-4.692 1.875c-.007.005-.015.005-.022.005zm2.12-9.402l-5.351-.438 3.405 7.538 4.213-1.684-2.267-5.416zm.727-11.659l-5.931 9.149 5.636.46 6.084-4.198-1.182-4.823-4.607-.588zm-8.313 9.003l6.08-9.377-1.84-.341-6.101-.435-1.676 10.153h3.537zm-16.031 18.329l3.992-.96 1.507-4.484-5.768-5.265-2.411 5.782 2.68 4.927zm-.11 2.163l-5.217 3.474 2.072 1.802 4.242 2.043 2.286-4.26.358-3.958-3.74.9zm-12.093-6.586l-2.838 4.018 7.972 4.706 5.169-3.442-2.573-4.73-7.73-.552zm8.837-16.842l-7.492-4.728-3.46 5.591 1.524 3.095 4.41-.125 5.018-3.833zm6.869-4.694v.001-4.743H93.876l-.247-.014-1.929 2.97 8.183 5.163 5.066-3.377zm-2.618 4.24l6.109 1.788.061.02 3.39 1.22 1.015-6.144-6.57.45-4.005 2.666zm-6.988 5.16l5.298 2.83 5.399-4.742-5.928-1.73-4.77 3.643zm-6.347 1.32l.702 8.765 7.244.517 2.521-6.045-6.282-3.355-4.185.119zm25.979 9.76l-6.052.683-1.229 3.659 7.28-.07v-4.272zm-6.475-1.36l6.15-.695-2.774-8.955-3.503-1.263-6.027 5.294 6.154 5.618zm29.823-.884l-8.578-.815v6.292l8.578 3.775v-9.252zm-8.9-2.934l8.901.848v-2.32l-5.797-7.912-5.456 3.763 2.353 5.621zm23.984-29.49a48.568 48.568 0 0 0-8.711-6.818l2.305 6.211 4.292 5.386 2.114-4.778zm-17.564-36.301l-5.657-5.657 1.415-1.414 4.242 4.242 4.243-4.242 1.414 1.414z"/><path fill-rule="nonzero" d="M135 215h2v190h-2z"/><path d="M135.157 548.186l5.657 5.657-1.415 1.414-4.242-4.242-4.243 4.242-1.414-1.414z"/><path fill-rule="nonzero" d="M136 740h-2V550h2z"/><path d="M147.905 273.631c.317 0 .637.028.959.084.322.056.642.166.959.329.317.163.623.397.917.7.294.303.572.707.833 1.211.14.27.278.553.413.847.135.294.287.565.455.812.168.247.357.45.567.609a1.246 1.246 0 0 0 1.26.119 1.38 1.38 0 0 0 .462-.35c.135-.154.245-.345.329-.574.084-.229.126-.497.126-.805a2.39 2.39 0 0 0-.133-.826 3.002 3.002 0 0 0-.315-.637 2.832 2.832 0 0 0-.385-.469 4.388 4.388 0 0 0-.329-.294l.686-.63c.056.056.159.163.308.322.15.159.299.366.448.623.15.257.282.558.399.903.117.345.175.733.175 1.162 0 .43-.058.812-.175 1.148-.117.336-.278.62-.483.854-.205.233-.441.41-.707.532a1.985 1.985 0 0 1-.833.182c-.383 0-.714-.084-.994-.252a2.833 2.833 0 0 1-.728-.623 4.392 4.392 0 0 1-.525-.791c-.145-.28-.268-.532-.371-.756a9.029 9.029 0 0 0-.441-.875 4.725 4.725 0 0 0-.539-.763 2.73 2.73 0 0 0-.658-.553 1.555 1.555 0 0 0-.812-.217v4.984h-.868v-6.006zm0 7.588h1.372v.826h-1.372v-.826zm8.078 12.362c.317-.28.574-.653.77-1.12.196-.467.294-.999.294-1.596 0-.877-.166-1.517-.497-1.918-.331-.401-.782-.602-1.351-.602-.299 0-.544.054-.735.161a1.405 1.405 0 0 0-.497.497c-.14.224-.261.511-.364.861-.103.35-.205.763-.308 1.239-.112.532-.238 1.01-.378 1.435a4.12 4.12 0 0 1-.525 1.085c-.21.299-.464.527-.763.686-.299.159-.672.238-1.12.238-.457 0-.854-.089-1.19-.266a2.372 2.372 0 0 1-.84-.742 3.31 3.31 0 0 1-.497-1.134 6.064 6.064 0 0 1-.161-1.442c0-1.54.48-2.87 1.442-3.99l.798.49c-.187.177-.364.39-.532.637a4.617 4.617 0 0 0-.441.826 5.248 5.248 0 0 0-.294.973 5.49 5.49 0 0 0-.105 1.092c0 .793.142 1.412.427 1.855.285.443.716.665 1.295.665.308 0 .567-.063.777-.189.21-.126.392-.315.546-.567.154-.252.287-.565.399-.938a19.8 19.8 0 0 0 .336-1.302c.121-.523.247-.98.378-1.372.13-.392.294-.723.49-.994.196-.27.432-.474.707-.609.275-.135.614-.203 1.015-.203.457 0 .866.086 1.225.259.36.173.658.418.896.735s.42.69.546 1.12c.126.43.189.905.189 1.428 0 .663-.1 1.253-.301 1.771-.2.518-.483.987-.847 1.407l-.784-.476zm-8.218 5.642a3.507 3.507 0 0 1 1.127-2.618c.35-.327.754-.581 1.211-.763a3.939 3.939 0 0 1 1.47-.273c.513 0 .996.091 1.449.273.453.182.85.434 1.19.756.34.322.611.707.812 1.155.2.448.301.933.301 1.456a3.478 3.478 0 0 1-1.12 2.604 3.844 3.844 0 0 1-2.618 1.008h-.224a.563.563 0 0 1-.154-.014v-6.244a3.07 3.07 0 0 0-1.085.273 2.982 2.982 0 0 0-.861.595c-.243.243-.432.52-.567.833a2.493 2.493 0 0 0-.203 1.001 2.821 2.821 0 0 0 .364 1.344c.112.196.25.373.413.532.163.159.343.28.539.364l-.224.826a2.426 2.426 0 0 1-.735-.476 3.323 3.323 0 0 1-.574-.714c-.163-.27-.29-.57-.378-.896a3.884 3.884 0 0 1-.133-1.022zm4.172 2.688a2.946 2.946 0 0 0 1.904-.861 2.6 2.6 0 0 0 .742-1.827 2.621 2.621 0 0 0-.742-1.841 2.683 2.683 0 0 0-.84-.574 3.18 3.18 0 0 0-1.064-.259v5.362zm-4.172 4.214c0-.345.058-.665.175-.959a2.42 2.42 0 0 1 .483-.77 2.184 2.184 0 0 1 1.61-.693c.317 0 .611.075.882.224.27.15.504.36.7.63.196.27.348.593.455.966.107.373.161.784.161 1.232 0 .373-.033.751-.098 1.134a4.915 4.915 0 0 1-.28 1.022h.658c.644 0 1.155-.182 1.533-.546.378-.364.567-.868.567-1.512 0-.373-.075-.756-.224-1.148a5.536 5.536 0 0 0-.644-1.19l.63-.336c.635.943.952 1.857.952 2.744 0 .915-.257 1.633-.77 2.156-.513.523-1.223.784-2.128.784h-3.29c-.261 0-.392.117-.392.35h-.84a2.27 2.27 0 0 1-.042-.364c0-.243.06-.432.182-.567a.685.685 0 0 1 .504-.217l.574-.028a3.308 3.308 0 0 1-1.008-1.267 3.898 3.898 0 0 1-.35-1.645zm.728.224c0 .495.093.95.28 1.365.187.415.434.73.742.945a.872.872 0 0 0 .273.189.697.697 0 0 0 .273.063h1.19c.121-.317.215-.646.28-.987.065-.34.098-.688.098-1.043 0-.672-.14-1.218-.42-1.638-.28-.42-.649-.63-1.106-.63a1.51 1.51 0 0 0-.63.133c-.196.089-.366.21-.511.364a1.705 1.705 0 0 0-.343.553 1.866 1.866 0 0 0-.126.686zm5.866 9.212c-.019-.644-.196-1.204-.532-1.68a2.683 2.683 0 0 0-1.386-1.008h-4.536v-.952h7.294v.896h-1.75c.56.27.999.635 1.316 1.092.317.457.476.947.476 1.47a.96.96 0 0 1-.014.182h-.868zm-2.786.406c.513 0 .999.089 1.456.266.457.177.856.427 1.197.749a3.5 3.5 0 0 1 .805 1.155c.196.448.294.943.294 1.484 0 .69-.156 1.293-.469 1.806a3.02 3.02 0 0 1-1.267 1.162l-.294-.924c.373-.205.665-.492.875-.861.21-.369.315-.777.315-1.225 0-.373-.075-.721-.224-1.043a2.66 2.66 0 0 0-.609-.84 2.8 2.8 0 0 0-.917-.56 3.233 3.233 0 0 0-1.162-.203c-.41 0-.798.07-1.162.21-.364.14-.679.331-.945.574a2.733 2.733 0 0 0-.63.847 2.355 2.355 0 0 0-.231 1.029 2.677 2.677 0 0 0 .371 1.33c.117.196.25.364.399.504.15.14.308.238.476.294l-.28.938a2.386 2.386 0 0 1-.721-.448 3.09 3.09 0 0 1-.574-.693 3.4 3.4 0 0 1-.378-.882 3.753 3.753 0 0 1-.133-1.001 3.555 3.555 0 0 1 1.127-2.632c.35-.327.754-.581 1.211-.763a3.939 3.939 0 0 1 1.47-.273zm-3.668 14.322v-.952h4.074c.83 0 1.451-.142 1.862-.427.41-.285.616-.702.616-1.253 0-.27-.054-.539-.161-.805a3.03 3.03 0 0 0-1.099-1.358 2.785 2.785 0 0 0-.826-.385h-4.466v-.952h10.22v.952h-4.578c.55.29.985.69 1.302 1.204a3.11 3.11 0 0 1 .476 1.666c0 .42-.077.775-.231 1.064a1.97 1.97 0 0 1-.644.714 2.817 2.817 0 0 1-.994.406 6.052 6.052 0 0 1-1.281.126h-4.27zm3.003 281.537h-.868v-4.746h.868v1.988h5.992a1.541 1.541 0 0 1-.364-.385 4.679 4.679 0 0 1-.644-1.281 2.058 2.058 0 0 1-.112-.616h.924c0 .215.06.45.182.707.121.257.261.5.42.728.159.229.308.422.448.581.14.159.233.247.28.266v.98h-7.126v1.778zm-.868 1.218h1.372v.826h-1.372v-.826zm0 6.552h9.94v.98h-9.94v-.98zm0 9.408v-.952h4.074c.868 0 1.498-.128 1.89-.385.392-.257.588-.651.588-1.183 0-.28-.051-.56-.154-.84a2.832 2.832 0 0 0-.434-.777 3.322 3.322 0 0 0-.665-.637 2.607 2.607 0 0 0-.833-.406h-4.466v-.952h7.294v.868h-1.652c.532.299.961.726 1.288 1.281.327.555.49 1.16.49 1.813 0 .401-.075.742-.224 1.022-.15.28-.36.504-.63.672-.27.168-.602.29-.994.364a6.978 6.978 0 0 1-1.302.112h-4.27zm0 4.046l7.294-2.968v.98l-6.412 2.506 6.412 2.52v.924l-7.294-2.968v-.994zm-.14 8.176a3.507 3.507 0 0 1 1.127-2.618c.35-.327.754-.581 1.211-.763a3.939 3.939 0 0 1 1.47-.273c.513 0 .996.091 1.449.273.453.182.85.434 1.19.756.34.322.611.707.812 1.155.2.448.301.933.301 1.456a3.478 3.478 0 0 1-1.12 2.604 3.844 3.844 0 0 1-2.618 1.008h-.224a.563.563 0 0 1-.154-.014v-6.244a3.07 3.07 0 0 0-1.085.273 2.982 2.982 0 0 0-.861.595c-.243.243-.432.52-.567.833a2.493 2.493 0 0 0-.203 1.001 2.821 2.821 0 0 0 .364 1.344c.112.196.25.373.413.532.163.159.343.28.539.364l-.224.826a2.426 2.426 0 0 1-.735-.476 3.323 3.323 0 0 1-.574-.714c-.163-.27-.29-.57-.378-.896a3.884 3.884 0 0 1-.133-1.022zm4.172 2.688a2.946 2.946 0 0 0 1.904-.861 2.6 2.6 0 0 0 .742-1.827 2.621 2.621 0 0 0-.742-1.841 2.683 2.683 0 0 0-.84-.574 3.18 3.18 0 0 0-1.064-.259v5.362zm-4.032 8.512v-.952h4.074c.868 0 1.498-.128 1.89-.385.392-.257.588-.651.588-1.183 0-.28-.051-.56-.154-.84a2.832 2.832 0 0 0-.434-.777 3.322 3.322 0 0 0-.665-.637 2.607 2.607 0 0 0-.833-.406h-4.466v-.952h7.294v.868h-1.652c.532.299.961.726 1.288 1.281.327.555.49 1.16.49 1.813 0 .401-.075.742-.224 1.022-.15.28-.36.504-.63.672-.27.168-.602.29-.994.364a6.978 6.978 0 0 1-1.302.112h-4.27zm.35 5.46a4.532 4.532 0 0 1-.378-1.092 2.713 2.713 0 0 1-.056-.56c0-.205.028-.401.084-.588a1.281 1.281 0 0 1 .7-.826c.177-.084.383-.126.616-.126h5.222v-1.008h.756v1.008h2.464v.952h-2.464v1.68h-.756v-1.68h-4.956c-.27.019-.469.114-.595.287a.983.983 0 0 0-.189.595c0 .27.044.509.133.714.089.205.152.336.189.392l-.77.252zm-.49 4.116c0-.532.1-1.017.301-1.456.2-.439.474-.819.819-1.141a3.716 3.716 0 0 1 1.204-.749 3.954 3.954 0 0 1 1.442-.266 3.901 3.901 0 0 1 2.66 1.029c.345.322.62.702.826 1.141.205.439.308.92.308 1.442 0 .523-.103 1.006-.308 1.449-.205.443-.48.826-.826 1.148a3.901 3.901 0 0 1-2.66 1.029 3.96 3.96 0 0 1-1.442-.266 3.716 3.716 0 0 1-1.204-.749 3.507 3.507 0 0 1-1.12-2.611zm3.752-2.646a3.047 3.047 0 0 0-2.065.777 2.563 2.563 0 0 0-.623.84c-.15.322-.224.665-.224 1.029 0 .364.077.707.231 1.029.154.322.364.604.63.847s.576.434.931.574c.355.14.737.21 1.148.21.401 0 .782-.07 1.141-.21.36-.14.672-.331.938-.574.266-.243.476-.525.63-.847.154-.322.231-.665.231-1.029a2.31 2.31 0 0 0-.231-1.022 2.709 2.709 0 0 0-.637-.84 3.07 3.07 0 0 0-.945-.574c-.36-.14-.744-.21-1.155-.21zm2.842 11.508c-.019-.644-.196-1.204-.532-1.68a2.683 2.683 0 0 0-1.386-1.008h-4.536v-.952h7.294v.896h-1.75c.56.27.999.635 1.316 1.092.317.457.476.947.476 1.47a.96.96 0 0 1-.014.182h-.868zm-8.694 1.694a3.777 3.777 0 0 0-.028.42c0 .168.023.301.07.399.047.098.15.194.308.287.159.093.387.198.686.315.299.117.7.282 1.204.497l7.294-3.178v.98l-6.412 2.702 6.412 2.506v.91l-9.408-3.78a1.711 1.711 0 0 1-.707-.511c-.2-.238-.301-.562-.301-.973a3.277 3.277 0 0 1 .042-.574h.84z" opacity=".3"/><path d="M23.153 23.964v1.965c3.53.562 6.776 1.825 9.459 3.51C34.165 30.56 35.576 36.455 36 38H0c.424-1.544 1.694-7.439 3.388-8.562 2.541-1.684 5.93-2.947 9.46-3.509v-1.965c-1.413-1.263-2.4-3.228-2.824-5.334-1.695 0-3.812-6.737-.989-6.456-1.411-3.65 0-8.562 2.683-10.246C9.74-1.582 11.294.945 19.34.103c2.26-.14 4.378 1.263 4.66 3.228 3.953.14 3.953 5.755 2.824 8.843 2.964-.421.847 6.597-.989 6.456-.282 2.106-1.27 4.07-2.682 5.334zm202 0v1.965c3.53.562 6.776 1.825 9.459 3.51 1.553 1.122 2.964 7.017 3.388 8.561h-36c.424-1.544 1.694-7.439 3.388-8.562 2.541-1.684 5.93-2.947 9.46-3.509v-1.965c-1.413-1.263-2.4-3.228-2.824-5.334-1.695 0-3.812-6.737-.989-6.456-1.411-3.65 0-8.562 2.683-10.246-1.977-3.51-.424-.983 7.623-1.825 2.259-.14 4.377 1.263 4.659 3.228 3.953.14 3.953 5.755 2.824 8.843 2.964-.421.847 6.597-.989 6.456-.282 2.106-1.27 4.07-2.682 5.334zM81.609 183.754h-3.178V192h-1.918v-8.246h-3.178v-1.694h8.274v1.694zm3.878 2.534a3.7 3.7 0 0 0-1.526.329c-.448.21-.77.525-.966.945V192h-1.876v-7.336h1.722v1.568a3.34 3.34 0 0 1 .462-.679c.177-.2.369-.376.574-.525.205-.15.413-.264.623-.343.21-.08.413-.119.609-.119h.231c.051 0 .1.005.147.014v1.708zm2.954 5.852c-.355 0-.686-.058-.994-.175a2.39 2.39 0 0 1-.798-.49 2.226 2.226 0 0 1-.714-1.659c0-.345.077-.665.231-.959a2.2 2.2 0 0 1 .644-.749 3.2 3.2 0 0 1 .987-.483 4.305 4.305 0 0 1 1.26-.175c.327 0 .646.028.959.084.313.056.59.135.833.238v-.42c0-.485-.138-.859-.413-1.12-.275-.261-.684-.392-1.225-.392-.392 0-.775.07-1.148.21-.373.14-.756.345-1.148.616l-.574-1.19c.943-.625 1.96-.938 3.052-.938 1.055 0 1.874.259 2.457.777.583.518.875 1.267.875 2.247v2.282c0 .196.035.336.105.42.07.084.184.13.343.14V192a4.177 4.177 0 0 1-.826.098c-.355 0-.628-.08-.819-.238a1.023 1.023 0 0 1-.357-.63l-.042-.406a3.24 3.24 0 0 1-1.19.98 3.417 3.417 0 0 1-1.498.336zm.532-1.372c.317 0 .618-.056.903-.168.285-.112.506-.261.665-.448.205-.159.308-.336.308-.532v-.84a4.593 4.593 0 0 0-.728-.203 3.921 3.921 0 0 0-.756-.077c-.485 0-.882.11-1.19.329-.308.22-.462.497-.462.833 0 .317.121.581.364.791.243.21.541.315.896.315zm7.28 1.232l-2.702-7.336h1.932l1.862 5.81 1.876-5.81h1.764L98.283 192h-2.03zm8.862.14c-.588 0-1.12-.1-1.596-.301a3.66 3.66 0 0 1-1.218-.819 3.635 3.635 0 0 1-.777-1.204 3.864 3.864 0 0 1-.273-1.442c0-.523.089-1.015.266-1.477.177-.462.434-.868.77-1.218s.744-.628 1.225-.833a4.078 4.078 0 0 1 1.617-.308c.597 0 1.132.103 1.603.308.471.205.873.48 1.204.826.331.345.583.747.756 1.204a4 4 0 0 1 .259 1.428c0 .121-.002.238-.007.35a1.424 1.424 0 0 1-.035.28h-5.67c.028.29.098.546.21.77a1.903 1.903 0 0 0 1.736 1.064c.373 0 .726-.091 1.057-.273.331-.182.558-.422.679-.721l1.61.448c-.27.56-.702 1.02-1.295 1.379-.593.36-1.3.539-2.121.539zm1.904-4.424c-.047-.55-.25-.992-.609-1.323a1.861 1.861 0 0 0-1.309-.497 1.868 1.868 0 0 0-1.288.504c-.168.159-.306.35-.413.574-.107.224-.17.471-.189.742h3.808zm3.066-5.936h1.876v7.868c0 .27.065.48.196.63.13.15.317.224.56.224.112 0 .236-.019.371-.056a2.51 2.51 0 0 0 .385-.14l.252 1.428a3.628 3.628 0 0 1-.882.28c-.336.065-.64.098-.91.098-.588 0-1.043-.156-1.365-.469-.322-.313-.483-.758-.483-1.337v-8.526zm9.38 10.36c-.355 0-.686-.058-.994-.175a2.39 2.39 0 0 1-.798-.49 2.226 2.226 0 0 1-.714-1.659c0-.345.077-.665.231-.959a2.2 2.2 0 0 1 .644-.749 3.2 3.2 0 0 1 .987-.483 4.305 4.305 0 0 1 1.26-.175c.327 0 .646.028.959.084.313.056.59.135.833.238v-.42c0-.485-.138-.859-.413-1.12-.275-.261-.684-.392-1.225-.392-.392 0-.775.07-1.148.21-.373.14-.756.345-1.148.616l-.574-1.19c.943-.625 1.96-.938 3.052-.938 1.055 0 1.874.259 2.457.777.583.518.875 1.267.875 2.247v2.282c0 .196.035.336.105.42.07.084.184.13.343.14V192a4.177 4.177 0 0 1-.826.098c-.355 0-.628-.08-.819-.238a1.023 1.023 0 0 1-.357-.63l-.042-.406a3.24 3.24 0 0 1-1.19.98 3.417 3.417 0 0 1-1.498.336zm.532-1.372c.317 0 .618-.056.903-.168.285-.112.506-.261.665-.448.205-.159.308-.336.308-.532v-.84a4.593 4.593 0 0 0-.728-.203 3.921 3.921 0 0 0-.756-.077c-.485 0-.882.11-1.19.329-.308.22-.462.497-.462.833 0 .317.121.581.364.791.243.21.541.315.896.315zm8.372 1.274a3.02 3.02 0 0 1-1.344-.294 3.246 3.246 0 0 1-1.043-.805 3.662 3.662 0 0 1-.679-1.183 4.246 4.246 0 0 1-.238-1.428c0-.532.084-1.027.252-1.484a3.85 3.85 0 0 1 .7-1.204 3.194 3.194 0 0 1 2.464-1.106c.57 0 1.069.128 1.498.385.43.257.784.6 1.064 1.029v-1.288h1.638v6.986c0 .541-.103 1.027-.308 1.456a3.19 3.19 0 0 1-.847 1.092 3.78 3.78 0 0 1-1.288.686 5.36 5.36 0 0 1-1.631.238c-.803 0-1.477-.133-2.023-.399a4.1 4.1 0 0 1-1.407-1.127l1.022-.994c.28.345.632.616 1.057.812.425.196.875.294 1.351.294.29 0 .567-.04.833-.119a2.02 2.02 0 0 0 .707-.371c.205-.168.366-.383.483-.644.117-.261.175-.57.175-.924v-.924c-.243.42-.583.744-1.022.973-.439.229-.91.343-1.414.343zm.63-1.498c.205 0 .401-.033.588-.098a2.091 2.091 0 0 0 .938-.658c.121-.15.215-.308.28-.476v-1.75a2.277 2.277 0 0 0-.791-1.036c-.36-.261-.735-.392-1.127-.392-.29 0-.55.063-.784.189a1.952 1.952 0 0 0-.602.504 2.28 2.28 0 0 0-.385.721c-.089.27-.133.55-.133.84 0 .299.051.579.154.84.103.261.245.49.427.686.182.196.394.35.637.462.243.112.509.168.798.168zm8.778 1.596c-.588 0-1.12-.1-1.596-.301a3.66 3.66 0 0 1-1.218-.819 3.635 3.635 0 0 1-.777-1.204 3.864 3.864 0 0 1-.273-1.442c0-.523.089-1.015.266-1.477.177-.462.434-.868.77-1.218s.744-.628 1.225-.833a4.078 4.078 0 0 1 1.617-.308c.597 0 1.132.103 1.603.308.471.205.873.48 1.204.826.331.345.583.747.756 1.204a4 4 0 0 1 .259 1.428c0 .121-.002.238-.007.35a1.424 1.424 0 0 1-.035.28h-5.67c.028.29.098.546.21.77a1.903 1.903 0 0 0 1.736 1.064c.373 0 .726-.091 1.057-.273.331-.182.558-.422.679-.721l1.61.448c-.27.56-.702 1.02-1.295 1.379-.593.36-1.3.539-2.121.539zm1.904-4.424c-.047-.55-.25-.992-.609-1.323a1.861 1.861 0 0 0-1.309-.497 1.868 1.868 0 0 0-1.288.504c-.168.159-.306.35-.413.574-.107.224-.17.471-.189.742h3.808zm9.898 4.284h-1.876v-4.116c0-.588-.103-1.017-.308-1.288-.205-.27-.49-.406-.854-.406-.187 0-.378.037-.574.112-.196.075-.38.18-.553.315a2.563 2.563 0 0 0-.469.483 1.91 1.91 0 0 0-.308.616V192h-1.876v-7.336h1.694v1.358c.27-.467.663-.83 1.176-1.092.513-.261 1.092-.392 1.736-.392.457 0 .83.084 1.12.252.29.168.513.387.672.658.159.27.268.579.329.924.06.345.091.695.091 1.05V192zm1.176-3.668c0-.513.089-.999.266-1.456.177-.457.434-.859.77-1.204s.742-.62 1.218-.826a4.027 4.027 0 0 1 1.61-.308c.803 0 1.486.173 2.051.518.565.345.987.798 1.267 1.358l-1.834.56a1.648 1.648 0 0 0-.63-.623 1.762 1.762 0 0 0-.868-.217c-.27 0-.523.054-.756.161a1.858 1.858 0 0 0-.609.448 2.075 2.075 0 0 0-.406.693c-.098.27-.147.57-.147.896 0 .327.051.625.154.896.103.27.24.504.413.7.173.196.376.348.609.455.233.107.48.161.742.161a1.8 1.8 0 0 0 .931-.252c.285-.168.483-.373.595-.616l1.834.56c-.252.56-.667 1.017-1.246 1.372-.579.355-1.274.532-2.086.532a4.027 4.027 0 0 1-1.61-.308 3.694 3.694 0 0 1-1.218-.833 3.696 3.696 0 0 1-.777-1.218 3.918 3.918 0 0 1-.273-1.449zm8.414 5.096c.159.047.313.082.462.105.15.023.275.035.378.035a.802.802 0 0 0 .336-.07.72.72 0 0 0 .28-.245 2.41 2.41 0 0 0 .252-.483c.084-.205.173-.462.266-.77l-2.898-7.336h1.932l1.988 5.712 1.764-5.712h1.764l-3.08 8.792c-.177.513-.48.933-.91 1.26-.43.327-.961.49-1.596.49a2.91 2.91 0 0 1-.938-.154v-1.624z"/><path d="M118.065 159s8.108-18.836 30.81-16.092V159h-30.81zm6.736-12.225c-6.237 4.865-8.857 10.853-9.106 11.227l-.375.998H89s8.482-14.096 27.942-13.347l-9.356-25.822c-1.746 1.497-2.62 3.992-1.746 6.362.25.624-.125 1.372-.748 1.622-.624.25-1.373 0-1.622-.749-.998-2.869-4.366-4.49-7.235-3.368-1.497.624-2.62 1.622-3.243 2.994-.624 1.372-.749 2.87-.25 4.366.25.624-.125 1.372-.748 1.622-.624.25-1.372 0-1.622-.749-3.992-10.977 1.123-23.077 11.601-27.817l-.873-2.495c-.374-.998.125-1.996 1.123-2.495.997-.374 1.995.125 2.37 1.123l.873 2.495c10.977-2.87 22.578 2.869 26.445 13.846 0 .125.125.125.125.25.25.623-.125 1.372-.749 1.621-.623.25-1.372 0-1.621-.748-.998-2.87-4.242-4.491-7.235-3.368-2.87.998-4.491 4.24-3.368 7.235.25.623-.125 1.372-.749 1.621-.624.25-1.372 0-1.621-.748-.874-2.37-2.994-3.742-5.364-3.742l9.73 26.819c.124.125.124.374.124.624 1.123.124 2.37.374 3.618.623zm17.713-33.056a6.362 6.362 0 1 1 0-12.724 6.362 6.362 0 0 1 0 12.724z" fill-rule="nonzero"/><g opacity=".6"><path d="M79 99v-8h-2v6h-6v2z"/><path fill-rule="nonzero" d="M30.289 57L29 58.542 76.711 98 78 96.458z"/></g><g opacity=".6"><path d="M159 99v-8h2v6h6v2z"/><path fill-rule="nonzero" d="M207.711 57L209 58.542 161.289 98 160 96.458z"/></g></g></svg>