<svg height="304" width="786" xmlns="http://www.w3.org/2000/svg"><g fill="#fff" fill-rule="evenodd"><path d="m424.449 100h.037c29.548.01 53.504 23.955 53.514 53.5 0 29.533-23.938 53.48-53.48 53.5h-.073c-28.917-.02-52.475-22.971-53.447-51.657v-3.687c.972-28.677 24.522-51.637 53.449-51.656zm33.595 25.077 6.255 1.063a48.44 48.44 0 0 0 -4.332-5.413zm10.662 8.943-.002.002a48.255 48.255 0 0 0 -2.792-5.385l-2.756 3.63zm1.74 4.551a48.754 48.754 0 0 0 -.72-2.05l-7.266-2.295-.052 5.678.348 3.798 7.69-5.13zm1.83 7.798a47.992 47.992 0 0 0 -1.208-5.716l-6.474 4.32 7.681 1.396zm.525 7.131c0-1.66-.084-3.32-.253-4.97l-9.508-1.729.273 2.976v.004l.282 3.072 9.196 1.403c.004-.252.01-.503.01-.756zm-.425 6.417c.156-1.178.27-2.37.34-3.572l-9.551-1.455-2.619 4.295 4.958 4.731 6.872-4zm-1.982 8.667a48.044 48.044 0 0 0 1.552-6.012l-4.877 2.84zm-3.065 7.256a47.967 47.967 0 0 0 2.303-5.11l-4.432-4.23-5.586 3.253zm-41.844 25.953h-.003a48.34 48.34 0 0 0 40.83-24.107l-2.677-2.11-7.814 5.687a1.04 1.04 0 0 1 -1.403-.167l-5.022-5.912-6.027 3.56-.01.004-5.413 3.136a1.04 1.04 0 0 1 -1.183-.096l-5.285-4.346-5.993 9.249zm-1.074-17.266 5.184-7.992-5.41-1.449c-.01-.002-.018-.008-.027-.011a.953.953 0 0 1 -.118-.051 1.06 1.06 0 0 1 -.164-.085 1.006 1.006 0 0 1 -.097-.08 1.002 1.002 0 0 1 -.13-.13 1.086 1.086 0 0 1 -.158-.279c-.009-.022-.024-.04-.032-.063l-1.951-6.348-4.527 5.907 7.43 10.58zm-1.005 17.265h-.003v-15.08l-7.76-11.048-4.084 5.232a1.04 1.04 0 0 1 -1.187.333l-11.722-4.41-4.567 3.229c-.01.007-.02.009-.03.015a1.02 1.02 0 0 1 -.237.117c-.009.004-.017.011-.027.011a.997.997 0 0 1 -.22.044l-8.889.742a48.306 48.306 0 0 0 38.726 20.815zm-40.465-23.51h-.003c.145.241.293.48.442.721l8.356-.698-4.157-6.906-1.74.88-2.898 6.002zm-4.612-10.245h-.003a48.02 48.02 0 0 0 3.371 8.039l2.04-4.224zm-1.256-4.846h-.003c.113.565.243 1.126.378 1.684l7.697 5.426 4.383-2.216-2.75-5.124-2.063-2.55zm-.945-8.11h-.003c.065 2.022.257 4.037.575 6.035l6.632-2.413-3.573-4.415zm.623-9.524a48.467 48.467 0 0 0 -.647 7.402l8.396-1.833-2.886-6.125zm1.756-7.15a47.841 47.841 0 0 0 -1.353 5.013l3.525-.402-2.172-4.61zm2.13-5.36h-.002a46.044 46.044 0 0 0 -1.128 2.605l3.355 7.116 8.403-.96-1.13-2.298zm9.795-13.873a48.493 48.493 0 0 0 -8.12 10.625l7.47-3.51 2.671-6.977-2.02-.138zm7.097-5.804v-.001a48.587 48.587 0 0 0 -5.018 3.865l8.713.597-3.695-4.46zm7.28-4.02a48.14 48.14 0 0 0 -5.516 2.891l4.083 4.929 2.602-4.935-1.168-2.885zm10.137-3.22a48.023 48.023 0 0 0 -8.22 2.412l1.035 2.557 4.737-.98 2.448-3.99zm3.889-.61c-.391.046-.78.095-1.168.15l-3.266 5.324 4.132 5.65 4.87.431v-7.196zm5.614-.326c-.964 0-1.919.032-2.869.087l3.154 2.996 4.495-2.848a48.312 48.312 0 0 0 -4.78-.235zm14.271 2.14a48.03 48.03 0 0 0 -6.28-1.48l-5.17 3.277 10.57 2.896zm10.06 11.78-9.851-4.518-3.601 4.15 7.01 3.914 6.442-3.545zm-8.068-11.114-.887 4.723 9.364 4.296-2.324-6.325a48.106 48.106 0 0 0 -6.153-2.694zm19.893 24.183 3.07-4.041-6.694-1.138-4.395 5.616 7.762 5.356.05-5.176v-.021c.002-.07.01-.14.027-.208v-.012a1.03 1.03 0 0 1 .08-.211c.01-.022.024-.04.036-.061.02-.036.04-.07.064-.104zm-2.263 26.622 3.229-5.29-.214-2.323-5.923 1.668c-.007.003-.012 0-.023.003-.01.003-.02.011-.032.011l-4.185.935 3.358 4.773.01.017c.018.031.036.063.052.096.016.03.033.059.046.09.002.005.007.009.007.014l1.445 3.666 2.23-3.656zm-1.28 6.09 1.24 3.213 5.331-3.105-4.195-4.004-2.375 3.896zm-3.41 7.537-2.481 1.633 4.204 4.95 6.564-4.779-4.338-3.423-3.949 1.62zm-8.273-4.638-1.195 8.05 4.884-2.884 2.182-1.435-5.871-3.73zm-1.96-41.678 9.366 2.875 2.434-3.11-4.398-5.518-7.436 4.091.035 1.662zm6.866 6.07 1.13-1.443-7.98-2.448v4.158l3.333 3.763zm-4.38 12.863 13.28-5.346-7.924-5.474-3.546 4.062zm1.056 1.818 8.277 3.891 5.923-1.667-.704-7.658zm2.259 5.257.006-.002 2.73-.61-6.555-3.081v4.545zm3.872 8.362-7.645 2.625.142 2.358 7.677 4.877 3.167-1.298-1.496-3.882zm-7.69.443 6.649-2.28-3.059-4.347-3.59.802zm-6.676-23.58 5.194 7.083 1.705-6.367-3.778-4.266-4.203-.866 1.082 4.415zm-4.624 29.251 9.388-1.42-.127-2.098-8.728-3.84zm1.666 1.85 6.366 7.067 1.216-8.216-7.582 1.148zm-2.234.623-6.646 4.588 4.621 1.237.01.005c.074.02.145.048.212.084.016.009.03.02.045.03a1 1 0 0 1 .125.083l5.627 4.627 3.682-2.132zm-1.022-9.298-9.391 6.456 1.903 6.19 6.916-4.778zm-10.456-4.81v5.432l.606 3.628 5.344-3.674-5.95-5.385zm-2.928-11.951 2.633 8.498 4.277-.388-3.663-8.11zm-7.26 20.838 8.79.798-.667-3.997a1.048 1.048 0 0 1 -.014-.17v-.346l-7.78.074-.33 3.641zm-2.558 5.804 6.069 2.955 4.553-5.942-8.602-.78zm-6.198-.684-2.92 6.21 10.197 3.835 3.689-4.726-6.65-3.241zm-3.882-2.96-7.843 3.46-1.95.987 4.36 7.248 4.1-2.899.26-.182 3.186-6.775-2.113-1.84zm-9.025-5.448-1.34 1.896 2.541 4.734 5.738-2.533zm-3.954-7.696c-.011.002-.021.01-.032.014l-4.19.914 5.56 6.87 5.08-7.19-.186-2.326-6.21 1.718zm6.063-3.83-.417-5.21-8.102.926 2.769 5.875 5.75-1.59zm3.927-20.625-5.433-.309-8.13 3.82 7.955 5.413 3.741-6.048a.046.046 0 0 1 .007-.009c.002-.003.005-.007.005-.01zm1.295-2.013 4.192-6.46-7.114-.486-2.54 6.634zm16.142-2.673-9.683-3.446-4.024 6.2h10.618l3.09-2.754zm1.407-1.705 1.699-4.243-4.087-5.587-4.89 1.012-2.766 5.246zm3.564 7.877-3.188-4.979-3.436 3.065v4.76l6.224-.425zm6.907-.851-1.987-9.876-4.928-.437-1.797 4.491 3.49 5.45zm7.704-11.104 3.519-4.05-11.305-3.098v6.458zm-1.072 12.068 4.42-8.17-3.224-1.8-7.655-.679 1.997 9.925 2.708.5zm4.257.546 4.904 1.012v-4.675l-.052-2.435-2.874-1.604-4.025 7.438 1.967.251c.01.001.01.003.028.008s.035.002.052.005zm-8.502 22.433.007.006a1.014 1.014 0 0 1 -.27.064l-4.209.383 6.288 5.692 2.898-1.993v-6.032l-4.692 1.875c-.007.005-.015.005-.022.005zm2.12-9.402-5.351-.438 3.405 7.538 4.213-1.684zm.727-11.659-5.931 9.149 5.636.46 6.084-4.198-1.182-4.823zm-8.313 9.003 6.08-9.377-1.84-.341-6.101-.435-1.676 10.153zm-16.031 18.329 3.992-.96 1.507-4.484-5.768-5.265-2.411 5.782zm-.11 2.163-5.217 3.474 2.072 1.802 4.242 2.043 2.286-4.26.358-3.958-3.74.9zm-12.093-6.586-2.838 4.018 7.972 4.706 5.169-3.442-2.573-4.73zm8.837-16.842-7.492-4.728-3.46 5.591 1.524 3.095 4.41-.125zm6.869-4.694v.001-4.743h-11.073l-.247-.014-1.929 2.97 8.183 5.163zm-2.618 4.24 6.109 1.788.061.02 3.39 1.22 1.015-6.144-6.57.45zm-6.988 5.16 5.298 2.83 5.399-4.742-5.928-1.73-4.77 3.643zm-6.347 1.32.702 8.765 7.244.517 2.521-6.045-6.282-3.355-4.185.119zm25.979 9.76-6.052.683-1.229 3.659 7.28-.07v-4.272zm-6.475-1.36 6.15-.695-2.774-8.955-3.503-1.263-6.027 5.294 6.154 5.618zm29.823-.884-8.578-.815v6.292l8.578 3.775zm-8.9-2.934 8.901.848v-2.32l-5.797-7.912-5.456 3.763 2.353 5.621zm23.984-29.49a48.568 48.568 0 0 0 -8.711-6.818l2.305 6.211 4.292 5.386 2.114-4.778zm37.593 20.542 5.657 5.657 1.414-1.415-4.243-4.242 4.243-4.243-1.414-1.414zm-142.686 0-5.657 5.657-1.414-1.415 4.242-4.242-4.242-4.243 1.414-1.414z"/><path d="m163 141v-2h190v2zm335 0v-2h190v2z" fill-rule="nonzero"/><path d="m687.314 172.657-5.657 5.657-1.414-1.415 4.242-4.242-4.242-4.243 1.414-1.414z"/><path d="m163 174v-2h215v2zm309 0v-2h213v2z" fill-rule="nonzero"/><path d="m58.285 202.987h-3.859v10.013h-2.329v-10.013h-3.859v-2.057h10.047zm4.709 3.077c-.691.011-1.309.144-1.853.4-.544.255-.935.637-1.173 1.147v5.389h-2.278v-8.908h2.091v1.904a4.13 4.13 0 0 1 1.258-1.462c.25-.181.501-.32.756-.416a2.08 2.08 0 0 1 .74-.145h.28c.063 0 .122.006.179.017zm3.587 7.106c-.43 0-.833-.07-1.207-.212a2.901 2.901 0 0 1 -.969-.595 2.703 2.703 0 0 1 -.867-2.014c0-.42.093-.808.28-1.165a2.67 2.67 0 0 1 .782-.91c.335-.25.734-.445 1.199-.587a5.228 5.228 0 0 1 1.53-.212c.397 0 .785.034 1.165.102s.716.164 1.011.289v-.51c0-.59-.167-1.043-.501-1.36-.335-.317-.83-.476-1.488-.476-.476 0-.94.085-1.394.255a6.51 6.51 0 0 0 -1.394.748l-.697-1.445c1.145-.76 2.38-1.139 3.706-1.139 1.28 0 2.275.314 2.984.944.708.629 1.062 1.538 1.062 2.728v2.771c0 .238.042.408.127.51.086.102.224.159.417.17v1.938c-.385.08-.72.119-1.003.119-.43 0-.762-.096-.995-.289a1.242 1.242 0 0 1 -.433-.765l-.051-.493a3.942 3.942 0 0 1 -1.445 1.19 4.15 4.15 0 0 1 -1.819.408zm.646-1.666c.385 0 .75-.068 1.096-.204s.615-.317.808-.544c.25-.193.374-.408.374-.646v-1.02a5.577 5.577 0 0 0 -.884-.246 4.761 4.761 0 0 0 -.918-.094c-.59 0-1.071.133-1.445.4-.374.266-.561.603-.561 1.011 0 .385.147.705.442.96.295.256.657.383 1.088.383zm8.84 1.496-3.281-8.908h2.346l2.261 7.055 2.278-7.055h2.142l-3.281 8.908zm10.761.17c-.714 0-1.36-.122-1.938-.365a4.444 4.444 0 0 1 -1.479-.995 4.415 4.415 0 0 1 -.944-1.462 4.692 4.692 0 0 1 -.331-1.751c0-.635.108-1.232.323-1.793a4.377 4.377 0 0 1 .935-1.48 4.464 4.464 0 0 1 1.487-1.011c.584-.25 1.239-.374 1.964-.374s1.374.125 1.947.374c.572.25 1.06.584 1.462 1.003.402.42.708.907.917 1.462a4.86 4.86 0 0 1 .315 1.734c0 .147-.003.289-.008.425-.006.136-.02.25-.043.34h-6.885c.034.351.119.663.255.935s.312.504.527.697.459.34.731.442a2.4 2.4 0 0 0 .85.153c.453 0 .881-.11 1.284-.331.402-.222.677-.513.824-.876l1.955.544c-.329.68-.853 1.238-1.573 1.674-.72.437-1.578.655-2.575.655zm2.312-5.372c-.057-.669-.303-1.204-.74-1.607-.436-.402-.966-.603-1.589-.603a2.24 2.24 0 0 0 -2.066 1.309c-.13.272-.206.572-.229.901zm3.723-7.208h2.278v9.554c0 .329.08.584.238.765.159.181.385.272.68.272.136 0 .286-.023.45-.068.165-.045.32-.102.468-.17l.306 1.734a4.45 4.45 0 0 1 -1.071.34c-.408.08-.776.119-1.105.119-.714 0-1.266-.19-1.657-.57-.392-.38-.587-.92-.587-1.623zm11.39 12.58c-.43 0-.833-.07-1.207-.212a2.901 2.901 0 0 1 -.969-.595 2.703 2.703 0 0 1 -.867-2.014c0-.42.093-.808.28-1.165a2.67 2.67 0 0 1 .782-.91c.335-.25.734-.445 1.199-.587a5.228 5.228 0 0 1 1.53-.212c.397 0 .785.034 1.164.102.38.068.717.164 1.012.289v-.51c0-.59-.167-1.043-.502-1.36-.334-.317-.83-.476-1.487-.476-.476 0-.94.085-1.394.255a6.51 6.51 0 0 0 -1.394.748l-.697-1.445c1.145-.76 2.38-1.139 3.706-1.139 1.28 0 2.275.314 2.983.944.709.629 1.063 1.538 1.063 2.728v2.771c0 .238.043.408.127.51.086.102.224.159.417.17v1.938c-.385.08-.72.119-1.003.119-.43 0-.762-.096-.995-.289a1.242 1.242 0 0 1 -.433-.765l-.051-.493a3.942 3.942 0 0 1 -1.445 1.19 4.15 4.15 0 0 1 -1.819.408zm.646-1.666c.385 0 .75-.068 1.097-.204.345-.136.614-.317.807-.544.25-.193.374-.408.374-.646v-1.02a5.577 5.577 0 0 0 -.884-.246 4.761 4.761 0 0 0 -.918-.094c-.59 0-1.071.133-1.445.4-.374.266-.561.603-.561 1.011 0 .385.147.705.442.96.295.256.657.383 1.088.383zm10.166 1.547a3.67 3.67 0 0 1 -1.632-.357 3.942 3.942 0 0 1 -1.267-.977 4.447 4.447 0 0 1 -.824-1.437 5.156 5.156 0 0 1 -.289-1.734c0-.646.102-1.247.306-1.802a4.676 4.676 0 0 1 .85-1.462c.363-.42.799-.748 1.309-.986a3.93 3.93 0 0 1 1.683-.357c.691 0 1.298.156 1.819.468a3.94 3.94 0 0 1 1.292 1.249v-1.564h1.989v8.483c0 .657-.125 1.247-.374 1.768-.25.521-.592.963-1.029 1.326a4.59 4.59 0 0 1 -1.563.833 6.509 6.509 0 0 1 -1.981.289c-.975 0-1.793-.161-2.457-.484a4.979 4.979 0 0 1 -1.708-1.369l1.241-1.207c.34.42.768.748 1.283.986a3.868 3.868 0 0 0 1.641.357 3.52 3.52 0 0 0 1.011-.145c.324-.096.61-.246.859-.45.25-.204.445-.465.587-.782.141-.317.212-.691.212-1.122v-1.122c-.295.51-.708.904-1.241 1.181a3.66 3.66 0 0 1 -1.717.417zm.765-1.819c.25 0 .487-.04.714-.119a2.54 2.54 0 0 0 1.139-.799 2.15 2.15 0 0 0 .34-.578v-2.125a2.765 2.765 0 0 0 -.96-1.258c-.437-.317-.893-.476-1.369-.476a1.96 1.96 0 0 0 -.952.23 2.37 2.37 0 0 0 -.731.612c-.204.255-.36.546-.468.875a3.256 3.256 0 0 0 -.161 1.02c0 .363.062.703.187 1.02s.297.595.519.833c.22.238.478.425.773.561s.618.204.969.204zm10.659 1.938c-.714 0-1.36-.122-1.938-.365a4.444 4.444 0 0 1 -1.479-.995 4.415 4.415 0 0 1 -.944-1.462 4.692 4.692 0 0 1 -.331-1.751c0-.635.108-1.232.323-1.793a4.377 4.377 0 0 1 .935-1.48 4.464 4.464 0 0 1 1.487-1.011c.584-.25 1.239-.374 1.964-.374s1.374.125 1.946.374c.573.25 1.06.584 1.463 1.003.402.42.708.907.918 1.462s.314 1.133.314 1.734c0 .147-.003.289-.008.425-.006.136-.02.25-.043.34h-6.885c.034.351.119.663.255.935s.312.504.527.697.459.34.731.442a2.4 2.4 0 0 0 .85.153c.453 0 .881-.11 1.284-.331.402-.222.677-.513.824-.876l1.955.544c-.329.68-.853 1.238-1.572 1.674-.72.437-1.579.655-2.576.655zm2.312-5.372c-.057-.669-.303-1.204-.74-1.607-.436-.402-.966-.603-1.589-.603a2.24 2.24 0 0 0 -2.066 1.309c-.13.272-.206.572-.229.901zm12.019 5.202h-2.278v-4.998c0-.714-.125-1.235-.374-1.564-.25-.329-.595-.493-1.037-.493a1.95 1.95 0 0 0 -.697.136c-.238.09-.462.218-.672.383-.21.164-.399.36-.569.586-.17.227-.295.476-.374.748v5.202h-2.278v-8.908h2.057v1.649a3.374 3.374 0 0 1 1.428-1.326c.623-.317 1.326-.476 2.108-.476.555 0 1.009.102 1.36.306s.623.47.816.799.326.703.4 1.122c.073.42.11.844.11 1.275zm1.428-4.454c0-.623.108-1.213.323-1.768a4.305 4.305 0 0 1 .935-1.462c.408-.42.901-.754 1.479-1.003.578-.25 1.23-.374 1.955-.374.975 0 1.805.21 2.49.629.686.42 1.199.969 1.539 1.649l-2.227.68a2 2 0 0 0 -.765-.756 2.14 2.14 0 0 0 -1.054-.264 2.17 2.17 0 0 0 -.918.195c-.283.13-.53.312-.74.544a2.52 2.52 0 0 0 -.492.842 3.176 3.176 0 0 0 -.179 1.088c0 .397.062.76.187 1.088.125.329.292.612.501.85.21.238.457.422.74.552s.584.196.901.196c.408 0 .785-.102 1.13-.306.346-.204.587-.453.723-.748l2.227.68c-.306.68-.81 1.235-1.513 1.666-.703.43-1.547.646-2.533.646-.725 0-1.377-.125-1.955-.374a4.485 4.485 0 0 1 -1.479-1.011 4.488 4.488 0 0 1 -.944-1.48 4.758 4.758 0 0 1 -.331-1.759zm10.217 6.188a4.147 4.147 0 0 0 1.02.17.974.974 0 0 0 .408-.085.874.874 0 0 0 .34-.297c.102-.142.204-.338.306-.587.102-.25.21-.561.323-.935l-3.519-8.908h2.346l2.414 6.936 2.142-6.936h2.142l-3.74 10.676a3.19 3.19 0 0 1 -1.105 1.53c-.521.397-1.167.595-1.938.595a3.533 3.533 0 0 1 -1.139-.187zm560.942-13.804v12.07h-2.329v-5.151h-5.474v5.151h-2.346v-12.07h2.346v4.879h5.474v-4.879zm6.29 12.24c-.725 0-1.377-.125-1.955-.374a4.39 4.39 0 0 1 -1.47-1.011 4.465 4.465 0 0 1 -.927-1.471 4.8 4.8 0 0 1 -.323-1.751c0-.623.108-1.213.323-1.768a4.465 4.465 0 0 1 .926-1.47 4.39 4.39 0 0 1 1.471-1.012c.578-.25 1.23-.374 1.955-.374s1.374.125 1.947.374c.572.25 1.06.586 1.462 1.012.402.425.71.915.926 1.47.215.555.323 1.145.323 1.768a4.8 4.8 0 0 1 -.323 1.751 4.537 4.537 0 0 1 -.918 1.47 4.299 4.299 0 0 1 -1.462 1.012c-.578.25-1.23.374-1.955.374zm-2.329-4.607c0 .397.06.756.178 1.08.12.323.284.603.493.841a2.17 2.17 0 0 0 1.658.748 2.17 2.17 0 0 0 1.658-.748c.21-.238.373-.521.492-.85.12-.329.179-.691.179-1.088 0-.385-.06-.742-.178-1.071a2.619 2.619 0 0 0 -.493-.85 2.17 2.17 0 0 0 -1.658-.748c-.329 0-.635.068-.918.204s-.53.323-.74.561-.373.521-.492.85a3.123 3.123 0 0 0 -.179 1.071zm13.736 3.978c-.306.136-.68.272-1.122.408a4.714 4.714 0 0 1 -1.394.204c-.317 0-.615-.04-.892-.119a1.963 1.963 0 0 1 -.731-.382 1.868 1.868 0 0 1 -.502-.68c-.125-.278-.187-.615-.187-1.012v-5.117h-1.173v-1.751h1.173v-2.89h2.278v2.89h1.87v1.751h-1.87v4.352c0 .317.082.541.247.672a.94.94 0 0 0 .603.195c.238 0 .47-.04.697-.119.227-.08.408-.147.544-.204zm5.1.629c-.714 0-1.36-.122-1.938-.365a4.444 4.444 0 0 1 -1.479-.995 4.415 4.415 0 0 1 -.944-1.462 4.692 4.692 0 0 1 -.331-1.751c0-.635.108-1.232.323-1.793a4.377 4.377 0 0 1 .935-1.48 4.464 4.464 0 0 1 1.488-1.011c.583-.25 1.238-.374 1.963-.374s1.374.125 1.947.374c.572.25 1.06.584 1.462 1.003.402.42.708.907.918 1.462s.314 1.133.314 1.734c0 .147-.003.289-.008.425-.006.136-.02.25-.043.34h-6.885c.034.351.119.663.255.935s.312.504.527.697.459.34.731.442a2.4 2.4 0 0 0 .85.153c.453 0 .881-.11 1.284-.331.402-.222.677-.513.824-.876l1.955.544c-.329.68-.853 1.238-1.572 1.674-.72.437-1.579.655-2.576.655zm2.312-5.372c-.057-.669-.303-1.204-.74-1.607-.436-.402-.966-.603-1.589-.603a2.24 2.24 0 0 0 -2.066 1.309c-.13.272-.206.572-.229.901zm3.723-7.208h2.278v9.554c0 .329.08.584.238.765.159.181.385.272.68.272.136 0 .286-.023.45-.068.165-.045.32-.102.468-.17l.306 1.734a4.45 4.45 0 0 1 -1.071.34c-.408.08-.776.119-1.105.119-.714 0-1.266-.19-1.657-.57-.392-.38-.587-.92-.587-1.623zm9.18 12.41v-12.07h5.117c.555 0 1.068.116 1.538.349.47.232.876.538 1.216.917.34.38.606.81.799 1.292s.289.967.289 1.454c0 .51-.09 1.006-.272 1.487a4.13 4.13 0 0 1 -.765 1.284 3.758 3.758 0 0 1 -1.19.901 3.44 3.44 0 0 1 -1.53.34h-2.856v4.046zm2.346-6.103h2.72c.43 0 .79-.176 1.08-.527.289-.351.433-.827.433-1.428 0-.306-.045-.58-.136-.825-.09-.243-.21-.45-.357-.62a1.42 1.42 0 0 0 -.519-.383 1.52 1.52 0 0 0 -.603-.127h-2.618zm18.088 6.103v-7.99l-3.111 5.95h-1.275l-3.111-5.95v7.99h-2.346v-12.07h2.516l3.57 6.868 3.604-6.868h2.499v12.07zm12.053-8.908a2.9 2.9 0 0 0 -.433-.323 5.268 5.268 0 0 0 -.765-.4c-.3-.13-.627-.24-.978-.331a4.27 4.27 0 0 0 -1.071-.136c-.646 0-1.128.119-1.445.357s-.476.572-.476 1.003c0 .25.06.456.178.62.12.165.292.31.519.434.227.125.513.238.859.34.345.102.745.21 1.198.323.59.159 1.125.329 1.606.51.482.181.89.408 1.225.68.334.272.592.598.773.977.181.38.272.848.272 1.403 0 .646-.122 1.198-.365 1.657a3.07 3.07 0 0 1 -.987 1.114c-.413.283-.89.49-1.428.62a7.165 7.165 0 0 1 -1.691.196 9.086 9.086 0 0 1 -2.686-.408 8.293 8.293 0 0 1 -2.38-1.156l1.037-2.023c.102.102.286.235.552.4.267.164.581.328.944.492a7.34 7.34 0 0 0 1.207.417c.442.113.895.17 1.36.17 1.292 0 1.938-.414 1.938-1.241 0-.26-.074-.482-.221-.663a1.875 1.875 0 0 0 -.629-.476 6.02 6.02 0 0 0 -.986-.374c-.385-.113-.816-.238-1.292-.374a10.984 10.984 0 0 1 -1.505-.519 3.955 3.955 0 0 1 -1.062-.662 2.484 2.484 0 0 1 -.637-.885c-.142-.334-.213-.733-.213-1.198 0-.612.113-1.156.34-1.632s.541-.873.943-1.19a4.28 4.28 0 0 1 1.403-.722 5.795 5.795 0 0 1 1.717-.247c.85 0 1.632.133 2.346.4.714.266 1.337.58 1.87.943z"/><path d="m554.902 119.946v1.054h-5.763v-1.054h2.414v-7.276c-.09.136-.246.283-.467.442a5.681 5.681 0 0 1 -1.556.782 2.52 2.52 0 0 1 -.748.136v-1.122c.26 0 .547-.074.858-.221a6.13 6.13 0 0 0 .885-.51c.277-.193.512-.374.705-.544s.3-.283.323-.34h1.19v8.653zm1.479 1.054v-1.666h1.003v1.666zm7.956 0v-12.07h1.19v12.07zm11.424 0h-1.156v-4.947c0-1.054-.156-1.819-.467-2.295-.312-.476-.791-.714-1.437-.714-.34 0-.68.062-1.02.187s-.654.3-.944.527a4.034 4.034 0 0 0 -.773.808 3.165 3.165 0 0 0 -.493 1.011v5.423h-1.156v-8.857h1.054v2.006a4.16 4.16 0 0 1 1.555-1.564 4.265 4.265 0 0 1 2.202-.595c.487 0 .901.09 1.241.272.34.181.612.436.816.765s.351.731.442 1.207a8.53 8.53 0 0 1 .136 1.581zm4.913 0-3.604-8.857h1.19l3.043 7.786 3.06-7.786h1.122l-3.604 8.857zm9.928.17a4.258 4.258 0 0 1 -3.179-1.368 4.657 4.657 0 0 1 -.927-1.471 4.783 4.783 0 0 1 -.331-1.785 4.658 4.658 0 0 1 1.25-3.205 4.357 4.357 0 0 1 1.402-.985 4.275 4.275 0 0 1 1.768-.366 4.223 4.223 0 0 1 3.162 1.36 4.668 4.668 0 0 1 1.224 3.179v.272c0 .09-.006.153-.017.187h-7.582a3.703 3.703 0 0 0 1.054 2.363c.295.295.632.524 1.011.689.38.164.785.246 1.216.246.283 0 .567-.04.85-.119.283-.08.544-.187.782-.323s.453-.303.646-.501c.193-.199.34-.417.442-.655l1.003.272a2.945 2.945 0 0 1 -.578.893c-.25.266-.538.498-.867.697a4.246 4.246 0 0 1 -1.088.459c-.397.107-.81.161-1.241.161zm3.264-5.066a3.54 3.54 0 0 0 -1.045-2.312 3.158 3.158 0 0 0 -2.219-.901 3.183 3.183 0 0 0 -2.236.901 3.258 3.258 0 0 0 -.697 1.02c-.175.397-.28.827-.314 1.292zm10.336 4.896h-1.156v-4.947c0-1.054-.156-1.819-.468-2.295-.311-.476-.79-.714-1.436-.714-.34 0-.68.062-1.02.187s-.654.3-.943.527a4.034 4.034 0 0 0 -.774.808 3.165 3.165 0 0 0 -.493 1.011v5.423h-1.156v-8.857h1.054v2.006a4.16 4.16 0 0 1 1.556-1.564 4.265 4.265 0 0 1 2.201-.595c.487 0 .901.09 1.241.272.34.181.612.436.816.765s.351.731.442 1.207a8.53 8.53 0 0 1 .136 1.581zm6.63-.425a5.503 5.503 0 0 1 -1.326.459 3.294 3.294 0 0 1 -.68.068 2.47 2.47 0 0 1 -.714-.102 1.665 1.665 0 0 1 -.595-.314 1.548 1.548 0 0 1 -.408-.536 1.729 1.729 0 0 1 -.153-.748v-6.341h-1.224v-.918h1.224v-2.992h1.156v2.992h2.04v.918h-2.04v6.018c.023.329.139.57.349.723s.45.229.722.229c.329 0 .618-.054.867-.162.25-.107.408-.184.476-.229zm4.998.595a4.2 4.2 0 0 1 -1.768-.365 4.345 4.345 0 0 1 -1.385-.995 4.513 4.513 0 0 1 -.91-1.462 4.8 4.8 0 0 1 -.323-1.751 4.737 4.737 0 0 1 1.25-3.23c.39-.42.852-.754 1.385-1.003a4.079 4.079 0 0 1 1.751-.374c.635 0 1.221.125 1.76.374a4.43 4.43 0 0 1 1.394 1.003 4.737 4.737 0 0 1 1.25 3.23 4.8 4.8 0 0 1 -.324 1.751 4.513 4.513 0 0 1 -.91 1.462 4.258 4.258 0 0 1 -3.17 1.36zm-3.213-4.556c0 .499.085.96.255 1.385.17.426.4.8.689 1.123s.628.575 1.02.756c.39.181.807.272 1.249.272a2.86 2.86 0 0 0 1.25-.28 3.318 3.318 0 0 0 1.028-.766c.295-.323.527-.7.697-1.13s.255-.895.255-1.394c0-.487-.085-.95-.255-1.385a3.621 3.621 0 0 0 -.697-1.14 3.318 3.318 0 0 0 -1.028-.765 2.86 2.86 0 0 0 -1.25-.28c-.442 0-.856.093-1.241.28a3.29 3.29 0 0 0 -1.02.774 3.728 3.728 0 0 0 -.697 1.148c-.17.436-.255.903-.255 1.402zm13.974-3.451c-.782.023-1.462.238-2.04.646s-.986.969-1.224 1.683v5.508h-1.156v-8.857h1.088v2.125c.329-.68.77-1.213 1.326-1.598.555-.385 1.15-.578 1.785-.578.09 0 .164.006.221.017zm2.057 10.557a4.586 4.586 0 0 0 .51.034c.204 0 .365-.028.485-.085.119-.057.235-.181.348-.374s.24-.47.383-.833c.141-.363.342-.85.603-1.462l-3.859-8.857h1.19l3.281 7.786 3.043-7.786h1.105l-4.59 11.424a2.078 2.078 0 0 1 -.62.859c-.29.243-.683.365-1.182.365a3.979 3.979 0 0 1 -.697-.051zm-396.9-2.72c0-.385.034-.773.102-1.165a4.06 4.06 0 0 1 .4-1.164c.198-.385.481-.756.85-1.114.368-.357.858-.694 1.47-1.011.329-.17.671-.337 1.029-.502.357-.164.685-.348.986-.552.3-.204.546-.433.739-.689a1.44 1.44 0 0 0 .289-.892c0-.215-.048-.428-.144-.638a1.675 1.675 0 0 0 -.425-.56 2.184 2.184 0 0 0 -.698-.4 2.833 2.833 0 0 0 -.977-.153 2.91 2.91 0 0 0 -1.003.162 3.645 3.645 0 0 0 -.774.382 3.44 3.44 0 0 0 -.569.468 5.329 5.329 0 0 0 -.357.399l-.765-.833c.068-.068.198-.193.391-.374s.445-.363.756-.544a6.002 6.002 0 0 1 1.097-.484c.42-.142.89-.213 1.411-.213s.986.07 1.394.212.754.338 1.037.587c.283.25.499.535.646.859.147.323.221.66.221 1.011 0 .465-.102.867-.306 1.207a3.44 3.44 0 0 1 -.756.884c-.3.25-.621.462-.961.638-.34.175-.646.325-.918.45a11.12 11.12 0 0 0 -1.063.535 5.737 5.737 0 0 0 -.926.655 3.315 3.315 0 0 0 -.672.799 1.889 1.889 0 0 0 -.263.986h6.052v1.054zm9.214 0v-1.666h1.003v1.666zm15.011-9.809c-.34-.385-.793-.697-1.36-.935s-1.213-.357-1.938-.357c-1.065 0-1.842.201-2.329.603-.487.403-.731.95-.731 1.641 0 .363.065.66.195.892.13.233.332.434.604.604s.62.317 1.046.442c.425.125.926.25 1.504.374.646.136 1.227.289 1.743.459.515.17.954.382 1.317.638.363.255.64.563.833.926s.289.816.289 1.36c0 .555-.108 1.037-.323 1.445a2.88 2.88 0 0 1 -.901 1.02 4.018 4.018 0 0 1 -1.377.603 7.363 7.363 0 0 1 -1.751.196c-1.87 0-3.485-.584-4.845-1.751l.595-.969c.215.227.473.442.773.646s.635.382 1.004.535c.368.154.762.272 1.181.358.42.084.861.127 1.326.127.963 0 1.714-.173 2.252-.519.539-.345.808-.87.808-1.572 0-.374-.076-.688-.23-.944a1.988 1.988 0 0 0 -.688-.663 4.878 4.878 0 0 0 -1.139-.484c-.453-.136-.98-.272-1.581-.408-.635-.147-1.19-.3-1.666-.459a4.441 4.441 0 0 1 -1.207-.595 2.318 2.318 0 0 1 -.74-.858c-.164-.335-.246-.746-.246-1.233 0-.555.105-1.051.315-1.487.21-.437.507-.8.892-1.088.385-.29.839-.51 1.36-.663a6.11 6.11 0 0 1 1.734-.23c.805 0 1.521.122 2.15.365a5.775 5.775 0 0 1 1.709 1.029zm6.851 9.979a4.258 4.258 0 0 1 -3.179-1.368 4.657 4.657 0 0 1 -.926-1.471 4.783 4.783 0 0 1 -.332-1.785 4.658 4.658 0 0 1 1.25-3.205 4.357 4.357 0 0 1 1.402-.985 4.275 4.275 0 0 1 1.768-.366 4.223 4.223 0 0 1 3.162 1.36 4.668 4.668 0 0 1 1.224 3.179v.272c0 .09-.006.153-.017.187h-7.582a3.703 3.703 0 0 0 1.054 2.363c.295.295.632.524 1.011.689.38.164.785.246 1.216.246.283 0 .567-.04.85-.119.283-.08.544-.187.782-.323s.453-.303.646-.501c.193-.199.34-.417.442-.655l1.003.272a2.945 2.945 0 0 1 -.578.893c-.25.266-.538.498-.867.697a4.246 4.246 0 0 1 -1.088.459c-.397.107-.81.161-1.241.161zm3.264-5.066a3.54 3.54 0 0 0 -1.046-2.312 3.158 3.158 0 0 0 -2.218-.901 3.183 3.183 0 0 0 -2.236.901 3.258 3.258 0 0 0 -.697 1.02c-.175.397-.28.827-.314 1.292zm5.117 5.066c-.42 0-.807-.07-1.164-.213a2.939 2.939 0 0 1 -.935-.586 2.652 2.652 0 0 1 -.842-1.955c0-.385.09-.742.272-1.071.181-.329.436-.612.765-.85s.72-.422 1.173-.553c.453-.13.952-.195 1.496-.195.453 0 .912.04 1.377.119.465.08.878.193 1.241.34v-.799c0-.782-.221-1.402-.663-1.861-.442-.46-1.054-.689-1.836-.689-.453 0-.918.09-1.394.272a6.723 6.723 0 0 0 -1.445.782l-.408-.765c1.145-.77 2.255-1.156 3.332-1.156 1.11 0 1.983.312 2.618.935s.952 1.485.952 2.584v3.995c0 .317.142.476.425.476v1.02a2.76 2.76 0 0 1 -.442.051c-.295 0-.524-.074-.688-.221-.165-.147-.253-.351-.264-.612l-.034-.697c-.408.533-.92.94-1.538 1.224a4.733 4.733 0 0 1 -1.998.425zm.272-.884c.6 0 1.153-.113 1.658-.34.504-.227.886-.527 1.147-.901.102-.102.179-.212.23-.332a.847.847 0 0 0 .076-.331v-1.445a7.086 7.086 0 0 0 -1.199-.34 6.71 6.71 0 0 0 -1.266-.119c-.816 0-1.479.17-1.989.51s-.765.788-.765 1.343c0 .272.054.527.161.765.108.238.255.445.443.62.187.176.41.315.671.417.26.102.538.153.833.153zm11.186-7.123c-.782.023-1.462.238-2.04.646s-.986.969-1.224 1.683v5.508h-1.156v-8.857h1.088v2.125c.329-.68.77-1.213 1.326-1.598.555-.385 1.15-.578 1.785-.578.09 0 .164.006.221.017zm.493 3.383c0-.623.108-1.213.323-1.768s.518-1.04.91-1.454a4.25 4.25 0 0 1 1.402-.977 4.448 4.448 0 0 1 1.802-.357c.839 0 1.57.19 2.193.57s1.094.892 1.411 1.538l-1.122.357a2.693 2.693 0 0 0 -1.046-1.063 2.952 2.952 0 0 0 -1.487-.382c-.453 0-.875.09-1.266.272a3.23 3.23 0 0 0 -1.02.74 3.4 3.4 0 0 0 -.68 1.113 3.91 3.91 0 0 0 -.247 1.411c0 .499.085.969.255 1.411a3.6 3.6 0 0 0 .697 1.148 3.31 3.31 0 0 0 1.029.764c.39.188.807.281 1.249.281.283 0 .564-.04.841-.119.278-.08.536-.19.774-.332a2.77 2.77 0 0 0 .612-.484c.17-.181.289-.374.357-.578l1.139.34c-.125.317-.306.61-.544.876a3.753 3.753 0 0 1 -.841.697 4.13 4.13 0 0 1 -1.072.459 4.558 4.558 0 0 1 -1.215.161 4.316 4.316 0 0 1 -3.196-1.368 4.657 4.657 0 0 1 -.926-1.471 4.783 4.783 0 0 1 -.332-1.785zm17.391 4.454h-1.156v-4.947c0-1.009-.173-1.762-.519-2.261-.345-.499-.852-.748-1.521-.748-.329 0-.654.065-.978.196a3.68 3.68 0 0 0 -1.649 1.334c-.21.306-.365.64-.467 1.003v5.423h-1.156v-12.41h1.156v5.559a4.016 4.016 0 0 1 1.462-1.581 3.777 3.777 0 0 1 2.023-.578c.51 0 .94.093 1.292.28.351.188.64.448.867.782.227.335.391.737.493 1.207s.153.99.153 1.556zm-70.716 71.988c.748.125 1.346.465 1.794 1.02.447.555.671 1.241.671 2.057 0 .51-.093.977-.28 1.403a3.05 3.05 0 0 1 -.8 1.088c-.345.3-.759.532-1.24.696a4.952 4.952 0 0 1 -1.607.247c-.861 0-1.615-.173-2.261-.518a3.472 3.472 0 0 1 -1.462-1.437l.799-.731c.238.499.6.895 1.088 1.19.487.295 1.1.442 1.836.442.85 0 1.519-.207 2.006-.62.487-.414.731-1.006.731-1.777 0-.782-.255-1.4-.765-1.853s-1.247-.68-2.21-.68h-.425v-.986h.459c.873 0 1.541-.201 2.006-.603.465-.403.697-.927.697-1.573 0-.34-.062-.64-.187-.901a1.836 1.836 0 0 0 -.519-.654 2.319 2.319 0 0 0 -.781-.4c-.3-.09-.627-.136-.978-.136-.646 0-1.215.144-1.708.434a2.774 2.774 0 0 0 -1.114 1.198l-.748-.714a2.72 2.72 0 0 1 .578-.808c.25-.243.533-.45.85-.62a4.57 4.57 0 0 1 1.054-.4 4.888 4.888 0 0 1 1.19-.144c.521 0 1 .074 1.436.221a3.45 3.45 0 0 1 1.131.62c.317.267.564.587.74.961.175.374.263.788.263 1.241 0 .34-.051.666-.153.977a2.67 2.67 0 0 1 -.442.833 2.536 2.536 0 0 1 -.706.612c-.277.165-.592.27-.943.315zm4.352 4.012v-1.666h1.003v1.666zm7.956 0v-12.07h4.998c.521 0 1 .11 1.436.332.437.22.814.51 1.131.867s.567.762.748 1.215.272.912.272 1.377c0 .499-.085.977-.255 1.436-.17.46-.408.865-.714 1.216a3.59 3.59 0 0 1 -1.096.85 3.095 3.095 0 0 1 -1.42.323h-3.91v4.454zm1.19-5.508h3.859c.351 0 .671-.076.96-.23.29-.153.536-.356.74-.612.204-.255.363-.55.476-.883.113-.335.17-.683.17-1.046a2.9 2.9 0 0 0 -.195-1.063 2.886 2.886 0 0 0 -.528-.875 2.407 2.407 0 0 0 -.781-.587 2.186 2.186 0 0 0 -.944-.212h-3.757zm11.917 5.678c-.963 0-1.68-.32-2.15-.96s-.706-1.596-.706-2.865v-5.202h1.156v4.998c0 2.006.686 3.009 2.057 3.009a3.151 3.151 0 0 0 1.912-.663 3.89 3.89 0 0 0 1.284-1.768v-5.576h1.156v7.361c0 .317.136.476.408.476v1.02a2.107 2.107 0 0 1 -.332.034h-.178a.923.923 0 0 1 -.663-.289c-.17-.181-.255-.425-.255-.731v-1.02a4.123 4.123 0 0 1 -1.572 1.607 4.193 4.193 0 0 1 -2.117.569zm11.747-8.007c-.782.023-1.462.238-2.04.646s-.986.969-1.224 1.683v5.508h-1.156v-8.857h1.088v2.125c.329-.68.77-1.213 1.326-1.598.555-.385 1.15-.578 1.785-.578.09 0 .164.006.221.017zm.493 3.383c0-.623.108-1.213.323-1.768s.518-1.04.91-1.453a4.25 4.25 0 0 1 1.402-.978 4.448 4.448 0 0 1 1.802-.357c.839 0 1.57.19 2.193.57s1.094.892 1.411 1.538l-1.122.357a2.693 2.693 0 0 0 -1.045-1.063 2.952 2.952 0 0 0 -1.488-.382c-.453 0-.875.09-1.267.272a3.23 3.23 0 0 0 -1.02.74 3.4 3.4 0 0 0 -.68 1.113 3.93 3.93 0 0 0 -.246 1.411c0 .499.085.969.255 1.411a3.6 3.6 0 0 0 .697 1.148 3.31 3.31 0 0 0 1.029.764c.39.188.807.281 1.249.281.283 0 .564-.04.841-.119.278-.08.536-.19.774-.332a2.77 2.77 0 0 0 .612-.484c.17-.181.289-.374.357-.578l1.139.34a2.89 2.89 0 0 1 -.544.875 3.753 3.753 0 0 1 -.841.697 4.13 4.13 0 0 1 -1.071.46 4.558 4.558 0 0 1 -1.216.161 4.316 4.316 0 0 1 -3.196-1.368 4.657 4.657 0 0 1 -.927-1.471 4.783 4.783 0 0 1 -.331-1.785zm17.391 4.454h-1.156v-4.947c0-1.009-.173-1.762-.519-2.261-.345-.499-.852-.748-1.521-.748-.329 0-.654.065-.977.195a3.68 3.68 0 0 0 -1.649 1.335 3.37 3.37 0 0 0 -.468 1.003v5.423h-1.156v-12.41h1.156v5.559a4.016 4.016 0 0 1 1.462-1.581 3.777 3.777 0 0 1 2.023-.578c.51 0 .94.093 1.292.28.351.188.64.448.867.782.227.335.391.737.493 1.208.102.47.153.988.153 1.555zm4.692.17c-.42 0-.807-.07-1.165-.212a2.939 2.939 0 0 1 -.935-.587 2.652 2.652 0 0 1 -.841-1.955c0-.385.09-.742.272-1.071.181-.329.436-.612.765-.85s.72-.422 1.173-.553c.453-.13.952-.195 1.496-.195.453 0 .912.04 1.377.119.465.08.878.193 1.241.34v-.799c0-.782-.221-1.402-.663-1.862-.442-.459-1.054-.688-1.836-.688-.453 0-.918.09-1.394.272a6.723 6.723 0 0 0 -1.445.782l-.408-.765c1.145-.77 2.255-1.156 3.332-1.156 1.11 0 1.983.312 2.618.935s.952 1.485.952 2.584v3.995c0 .317.142.476.425.476v1.02a2.76 2.76 0 0 1 -.442.051c-.295 0-.524-.074-.689-.221-.164-.147-.252-.351-.263-.612l-.034-.697c-.408.533-.92.94-1.538 1.224a4.733 4.733 0 0 1 -1.998.425zm.272-.884c.6 0 1.153-.113 1.657-.34.505-.227.887-.527 1.148-.901.102-.102.178-.212.23-.331a.847.847 0 0 0 .076-.332v-1.445a7.086 7.086 0 0 0 -1.199-.34 6.71 6.71 0 0 0 -1.266-.119c-.816 0-1.479.17-1.989.51s-.765.788-.765 1.343c0 .272.054.527.161.765.108.238.255.445.442.62.188.176.411.315.672.417.26.102.538.153.833.153zm9.707.884a6.164 6.164 0 0 1 -2.023-.34 4.862 4.862 0 0 1 -1.7-.986l.527-.782a5.764 5.764 0 0 0 1.522.918 4.464 4.464 0 0 0 1.657.306c.714 0 1.283-.144 1.709-.434.425-.289.637-.7.637-1.232 0-.25-.057-.456-.17-.62a1.472 1.472 0 0 0 -.502-.434 3.915 3.915 0 0 0 -.832-.332 22.662 22.662 0 0 0 -1.165-.297c-.51-.125-.952-.25-1.326-.374a4.055 4.055 0 0 1 -.927-.425 1.533 1.533 0 0 1 -.543-.587c-.12-.232-.179-.524-.179-.875 0-.442.088-.833.264-1.173.175-.34.413-.62.714-.841.3-.222.651-.389 1.053-.502a4.73 4.73 0 0 1 1.284-.17c.68 0 1.298.11 1.853.331.555.222 1.003.513 1.343.876l-.561.68a3.11 3.11 0 0 0 -1.198-.765 4.294 4.294 0 0 0 -1.471-.255c-.306 0-.59.031-.85.094a2.04 2.04 0 0 0 -.688.297 1.466 1.466 0 0 0 -.468.519c-.113.21-.17.456-.17.739 0 .238.04.43.119.578.08.147.21.275.391.382.181.108.41.204.688.29.278.084.615.172 1.012.263.567.136 1.065.272 1.496.408.43.136.79.295 1.08.476.289.181.507.402.654.663.147.26.221.578.221.952 0 .816-.312 1.462-.935 1.938s-1.462.714-2.516.714zm9.163 0a4.258 4.258 0 0 1 -3.179-1.368 4.657 4.657 0 0 1 -.926-1.471 4.783 4.783 0 0 1 -.332-1.785 4.658 4.658 0 0 1 1.25-3.205 4.357 4.357 0 0 1 1.402-.986 4.275 4.275 0 0 1 1.768-.365c.646 0 1.238.122 1.776.365.539.244 1 .576 1.386.995a4.668 4.668 0 0 1 1.224 3.179v.272c0 .09-.006.153-.017.187h-7.582a3.703 3.703 0 0 0 1.054 2.363c.295.295.632.524 1.011.689.38.164.785.246 1.216.246.283 0 .567-.04.85-.119.283-.08.544-.187.782-.323s.453-.303.646-.501c.193-.199.34-.417.442-.655l1.003.272a2.945 2.945 0 0 1 -.578.892c-.25.267-.538.5-.867.697a4.246 4.246 0 0 1 -1.088.46c-.397.107-.81.161-1.241.161zm3.264-5.066a3.54 3.54 0 0 0 -1.046-2.312 3.158 3.158 0 0 0 -2.218-.901 3.183 3.183 0 0 0 -2.236.901 3.258 3.258 0 0 0 -.697 1.02c-.175.397-.28.827-.314 1.292z" opacity=".3"/><path d="m716.321 179h55.358c.995 0 1.8-.802 1.8-1.792v-.686c0-.989-.804-1.79-1.8-1.79h-2.085v-44.412c0-2.765-2.149-5.005-4.8-5.005h-41.586c-2.65 0-4.8 2.24-4.8 5.005v44.412h-2.087c-.994 0-1.8.801-1.8 1.791v.686c0 .987.805 1.791 1.8 1.791zm36.516-46.593h9.296v6.533h-9.296zm0 11.597h9.296v6.532h-9.296zm0 11.597h9.296v6.53h-9.296zm-13.57-22.906h9.112v6.404h-9.112zm0 11.383h9.112v6.405h-9.112zm0 11.385h9.112v13.406h-9.112zm-13.4-22.768h9.113v6.404h-9.113zm0 11.383h9.113v6.405h-9.113zm0 11.385h9.113v6.401h-9.113zm11.696-36.942c.118-.119.078-.238-.089-.263l-2.543-.388a.637.637 0 0 1 -.432-.321l-1.149-2.435c-.072-.152-.189-.152-.26 0l-1.15 2.435a.639.639 0 0 1 -.431.321l-2.543.388c-.168.024-.208.143-.09.263l1.851 1.888a.68.68 0 0 1 .165.52l-.44 2.68c-.026.165.072.234.22.153l2.28-1.256a.616.616 0 0 1 .535 0l2.28 1.256c.149.081.246.014.22-.153l-.44-2.68a.68.68 0 0 1 .166-.52zm10.717 0c.12-.119.078-.238-.09-.263l-2.54-.388a.64.64 0 0 1 -.432-.321l-1.149-2.435c-.071-.152-.188-.152-.258 0l-1.149 2.435a.644.644 0 0 1 -.433.321l-2.543.388c-.167.024-.207.143-.088.263l1.85 1.888a.685.685 0 0 1 .164.52l-.44 2.68c-.025.165.072.234.22.153l2.28-1.256a.616.616 0 0 1 .536 0l2.28 1.256c.147.081.244.014.218-.153l-.439-2.68a.67.67 0 0 1 .165-.52zm10.844.071c.119-.12.077-.238-.09-.264l-2.604-.397a.635.635 0 0 1 -.433-.322l-1.176-2.495c-.072-.151-.189-.151-.26 0l-1.176 2.495a.65.65 0 0 1 -.433.322l-2.606.397c-.167.025-.208.144-.09.264l1.897 1.935c.118.12.19.353.163.519l-.448 2.745c-.027.167.07.236.217.154l2.337-1.286a.617.617 0 0 1 .537 0l2.335 1.286c.149.082.246.013.22-.154l-.451-2.745a.677.677 0 0 1 .166-.519zm-657.059 59.408s8.108-18.836 30.81-16.092v16.092zm6.736-12.225c-6.237 4.865-8.857 10.853-9.106 11.227l-.375.998h-26.32s8.482-14.096 27.942-13.347l-9.356-25.822c-1.746 1.497-2.62 3.992-1.746 6.362.25.624-.125 1.372-.748 1.622-.624.25-1.373 0-1.622-.749-.998-2.869-4.366-4.49-7.235-3.368-1.497.624-2.62 1.622-3.243 2.994-.624 1.372-.749 2.87-.25 4.366.25.624-.125 1.372-.748 1.622-.624.25-1.372 0-1.622-.749-3.992-10.977 1.123-23.077 11.601-27.817l-.873-2.495c-.374-.998.125-1.996 1.123-2.495.997-.374 1.995.125 2.37 1.123l.873 2.495c10.977-2.87 22.578 2.869 26.445 13.846 0 .125.125.125.125.25.25.623-.125 1.372-.749 1.621-.623.25-1.372 0-1.621-.748-.998-2.87-4.242-4.491-7.235-3.368-2.87.998-4.491 4.24-3.368 7.235.25.623-.125 1.372-.749 1.621-.624.25-1.372 0-1.621-.748-.874-2.37-2.994-3.742-5.364-3.742l9.73 26.819c.124.125.124.374.124.624 1.123.124 2.37.374 3.618.623zm17.713-33.056a6.362 6.362 0 1 1 0-12.724 6.362 6.362 0 0 1 0 12.724z" fill-rule="nonzero"/><path d="m23.153 289.964v1.965c3.53.562 6.776 1.825 9.459 3.51 1.553 1.122 2.964 7.017 3.388 8.561h-36c.424-1.544 1.694-7.439 3.388-8.562 2.541-1.684 5.93-2.947 9.46-3.509v-1.965c-1.413-1.263-2.4-3.228-2.824-5.334-1.695 0-3.812-6.737-.989-6.456-1.411-3.65 0-8.562 2.683-10.246-1.977-3.51-.424-.983 7.623-1.825 2.259-.14 4.377 1.263 4.659 3.228 3.953.14 3.953 5.755 2.824 8.843 2.964-.421.847 6.597-.989 6.456-.282 2.106-1.27 4.07-2.682 5.334zm0-266v1.965c3.53.562 6.776 1.825 9.459 3.51 1.553 1.121 2.964 7.016 3.388 8.561h-36c.424-1.544 1.694-7.439 3.388-8.562 2.541-1.684 5.93-2.947 9.46-3.509v-1.965c-1.413-1.263-2.4-3.228-2.824-5.334-1.695 0-3.812-6.737-.989-6.456-1.411-3.65 0-8.562 2.683-10.246-1.978-3.51-.424-.983 7.622-1.825 2.26-.14 4.378 1.263 4.66 3.228 3.953.14 3.953 5.755 2.824 8.843 2.964-.421.847 6.597-.989 6.456-.282 2.106-1.27 4.07-2.682 5.334z"/><g opacity=".6"><path d="m104 234v8h-2v-6h-6v-2z"/><path d="m55.289 276-1.289-1.542 47.711-39.458 1.289 1.542z" fill-rule="nonzero"/></g><g opacity=".6"><path d="m104 84v-8h-2v6h-6v2z"/><path d="m55.289 42-1.289 1.542 47.711 39.458 1.289-1.542z" fill-rule="nonzero"/></g></g></svg>