<svg width="300" height="100" xmlns="http://www.w3.org/2000/svg"><g id="Page-1" fill="none" fill-rule="evenodd"><g id="brussels" fill-rule="nonzero"><g id="Brussels_Airlines_logo" transform="translate(8 27)"><path d="M10.613 38.556c0 1.842-2.052 3.326-4.6 3.326-2.539 0-4.588-1.484-4.588-3.326 0-1.834 2.052-3.335 4.594-3.335 2.542-.005 4.594 1.495 4.594 3.335m3.209-7.946c0 1.542-1.795 2.786-4.024 2.8-2.234-.014-4.035-1.258-4.035-2.8 0-1.543 1.8-2.767 4.035-2.767 2.229-.008 4.024 1.224 4.024 2.767m2.637-6.63c0 1.234-1.534 2.24-3.429 2.245-1.9 0-3.443-1.005-3.443-2.246 0-1.232 1.545-2.24 3.443-2.24 1.895 0 3.429 1.014 3.429 2.24M23.473 5.88c-.006.487-.801.885-1.79.885-.99 0-1.796-.398-1.796-.885 0-.496.807-.885 1.796-.885s1.784.387 1.79.885M25.545.759c0 .353-.602.633-1.346.633-.75 0-1.345-.28-1.35-.633 0-.347.6-.641 1.35-.641.744 0 1.346.294 1.346.64m-.978 2.428c0 .412-.69.734-1.559.74-.852 0-1.547-.328-1.547-.74 0-.403.695-.73 1.547-.73.866 0 1.559.327 1.559.73m-5.882 14.969c0 1-1.309 1.806-2.924 1.806-1.605 0-2.916-.806-2.916-1.806 0-.994 1.308-1.809 2.915-1.809 1.616.003 2.925.815 2.925 1.81m1.929-4.853c0 .79-1.114 1.442-2.502 1.442-1.377 0-2.491-.653-2.491-1.442 0-.807 1.114-1.456 2.49-1.456 1.389 0 2.503.65 2.503 1.456m.718 24.699c0 1.66-1.867 2.99-4.17 2.99-2.302 0-4.175-1.336-4.175-2.99 0-1.655 1.873-3.002 4.17-3.002 2.308 0 4.175 1.344 4.175 3.002m9.174-2.487c0 1.459-1.684 2.635-3.762 2.635-2.072 0-3.756-1.176-3.756-2.635 0-1.459 1.684-2.651 3.756-2.651 2.075-.003 3.762 1.19 3.762 2.651m4.683-5.082c0 1.143-1.377 2.078-3.087 2.078-1.69 0-3.066-.935-3.066-2.078 0-1.162 1.376-2.097 3.066-2.097 1.705 0 3.087.935 3.087 2.097m-4.48-9.061c0 .768-1.006 1.38-2.235 1.38-1.245 0-2.251-.612-2.251-1.38 0-.761 1.006-1.391 2.251-1.391 1.232 0 2.235.627 2.235 1.391M22.264 9.246c0 .638-.946 1.159-2.12 1.159-1.166 0-2.115-.524-2.115-1.16 0-.635.95-1.15 2.115-1.15 1.171 0 2.12.518 2.12 1.15M34.368 25.16c0 .936-1.166 1.69-2.616 1.69-1.44 0-2.608-.76-2.608-1.69 0-.918 1.169-1.682 2.616-1.682 1.44.006 2.608.764 2.608 1.683" id="Shape" fill="#EE452A"/><path d="M48.986 37.859V13.213h4.001v9.103c1.283-.442 2.502-.664 3.648-.664 2.503 0 4.435.815 5.811 2.45 1.192 1.42 1.793 3.282 1.793 5.561 0 2.99-1.015 5.245-3.05 6.729-1.764 1.318-4.218 1.968-7.352 1.968-1.337 0-2.959-.16-4.851-.501m4.001-12.527v9.744c.57.086 1.089.14 1.548.14 3.736 0 5.606-1.77 5.606-5.298 0-1.716-.468-3.013-1.383-3.88-.812-.768-1.89-1.16-3.269-1.16-.786.006-1.618.151-2.502.454M68.352 38.15V23.08c2.328-.932 4.68-1.4 7.065-1.4 1.14 0 2.217.152 3.217.462v3.318c-.849-.308-1.79-.45-2.804-.45a9.937 9.937 0 0 0-3.468.624v12.524m8.926-16.214h4.01v9.674c0 1.352.293 2.273.863 2.746.499.429 1.357.642 2.554.642.806 0 1.696-.11 2.679-.3V21.944h4.018v15.643c-2.684.515-5.024.77-7.04.77-2.539 0-4.385-.504-5.537-1.5a4.556 4.556 0 0 1-1.248-2.098c-.2-.745-.3-1.727-.3-2.979m18.523 5.81V34c1.576.972 3.066 1.46 4.469 1.46 1.784 0 2.679-.55 2.679-1.65 0-.75-.53-1.347-1.576-1.826l-1.622-.756c-1.496-.68-2.534-1.433-3.15-2.242-.532-.706-.8-1.557-.8-2.523 0-1.574.638-2.789 1.926-3.668 1.126-.759 2.568-1.145 4.35-1.145 1.464 0 2.892.296 4.249.89v3.39c-1.351-.817-2.673-1.231-3.967-1.231-1.784 0-2.67.523-2.67 1.568 0 .417.179.778.544 1.055.336.255 1.103.639 2.285 1.202 1.645.82 2.753 1.554 3.31 2.17.712.812 1.076 1.789 1.076 2.954 0 1.635-.664 2.898-1.966 3.785-1.14.781-2.64 1.173-4.512 1.173a11.256 11.256 0 0 1-4.625-1.016m14.31 0V34c1.59.972 3.083 1.46 4.48 1.46 1.784 0 2.679-.55 2.679-1.65 0-.75-.533-1.347-1.59-1.826l-1.608-.756c-1.502-.68-2.542-1.433-3.15-2.242-.538-.706-.811-1.557-.811-2.523 0-1.574.65-2.789 1.935-3.668 1.114-.759 2.553-1.145 4.349-1.145 1.47 0 2.878.296 4.255.89v3.39c-1.36-.817-2.673-1.231-3.979-1.231-1.778 0-2.664.523-2.664 1.568 0 .417.18.778.544 1.055.342.255 1.094.639 2.289 1.202 1.644.82 2.747 1.554 3.303 2.17.72.812 1.071 1.789 1.071 2.954 0 1.635-.658 2.898-1.963 3.785-1.135.781-2.642 1.173-4.506 1.173a11.335 11.335 0 0 1-4.634-1.016m29.349-6.796h-11.314c.168 2.996 1.875 4.511 5.107 4.511 1.978 0 3.773-.563 5.37-1.719v3.307a11.51 11.51 0 0 1-5.983 1.646c-2.81 0-4.962-.815-6.447-2.48-1.288-1.426-1.932-3.369-1.932-5.788 0-2.772.824-4.965 2.49-6.586 1.457-1.4 3.31-2.105 5.547-2.105 1.576 0 2.947.389 4.107 1.13a6.01 6.01 0 0 1 2.271 2.63c.53 1.165.781 2.96.781 5.387m-11.052-2.752h7.182c-.18-2.263-1.294-3.394-3.349-3.394-1.089 0-1.966.345-2.653 1.017-.613.593-1 1.377-1.18 2.377" id="Shape" fill="#011F65"/><path id="Rectangle-path" fill="#011F65" d="M147.596 13.213h4.016v24.942h-4.016z"/><path d="M156.049 37.59V34c1.576.972 3.072 1.46 4.477 1.46 1.776 0 2.67-.55 2.67-1.65 0-.75-.527-1.347-1.584-1.826l-1.61-.756c-1.494-.68-2.54-1.433-3.147-2.242-.544-.706-.806-1.557-.806-2.523 0-1.574.641-2.789 1.938-3.668 1.117-.759 2.556-1.145 4.34-1.145 1.471 0 2.885.296 4.241.89v3.39c-1.342-.817-2.67-1.231-3.953-1.231-1.798 0-2.673.523-2.673 1.568 0 .417.177.778.541 1.055.323.255 1.098.639 2.283 1.202 1.648.82 2.753 1.554 3.312 2.17.713.812 1.08 1.789 1.08 2.954 0 1.635-.658 2.898-1.972 3.785-1.143.781-2.645 1.173-4.506 1.173a11.292 11.292 0 0 1-4.631-1.016m22.025-10.89v-3.39c2.094-1.109 4.24-1.658 6.406-1.658 2.372 0 3.914.684 4.626 2.053.356.691.544 1.968.544 3.85v10.273c-2.835.406-5.144.596-6.925.596-2.08 0-3.557-.408-4.455-1.251-.78-.745-1.16-1.851-1.16-3.324 0-2.212.94-3.766 2.833-4.665 1.249-.602 3.147-1.03 5.68-1.31l.334-.028v-.58c0-.963-.185-1.604-.59-1.934-.356-.3-.94-.448-1.779-.448-1.732 0-3.582.607-5.514 1.817m7.96 8.428v-4.315c-2.06.168-3.469.468-4.244.932-.67.406-.995 1-.995 1.81 0 1.226.719 1.83 2.19 1.83.814.009 1.826-.08 3.049-.257m8.518-20.459h4.127v4.216h-4.127v-4.217zm.069 7.31h4.01v16.176h-4.01V21.98zm9.179 16.17V23.08c2.33-.932 4.68-1.4 7.08-1.4 1.129 0 2.2.152 3.21.462v3.318c-.859-.308-1.796-.45-2.805-.45a9.856 9.856 0 0 0-3.469.624v12.524" id="Shape" fill="#011F65"/><path id="Rectangle-path" fill="#011F65" d="M217.313 13.213h4.019v24.942h-4.019z"/><path d="M226.472 14.67h4.133v4.216h-4.133v-4.217zm.063 7.31h4.013v16.176h-4.013V21.98zm9.195 16.17V22.767c2.59-.734 5.075-1.09 7.472-1.09 2.59 0 4.417.544 5.478 1.653.88.932 1.325 2.405 1.325 4.43v10.39h-4.019V28.028c0-1.226-.279-2.055-.846-2.52-.51-.409-1.325-.624-2.437-.624-.946 0-1.938.154-2.955.448V38.15m29.409-7.356H257.84c.168 2.996 1.866 4.511 5.09 4.511 1.995 0 3.784-.563 5.38-1.719v3.307a11.505 11.505 0 0 1-5.976 1.646c-2.807 0-4.962-.815-6.452-2.48-1.277-1.426-1.936-3.369-1.936-5.788 0-2.772.835-4.965 2.488-6.586 1.457-1.4 3.312-2.105 5.544-2.105 1.581 0 2.95.389 4.112 1.13a6.109 6.109 0 0 1 2.283 2.63c.513 1.165.772 2.96.772 5.387m-11.04-2.752h7.182c-.18-2.263-1.294-3.394-3.358-3.394-1.08 0-1.966.345-2.65 1.017-.613.593-.995 1.377-1.174 2.377m14.375 9.615V34c1.582.972 3.072 1.46 4.474 1.46 1.782 0 2.674-.55 2.674-1.65 0-.75-.536-1.347-1.59-1.826l-1.614-.756c-1.484-.68-2.539-1.433-3.149-2.242-.53-.706-.795-1.557-.795-2.526 0-1.574.633-2.789 1.927-3.668 1.12-.759 2.559-1.145 4.346-1.145 1.468 0 2.89.297 4.24.89v3.391c-1.339-.818-2.673-1.232-3.975-1.232-1.764 0-2.656.524-2.656 1.568 0 .417.18.778.535 1.056.337.254 1.11.638 2.292 1.2 1.647.821 2.756 1.555 3.312 2.17.712.813 1.063 1.79 1.063 2.955 0 1.635-.653 2.898-1.956 3.785-1.148.782-2.644 1.174-4.508 1.174a11.202 11.202 0 0 1-4.62-1.014" id="Shape" fill="#011F65"/></g></g></g></svg>