<?xml version="1.0" encoding="utf-8"?>
<!-- Generator: Adobe Illustrator 15.1.0, SVG Export Plug-In . SVG Version: 6.00 Build 0)  -->
<!DOCTYPE svg PUBLIC "-//W3C//DTD SVG 1.1//EN" "http://www.w3.org/Graphics/SVG/1.1/DTD/svg11.dtd">
<svg version="1.1" id="Layer_1" xmlns="http://www.w3.org/2000/svg" xmlns:xlink="http://www.w3.org/1999/xlink" x="0px" y="0px"
	 width="1332.283px" height="425.197px" viewBox="0 0 1332.283 425.197" enable-background="new 0 0 1332.283 425.197"
	 xml:space="preserve">
<path fill="#D49E1B" d="M734.743,63.488l5.077,3.236c1.455,0.88,1.577,1.491,1.577,1.992v44.882h-98.888l-22.316,28.31
	l-0.007-72.991l0.142-1.413c0.046-0.062,0.382-0.375,1.171-0.789l4.682-2.93l0.491-0.265v-4.459h-49.313v4.411l4.876,3.165
	c0.717,0.492,1.041,0.767,1.151,0.767c0.012,0,0.025-0.007,0.032-0.017l0.013,134.167l-0.259,1.737
	c-0.2,0.317-0.575,0.679-0.925,0.908l-4.888,3.282v4.326h49.313v-4.378l-5.146-3.269c-0.796-0.44-1.164-0.701-1.293-0.701
	c0,0-0.026,0.003-0.032,0.009l-0.007-61.559l5.328,1.63l6.842-3.932c1.235-0.76,2.322-1.281,3.098-1.465
	c0.413-0.145,1.228-0.323,2.767-0.323h103.014v47.204l36.838-39.493V67.42c0-0.579,0.727-1.181,0.727-1.181l5.336-2.673v-4.505
	h-49.399V63.488z"/>
<path fill="#D49E1B" d="M1265.993,118.791c-5.781-18.307-19.038-33.326-39.389-44.643c-18.346-10.265-44.361-15.254-79.533-15.254
	h-134.268v4.358c0,0,5.62,3.751,5.801,3.751c0.025,0,0.045-0.01,0.052-0.033l-0.026,15.923h128.228
	c25.919,0,44.886,3.458,56.383,10.203c18.313,10.689,27.238,24.563,27.283,42.411c0,8.96-2.399,17.153-7.126,24.354
	c-4.683,7.155-11.866,13.289-21.359,18.226c-12.416,6.431-31.344,9.69-56.247,9.69h-66.853V93.894h-36.569l0.02,107.757
	l-0.232,1.591c-0.233,0.288-0.621,0.67-0.971,0.996l-4.5,2.845l-0.395,0.282v4.371h109.629c21.088,0,37.675-1.193,49.296-3.553
	c15.921-3.327,30.044-9.112,41.988-17.192c12.195-8.193,20.919-17.686,25.931-28.217c3.725-7.698,5.613-16.206,5.613-25.281
	C1268.748,131.036,1267.823,124.747,1265.993,118.791"/>
<path fill="#D49E1B" d="M852.722,87.004L733.638,211.442h54.812v-5.238h-1.914c-0.918,0-1.766-0.126-2.548-0.242
	c-1.073-0.171-1.682-0.398-2.018-0.582l92.026-95.707L852.722,87.004z"/>
<path fill="#D49E1B" d="M974.236,206.706v5.254h54.799L883.781,58.907l-21.172,22.174l23.513,24.961l24.314,24.47h-41.069
	l-22.516,23.571l4.874,3.334l5.31-2.868c0.511-0.214,1.034-0.424,1.487-0.463c0.342-0.058,1.707-0.077,3.847-0.077l70.235,0.01
	l48.461,51.791c0,0-0.737,0.896-4.947,0.896H974.236z"/>
<path fill="#D49E1B" d="M554.983,66.501l4.475-3v-4.44h-48.933v4.423l4.902,3.169c1.138,0.773,1.713,1.481,1.713,2.112
	l0.039,132.653l-0.349,1.707c-0.446,0.392-0.957,0.835-1.319,1.071l-4.986,3.217v4.446h48.933v-4.398l-4.52-3.188
	c-0.627-0.43-0.989-0.721-1.125-0.721c0,0-0.039,0.01-0.052,0.026l-0.019-134.617l0.129-1.432L554.983,66.501z"/>
<path fill="#D49E1B" d="M312.716,182.349h-1.985l-5.419,0.123l-6.434,3.692c-1.721,1.058-2.678,1.394-2.859,1.472l-109.565,0.287
	c-25.026,0-44.057-3.246-56.563-9.641c-18.87-9.804-28.059-23.778-28.098-42.71c0-8.519,2.457-16.603,7.288-24.01
	c9.461-13.926,23.068-23.39,42.578-27.008c5.161-0.928,10.14-1.15,13.423-1.15h56.437c3.368-0.146,2.856,0.668,2.96,1.027
	l-0.621,3.954h4.675l24.166-29.203h-67.396c-15.584,0-27.754,0.507-36.174,1.51c-4.462,0.556-8.659,1.3-12.824,2.269
	c-11.019,2.513-21.779,6.709-31.984,12.475c-16.483,9.347-28.292,21.233-35.094,35.34c-3.816,8.045-5.729,17.01-5.691,26.652
	c-0.039,24.638,13.224,44.3,39.421,58.436c11.808,6.49,25.097,10.978,39.505,13.344c10.773,1.759,25.601,2.652,44.064,2.652h101.908
	L312.716,182.349z"/>
<path fill="#D49E1B" d="M256.689,145.738l23.732-29.65H120.682l-16.083,23.992l144-0.004c2.71,0.294,3.641,0.96,3.738,1.413
	l-0.588,4.249H256.689z"/>
<path fill="#D49E1B" d="M269.085,59.062L246.808,87l4.547,1.588L252,88.75l6.939-3.495c1.907-1.277,3.815-1.901,5.833-1.901h88.251
	l0.032,118.272l-0.388,1.656c-0.375,0.452-0.796,0.743-1.074,0.873l-5.037,3.33v4.375h49.301v-4.449l-5.121-3.117l-1.229-1.135
	c-0.026-0.278-0.065-0.724-0.039-1.274V83.354l78.286-0.006c3.007,0.362,3.395,1.054,3.382,1.128v4.178h4.397l24.282-29.592H269.085
	z"/>
<polygon fill="#D49E1B" points="323.832,286.37 286.616,380.099 304.122,380.099 326.173,321.516 328.792,313.389 331.411,321.516 
	341.195,347.293 316.524,347.293 321.763,360.667 346.162,360.667 353.604,380.099 372.623,380.099 335.821,286.37 "/>
<rect x="418.802" y="286.37" fill="#D49E1B" width="18.19" height="93.729"/>
<path fill="#D49E1B" d="M537.749,346.878c6.066-2.386,10.754-6.271,14.058-11.646c3.311-5.375,4.967-11.692,4.967-18.955
	c0-9.92-2.897-17.388-8.684-22.393c-5.789-5.013-14.202-7.516-25.227-7.516h-30.044v93.729h18.19v-30.737h10.341l21.501,30.737
	h20.396L537.749,346.878z M522.863,336.544h-11.854v-35.701h11.718c5.6,0,9.603,1.474,11.99,4.409
	c2.392,2.942,3.582,7.218,3.582,12.817C538.299,330.389,533.152,336.544,522.863,336.544"/>
<polygon fill="#D49E1B" points="705.631,286.37 688.261,353.08 687.712,353.08 666.067,286.37 648.149,286.37 652.973,301.257 
	636.295,353.08 635.61,353.08 618.382,286.37 599.493,286.37 627.203,380.099 641.947,380.099 660.972,322.073 679.854,380.099 
	695.154,380.099 723.55,286.37 "/>
<polygon fill="#D49E1B" points="790.952,286.37 753.736,380.099 771.241,380.099 793.293,321.516 795.911,313.389 798.53,321.516 
	808.314,347.293 783.645,347.293 788.883,360.667 813.281,360.667 820.725,380.099 839.743,380.099 802.94,286.37 "/>
<polygon fill="#D49E1B" points="906.595,325.791 886.192,286.37 866.068,286.37 896.669,341.641 896.669,380.099 914.865,380.099 
	914.865,341.641 945.602,286.37 927.547,286.37 "/>
<path fill="#D49E1B" d="M1021.133,324.691l-3.447-0.826c-5.697-1.377-9.531-2.969-11.51-4.761c-1.973-1.791-2.962-4.43-2.962-7.922
	c0-3.859,1.196-6.706,3.582-8.549c2.393-1.836,6.247-2.754,11.582-2.754c5.051,0,9.784,0.963,14.194,2.897
	c4.41,1.927,7.902,4.087,10.476,6.473v-19.02c-5.787-4.041-13.78-6.064-23.984-6.064c-10.748,0-18.999,2.547-24.741,7.649
	c-5.743,5.103-8.614,12.248-8.614,21.432c0,14.063,7.902,23.021,23.707,26.882l3.446,0.828c5.607,1.286,9.532,2.87,11.789,4.753
	c2.251,1.881,3.376,4.526,3.376,7.927c0,8.73-5.652,13.089-16.957,13.089c-9.098,0-17.226-3.215-24.397-9.647v19.023
	c5.976,4.133,13.923,6.202,23.849,6.202c11.666,0,20.441-2.8,26.326-8.407c5.878-5.605,8.82-13.185,8.82-22.742
	c0-7.443-1.979-13.211-5.931-17.299C1035.786,329.768,1029.585,326.71,1021.133,324.691"/>
</svg>
