<?xml version="1.0" encoding="utf-8"?>
<!-- Generator: Adobe Illustrator 16.0.0, SVG Export Plug-In . SVG Version: 6.00 Build 0)  -->
<!DOCTYPE svg PUBLIC "-//W3C//DTD SVG 1.1//EN" "http://www.w3.org/Graphics/SVG/1.1/DTD/svg11.dtd">
<svg version="1.1" xmlns="http://www.w3.org/2000/svg" xmlns:xlink="http://www.w3.org/1999/xlink" x="0px" y="0px" width="688.5px"
	 height="183.8px" viewBox="0 0 688.5 183.8" style="enable-background:new 0 0 688.5 183.8;" xml:space="preserve">
<style type="text/css">
<![CDATA[
	.st0{clip-path:url(#SVGID_29_);fill:url(#SVGID_30_);}
	.st1{clip-path:url(#SVGID_9_);fill:url(#SVGID_10_);}
	.st2{clip-path:url(#SVGID_12_);fill:url(#SVGID_13_);}
	.st3{fill:none;stroke:#E5007E;stroke-width:0.7;}
	.st4{clip-path:url(#SVGID_22_);fill:url(#SVGID_23_);}
	.st5{clip-path:url(#SVGID_7_);}
	.st6{clip-path:url(#SVGID_25_);fill:#005586;}
	.st7{clip-path:url(#SVGID_17_);fill:url(#SVGID_18_);}
	.st8{clip-path:url(#SVGID_4_);fill:url(#SVGID_5_);}
	.st9{clip-path:url(#SVGID_2_);fill:#FFFFFF;}
	.st10{fill:#00415A;}
	.st11{clip-path:url(#SVGID_34_);fill:url(#SVGID_35_);}
	.st12{clip-path:url(#SVGID_15_);}
	.st13{clip-path:url(#SVGID_20_);}
	.st14{clip-path:url(#SVGID_27_);}
	.st15{clip-path:url(#SVGID_32_);}
]]>
</style>
<g id="Layer_2">
	<g>
		<defs>
			<rect id="SVGID_1_" x="4" y="2.7" width="180.9" height="178.4"/>
		</defs>
		<clipPath id="SVGID_2_">
			<use xlink:href="#SVGID_1_"  style="overflow:visible;"/>
		</clipPath>
		<path class="st9" d="M5.8,71.3c0,0,5,39.3,5.2,40.5c0.2,1,0.3,1.4,0.7,2.2s30.7,50.4,30.7,50.4s69.8,16.5,70.4,16.7
			c0.6,0.1,0.8,0.2,1.2-0.2c0.4-0.4,70.1-71.8,70.3-72.1c0.2-0.3,0.3-0.4,0.1-0.7c-0.1-0.3-37.5-90.9-37.7-91.5
			c-0.2-0.6-0.4-0.8-1-0.8c-0.3,0-18.1-2.9-45.8-6.4C72.3,5.8,45.6,3.4,45.4,3.4c-0.3,0-0.5,0.1-0.7,0.4C44.5,4.1,5.8,71.3,5.8,71.3
			"/>
	</g>
	<g>
		<defs>
			<path id="SVGID_3_" d="M44.7,3.8C44.6,4,24.7,38.4,13.4,58c-2.8,10.7-4.6,21.3-5.3,31.7c1.3,10.4,2.8,21.4,2.8,22
				c0.2,1,0.3,1.4,0.7,2.2c0.4,0.8,30.7,50.4,30.7,50.4s69.8,16.5,70.4,16.7c0.2,0.1,0.4,0.1,0.5,0.1h0.1c0.2,0,0.3-0.1,0.6-0.3
				c0.4-0.4,70.1-71.8,70.3-72.1c0.2-0.3,0.3-0.4,0.1-0.7c-0.1-0.3-37.5-90.9-37.7-91.5c-0.2-0.6-0.4-0.8-1-0.8
				c-0.3,0-18.1-2.9-45.8-6.4C72.3,5.8,45.6,3.4,45.4,3.4c0,0-0.1,0-0.1,0C45,3.4,44.9,3.5,44.7,3.8"/>
		</defs>
		<clipPath id="SVGID_4_">
			<use xlink:href="#SVGID_3_"  style="overflow:visible;"/>
		</clipPath>

			<radialGradient id="SVGID_5_" cx="-77.0874" cy="389.4014" r="1.0005" gradientTransform="matrix(-58.4897 128.344 -128.344 -58.4897 45588.0703 32740.582)" gradientUnits="userSpaceOnUse">
			<stop  offset="0" style="stop-color:#FFFFFF"/>
			<stop  offset="0.1648" style="stop-color:#FFFFFF"/>
			<stop  offset="0.287" style="stop-color:#C6EAF4"/>
			<stop  offset="0.4223" style="stop-color:#8ED5EA"/>
			<stop  offset="0.523" style="stop-color:#6AC8E3"/>
			<stop  offset="0.5769" style="stop-color:#5DC3E1"/>
			<stop  offset="0.8462" style="stop-color:#58B0DB"/>
			<stop  offset="1" style="stop-color:#58B0DB"/>
		</radialGradient>
		<polygon class="st8" points="38.5,-63.2 -58.9,150.6 154.2,247.7 251.6,33.9 		"/>
	</g>
	<g>
		<defs>
			<rect id="SVGID_6_" x="4" y="2.7" width="180.9" height="178.4"/>
		</defs>
		<clipPath id="SVGID_7_">
			<use xlink:href="#SVGID_6_"  style="overflow:visible;"/>
		</clipPath>
		<path class="st5" d="M96.2,135.9"/>
	</g>
	<path class="st3" d="M96.2,135.9"/>
	<g>
		<defs>
			<polygon id="SVGID_8_" points="117,54.8 13.7,110.2 47.1,5.7 			"/>
		</defs>
		<clipPath id="SVGID_9_">
			<use xlink:href="#SVGID_8_"  style="overflow:visible;"/>
		</clipPath>

			<linearGradient id="SVGID_10_" gradientUnits="userSpaceOnUse" x1="-73.9624" y1="389.5518" x2="-72.9624" y2="389.5518" gradientTransform="matrix(71.0508 -123.0635 -123.0635 -71.0508 53224.5195 18695.4453)">
			<stop  offset="0" style="stop-color:#005E91"/>
			<stop  offset="0.1923" style="stop-color:#005E91"/>
			<stop  offset="0.4624" style="stop-color:#0C79AF"/>
			<stop  offset="0.8094" style="stop-color:#1897D0"/>
			<stop  offset="1" style="stop-color:#1DA2DC"/>
		</linearGradient>
		<polygon class="st1" points="-31.5,84.1 39.6,-39 162.2,31.8 91.2,154.9 		"/>
	</g>
	<g>
		<defs>
			<polygon id="SVGID_11_" points="111.3,66.4 112.5,178.6 14.5,113.6 			"/>
		</defs>
		<clipPath id="SVGID_12_">
			<use xlink:href="#SVGID_11_"  style="overflow:visible;"/>
		</clipPath>

			<linearGradient id="SVGID_13_" gradientUnits="userSpaceOnUse" x1="-73.6602" y1="388.1611" x2="-72.6597" y2="388.1611" gradientTransform="matrix(0 -112.5076 -112.5076 0 43734.6133 -8108.3174)">
			<stop  offset="0" style="stop-color:#044169"/>
			<stop  offset="8.241760e-02" style="stop-color:#044169"/>
			<stop  offset="0.2611" style="stop-color:#044771"/>
			<stop  offset="0.535" style="stop-color:#035686"/>
			<stop  offset="0.8685" style="stop-color:#016EA9"/>
			<stop  offset="0.9949" style="stop-color:#0079B8"/>
			<stop  offset="1" style="stop-color:#0079B8"/>
		</linearGradient>
		<rect x="14.5" y="66.4" class="st2" width="98" height="112.2"/>
	</g>
	<g>
		<defs>
			<path id="SVGID_14_" d="M44.7,3.8C44.6,4,24.7,38.4,13.4,58c-2.8,10.7-4.6,21.3-5.3,31.7c1.3,10.4,2.8,21.4,2.8,22
				c0.2,1,0.3,1.4,0.7,2.2c0.4,0.8,30.7,50.4,30.7,50.4s69.8,16.5,70.4,16.7c0.2,0.1,0.4,0.1,0.5,0.1h0.1c0.2,0,0.3-0.1,0.6-0.3
				c0.4-0.4,70.1-71.8,70.3-72.1c0.2-0.3,0.3-0.4,0.1-0.7c-0.1-0.3-37.5-90.9-37.7-91.5c-0.2-0.6-0.4-0.8-1-0.8
				c-0.3,0-18.1-2.9-45.8-6.4C72.3,5.8,45.6,3.4,45.4,3.4c0,0-0.1,0-0.1,0C45,3.4,44.9,3.5,44.7,3.8"/>
		</defs>
		<clipPath id="SVGID_15_">
			<use xlink:href="#SVGID_14_"  style="overflow:visible;"/>
		</clipPath>
		<g class="st12">
			<defs>
				<polygon id="SVGID_16_" points="138.9,84.7 184.6,106.7 147.2,16.3 				"/>
			</defs>
			<clipPath id="SVGID_17_">
				<use xlink:href="#SVGID_16_"  style="overflow:visible;"/>
			</clipPath>

				<linearGradient id="SVGID_18_" gradientUnits="userSpaceOnUse" x1="-77.5347" y1="386.9639" x2="-76.5347" y2="386.9639" gradientTransform="matrix(-67.7533 24.6602 24.6602 67.7533 -14600.4941 -24256.6992)">
				<stop  offset="0" style="stop-color:#005586"/>
				<stop  offset="5.818238e-02" style="stop-color:#035D8E"/>
				<stop  offset="0.3212" style="stop-color:#0E7BB0"/>
				<stop  offset="0.5718" style="stop-color:#1690C8"/>
				<stop  offset="0.8026" style="stop-color:#1B9DD7"/>
				<stop  offset="0.9949" style="stop-color:#1DA2DC"/>
				<stop  offset="1" style="stop-color:#1DA2DC"/>
			</linearGradient>
			<polygon class="st7" points="213.7,96.1 144.2,121.4 109.8,26.9 179.3,1.6 			"/>
		</g>
	</g>
	<g>
		<defs>
			<path id="SVGID_19_" d="M44.7,3.8C44.6,4,24.7,38.4,13.4,58c-2.8,10.7-4.6,21.3-5.3,31.7c1.3,10.4,2.8,21.4,2.8,22
				c0.2,1,0.3,1.4,0.7,2.2c0.4,0.8,30.7,50.4,30.7,50.4s69.8,16.5,70.4,16.7c0.2,0.1,0.4,0.1,0.5,0.1h0.1c0.2,0,0.3-0.1,0.6-0.3
				c0.4-0.4,70.1-71.8,70.3-72.1c0.2-0.3,0.3-0.4,0.1-0.7c-0.1-0.3-37.5-90.9-37.7-91.5c-0.2-0.6-0.4-0.8-1-0.8
				c-0.3,0-18.1-2.9-45.8-6.4C72.3,5.8,45.6,3.4,45.4,3.4c0,0-0.1,0-0.1,0C45,3.4,44.9,3.5,44.7,3.8"/>
		</defs>
		<clipPath id="SVGID_20_">
			<use xlink:href="#SVGID_19_"  style="overflow:visible;"/>
		</clipPath>
		<g class="st13">
			<defs>
				<polygon id="SVGID_21_" points="48.5,3.3 145.3,13.9 137,58.1 				"/>
			</defs>
			<clipPath id="SVGID_22_">
				<use xlink:href="#SVGID_21_"  style="overflow:visible;"/>
			</clipPath>

				<linearGradient id="SVGID_23_" gradientUnits="userSpaceOnUse" x1="-79.1699" y1="390.5518" x2="-78.1699" y2="390.5518" gradientTransform="matrix(-2.0106 57.5765 57.5765 2.0106 -22547.9004 3775.2412)">
				<stop  offset="0" style="stop-color:#0079B8"/>
				<stop  offset="5.494510e-03" style="stop-color:#0079B8"/>
				<stop  offset="1.088348e-02" style="stop-color:#017AB9"/>
				<stop  offset="0.1469" style="stop-color:#0D8CC9"/>
				<stop  offset="0.3094" style="stop-color:#1699D4"/>
				<stop  offset="0.5249" style="stop-color:#1CA0DA"/>
				<stop  offset="0.999" style="stop-color:#1DA2DC"/>
				<stop  offset="1" style="stop-color:#1DA2DC"/>
			</linearGradient>
			<polygon class="st4" points="147.2,3.3 145.2,61.4 46.6,58 48.6,-0.1 			"/>
		</g>
	</g>
	<g>
		<defs>
			<path id="SVGID_24_" d="M44.7,3.8C44.6,4,24.7,38.4,13.4,58c-2.8,10.7-4.6,21.3-5.3,31.7c1.3,10.4,2.8,21.4,2.8,22
				c0.2,1,0.3,1.4,0.7,2.2c0.4,0.8,30.7,50.4,30.7,50.4s69.8,16.5,70.4,16.7c0.2,0.1,0.4,0.1,0.5,0.1h0.1c0.2,0,0.3-0.1,0.6-0.3
				c0.4-0.4,70.1-71.8,70.3-72.1c0.2-0.3,0.3-0.4,0.1-0.7c-0.1-0.3-37.5-90.9-37.7-91.5c-0.2-0.6-0.4-0.8-1-0.8
				c-0.3,0-18.1-2.9-45.8-6.4C72.3,5.8,45.6,3.4,45.4,3.4c0,0-0.1,0-0.1,0C45,3.4,44.9,3.5,44.7,3.8"/>
		</defs>
		<clipPath id="SVGID_25_">
			<use xlink:href="#SVGID_24_"  style="overflow:visible;"/>
		</clipPath>
		<polygon class="st6" points="4,71.1 10.4,111 44.9,2.7 		"/>
	</g>
	<g>
		<defs>
			<path id="SVGID_26_" d="M44.7,3.8C44.6,4,24.7,38.4,13.4,58c-2.8,10.7-4.6,21.3-5.3,31.7c1.3,10.4,2.8,21.4,2.8,22
				c0.2,1,0.3,1.4,0.7,2.2c0.4,0.8,30.7,50.4,30.7,50.4s69.8,16.5,70.4,16.7c0.2,0.1,0.4,0.1,0.5,0.1h0.1c0.2,0,0.3-0.1,0.6-0.3
				c0.4-0.4,70.1-71.8,70.3-72.1c0.2-0.3,0.3-0.4,0.1-0.7c-0.1-0.3-37.5-90.9-37.7-91.5c-0.2-0.6-0.4-0.8-1-0.8
				c-0.3,0-18.1-2.9-45.8-6.4C72.3,5.8,45.6,3.4,45.4,3.4c0,0-0.1,0-0.1,0C45,3.4,44.9,3.5,44.7,3.8"/>
		</defs>
		<clipPath id="SVGID_27_">
			<use xlink:href="#SVGID_26_"  style="overflow:visible;"/>
		</clipPath>
		<g class="st14">
			<defs>
				<polygon id="SVGID_28_" points="115.5,179.9 184.9,109.7 117,83.8 				"/>
			</defs>
			<clipPath id="SVGID_29_">
				<use xlink:href="#SVGID_28_"  style="overflow:visible;"/>
			</clipPath>

				<linearGradient id="SVGID_30_" gradientUnits="userSpaceOnUse" x1="-73.3125" y1="388.1074" x2="-72.3125" y2="388.1074" gradientTransform="matrix(0 -94.7169 -94.7169 0 36910.4922 -6765.624)">
				<stop  offset="0" style="stop-color:#044169"/>
				<stop  offset="7.142860e-02" style="stop-color:#044169"/>
				<stop  offset="0.2598" style="stop-color:#04456E"/>
				<stop  offset="0.4863" style="stop-color:#034F7D"/>
				<stop  offset="0.7325" style="stop-color:#026095"/>
				<stop  offset="0.9911" style="stop-color:#0078B7"/>
				<stop  offset="1" style="stop-color:#0079B8"/>
			</linearGradient>
			<rect x="115.5" y="83.8" class="st0" width="69.4" height="96.1"/>
		</g>
	</g>
	<g>
		<defs>
			<path id="SVGID_31_" d="M44.7,3.8C44.6,4,24.7,38.4,13.4,58c-2.8,10.7-4.6,21.3-5.3,31.7c1.3,10.4,2.8,21.4,2.8,22
				c0.2,1,0.3,1.4,0.7,2.2c0.4,0.8,30.7,50.4,30.7,50.4s69.8,16.5,70.4,16.7c0.2,0.1,0.4,0.1,0.5,0.1h0.1c0.2,0,0.3-0.1,0.6-0.3
				c0.4-0.4,70.1-71.8,70.3-72.1c0.2-0.3,0.3-0.4,0.1-0.7c-0.1-0.3-37.5-90.9-37.7-91.5c-0.2-0.6-0.4-0.8-1-0.8
				c-0.3,0-18.1-2.9-45.8-6.4C72.3,5.8,45.6,3.4,45.4,3.4c0,0-0.1,0-0.1,0C45,3.4,44.9,3.5,44.7,3.8"/>
		</defs>
		<clipPath id="SVGID_32_">
			<use xlink:href="#SVGID_31_"  style="overflow:visible;"/>
		</clipPath>
		<g class="st15">
			<defs>
				<polygon id="SVGID_33_" points="41.1,166.2 110.2,180.9 12.2,115.7 				"/>
			</defs>
			<clipPath id="SVGID_34_">
				<use xlink:href="#SVGID_33_"  style="overflow:visible;"/>
			</clipPath>

				<linearGradient id="SVGID_35_" gradientUnits="userSpaceOnUse" x1="-77.6343" y1="388.9629" x2="-76.6343" y2="388.9629" gradientTransform="matrix(-51.7956 89.7126 89.7126 51.7956 -38828.9102 -13078.3467)">
				<stop  offset="0" style="stop-color:#005586"/>
				<stop  offset="0.1319" style="stop-color:#005586"/>
				<stop  offset="0.4491" style="stop-color:#004B73"/>
				<stop  offset="0.9066" style="stop-color:#003951"/>
				<stop  offset="1" style="stop-color:#003951"/>
			</linearGradient>
			<polygon class="st11" points="138.5,132 85.7,223.4 -16.1,164.6 36.7,73.2 			"/>
		</g>
	</g>
</g>
<g id="Layer_1">
	<path class="st10" d="M683.7,129.6l-21-35.5l16.9-25.3c0.4-0.6,0.5-1.3,0.2-1.9c-0.3-0.6-1-1-1.7-1h-6.4c-1.9,0-3.7,1-4.7,2.6
		l-17.1,25l0-24.4c0-1.8-1.5-3.2-3.2-3.2h-5.5c-1.8,0-3.2,1.5-3.2,3.2v61.1c0,0.8,0.6,1,1.7,1h8.6c1.3,0,1.8-0.1,1.8-1l0-35.9
		l20.5,35.5c1,1.3,1.5,1.4,2.6,1.4h9.7c0.6,0,1.1,0,1.3-0.4C684.2,130.4,684,130,683.7,129.6L683.7,129.6z M626.2,130.9
		c0.2-0.2,0-0.7-0.1-0.9c-0.1-0.2-4.9-14.7-6.8-20.6c-1.4-4.3-4.5-6.2-5.5-6.8c-0.3-0.2-0.4-0.2-0.4-0.4l-0.1-0.4l0.4-0.1
		c7.2-2.2,10.8-8.1,10.8-17.4c0-12.3-7.3-18.6-21.8-18.6h-16.2c-1.8,0-3.2,2.1-3.2,3.9v60.5c0,0.9,0.5,1,1.3,1l9.4,0
		c0.8,0,1.3,0,1.3-1l0-25.4l4.4,0c2.2,0,5.2,0,7.1,4.7c1.8,4.5,6.8,20.7,6.9,20.8c0.3,0.7,0.6,0.8,1.5,0.8h10
		C625.7,131.2,626.1,131.1,626.2,130.9L626.2,130.9z M611.9,84.9c0,7.2-2.4,9.9-9,9.9h-7.6V76.1h7.5
		C609.4,76.1,611.9,78.4,611.9,84.9L611.9,84.9z M570.9,98.4c0-22.4-8.5-33.8-25.1-33.8c-16.7,0-25.2,11.5-25.2,34.1
		c0,22.7,8.3,33.7,25.3,33.7C562.7,132.4,570.9,121.3,570.9,98.4L570.9,98.4z M557.9,98.6c0,17.8-3.2,24.1-12.2,24.1
		c-8.9,0-12.3-6.6-12.3-24.3c0-17.4,3.3-23.9,12.3-23.9C554.6,74.5,557.9,81,557.9,98.6L557.9,98.6z M512.4,69
		c0.2-0.8-0.1-1.6-0.6-2.2c-0.5-0.6-1.3-1-2.1-1h-5.5c-1.8,0-3.5,1.4-3.8,3.1L496,93.1c-1.3,7.1-2.2,14.7-2.6,18.7l-0.3,3l-0.4-3
		c-0.5-4.5-1.4-11.1-2.6-17.1l-5.2-25.8c-0.3-1.8-1.9-3.1-3.8-3.1h-5.1c-1.9,0-3.5,1.3-3.8,3.1L467,94.6c-1.1,5.8-2.1,11.7-2.8,17.4
		l-0.4,3.1l-0.3-3.1c-0.7-7.2-1.6-13.2-2.6-18.6l-4.7-24.6c-0.3-1.8-1.9-3.1-3.8-3.1h-6.1c-0.8,0-1.6,0.4-2.1,1
		c-0.5,0.6-0.7,1.4-0.6,2.2l12.6,61.3c0.2,0.8,0.9,0.9,1.9,0.9h9.8c0.9,0,1.5,0,1.8-1.1l5.9-29c0.8-3.9,1.8-11.7,2.1-14l0.4-2.9
		l0.3,2.9c0.4,3.6,1.2,9.1,2.1,14.2l5.8,28.9c0.2,0.8,0.7,0.9,1.4,0.9H498c0.8,0,1.4-0.1,1.7-0.9L512.4,69L512.4,69z M440,130.8
		c0.2-0.4,0-0.8-0.3-1.2l-21-35.5l16.9-25.3c0.4-0.6,0.5-1.3,0.2-1.9c-0.3-0.6-1-1-1.7-1h-6.4c-1.9,0-3.7,1-4.7,2.6l-17.1,25l0-24.4
		c0-1.8-1.5-3.2-3.2-3.2h-5.5c-1.8,0-3.2,1.5-3.2,3.2v61.1c0,0.8,0.6,1,1.7,1h8.6c1.3,0,1.8-0.1,1.8-1l0-35.9l20.5,35.5
		c1,1.3,1.5,1.4,2.6,1.4h9.7C439.3,131.2,439.8,131.2,440,130.8L440,130.8z M383.6,130.9c0.1-0.2,0.2-0.4,0.1-0.7l-18.2-61.2
		c-0.4-1.8-2.1-3.1-4-3.1h-6.2c-1.9,0-3.6,1.2-4.1,3l-18.7,60.7c-0.1,0.4-0.2,0.9,0,1.3c0.3,0.4,0.8,0.4,1.7,0.4h7.4
		c1.8,0,2.6,0,2.9-1l4.1-15H367l3.8,15.1c0.2,0.8,0.8,0.9,2.1,0.9l9.5,0l0,0.4v-0.4C382.8,131.2,383.3,131.2,383.6,130.9
		L383.6,130.9z M364.5,105.7h-13.3l2.9-10.6c0.5-1.7,0.9-3.3,1.3-4.7l0.1-0.3c0.9-3.3,1.7-5.9,2.2-8.3l0.3-1.5l0.3,1.5
		c0.5,2.1,1.1,4.5,1.9,7.4c0.5,1.7,1,3.6,1.5,5.9L364.5,105.7L364.5,105.7z M324.6,72.9v-3.8c0-1.8-1.5-3.2-3.2-3.2h-30.8
		c-1.8,0-3.2,1.5-3.2,3.2v61.1c0,0.9,0.6,1,2.1,1H322c1.3,0,1.9-0.2,1.9-1V124c0-1.8-1.5-3.2-3.2-3.2h-21.4v-18.7h15.5
		c1.8,0,3.2-1.5,3.2-3.2v-3.6c0-1.8-1.5-3.2-3.2-3.2h-15.5V76.1h22C323.1,76.1,324.6,74.7,324.6,72.9L324.6,72.9z M276.2,87.7
		c0-0.2,0-1.7,0-1.9c0-13.4-7.2-20-22-20h-18.4c-1.8,0-3.2,1.5-3.2,3.2v61.1c0,0.8,0.5,1,1.3,1h9.2c0.9,0,1.4-0.1,1.4-1v-21.5h10.8
		C269.2,108.7,276.1,101.8,276.2,87.7L276.2,87.7z M263.8,86.6c0,0.2,0,2.3,0,2.5c-0.1,7-2.6,9.6-9.1,9.6h-10.1V76.1h10.2
		C260.5,76.1,263.8,77.8,263.8,86.6L263.8,86.6z"/>
</g>
</svg>