<svg width="300" height="100" xmlns="http://www.w3.org/2000/svg"><g id="Page-1" fill="none" fill-rule="evenodd"><g id="eurowings"><g id="Eurowings_Logo" transform="translate(36 16)"><path id="Shape" fill="#8F174F" fill-rule="nonzero" d="M.895 22.918v26.635h16.638l.918-4.433H6.196v-6.76h10.14l.922-4.799H6.196v-6.216h11.265l.99-4.427zm169.651 15.021c.993.123 2.344.318 3.015.654a5.177 5.177 0 0 1 1.635 1.319 4.54 4.54 0 0 1 .858 1.647c.173.611.261 1.227.261 1.852v.375c0 1.098-.2 2.039-.597 2.824a4.93 4.93 0 0 1-1.698 1.908c-.736.486-2.133.876-3.166 1.103-1.034.226-2.171.336-3.417.336-1.046 0-2.166-.082-3.36-.241a21.807 21.807 0 0 1-3.584-.807l.831-3.651c1.17.324 2.228.52 3.173.657.946.138 1.893.185 2.838.205.888.02 1.46.013 2.05-.052.543-.061.948-.22 1.246-.418.301-.2.58-.51.666-.818.077-.26.098-.412.098-.785 0-.574-.16-.979-.445-1.364-.286-.387-.878-.598-1.8-.723l-2.773-.381c-1.944-.248-3.94-.78-4.862-1.702-.92-.922-1.382-2.145-1.382-3.664v-.375c0-1.969.728-3.449 2.185-4.434 1.458-.985 4.124-1.609 6.838-1.609 1.343 0 2.556.1 3.64.3 1.085.2 1.947.424 2.595.674l-.888 3.541a21.348 21.348 0 0 0-2.594-.5 19.273 19.273 0 0 0-2.662-.177c-1.717 0-2.826.099-3.436.456-.61.364-.874.706-.874 1.504 0 .672.221 1.048.592 1.333.375.288.972.518 1.916.644l3.101.369zm-17.71-7.795c-1.423-.362-2.812-.454-4.415-.454-1.524 0-3.361.19-4.563.552-1.2.361-2.223.917-3.062 1.664-.841.749-1.487 1.71-1.939 2.881-.453 1.172-.678 2.567-.678 4.19v1.31c0 3.168.64 5.494 1.918 6.975 1.28 1.485 3.65 2.439 6.185 2.439 2.635 0 4.284-.723 5.632-2.022v.85c0 2.07-.35 3.306-1.216 4.353-.865 1.047-2.406 1.505-4.395 1.416-1.39-.06-2.192-.144-3.25-.316a23.404 23.404 0 0 1-2.952-.682l-.869 3.963c1.214.423 2.462.73 3.74.916 1.28.187 2.697.244 4.246.282 3.204.074 5.65-.874 7.342-2.62 1.693-1.746 2.446-4.214 2.446-7.407V31.71c-1.162-.623-2.75-1.203-4.17-1.565zm-.92 10.586c0 1.745-.338 3.03-1.007 3.853-.672.822-1.743 1.235-3.212 1.235-.847 0-1.536-.124-2.073-.375a2.83 2.83 0 0 1-1.25-1.103c-.302-.488-.506-1.078-.616-1.778a15.383 15.383 0 0 1-.17-2.43v-1.346c0-1.995.38-3.419 1.138-4.266.76-.847 1.96-1.272 3.604-1.272.646 0 1.294.064 1.941.187.648.125 1.195.324 1.643.598v6.697h.001z"/><path id="Rectangle-path" d="M.895.878h227.184V58.46H.895z"/><path d="M116.947 49.553V30.14h4.73l.298 2.096a5.984 5.984 0 0 1 2.41-1.89c.983-.435 2.108-.655 3.377-.655 1.046 0 2.231.138 3.09.411a6.01 6.01 0 0 1 2.222 1.254c.621.562 1.107 1.265 1.455 2.114.35.85.524 1.846.524 2.993v13.091H129.9v-11.86c0-1.57-.286-2.687-.857-3.348-.574-.66-1.428-.988-2.772-.988-1.468 0-2.557.769-3.21 1.659-.687.937-.783 2.818-.783 4.515v10.02h-5.331v.001zm-61.41-15.067c-.3-.074-.659-.148-1.082-.225a7.622 7.622 0 0 0-1.309-.11c-1.642 0-2.83.43-3.566 1.288-.734.86-.92 1.795-.92 3.565v10.55h-5.585V30.138h4.987l.3 2.32a6.078 6.078 0 0 1 2.314-1.928c.921-.436 2.028-.654 3.322-.654.5 0 .94.031 1.327.093.386.063.788.17 1.213.318l-1 4.198zM39.632 30.14v19.415h-4.73l-.297-2.094a5.995 5.995 0 0 1-2.41 1.888c-.982.436-2.11.655-3.377.655-1.047 0-2.231-.138-3.091-.413a5.992 5.992 0 0 1-2.22-1.254c-.622-.562-1.108-1.265-1.458-2.114-.348-.847-.521-1.845-.521-2.992V30.139h5.15V42c0 1.57.288 2.687.86 3.35.572.658 1.427.986 2.772.986 1.467 0 2.556-.769 3.21-1.659.686-.937.783-2.82.783-4.513V30.139h5.329zm71.109-7.838c1.042 0 1.839.231 2.305.667.466.438.7 1.111.7 1.91 0 .797-.234 1.471-.7 1.907-.466.436-1.263.64-2.305.64-1.039 0-1.865-.204-2.33-.64-.467-.436-.7-1.11-.7-1.908 0-.798.233-1.471.7-1.909.465-.436 1.291-.667 2.33-.667zm-2.584 7.837h5.259v19.416h-5.26V30.14zM97.435 42.065l2.85-11.926h5.178l-5.714 19.416h-4.724l-3.376-11.74-3.334 11.74h-4.897L77.575 30.14h5.478l2.884 12.05 3.175-11.227h5.153z" id="Shape" fill="#8F174F" fill-rule="nonzero"/><path id="Rectangle-path" d="M.882.878h227.197V58.46H.882z"/><path d="M76.01 35.318c-.286-1.146-.772-2.132-1.456-2.955-.685-.823-1.601-1.472-2.746-1.945-1.144-.474-3.002-.702-4.72-.702-1.717 0-3.639.292-4.782.766-1.147.473-2.061 1.122-2.745 1.945-.685.823-1.177 1.81-1.475 2.955-.298 1.147-.538 2.31-.538 3.658v1.572c0 1.344.216 2.566.503 3.713.287 1.148.773 2.14 1.458 2.973.684.838 1.598 1.492 2.743 1.965 1.145.474 3.098.766 4.838.766 1.742 0 3.648-.266 4.806-.766 1.158-.496 2.073-1.171 2.745-2.017.672-.846 1.145-1.839 1.418-2.975.275-1.132.502-2.343.502-3.64V39.06c-.001-1.348-.265-2.593-.551-3.742zm-4.626 5.594c0 2.02-.315 3.448-.952 4.284-.634.834-1.735 1.252-3.304 1.252-.774 0-1.431-.087-1.98-.262a2.869 2.869 0 0 1-1.362-.897c-.363-.424-.623-.99-.783-1.703-.164-.711-.242-1.603-.242-2.674v-2.169c0-1.994.328-3.412.988-4.248.659-.834 1.786-1.252 3.38-1.252 1.592 0 2.698.418 3.32 1.252.624.836.934 2.254.934 4.248v2.169h.001z" id="Shape" fill="#8F174F" fill-rule="nonzero"/><path d="M194.818.965c-4.223-.578-6.367 1.777-9.325 3.942l-10.11 7.955-.003.002 1.946 1.03c.003.004.008.005.013.009 2.532 1.247 6.054.82 8.452-.96l4.27-3.398 1.632-1.301 8.136-6.477-5.01-.802z" id="Shape" fill="#7BCBE2" fill-rule="nonzero"/><path id="Rectangle-path" d="M.895.878h227.184V58.46H.895z"/><path d="M175.383 12.862l1.943 1.034.013.007c2.532 1.249 6.056.822 8.454-.96l4.267-3.396 1.634-1.302-16.311 4.617z" id="Shape" fill="#089BC9" fill-rule="nonzero"/><path d="M212.083 5.879l-5.427-.979s-3.778-.9-6.935 1.55c0 0-2.331 1.738-4.05 3.082l-3.823 3.033-8.843 7.048-.073.059 2.67 1.414c2.533 1.254 6.063.83 8.464-.954l7.907-6.275 6.376-5.032 3.734-2.946z" id="Shape" fill="#8F174F" fill-rule="nonzero"/><path d="M195.672 9.532a258.48 258.48 0 0 1 4.047-3.081 7.847 7.847 0 0 1 1.829-1.06l-9.852 2.854-1.634 1.3-4.266 3.399c-2.398 1.781-5.921 2.208-8.453.959 2.159 1.296 5.512 1.594 10.563.085l3.45-1.03.495-.393 3.821-3.033zm13.898 3.022c1.627-1.277 2.855-2.201 4.077-2.75l-11.028 3.543-.648.511-7.907 6.274c-2.4 1.783-5.93 2.21-8.464.954 3.893 2.142 9.887.567 14.929-1.23l.3-.243s8.44-6.841 8.74-7.06m12.968 7.119c-4.426-1.289-5.754-.474-10.969 1.098h-.001l-.436.362v-.002l-.004.005.004-.003-.013.008-8.404 6.677c-2.395 1.778-6.137 2.12-8.67.878 3.125 1.633 6.356 1.233 11.883-.495l22.15-6.813-5.54-1.715z" id="Shape" fill="#C8C4C3" fill-rule="nonzero"/><path d="M224.006 10.464l-5.859-1.068c-3.51-.653-5.17.485-8.58 3.158-.3.22-8.739 7.059-8.739 7.059l-9.474 7.658 2.668 1.414c2.535 1.256 6.294.915 8.694-.868l8.404-6.677.011-.008-.004.003 12.88-10.67z" id="Shape" fill="#8F174F" fill-rule="nonzero"/><path id="Shape" fill="#B4175E" fill-rule="nonzero" d="M191.354 12.959l18.737-5.51-7.473 5.898-19.688 6.325zm9.173 6.896l20.404-6.842-9.363 7.757-20.212 6.501z"/></g></g></g></svg>