<svg xmlns="http://www.w3.org/2000/svg" width="265" height="265"><g fill="#FFF" fill-rule="evenodd"><path d="M132.503 0c47.344 0 91.083 25.255 114.748 66.25 23.665 40.996 23.665 91.505 0 132.5C223.586 239.745 179.847 265 132.503 265c-47.343 0-91.082-25.255-114.748-66.25A132.464 132.464 0 0 1 0 132.5h66.252a66.25 66.25 0 0 0 99.377 57.373 66.25 66.25 0 0 0 33.126-57.373 66.25 66.25 0 0 0-66.252-66.25V0z" opacity=".7"/><path d="M0 133C0 85.48 25.35 41.576 66.5 17.822A132.966 132.966 0 0 1 133 0v66.5A66.5 66.5 0 0 0 66.5 133H0z" opacity=".3"/><path d="M133 99c18.778 0 34 15.222 34 34s-15.222 34-34 34-34-15.222-34-34 15.222-34 34-34zm21.858 50.475a27.187 27.187 0 0 0 3.22-5.256l-3.358-1.561a23.44 23.44 0 0 1-2.78 4.54l2.918 2.277zm-15.812-8.005a6.874 6.874 0 0 0 .65-13.717 6.873 6.873 0 0 0-6.707-8.378 6.873 6.873 0 0 0-6.705 8.38 6.874 6.874 0 0 0 .669 13.715 6.842 6.842 0 0 0 4.57-1.744c-.09 2.252-.387 5.275-1.295 6.899h5.543c-.907-1.624-1.205-4.647-1.295-6.9a6.846 6.846 0 0 0 4.57 1.745zm-5.636 18.488c2.107 0 4.155-.247 6.125-.7l-.83-3.607a23.632 23.632 0 0 1-5.295.598v3.71zm-15.438-4.809l2.104-3.047a23.649 23.649 0 0 1-4.015-3.505l-2.737 2.5a27.373 27.373 0 0 0 4.648 4.052zm-8.013-21.015a23.721 23.721 0 0 1 .29-5.327l-3.65-.616a27.333 27.333 0 0 0-.39 4.567c0 .534.02 1.063.05 1.588l3.7-.212zm10.57-25.336a27.237 27.237 0 0 0-5.06 3.525l2.444 2.78a23.592 23.592 0 0 1 4.374-3.041l-1.758-3.264zm17.971-2.757l-.69 3.637a23.34 23.34 0 0 1 5.082 1.58l1.495-3.386a26.98 26.98 0 0 0-5.887-1.83zm19.112 14.308l-3.293 1.692a23.378 23.378 0 0 1 1.877 4.98l3.594-.902a27.015 27.015 0 0 0-2.178-5.77z"/></g></svg>