<svg width="300" height="100" xmlns="http://www.w3.org/2000/svg" xmlns:xlink="http://www.w3.org/1999/xlink"><defs><path d="M20.01 5.053s-1.338.254-2.218.43c0 0 3.096-.522 4.083.64 1.032 1.212 2.557 4.255-9.73 15.07C8.075 24.767 3.53 27.957.067 30.23l8.062-1.307c3.752-3.58 13.66-11.676 22.46-16.306C44.886 5.098 56.253.963 58.5.22V.09c-2.676.208-22.326 1.785-38.49 4.964" id="path-1"/><linearGradient x1="46.482%" y1="28.216%" x2="52.706%" y2="66.662%" id="linearGradient-3"><stop stop-color="#ED1C24" offset="0%"/><stop stop-color="#E91C24" offset="19.7%"/><stop stop-color="#E11B22" offset="35.14%"/><stop stop-color="#D41920" offset="49.13%"/><stop stop-color="#C3151C" offset="62.18%"/><stop stop-color="#B01116" offset="72.47%"/><stop stop-color="#B01116" offset="100%"/></linearGradient><linearGradient x1=".003%" y1="49.998%" x2="100.005%" y2="49.998%" id="linearGradient-4"><stop stop-color="#ED1C24" offset="10.65%"/><stop stop-color="#E61B23" offset="19.06%"/><stop stop-color="#D91921" offset="30.52%"/><stop stop-color="#C3151C" offset="43.7%"/><stop stop-color="#B61318" offset="50.19%"/><stop stop-color="#8A0304" offset="70.21%"/><stop stop-color="#790000" offset="77.95%"/></linearGradient></defs><g id="Page-1" fill="none" fill-rule="evenodd"><g id="austrian"><g id="Austrian_Airlines_Logo_(2013)" transform="translate(39 33)"><g id="Group" fill="#ED1C24"><path d="M160.842 12.976c-2.071.708-4.258 1.23-6.694 1.596l-.109.016v.778l.119.01c2.641.193 3.363 1.121 3.363 4.32v7.588c0 5.651 0 6.67-3.255 6.67h-.325v.955h11.3v-.955h-.33c-3.21 0-3.304-.95-3.304-6.67V20.64c0-1.602.081-3.028 1.064-4.217 1.05-1.251 2.613-2.002 4.181-2.002 2.886 0 4.352 1.957 4.352 5.821v7.044c0 5.72-.09 6.67-3.255 6.67h-.329v.955h11.3v-.956h-.326c-3.203 0-3.305-1.057-3.305-6.669V20.19c0-4.618-1.926-7.33-6.853-7.33-2.78 0-4.785.75-6.854 2.666a303.38 303.38 0 0 0-.28-2.421l-.42-.14-.04.01" id="Shape" fill-rule="nonzero"/><path d="M143.596 28.113v-5.778a69.24 69.24 0 0 1-2.433 1.32c-3.265 1.706-5.677 3.14-5.677 6.566 0 2.293 1.542 4.025 3.612 4.025 2.897.001 4.498-2.226 4.498-6.133zm8.409 6.15c-1.003.89-2.373 1.394-3.95 1.394-2.567 0-3.86-.75-4.537-2.344-1.452 1.709-3.228 2.344-5.765 2.344-3.912 0-6.555-2.05-6.555-5.574 0-3.804 3.365-5.634 7.933-7.05l.34-.105c2.295-.71 4.078-1.502 4.078-3.467v-.975c0-2.932-1.342-4.472-3.802-4.472-1.913 0-2.705.901-2.941 2.86-.122 1.022-.55 2.245-2.03 2.245-1.227 0-2.018-.738-2.018-1.878 0-2.569 2.954-4.383 7.34-4.383 5.389 0 7.484 2.163 7.484 6.587V30.28c0 2.86.474 3.87 1.816 3.87.681 0 1.337-.223 2.008-.714l.599.828z" id="Shape"/><path d="M21.51 21.575H9.875l-.92 2.306c-1.12 2.813-1.81 5.298-1.813 6.648-.008 2.152 1.512 3.097 4.444 3.495v.883H.002v-.918c3.433-.2 4.994-4.559 8.747-13.757L16.929.19h1.08l10.31 25.442c2.149 5.302 3.283 8.256 6.517 8.358v.918H20.778v-.918c2.737-.148 4.164-.91 4.172-2.612 0-.897-.47-2.254-1.234-4.196l-2.206-5.607zM10.415 20.22h10.562L15.729 6.887 10.415 20.22zm45.518-6.611h-7.54v.955h.378c3.154 0 3.254 1.05 3.254 6.62v6.346c0 1.99-.078 3.383-1.113 4.614-1.05 1.256-2.612 2.056-4.18 2.056-2.89 0-4.351-2.009-4.351-5.868V13.609h-7.717v.955h.376c3.156 0 3.256 1.05 3.256 6.62v6.962c0 4.827 2.045 7.51 7.057 7.51 2.823 0 4.712-.85 6.673-2.635v2.4l1.18-.17c2.087-.3 4.058-.585 5.979-.799l.112-.014v-.784l-.117-.008c-2.448-.19-3.117-1.106-3.117-4.27V13.608h-.13m8.179 5.118c0 3.905 3.195 5.204 6.597 7.106 2.288 1.294 3.92 2.674 3.92 4.84 0 2.142-1.46 3.675-3.653 3.675-3.24 0-5.161-1.688-6.447-6.498l-.025-.096h-.673v7.553h.643l.036-.055c.495-.697.91-.996 1.389-.996.222 0 .564.158 1.001.357.912.415 2.396 1.044 4.373 1.044 4.184 0 7.097-2.765 7.097-6.58 0-1.849-.716-3.282-1.926-4.502-1.1-1.111-2.805-2.088-4.718-3.11-2.692-1.48-4.473-2.413-4.473-4.536 0-1.78 1.445-2.864 3.314-2.864 2.629 0 4.579 1.918 5.35 5.547l.022.1h.68v-6.503h-.661l-.035.078c-.229.555-.488.77-.926.77-.219 0-.55-.146-.97-.33-.831-.366-2.12-.868-3.66-.868-3.57 0-6.255 2.463-6.255 5.868M95.965 33.89c-1.122 1.172-2.696 1.767-4.697 1.767-3.974 0-5.848-1.812-5.848-5.337 0-3.303.19-15.453.19-15.453h-2.729V13.67l.109-.018c2.874-.482 4.45-2.126 5.62-5.752l.028-.089h1.018l-.05 5.798h5.488v1.257h-5.49l-.098 13.986v.598c0 2.979.836 4.648 3.254 4.648 1.012 0 1.803-.299 2.524-.995l.681.787m8.818-20.914c-2.066.708-4.254 1.23-6.694 1.596l-.109.016v.778l.119.01c2.641.193 3.364 1.121 3.364 4.32v7.588c0 5.651 0 6.67-3.254 6.67h-.329v.955h11.85v-.955h-.427c-1.916 0-2.756-.304-3.208-1.158-.506-.955-.546-2.743-.546-5.362v-4.3c0-5.005 1.89-8.266 3.654-8.266.853 0 1.264.522 1.7 1.189.465.708.993 1.51 2.131 1.51 1.178 0 1.97-.753 1.97-1.88 0-1.737-1.518-2.828-3.76-2.828-2.374 0-4.404 1.245-5.794 4.071-.012-1.587-.076-2.608-.198-3.747l-.009-.08-.417-.14-.043.013m14.635-8.21c0 1.406 1.016 2.428 2.418 2.428 1.422 0 2.417-1 2.417-2.428 0-1.292-1.13-2.429-2.417-2.429-1.288 0-2.418 1.137-2.418 2.429m4.372 8.188c-2.223.63-4.543 1.136-7.298 1.6l-.105.018v.778l.118.008c2.641.193 3.363 1.122 3.363 4.318v7.606c0 5.65 0 6.67-3.254 6.67h-.328v.956h11.3v-.955h-.325c-3.216 0-3.307-.95-3.307-6.671V12.909l-.164.045" id="Shape" fill-rule="nonzero"/></g><g id="Group" transform="translate(190.196 4.615)"><g id="Clipped"><mask id="mask-2" fill="#fff"><use xlink:href="#path-1"/></mask><path id="Shape" fill="url(#linearGradient-3)" fill-rule="nonzero" mask="url(#mask-2)" d="M55.973-11.828l8.637 40.757-62.017 13.22-8.638-40.756z"/></g><path d="M17.792 5.483L5.378 8.278l-.017.006-.023.02.023.023.022.003 7.354 1.11c4.593-2.14 7.591-2.794 9.549-2.709l-.006-.01c-.002-.001-.003-.004-.003-.006l-.009-.02h-.001a.109.109 0 0 0-.01-.019l-.002-.005a2.984 2.984 0 0 0-.375-.541c-.002-.003-.004-.007-.007-.008-.196-.231-.477-.396-.8-.51-.53-.19-1.173-.246-1.752-.246-.833 0-1.53.117-1.53.117" id="Shape" fill="url(#linearGradient-4)" fill-rule="nonzero"/></g></g></g></g></svg>