<svg xmlns="http://www.w3.org/2000/svg" width="70" height="70">
  <g fill="none" fill-rule="evenodd">
    <circle cx="35" cy="35" r="35" fill="#FFF"/>
    <path fill="#00DF9E" d="M52.519 46.789l-1.326.884c-.036.013-.073.016-.107.034l-3.194 1.91.795-5.264 3.832 2.436zm1.212-7.235l1.166 2.967a.666.666 0 0 0 .103.268l.913 2.38-2.06.854-5.043-3.2-.075-1.543 4.996-1.726zm-5.032-4.89V31.68l4.305 2.02-1.694.379a.624.624 0 0 0-.243.053l-2.368.53zm2.355.86l1.98 2.85-4.335 1.49v-3.812l2.355-.528zM35.662 66.567v-9.862l3.925-6.055 3.457 2.86a.7.7 0 0 0 .44.146c.11 0 .22-.036.33-.072l3.563-2.057 3.93-2.358 3.268 3.863a.64.64 0 0 0 .515.257.553.553 0 0 0 .404-.147l4.37-3.158c.294-.22.367-.662.147-.955a.697.697 0 0 0-.955-.147L55.2 51.674l-2.717-3.232 1.542-1.03 3.011-1.247a.642.642 0 0 0 .418-.607.685.685 0 0 0-.05-.275l-1.08-2.813 4.201-6.956c.22-.293.11-.735-.22-.918-.33-.183-.734-.11-.919.221l-3.692 6.031-.936-2.395c-.01-.026-.03-.045-.045-.068-.01-.026-.012-.053-.028-.08l-2.202-3.101 2.717-.608h.037l4.664-1.323c.367-.11.587-.476.477-.844-.11-.367-.477-.587-.845-.478l-4.406 1.25-5.4-2.534 3.783-1.544c.33-.146.515-.55.368-.88a.677.677 0 0 0-.882-.368l-5.251 2.093c-.025.012-.039.04-.062.055a.665.665 0 0 0-.229.219.651.651 0 0 0-.114.35v1.768l-6.243-.591c-.11-.038-.183 0-.294.036l-3.93 1.543-4.187.403-4.847.551-4.59-4.186a.679.679 0 0 0-.59-.184c-.218.073-.402.22-.477.404L20.31 34.89l-4.738-.367-.367-4.555c-.038-.367-.368-.66-.735-.624-.367.037-.66.368-.623.735l.382 4.885-3.32 4.7-4.334-5.325c-.22-.295-.662-.331-.956-.11-.294.22-.33.66-.11.954l4.922 6.06a.64.64 0 0 0 .514.257h.036c.183-.037.405-.11.515-.293l1.126-1.59 4.53 2.68-2.498 1.113c-.33.148-.514.552-.33.881.146.368.55.515.88.368l3.306-1.47 1.397 1.213-2.094 4.407-2.829 2.02-3.231-5.363c-.22-.33-.625-.44-.955-.22a.69.69 0 0 0-.221.919l3.6 5.986c.11.183.257.294.44.33h.147a.835.835 0 0 0 .403-.109l2.976-2.116 7.64 2.886c.11.038.183.038.257.038.22 0 .403-.075.55-.258l2.666-3.424 5.046 7.182v9.887C17.181 66.194 3.416 52.21 3.416 35 3.416 17.555 17.556 3.38 35 3.38c17.446 0 31.585 14.176 31.585 31.62 0 17.225-13.785 31.215-30.923 31.568zm1.655-27.094l-3.486 2.406-.41-2.362v-3.561l3.896 3.517zm3.046-2.103l-1.9 1.31-4.088-3.717 2.719-.257c.073 0 .146 0 .22-.036l3.049-1.231v3.931zm-4.982 9.981l-1.236-4.013 6.114-4.21-.374 5.127-4.504 3.096zm10.564 3.404l-2.387 1.396-3.673-3.011a.701.701 0 0 0-.244-.14c-.004 0-.008-.006-.013-.007l-3.049-.81 4.366-3.006 5 5.578zm1.395-6.72l-.77 5.362-4.188-4.627 4.958-.735zm-5.62-6.727v-4.125l5.62.545v1.657a.692.692 0 0 0 0 .276v4.113l-5.62-2.466zm5.646 3.953l.083 1.364-6.13.949.335-4.819 5.712 2.506zm-14.29 3.27l1.264 4.131c.018.05.061.074.087.116a.561.561 0 0 0 .142.19c.044.038.094.055.147.08.036.014.06.05.101.054l3.526.955-3.372 5.232-4.855-6.921 2.96-3.837zm-7.955 1.046l1.31-2.49 5.607.536-2.984 3.872-3.933-1.918zm-1.248.917l4.332 2.095-2.387 3.085-6.657-2.501 1.895-4.056 2.817 1.377zm-.778-6.287l2.528-.618-.232 2.575-1.505 2.805-2.794-1.352-1.338-1.173 3.34-2.237zm-1.097-.863l-3.377 2.23-5.207-3.078 1.857-2.624 5.021.35 1.706 3.122zm3.857-1.186l-2.607.624-1.75-3.232 1.566-3.781 3.751 3.445-.96 2.944zm1.467-.12l.78-2.389 3.96-.466v2.8l-4.74.054zm4.74 1.3v.216c0 .037 0 .074.037.11l.417 2.636-5.743-.542.222-2.388 5.068-.031zM35 0C15.682 0 0 15.682 0 35c0 19.318 15.682 35 35 35 19.318 0 35-15.682 35-35C70 15.681 54.318 0 35 0z"/>
  </g>
</svg>
