<svg xmlns="http://www.w3.org/2000/svg" width="266" height="266"><g fill="#FFF" fill-rule="evenodd"><path d="M133 0c47.523 0 91.429 25.35 115.184 66.5 23.755 41.15 23.755 91.85 0 133C224.429 240.65 180.524 266 133 266c-47.523 0-91.429-25.35-115.184-66.5-23.755-41.15-23.755-91.85 0-133a134.835 134.835 0 0 1 7.582-11.677l53.8 39.088c-13.965 19.219-16.625 44.436-6.955 66.141A66.506 66.506 0 0 0 186.8 172.09c13.966-19.219 16.626-44.436 6.956-66.141a66.506 66.506 0 0 0-53.8-39.089A67.497 67.497 0 0 0 133 66.5V0z" opacity=".7"/><path d="M25.596 54.902C50.488 20.422 90.663 0 133 0v66.563c-21.175 0-41.233 10.19-53.679 27.43l-53.725-39.09z" opacity=".3"/><path fill-rule="nonzero" d="M111.946 134.4a.858.858 0 0 1-.303-1.182l21.155-35.056a.868.868 0 0 1 1.485 0l21.1 34.986a.857.857 0 0 1-.304 1.18l-21.198 12.384a.86.86 0 0 1-.879 0L111.946 134.4zm42.236 4.218a.87.87 0 0 1 1.077.158.856.856 0 0 1 .07 1.078l-21.163 29.656a.866.866 0 0 1-1.412 0l-21.11-29.603a.855.855 0 0 1 .07-1.079.872.872 0 0 1 1.077-.157l20.67 12.14 20.72-12.193z"/></g></svg>