<svg enable-background="new 0 0 159.5 20.8" viewBox="0 0 159.5 20.8" xmlns="http://www.w3.org/2000/svg"><path d="m11 14.8c0-.7.3-.8 1-.4 1.2.7 2.4 1.3 2.4 1.3 0-.4.4-.7 1.1-.5s1.4.3 1.4.3-.4-.9-.6-1.3c-.3-.7 0-1.1.3-1.2 0 0-.4-.3-.7-.5-.6-.4-.5-.9.1-1.1.8-.4 1.9-.8 1.9-.8-.3-.2-.7-.7-.3-1.4.4-.6 1.1-1.5 1.1-1.5s-1.1 0-1.9 0c-.7 0-.9-.6-.9-1 0 0-1.1.8-1.9 1.3-.7.5-1.3 0-1.2-.8.2-1.2.3-2.6.3-2.6-.4.4-1.1.3-1.5-.3-.5-1-1-2.2-1-2.2s-.5 1.2-1 2.2c-.3.6-1 .7-1.4.4 0 0 .1 1.4.3 2.6.1.7-.5 1.2-1.2.7-.8-.5-2-1.3-2-1.3 0 .4-.2.9-.9 1-.8 0-1.9 0-1.9 0s.7.9 1.1 1.5 0 1.2-.3 1.4c0 0 1 .5 1.9.8.6.3.8.7.1 1.1-.2.2-.7.5-.7.5.4.1.7.5.4 1.2-.2.4-.6 1.3-.6 1.3s.7-.2 1.4-.3c.7-.2 1 .2 1.1.5 0 0 1.2-.7 2.4-1.3.6-.4 1-.2 1 .4v1.7c0 1-.2 2-.5 2.6-4.5-.5-8.3-4.1-8.3-8.9 0-4.9 4.1-8.9 9.2-8.9s9.2 4 9.2 8.9c0 4.6-3.6 8.4-8.2 8.9v1.2c5.4-.5 9.6-4.8 9.6-10.1 0-5.7-4.8-10.2-10.7-10.2-5.8 0-10.6 4.5-10.6 10.1 0 4.9 3.7 9 8.6 9.9.8.2 1.3.3 1.8.8.5-1 .6-3 .6-4.1z" fill="#f01428"/><g fill="#2e2a25"><path d="m53.9 15.5v-10.8h5.3c2.8 0 4.1 1.2 4.2 2.7 0 .7-.1 1.4-.6 1.9s-.7.7-1.6 1.2l4 5.1h-2.9l-3.6-4.6h-2.4v4.5zm2.4-5.9h1.1c2.9 0 3.5-.5 3.5-1.9s-1.3-1.6-3.2-1.6h-1.4z"/><path d="m30.2 15.5 4.7-10.8h2.9l4.7 10.8h-2.9l-1.3-2.9h-5l-1.3 2.9zm3.7-4.3h3.7l-1.9-4.3z"/><path d="m45.8 4.7h2.5v10.8h-2.5z"/><path d="m83.2 15.1c-1.2.5-2.7.7-4.5.7-2.1 0-3.8-.5-5-1.5s-1.8-2.4-1.8-4.2.6-3.3 1.8-4.2c1.2-1 2.9-1.5 5.2-1.5 1.4 0 2.8.1 4.3.4v1.8c-1.6-.5-3.1-.7-4.2-.7-1.4 0-2.4.4-3.2 1.1-.7.7-1.1 1.8-1.1 3.1s.4 2.3 1.2 3.1c.8.7 1.9 1.1 3.3 1.1 1.3 0 2.7-.3 4-.8z"/><path d="m86.3 15.5 4.7-10.8h2.9l4.7 10.8h-2.9l-1.3-2.9h-5l-1.3 2.9zm3.8-4.3h3.7l-1.8-4.3z"/><path d="m117.6 15.5 4.7-10.8h2.9l4.7 10.8h-2.9l-1.3-2.9h-5l-1.3 2.9zm3.7-4.3h3.7l-1.9-4.3z"/><path d="m152.8 6.9 1.9 4.3h-3.7zm-.8-2.2-4.7 10.8h1.8l1.3-2.9h5l1.3 2.9h2.9l-4.7-10.8z"/><path d="m102.2 15.5v-10.8h2.9l6.8 7.7v-7.7h2.1v10.8h-2.7l-7-8.1v8.1z"/><path d="m133.4 15.5v-10.8h5.2c1.9 0 3.3.5 4.3 1.3 1 .9 1.5 2.2 1.5 3.8 0 1.8-.5 3.2-1.6 4.1-1.1 1-2.5 1.5-4.4 1.5h-5zm2.5-1.5h1.9c1.3 0 2.3-.3 3-1s1-1.6 1-3c0-1-.3-1.9-.8-2.6-.4-.5-.8-.8-1.3-1s-1.2-.3-2.2-.3h-1.5v7.9z"/></g></svg>