<svg xmlns="http://www.w3.org/2000/svg" xmlns:xlink="http://www.w3.org/1999/xlink" width="363" height="363" viewBox="0 0 363 363">
    <defs>
        <circle id="a" cx="181.5" cy="181.5" r="181.5"/>
    </defs>
    <g fill="none" fill-rule="evenodd" transform="translate(0 -1)">
        <path fill="#FFF" fill-rule="nonzero" d="M181.5 358c96.926 0 175.5-78.574 175.5-175.5S278.426 7 181.5 7 6 85.574 6 182.5 84.574 358 181.5 358zm0 6C81.26 364 0 282.74 0 182.5S81.26 1 181.5 1 363 82.26 363 182.5 281.74 364 181.5 364z"/>
        <mask id="b" fill="#fff">
            <use xlink:href="#a"/>
        </mask>
        <g fill="#FFF" mask="url(#b)">
            <path fill-rule="nonzero" d="M204.074 198.35l-7.159-17.837a.819.819 0 0 0-.979-.483l-22.329 6.18h-55.081l-22.33-6.18a.819.819 0 0 0-.979.483L88.06 198.35a.817.817 0 0 0 .535 1.087l21.985 6.249.034 52.019c0 1.198.975 2.17 2.178 2.17h66.583a2.175 2.175 0 0 0 2.179-2.17l.013-51.89c0-.044-.003-.087-.005-.13l21.978-6.248a.818.818 0 0 0 .535-1.087zm-88.59 5.34l3.54-13.227h54.085l3.54 13.226h-61.166z"/>
            <path d="M145.96 74h.029c23.197.008 42.003 18.806 42.011 42 0 23.185-18.793 41.985-41.984 42h-.057c-22.702-.015-41.196-18.033-41.959-40.553v-2.895c.763-22.513 19.251-40.537 41.96-40.552zm26.374 19.687l4.91.834a38.028 38.028 0 0 0-3.4-4.25l-1.51 3.416zm8.37 7.02l-.001.002a37.883 37.883 0 0 0-2.192-4.228l-2.164 2.85 4.357 1.377zm1.366 3.573a38.273 38.273 0 0 0-.566-1.609l-5.704-1.802-.04 4.458.273 2.981 6.037-4.028zm1.436 6.122a37.676 37.676 0 0 0-.948-4.488l-5.083 3.392 6.03 1.096zm.412 5.598c0-1.303-.066-2.606-.198-3.902l-7.465-1.357.215 2.336v.003l.221 2.412 7.22 1.101c.003-.197.007-.394.007-.593zm-.333 5.038c.122-.925.212-1.86.266-2.805l-7.497-1.142-2.056 3.372 3.892 3.714 5.395-3.14zm-1.556 6.804a37.717 37.717 0 0 0 1.218-4.72l-3.829 2.229 2.611 2.49zm-2.407 5.696a37.656 37.656 0 0 0 1.809-4.012l-3.48-3.32-4.385 2.553 6.056 4.78zm-32.849 20.374h-.002a37.95 37.95 0 0 0 32.053-18.925l-2.1-1.657-6.136 4.465a.816.816 0 0 1-1.101-.131l-3.942-4.641-4.732 2.794-.007.004-4.25 2.462a.816.816 0 0 1-.929-.076l-4.149-3.412-4.705 7.261v11.856zm-.843-13.554l4.07-6.274-4.248-1.138c-.008-.002-.013-.006-.02-.009a.748.748 0 0 1-.093-.04.833.833 0 0 1-.129-.066.79.79 0 0 1-.076-.063.786.786 0 0 1-.158-.184.792.792 0 0 1-.068-.137c-.007-.018-.02-.032-.025-.05l-1.532-4.983-3.554 4.637 5.833 8.307zm-.789 13.554l-.002-.001v-11.838l-6.092-8.673-3.207 4.107a.816.816 0 0 1-.93.261l-9.204-3.461-3.585 2.534c-.007.006-.016.007-.024.012a.801.801 0 0 1-.185.092c-.007.003-.014.009-.021.009a.783.783 0 0 1-.173.034l-6.978.583a37.922 37.922 0 0 0 30.401 16.34zm-31.767-18.457h-.002c.114.19.23.378.347.566l6.56-.548-3.263-5.421-1.366.69-2.276 4.713zm-3.62-8.043h-.002a37.698 37.698 0 0 0 2.646 6.311l1.601-3.316-4.245-2.995zm-.986-3.804h-.003c.09.444.191.884.297 1.322l6.042 4.26 3.442-1.74-2.159-4.023-1.62-2.002-6 2.183zm-.743-6.367h-.002a38.04 38.04 0 0 0 .452 4.738l5.207-1.894-2.806-3.466-2.85.622zm.49-7.477a38.049 38.049 0 0 0-.508 5.811l6.591-1.439-2.265-4.808-3.818.436zm1.378-5.612a37.558 37.558 0 0 0-1.062 3.935l2.768-.316-1.706-3.62zm1.672-4.208c-.316.67-.611 1.352-.886 2.045l2.633 5.586 6.597-.754-.888-1.804-7.456-5.073zm7.69-10.891a38.07 38.07 0 0 0-6.375 8.341l5.865-2.756 2.097-5.477-1.587-.108zm5.571-4.557a38.143 38.143 0 0 0-3.94 3.034l6.842.468-2.902-3.502zm5.716-3.156a37.74 37.74 0 0 0-4.33 2.27l3.205 3.87 2.042-3.875-.917-2.265zm7.958-2.528a37.7 37.7 0 0 0-6.453 1.894l.812 2.007 3.72-.77 1.92-3.131zm3.052-.478a39.6 39.6 0 0 0-.916.117l-2.564 4.18 3.243 4.435 3.824.339v-5.65l-3.587-3.421zm4.408-.256c-.757 0-1.506.025-2.252.068l2.476 2.352 3.528-2.236a37.927 37.927 0 0 0-3.752-.184zm11.203 1.68a37.705 37.705 0 0 0-4.93-1.162l-4.059 2.572 8.298 2.273.691-3.683zm7.898 9.248l-7.734-3.548-2.827 3.259 5.503 3.072 5.058-2.783zm-6.334-8.726l-.696 3.707 7.35 3.373-1.823-4.965a37.766 37.766 0 0 0-4.831-2.115zm15.617 18.984l2.41-3.172-5.255-.893-3.45 4.409 6.093 4.204.04-4.064v-.016a.812.812 0 0 1 .02-.163v-.01a.808.808 0 0 1 .063-.165c.008-.017.02-.032.03-.048a.791.791 0 0 1 .049-.082zm-1.777 20.9l2.535-4.153-.167-1.824-4.65 1.31c-.006.002-.01 0-.018.002-.009.003-.017.009-.026.009l-3.285.734 2.636 3.747.008.013a.89.89 0 0 1 .04.075c.013.024.027.047.037.07.002.005.006.008.006.012l1.134 2.878 1.75-2.87v-.003zm-1.004 4.78l.973 2.523 4.186-2.437-3.294-3.143-1.865 3.058zm-2.677 5.918l-1.948 1.281 3.3 3.887 5.153-3.752-3.405-2.687-3.1 1.27zm-6.495-3.641l-.938 6.32 3.834-2.265L167 130.15l-4.61-2.93zm-1.538-32.72l7.352 2.258 1.91-2.442-3.452-4.332-5.837 3.212.027 1.305zm5.39 4.766l.886-1.133-6.264-1.922v3.264l2.616 2.954 2.761-3.163zm-3.439 10.098l10.426-4.197-6.221-4.297-2.784 3.189-1.42 5.305zm.83 1.427l6.497 3.055 4.65-1.309-.553-6.012-10.595 4.266zm1.772 4.127l.005-.001 2.143-.479-5.146-2.42v3.57l2.998-.67zm3.04 6.565l-6.002 2.06.112 1.852 6.027 3.828 2.486-1.02-1.175-3.046-1.448-3.674zm-6.036.347l5.219-1.79-2.401-3.412-2.818.63v4.572zm-5.242-18.512l4.078 5.561 1.338-4.998-2.966-3.349-3.3-.68.85 3.466zm-3.63 22.964l7.37-1.115-.1-1.646-6.852-3.015-.418 5.776zm1.308 1.452l4.998 5.549.954-6.45-5.952.901zm-1.754.49l-5.217 3.602 3.627.971.009.003a.806.806 0 0 1 .166.067c.013.006.023.016.035.023.034.02.067.04.098.065l4.418 3.633 2.89-1.674-6.026-6.69zm-.802-7.3l-7.373 5.069 1.494 4.86 5.43-3.752.449-6.177zm-8.208-3.775v4.264l.475 2.848 4.195-2.885-4.67-4.227zm-2.3-9.383l2.068 6.672 3.358-.305-2.876-6.367h-2.55zm-5.699 16.359l6.9.626-.523-3.137a.823.823 0 0 1-.011-.134v-.271l-6.107.058-.259 2.858zm-2.008 4.556l4.765 2.32 3.574-4.665-6.753-.611-1.586 2.956zm-4.865-.536l-2.293 4.874 8.005 3.012 2.896-3.711-5.22-2.544-3.388-1.631zm-3.048-2.325l-6.157 2.717-1.531.775 3.422 5.69 3.219-2.276.204-.143 2.502-5.319-1.66-1.444zm-7.085-4.276l-1.051 1.488 1.994 3.717 4.504-1.99-5.447-3.215zm-3.104-6.042c-.009.002-.017.008-.025.01l-3.289.719 4.364 5.393 3.989-5.644-.147-1.827-4.874 1.349h-.018zm4.76-3.007l-.328-4.09-6.36.727 2.173 4.612 4.515-1.249zm3.082-16.191l-4.265-.243-6.382 2.999 6.245 4.25 2.937-4.748a.036.036 0 0 1 .005-.007l.004-.008 1.457-2.243zm1.017-1.58l3.29-5.071-5.584-.382-1.994 5.208 4.288.244zm12.673-2.099l-7.602-2.706-3.16 4.868h8.336l2.426-2.162zm1.104-1.338l1.333-3.331-3.208-4.386-3.84.794-2.17 4.118 7.885 2.805zm2.798 6.183l-2.503-3.908-2.698 2.405v3.738l4.887-.334.314-1.9zm5.422-.668l-1.56-7.753-3.868-.343-1.412 3.526 2.74 4.278 4.1.292zm6.048-8.717l2.763-3.18-8.875-2.431v5.07l6.112.541zm-.842 9.474l3.47-6.414-2.531-1.413-6.01-.533 1.569 7.792 2.125.393 1.377.175zm3.342.429l3.85.794v-3.67l-.04-1.912-2.256-1.259-3.16 5.84 1.544.197c.008 0 .007.002.022.006.014.004.027.001.04.004zm-6.674 17.61l.006.005a.796.796 0 0 1-.213.05l-3.304.301 4.937 4.468 2.275-1.564v-4.736l-3.684 1.472c-.006.005-.012.005-.017.005zm1.664-7.38l-4.2-.344 2.673 5.917 3.307-1.322-1.78-4.251zm.571-9.153l-4.656 7.182 4.425.362 4.776-3.296-.928-3.787-3.617-.461zm-6.526 7.068l4.773-7.362-1.445-.268-4.79-.341-1.315 7.97h2.777zm-12.585 14.389l3.134-.754 1.182-3.52-4.527-4.133-1.893 4.539 2.104 3.868zm-.086 1.698l-4.096 2.727 1.626 1.415 3.33 1.604 1.795-3.344.281-3.108-2.936.706zm-9.494-5.17l-2.228 3.153 6.258 3.695 4.058-2.702-2.02-3.714-6.068-.433zm6.938-13.222l-5.883-3.712-2.715 4.39 1.196 2.429 3.462-.098 3.94-3.01zm5.392-3.685v-3.723h-8.693l-.194-.011-1.514 2.331 6.424 4.053 3.977-2.65zm-2.055 3.329l4.795 1.403.048.016 2.662.957.796-4.823-5.158.353-3.143 2.094zm-5.487 4.05l4.16 2.222 4.238-3.723-4.653-1.359-3.745 2.86zm-4.982 1.037l.551 6.88 5.687.406 1.98-4.745-4.933-2.634-3.285.093zm20.394 7.661l-4.75.536-.965 2.873 5.715-.054v-3.355zm-5.082-1.068l4.828-.545-2.178-7.03-2.75-.992-4.732 4.156 4.832 4.411zm23.412-.693l-6.734-.64v4.94l6.734 2.963v-7.263zm-6.986-2.304l6.987.666V111l-4.551-6.21-4.283 2.954 1.847 4.412zm18.827-23.15a38.128 38.128 0 0 0-6.838-5.353l1.81 4.876 3.37 4.228 1.658-3.751zM253.348 203.745h-28.621l9.4-12.912h19.221v12.912zm5.304 0v-12.912h19.664l9.4 12.912h-29.064zm-36.348 6.073h31.044v12h5.304v-12h31.043v44.909h-67.391v-44.909zm72.665-3.073c.088-.66-.057-1.329-.428-1.841l-12.962-17.894-.059-.081-.074-.068c-.281-.259-1.036-.861-1.973-.861h-46.827c-.886 0-1.634.358-2.106 1.01l-12.911 17.823a2.077 2.077 0 0 0-.591 1.838c-.019.131-.038.262-.038.402v50.4c0 1.464 1.1 2.527 2.617 2.527h72.766c1.516 0 2.617-1.063 2.617-2.527v-50.4c0-.114-.019-.22-.031-.328zM36.348 203.745H7.727l9.4-12.912h19.221v12.912zm5.304 0v-12.912h19.664l9.4 12.912H41.652zm-36.348 6.073h31.044v12h5.304v-12h31.043v44.909H5.304v-44.909zm72.665-3.073c.088-.66-.057-1.329-.428-1.841L64.579 187.01l-.059-.081-.074-.068c-.281-.259-1.036-.861-1.973-.861H15.646c-.886 0-1.634.358-2.106 1.01L.629 204.833a2.077 2.077 0 0 0-.591 1.838 2.753 2.753 0 0 0-.038.402v50.4C0 258.937 1.1 260 2.617 260h72.766c1.516 0 2.617-1.063 2.617-2.527v-50.4c0-.114-.019-.22-.031-.328zM353.348 203.745h-28.621l9.4-12.912h19.221v12.912zm5.304 0v-12.912h19.664l9.4 12.912h-29.064zm-36.348 6.073h31.044v12h5.304v-12h31.043v44.909h-67.391v-44.909zm72.665-3.073c.088-.66-.057-1.329-.428-1.841l-12.962-17.894-.059-.081-.074-.068c-.281-.259-1.036-.861-1.973-.861h-46.827c-.886 0-1.634.358-2.106 1.01l-12.911 17.823a2.077 2.077 0 0 0-.591 1.838c-.019.131-.038.262-.038.402v50.4c0 1.464 1.1 2.527 2.617 2.527h72.766c1.516 0 2.617-1.063 2.617-2.527v-50.4c0-.114-.019-.22-.031-.328z"/>
        </g>
    </g>
</svg>
