
<svg width="300px" height="310px" viewBox="0 0 300 310" version="1.1" xmlns="http://www.w3.org/2000/svg" xmlns:xlink="http://www.w3.org/1999/xlink">
    <defs>
        <linearGradient x1="16.173041%" y1="42.5758484%" x2="116.173041%" y2="69.6153576%" id="linearGradient-1">
            <stop stop-color="#AF94C3" offset="0%"></stop>
            <stop stop-color="#8CF4D3" offset="100%"></stop>
        </linearGradient>
        <linearGradient x1="16.173041%" y1="45.8280708%" x2="116.173041%" y2="61.022658%" id="linearGradient-2">
            <stop stop-color="#AF94C3" offset="0%"></stop>
            <stop stop-color="#8CF4D3" offset="100%"></stop>
        </linearGradient>
    </defs>
    <g id="Page-1" stroke="none" stroke-width="1" fill="none" fill-rule="evenodd">
        <g id="Desktop-HD" transform="translate(-943.000000, -450.000000)">
            <g id="map" transform="translate(943.000000, 450.000000)">
                <polygon id="Rectangle" fill="#634781" transform="translate(266.463432, 24.970440) rotate(270.000000) translate(-266.463432, -24.970440) " points="241.553944 -8.20735744 265.188536 14.0728795 282.03203 5.49276724 291.372866 14.0728795 291.372866 58.1482379 266.463405 58.1482379 257.642114 42.6654605 241.553944 14.0728795"></polygon>
                <path d="M165.413143,169.81789 L196.642286,159.612933 L199.672555,180.683304 L217.269173,200.760065 L233.368207,218.092846 L240.107338,240.336277 L233.368207,258.950527 C249.103128,269.464417 254.967224,275.609211 250.960494,277.38491 C249.631474,277.973903 244.169121,293.488379 240.107338,290.535627 C233.906909,286.028166 227.548044,261.81566 217.269173,258.950527 C215.077318,258.339569 212.5799,261.824623 209.776919,269.405688 L180.554117,240.336277 L106.14957,218.092846 L83.0949584,188.468529 L118.077597,200.760065 L165.413143,169.81789 Z" id="Rectangle" fill="url(#linearGradient-1)" transform="translate(167.637625, 225.260942) scale(1, -1) rotate(-270.000000) translate(-167.637625, -225.260942) "></path>
                <path d="M1.13686838e-13,9.023114 L103.475686,9.023114 L144.622818,26.2453362 L238.140684,26.2453362 L246.985759,63.305749 L175.230722,50.9379313 L193.999377,72.7545144 L193.999377,93.8062888 L175.230722,141.938074 L174.18563,108.600786 L158.211892,152.79123 L144.622818,152.79123 L123.492879,141.938074 L144.622818,123.453783 C135.542109,124.134189 128.498796,124.134189 123.492879,123.453783 C118.486963,122.773376 111.814565,127.435778 103.475686,137.440988 L103.475686,117.209656 L38.5382998,79.1314545 L27.6632637,72.7545144 L27.6632637,57.1351833 L47.8686097,45.3438709 L82.6332606,72.7545144 L82.6332606,45.3438709 L27.6632637,45.3438709 L1.13686838e-13,9.023114 Z" id="Path" fill="url(#linearGradient-2)" transform="translate(123.492879, 80.907172) scale(-1, 1) translate(-123.492879, -80.907172) "></path>
            </g>
        </g>
    </g>
</svg>