<svg width="85" height="101" viewBox="0 0 85 101" fill="none" xmlns="http://www.w3.org/2000/svg">
<g filter="url(#filter0_d)">
<path fill-rule="evenodd" clip-rule="evenodd" d="M8 0C5.79086 0 4 1.79089 4 4V69C4 71.2092 5.79086 73 8 73H25.1253C25.2108 73.1481 25.317 73.2875 25.4436 73.4142L39.5858 87.5563C40.3668 88.3374 41.6332 88.3374 42.4142 87.5563L56.5564 73.4142C56.683 73.2875 56.7892 73.1481 56.8747 73H73C75.2091 73 77 71.2091 77 69V4C77 1.79083 75.2091 0 73 0H8Z" fill="#7128EA"/>
</g>
<path fill-rule="evenodd" clip-rule="evenodd" d="M14 37.0029C14 51.913 26.0889 64 40.999 64C55.913 64 68 51.913 68 37.0029C68 22.087 55.913 10 40.999 10C26.0889 10 14 22.087 14 37.0029ZM27.6586 16.9798C31.4818 14.4233 36.0671 12.926 40.999 12.926C41.5877 12.926 42.163 12.9717 42.7345 13.0137L39.0655 17.4503L29.4378 19.8258L27.6586 16.9798ZM40.4847 18.0313L44.4775 13.2079C49.7733 13.9776 54.5205 16.4559 58.1113 20.0925L52.4326 20.2982C52.4174 20.2982 52.406 20.3058 52.3926 20.3077C52.3831 20.3097 52.3793 20.3077 52.3698 20.3077C52.3622 20.3058 52.3583 20.3058 52.3507 20.3058L44.3061 21.5098L40.4847 18.0313ZM26.4775 17.8466L28.3291 20.8183L27.6205 25.1254L19.8102 25.5864C21.4522 22.5499 23.7477 19.923 26.4775 17.8466ZM29.7407 21.2564L39.2712 18.9076L43.1193 22.4089L33.3887 37.4257H27.0776L29.7407 21.2564ZM55.391 31.8747L53.347 21.7288L59.401 21.5117C61.826 24.3843 63.5767 27.8285 64.4453 31.6099L59.9649 37.2219L55.391 31.8747ZM35.0937 37.4886L44.5023 22.9614L51.8802 21.8565L53.909 31.9433L47.133 38.0849L35.0937 37.4886ZM19.9111 35.1074L17.0803 34.3378C17.368 31.7795 18.0595 29.3487 19.0843 27.0952L27.3766 26.6056L25.6355 37.1743L19.9111 35.1074ZM49.579 48.3412L48.1827 39.106L54.6443 33.252L59.3743 38.7783L63.1919 46.3296C62.6185 47.6859 61.9155 48.9775 61.1136 50.1967L49.579 48.3412ZM60.8488 38.4583L64.7939 33.5168C64.9597 34.654 65.0759 35.8142 65.0759 37.0029C65.0759 39.6031 64.6454 42.1006 63.8796 44.4513L60.8488 38.4583ZM20.5835 49.6937C18.2804 46.0038 16.9279 41.6643 16.9279 37.0028C16.9279 36.6066 16.966 36.2161 16.9851 35.8256L19.4711 36.5018L25.6222 38.7192L29.8074 52.2463L20.5835 49.6937ZM27.2071 38.8907L33.3163 38.8888L39.1512 51.8178L36.3681 52.0749L31.4285 52.5207L27.2071 38.8907ZM34.947 38.9459L46.7692 39.5307L48.1331 48.5088L40.62 51.5168L34.947 38.9459ZM49.6609 49.8328L60.1554 51.5244C57.4751 55.0466 53.8595 57.8088 49.6666 59.4319L49.6609 49.8328ZM37.2501 60.7502L32.2534 53.9171L40.3056 53.1875C40.378 53.1779 40.4485 53.1608 40.5152 53.136L48.2055 50.0576V59.9691C45.9291 60.6835 43.5117 61.074 40.9991 61.074C39.7208 61.074 38.4769 60.9445 37.2501 60.7502ZM21.8808 51.5682L30.4608 53.9418L35.1203 60.3196C29.7693 58.9671 25.1383 55.8296 21.8808 51.5682Z" fill="white"/>
<defs>
<filter id="filter0_d" x="0" y="0" width="85" height="100.142" filterUnits="userSpaceOnUse" color-interpolation-filters="sRGB">
<feFlood flood-opacity="0" result="BackgroundImageFix"/>
<feColorMatrix in="SourceAlpha" type="matrix" values="0 0 0 0 0 0 0 0 0 0 0 0 0 0 0 0 0 0 127 0"/>
<feOffset dx="2" dy="6"/>
<feGaussianBlur stdDeviation="3"/>
<feColorMatrix type="matrix" values="0 0 0 0 0 0 0 0 0 0 0 0 0 0 0 0 0 0 0.3 0"/>
<feBlend mode="normal" in2="BackgroundImageFix" result="effect1_dropShadow"/>
<feBlend mode="normal" in="SourceGraphic" in2="effect1_dropShadow" result="shape"/>
</filter>
</defs>
</svg>
