<svg xmlns="http://www.w3.org/2000/svg" viewBox="0 0 24.4 24.4">
  <path d="M22.6 15.6l-1.4-2.7 1.8-2.2c.1.5.1 1 .1 1.6 0 1.1-.2 2.2-.5 3.3zm-6.5 6.8v-4.3l4.8.8c-1.2 1.5-2.9 2.7-4.8 3.5zm-5.6.6l-2.3-3.1 3.6-.3h.1l3.5-1.4v4.5c-1 .3-2.1.5-3.3.5-.4-.1-1-.1-1.6-.2zm-6.9-4.2l3.9 1.1 2.1 2.9c-2.4-.6-4.5-2-6-4zm-2.2-7.1l1.1.3 2.8 1 1.9 6.1L3 18c-1.1-1.7-1.7-3.7-1.7-5.7 0-.3 0-.4.1-.6zm4.2-8.2l.8 1.3-.2 2-3.6.3c.8-1.4 1.8-2.6 3-3.6zM13 1.4l-1.7 2-4.3 1-.8-1.2c1.8-1.2 3.9-1.8 6-1.8.3-.1.5-.1.8 0zm7 3.2l-2.6.1-3.6.5L12 3.6l1.8-2.2c2.3.4 4.5 1.5 6.2 3.2zm.8 7.7l-2.1-2.4-.9-4.6 2.7-.1c1.1 1.3 1.9 2.9 2.3 4.6l-2 2.5zm-12.1.8l2.6 5.9h-1.2l-2.2.2L6 13.1h2.7zm8.4-7.7L18 10l-3 2.7-5.4-.3 4.3-6.6c-.1.1 3.2-.4 3.2-.4zM11.4 4l1.7 1.6-4.4 6.8H5.9l1.2-7.3L11.4 4zm-8.7 7.4L1.4 11c.1-1.2.4-2.3.9-3.3l3.8-.2-.8 4.8-2.6-.9zm9.3 7.4l-2.6-5.7 5.4.3.6 4.1-3.4 1.3zm9.3-.6l-5.2-.8-.6-4.2 2.9-2.6 2.1 2.5 1.7 3.4c-.2.6-.5 1.1-.9 1.7zM12.2 0C5.5 0 0 5.5 0 12.2 0 19 5.5 24.4 12.2 24.4s12.2-5.5 12.2-12.2S19 0 12.2 0z" fill="#191919"/>
</svg>
