<svg xmlns="http://www.w3.org/2000/svg" xmlns:xlink="http://www.w3.org/1999/xlink" width="363" height="363" viewBox="0 0 363 363">
    <defs>
        <circle id="a" cx="178.5" cy="178.5" r="178.5"/>
    </defs>
    <g fill="none" fill-rule="evenodd" transform="translate(3 3)">
        <path fill="#FFF" fill-rule="nonzero" d="M178.5 360C78.26 360-3 278.74-3 178.5S78.26-3 178.5-3 360 78.26 360 178.5 278.74 360 178.5 360zm0-6c96.926 0 175.5-78.574 175.5-175.5S275.426 3 178.5 3 3 81.574 3 178.5 81.574 354 178.5 354z"/>
        <mask id="b" fill="#fff">
            <use xlink:href="#a"/>
        </mask>
        <g fill="#FFF" fill-rule="nonzero" mask="url(#b)">
            <path d="M234.5 112h-12c-.9 0-1.5.6-1.5 1.5v9c0 .9.6 1.5 1.5 1.5h12c.9 0 1.5-.6 1.5-1.5v-9c0-.9-.6-1.5-1.5-1.5zm-1.5 9h-9v-6h9v6zm1.5 7h-12c-.9 0-1.5.6-1.5 1.5v9c0 .9.6 1.5 1.5 1.5h12c.9 0 1.5-.6 1.5-1.5v-9c0-.9-.6-1.5-1.5-1.5zm-1.5 9h-9v-6h9v6zm12.5 3h12c.9 0 1.5-.6 1.5-1.5v-9c0-.9-.6-1.5-1.5-1.5h-12c-.9 0-1.5.6-1.5 1.5v9c0 .9.6 1.5 1.5 1.5zm1.5-9h9v6h-9v-6zm21.5 9h12c.9 0 1.5-.6 1.5-1.5v-9c0-.9-.6-1.5-1.5-1.5h-12c-.9 0-1.5.6-1.5 1.5v9c0 .9.6 1.5 1.5 1.5zm1.5-9h9v6h-9v-6zm-24.5 26h12c.9 0 1.5-.6 1.5-1.5v-9c0-.9-.6-1.5-1.5-1.5h-12c-.9 0-1.5.6-1.5 1.5v9c0 .9.6 1.5 1.5 1.5zm1.5-9h9v6h-9v-6zm21.5 9h12c.9 0 1.5-.6 1.5-1.5v-9c0-.9-.6-1.5-1.5-1.5h-12c-.9 0-1.5.6-1.5 1.5v9c0 .9.6 1.5 1.5 1.5zm1.5-9h9v6h-9v-6zm-35.5-3h-12c-.9 0-1.5.6-1.5 1.5v9c0 .9.6 1.5 1.5 1.5h12c.9 0 1.5-.6 1.5-1.5v-9c0-.9-.6-1.5-1.5-1.5zm-1.5 9h-9v-6h9v6zm12.5-30h12c.9 0 1.5-.6 1.5-1.5v-9c0-.9-.6-1.5-1.5-1.5h-12c-.9 0-1.5.6-1.5 1.5v9c0 .9.6 1.5 1.5 1.5zm1.5-9h9v6h-9v-6zm21.5 9h12c.9 0 1.5-.6 1.5-1.5v-9c0-.9-.6-1.5-1.5-1.5h-12c-.9 0-1.5.6-1.5 1.5v9c0 .9.6 1.5 1.5 1.5zm1.5-9h9v6h-9v-6zm-27.5 50h18c.9 0 1.5-.6 1.5-1.5s-.6-1.5-1.5-1.5h-18c-.9 0-1.5.6-1.5 1.5s.6 1.5 1.5 1.5z"/>
            <path d="M295.5 185.9H291v-80.4c0-.9-.6-1.5-1.5-1.5h-75.8c-.9 0-1.5.6-1.5 1.5v69.2c.5 0 1 0 1.4-.1.6 0 1.1-.1 1.6-.2V107H288v78.9h-22.8v-16.7c0-.9-.6-1.5-1.5-1.5h-24.2c-.9 0-1.5.6-1.5 1.5v16.7h-5c0 1-.1 2-.3 3h61.2v3H232c-.3 1-.6 2.1-1 3h64.4c.9 0 1.5-.6 1.5-1.5v-6.1c.1-.8-.5-1.4-1.4-1.4zm-45.5 0h-9.1v-15.2h9.1v15.2zm12.1 0H253v-15.2h9.1v15.2z"/>
            <path d="M227.8 182.2c-.1-1-.3-2-.6-3.1s-.6-2-1.1-2.8c-.5-.8-1.1-1.1-1.7-1.1-.1-.3-.4-.3-1 .1s-.9.5-.9.4c0-.1-.2 0-.6.5l-.7.7-.7.7c-.6.6-1.5 1.1-2.7 1.4-1.2.3-2.5.5-3.9.6-1.4.1-2.9.1-4.3.1s-2.9.1-4.3.2-2.6.3-3.5.6c-1.7.6-3.4 1.4-4.9 2.4-1.5 1-2.9 2.1-4.1 3.4-1.2 1.3-2.2 2.8-2.9 4.6-.7 1.7-1 3.5-1 5.4 0 .9.1 1.7.2 2.6 0 .2.2.5.4 1.1l.3.9c0 .3-.2.7-.7 1.2-.5.5-1 .9-1.6 1.4-.6.4-1.1 1-1.6 1.6-.5.6-.7 1.2-.7 1.8v.3c0 .1 0 .2.1.2 0 0 .1.1.1.2.1.1.1.2.1.3.3.5.5.8.6 1 .2.2.4.4.7.6.3.2.7.3 1.2.3s.9-.3 1.4-.8c.5-.5.9-1.1 1.3-1.7.3-.6.7-1.2 1.1-1.7.4-.5.7-.8.9-.8.4 0 1.1.3 2.3.9 1.2.6 1.9 1 2.1 1 2.2.8 4.5 1.2 6.9 1.2 3.6 0 7.1-.9 10.5-2.7 3.5-1.8 6.4-4 8.6-6.6 2.2-2.6 3.7-5.8 4.4-9.5.3-1.6.5-3.2.5-4.8 0-.4-.1-1.2-.2-2.1zm-12.5 8.4c-.3.3-.7.5-1.1.5-2.9 0-5.4.4-7.5 1.3-2.1.9-4.3 2.3-6.4 4.3l-1.6 1.6c-.8.8-1.3 1.4-1.8 1.8-.3.3-.7.5-1.1.5-.4 0-.8-.2-1.1-.5-.3-.3-.5-.7-.5-1.1 0-.4.2-.8.5-1.1 2-2.2 3.8-4 5.7-5.4 1.8-1.4 3.9-2.5 6.2-3.3 2.3-.8 4.9-1.2 7.6-1.2.4 0 .8.2 1.1.5.3.3.5.7.5 1.1-.1.3-.2.6-.5 1zM310.8 279h3.2v3.2h-3.2zM310.8 286h3.2v3.2h-3.2zM310.8 292h3.2v3.2h-3.2zM310.8 299h3.2v3.2h-3.2zM288.778 258.275l2.263-2.263 7.99 7.99-2.262 2.263zM283.756 263.252l2.263-2.263 6.435 6.435-2.263 2.263zM305.1 288l-5.4-4.8c-.3-.3-.7-.4-1.1-.4h-28.3l-3.1-4.2c-.3-.4-.8-.6-1.3-.6h-3.6c-.9 0-1.6.7-1.6 1.6v3.8c.3-.2.5-.4.7-.6.4-.3 1.6-.5 2.5-.7v-.9h1.2l3.1 4.2c.3.4.8.6 1.3.6H298l4.4 3.9v.9h-12.8c-.5 0-.9.2-1.2.6l-7.5 9h-2.5v-8c0-.9-.7-1.6-1.6-1.6h-2.2c.1.6.2 1.2.3 1.7.1.5.1 1 .2 1.5h.1v8c0 .9.7 1.6 1.6 1.6h4.8c.5 0 .9-.2 1.2-.6l7.5-9H304c.9 0 1.6-.7 1.6-1.6v-3.2c0-.4-.2-.9-.5-1.2z"/>
            <path d="M322.8 271.4h-7.2l-38-38c-.6-.6-1.6-.6-2.3 0l-24.2 24.2c-.6.6-.6 1.6 0 2.3l11.5 11.5h-7.2c-2.7 0-4.8 2.2-4.8 4.8v9.6h.8c.8 0 1.6 0 2.4-.1v-9.5c0-.9.7-1.6 1.6-1.6h52.8c.9 0 1.6.7 1.6 1.6h3.2c0-.9.7-1.6 1.6-1.6h8c.9 0 1.6.7 1.6 1.6V305c0 .9-.7 1.6-1.6 1.6h-8c-.9 0-1.6-.7-1.6-1.6h-3c0 .9-.7 1.6-1.6 1.6h-35.5c-.5 1.1-1 2.2-1.6 3.2h37.1c1.2 0 2.4-.5 3.2-1.2.8.8 2 1.2 3.2 1.2h8c2.7 0 4.8-2.2 4.8-4.8v-28.8c0-2.6-2.1-4.8-4.8-4.8zm-68.2-12.6l21.9-21.9 10.5 10.5-21.9 21.9-10.5-10.5zm57 13.8c-.8-.8-2-1.2-3.2-1.2h-41l21.8-21.8 22.7 22.7c0 .1-.2.2-.3.3z"/>
            <path d="M269.9 293.2c-.1-1-.3-2-.6-3.1s-.6-2-1.1-2.8c-.5-.8-1.1-1.1-1.7-1.1-.1-.3-.4-.3-1 .1s-.9.5-.9.4c0-.1-.2 0-.6.5l-.7.7-.7.7c-.6.6-1.5 1.1-2.7 1.4-1.2.3-2.5.5-3.9.6-1.4.1-2.9.1-4.3.1s-2.9.1-4.3.2-2.6.3-3.5.6c-1.7.6-3.4 1.4-4.9 2.4-1.5 1-2.9 2.1-4.1 3.4-1.2 1.3-2.2 2.8-2.9 4.6-.7 1.7-1 3.5-1 5.4 0 .9.1 1.7.2 2.6 0 .2.2.5.4 1.1l.3.9c0 .3-.2.7-.7 1.2-.5.5-1 .9-1.6 1.4-.6.4-1.1 1-1.6 1.6-.5.6-.7 1.2-.7 1.8v.3c0 .1 0 .2.1.2 0 0 .1.1.1.2.1.1.1.2.1.3.3.5.5.8.6 1 .2.2.4.4.7.6.3.2.7.3 1.2.3s.9-.3 1.4-.8c.5-.5.9-1.1 1.3-1.7.3-.6.7-1.2 1.1-1.7.4-.5.7-.8.9-.8.4 0 1.1.3 2.3.9 1.2.6 1.9 1 2.1 1 2.2.8 4.5 1.2 6.9 1.2 3.6 0 7.1-.9 10.5-2.7 3.5-1.8 6.4-4 8.6-6.6 2.2-2.6 3.7-5.8 4.4-9.5.3-1.6.5-3.2.5-4.8 0-.4 0-1.2-.2-2.1zm-12.5 8.4c-.3.3-.7.5-1.1.5-2.9 0-5.4.4-7.5 1.3-2.1.9-4.3 2.3-6.4 4.3l-1.6 1.6c-.8.8-1.3 1.4-1.8 1.8-.3.3-.7.5-1.1.5-.4 0-.8-.2-1.1-.5-.3-.3-.5-.7-.5-1.1 0-.4.2-.8.5-1.1 2-2.2 3.8-4 5.7-5.4 1.8-1.4 3.9-2.5 6.2-3.3 2.3-.8 4.9-1.2 7.6-1.2.4 0 .8.2 1.1.5.3.3.5.7.5 1.1-.1.3-.2.6-.5 1zM245.6 43.3l-6.7-3.1-6-9.7c-1.7-2.8-4.8-4.5-8-4.5h-25.4c-2.9 0-5.7 1.4-7.5 3.8L184.3 40l-12.8 3.6c-3.2.9-5.4 3.8-5.5 7.1.7-.3 1.4-.6 2.1-.8.5-.2 1-.3 1.6-.4.5-1.2 1.4-2.1 2.7-2.5l13.4-3.7c.4-.1.7-.3.9-.6l8-10.7c1.2-1.5 2.9-2.4 4.8-2.4h25.4c2.1 0 4 1.1 5.1 2.8l6.2 10.1c.2.3.4.5.7.7l7.2 3.3c1.4.7 2.4 2.2 2.4 3.8V56c0 2.3-1.8 4.2-4 4.2h-1.8c-.6-5.3-5.3-9.2-10.6-8.6-4.5.5-8 4.1-8.5 8.6h-20.8c-.1 1.2-.2 2.3-.4 3.5H222c1.3 5.2 6.5 8.3 11.7 7 3.4-.9 6-3.6 6.9-7h2.1c4.1 0 7.5-3.5 7.5-7.7v-5.7c-.2-3-1.9-5.7-4.6-7zm-14.4 24.2c-3.4 0-6.1-2.8-6.1-6.2 0-3.4 2.7-6.2 6.1-6.2 3.4 0 6.1 2.8 6.1 6.2 0 3.4-2.7 6.1-6.1 6.2z"/>
            <path d="M195.8 56.2c-.1-1-.3-2-.6-3.1s-.6-2-1.1-2.8c-.5-.8-1.1-1.1-1.7-1.1-.1-.3-.4-.3-1 .1s-.9.5-.9.4c0-.1-.2 0-.6.5l-.7.7-.7.7c-.6.6-1.5 1.1-2.7 1.4-1.2.3-2.5.5-3.9.6-1.4.1-2.9.1-4.3.1s-2.9.1-4.3.2-2.6.3-3.5.6c-1.7.6-3.4 1.4-4.9 2.4-1.5 1-2.9 2.1-4.1 3.4-1.2 1.3-2.2 2.8-2.9 4.6-.7 1.7-1 3.5-1 5.4 0 .9.1 1.7.2 2.6 0 .2.2.5.4 1.1l.3.9c0 .3-.2.7-.7 1.2-.5.5-1 .9-1.6 1.4-.6.4-1.1 1-1.6 1.6-.5.6-.7 1.2-.7 1.8v.3c0 .1 0 .2.1.2 0 0 .1.1.1.2.1.1.1.2.1.3.3.5.5.8.6 1 .2.2.4.4.7.6.3.2.7.3 1.2.3s.9-.3 1.4-.8c.5-.5.9-1.1 1.3-1.7.3-.6.7-1.2 1.1-1.7.4-.5.7-.8.9-.8.4 0 1.1.3 2.3.9 1.2.6 1.9 1 2.1 1 2.2.8 4.5 1.2 6.9 1.2 3.6 0 7.1-.9 10.5-2.7 3.5-1.8 6.4-4 8.6-6.6 2.2-2.6 3.7-5.8 4.4-9.5.3-1.6.5-3.2.5-4.8 0-.4-.1-1.2-.2-2.1zm-12.5 8.4c-.3.3-.7.5-1.1.5-2.9 0-5.4.4-7.5 1.3-2.1.9-4.3 2.3-6.4 4.3l-1.6 1.6c-.8.8-1.3 1.4-1.8 1.8-.3.3-.7.5-1.1.5-.4 0-.8-.2-1.1-.5-.3-.3-.5-.7-.5-1.1 0-.4.2-.8.5-1.1 2-2.2 3.8-4 5.7-5.4 1.8-1.4 3.9-2.5 6.2-3.3 2.3-.8 4.9-1.2 7.6-1.2.4 0 .8.2 1.1.5.3.3.5.7.5 1.1-.1.3-.2.6-.5 1zM82.5 144l-2.2-4.7 8.7-1.9 18.3 2.4.4-3.3-18.8-2.5-13.4 2.9 4 8.5z"/>
            <path d="M142.9 140.9c-.8-2.8-4.7-4.2-12.8-4.4-13.3-.4-55.3 14.5-62.4 17.1l-10.5-10.2-10.2 2.5 10.5 17.4c1.1 0 2.1-.1 3.2-.1.2 0 .4 0 .6-.1l-9.1-15 4-1 10.6 10.4 1-.4c.5-.2 47.3-17.2 61.7-17.2h.5c8.9.3 9.7 2 9.8 2 0 0 0 1.1-3.5 3.4-5.9 3.9-22.3 8-22.5 8l-.5.1-21.9 27.2H84l.6-19.5-8.4 1.4c.3.6.5 1.3.6 2 .1.4.2.9.3 1.3l4.1-.7-.7 18.9h12.3l22.2-27.6c3-.8 17.2-4.6 22.9-8.3 4-2.6 5.6-5 5-7.2z"/>
            <path d="M74.8 168.2c-.1-1-.3-2-.6-3.1s-.6-2-1.1-2.8c-.5-.8-1.1-1.1-1.7-1.1-.1-.3-.4-.3-1 .1s-.9.5-.9.4c0-.1-.2 0-.6.5l-.7.7-.7.7c-.6.6-1.5 1.1-2.7 1.4-1.2.3-2.5.5-3.9.6-1.4.1-2.9.1-4.3.1s-2.9.1-4.3.2-2.6.3-3.5.6c-1.7.6-3.4 1.4-4.9 2.4-1.5 1-2.9 2.1-4.1 3.4-1.2 1.3-2.2 2.8-2.9 4.6-.7 1.7-1 3.5-1 5.4 0 .9.1 1.7.2 2.6 0 .2.2.5.4 1.1l.3.9c0 .3-.2.7-.7 1.2-.5.5-1 .9-1.6 1.4-.6.4-1.1 1-1.6 1.6-.5.6-.7 1.2-.7 1.8v.3c0 .1 0 .2.1.2 0 0 .1.1.1.2.1.1.1.2.1.3.3.5.5.8.6 1 .2.2.4.4.7.6.3.2.7.3 1.2.3s.9-.3 1.4-.8c.5-.5.9-1.1 1.3-1.7.3-.6.7-1.2 1.1-1.7.4-.5.7-.8.9-.8.4 0 1.1.3 2.3.9 1.2.6 1.9 1 2.1 1 2.2.8 4.5 1.2 6.9 1.2 3.6 0 7.1-.9 10.5-2.7 3.5-1.8 6.4-4 8.6-6.6 2.2-2.6 3.7-5.8 4.4-9.5.3-1.6.5-3.2.5-4.8 0-.4-.1-1.2-.2-2.1zm-12.5 8.4c-.3.3-.7.5-1.1.5-2.9 0-5.4.4-7.5 1.3-2.1.9-4.3 2.3-6.4 4.3l-1.6 1.6c-.8.8-1.3 1.4-1.8 1.8-.3.3-.7.5-1.1.5-.4 0-.8-.2-1.1-.5-.3-.3-.5-.7-.5-1.1 0-.4.2-.8.5-1.1 2-2.2 3.8-4 5.7-5.4 1.8-1.4 3.9-2.5 6.2-3.3 2.3-.8 4.9-1.2 7.6-1.2.4 0 .8.2 1.1.5.3.3.5.7.5 1.1-.1.3-.2.6-.5 1zM158.9 278.8v-19c0-2.6-2.1-4.7-4.8-4.7H93.8c-2.6 0-4.8 2.1-4.8 4.7v19c-2.3.3-4 2.3-4 4.6v5.8c.4-.1.7-.3 1.1-.4.6-.2 1.2-.4 1.9-.5v-4.9c0-.9.8-1.7 1.7-1.7h68.5c1 0 1.7.8 1.7 1.7v10.3h-41.3c0 .3.1.5.1.8.1.8.2 1.5.2 2.2h37.9v5.9h-38.3c0 .2-.1.5-.1.7-.2.8-.3 1.5-.6 2.3h34.8v2.9c0 .8.7 1.5 1.5 1.5s1.5-.7 1.5-1.5v-2.9h2.7c.8 0 1.5-.7 1.5-1.5v-7.3h1.6c.8 0 1.5-.7 1.5-1.5v-11.8c.1-2.4-1.7-4.3-4-4.7zm-57.4 0c-1.4-1.4-2.8-2.9-4.2-4.5 3.6-4 6.8-7.2 10.8-10.7 4.1 3.6 7.3 6.7 10.8 10.7-1.5 1.6-2.9 3.1-4.2 4.5h-13.2zm31.8 0c-1.4-1.4-2.8-2.9-4.2-4.5 3.6-4 6.8-7.2 10.8-10.7 4.1 3.6 7.2 6.7 10.8 10.7-1.5 1.6-2.9 3.1-4.2 4.5h-13.2zm22.6 0h-5.3c1.1-1.1 2.1-2.3 3.2-3.6.5-.6.5-1.4 0-2-4.4-5-8-8.6-13-12.9-.6-.5-1.4-.5-2 0-5 4.3-8.6 7.9-13 12.9-.5.6-.5 1.4 0 2 1.1 1.3 2.2 2.4 3.2 3.6h-10.3c1.1-1.1 2.1-2.3 3.2-3.6.5-.6.5-1.4 0-2-4.4-5-8-8.6-13-12.9-.6-.5-1.4-.5-2 0-5 4.3-8.6 7.9-13 12.9-.5.6-.5 1.4 0 2 1.1 1.3 2.2 2.4 3.2 3.6H92v-19c0-1 .8-1.8 1.8-1.8h60.4c1 0 1.8.8 1.8 1.8v19h-.1z"/>
            <path d="M113.8 295.2c-.1-1-.3-2-.6-3.1s-.6-2-1.1-2.8c-.5-.8-1.1-1.1-1.7-1.1-.1-.3-.4-.3-1 .1s-.9.5-.9.4c0-.1-.2 0-.6.5l-.7.7-.7.7c-.6.6-1.5 1.1-2.7 1.4-1.2.3-2.5.5-3.9.6-1.4.1-2.9.1-4.3.1s-2.9.1-4.3.2-2.6.3-3.5.6c-1.7.6-3.4 1.4-4.9 2.4-1.5 1-2.9 2.1-4.1 3.4-1.2 1.3-2.2 2.8-2.9 4.6-.7 1.7-1 3.5-1 5.4 0 .9.1 1.7.2 2.6 0 .2.2.5.4 1.1l.3.9c0 .3-.2.7-.7 1.2-.5.5-1 .9-1.6 1.4-.6.4-1.1 1-1.6 1.6-.5.6-.7 1.2-.7 1.8v.3c0 .1 0 .2.1.2 0 0 .1.1.1.2.1.1.1.2.1.3.3.5.5.8.6 1 .2.2.4.4.7.6.3.2.7.3 1.2.3s.9-.3 1.4-.8c.5-.5.9-1.1 1.3-1.7.3-.6.7-1.2 1.1-1.7.4-.5.7-.8.9-.8.4 0 1.1.3 2.3.9 1.2.6 1.9 1 2.1 1 2.2.8 4.5 1.2 6.9 1.2 3.6 0 7.1-.9 10.5-2.7 3.5-1.8 6.4-4 8.6-6.6 2.2-2.6 3.7-5.8 4.4-9.5.3-1.6.5-3.2.5-4.8 0-.4-.1-1.2-.2-2.1zm-12.5 8.4c-.3.3-.7.5-1.1.5-2.9 0-5.4.4-7.5 1.3-2.1.9-4.3 2.3-6.4 4.3l-1.6 1.6c-.8.8-1.3 1.4-1.8 1.8-.3.3-.7.5-1.1.5-.4 0-.8-.2-1.1-.5-.3-.3-.5-.7-.5-1.1 0-.4.2-.8.5-1.1 2-2.2 3.8-4 5.7-5.4 1.8-1.4 3.9-2.5 6.2-3.3 2.3-.8 4.9-1.2 7.6-1.2.4 0 .8.2 1.1.5.3.3.5.7.5 1.1-.1.3-.2.6-.5 1z"/>
            <g>
                <path d="M17.627 63.1c-.849 0-1.485-.637-1.485-1.485l-.07-25.244c0-.849.636-1.485 1.484-1.485 2.122 0 4.101-.848 5.586-2.333 1.485-1.485 2.334-3.465 2.334-5.587 0-.848.636-1.484 1.485-1.484l58.76-.071c.849 0 1.485.636 1.485 1.485 0 4.384 3.606 7.99 7.99 7.99.85 0 1.485.636 1.485 1.485v25.173c0 .424-.212.778-.424.99a1.528 1.528 0 0 1-.99.424c-2.121 0-4.101.849-5.586 2.334-1.485 1.485-2.333 3.464-2.333 5.586 0 .424-.212.778-.425.99a1.528 1.528 0 0 1-.99.424h-58.69c-.848 0-1.484-.636-1.484-1.485-.212-4.172-3.748-7.707-8.132-7.707zm10.748 6.505h56.003c.353-2.333 1.414-4.525 3.111-6.223 1.697-1.697 3.89-2.757 6.223-3.11V37.784a10.805 10.805 0 0 1-9.334-9.334l-55.932-.07c-.354 2.333-1.415 4.525-3.112 6.222s-3.889 2.758-6.222 3.111V60.2c4.808.708 8.627 4.526 9.263 9.405z"/>
                <path d="M25.193 52.14c-.849-.85-1.344-2.051-1.344-3.183 0-1.13.495-2.333 1.273-3.11a4.387 4.387 0 0 1 3.112-1.274l4.313.071h1.697l6.222-11.738c.213-.495.778-.778 1.344-.778h3.818c.425 0 .92.212 1.132.566.283.424.424.849.283 1.273l-2.687 10.89 5.02.211 2.263-2.545c.283-.283.707-.566 1.131-.566h3.253c.424 0 .92.212 1.202.637.283.424.353.919.212 1.343l-1.768 5.02 1.768 5.02c.141.425.07.92-.212 1.344l-.142.142a1.528 1.528 0 0 1-.99.424h-3.252c-.424 0-.849-.141-1.132-.566l-2.262-2.545-4.95.141 2.687 10.89c.141.424.07.919-.283 1.273-.283.424-.707.565-1.131.565H41.95c-.565 0-1.06-.353-1.343-.778L34.315 53.2l-5.94.142a4.1 4.1 0 0 1-3.182-1.203zm3.111-1.698l6.788-.141c.566 0 1.132.283 1.344.778l6.293 11.667h.99l-2.616-10.819c-.142-.424 0-.848.283-1.272.212-.354.707-.566 1.131-.566l7.495-.142c.425 0 .849.142 1.203.495l2.262 2.546h.425l-1.273-3.536c-.142-.282-.071-.636 0-.99l1.273-3.535h-.425l-2.262 2.546c-.283.282-.708.565-1.203.495l-7.495-.142c-.424 0-.92-.212-1.131-.566-.212-.353-.354-.777-.283-1.272L43.79 35.24h-.99l-6.223 11.738c-.212.495-.777.777-1.343.777l-2.616-.07-4.314-.071c-.424 0-.707.141-.99.424a1.528 1.528 0 0 0-.424.99c0 .424.212.778.495 1.06.212.213.495.354.92.354zm42.992-13.435c0-.707.637-1.343 1.415-1.414h5.656c.708 0 1.344.637 1.415 1.414 0 .425-.142.707-.425.99-.282.283-.565.425-.99.425h-5.656a1.52 1.52 0 0 1-1.415-1.415zm-4.667 0c0-.99.708-1.697 1.697-1.697.99 0 1.698.707 1.698 1.697 0 .425-.213.92-.495 1.202a1.845 1.845 0 0 1-1.203.495c-.99 0-1.626-.777-1.697-1.697zm-.07 6.435c0-.848.636-1.485 1.485-1.485h10.182c.849 0 1.485.637 1.485 1.485 0 .424-.212.778-.424.99-.283.283-.566.424-.99.424H68.114a1.547 1.547 0 0 1-1.555-1.414zm.778 5.586c0-.848.636-1.485 1.484-1.485h10.183c.848 0 1.485.637 1.485 1.485 0 .424-.212.778-.425.99-.282.283-.565.424-.99.424H68.893a1.547 1.547 0 0 1-1.555-1.414zm-.778 5.586c0-.848.636-1.485 1.485-1.485h10.182c.849 0 1.485.637 1.485 1.485 0 .425-.212.778-.424.99-.283.283-.566.425-.99.425H68.114a1.547 1.547 0 0 1-1.555-1.415zm9.616 6.364c0-.99.707-1.697 1.697-1.697.99 0 1.697.707 1.697 1.697 0 .425-.212.92-.494 1.202a1.845 1.845 0 0 1-1.203.495c-.848 0-1.626-.777-1.697-1.697zm-8.838-.778c0-.707.636-1.343 1.414-1.414h5.657c.707 0 1.343.637 1.414 1.414 0 .425-.142.708-.424.99-.283.283-.566.425-.99.425H68.75c-.778-.071-1.414-.707-1.414-1.415z"/>
            </g>
        </g>
    </g>
</svg>
