<svg xmlns="http://www.w3.org/2000/svg" xmlns:xlink="http://www.w3.org/1999/xlink" width="363" height="363"><defs><circle id="a" cx="181.5" cy="181.5" r="181.5"/></defs><g fill="none" fill-rule="evenodd"><path fill="#FFF" fill-rule="nonzero" d="M181.5 357c96.926 0 175.5-78.574 175.5-175.5S278.426 6 181.5 6 6 84.574 6 181.5 84.574 357 181.5 357zm0 6C81.26 363 0 281.74 0 181.5S81.26 0 181.5 0 363 81.26 363 181.5 281.74 363 181.5 363z"/><mask id="b" fill="#fff"><use xlink:href="#a"/></mask><g mask="url(#b)"><path fill="#FFF" fill-rule="nonzero" d="M249 134.104a3.71 3.71 0 0 0-.16-1.093C248.244 98.16 219.355 70 183.92 70c-35.718 0-64.783 28.628-64.912 63.863v.045c0 .068-.008.128-.008.196 0 .196.084.362.115.543.038.264.06.528.16.785.107.271.267.497.435.731.1.143.146.31.26.445l55.456 61.6h-14.414c-2.108 0-3.82 1.69-3.82 3.771v45.25c0 2.082 1.712 3.771 3.82 3.771h45.831c2.108 0 3.82-1.69 3.82-3.77v-45.25c0-2.082-1.712-3.772-3.82-3.772h-14.414l55.097-61.193c.87-.694 1.474-1.712 1.474-2.91zm-122.079-1.116c1.429-5.023 12.199-10.196 26.445-10.196 15.3 0 26.735 5.973 26.735 11.312v57.958l-53.18-59.074zm68.457 99.158c0 2.081-1.711 3.77-3.82 3.77h-7.638c-2.108 0-3.82-1.689-3.82-3.77 0-2.082 1.712-3.771 3.82-3.771h7.638c2.109 0 3.82 1.69 3.82 3.77zm-7.639-40.077v-57.965c0-5.34 11.435-11.312 26.735-11.312 14.246 0 25.016 5.173 26.444 10.204l-53.179 59.073z"/><g fill="#FFF"><path fill-rule="nonzero" d="M344.03 88.016c-5.133 2.815-11.292 3.371-17.972 1.152-3.96 3.782-12.053 3.7-16.915.108-4.14 3.63-10.737 3.791-15.218.493-6.644 5.589-18.569 3.872-24.96-4.193-2.061.866-4.713 1.135-7.365.781-4.52-.601-8.438-2.918-10.738-6.828-6.408.11-11.168-4.69-11.797-11.056-.669-6.764 3.583-12.38 10.918-13.102 4.611-6.687 15.726-7.398 22.461-3.2 4.22-6.181 14.12-9.087 23.52-6.45 4.974-7.038 16.072-8.857 22.915-4.039 8.96-5.125 22.658-1.522 26.234 7.304 8.398-1.217 15.653 2.823 18.101 9.853 2.7 7.754-1.447 15.99-11.05 20.543-1.247 3.156-4.287 6.524-8.135 8.634zm4.513-13.587c7.767-3.25 10.712-8.715 9.005-13.617-1.655-4.752-7.123-7.33-13.78-5.41a3 3 0 0 1-3.815-2.56c-.729-6.744-13.126-10.168-19.388-5.067a3 3 0 0 1-4.078-.268c-4.15-4.402-13.83-2.826-16.392 3.04a3 3 0 0 1-3.845 1.591c-8.923-3.502-18.65.012-19.789 5.6-.521 2.559-3.837 3.275-5.369 1.16-3.241-4.476-14.166-4.608-16.615.66a3 3 0 0 1-2.75 1.735c-4.739-.047-7.073 2.73-6.691 6.59.376 3.807 3.168 6.26 7.025 5.504a3 3 0 0 1 3.375 1.858c1.161 2.993 3.71 4.733 6.956 5.165 1.361.181 2.712.094 3.748-.204.412-.119.728-.259.918-.386.02-.014-.042.055-.129.263.975-2.34 4.232-2.49 5.42-.252 4.243 8 15.375 9.392 18.962 3.942 1.165-1.771 3.75-1.807 4.965-.07 2.358 3.375 8.2 3.198 10.015-.365 1.087-2.133 4.112-2.196 5.287-.11 1.868 3.316 9.6 3.607 10.662 1.148a3 3 0 0 1 3.91-1.578c5.858 2.447 10.906 2.2 14.994-.042 3.035-1.665 5.277-4.435 5.613-6.14a3 3 0 0 1 1.786-2.187z"/><path d="M287 62.358c0-2.05 1.409-3.656 3.838-4.145v-1.072c0-.63.498-1.141 1.113-1.141.614 0 1.113.51 1.113 1.141v.907a9.51 9.51 0 0 1 2.08.307c.612.197.997.817.915 1.47a1.337 1.337 0 0 1-1.252 1.18 1.24 1.24 0 0 1-.363-.054c-.655-.2-1.335-.3-2.018-.297-1.474 0-1.943.655-1.943 1.309 0 .775.794 1.258 2.724 2.002 2.702.97 3.793 2.26 3.793 4.355 0 2.096-1.439 3.84-4.06 4.306v1.233c0 .63-.498 1.141-1.112 1.141-.615 0-1.113-.51-1.113-1.141v-1.07a10.257 10.257 0 0 1-2.703-.502 1.361 1.361 0 0 1-.872-1.617l.028-.11a1.29 1.29 0 0 1 1.69-.912 7.478 7.478 0 0 0 2.459.432c1.295 0 2.18-.511 2.18-1.444 0-.884-.727-1.444-2.407-2.026-2.432-.83-4.09-1.993-4.09-4.252z"/></g><path stroke="#FFF" stroke-linejoin="round" stroke-width="6" d="M125.7 337.197c20.001-8.37 10.736-29.727-6.764-24.677-1.03-9.524-16.471-13.42-24.266-7.07-5.441-5.773-17.794-4.185-21.324 3.896-11.03-4.33-22.353.577-23.824 7.792-3.97-5.483-17.942-7.07-21.766 1.155-14.559-.145-11.618 20.491.883 18.038 3.53 9.091 15.736 8.08 17.06 4.906 5.588 10.534 19.559 11.112 24.118 4.185 3.53 5.05 12.206 5.05 15.147-.721 3.089 5.483 13.971 5.627 16.03.865 14.853 6.205 23.824-3.896 24.707-8.37z"/><g fill="#FFF"><path fill-rule="nonzero" d="M267.92 298.167a3 3 0 0 1 1.77 2.189c.82 4.236 5.68 10.346 12.206 13.989 8.602 4.8 19.183 5.329 31.219.212a3 3 0 0 1 3.935 1.587c3.025 7.122 20.803 6.443 25.461-1.975 1.17-2.112 4.227-2.049 5.308.11 4.477 8.942 18.287 9.367 23.994 1.058 1.212-1.765 3.829-1.73 4.992.069 3.599 5.565 11.222 8.44 19.565 7.378 9.006-1.146 17.102-6.573 21.668-15.331 1.18-2.264 4.469-2.113 5.436.25.211.514 1.388 1.317 3.317 1.883 2.365.693 5.342.889 8.327.484 7.18-.972 12.968-4.994 15.606-11.908a3 3 0 0 1 3.39-1.873c9.12 1.821 15.924-4.265 16.803-13.315.896-9.22-4.849-16.177-15.662-16.068a3 3 0 0 1-2.759-1.753c-2.843-6.223-9.61-9.549-18.07-9.445-7.893.098-15.513 3.281-18.641 7.677-1.524 2.142-4.87 1.427-5.386-1.15-2.589-12.923-23.186-20.496-41.793-13.064a3 3 0 0 1-3.87-1.602c-5.74-13.374-26.74-16.854-36.077-6.775a3 3 0 0 1-4.116.27c-13.616-11.287-40.131-3.835-41.798 11.855a3 3 0 0 1-3.828 2.562c-14.17-4.161-26.196 1.61-29.888 12.4-3.815 11.148 2.658 23.373 18.89 30.286zm-24.568-32.23c4.462-13.038 18.21-20.315 34.066-17.013 4.899-17.65 32.354-25.16 48.806-14.085 12.225-10.314 34.402-6.605 42.747 7.813 18.848-6.269 39.17.278 45.622 13.436 4.961-3.91 12.294-6.287 19.759-6.38 9.906-.121 18.41 3.717 22.722 11.238 13.371.712 20.989 10.53 19.815 22.609-1.124 11.57-9.854 20.05-21.528 18.973-3.82 7.762-10.987 12.343-19.438 13.488-5.57.755-11.091-.124-14.623-2.318-5.704 8.51-14.509 13.809-24.172 15.038-8.972 1.141-17.531-1.434-22.92-7.004-8.096 7.734-21.998 7.393-29.251-1.006-8.341 8.155-25.53 8.507-31.92.322-12.785 4.778-24.442 3.907-34.065-1.464-7.31-4.08-12.955-10.74-14.767-16.499-18-8.225-25.628-23.19-20.853-37.147zm124.487 6.964c0 5.607-3.648 8.915-10.3 11.1-.93.31-1.635.595-2.136.851.21.026.45.04.712.04a12.607 12.607 0 0 0 4.009-.68 5.729 5.729 0 0 1 1.823-.306c2.556-.02 4.808 1.686 5.452 4.143l.067.254c.725 2.878-.918 5.811-3.761 6.732a24.392 24.392 0 0 1-3.396.814c-.31 2.594-2.53 4.594-5.208 4.594-2.888 0-5.244-2.326-5.244-5.215-5.047-1.768-8.189-5.768-8.189-10.753 0-5.533 3.153-9.039 9.607-11.267a50.95 50.95 0 0 0 1.453-.561 11.22 11.22 0 0 0-2.056.399 5.59 5.59 0 0 1-1.58.227l-.135-.003c-2.74-.124-5.006-2.18-5.364-4.896a5.632 5.632 0 0 1 3.93-6.11l.154-.044c.667-.17 1.342-.308 2.022-.416a5.239 5.239 0 0 1 5.154-4.247c2.82 0 5.135 2.22 5.24 5.015 4.77 1.723 7.746 5.528 7.746 10.329zm-12.599 18.112c.05-.05.102-.097.155-.143a11.73 11.73 0 0 1-.289-.02c.047.052.092.107.134.163zm6.807-1.117a.329.329 0 0 0 .015-.005l-.005.002-.01.003zm-.448-.31l.06.223a.54.54 0 0 1-.017-.117.471.471 0 0 1-.043-.106zm-.001-.004l.001.004-.001-.004zm-12.863-4.494c0-3.406 2.325-5.253 6.919-6.783 4.484-1.473 6.185-3.016 6.185-5.404 0-1.495-.644-2.78-1.904-3.716.569.823.88 1.818.88 2.948 0 3.3-2.057 4.698-7.517 6.724-4.308 1.487-5.63 2.957-5.63 5.618 0 1.737.82 3.218 2.406 4.222-.846-.923-1.339-2.13-1.339-3.609zm5.937-18.47l.04.055.048-.048-.088-.007zm-5.692.671a.403.403 0 0 1 .1-.015l-.004-.012-.096.027zm.113.028v-.044a.41.41 0 0 0-.013 0l.013.044zm0 .493l.057.226.044-.01.015-.335-.116-.374v.493zm.21.183c.154-.048.263-.216.239-.404-.024-.18-.162-.306-.314-.312l-.019.414.094.302z"/><path d="M290 269.89c0-3.51 2.53-6.263 6.893-7.1v-1.836c0-1.08.895-1.954 1.999-1.954 1.103 0 1.998.875 1.998 1.954v1.554c1.26.042 2.513.218 3.735.525 1.1.338 1.793 1.4 1.644 2.517-.149 1.118-1.097 1.97-2.248 2.022a2.32 2.32 0 0 1-.652-.093 12.79 12.79 0 0 0-3.623-.508c-2.65 0-3.491 1.122-3.491 2.241 0 1.328 1.426 2.155 4.893 3.43 4.852 1.66 6.812 3.869 6.812 7.458 0 3.59-2.584 6.578-7.29 7.375v2.112c0 1.08-.896 1.954-2 1.954-1.103 0-1.998-.875-1.998-1.954v-1.833a19.222 19.222 0 0 1-4.855-.86c-1.183-.38-1.866-1.588-1.566-2.77l.051-.189c.265-1.001 1.193-1.698 2.252-1.69.267.001.532.045.784.13 1.42.481 2.911.731 4.414.74 2.326 0 3.915-.876 3.915-2.474 0-1.514-1.303-2.473-4.322-3.47-4.367-1.42-7.345-3.413-7.345-7.281z"/></g><g fill="#FFF"><path fill-rule="nonzero" d="M74.983 231.148c-11.218 6.203-24.828 7.167-39.789 1.526-7.188 9.679-27.72 9.22-37.207-.52-8.3 10.064-24.875 10.472-34.214 1.194-6.163 6.6-16.196 9.68-26.741 8.35-11.32-1.427-21.622-7.647-28.207-17.642-3.98 2.67-10.546 3.785-17.192 2.893-9.838-1.32-18.154-6.643-22.508-15.68-13.54 1.427-23.695-8.244-24.997-21.531-1.357-13.836 7.474-25.023 22.995-25.708 4.904-8.707 14.75-13.157 26.271-13.017 8.889.109 17.61 2.996 23.317 7.699 7.157-15.5 31.23-23.29 53.447-15.77 9.514-16.868 35.654-21.194 49.748-9.035 19.075-13.078 51.456-4.28 56.781 16.287 18.508-4.024 34.57 4.294 39.755 19.306 5.525 16-3.354 33.173-24.344 42.59-2.01 6.598-8.578 14.336-17.115 19.058zm13.404-23.986c19.225-8.113 26.932-22.534 22.384-35.703-4.408-12.763-18.768-19.59-35.615-14.688a3 3 0 0 1-3.821-2.561c-1.995-18.607-33.531-27.39-49.761-14.058a3 3 0 0 1-4.096-.27c-11.179-11.957-36.22-7.845-43.08 7.991a3 3 0 0 1-3.857 1.597c-22.05-8.726-46.514.185-49.61 15.5-.52 2.569-3.85 3.284-5.377 1.156-3.765-5.241-12.841-8.998-22.233-9.113-10.092-.123-18.207 3.828-21.624 11.241a3 3 0 0 1-2.754 1.744c-12.978-.13-19.918 8.198-18.844 19.154 1.055 10.756 9.276 18.042 20.278 15.865a3 3 0 0 1 3.382 1.865c3.155 8.194 10.092 12.968 18.673 14.12 6.853.92 13.31-.955 14.175-3.047.972-2.35 4.243-2.501 5.427-.25 5.42 10.3 15.042 16.69 25.748 18.04 9.954 1.255 19.077-2.154 23.402-8.78 1.164-1.784 3.765-1.82 4.978-.07 6.891 9.943 23.555 9.434 28.97-1.282 1.085-2.146 4.125-2.209 5.297-.11 5.643 10.102 27.01 10.91 30.725 2.247a3 3 0 0 1 3.922-1.583c14.236 5.997 26.793 5.376 37.003-.27 7.761-4.292 13.54-11.492 14.53-16.547a3 3 0 0 1 1.778-2.188z"/><path d="M21.04 177.852c0-4.613 3.325-8.232 9.06-9.331v-2.414c0-1.419 1.177-2.569 2.627-2.569 1.451 0 2.627 1.15 2.627 2.569v2.043a23.3 23.3 0 0 1 4.91.69c1.445.444 2.356 1.839 2.16 3.308-.195 1.47-1.441 2.59-2.955 2.657-.29 0-.579-.04-.857-.122a16.812 16.812 0 0 0-4.762-.668c-3.481 0-4.588 1.476-4.588 2.946 0 1.746 1.874 2.833 6.431 4.509 6.378 2.182 8.954 5.085 8.954 9.803 0 4.718-3.397 8.646-9.583 9.693v2.776c0 1.419-1.176 2.569-2.627 2.569-1.45 0-2.626-1.15-2.626-2.569v-2.41a25.265 25.265 0 0 1-6.383-1.13c-1.555-.499-2.452-2.086-2.057-3.64l.067-.248c.348-1.317 1.568-2.233 2.959-2.222.35.001.699.059 1.03.17 1.867.633 3.827.962 5.803.974 3.057 0 5.146-1.153 5.146-3.252 0-1.99-1.714-3.251-5.682-4.56-5.74-1.869-9.654-4.487-9.654-9.572z"/></g></g></g></svg>