<?xml version="1.0" encoding="UTF-8"?>
<svg width="25px" height="25px" viewBox="0 0 25 25" version="1.1" xmlns="http://www.w3.org/2000/svg" xmlns:xlink="http://www.w3.org/1999/xlink">
    <!-- Generator: Sketch 46 (44423) - http://www.bohemiancoding.com/sketch -->
    <title>logos/social media/bitcoin</title>
    <desc>Created with Sketch.</desc>
    <defs></defs>
    <g id="Page-1" stroke="none" stroke-width="1" fill="none" fill-rule="evenodd">
        <g id="WT_landing_B-Copy" transform="translate(-195.000000, -545.000000)" fill="#202020">
            <g id="Header-Info" transform="translate(30.000000, 425.000000)">
                <g id="social-media" transform="translate(0.000000, 120.000000)">
                    <g id="logos/social-media/bitcoin" transform="translate(165.000000, 0.000000)">
                        <path d="M24.6246395,15.5265898 C22.9559031,22.2234102 16.1715834,26.298377 9.47476302,24.6280781 C2.7810676,22.9702791 -1.29702415,16.1734596 0.374837222,9.48601409 C2.04357362,2.78294375 8.8278933,-1.295148 15.5215887,0.373588398 C22.2199716,2.04544977 26.2949384,8.82664447 24.626202,15.5297148 L24.6246395,15.5265898 Z M18.0106309,10.720379 C18.2606289,9.05789259 16.9950142,8.16258739 15.2606533,7.56415477 L15.8231488,5.31417311 L14.4512849,4.97042591 L13.9044144,7.16572051 C13.5450423,7.07509625 13.1700454,6.99072194 12.7950484,6.90634763 L13.3434815,4.68917821 L11.9684927,4.34543101 L11.4059973,6.60010013 C11.1091247,6.5297882 10.8169396,6.46260125 10.5310044,6.39228932 L8.64039482,5.92354314 L8.27633529,7.38915619 C8.27633529,7.38915619 9.29195201,7.62352928 9.27163968,7.63602918 C9.82944763,7.77665303 9.92788433,8.14227505 9.91225945,8.43289768 L8.3732095,14.6047224 C8.29508514,14.776596 8.12321154,15.0265939 7.73258973,14.9328447 C7.7482146,14.953157 6.73259788,14.6828467 6.73259788,14.6828467 L6.04510349,16.2547089 L7.82633896,16.6984553 L8.79508106,16.9515782 L8.23258565,19.2328096 L9.60757444,19.5718694 L10.1700699,17.3172002 C10.5450668,17.4187619 10.9044389,17.5125111 11.2638109,17.6015729 L10.7341278,19.8453046 L12.1091165,20.1890518 L12.6762994,17.9125079 C15.0153428,18.3546918 16.773141,18.1781307 17.51376,16.0609605 C18.1075051,14.3578494 17.4825102,13.3734824 16.2481453,12.7328626 C17.138763,12.5297393 17.8106325,11.9391191 17.998131,10.720379 L18.0106309,10.720379 Z M14.874719,15.1156557 C14.4528474,16.8187668 11.5841208,15.8968993 10.6560034,15.6672137 L11.4059973,12.6469258 C12.3372397,12.8812989 15.3184654,13.3391077 14.874719,15.1156557 Z M15.2997155,10.6938167 C14.9137812,12.2453666 12.5263006,11.4594355 11.7528694,11.2656871 L12.4341139,8.51570951 C13.2091076,8.70320798 15.7028372,9.06258005 15.2997155,10.6875668 L15.2997155,10.6938167 Z"></path>
                    </g>
                </g>
            </g>
        </g>
    </g>
</svg>