<svg xmlns="http://www.w3.org/2000/svg" width="25" height="25" style=""><rect id="backgroundrect" width="100%" height="100%" x="0" y="0" fill="none" stroke="none" style="" class=""/>
  
<g class="currentLayer" style=""><title>Layer 1</title><path d="M12.000006323860362,2.013918876647949 C5.372537304750722,2.013918876647949 0.000004339602579506163,6.271742820739746 0.000004339602579506163,11.523942947387695 C0.000004339602579506163,14.919601440429688 2.246076007400468,17.899139404296875 5.624775693908788,19.58160400390625 C5.440961435273977,20.218772888183594 4.443582331219957,23.680660247802734 4.403887023348503,23.952619552612305 C4.403887023348503,23.952619552612305 4.379996559523889,24.156970977783203 4.51165783226358,24.234905242919922 C4.643308260803707,24.312841415405273 4.798151894209184,24.252302169799805 4.798151894209184,24.252302169799805 C5.175698931710713,24.19930076599121 9.176192446618359,21.374818801879883 9.868615354331212,20.884361267089844 C10.560349770735513,20.98282241821289 11.272618948018192,21.033967971801758 12.000006323860362,21.033967971801758 C18.627469805506394,21.033967971801758 24.000001905425847,16.776262283325195 24.000001905425847,11.523942947387695 C24.000001905425847,6.271742820739746 18.627469805506394,2.013918876647949 12.000006323860362,2.013918876647949 zM5.365387054867341,14.843755722045898 C4.9835794005750245,14.843755722045898 4.6730744349713405,14.545693397521973 4.6730744349713405,14.179210662841797 L4.6730744349713405,10.045249938964844 L3.5928497993385378,10.045249938964844 C3.2181921642019518,10.045249938964844 2.9134625424133986,9.73953914642334 2.9134625424133986,9.363892555236816 C2.9134625424133986,8.98824405670166 3.2183119118524672,8.68253231048584 3.5928497993385378,8.68253231048584 L7.137923618213193,8.68253231048584 C7.51258194553273,8.68253231048584 7.817310413683032,8.98824405670166 7.817310413683032,9.363892555236816 C7.817310413683032,9.73953914642334 7.512461044243963,10.045249938964844 7.137923618213193,10.045249938964844 L6.057700597673943,10.045249938964844 L6.057700597673943,14.179210662841797 C6.057700597673943,14.545693397521973 5.747194709159658,14.843755722045898 5.365387054867341,14.843755722045898 zM11.436008272136178,14.834707260131836 C11.147312606951232,14.834707260131836 10.92646194588724,14.716873168945312 10.859892404217248,14.52737045288086 L10.517080030105319,13.625311851501465 L8.406005091642044,13.625192642211914 L8.062966604432802,14.527836799621582 C7.996622714404822,14.716988563537598 7.775882802612983,14.834707260131836 7.4871972894446515,14.834707260131836 C7.335340656200202,14.834863662719727 7.185236630187575,14.802108764648438 7.0471133681454035,14.738679885864258 C6.856269299460678,14.650189399719238 6.672814975960364,14.406872749328613 6.883036475629467,13.75056266784668 L8.539040808994685,9.36945915222168 C8.655693940264086,9.036262512207031 9.010034390696546,8.692972183227539 9.460966664658486,8.682649612426758 C9.913160557412368,8.692853927612305 10.267501007844828,9.036262512207031 10.384383020943346,9.370156288146973 L12.039701631731816,13.749286651611328 C12.250380895059152,14.407105445861816 12.066926571558838,14.65053653717041 11.876082502874112,14.738795280456543 C11.737924631684393,14.802111625671387 11.587843678436798,14.834824562072754 11.436008272136178,14.834707260131836 C11.435888293758012,14.834707260131836 11.436008272136178,14.834707260131836 11.436008272136178,14.834707260131836 zM10.153038866342854,12.392718315124512 L9.461542560873681,10.418230056762695 L8.770048101225711,12.392718315124512 L10.153038866342854,12.392718315124512 zM13.153843001233838,14.742273330688477 C12.787969859927841,14.742273330688477 12.49039118020562,14.456048965454102 12.49039118020562,14.10440444946289 L12.49039118020562,9.378389358520508 C12.49039118020562,8.994623184204102 12.807468192200986,8.68253231048584 13.19711181895343,8.68253231048584 C13.586767443543692,8.68253231048584 13.90384537844966,8.994623184204102 13.90384537844966,9.378389358520508 L13.90384537844966,13.466538429260254 L15.374992564200625,13.466538429260254 C15.740877703344438,13.466538429260254 16.038469303815077,13.752767562866211 16.038469303815077,14.10440444946289 C16.038469303815077,14.456048965454102 15.740877703344438,14.742273330688477 15.374992564200625,14.742273330688477 L13.153843001233838,14.742273330688477 zM17.000077546601915,14.834707260131836 C16.61827865996031,14.834707260131836 16.307763542340012,14.52261734008789 16.307763542340012,14.138850212097168 L16.307763542340012,9.378389358520508 C16.307763542340012,8.994623184204102 16.61827865996031,8.68253231048584 17.000077546601915,8.68253231048584 C17.381894891455545,8.68253231048584 17.692389705042615,8.994623184204102 17.692389705042615,9.378389358520508 L17.692389705042615,10.874013900756836 L19.6239345358822,8.932578086853027 C19.72326924971867,8.832721710205078 19.859769573468498,8.77774715423584 20.00793179557604,8.77774715423584 C20.18077264716169,8.77774715423584 20.354307527519495,8.852666854858398 20.48435670616641,8.983258247375488 C20.60561977588918,9.105031967163086 20.677970429565562,9.26171875 20.687888026886867,9.424433708190918 C20.69793483169235,9.588537216186523 20.643571705634827,9.738959312438965 20.535124172521364,9.848089218139648 L18.957474949204425,11.43359661102295 L20.66157769146571,13.70278263092041 C20.772727506819706,13.84982681274414 20.820595188065454,14.035505294799805 20.794502659546197,14.218294143676758 C20.769563769278534,14.401198387145996 20.67284642990728,14.56646728515625 20.525882145760193,14.677213668823242 C20.406165874205158,14.768677711486816 20.259834706730544,14.818028450012207 20.109468574107154,14.817659378051758 C19.89194408285016,14.818678855895996 19.686801360219874,14.716073036193848 19.55642547122011,14.541057586669922 L17.932848524741303,12.378801345825195 L17.69260935776572,12.620264053344727 L17.69260935776572,14.138503074645996 C17.692171898140714,14.522774696350098 17.38239695482264,14.834195137023926 17.000077546601915,14.834707260131836 z" id="svg_1" class=""/></g></svg>