<?xml version="1.0" encoding="UTF-8"?>
<svg width="25px" height="23px" viewBox="0 0 25 23" version="1.1" xmlns="http://www.w3.org/2000/svg" xmlns:xlink="http://www.w3.org/1999/xlink">
    <!-- Generator: Sketch 46 (44423) - http://www.bohemiancoding.com/sketch -->
    <title>logos/social media/medium</title>
    <desc>Created with Sketch.</desc>
    <defs></defs>
    <g id="Page-1" stroke="none" stroke-width="1" fill="none" fill-rule="evenodd">
        <g id="WT_landing_B-Copy" transform="translate(-305.000000, -546.000000)" fill="#202020">
            <g id="Header-Info" transform="translate(30.000000, 425.000000)">
                <g id="social-media" transform="translate(0.000000, 120.000000)">
                    <g id="logos/social-media/medium" transform="translate(275.000000, 0.000000)">
                        <path d="M18.5039124,19.3560094 L18.0719875,20.0602347 L19.3208138,20.6830829 L23.6150235,22.8301878 C23.8497653,22.9491236 24.0751174,23.0023317 24.2691706,23.0023317 C24.7042254,23.0023317 25,22.7253364 25,22.2323787 L25,8.8004538 L18.5054773,19.3560094 L18.5039124,19.3560094 Z M24.913928,5.78793424 C24.9076682,5.7832394 24.913928,5.77228479 24.9092332,5.7691549 L17.3583725,1.99450701 C17.2644757,1.94755865 17.1658842,1.93503909 17.0657277,1.92564942 C17.0406886,1.92564942 17.0187793,1.90999997 16.9921753,1.90999997 C16.7042254,1.90999997 16.4162754,2.05397493 16.2613459,2.30749605 L15.885759,2.91782469 L15.1032864,4.19169011 L12.1455399,9.01172141 L15.1032864,13.8254929 L15.885759,15.0977934 L16.6682316,16.3685289 L17.5915493,17.8552269 L24.9624413,5.89904535 C24.9937402,5.85209699 24.9780908,5.80514864 24.9311424,5.77384973 L24.913928,5.78793424 Z M15.1017214,16.8129734 L11.2206573,10.5015493 L10.7589984,9.75507039 L10.2989045,9.00859152 L9.90766823,8.3575743 L9.90766823,15.9741627 L15.1032864,18.5766666 L15.885759,18.9679029 L16.6682316,19.3591392 L15.885759,18.0868388 L15.1032864,16.8145383 L15.1017214,16.8129734 Z M1.15336463,2.22298901 L0.923317684,2.11031296 C0.79029734,2.04458526 0.663536776,2.01328635 0.547730829,2.01328635 C0.225352113,2.01328635 0,2.26367759 0,2.68151796 L0,18.5844914 C0,19.0101565 0.312989045,19.5140688 0.69170579,19.7049921 L7.17840376,22.9600782 C7.3458529,23.0539749 7.50391236,23.0852738 7.64788732,23.0852738 C8.05007825,23.0852738 8.33333333,22.7722848 8.33333333,22.2558529 L8.33333333,5.86931139 C8.33333333,5.83801249 8.31455399,5.80671358 8.28638498,5.79575897 L1.15492958,2.22298901 L1.15336463,2.22298901 Z"></path>
                    </g>
                </g>
            </g>
        </g>
    </g>
</svg>