<?xml version="1.0" encoding="UTF-8"?>
<svg width="25px" height="21px" viewBox="0 0 25 21" version="1.1" xmlns="http://www.w3.org/2000/svg" xmlns:xlink="http://www.w3.org/1999/xlink">
    <!-- Generator: Sketch 46 (44423) - http://www.bohemiancoding.com/sketch -->
    <title>logos/social media/reddit</title>
    <desc>Created with Sketch.</desc>
    <defs></defs>
    <g id="Page-1" stroke="none" stroke-width="1" fill="none" fill-rule="evenodd">
        <g id="WT_landing_B-Copy" transform="translate(-140.000000, -547.000000)" fill="#202020">
            <g id="Header-Info" transform="translate(30.000000, 425.000000)">
                <g id="social-media" transform="translate(0.000000, 120.000000)">
                    <g id="logos/social-media/reddit" transform="translate(110.000000, 0.000000)">
                        <path d="M12.4766034,20.2617919 C10.6079985,20.2617919 9.29155228,19.8562516 8.45239581,19.0139755 C8.27146244,18.8330422 8.27146244,18.5382456 8.45239581,18.3557524 C8.63488894,18.1841777 8.93124532,18.1841777 9.11373846,18.3557524 C9.76884203,19.010856 10.8684802,19.3384078 12.4750437,19.3384078 C14.0816072,19.3384078 15.1734465,19.0264537 15.82855,18.3713501 C16.0001248,18.1997754 16.2964812,18.1997754 16.4836536,18.3713501 C16.6552284,18.5585226 16.6552284,18.854879 16.4836536,19.0420514 C15.6413776,19.8843274 14.3311705,20.2898677 12.459446,20.2898677 L12.4766034,20.2617919 Z M8.72067632,12.3724732 C7.76921637,12.3724732 6.97373347,13.1679561 6.97373347,14.119416 C6.97373347,15.0677564 7.76921637,15.838283 8.72067632,15.838283 C9.67213626,15.838283 10.4411031,15.0677564 10.4411031,14.119416 C10.4411031,13.1679561 9.67057649,12.3724732 8.72067632,12.3724732 Z M16.2543674,12.3724732 C15.3029074,12.3724732 14.5074245,13.1679561 14.5074245,14.119416 C14.5074245,15.0677564 15.3029074,15.838283 16.2543674,15.838283 C17.2058273,15.838283 17.9747941,15.0677564 17.9747941,14.119416 C17.9747941,13.1679561 17.2042675,12.3724732 16.2543674,12.3724732 Z M12.425131,22.9196406 C6.27339656,22.9196406 1.26965311,19.581732 1.26965311,15.4795358 C1.26965311,15.1940978 1.29460943,14.9133392 1.34140255,14.6372598 C0.514724233,14.1225356 0,13.2178687 0,12.2274145 C0,10.6676441 1.27901173,9.40111056 2.83878213,9.40111056 C3.54067881,9.40111056 4.19578238,9.6569129 4.71050661,10.1108061 C6.64462191,8.86922885 9.24943848,8.08778388 12.119416,8.03631145 L14.0067382,2.28075867 L14.4278762,2.37902421 C14.4278762,2.37902421 14.4434739,2.37902421 14.4434739,2.38214375 L18.8420265,3.41627152 C19.2007736,2.5849139 20.027452,2 20.9945096,2 C22.2735213,2 23.3185675,3.04504617 23.3185675,4.32717744 C23.3185675,5.61086848 22.2735213,6.65435488 20.9945096,6.65435488 C19.7154979,6.65435488 18.6704517,5.60930871 18.6704517,4.33029698 L14.660282,3.38039681 L13.131707,8.04411031 C15.8925006,8.15329424 18.3881333,8.93317944 20.2598577,10.1498003 C20.774582,9.66627152 21.4515223,9.40111056 22.1705765,9.40111056 C23.7303469,9.40111056 25,10.6645246 25,12.224295 C25,13.2537434 24.4384827,14.1896057 23.5650112,14.6887322 C23.5962066,14.9538932 23.627402,15.2034565 23.627402,15.4686174 C23.6118043,19.5708136 18.6205391,22.9087222 12.459446,22.9087222 L12.425131,22.9196406 Z"></path>
                    </g>
                </g>
            </g>
        </g>
    </g>
</svg>