<?xml version="1.0" encoding="UTF-8"?>
<svg width="25" height="25" viewBox="0 0 25 25" xmlns="http://www.w3.org/2000/svg"><title>logos/social media/rocketchat</title><path d="M24.96 12.62c0-1.25-.37-2.45-1.1-3.57-.67-1-1.6-1.9-2.78-2.64-2.25-1.43-5.22-2.23-8.36-2.23-1.04 0-2.07.1-3.08.27-.62-.58-1.34-1.1-2.1-1.52C3.4.92 0 2.87 0 2.87s3.16 2.6 2.65 4.9c-1.42 1.4-2.2 3.1-2.2 4.85v.02c0 1.78.78 3.47 2.2 4.88C3.17 19.8.02 22.4.02 22.4s3.4 1.94 7.5-.05c.78-.4 1.5-.93 2.12-1.5 1 .16 2.04.25 3.08.25 3.14 0 6.1-.8 8.36-2.24 1.18-.75 2.1-1.63 2.77-2.64.74-1.1 1.1-2.3 1.1-3.57v-.03zM12.73 19.5c-1.32 0-2.58-.15-3.75-.43-1.2 1.43-3.8 3.4-6.33 2.77.83-.88 2.05-2.38 1.8-4.84C2.9 15.8 2 14.3 2 12.65 2 8.87 6.8 5.8 12.74 5.8c5.92 0 10.72 3.07 10.72 6.85 0 3.8-4.8 6.85-10.72 6.85zm1.42-6.85c0 .8-.64 1.43-1.42 1.43-.8 0-1.43-.64-1.43-1.43 0-.78.64-1.42 1.43-1.42.78 0 1.42.64 1.42 1.42zm3.53-1.42c-.8 0-1.42.64-1.42 1.42 0 .8.63 1.43 1.42 1.43.8 0 1.42-.64 1.42-1.43 0-.78-.63-1.42-1.42-1.42zm-9.9 0c-.8 0-1.43.64-1.43 1.42 0 .8.64 1.43 1.43 1.43.78 0 1.42-.64 1.42-1.43 0-.78-.64-1.42-1.42-1.42z" fill-rule="nonzero" fill="#222"/></svg>