<?xml version="1.0" encoding="UTF-8"?>
<svg width="25px" height="22px" viewBox="0 0 25 22" version="1.1" xmlns="http://www.w3.org/2000/svg" xmlns:xlink="http://www.w3.org/1999/xlink">
    <!-- Generator: Sketch 46 (44423) - http://www.bohemiancoding.com/sketch -->
    <title>logos/social media/slack copy</title>
    <desc>Created with Sketch.</desc>
    <defs></defs>
    <g id="Page-1" stroke="none" stroke-width="1" fill="none" fill-rule="evenodd">
        <g id="WTLanding_softlaunch" transform="translate(-140.000000, -547.000000)" fill="#202020">
            <g id="Header-Info" transform="translate(30.000000, 425.000000)">
                <g id="social-media" transform="translate(0.000000, 120.000000)">
                    <g id="logos/social-media/telegram" transform="translate(110.000000, 0.000000)">
                        <path d="M23.1751174,2.24003589 L0.972350875,10.9497031 C0.972350875,10.9497031 -0.0782838324,11.3092049 0.0046653787,11.9727986 C0.0876145898,12.6363094 0.944728788,12.9404012 0.944728788,12.9404012 L6.52994802,14.8206939 L19.9400981,6.30454723 C19.9400981,6.30454723 20.1812315,6.15830777 20.3895169,6.11086082 C20.3911759,6.11036313 20.7385672,6.00742316 20.7087885,6.36319232 C20.7031479,6.43046413 20.6330558,6.56658379 20.4101713,6.77462041 C19.9954252,7.16174438 9.8756215,16.2583696 9.8756215,16.2583696 L9.86093949,16.3830423 L9.83763076,16.3648764 L9.14658088,22.476989 C9.4552349,22.6111179 9.73734516,22.3971089 9.73734516,22.3971089 L13.3464653,19.1065137 L13.3459676,19.1061819 L18.9723297,23.4197068 C20.4930376,24.0833005 21.04606,22.7008689 21.04606,22.7008689 L25,2.76543619 C25,1.43824881 23.1751174,2.24003589 23.1751174,2.24003589" id="Fill-1"></path>
                    </g>
                </g>
            </g>
        </g>
    </g>
</svg>