<svg xmlns="http://www.w3.org/2000/svg" width="25" height="25" viewBox="0 0 25 25">
    <path fill="#202020" fill-rule="evenodd" d="M9.943 16.444V9.01l6.534 3.717-6.534 3.717zM24.478 6.67a3.141 3.141 0 0 0-2.21-2.224C20.317 3.92 12.5 3.92 12.5 3.92s-7.818 0-9.767.526A3.141 3.141 0 0 0 .523 6.67C0 8.633 0 12.727 0 12.727s0 4.094.522 6.056a3.142 3.142 0 0 0 2.21 2.225c1.95.526 9.768.526 9.768.526s7.818 0 9.767-.526a3.142 3.142 0 0 0 2.21-2.225C25 16.821 25 12.727 25 12.727s0-4.094-.522-6.057z"/>
</svg>
