<svg enable-background="new 0 0 92.99 85.33" fill="#fff" viewBox="0 0 92.99 85.33" xmlns="http://www.w3.org/2000/svg"><path d="m49.88 39.72c.75-.61 1.12-1.56 1.12-2.84v-.81c0-1.25-.37-2.1-1.12-2.55s-1.74-.67-3-.67h-4.2v7.78h4.2c1.25 0 2.25-.3 3-.91z"/><path d="m21.66 40.63c1.25 0 2.25-.3 3-.92.75-.61 1.12-1.56 1.12-2.84v-.81c0-1.25-.37-2.1-1.12-2.55s-1.74-.67-3-.67h-4.2v7.78h4.2z"/><path d="m25.28 46c-.45-.3-.97-.52-1.57-.67s-1.21-.22-1.83-.22h-4.43v8.32h5.19c.59 0 1.14-.04 1.63-.11s.92-.21 1.3-.4c.37-.19.66-.48.87-.85s.31-.86.31-1.45v-1.79c0-.63-.13-1.18-.4-1.65-.26-.49-.62-.88-1.07-1.18z"/><path d="m50.5 46c-.45-.3-.97-.52-1.57-.67s-1.21-.22-1.83-.22h-4.43v8.29.02h5.19c.59 0 1.14-.04 1.63-.11s.92-.21 1.3-.4c.37-.19.66-.48.87-.85s.31-.86.31-1.45v-1.79c0-.63-.13-1.18-.4-1.65-.26-.48-.62-.87-1.07-1.17z"/><path d="m0 0v85.33h92.99v-85.33zm32.3 50.61c0 2.53-.72 4.46-2.17 5.77s-3.42 1.97-5.93 1.97h-12.3v-19.95l5.54-5.54h-5.54v-4.92h11.34c2.48 0 4.44.74 5.89 2.21 1.45 1.48 2.17 3.45 2.17 5.92v.81c0 .54-.08 1.08-.23 1.63s-.38 1.09-.68 1.61-.66.99-1.08 1.41-.89.75-1.4.98c1.43.6 2.51 1.43 3.25 2.5s1.11 2.43 1.11 4.07v1.53zm25.22 0c0 2.53-.72 4.46-2.17 5.77s-3.42 1.97-5.92 1.97h-12.3v-19.95l5.54-5.54h-5.54v-4.92h11.34c2.48 0 4.44.74 5.89 2.21 1.45 1.48 2.17 3.45 2.17 5.92v.81c0 .54-.08 1.08-.23 1.63s-.38 1.09-.68 1.61-.66.99-1.08 1.41-.89.75-1.4.98c1.43.6 2.51 1.43 3.25 2.5s1.11 2.43 1.11 4.07v1.53zm25.98-17.71h-9.08v25.44h-5.54v-19.91l5.54-5.54h-6.33l-8.19-.04v-4.92h23.6z"/></svg>