<svg width="56" height="91" xmlns="http://www.w3.org/2000/svg"><g id="Page-1" fill="none" fill-rule="evenodd"><g id="Logo-Lockups" transform="translate(-514 -301)" fill="#222"><path d="M514 352.91L542.048 392l28.048-39.09-28.048 17.062L514 352.91zm26.184 30.334l-12.87-17.877 12.781 7.765h.089v10.112zm3.64-10.112l12.87-7.854-12.87 17.966v-10.112zm26.183-23.833L542.048 301 514 349.3l28.048 17.061 27.96-17.062zm-26.184-38.007l19.083 32.861-19.083-8.217v-24.644zm0 28.618l20.149 8.666-20.149 12.369V339.91zm-3.639 21.035l-20.149-12.278 20.149-8.668v20.946zm0-25.009l-19.083 8.217 19.083-32.861v24.644z" id="Fill-1"/></g></g></svg>