
<svg width="200px" height="221px" viewBox="0 0 200 221" version="1.1" xmlns="http://www.w3.org/2000/svg" xmlns:xlink="http://www.w3.org/1999/xlink">
    <defs>
        <linearGradient x1="32.6403971%" y1="56.8158169%" x2="103.388174%" y2="14.2299688%" id="linearGradient-1">
            <stop stop-color="#AF94C3" offset="0%"></stop>
            <stop stop-color="#8CF4D3" offset="100%"></stop>
        </linearGradient>
    </defs>
    <g id="Page-1" stroke="none" stroke-width="1" fill="none" fill-rule="evenodd">
        <g id="Desktop-HD" transform="translate(-922.000000, -534.000000)" fill="url(#linearGradient-1)">
            <path d="M987.710828,755 L922,637.148804 L983.906538,534 L1078.45924,541.49624 L1122,599.83013 L1109.74522,713.335014 L987.710828,755 Z M1001.1417,574.29972 C1000.95924,574.325971 1000.77679,574.372414 1000.60447,574.435012 L1000.51325,574.479436 L1000.33485,574.52386 L1000.24362,574.568284 L1000.06523,574.657132 C1000.0502,574.671777 1000.03533,574.686586 1000.02063,574.701556 C999.95981,574.729826 999.898992,574.760115 999.840202,574.792424 L999.751003,574.881272 C999.551055,575.022126 999.369858,575.187683 999.211755,575.373976 L974.980062,596.061467 C974.764009,596.198696 974.567609,596.364437 974.396215,596.554171 C974.349328,596.612353 974.304696,596.672302 974.262417,596.733887 C974.247387,596.748532 974.23252,596.763341 974.217817,596.778311 C974.170931,596.836493 974.126298,596.896442 974.084019,596.958026 C974.06831,596.97266 974.052767,596.987469 974.037392,597.00245 C974.004678,597.075952 973.974922,597.150725 973.948193,597.22659 C973.915757,597.287169 973.887376,597.345728 973.858994,597.408325 L973.814395,597.495154 L973.814395,597.539578 C973.780996,597.613049 973.750563,597.687822 973.723169,597.763718 L973.723169,597.808142 C973.705514,597.882278 973.690638,597.957043 973.678569,598.032282 L973.678569,598.123149 C973.660964,598.196617 973.646087,598.270708 973.63397,598.34527 C973.630003,598.435421 973.630003,598.525702 973.63397,598.615853 C973.628592,598.720787 973.628592,598.825926 973.63397,598.93086 L973.63397,679.655493 C973.646133,681.260818 974.884782,682.559213 976.417381,682.573348 L983.370841,682.573348 L983.370841,688.586755 C983.383005,690.19006 984.621653,691.488455 986.154252,691.50259 L993.020541,691.50259 L993.020541,697.873409 C993.030677,699.478734 994.269325,700.777129 995.801925,700.791264 L1074.0618,700.791264 C1075.61264,700.80338 1076.87967,699.498927 1076.88981,697.873409 L1076.88981,595.429434 C1076.87765,593.807954 1075.61264,592.501482 1074.0618,592.513598 L1067.24416,592.513598 L1067.24416,586.14076 C1067.232,584.519281 1065.967,583.212808 1064.41615,583.224924 L1057.50527,583.224924 L1057.50527,577.255942 C1057.51422,576.476564 1057.21999,575.72398 1056.68423,575.155894 C1056.164,574.604267 1055.43708,574.292702 1054.67726,574.295682 L1001.63837,574.295682 C1001.5634,574.292532 1001.48832,574.292532 1001.41335,574.295682 C1001.32353,574.291162 1001.23354,574.291162 1001.14372,574.295682 L1001.14372,574.29972 L1001.1417,574.29972 Z M1003.66917,579.914472 L1051.5442,579.914472 L1051.5442,583.102248 L1010.83607,583.102248 C1010.76143,583.099019 1010.68668,583.099019 1010.61204,583.102248 C1010.30583,583.094964 1010.00067,583.142028 1009.70981,583.241397 C1009.4687,583.333415 1009.24113,583.45972 1009.03365,583.616678 C1008.97255,583.660953 1008.91145,583.709444 1008.85239,583.757935 C1008.83729,583.773226 1008.82236,583.788688 1008.80759,583.804318 L1008.67317,583.897084 L1008.58152,583.98985 L1003.66917,588.347743 L1003.66917,579.914472 Z M998.036816,582.725562 L998.036816,592.351783 L995.078293,594.906953 L983.955924,594.906953 L998.034822,582.727577 L998.036816,582.725562 Z M1013.99516,588.349772 L1061.87019,588.349772 L1061.87019,591.777881 L1021.07214,591.777881 C1020.9975,591.774772 1020.92276,591.774772 1020.84812,591.777881 C1020.54193,591.770909 1020.23679,591.816216 1019.94594,591.91184 C1019.88484,591.940255 1019.82374,591.9707 1019.76468,592.003175 L1019.67508,592.047827 C1019.46526,592.143492 1019.26823,592.264855 1019.08855,592.409108 C1019.07345,592.423829 1019.05852,592.438714 1019.04375,592.453761 L1018.90934,592.543066 L1018.81769,592.632372 L1013.99516,596.781013 L1013.99516,588.347743 L1013.99516,588.349772 Z M1008.31907,592.095863 L1008.31907,601.377496 C1008.31567,601.571902 1008.33031,601.766203 1008.3628,601.957849 L1005.67902,604.277253 C1005.62006,604.27524 1005.56105,604.27524 1005.50209,604.277253 L994.281911,604.277253 L1008.31907,592.095863 Z M979.264293,601.466163 L988.649554,601.466163 L984.575875,604.911993 L984.487882,605.000606 L984.355892,605.135539 C983.903449,605.521224 983.578961,606.037035 983.425966,606.613761 L983.425966,606.658068 C983.408598,606.731342 983.393923,606.805236 983.381969,606.8796 L983.381969,606.92592 C983.362289,607.014295 983.3476,607.103723 983.337973,607.193773 C983.335288,607.268263 983.335288,607.342828 983.337973,607.417318 C983.331064,607.53671 983.331064,607.656406 983.337973,607.775798 L983.337973,676.428567 L979.262293,676.428567 L979.262293,601.466163 L979.264293,601.466163 Z M1017.75006,601.466163 L1017.75006,613.647554 L1003.66917,613.647554 L1017.75006,601.466163 Z M1029.85628,607.092781 C1029.94463,607.086864 1030.03329,607.086864 1030.12164,607.092781 L1063.67398,607.092781 C1064.70126,607.076988 1065.65817,607.610031 1066.17482,608.484618 C1066.69349,609.359205 1066.69349,610.439113 1066.17482,611.315674 C1065.65847,612.189241 1064.70242,612.721327 1063.67398,612.707511 L1030.12164,612.707511 C1029.10323,612.753884 1028.13722,612.262236 1027.58863,611.418334 C1027.03839,610.571829 1026.98786,609.501884 1027.45595,608.608995 C1027.92229,607.718323 1028.8376,607.140148 1029.85628,607.092781 Z M989.588281,609.899434 L998.975542,609.899434 L994.798454,613.615329 C994.724277,613.670636 994.652849,613.72979 994.584444,613.792564 L994.454092,613.927505 L994.368488,613.971813 C994.32279,614.030467 994.279307,614.090934 994.238136,614.153077 C994.223723,614.167016 994.209455,614.181115 994.195334,614.195371 C994.150297,614.254061 994.107463,614.314527 994.066928,614.376635 C994.051863,614.390563 994.036946,614.404662 994.022181,614.418929 C993.977143,614.477619 993.934309,614.538085 993.893775,614.600193 C993.879362,614.614132 993.865093,614.628231 993.850973,614.642487 C993.819577,614.715798 993.79102,614.790377 993.765369,614.866045 L993.677819,615.047308 L993.635017,615.133912 L993.635017,615.178221 C993.603622,615.251532 993.575064,615.326111 993.549413,615.401779 L993.549413,615.446087 C993.532423,615.520697 993.518145,615.595941 993.506611,615.671659 L993.506611,615.715968 C993.487466,615.804348 993.473175,615.893781 993.463809,615.983835 C993.461197,616.05833 993.461197,616.132898 993.463809,616.207393 C993.457088,616.326791 993.457088,616.446493 993.463809,616.565891 L993.463809,684.861837 L989.588281,684.861837 L989.588281,609.899434 L989.588281,609.901448 L989.588281,609.899434 Z M1028.89355,618.337144 C1028.99602,618.331224 1029.1005,618.331224 1029.20497,618.337144 L1062.73841,618.337144 C1063.7631,618.323331 1064.71947,618.85412 1065.23784,619.728245 C1065.75418,620.603275 1065.75418,621.682773 1065.23784,622.557803 C1064.7223,623.431668 1063.76669,623.964281 1062.73841,623.950878 L1029.20497,623.950878 C1028.44837,623.990638 1027.70673,623.733198 1027.14362,623.23533 C1026.58051,622.737463 1026.24218,622.040063 1026.20324,621.296933 C1026.11416,619.750098 1027.31852,618.425103 1028.89355,618.337144 Z M1010.11989,630.518536 C1010.22479,630.512614 1010.32767,630.512614 1010.43258,630.518536 L1063.66391,630.518536 C1064.69275,630.502744 1065.653,631.035736 1066.17347,631.910237 C1066.69394,632.784738 1066.69394,633.86454 1066.17347,634.741015 C1065.65532,635.614497 1064.69594,636.146531 1063.66391,636.132716 L1010.43258,636.132716 C1008.85431,636.209912 1007.51026,635.021896 1007.42877,633.477627 C1007.33921,631.933759 1008.5425,630.609773 1010.11989,630.516562 L1010.11989,630.518536 Z M1010.13019,641.762895 C1010.23541,641.756975 1010.33861,641.756975 1010.44383,641.762895 L1063.65654,641.762895 C1064.68854,641.749082 1065.65174,642.279904 1066.17381,643.154082 C1066.69383,644.029167 1066.69383,645.108732 1066.17381,645.983816 C1065.65458,646.857735 1064.69216,647.390381 1063.65654,647.376977 L1010.44383,647.376977 C1008.85995,647.455271 1007.51051,646.267377 1007.42878,644.722868 C1007.33897,643.178844 1008.54714,641.855031 1010.13019,641.762895 Z M1010.17564,653.942808 C1010.26728,653.938858 1010.35892,653.938858 1010.44852,653.942808 L1063.63857,653.942808 C1064.67712,653.92701 1065.64644,654.460194 1066.16978,655.33501 C1066.69517,656.209827 1066.69517,657.290018 1066.16978,658.16681 C1065.64674,659.040606 1064.67831,659.572832 1063.63654,659.559012 L1010.44648,659.559012 C1009.41487,659.605398 1008.43635,659.11362 1007.88065,658.269497 C1007.32405,657.423254 1007.27287,656.353996 1007.74625,655.461395 C1008.21755,654.56896 1009.14493,653.988998 1010.17768,653.940833 L1010.17564,653.942808 Z M1010.18321,665.187167 C1010.27513,665.183219 1010.36705,665.183219 1010.45692,665.187167 L1063.62703,665.187167 C1064.67286,665.173349 1065.64312,665.704377 1066.17012,666.578895 C1066.69506,667.454319 1066.69506,668.534304 1066.17012,669.409729 C1065.64599,670.283987 1064.67447,670.81684 1063.62907,670.80343 L1010.45692,670.80343 C1009.42173,670.84938 1008.4401,670.35697 1007.88319,669.512381 C1007.32422,668.666784 1007.27211,667.59788 1007.74633,666.705236 C1008.21963,665.81387 1009.14976,665.234923 1010.18525,665.187167 L1010.18321,665.187167 Z M1010.17564,676.431529 C1010.26728,676.427579 1010.35892,676.427579 1010.44852,676.431529 L1063.63857,676.431529 C1064.67712,676.417706 1065.64644,676.948915 1066.16978,677.823731 C1066.69517,678.698548 1066.69517,679.780714 1066.16978,680.655531 C1065.64674,681.529327 1064.67831,682.061553 1063.63654,682.047733 L1010.44648,682.047733 C1009.41487,682.094119 1008.43635,681.602341 1007.88065,680.758218 C1007.32405,679.911975 1007.27287,678.842717 1007.74625,677.950116 C1008.21755,677.057681 1009.14493,676.477719 1010.17768,676.429554 L1010.17564,676.431529 Z" id="docs"></path>
        </g>
    </g>
</svg>