<svg width="300" height="100" xmlns="http://www.w3.org/2000/svg"><g id="Page-1" fill="none" fill-rule="evenodd"><g id="swiss" fill-rule="nonzero"><g id="Swiss_International_Air_Lines_Logo_2011" transform="translate(52 28)"><g id="_x23_e60005ff" fill="#E60005"><path d="M36.174.06h24.352c-3.764 15.23-7.384 30.504-11.16 45.731H0v-.476l.004.466A16503.1 16503.1 0 0 1 36.174.06zm-2.73 8.813c.005 3.275-.008 6.554.007 9.83-3.223.008-6.447-.007-9.671.008.016 2.812.016 5.62 0 8.429 3.224.017 6.448 0 9.671.01-.015 3.274-.002 6.555-.008 9.83 2.8.016 5.596.008 8.395.004-.016-3.28 0-6.56-.008-9.839 3.236 0 6.47.004 9.708 0a2286.79 2286.79 0 0 1 0-8.44c-3.236 0-6.471 0-9.708.004.008-3.28-.008-6.56.008-9.839-2.799-.006-5.596-.016-8.395.003zm35.04 1.402c2.556-2.247 6.11-2.835 9.388-2.724 3.03.134 6.322.926 8.386 3.342 1.272 1.415 1.714 3.34 1.858 5.196-2.384.02-4.761.012-7.145.004-.128-1.328-.806-2.708-2.153-3.113-1.756-.506-4.124-.431-5.24 1.26-.814 1.384.045 3.127 1.4 3.751 3.805 1.964 8.513 2.307 11.633 5.511 3.006 3.543 2.383 9.655-1.308 12.491-2.622 2.103-6.136 2.58-9.38 2.397-3.054-.196-6.314-1.006-8.476-3.347-1.475-1.566-2.08-3.76-2.048-5.888 2.375-.005 4.755 0 7.129 0 .183.978.4 2.026 1.145 2.74 1.176 1.23 3.018 1.397 4.601 1.16 1.6-.265 2.999-1.755 2.858-3.45-.043-1.16-.97-2.018-1.92-2.524-3.26-1.757-7.207-1.945-10.214-4.241-3.903-2.827-4.177-9.419-.514-12.565zm80.224.028c2.447-2.185 5.849-2.796 9.012-2.77 3.06.098 6.4.768 8.587 3.118 1.404 1.431 1.95 3.466 2.071 5.433-2.388.028-4.771.03-7.157 0-.135-1.25-.697-2.582-1.955-3.024-1.585-.552-3.567-.54-4.918.576-1.077.896-1.06 2.685-.117 3.673 1.001 1.042 2.44 1.425 3.76 1.85 2.71.843 5.548 1.592 7.864 3.331 4.035 2.985 4.008 9.753.345 13.034-2.585 2.4-6.28 3.032-9.671 2.889-3.165-.166-6.602-.944-8.83-3.408-1.477-1.55-2.052-3.742-2.057-5.849 2.383-.004 4.772 0 7.155-.004.205.96.372 2.004 1.115 2.709 1.372 1.42 3.623 1.559 5.392.974 1.931-.672 2.894-3.488 1.272-4.972-1.585-1.38-3.7-1.847-5.633-2.499-2.68-.788-5.56-1.78-7.281-4.153-2.282-3.233-1.97-8.244 1.046-10.908zm25.941-.146c2.908-2.388 6.889-2.87 10.509-2.504 2.768.26 5.694 1.27 7.436 3.587 1.088 1.373 1.452 3.144 1.582 4.848-2.372.024-4.743-.004-7.113.016-.239-.875-.38-1.873-1.125-2.476-1.33-1.12-3.301-1.112-4.87-.576-1.272.423-2.072 1.89-1.644 3.203.424 1.385 1.841 2.05 3.09 2.492 3.089 1.058 6.414 1.724 9.095 3.714 4.08 2.965 4.05 9.809.36 13.086-2.508 2.315-6.068 2.966-9.358 2.876-3.115-.13-6.467-.794-8.797-3.05-1.68-1.581-2.418-3.943-2.385-6.22 2.378.004 4.756.004 7.13 0 .19 1.542.987 3.1 2.509 3.645 1.822.611 4.258.576 5.506-1.134 1.019-1.271.735-3.327-.675-4.184-3.43-2.24-7.927-2.172-11.13-4.869-3.708-2.97-3.783-9.416-.12-12.454zM89.048 8.234c2.457-.005 4.913.008 7.37-.008 1.625 6.515 3.253 13.033 4.82 19.566 1.906-6.512 3.744-13.046 5.646-19.563 2.423.005 4.849.005 7.275.005 1.92 6.491 3.67 13.04 5.69 19.505 1.487-6.52 3.18-12.993 4.737-19.497a828.56 828.56 0 0 1 7.395-.004c-2.677 9.776-5.32 19.56-8.025 29.326-2.572-.004-5.144-.01-7.716 0a1877.07 1877.07 0 0 1-5.7-20.043c-1.97 6.662-3.806 13.369-5.745 20.039-2.566.004-5.134-.017-7.701.011-2.769-9.752-5.314-19.574-8.046-29.337zm45.816 29.33c-.028-9.776-.003-19.554-.01-29.33h7.516c-.008 9.776.016 19.553-.013 29.326-2.496 0-4.996-.006-7.493.004z" id="Shape"/></g><g id="_x23_ffffffff" transform="translate(23.364 7.886)" fill="#FFF"><path d="M10.08.987c2.799-.017 5.595-.01 8.393-.005-.015 3.28 0 6.56-.007 9.84 3.235-.004 6.47-.004 9.707-.004-.005 2.816-.005 5.63 0 8.44-3.236.004-6.47 0-9.707 0 .007 3.28-.008 6.56.007 9.839-2.798.004-5.595.012-8.394-.005.005-3.274-.008-6.555.008-9.83-3.223-.009-6.447.008-9.672-.009.017-2.811.017-5.616 0-8.429 3.225-.015 6.449 0 9.672-.007-.016-3.276-.003-6.556-.008-9.83z" id="Shape"/></g></g></g></g></svg>