
<svg width="200px" height="219px" viewBox="0 0 200 219" version="1.1" xmlns="http://www.w3.org/2000/svg" xmlns:xlink="http://www.w3.org/1999/xlink">
    <defs>
        <linearGradient x1="21.7879452%" y1="37.6872348%" x2="105.189042%" y2="82.5315679%" id="linearGradient-1">
            <stop stop-color="#AF94C3" offset="0%"></stop>
            <stop stop-color="#8CF4D3" offset="100%"></stop>
        </linearGradient>
    </defs>
    <g id="Page-1" stroke="none" stroke-width="1" fill="none" fill-rule="evenodd">
        <g id="Desktop-HD" transform="translate(-465.000000, -293.000000)" fill="url(#linearGradient-1)">
            <g id="target" transform="translate(465.000000, 293.000000)">
                <path d="M18.2957864,52 L113.492537,0 L200,34.625 L185,219 L59.5560812,190.546875 L-5.68434189e-14,177 L18.2957864,52 Z M103,152 C95.11909,152 87.8786126,150.079057 81.2783505,146.237113 C74.7765998,142.39517 69.6048302,137.2234 65.7628866,130.721649 C61.920943,124.121387 60,116.88091 60,109 C60,101.11909 61.920943,93.8786126 65.7628866,87.2783505 C69.6048302,80.7765998 74.7765998,75.6048302 81.2783505,71.7628866 C87.8786126,67.920943 95.11909,66 103,66 C110.88091,66 118.121387,67.920943 124.721649,71.7628866 C131.2234,75.6048302 136.39517,80.7765998 140.237113,87.2783505 C144.079057,93.8786126 146,101.11909 146,109 C146,116.88091 144.079057,124.121387 140.237113,130.721649 C136.39517,137.2234 131.2234,142.39517 124.721649,146.237113 C118.121387,150.079057 110.88091,152 103,152 Z M158.352941,103.470588 C157.470584,95.0391735 154.774532,87.2696434 150.264706,80.1617647 C145.754879,73.053886 139.946114,67.2451206 132.838235,62.7352941 C125.730357,58.2254676 117.960826,55.5294162 109.529412,54.6470588 L109.529412,42 L97.4705882,42 L97.4705882,54.6470588 C89.0391735,55.5294162 81.2941529,58.2254676 74.2352941,62.7352941 C67.1764353,67.2451206 61.3921794,73.053886 56.8823529,80.1617647 C52.3725265,87.2696434 49.6274559,95.0391735 48.6470588,103.470588 L36,103.470588 L36,115.529412 L48.6470588,115.529412 C49.6274559,123.960826 52.3725265,131.730357 56.8823529,138.838235 C61.3921794,145.946114 67.1764353,151.754879 74.2352941,156.264706 C81.2941529,160.774532 89.0391735,163.470584 97.4705882,164.352941 L97.4705882,177 L109.529412,177 L109.529412,164.352941 C117.960826,163.470584 125.730357,160.774532 132.838235,156.264706 C139.946114,151.754879 145.754879,145.946114 150.264706,138.838235 C154.774532,131.730357 157.470584,123.960826 158.352941,115.529412 L171,115.529412 L171,103.470588 L158.352941,103.470588 Z M103.5,85 C99.072267,85 94.9889745,86.1069166 91.25,88.3207831 C87.5110255,90.5346496 84.5346496,93.5110255 82.3207831,97.25 C80.1069166,100.988975 79,105.072267 79,109.5 C79,113.927733 80.1069166,118.011025 82.3207831,121.75 C84.5346496,125.488975 87.5110255,128.46535 91.25,130.679217 C94.9889745,132.893083 99.072267,134 103.5,134 C107.927733,134 112.011025,132.893083 115.75,130.679217 C119.488975,128.46535 122.46535,125.488975 124.679217,121.75 C126.893083,118.011025 128,113.927733 128,109.5 C128,105.072267 126.893083,100.988975 124.679217,97.25 C122.46535,93.5110255 119.488975,90.5346496 115.75,88.3207831 C112.011025,86.1069166 107.927733,85 103.5,85 Z" id="Combined-Shape"></path>
            </g>
        </g>
    </g>
</svg>