<svg width="335" height="182" xmlns="http://www.w3.org/2000/svg"><g id="UI-elements" fill="none" fill-rule="evenodd"><g id="Desktop-HD" transform="translate(-875 -51)"><g id="AHIC-logo-rev" transform="translate(875 51)"><path id="Fill-1" fill="#FFF" d="M153.454 181.905h1.292V0h-1.292z"/><path d="M50.986 160.03a4.538 4.538 0 0 1-3.436-1.573C23.8 130.918 2.477 100.159 38.612 30.688a.887.887 0 0 1 1.68.45c-4.523 69.948 30.679 93.96 44.33 128.892H50.986z" id="Fill-3" fill="#ED7F38"/><path d="M13.854 160.03a4.345 4.345 0 0 1-3.451-1.705c-11.38-14.948-16.498-31.795.87-70.892a.65.65 0 0 1 1.247.264c-.45 32.585 13.102 50.846 24.543 70.284a1.361 1.361 0 0 1-1.175 2.048H13.855z" id="Fill-4" fill="#951E5C"/><path d="M97.555 157.685a4.096 4.096 0 0 1-3.702 2.343c-8.657.002-36.147.002-36.147.002 18.423-38.04 31.077-79.984 2.426-142.246a.897.897 0 0 1 1.456-1.002c57.742 57.465 54.917 100.67 35.967 140.903z" id="Fill-5" fill="#348AA5"/><path d="M183.104 48.634h8.451l1.09-3.756h7.437l1.127 3.756h8.602l-9.09-26.444h-8.527l-9.09 26.444zm11.306-9.766l1.953-6.837 1.991 6.837h-3.944z" id="Fill-6" fill="#FFF"/><path id="Fill-7" fill="#FFF" d="M211.967 48.634h8.114v-9.616h6.348v9.616h8.114V22.34h-8.114v9.466h-6.348V22.34h-8.114z"/><path id="Fill-8" fill="#FFF" d="M238.648 48.634h8.114V22.34h-8.114z"/><path d="M262.327 49.16c5.109 0 8.227-2.404 10.142-5.221l-5.484-4.846c-.864 1.353-2.066 2.555-4.169 2.555-2.442 0-4.433-1.954-4.433-6.123v-.15c0-3.869 1.841-6.048 4.395-6.048 2.029 0 3.231 1.164 4.057 2.479l5.484-5.033c-2.103-3.005-5.221-4.959-9.691-4.959-6.874 0-12.509 5.222-12.509 13.41v.639c0 8.339 5.635 13.297 12.208 13.297z" id="Fill-9" fill="#FFF"/><path d="M184.038 82.229h2.722l1.349-3.839h6.328l1.35 3.839h2.815l-5.979-16.379h-2.606l-5.979 16.379zm4.909-6.236l2.326-6.537 2.327 6.537h-4.653z" id="Fill-10" fill="#FFF"/><path d="M201.704 82.229h2.699v-5.747h2.606c.046 0 .116 0 .162-.023l3.467 5.77h3.118l-3.839-6.305c1.977-.698 3.373-2.257 3.373-4.77v-.093c0-1.489-.488-2.722-1.349-3.583-.977-.977-2.49-1.535-4.351-1.535h-5.886v16.286zm2.699-8.167v-5.653h2.955c2.024 0 3.21.954 3.21 2.792v.046c0 1.699-1.163 2.815-3.257 2.815h-2.908z" id="Fill-11" fill="#FFF"/><path d="M216.562 82.229h2.723l1.349-3.839h6.328l1.35 3.839h2.815l-5.979-16.379h-2.606l-5.98 16.379zm4.91-6.236l2.326-6.537 2.327 6.537h-4.653z" id="Fill-12" fill="#FFF"/><path d="M234.229 82.229h5.979c3.467 0 5.793-1.582 5.793-4.444v-.093c0-2.187-1.303-3.257-3.094-3.886 1.233-.604 2.396-1.651 2.396-3.652v-.07c0-1.117-.372-2.024-1.093-2.745-.908-.908-2.397-1.396-4.165-1.396h-5.816v16.286zm8.375-11.657c0 1.513-1.14 2.304-2.908 2.304h-2.815v-4.514h2.978c1.745 0 2.745.791 2.745 2.164v.046zm.698 6.887v.047c0 1.489-1.163 2.303-3.024 2.303h-3.397v-4.653h3.28c2.048 0 3.141.884 3.141 2.303z" id="Fill-13" fill="#FFF"/><path id="Fill-14" fill="#FFF" d="M249.873 82.229h2.699V65.943h-2.699z"/><path d="M255.79 82.229h2.722l1.35-3.839h6.328l1.35 3.839h2.815l-5.98-16.379h-2.605l-5.98 16.379zm4.909-6.236l2.327-6.537 2.327 6.537h-4.654z" id="Fill-15" fill="#FFF"/><path id="Fill-16" fill="#FFF" d="M273.457 82.229h2.652V71.038l7.375 11.19h2.28V65.944h-2.629v10.865l-7.166-10.865h-2.512z"/><path id="Fill-17" fill="#FFF" d="M185.247 108.077h2.699v-6.933h6.398v6.933h2.699V91.791h-2.699v6.84h-6.398v-6.84h-2.699z"/><path d="M208.174 108.333c4.258 0 7.236-3.467 7.236-8.306v-.233c0-4.816-2.955-8.259-7.189-8.259-4.258 0-7.236 3.467-7.236 8.306v.233c0 4.816 2.955 8.259 7.189 8.259zm.047-2.49c-2.559 0-4.444-2.35-4.444-5.84v-.162c0-3.513 1.838-5.816 4.397-5.816 2.583 0 4.444 2.35 4.444 5.84v.162c0 3.513-1.838 5.817-4.397 5.817z" id="Fill-18" fill="#FFF"/><path id="Fill-19" fill="#FFF" d="M221.986 108.077h2.699V94.304h4.281V91.79h-11.261v2.513h4.281z"/><path id="Fill-20" fill="#FFF" d="M232.277 108.077h10.377v-2.443h-7.701v-4.537h6.724v-2.443h-6.724v-4.42h7.585V91.79h-10.261z"/><path id="Fill-21" fill="#FFF" d="M246.397 108.077h9.678v-2.49h-6.979V91.792h-2.699z"/><path id="Fill-22" fill="#FFF" d="M185.387 133.925h2.699V117.64h-2.699z"/><path id="Fill-23" fill="#FFF" d="M192.772 133.925h2.653v-11.19l7.375 11.19h2.28V117.64h-2.629v10.865l-7.166-10.865h-2.513z"/><path id="Fill-24" fill="#FFF" d="M213.835 134.018h2.49l5.63-16.379h-2.838l-4.002 12.308-4.002-12.308h-2.931z"/><path id="Fill-25" fill="#FFF" d="M225.057 133.925h10.377v-2.443h-7.701v-4.536h6.723v-2.443h-6.723v-4.42h7.584v-2.444h-10.26z"/><path d="M244.416 134.135c3.048 0 5.282-1.838 5.282-4.7v-.047c0-2.373-1.396-3.629-4.421-4.792-2.769-1.07-3.373-1.675-3.373-2.815v-.024c0-1.07.907-1.884 2.373-1.884 1.303 0 2.536.628 3.652 1.535l1.536-2.07c-1.489-1.303-3.234-1.908-5.119-1.908-3.024 0-5.165 1.884-5.165 4.56v.047c0 2.605 1.606 3.745 4.7 4.909 2.583.954 3.118 1.628 3.118 2.652v.023c0 1.21-1.001 2.07-2.56 2.07-1.721 0-3.071-.837-4.28-1.93l-1.629 2.024c1.768 1.629 3.792 2.35 5.886 2.35z" id="Fill-26" fill="#FFF"/><path id="Fill-27" fill="#FFF" d="M256.757 133.925h2.699v-13.773h4.281v-2.513h-11.261v2.513h4.281z"/><path id="Fill-28" fill="#FFF" d="M267.048 133.925h2.629v-11.47l4.304 7.492h.07l4.328-7.538v11.516h2.675V117.64h-2.838l-4.165 7.492-4.188-7.492h-2.815z"/><path id="Fill-29" fill="#FFF" d="M285.601 133.925h10.376v-2.443h-7.701v-4.536H295v-2.443h-6.724v-4.42h7.585v-2.444h-10.26z"/><path id="Fill-30" fill="#FFF" d="M299.85 133.925h2.652v-11.19l7.375 11.19h2.28V117.64h-2.629v10.865l-7.166-10.865h-2.512z"/><path id="Fill-31" fill="#FFF" d="M319.726 133.925h2.699v-13.773h4.281v-2.513h-11.261v2.513h4.281z"/><path d="M191.785 160.006c2.257 0 3.909-.837 5.328-2.303l-1.582-1.908c-1.024.977-2.047 1.699-3.606 1.699-2.559 0-4.491-2.304-4.491-5.84v-.093c0-3.467 1.932-5.793 4.491-5.793 1.466 0 2.536.698 3.49 1.582l1.628-2.07c-1.326-1.21-2.838-2.025-5.118-2.025-4.211 0-7.282 3.374-7.282 8.306v.163c0 4.979 2.978 8.282 7.142 8.282z" id="Fill-32" fill="#FFF"/><path d="M206.574 160.03c4.258 0 7.236-3.467 7.236-8.306v-.233c0-4.816-2.955-8.26-7.189-8.26-4.258 0-7.236 3.467-7.236 8.307v.232c0 4.816 2.955 8.26 7.189 8.26zm.047-2.49c-2.559 0-4.444-2.35-4.444-5.84v-.162c0-3.514 1.838-5.817 4.397-5.817 2.583 0 4.444 2.35 4.444 5.84v.163c0 3.513-1.838 5.816-4.397 5.816z" id="Fill-33" fill="#FFF"/><path id="Fill-34" fill="#FFF" d="M217.775 159.774h2.652v-11.191l7.376 11.19h2.28v-16.285h-2.629v10.865l-7.166-10.865h-2.513z"/><path id="Fill-35" fill="#FFF" d="M234.653 159.774h2.699v-6.747h6.654v-2.467h-6.654v-4.583h7.515v-2.49h-10.214z"/><path id="Fill-36" fill="#FFF" d="M248.142 159.774h10.376v-2.443h-7.701v-4.537h6.724v-2.443h-6.724v-4.42h7.585v-2.443h-10.26z"/><path d="M262.39 159.774h2.699v-5.747h2.606c.046 0 .116 0 .163-.023l3.466 5.77h3.118l-3.839-6.305c1.978-.698 3.374-2.257 3.374-4.77v-.093c0-1.489-.489-2.722-1.35-3.583-.977-.977-2.489-1.535-4.35-1.535h-5.887v16.286zm2.699-8.167v-5.653h2.955c2.024 0 3.211.954 3.211 2.792v.046c0 1.699-1.164 2.815-3.258 2.815h-2.908z" id="Fill-37" fill="#FFF"/><path id="Fill-38" fill="#FFF" d="M277.942 159.774h10.376v-2.443h-7.701v-4.537h6.724v-2.443h-6.724v-4.42h7.585v-2.443h-10.26z"/><path id="Fill-39" fill="#FFF" d="M292.191 159.774h2.652v-11.191l7.375 11.19h2.28v-16.285h-2.629v10.865l-7.166-10.865h-2.512z"/><path d="M315.606 160.006c2.257 0 3.909-.837 5.328-2.303l-1.582-1.908c-1.024.977-2.048 1.699-3.606 1.699-2.56 0-4.491-2.304-4.491-5.84v-.093c0-3.467 1.931-5.793 4.491-5.793 1.465 0 2.536.698 3.489 1.582l1.629-2.07c-1.326-1.21-2.838-2.025-5.118-2.025-4.212 0-7.283 3.374-7.283 8.306v.163c0 4.979 2.978 8.282 7.143 8.282z" id="Fill-40" fill="#FFF"/><path id="Fill-41" fill="#FFF" d="M324.069 159.774h10.377v-2.443h-7.701v-4.537h6.724v-2.443h-6.724v-4.42h7.585v-2.443h-10.261z"/></g></g></g></svg>