<svg id="Layer_1" data-name="Layer 1" xmlns="http://www.w3.org/2000/svg" xmlns:xlink="http://www.w3.org/1999/xlink" viewBox="0 0 595.94 196.16"><defs><style>.cls-1{fill:#1e1f1d;}.cls-2{fill:url(#linear-gradient);}</style><linearGradient id="linear-gradient" x1="343.93" y1="60.92" x2="549.42" y2="60.92" gradientUnits="userSpaceOnUse"><stop offset="0" stop-color="#1e1f1d" stop-opacity="0"/><stop offset="0.41" stop-color="#1e1f1d" stop-opacity="0.13"/><stop offset="0.84" stop-color="#1e1f1d" stop-opacity="0.53"/><stop offset="1" stop-color="#1e1f1d" stop-opacity="0.75"/></linearGradient></defs><title>fte-svg-3</title><path class="cls-1" d="M595.61,117.92c-0.06.59-1.6,1.22-2.41,1.58a18,18,0,0,1-5.57,1.42,13.93,13.93,0,0,1-2.74.16c-0.64-.06-1.17-0.51-1.58-0.5s-0.59.29-1,.33a14.09,14.09,0,0,1-3-.33c-1-.13-2-0.22-2.91-0.41a7.59,7.59,0,0,1-.91-5.08c0.17-.81.87-1,0.83-1.83a2.75,2.75,0,0,0-1-1.41,16,16,0,0,1-1-1.58,30.85,30.85,0,0,1-2-4.65c-0.36-1-.85-1.87-1.25-2.83-0.82-2-1.58-4-2.24-6a34.49,34.49,0,0,0-2.26-4.7c-1-3.47-2.74-6.69-3.73-10.17l0-.15s0-.06,0-0.09h0c0-.06-0.11-0.11-0.15-0.18a14.78,14.78,0,0,1-1-1.86,34.24,34.24,0,0,0-2.15,3.26c-0.52,2-1.24,4-2,5.91A53.4,53.4,0,0,0,554,96.22h0c-1.41,2.05-2.13,4.33-3.49,6.65-0.53.91-1.21,1.94-2,3.08-0.54.77-1.91,2.12-2.08,3s0.21,2.21-.08,3.08c-0.17.49-.64,0.6-0.67,1.08a8.35,8.35,0,0,0,.58,1.58,6.14,6.14,0,0,0,2,1.75c1.56,0.55,3.35-.23,4.57.33a2,2,0,0,1,1,1.41c-0.05.46-1.37,1.32-2,1.5a23,23,0,0,1-3.41.34,19.36,19.36,0,0,1-3.74.08c-1.12-.17-1-0.78-1.83-1.25-0.44-.26-0.85-0.25-1.33-0.5-0.41.06-.56,0.37-1,0.41-1.93-.68-4.43-0.78-5.9-1.91,0-.46.27-0.82,0.33-1.25s0-.72,0-1.08c0.06-.59.29-1.23,0.41-1.83s0.18-1.42.33-2c0.39-1.44,1.46-2.68,2-3.91,0.16-.37.17-0.82,0.33-1.16,0.61-1.32,1.9-2.15,2.41-3.41,0.31-.76.48-1.6,0.75-2.41,0.54-1.62,1-3.22,1.58-4.82a8.89,8.89,0,0,0,.67-2.41l-0.17-.11c1.82-3,2.58-6.7,3.79-9.91,0.77-2,2.52-4.74,3.61-7.44-0.54.54-1.08,1.08-1.57,1.67-2.09,2.52-4.5,4.73-6.77,7.08-1.92,2-3.91,3.88-5.91,5.84,0,0.3,0,.61,0,0.92a3.42,3.42,0,0,1-1,2.8q-1.45,1.4-2.93,2.79c-1.38,1.29-2.78,2.57-4.17,3.86l-8.18,7.63c-0.5.47-1,1-1.51,1.41a38.89,38.89,0,0,0-4.45,4c-1,1.08-2.07,2.14-3.17,3.14s-2,1.8-3,2.71a4.09,4.09,0,0,0-.53.67,3.22,3.22,0,0,1-3.92,1.25c-1.39-.43-1.9-2.15-1.74-3.3,0-.17.07-0.33,0.1-0.48a4.37,4.37,0,0,1-1.92-1.87,5.42,5.42,0,0,0-.73-1l-1.13-1.36c-0.9.18-1.52,1-2.55,0.85a1.07,1.07,0,0,1-.43-1.26l1-1.38-0.62-.55a0.49,0.49,0,0,0-.2-0.15c-0.85-.06-1.09-0.82-1.54-1.3a0.69,0.69,0,0,1,0-.3,16.18,16.18,0,0,0,1.77-3,21.3,21.3,0,0,1,2.05-3,73.28,73.28,0,0,1,7.14-7.92c1.16-1.11,2.4-2.14,3.61-3.19,1-.86,2-1.71,3-2.57a1.22,1.22,0,0,0,.32-0.39,4,4,0,0,1,.91-1.23,3.47,3.47,0,0,0,.57-0.95,21.85,21.85,0,0,1,3.69-4.94,1.09,1.09,0,0,1,1.3-.39l2-1.8-0.34-.35c1-.39,1.92-0.77,2.94-0.22a0.9,0.9,0,0,0,.83,0,2,2,0,0,1,1.17-.11c0.85,0.14,1.7-.13,2.62,0,0.86,0.48,1.81,1,1.45,2.37l1.11,0.83,0.56-.28,1.36,1.87,1.24-.47,1,0.83a2.75,2.75,0,0,1-.27,2L534.76,87l1.32-1.22c0.19-.18.36-0.37,0.55-0.55l8.85-8.92a1.53,1.53,0,0,1,1.08-.65l5-4.91a5,5,0,0,0-.22-1.25,3.39,3.39,0,0,0-1.3-1.91,1.38,1.38,0,0,0,.05-0.17,9.44,9.44,0,0,1-1.92-.66c0.51-4.14,1.78-8.61,2.08-13.06a29.48,29.48,0,0,0-.34-3.74c0-1.18.43-2.4,0.42-3.58s-0.51-2.18-.42-3.24,0.88-2.08.92-3.16a9.32,9.32,0,0,0-.25-1.33,10.65,10.65,0,0,1,.09-2.08,13.89,13.89,0,0,1,.25-1.91c0.13-.48.63-0.94,0.75-1.5a16.89,16.89,0,0,0,0-2.41A17,17,0,0,1,555,21.87,8.38,8.38,0,0,1,557.61,19a4.71,4.71,0,0,0,1.83-.84c0.42-.48.32-1.26,0.75-1.74s0.84-.22,1.17-0.83a11.88,11.88,0,0,1-2.08-3.24,9.45,9.45,0,0,1-1-2,12.48,12.48,0,0,1,.25-4.91,8.69,8.69,0,0,1,1.16-1.75,6.1,6.1,0,0,1,1.41-1.5,11.81,11.81,0,0,1,4.16-.75,6.12,6.12,0,0,1,2.58.42,15.31,15.31,0,0,1,1.58.42,4.88,4.88,0,0,1,1.24,1.5,14.57,14.57,0,0,0-.41,2,8.12,8.12,0,0,0,.83,2.08,1.83,1.83,0,0,0,.75,2.24,2.67,2.67,0,0,1,.91,1c0,0.5-.86.76-1,1.33-0.09.37,0.11,1,0,1.58a8.77,8.77,0,0,0-.25.91,5.56,5.56,0,0,1,.17,1.16c-0.69,1.09-2.6,1-3.66,1.66,0.18,1.42-1.12,2.31-.58,3.33,0.11,0.21.28,0.19,0.25,0.17a5.51,5.51,0,0,1,1.17,1.83c0.24,0.44.59,0.77,0.75,1.16,0.3,0.75.2,1.69,0.58,2.58,0.21,0.5.65,0.75,0.91,1.25,0.57,1.1.83,2.46,1.33,3.66a59.55,59.55,0,0,1,2.91,9,16.34,16.34,0,0,0,.41,2c0.1,0.23.41,0.6,0.58,0.91s0.35,0.81.5,1c0.56,0.7,1.86,1.1,2.74,1.66a13.47,13.47,0,0,1,1.16,1c0.45,0.37,1,.61,1.33.91a23.86,23.86,0,0,0,2.08,2.16c0.6,0.36,1.23.37,1.75,0.75,0,0.42.62,0.67,0.66,1.16,0,0.23-.27.62-0.34,1.08,0,0.28,0,.63,0,0.84a2.75,2.75,0,0,1-.91,1.41A2.63,2.63,0,0,1,584,54.8a4.63,4.63,0,0,0-.92-1.25c-0.81.29-.77,0.95-1.67,1-1.32.06-2-1.58-3.24-1.75a10.8,10.8,0,0,0,.25,3.66c0.31,2.49.86,4.62,1.33,7.15,0.21,1.13.73,2.92,0.25,3.74-0.7,1.17-3.41.24-5,.67a15.47,15.47,0,0,0-.34,4.9c0,0.64,0,1.28.08,1.84,0.05,0.37.26,0.72,0.33,1.08s0.12,0.85.17,1.25c0.29,2.58.84,5.16,1,7.65a11.45,11.45,0,0,0,0,1.66c0.11,0.48.7,0.89,0.67,1.58S576,89.11,576,89.89c0,1,1.13,2.27,1.33,3.66,0.07,0.52-.1,1.07,0,1.66a19.74,19.74,0,0,0,1.08,2.5c0.4,1.09.38,2.15,0.75,2.83a4.82,4.82,0,0,0,1.25,1.08c1.84,1.6,2.09,5,3.08,7.49a21,21,0,0,1,.75,2,8.71,8.71,0,0,0,.17,1,5.94,5.94,0,0,0,1.41,1.58,13.85,13.85,0,0,0,3.74,2.33,7.94,7.94,0,0,0,2.41.66c1,0.07,1.61-.4,2.41-0.16C594.62,116.58,595.69,117.26,595.61,117.92Z" transform="translate(0.33 -1)"/><path class="cls-2" d="M548.55,8.83c0.12-.87-0.34-1.94.15-2.91,0.24-.39.49-0.78,0.73-1.18-0.47-1.42-4.8-3.35-7-3.74l-2.4.11a6.4,6.4,0,0,0-4.71,4c-0.74,1.75.24,4.61-.13,6.18a1.41,1.41,0,0,1,0,.93,6.86,6.86,0,0,0,1.25,3.2c-0.21,2.37-2.52,4.18-3.38,5.64-0.51.85-.68,2.09-1.25,3.19s-1.64,2-1.87,2.9c-0.9,3.36,0,6-.74,9.06a10.64,10.64,0,0,0-.1,1.5,7.82,7.82,0,0,1,0,1.61,8.9,8.9,0,0,1-.09,1.77c0.14,4.07-1.38,5.54-1.87,8.71-0.56,3.62.12,7.42-.94,9.88a9.82,9.82,0,0,1-2.57,3.19,4,4,0,0,0-1.32-1.49l0.12,0c1.58-3.23,2.21-9.88,2.48-14,0.21-3.29,1.56-6.68.92-10-0.16-.84-0.8-1.46-0.92-2.3-0.22-1.53.34-3.26,0-4.86s-2-3.21-3.07-4.87c-2-3-4.21-5.29-1.91-7.5a2.83,2.83,0,0,0,.77.2c2.1,0.12,1-2.76,1.72-3.07,0-.84.14-0.55,0.5-1.15a1,1,0,0,1-.07-0.9c0.57-.33,1.17-0.07,1.41-0.85-0.28-.69-0.57-1.39-0.86-2.08-0.06-.6.35-0.78,0.4-1.41,0.07-.86-0.44-1.9,0-2.87,0.22-.39.44-0.79,0.65-1.19-0.53-1.38-4.9-3.07-7.12-3.34l-2.36.22a6.23,6.23,0,0,0-4.41,4.18c-0.63,1.76.49,4.53,0.22,6.08a1.4,1.4,0,0,1,.08.92,7.88,7.88,0,0,0,.87,2.35,14.74,14.74,0,0,1-1.23,4.7c-0.3.68-1.21,1.09-1.54,1.71-0.48.92-.42,2.31-0.92,3.44-0.65,1.48-1.66,2.53-1.84,3.72-1.16,7.75,1.7,17.47,3.18,22.13a2.65,2.65,0,0,1,.06.32c-0.82,1.47-2.48,2.75-3.25,4.47a10.33,10.33,0,0,0-.56,1.53,8.07,8.07,0,0,0-1.09-.14c-2.08-3.84-2.73-3.26-2.19-4.65,1-5.85,1.31-12.88-.62-18,1.61-3.6-.88-6.48-2.81-9-1.35-1.78-3.81-3.7-2.43-6.27a3.17,3.17,0,0,0,.91.17c2.13-.06.69-2.86,1.43-3.24-0.11-.84.09-0.57,0.4-1.2a1.05,1.05,0,0,1-.17-0.91c0.54-.38,1.18-0.17,1.35-1l-1.08-2c-0.12-.6.28-0.81,0.27-1.46,0-.87-0.63-1.88-0.29-2.9l0.54-1.26c-0.67-1.34-5.25-2.68-7.52-2.78l-2.36.42a6.2,6.2,0,0,0-4.05,4.59c-0.47,1.83.94,4.53,0.8,6.13a1.45,1.45,0,0,1,.18.92,7.26,7.26,0,0,0,1.52,2.8,6.61,6.61,0,0,1-.42,2.19c-0.92,2.44-2.63,5-3.74,7.55-2,4.58-.18,9.72-0.62,15.39-0.2,2.52-.94,4.93-1.18,7.24-0.91-.26-1.87-0.51-2.94-0.79,0.33-3.71,1-8.41.42-11.39a27.74,27.74,0,0,1-.94-2.61c-0.11-.81.18-2,0-2.9a11.23,11.23,0,0,0-3.12-5.23,10.39,10.39,0,0,1-.62-1.16c-1.65-2.19-3.41-4.28-.94-6.1,0,0,.59-0.43,1-0.68a8.33,8.33,0,0,0,1.34.21c2.12-.14.57-2.89,1.29-3.3-0.15-.84.06-0.57,0.34-1.22a1,1,0,0,1-.2-0.9c0.52-.4,1.17-0.22,1.3-1l-1.16-2c-0.14-.6.25-0.82,0.21-1.47-0.05-.87-0.71-1.85-0.42-2.89l0.49-1.28c-0.73-1.32-5.37-2.49-7.64-2.5l-2.34.51a6.17,6.17,0,0,0-3.85,4.74c-0.39,1.84,1.13,4.49,1.07,6.1a1.44,1.44,0,0,1,.22.91,10,10,0,0,0,.47,1.11c0.22,2.48-1.63,4.43-2.41,6-1.7,3.35-3.52,8.33-3.74,12.2-0.08,1.4.48,3,.31,4.06s-1.23,1.92-1.55,2.91-0.57,2.69-.94,4.07l-0.14.57a4.11,4.11,0,0,1-1.73-1.77c-0.34-1.22.67-2.79,0.62-4.06-0.08-2.58-2-5.26-1.16-7.84,0-.4-0.08-0.81-0.13-1.21a52.73,52.73,0,0,0-4.62-7.19c-1.3-1.55-1.93-3.37-.07-5.15,0,0,.06-0.17.09-0.27a3.55,3.55,0,0,0,.89.3c2.12,0.22,1.11-2.74,1.91-3,0-.85.16-0.55,0.57-1.14a1,1,0,0,1,0-.92c0.6-.31,1.2,0,1.48-0.79-0.25-.72-0.51-1.43-0.76-2.15,0-.61.4-0.77,0.49-1.41,0.12-.87-0.34-1.94.14-2.91l0.73-1.18c-0.47-1.42-4.79-3.34-7-3.74l-2.4.11a6.41,6.41,0,0,0-4.7,4c-0.75,1.75.24,4.61-.12,6.17a1.43,1.43,0,0,1,0,.93,6.82,6.82,0,0,0,1.25,3.2c-0.21,2.37-2.51,4.18-3.37,5.63-0.51.85-.68,2.09-1.25,3.19s-1.64,2-1.87,2.9c-0.9,3.36,0,6-.74,9a10.87,10.87,0,0,0-.1,1.5,7.33,7.33,0,0,1,0,1.61,8.77,8.77,0,0,1-.09,1.77c0.14,4.07-1.38,5.53-1.87,8.71-0.56,3.61.12,7.41-.94,9.87a9.83,9.83,0,0,1-2.57,3.19,3.92,3.92,0,0,0-1.32-1.48l0.12,0c1.58-3.22,2.21-9.87,2.48-14,0.21-3.29,1.56-6.67.92-10-0.15-.83-0.81-1.46-0.92-2.29-0.22-1.53.34-3.26,0-4.86s-2-3.21-3.07-4.86c-2-3-4.2-5.29-1.91-7.49a2.69,2.69,0,0,0,.76.2c2.09,0.12,1-2.76,1.72-3.07,0-.84.13-0.55,0.49-1.15a1,1,0,0,1-.07-0.9c0.57-.32,1.18-0.07,1.41-0.84-0.28-.7-0.57-1.39-0.86-2.08-0.06-.6.35-0.78,0.4-1.41,0.07-.86-0.44-1.9,0-2.87,0.22-.39.44-0.79,0.65-1.19-0.53-1.38-4.9-3.06-7.12-3.34l-2.36.22a6.23,6.23,0,0,0-4.41,4.18c-0.63,1.75.49,4.52,0.22,6.07a1.43,1.43,0,0,1,.09.92,7.73,7.73,0,0,0,.87,2.34,14.69,14.69,0,0,1-1.23,4.7c-0.3.68-1.21,1.09-1.54,1.71-0.48.91-.42,2.31-0.92,3.43-0.65,1.48-1.66,2.53-1.84,3.72-1.16,7.75,1.7,17.46,3.18,22.11a2.08,2.08,0,0,1,.06.32c-0.81,1.47-2.47,2.75-3.24,4.46a10.17,10.17,0,0,0-.55,1.53,8.56,8.56,0,0,0-1.09-.14c-2.08-3.83-2.73-3.25-2.18-4.64,1-5.84,1.31-12.87-.62-18,1.61-3.59-.88-6.47-2.8-9-1.35-1.77-3.81-3.7-2.42-6.26a3.41,3.41,0,0,0,.91.17c2.13-.05.69-2.86,1.44-3.24-0.11-.84.08-0.56,0.39-1.2a1,1,0,0,1-.16-0.91c0.54-.38,1.18-0.17,1.34-1l-1.07-2c-0.12-.6.28-0.81,0.27-1.46,0-.87-0.63-1.88-0.29-2.9,0.18-.42.36-0.84,0.54-1.26-0.67-1.34-5.25-2.68-7.52-2.78l-2.36.42a6.21,6.21,0,0,0-4.05,4.59c-0.47,1.83.94,4.53,0.8,6.13a1.4,1.4,0,0,1,.18.92,7.33,7.33,0,0,0,1.52,2.8,6.63,6.63,0,0,1-.41,2.18c-0.92,2.43-2.63,5-3.74,7.54-2,4.58-.18,9.71-0.62,15.38-0.2,2.51-.95,4.92-1.18,7.23-0.91-.27-1.86-0.51-2.94-0.79,0.33-3.71,1-8.4.42-11.37-0.18-.85-0.81-1.65-0.94-2.61-0.11-.81.18-2,0-2.9a11.23,11.23,0,0,0-3.12-5.22,9.94,9.94,0,0,1-.62-1.16c-1.65-2.19-3.41-4.28-.94-6.1,0,0,.59-0.43,1-0.67a8.43,8.43,0,0,0,1.34.21c2.12-.14.57-2.89,1.3-3.29-0.15-.84.06-0.57,0.34-1.22a1,1,0,0,1-.2-0.9c0.52-.4,1.16-0.22,1.3-1-0.38-.66-0.77-1.33-1.16-2-0.14-.6.25-0.83,0.21-1.47-0.05-.87-0.71-1.85-0.42-2.89,0.16-.43.33-0.85,0.49-1.28-0.73-1.32-5.36-2.48-7.63-2.5l-2.34.51a6.16,6.16,0,0,0-3.85,4.74c-0.39,1.84,1.13,4.49,1.07,6.09a1.4,1.4,0,0,1,.22.91,9.92,9.92,0,0,0,.48,1.11c0.23,2.48-1.63,4.43-2.41,6-1.69,3.35-3.51,8.32-3.74,12.19-0.08,1.4.48,3,.31,4.06s-1.23,1.91-1.56,2.9-0.57,2.68-.94,4.06c-0.78,2.91-1.26,5.41-1.87,8.71-0.32,1.76-1.65,5.45-1.65,6.7,0,1,1.24,0,1,.85-0.41,1.64-3,3.86-3.79,6.1a3.22,3.22,0,0,0-1.39,2.17A3.8,3.8,0,0,0,356.18,71c-3.16-.27-5.88-1.17-9.42-0.91-0.89,4.9-1.59,9.72-2.33,14.68a14.54,14.54,0,0,0-.37,5.12c1.73,0.84,3.94.82,6,1.07s4.36,0.57,6.56.88a39.88,39.88,0,0,0-5.23,7.55c-0.39.62-2.52,5.62-3.11,6.48-0.1.15,0.92,0.5,0.83,0.64a11.82,11.82,0,0,0-.83,1.54c-1.25,2.26-3.8,3.57-2.59,6.44,2.23,1.47,7.9,1.71,7.62,4.23,0.05,0.19.1,0.39,0.14,0.6a0.83,0.83,0,0,0,.44.58,1.12,1.12,0,0,1,.29,0c1.75,0.17,3.51.26,5.27,0.47a4.79,4.79,0,0,0,2.37,0,2.35,2.35,0,0,0,.2-0.84h0c-0.32-1.81-2.1-1.5-3.8-2.18-1-2.39-4.31-5.36-3.84-8.19,0.15-.9,1.35.27,1.35,0.27a14.21,14.21,0,0,1,2.83-3.88c0.94-1,.9-3.05,2.15-4.17s2.12-2.62,3.31-2.89c0.44-.5.89-1,1.31-1.51a18.46,18.46,0,0,1,1.86-3.54c0.43,0,.85.08,1.25,0.09s0.65-.11,1-0.1c1.56,0,3.9,1.24,5-.5,0.45-.69.56-2.52,0.67-3.85l7.6,3c1,0.39,2.05.87,3.07,1.31a7.15,7.15,0,0,0-2.08,3.09,22,22,0,0,0-4.24,2.32c-0.35.28,0.37,0.91-.12,1.16-1.88,1-4.86.89-5.3,2.9-0.48,2.19,2.2,4.42,3.12,6.67,1,2.53,1,4.65,3.11,5.8h4.05a2.65,2.65,0,0,0-.36-1.89c0.63-.18,1.14-0.68,1.8-0.81L387,114a5.4,5.4,0,0,1,.73,1,4.37,4.37,0,0,0,1.92,1.87c0,0.15-.08.32-0.1,0.48-0.15,1.15.35,2.87,1.74,3.3a3.21,3.21,0,0,0,3.7-1l0.42,0.29c3.52,0,7,.09,10.55.07h0.3a20.15,20.15,0,0,0,2.86-.74c0,0.09.08,0.18,0.1,0.27a4.47,4.47,0,0,0,1.11.55c5.26,0,10.66-.07,16.08-0.14a1.39,1.39,0,0,0,.13-0.58,1.3,1.3,0,0,0-.05-0.22h0a2.87,2.87,0,0,0-.5-0.87,0.75,0.75,0,0,1,.67.53l0.24,0.22,1.13,0.33a10.86,10.86,0,0,0,1.84.38h0.93a2,2,0,0,0,.29.13,3.25,3.25,0,0,0,3.25-.52c0.27-.09.54-0.18,0.8-0.29l0.17-.2h0c0.16-.49.4-0.81,0.47-1.1l0.81-.73c1.8-.13,3.22.1,3.8,1.53h0l0,0.06a2.26,2.26,0,0,1,.12.2l0.27,0.12c0.72,0.38,1.05.78,1.48,1a2.45,2.45,0,0,0,.71-0.1h0.18a1.67,1.67,0,0,1,.29-0.05l0.15,0a5.56,5.56,0,0,0,.77-0.21l0.56-.23a4.44,4.44,0,0,0,.58-0.34l0.21-.15,0.09-.06,0.17-.14h0a0.62,0.62,0,0,1,.28-0.41,1.39,1.39,0,0,1,.12.74c0.05,0.19.1,0.39,0.14,0.6a0.84,0.84,0,0,0,.44.58,1.1,1.1,0,0,1,.29,0c1.75,0.18,3.51.27,5.27,0.47a4.82,4.82,0,0,0,2.37,0,2.45,2.45,0,0,0,.2-0.84h0c-0.33-1.81-2.1-1.5-3.8-2.18-1-2.39-4.31-5.36-3.84-8.19,0.15-.9,1.36.27,1.36,0.27a14.36,14.36,0,0,1,2.84-3.88c0.94-1,.9-3.06,2.16-4.17s2.11-2.61,3.31-2.89l0.43-.49A30.13,30.13,0,0,1,459,104c0.4,3.93-1,7.39,0,11,2.24,2.08,5.06-.67,8.1-1.16l0.47-.06a4.48,4.48,0,0,0,1.82,1.71c0,0.15-.08.32-0.1,0.48-0.15,1.15.35,2.87,1.74,3.3a3.22,3.22,0,0,0,3.92-1.25,4.1,4.1,0,0,1,.53-0.67c1-.91,2-1.8,3-2.71s2.14-2.06,3.17-3.14,1.85-1.82,2.83-2.67c0.27,0.9.53,1.79,0.79,2.67,0.19,0.66,1.1,1.2,1.2,1.87,0.27,1.89-.36,4,0.89,5.75l0.34,0.4,0.68,0.47c3.36,0,6.69.08,10.06,0.07a7.46,7.46,0,0,1-.27-1.26,7.29,7.29,0,0,1-1.21-1.54,5.18,5.18,0,0,1-1.11.12,5.24,5.24,0,0,1-1-.09,3.63,3.63,0,0,1-.85-0.27c-1-.49-2.77-1.76-2.52-4.85v-0.11c-0.14-.17-0.24-0.32-0.33-0.44l-0.07-.1a3.63,3.63,0,0,1-.94-2.61,3.76,3.76,0,0,1,.91-2.49,3.38,3.38,0,0,0,.29-0.42c-0.2-1-.39-2-0.53-2.94l4.94-4.6,2-1.85c0,0.1,0,.19.07,0.29q1-1.19,2.13-2.32,1.46-1.37,2.9-2.76a3.49,3.49,0,0,0,.35-0.42c0.65-.59,1.31-1.16,1.95-1.71L506,89l1.74-1.48,1-.82a7.65,7.65,0,0,1,1.12-1.49l0.13-.26a25.56,25.56,0,0,1,4.28-5.77,5.08,5.08,0,0,1,2.19-1.41,3.66,3.66,0,0,1,2-2,8.4,8.4,0,0,1,3.19-.74,5.82,5.82,0,0,1,1.6.22,5.6,5.6,0,0,1,1-.1,6.17,6.17,0,0,1,1,.08l0.48,0c0.32,0,.72-0.06,1.17-0.06a7.7,7.7,0,0,1,.77,0,3.63,3.63,0,0,1,1.41.44l0.07,0a6.51,6.51,0,0,1,2.84,2.77,3.62,3.62,0,0,1,1.3,1.05,3.63,3.63,0,0,1,2,.78L536,80.7l0.34-.34,2.83-2.86a5.18,5.18,0,0,0,1.1-3.28c-0.23-1.86.63-1.61,2.32-.17l0.35-.36,0.05-.05a5.75,5.75,0,0,1,1.71-1.27l0.27-.27,2-2a5.39,5.39,0,0,1-.87-0.49,3.63,3.63,0,0,1-1.51-3.41c0.23-1.86.6-3.75,1-5.59a60.62,60.62,0,0,0,1.11-7.27,6.69,6.69,0,0,0-.14-1.52,13.42,13.42,0,0,1-.21-1.9,12.61,12.61,0,0,1,.27-2.54,7.6,7.6,0,0,0,.15-1.09,5.81,5.81,0,0,0-.14-0.78,9.17,9.17,0,0,1-.27-2.8A8.58,8.58,0,0,1,547,40.2l0.13-.33a6.06,6.06,0,0,1-.18-1,13.93,13.93,0,0,1,.1-2.8c0-.14,0-0.28,0-0.42a11.46,11.46,0,0,1,.31-2,5.54,5.54,0,0,1,.68-1.51c0-.09,0-0.19,0-0.27a10.23,10.23,0,0,1,0-1.41c0-.26.06-0.51,0.08-0.77a46.29,46.29,0,0,0-4.11-6.3c-1.3-1.55-1.93-3.37-.07-5.15,0,0,.06-0.17.09-0.27a3.51,3.51,0,0,0,.9.29c2.12,0.22,1.12-2.75,1.91-3,0-.85.17-0.56,0.57-1.14a1,1,0,0,1,0-.92c0.59-.3,1.2,0,1.48-0.79l-0.76-2.15C548,9.63,548.46,9.47,548.55,8.83ZM357,70a1,1,0,0,1,1.34.32A0.88,0.88,0,0,1,357,70Zm1.6,0.69-0.29-1.29,0.36-.4a3.09,3.09,0,0,0,.8,1.43,2.28,2.28,0,0,0,.72.5A12.55,12.55,0,0,1,358.62,70.64ZM364.3,71a4,4,0,0,0,1.38-2.13,16.54,16.54,0,0,1,.38,2.27C365.48,71.11,364.89,71.07,364.3,71Zm3.47-.31a5.33,5.33,0,0,0-1.91-2.82c0.16-1.72-.26-3.71-0.13-5.65,0-.4,1.05-0.17,1.12-0.54a35.4,35.4,0,0,1,2.15-7.6,32.08,32.08,0,0,0-1.09,7.56c0.08,1,1.17,2,1.25,3.19S368.31,68.45,367.77,70.73Zm69.12-6.44a12.7,12.7,0,0,0,.47-1.61c0.07,0.79.13,1.62,0.16,2.48a15,15,0,0,0-1.68,6.05,1.86,1.86,0,0,0-.56-0.27,5,5,0,0,0-.87-2.19A19.68,19.68,0,0,0,436.88,64.29Zm-3.05,5.16a4,4,0,0,1-.1,1.23l-1.16-.07A7.61,7.61,0,0,0,433.83,69.45Zm-18.5-4c0,0.2,0,.41.08,0.62l-0.16,0q-1,2.07-2,4.12L411.7,70c-0.77-3.46-2.51-6.2-2.4-9.45C410,63,412.34,65.69,415.33,65.41Zm-19.74,2.94c0.47,1.77.21,3.56,0.38,5.45l-2.27-.93a5.21,5.21,0,0,0-1.28-4.25c0-.09,0-0.18.05-0.28a22.12,22.12,0,0,0-.28-6C393.2,64.61,395.05,66.34,395.59,68.35Zm-3.44,1.23a10,10,0,0,1-.19,2.49c-0.33-.12-0.68-0.24-1-0.34,0-.07,0-0.14-0.06-0.2A5.65,5.65,0,0,0,392.15,69.58Zm-6.71-15.87c1.33,0.27,2.68.56,4,1,0.18,3.09.43,6-.41,8.46-0.36.37-.76,0.71-1.16,1C386.18,60.7,384.47,57,385.44,53.71Zm-1,50a15.34,15.34,0,0,0-1.16,1.8l-0.25.49a18.43,18.43,0,0,1,.36-2C383.67,103.12,384.13,103.36,384.49,103.75Zm-1.37,7.84a11.75,11.75,0,0,1-.19-1.45l0.13,0a0.49,0.49,0,0,1,.2.15l0.62,0.55-0.7.93C383.17,111.73,383.14,111.66,383.13,111.59ZM408.85,117a20.55,20.55,0,0,1-7.64-3.51l0.64-.66a39.08,39.08,0,0,1,3.83-3.51,32.22,32.22,0,0,1,2.15,3.92,1.44,1.44,0,0,1,.17.2l1.05,0.53C409,115,408.85,116,408.85,117Zm10.46-1.82a11.79,11.79,0,0,1-4.4-4.19c-1.51-2.68-1.56-5.8-1.42-8.88l2.5-2.33,2.17-2c-0.45,3.82,1.73,8.12,2,10.49S419.77,113,419.31,115.2Zm11.24-19.53c-1.65,1.69-3.21,3.48-4.69,5.32a61.22,61.22,0,0,0,1.51-7.77,16.46,16.46,0,0,0,2.08.78c0.32,0.09.66,0,1,.14l0.19,0.07C430.57,94.68,430.55,95.17,430.55,95.67Zm25-34.51s0,0.09-.05.13l-0.47-.51C455.38,60.78,455.7,60.7,455.59,61.16Zm0.62-7.55c-0.32,1.74-1.6,5.33-1.65,6.63-0.48-.53-1-1.06-1.4-1.6h0c0.63-1.06.81-4.93,1.47-6a10.2,10.2,0,0,1,1.67.36Zm5.19,14.85a16.8,16.8,0,0,0-2.64-3.71,18,18,0,0,1-.05-2.43c0-.4,1.05-0.17,1.12-0.54a37.88,37.88,0,0,1,1.92-7h0.1a29.63,29.63,0,0,0-1,7c0.08,1,1.18,2,1.25,3.2A12.77,12.77,0,0,1,461.4,68.45Zm10.92,24.92a73.3,73.3,0,0,0-7.14,7.92l-0.17.22c0.16-2.41.62-5,.91-7.53a2,2,0,0,0,1.56-.91c0.45-.69.57-2.52,0.68-3.86l6.13,2.38C473.62,92.18,473,92.77,472.31,93.37Zm9.74-30.19c-0.37.37-.77,0.71-1.17,1-1.71-3.47-3.41-7.2-2.44-10.47,1.34,0.27,2.68.56,4,1C482.63,57.8,482.88,60.69,482.05,63.19ZM485,72.13c-0.34-.12-0.68-0.24-1-0.34,0-.07,0-0.13-0.06-0.2a5.61,5.61,0,0,0,1.28-1.95A9.93,9.93,0,0,1,485,72.13Zm1.73,0.8a5.18,5.18,0,0,0-1.27-4.25c0-.09,0-0.18.05-0.28a22,22,0,0,0-.28-6c1,2.25,2.87,4,3.41,6,0.47,1.77.21,3.56,0.38,5.45Zm21.58-6.88q-1,2.07-2,4.13L504.73,70c-0.78-3.47-2.51-6.21-2.4-9.46,0.69,2.51,3,5.17,6,4.89,0,0.21,0,.41.08,0.62Zm18.49,4.69-1.16-.07a7.71,7.71,0,0,0,1.26-1.16A4,4,0,0,1,526.77,70.75Zm2.11,0.53a1.83,1.83,0,0,0-.56-0.27,5,5,0,0,0-.87-2.2,19.54,19.54,0,0,0,2.49-4.47,12.07,12.07,0,0,0,.47-1.61c0.07,0.79.13,1.62,0.16,2.48A15,15,0,0,0,528.88,71.28Z" transform="translate(0.33 -1)"/><polygon class="cls-1" points="344.26 184.79 400.71 184.79 400.71 173.5 355.55 173.5 355.55 162.21 400.71 162.21 400.71 150.92 355.55 150.92 355.55 142.45 400.71 142.45 400.71 131.16 344.26 131.16 344.26 184.79"/><polygon class="cls-1" points="595.45 142.45 595.45 131.16 539 131.16 539 184.79 595.45 184.79 595.45 173.5 550.29 173.5 550.29 162.21 595.45 162.21 595.45 150.92 550.29 150.92 550.29 142.45 595.45 142.45"/><polygon class="cls-1" points="194.68 184.79 251.13 184.79 251.13 173.5 205.97 173.5 205.97 162.21 251.13 162.21 251.13 150.92 205.97 150.92 205.97 142.45 251.13 142.45 251.13 131.16 194.68 131.16 194.68 184.79"/><path class="cls-1" d="M259.26,185.8h11.29V163.23H291l11.29,22.58h13.41l-11.29-22.58h11.29v-31H259.26V185.8Zm11.29-42.32h33.87v8.47H270.55v-8.47Z" transform="translate(0.33 -1)"/><polygon class="cls-1" points="474.09 184.79 530.54 184.79 530.54 173.5 485.38 173.5 485.38 142.45 530.54 142.45 530.54 131.16 474.09 131.16 474.09 184.79"/><polygon class="cls-1" points="454.34 168.56 420.47 131.16 409.18 131.16 409.18 184.75 420.47 184.75 420.47 147.39 454.34 184.79 465.63 184.79 465.63 131.16 454.34 131.16 454.34 168.56"/><rect class="cls-1" x="324.51" y="131.16" width="11.29" height="53.64"/><path class="cls-1" d="M129.44,197.16h11.37l-0.08-34h45.16v-31H129.44v65Zm11.29-53.71H174.6v8.47H140.73v-8.47Z" transform="translate(0.33 -1)"/><polygon class="cls-1" points="380.96 43.36 335.8 43.36 335.8 32.07 380.96 32.07 380.96 20.78 335.8 20.78 335.8 12.31 380.96 12.31 380.96 1.02 324.51 1.02 324.51 54.65 380.96 54.65 380.96 43.36"/><path class="cls-1" d="M259.26,67.19v53.63h56.45V109.52H270.55V98.23h45.16V86.95H270.55V78.48h45.16V67.19H270.55V33.09H291l11.29,22.58h13.4L304.42,33.09h11.29V2H259.26V67.19Zm11.29-53.86h33.87V21.8H270.55V13.33Z" transform="translate(0.33 -1)"/><polygon class="cls-1" points="152.35 54.64 163.64 54.64 163.64 12.33 205.99 12.33 205.99 1.04 129.77 1.04 129.77 12.33 152.35 12.33 152.35 54.64"/><polygon class="cls-1" points="110.02 43.38 76.15 43.38 76.15 1.04 64.86 1.04 64.86 54.67 121.31 54.67 121.31 1.04 110.02 1.04 110.02 43.38"/><polygon class="cls-1" points="239.84 43.38 205.97 43.38 205.97 20.79 194.68 20.79 194.68 54.67 251.13 54.67 251.13 1.04 239.84 1.04 239.84 43.38"/><polygon class="cls-1" points="11.29 32.09 56.45 32.09 56.45 20.8 11.29 20.8 11.29 12.33 56.45 12.33 56.45 1.04 0 1.04 0 54.64 11.29 54.64 11.29 32.09"/><path class="cls-1" d="M64.54,132.16H-0.33v53.63H56.12V174.5H11V163.21H56.12V151.92H11v-8.47h59.8L83.69,159,61.37,185.79H75.5l15.62-18.7,15.62,18.7h14.14L98.57,159l22.32-26.81H106.75L91.13,150.51l-15.3-18V98.26H96.28l11.29,22.58H121L109.69,98.26H121v-31H64.53v64.95ZM75.82,78.5h33.87V87H75.82V78.5Z" transform="translate(0.33 -1)"/><polygon class="cls-1" points="380.94 108.53 335.8 108.53 335.8 66.19 324.51 66.19 324.51 119.81 380.94 119.81 380.94 108.53"/><path class="cls-1" d="M129.44,120.81h11.29V98.23H174.6v22.58h11.29V67.19H129.44v53.63Zm11.29-42.34H174.6v8.47H140.73V78.48Z" transform="translate(0.33 -1)"/><polygon class="cls-1" points="33.87 119.79 33.87 77.5 56.45 77.5 56.45 66.21 0 66.21 0 77.5 22.58 77.5 22.58 119.79 33.87 119.79"/><polygon class="cls-1" points="222.91 106.41 205.97 66.19 194.68 66.19 217.26 119.81 228.55 119.81 251.13 66.19 239.84 66.19 222.91 106.41"/><path class="cls-1" d="M546.52,75.61a0.76,0.76,0,0,0-.16,0,0.77,0.77,0,0,1,.2,0h0Z" transform="translate(0.33 -1)"/><path class="cls-1" d="M521.68,78.62h0Z" transform="translate(0.33 -1)"/><path class="cls-1" d="M517.79,81.18a0.89,0.89,0,0,0-.29.05,0.89,0.89,0,0,1,.3,0h0Z" transform="translate(0.33 -1)"/><path class="cls-1" d="M527,78.73h-0.15a4.32,4.32,0,0,1,.56,0Z" transform="translate(0.33 -1)"/><path class="cls-1" d="M534.75,86.94l-0.87-1.05Z" transform="translate(0.33 -1)"/><path class="cls-1" d="M524.33,78.75h0Z" transform="translate(0.33 -1)"/></svg>