<svg id="Layer_1" data-name="Layer 1" xmlns="http://www.w3.org/2000/svg" viewBox="0 0 595.94 196.16"><defs><style>.cls-1{fill:#1e1f1d}</style><linearGradient id="linear-gradient" x1="343.93" y1="60.92" x2="549.42" y2="60.92" gradientUnits="userSpaceOnUse"><stop offset="0" stop-color="#1e1f1d" stop-opacity="0"/><stop offset=".41" stop-color="#1e1f1d" stop-opacity=".13"/><stop offset=".84" stop-color="#1e1f1d" stop-opacity=".53"/><stop offset="1" stop-color="#1e1f1d" stop-opacity=".75"/></linearGradient></defs><path class="cls-1" d="M595.61 117.92c-.06.59-1.6 1.22-2.41 1.58a18 18 0 0 1-5.57 1.42 13.93 13.93 0 0 1-2.74.16c-.64-.06-1.17-.51-1.58-.5s-.59.29-1 .33a14.09 14.09 0 0 1-3-.33c-1-.13-2-.22-2.91-.41a7.59 7.59 0 0 1-.91-5.08c.17-.81.87-1 .83-1.83a2.75 2.75 0 0 0-1-1.41 16 16 0 0 1-1-1.58 30.85 30.85 0 0 1-2-4.65c-.36-1-.85-1.87-1.25-2.83-.82-2-1.58-4-2.24-6a34.49 34.49 0 0 0-2.26-4.7c-1-3.47-2.74-6.69-3.73-10.17v-.24c0-.06-.11-.11-.15-.18a14.78 14.78 0 0 1-1-1.86 34.24 34.24 0 0 0-2.15 3.26c-.52 2-1.24 4-2 5.91a53.4 53.4 0 0 0-3.54 7.41c-1.41 2.05-2.13 4.33-3.49 6.65-.53.91-1.21 1.94-2 3.08-.54.77-1.91 2.12-2.08 3s.21 2.21-.08 3.08c-.17.49-.64.6-.67 1.08a8.35 8.35 0 0 0 .58 1.58 6.14 6.14 0 0 0 2 1.75c1.56.55 3.35-.23 4.57.33a2 2 0 0 1 1 1.41c-.05.46-1.37 1.32-2 1.5a23 23 0 0 1-3.41.34 19.36 19.36 0 0 1-3.74.08c-1.12-.17-1-.78-1.83-1.25-.44-.26-.85-.25-1.33-.5-.41.06-.56.37-1 .41-1.93-.68-4.43-.78-5.9-1.91 0-.46.27-.82.33-1.25s0-.72 0-1.08c.06-.59.29-1.23.41-1.83s.18-1.42.33-2c.39-1.44 1.46-2.68 2-3.91.16-.37.17-.82.33-1.16.61-1.32 1.9-2.15 2.41-3.41.31-.76.48-1.6.75-2.41.54-1.62 1-3.22 1.58-4.82a8.89 8.89 0 0 0 .67-2.41l-.17-.11c1.82-3 2.58-6.7 3.79-9.91.77-2 2.52-4.74 3.61-7.44-.54.54-1.08 1.08-1.57 1.67-2.09 2.52-4.5 4.73-6.77 7.08-1.92 2-3.91 3.88-5.91 5.84v.92a3.42 3.42 0 0 1-1 2.8q-1.45 1.4-2.93 2.79c-1.38 1.29-2.78 2.57-4.17 3.86l-8.18 7.63c-.5.47-1 1-1.51 1.41a38.89 38.89 0 0 0-4.45 4c-1 1.08-2.07 2.14-3.17 3.14s-2 1.8-3 2.71a4.09 4.09 0 0 0-.53.67 3.22 3.22 0 0 1-3.92 1.25c-1.39-.43-1.9-2.15-1.74-3.3 0-.17.07-.33.1-.48a4.37 4.37 0 0 1-1.92-1.87 5.42 5.42 0 0 0-.73-1l-1.13-1.36c-.9.18-1.52 1-2.55.85a1.07 1.07 0 0 1-.43-1.26l1-1.38-.62-.55a.49.49 0 0 0-.2-.15c-.85-.06-1.09-.82-1.54-1.3a.69.69 0 0 1 0-.3 16.18 16.18 0 0 0 1.77-3 21.3 21.3 0 0 1 2.05-3 73.28 73.28 0 0 1 7.14-7.92c1.16-1.11 2.4-2.14 3.61-3.19 1-.86 2-1.71 3-2.57a1.22 1.22 0 0 0 .32-.39 4 4 0 0 1 .91-1.23 3.47 3.47 0 0 0 .57-.95 21.85 21.85 0 0 1 3.69-4.94 1.09 1.09 0 0 1 1.3-.39l2-1.8-.34-.35c1-.39 1.92-.77 2.94-.22a.9.9 0 0 0 .83 0 2 2 0 0 1 1.17-.11c.85.14 1.7-.13 2.62 0 .86.48 1.81 1 1.45 2.37l1.11.83.56-.28 1.36 1.87 1.24-.47 1 .83a2.75 2.75 0 0 1-.27 2l.94 1.13 1.32-1.22c.19-.18.36-.37.55-.55l8.85-8.92a1.53 1.53 0 0 1 1.08-.65l5-4.91a5 5 0 0 0-.22-1.25 3.39 3.39 0 0 0-1.3-1.91 1.38 1.38 0 0 0 .05-.17 9.44 9.44 0 0 1-1.92-.66c.51-4.14 1.78-8.61 2.08-13.06a29.48 29.48 0 0 0-.34-3.74c0-1.18.43-2.4.42-3.58s-.51-2.18-.42-3.24.88-2.08.92-3.16a9.32 9.32 0 0 0-.25-1.33 10.65 10.65 0 0 1 .09-2.08 13.89 13.89 0 0 1 .25-1.91c.13-.48.63-.94.75-1.5a16.89 16.89 0 0 0 0-2.41 17 17 0 0 1 3.33-8.88 8.38 8.38 0 0 1 2.61-2.87 4.71 4.71 0 0 0 1.83-.84c.42-.48.32-1.26.75-1.74s.84-.22 1.17-.83a11.88 11.88 0 0 1-2.08-3.24 9.45 9.45 0 0 1-1-2 12.48 12.48 0 0 1 .25-4.91 8.69 8.69 0 0 1 1.16-1.75 6.1 6.1 0 0 1 1.41-1.5 11.81 11.81 0 0 1 4.16-.75 6.12 6.12 0 0 1 2.58.42 15.31 15.31 0 0 1 1.58.42 4.88 4.88 0 0 1 1.24 1.5 14.57 14.57 0 0 0-.41 2 8.12 8.12 0 0 0 .83 2.08 1.83 1.83 0 0 0 .75 2.24 2.67 2.67 0 0 1 .91 1c0 .5-.86.76-1 1.33-.09.37.11 1 0 1.58a8.77 8.77 0 0 0-.25.91 5.56 5.56 0 0 1 .17 1.16c-.69 1.09-2.6 1-3.66 1.66.18 1.42-1.12 2.31-.58 3.33.11.21.28.19.25.17a5.51 5.51 0 0 1 1.17 1.83c.24.44.59.77.75 1.16.3.75.2 1.69.58 2.58.21.5.65.75.91 1.25.57 1.1.83 2.46 1.33 3.66a59.55 59.55 0 0 1 2.91 9 16.34 16.34 0 0 0 .41 2c.1.23.41.6.58.91s.35.81.5 1c.56.7 1.86 1.1 2.74 1.66a13.47 13.47 0 0 1 1.16 1c.45.37 1 .61 1.33.91a23.86 23.86 0 0 0 2.08 2.16c.6.36 1.23.37 1.75.75 0 .42.62.67.66 1.16 0 .23-.27.62-.34 1.08v.84a2.75 2.75 0 0 1-.91 1.41 2.63 2.63 0 0 1-1.28-.8 4.63 4.63 0 0 0-.92-1.25c-.81.29-.77.95-1.67 1-1.32.06-2-1.58-3.24-1.75a10.8 10.8 0 0 0 .25 3.66c.31 2.49.86 4.62 1.33 7.15.21 1.13.73 2.92.25 3.74-.7 1.17-3.41.24-5 .67a15.47 15.47 0 0 0-.34 4.9c0 .64 0 1.28.08 1.84.05.37.26.72.33 1.08s.12.85.17 1.25c.29 2.58.84 5.16 1 7.65a11.45 11.45 0 0 0 0 1.66c.11.48.7.89.67 1.58s-.91 1.13-.91 1.91c0 1 1.13 2.27 1.33 3.66.07.52-.1 1.07 0 1.66a19.74 19.74 0 0 0 1.08 2.5c.4 1.09.38 2.15.75 2.83a4.82 4.82 0 0 0 1.25 1.08c1.84 1.6 2.09 5 3.08 7.49a21 21 0 0 1 .75 2 8.71 8.71 0 0 0 .17 1 5.94 5.94 0 0 0 1.41 1.58 13.85 13.85 0 0 0 3.74 2.33 7.94 7.94 0 0 0 2.41.66c1 .07 1.61-.4 2.41-.16.24.06 1.31.74 1.23 1.4z" transform="translate(.33 -1)"/><path d="M548.55 8.83c.12-.87-.34-1.94.15-2.91.24-.39.49-.78.73-1.18-.47-1.42-4.8-3.35-7-3.74l-2.4.11a6.4 6.4 0 0 0-4.71 4c-.74 1.75.24 4.61-.13 6.18a1.41 1.41 0 0 1 0 .93 6.86 6.86 0 0 0 1.25 3.2c-.21 2.37-2.52 4.18-3.38 5.64-.51.85-.68 2.09-1.25 3.19s-1.64 2-1.87 2.9c-.9 3.36 0 6-.74 9.06a10.64 10.64 0 0 0-.1 1.5 7.82 7.82 0 0 1 0 1.61 8.9 8.9 0 0 1-.09 1.77c.14 4.07-1.38 5.54-1.87 8.71-.56 3.62.12 7.42-.94 9.88a9.82 9.82 0 0 1-2.57 3.19 4 4 0 0 0-1.32-1.49h.12c1.58-3.23 2.21-9.88 2.48-14 .21-3.29 1.56-6.68.92-10-.16-.84-.8-1.46-.92-2.3-.22-1.53.34-3.26 0-4.86s-2-3.21-3.07-4.87c-2-3-4.21-5.29-1.91-7.5a2.83 2.83 0 0 0 .77.2c2.1.12 1-2.76 1.72-3.07 0-.84.14-.55.5-1.15a1 1 0 0 1-.07-.9c.57-.33 1.17-.07 1.41-.85-.28-.69-.57-1.39-.86-2.08-.06-.6.35-.78.4-1.41.07-.86-.44-1.9 0-2.87.22-.39.44-.79.65-1.19-.53-1.38-4.9-3.07-7.12-3.34l-2.36.22a6.23 6.23 0 0 0-4.41 4.18c-.63 1.76.49 4.53.22 6.08a1.4 1.4 0 0 1 .08.92 7.88 7.88 0 0 0 .87 2.35 14.74 14.74 0 0 1-1.23 4.7c-.3.68-1.21 1.09-1.54 1.71-.48.92-.42 2.31-.92 3.44-.65 1.48-1.66 2.53-1.84 3.72-1.16 7.75 1.7 17.47 3.18 22.13a2.65 2.65 0 0 1 .06.32c-.82 1.47-2.48 2.75-3.25 4.47a10.33 10.33 0 0 0-.56 1.53 8.07 8.07 0 0 0-1.09-.14c-2.08-3.84-2.73-3.26-2.19-4.65 1-5.85 1.31-12.88-.62-18 1.61-3.6-.88-6.48-2.81-9-1.35-1.78-3.81-3.7-2.43-6.27a3.17 3.17 0 0 0 .91.17c2.13-.06.69-2.86 1.43-3.24-.11-.84.09-.57.4-1.2a1.05 1.05 0 0 1-.17-.91c.54-.38 1.18-.17 1.35-1l-1.08-2c-.12-.6.28-.81.27-1.46 0-.87-.63-1.88-.29-2.9l.54-1.26c-.67-1.34-5.25-2.68-7.52-2.78l-2.36.42a6.2 6.2 0 0 0-4.05 4.59c-.47 1.83.94 4.53.8 6.13a1.45 1.45 0 0 1 .18.92 7.26 7.26 0 0 0 1.52 2.8 6.61 6.61 0 0 1-.42 2.19c-.92 2.44-2.63 5-3.74 7.55-2 4.58-.18 9.72-.62 15.39-.2 2.52-.94 4.93-1.18 7.24-.91-.26-1.87-.51-2.94-.79.33-3.71 1-8.41.42-11.39a27.74 27.74 0 0 1-.94-2.61c-.11-.81.18-2 0-2.9a11.23 11.23 0 0 0-3.12-5.23 10.39 10.39 0 0 1-.62-1.16c-1.65-2.19-3.41-4.28-.94-6.1 0 0 .59-.43 1-.68a8.33 8.33 0 0 0 1.34.21c2.12-.14.57-2.89 1.29-3.3-.15-.84.06-.57.34-1.22a1 1 0 0 1-.2-.9c.52-.4 1.17-.22 1.3-1l-1.16-2c-.14-.6.25-.82.21-1.47-.05-.87-.71-1.85-.42-2.89l.49-1.28c-.73-1.32-5.37-2.49-7.64-2.5l-2.34.51a6.17 6.17 0 0 0-3.85 4.74c-.39 1.84 1.13 4.49 1.07 6.1a1.44 1.44 0 0 1 .22.91 10 10 0 0 0 .47 1.11c.22 2.48-1.63 4.43-2.41 6-1.7 3.35-3.52 8.33-3.74 12.2-.08 1.4.48 3 .31 4.06s-1.23 1.92-1.55 2.91-.57 2.69-.94 4.07l-.14.57a4.11 4.11 0 0 1-1.73-1.77c-.34-1.22.67-2.79.62-4.06-.08-2.58-2-5.26-1.16-7.84 0-.4-.08-.81-.13-1.21a52.73 52.73 0 0 0-4.62-7.19c-1.3-1.55-1.93-3.37-.07-5.15 0 0 .06-.17.09-.27a3.55 3.55 0 0 0 .89.3c2.12.22 1.11-2.74 1.91-3 0-.85.16-.55.57-1.14a1 1 0 0 1 0-.92c.6-.31 1.2 0 1.48-.79-.25-.72-.51-1.43-.76-2.15 0-.61.4-.77.49-1.41.12-.87-.34-1.94.14-2.91l.73-1.18c-.47-1.42-4.79-3.34-7-3.74l-2.4.11a6.41 6.41 0 0 0-4.7 4c-.75 1.75.24 4.61-.12 6.17a1.43 1.43 0 0 1 0 .93 6.82 6.82 0 0 0 1.25 3.2c-.21 2.37-2.51 4.18-3.37 5.63-.51.85-.68 2.09-1.25 3.19s-1.64 2-1.87 2.9c-.9 3.36 0 6-.74 9a10.87 10.87 0 0 0-.1 1.5 7.33 7.33 0 0 1 0 1.61 8.77 8.77 0 0 1-.09 1.77c.14 4.07-1.38 5.53-1.87 8.71-.56 3.61.12 7.41-.94 9.87a9.83 9.83 0 0 1-2.57 3.19 3.92 3.92 0 0 0-1.32-1.48h.12c1.58-3.22 2.21-9.87 2.48-14 .21-3.29 1.56-6.67.92-10-.15-.83-.81-1.46-.92-2.29-.22-1.53.34-3.26 0-4.86s-2-3.21-3.07-4.86c-2-3-4.2-5.29-1.91-7.49a2.69 2.69 0 0 0 .76.2c2.09.12 1-2.76 1.72-3.07 0-.84.13-.55.49-1.15a1 1 0 0 1-.07-.9c.57-.32 1.18-.07 1.41-.84-.28-.7-.57-1.39-.86-2.08-.06-.6.35-.78.4-1.41.07-.86-.44-1.9 0-2.87.22-.39.44-.79.65-1.19-.53-1.38-4.9-3.06-7.12-3.34l-2.36.22a6.23 6.23 0 0 0-4.41 4.18c-.63 1.75.49 4.52.22 6.07a1.43 1.43 0 0 1 .09.92 7.73 7.73 0 0 0 .87 2.34 14.69 14.69 0 0 1-1.23 4.7c-.3.68-1.21 1.09-1.54 1.71-.48.91-.42 2.31-.92 3.43-.65 1.48-1.66 2.53-1.84 3.72-1.16 7.75 1.7 17.46 3.18 22.11a2.08 2.08 0 0 1 .06.32c-.81 1.47-2.47 2.75-3.24 4.46a10.17 10.17 0 0 0-.55 1.53 8.56 8.56 0 0 0-1.09-.14c-2.08-3.83-2.73-3.25-2.18-4.64 1-5.84 1.31-12.87-.62-18 1.61-3.59-.88-6.47-2.8-9-1.35-1.77-3.81-3.7-2.42-6.26a3.41 3.41 0 0 0 .91.17c2.13-.05.69-2.86 1.44-3.24-.11-.84.08-.56.39-1.2a1 1 0 0 1-.16-.91c.54-.38 1.18-.17 1.34-1l-1.07-2c-.12-.6.28-.81.27-1.46 0-.87-.63-1.88-.29-2.9l.54-1.26c-.67-1.34-5.25-2.68-7.52-2.78l-2.36.42a6.21 6.21 0 0 0-4.05 4.59c-.47 1.83.94 4.53.8 6.13a1.4 1.4 0 0 1 .18.92 7.33 7.33 0 0 0 1.52 2.8 6.63 6.63 0 0 1-.41 2.18c-.92 2.43-2.63 5-3.74 7.54-2 4.58-.18 9.71-.62 15.38-.2 2.51-.95 4.92-1.18 7.23-.91-.27-1.86-.51-2.94-.79.33-3.71 1-8.4.42-11.37-.18-.85-.81-1.65-.94-2.61-.11-.81.18-2 0-2.9a11.23 11.23 0 0 0-3.12-5.22 9.94 9.94 0 0 1-.62-1.16c-1.65-2.19-3.41-4.28-.94-6.1 0 0 .59-.43 1-.67a8.43 8.43 0 0 0 1.34.21c2.12-.14.57-2.89 1.3-3.29-.15-.84.06-.57.34-1.22a1 1 0 0 1-.2-.9c.52-.4 1.16-.22 1.3-1-.38-.66-.77-1.33-1.16-2-.14-.6.25-.83.21-1.47-.05-.87-.71-1.85-.42-2.89.16-.43.33-.85.49-1.28-.73-1.32-5.36-2.48-7.63-2.5l-2.34.51a6.16 6.16 0 0 0-3.85 4.74c-.39 1.84 1.13 4.49 1.07 6.09a1.4 1.4 0 0 1 .22.91 9.92 9.92 0 0 0 .48 1.11c.23 2.48-1.63 4.43-2.41 6-1.69 3.35-3.51 8.32-3.74 12.19-.08 1.4.48 3 .31 4.06s-1.23 1.91-1.56 2.9-.57 2.68-.94 4.06c-.78 2.91-1.26 5.41-1.87 8.71-.32 1.76-1.65 5.45-1.65 6.7 0 1 1.24 0 1 .85-.41 1.64-3 3.86-3.79 6.1a3.22 3.22 0 0 0-1.39 2.17 3.8 3.8 0 0 0-1.33 1.54c-3.16-.27-5.88-1.17-9.42-.91-.89 4.9-1.59 9.72-2.33 14.68a14.54 14.54 0 0 0-.37 5.12c1.73.84 3.94.82 6 1.07s4.36.57 6.56.88a39.88 39.88 0 0 0-5.23 7.55c-.39.62-2.52 5.62-3.11 6.48-.1.15.92.5.83.64a11.82 11.82 0 0 0-.83 1.54c-1.25 2.26-3.8 3.57-2.59 6.44 2.23 1.47 7.9 1.71 7.62 4.23.05.19.1.39.14.6a.83.83 0 0 0 .44.58 1.12 1.12 0 0 1 .29 0c1.75.17 3.51.26 5.27.47a4.79 4.79 0 0 0 2.37 0 2.35 2.35 0 0 0 .2-.84c-.32-1.81-2.1-1.5-3.8-2.18-1-2.39-4.31-5.36-3.84-8.19.15-.9 1.35.27 1.35.27a14.21 14.21 0 0 1 2.83-3.88c.94-1 .9-3.05 2.15-4.17s2.12-2.62 3.31-2.89c.44-.5.89-1 1.31-1.51a18.46 18.46 0 0 1 1.86-3.54c.43 0 .85.08 1.25.09s.65-.11 1-.1c1.56 0 3.9 1.24 5-.5.45-.69.56-2.52.67-3.85l7.6 3c1 .39 2.05.87 3.07 1.31a7.15 7.15 0 0 0-2.08 3.09 22 22 0 0 0-4.24 2.32c-.35.28.37.91-.12 1.16-1.88 1-4.86.89-5.3 2.9-.48 2.19 2.2 4.42 3.12 6.67 1 2.53 1 4.65 3.11 5.8h4.05a2.65 2.65 0 0 0-.36-1.89c.63-.18 1.14-.68 1.8-.81L387 114a5.4 5.4 0 0 1 .73 1 4.37 4.37 0 0 0 1.92 1.87c0 .15-.08.32-.1.48-.15 1.15.35 2.87 1.74 3.3a3.21 3.21 0 0 0 3.7-1l.42.29c3.52 0 7 .09 10.55.07h.3a20.15 20.15 0 0 0 2.86-.74c0 .09.08.18.1.27a4.47 4.47 0 0 0 1.11.55c5.26 0 10.66-.07 16.08-.14a1.39 1.39 0 0 0 .13-.58 1.3 1.3 0 0 0-.05-.22 2.87 2.87 0 0 0-.5-.87.75.75 0 0 1 .67.53l.24.22 1.13.33a10.86 10.86 0 0 0 1.84.38h.93a2 2 0 0 0 .29.13 3.25 3.25 0 0 0 3.25-.52c.27-.09.54-.18.8-.29l.17-.2c.16-.49.4-.81.47-1.1l.81-.73c1.8-.13 3.22.1 3.8 1.53v.06a2.26 2.26 0 0 1 .12.2l.27.12c.72.38 1.05.78 1.48 1a2.45 2.45 0 0 0 .71-.1h.18a1.67 1.67 0 0 1 .29-.05h.15a5.56 5.56 0 0 0 .77-.21l.56-.23a4.44 4.44 0 0 0 .58-.34l.21-.15.09-.06.17-.14a.62.62 0 0 1 .28-.41 1.39 1.39 0 0 1 .12.74c.05.19.1.39.14.6a.84.84 0 0 0 .44.58 1.1 1.1 0 0 1 .29 0c1.75.18 3.51.27 5.27.47a4.82 4.82 0 0 0 2.37 0 2.45 2.45 0 0 0 .2-.84c-.33-1.81-2.1-1.5-3.8-2.18-1-2.39-4.31-5.36-3.84-8.19.15-.9 1.36.27 1.36.27a14.36 14.36 0 0 1 2.84-3.88c.94-1 .9-3.06 2.16-4.17s2.11-2.61 3.31-2.89l.43-.49A30.13 30.13 0 0 1 459 104c.4 3.93-1 7.39 0 11 2.24 2.08 5.06-.67 8.1-1.16l.47-.06a4.48 4.48 0 0 0 1.82 1.71c0 .15-.08.32-.1.48-.15 1.15.35 2.87 1.74 3.3a3.22 3.22 0 0 0 3.92-1.25 4.1 4.1 0 0 1 .53-.67c1-.91 2-1.8 3-2.71s2.14-2.06 3.17-3.14 1.85-1.82 2.83-2.67c.27.9.53 1.79.79 2.67.19.66 1.1 1.2 1.2 1.87.27 1.89-.36 4 .89 5.75l.34.4.68.47c3.36 0 6.69.08 10.06.07a7.46 7.46 0 0 1-.27-1.26 7.29 7.29 0 0 1-1.21-1.54 5.18 5.18 0 0 1-1.11.12 5.24 5.24 0 0 1-1-.09 3.63 3.63 0 0 1-.85-.27c-1-.49-2.77-1.76-2.52-4.85v-.11c-.14-.17-.24-.32-.33-.44l-.07-.1a3.63 3.63 0 0 1-.94-2.61 3.76 3.76 0 0 1 .91-2.49 3.38 3.38 0 0 0 .29-.42c-.2-1-.39-2-.53-2.94l4.94-4.6 2-1.85c0 .1 0 .19.07.29q1-1.19 2.13-2.32 1.46-1.37 2.9-2.76a3.49 3.49 0 0 0 .35-.42c.65-.59 1.31-1.16 1.95-1.71L506 89l1.74-1.48 1-.82a7.65 7.65 0 0 1 1.12-1.49l.13-.26a25.56 25.56 0 0 1 4.28-5.77 5.08 5.08 0 0 1 2.19-1.41 3.66 3.66 0 0 1 2-2 8.4 8.4 0 0 1 3.19-.74 5.82 5.82 0 0 1 1.6.22 5.6 5.6 0 0 1 1-.1 6.17 6.17 0 0 1 1 .08h.48c.32 0 .72-.06 1.17-.06a7.7 7.7 0 0 1 .77 0 3.63 3.63 0 0 1 1.41.44h.07a6.51 6.51 0 0 1 2.84 2.77 3.62 3.62 0 0 1 1.3 1.05 3.63 3.63 0 0 1 2 .78l.71.49.34-.34 2.83-2.86a5.18 5.18 0 0 0 1.1-3.28c-.23-1.86.63-1.61 2.32-.17l.35-.36.05-.05a5.75 5.75 0 0 1 1.71-1.27l.27-.27 2-2a5.39 5.39 0 0 1-.87-.49 3.63 3.63 0 0 1-1.51-3.41c.23-1.86.6-3.75 1-5.59a60.62 60.62 0 0 0 1.11-7.27 6.69 6.69 0 0 0-.14-1.52 13.42 13.42 0 0 1-.21-1.9 12.61 12.61 0 0 1 .27-2.54 7.6 7.6 0 0 0 .15-1.09 5.81 5.81 0 0 0-.14-.78 9.17 9.17 0 0 1-.27-2.8 8.58 8.58 0 0 1 .64-2.51l.13-.33a6.06 6.06 0 0 1-.18-1 13.93 13.93 0 0 1 .1-2.8v-.42a11.46 11.46 0 0 1 .31-2 5.54 5.54 0 0 1 .68-1.51v-.27a10.23 10.23 0 0 1 0-1.41c0-.26.06-.51.08-.77a46.29 46.29 0 0 0-4.11-6.3c-1.3-1.55-1.93-3.37-.07-5.15 0 0 .06-.17.09-.27a3.51 3.51 0 0 0 .9.29c2.12.22 1.12-2.75 1.91-3 0-.85.17-.56.57-1.14a1 1 0 0 1 0-.92c.59-.3 1.2 0 1.48-.79l-.76-2.15c-.13-.63.33-.79.42-1.43zM357 70a1 1 0 0 1 1.34.32A.88.88 0 0 1 357 70zm1.6.69l-.29-1.29.36-.4a3.09 3.09 0 0 0 .8 1.43 2.28 2.28 0 0 0 .72.5 12.55 12.55 0 0 1-1.57-.29zm5.7.31a4 4 0 0 0 1.38-2.13 16.54 16.54 0 0 1 .38 2.27c-.58-.03-1.17-.07-1.76-.14zm3.47-.31a5.33 5.33 0 0 0-1.91-2.82c.16-1.72-.26-3.71-.13-5.65 0-.4 1.05-.17 1.12-.54a35.4 35.4 0 0 1 2.15-7.6 32.08 32.08 0 0 0-1.09 7.56c.08 1 1.17 2 1.25 3.19s-.85 3.62-1.39 5.9zm69.12-6.44a12.7 12.7 0 0 0 .47-1.61c.07.79.13 1.62.16 2.48a15 15 0 0 0-1.68 6.05 1.86 1.86 0 0 0-.56-.27 5 5 0 0 0-.87-2.19 19.68 19.68 0 0 0 2.47-4.42zm-3.05 5.16a4 4 0 0 1-.1 1.23l-1.16-.07a7.61 7.61 0 0 0 1.25-1.12zm-18.5-4c0 .2 0 .41.08.62h-.16q-1 2.07-2 4.12L411.7 70c-.77-3.46-2.51-6.2-2.4-9.45.7 2.45 3.04 5.14 6.03 4.86zm-19.74 2.94c.47 1.77.21 3.56.38 5.45l-2.27-.93a5.21 5.21 0 0 0-1.28-4.25c0-.09 0-.18.05-.28a22.12 22.12 0 0 0-.28-6c1 2.27 2.85 4 3.39 6.01zm-3.44 1.23a10 10 0 0 1-.19 2.49c-.33-.12-.68-.24-1-.34 0-.07 0-.14-.06-.2a5.65 5.65 0 0 0 1.24-1.95zm-6.71-15.87c1.33.27 2.68.56 4 1 .18 3.09.43 6-.41 8.46-.36.37-.76.71-1.16 1-1.7-3.47-3.41-7.17-2.44-10.46zm-1 50a15.34 15.34 0 0 0-1.16 1.8l-.25.49a18.43 18.43 0 0 1 .36-2c.27-.88.73-.64 1.09-.25zm-1.37 7.84a11.75 11.75 0 0 1-.19-1.45h.13a.49.49 0 0 1 .2.15l.62.55-.7.93c.03 0 0-.07-.01-.14zm25.77 5.45a20.55 20.55 0 0 1-7.64-3.51l.64-.66a39.08 39.08 0 0 1 3.83-3.51 32.22 32.22 0 0 1 2.15 3.92 1.44 1.44 0 0 1 .17.2l1.05.53c-.05 1.03-.2 2.03-.2 3.03zm10.46-1.82a11.79 11.79 0 0 1-4.4-4.19c-1.51-2.68-1.56-5.8-1.42-8.88l2.5-2.33 2.17-2c-.45 3.82 1.73 8.12 2 10.49s-.39 4.73-.85 6.93zm11.24-19.53a73.995 73.995 0 0 0-4.69 5.32 61.22 61.22 0 0 0 1.51-7.77 16.46 16.46 0 0 0 2.08.78c.32.09.66 0 1 .14l.19.07c-.07.49-.09.98-.09 1.48zm25-34.51s0 .09-.05.13l-.47-.51c.35.02.67-.06.56.4zm.62-7.55c-.32 1.74-1.6 5.33-1.65 6.63-.48-.53-1-1.06-1.4-1.6.63-1.06.81-4.93 1.47-6a10.2 10.2 0 0 1 1.67.36zm5.19 14.85a16.8 16.8 0 0 0-2.64-3.71 18 18 0 0 1-.05-2.43c0-.4 1.05-.17 1.12-.54a37.88 37.88 0 0 1 1.92-7h.1a29.63 29.63 0 0 0-1 7c.08 1 1.18 2 1.25 3.2a12.77 12.77 0 0 1-.66 3.49zm10.92 24.92a73.3 73.3 0 0 0-7.14 7.92l-.17.22c.16-2.41.62-5 .91-7.53a2 2 0 0 0 1.56-.91c.45-.69.57-2.52.68-3.86l6.13 2.38c-.63.6-1.25 1.19-1.94 1.79zm9.74-30.19c-.37.37-.77.71-1.17 1-1.71-3.47-3.41-7.2-2.44-10.47 1.34.27 2.68.56 4 1 .22 3.1.47 5.99-.36 8.49zm2.98 8.96c-.34-.12-.68-.24-1-.34 0-.07 0-.13-.06-.2a5.61 5.61 0 0 0 1.28-1.95 9.93 9.93 0 0 1-.22 2.49zm1.73.8a5.18 5.18 0 0 0-1.27-4.25c0-.09 0-.18.05-.28a22 22 0 0 0-.28-6c1 2.25 2.87 4 3.41 6 .47 1.77.21 3.56.38 5.45zm21.58-6.88q-1 2.07-2 4.13l-1.58-.18c-.78-3.47-2.51-6.21-2.4-9.46.69 2.51 3 5.17 6 4.89 0 .21 0 .41.08.62zm18.49 4.69l-1.16-.07a7.71 7.71 0 0 0 1.26-1.16 4 4 0 0 1-.13 1.24zm2.11.53a1.83 1.83 0 0 0-.56-.27 5 5 0 0 0-.87-2.2 19.54 19.54 0 0 0 2.49-4.47 12.07 12.07 0 0 0 .47-1.61c.07.79.13 1.62.16 2.48a15 15 0 0 0-1.72 6.08z" transform="translate(.33 -1)" fill="url(#linear-gradient)"/><path class="cls-1" d="M344.26 184.79h56.45V173.5h-45.16v-11.29h45.16v-11.29h-45.16v-8.47h45.16v-11.29h-56.45v53.63zm251.19-42.34v-11.29H539v53.63h56.45V173.5h-45.16v-11.29h45.16v-11.29h-45.16v-8.47h45.16zm-400.77 42.34h56.45V173.5h-45.16v-11.29h45.16v-11.29h-45.16v-8.47h45.16v-11.29h-56.45v53.63z"/><path class="cls-1" d="M259.26 185.8h11.29v-22.57H291l11.29 22.58h13.41l-11.29-22.58h11.29v-31h-56.44v53.57zm11.29-42.32h33.87v8.47h-33.87v-8.47z" transform="translate(.33 -1)"/><path class="cls-1" d="M474.09 184.79h56.45V173.5h-45.16v-31.05h45.16v-11.29h-56.45v53.63zm-19.75-16.23l-33.87-37.4h-11.29v53.59h11.29v-37.36l33.87 37.4h11.29v-53.63h-11.29v37.4zm-129.83-37.4h11.29v53.64h-11.29z"/><path class="cls-1" d="M129.44 197.16h11.37l-.08-34h45.16v-31h-56.45v65zm11.29-53.71h33.87v8.47h-33.87v-8.47z" transform="translate(.33 -1)"/><path class="cls-1" d="M380.96 43.36H335.8V32.07h45.16V20.78H335.8v-8.47h45.16V1.02h-56.45v53.63h56.45V43.36z"/><path class="cls-1" d="M259.26 67.19v53.63h56.45v-11.3h-45.16V98.23h45.16V86.95h-45.16v-8.47h45.16V67.19h-45.16v-34.1H291l11.29 22.58h13.4l-11.27-22.58h11.29V2h-56.45v65.19zm11.29-53.86h33.87v8.47h-33.87v-8.47z" transform="translate(.33 -1)"/><path class="cls-1" d="M152.35 54.64h11.29V12.33h42.35V1.04h-76.22v11.29h22.58v42.31zm-42.33-11.26H76.15V1.04H64.86v53.63h56.45V1.04h-11.29v42.34z"/><path class="cls-1" d="M239.84 43.38h-33.87V20.79h-11.29v33.88h56.45V1.04h-11.29v42.34zM11.29 32.09h45.16V20.8H11.29v-8.47h45.16V1.04H0v53.6h11.29V32.09z"/><path class="cls-1" d="M64.54 132.16H-.33v53.63h56.45V174.5H11v-11.29h45.12v-11.29H11v-8.47h59.8L83.69 159l-22.32 26.79H75.5l15.62-18.7 15.62 18.7h14.14L98.57 159l22.32-26.81h-14.14l-15.62 18.32-15.3-18V98.26h20.45l11.29 22.58H121l-11.31-22.58H121v-31H64.53v64.95zM75.82 78.5h33.87V87H75.82v-8.5z" transform="translate(.33 -1)"/><path class="cls-1" d="M380.94 108.53H335.8V66.19h-11.29v53.62h56.43v-11.28z"/><path class="cls-1" d="M129.44 120.81h11.29V98.23h33.87v22.58h11.29V67.19h-56.45v53.63zm11.29-42.34h33.87v8.47h-33.87v-8.46z" transform="translate(.33 -1)"/><path class="cls-1" d="M33.87 119.79V77.5h22.58V66.21H0V77.5h22.58v42.29h11.29zm189.04-13.38l-16.94-40.22h-11.29l22.58 53.62h11.29l22.58-53.62h-11.29l-16.93 40.22z"/><path class="cls-1" d="M546.52 75.61a.76.76 0 0 0-.16 0 .77.77 0 0 1 .2 0zm-24.84 3.01zm-3.89 2.56a.89.89 0 0 0-.29.05.89.89 0 0 1 .3 0zm9.21-2.45h-.15a4.32 4.32 0 0 1 .56 0zm7.75 8.21l-.87-1.05zm-10.42-8.19z" transform="translate(.33 -1)"/></svg>