<svg height="53" viewBox="0 0 160 53" width="160" xmlns="http://www.w3.org/2000/svg"><g fill="#00aecd"><path d="m75.276 42.694v5.137 5.169h-9.438v-1.932c0-8.944.015-17.89-.005-26.837-.01-4.294 1.372-7.839 5.518-9.531 4.49-1.832 8.897-1.441 12.774 1.679 1.514 1.218 2.267 3.02 2.255 5.067-.018 2.903.019 5.809-.01 8.711-.04 3.741-3.047 6.763-6.814 6.892-3.671.126-7.05-2.793-7.248-6.449-.145-2.723-.076-5.459-.045-8.189.021-1.746 1.228-2.296 3.013-2.638v4.021c.001 2.033-.045 4.068.019 6.1.073 2.349 1.857 4.081 4.069 4.059 2.224-.022 3.958-1.748 4.016-4.112.057-2.264.017-4.53.015-6.796 0-3.462-1.336-5.182-4.677-6.022-4.66-1.174-8.659.888-9.709 5.024-.113.443-.183.91-.183 1.367-.009 8.597-.007 17.195-.001 25.791 0 .229.045.459.088.849h3.288v-11.893c1.876.724 3.598 1.679 5.432 2.042 6.076 1.201 11.939-3.623 12.168-9.889.092-2.552-.068-5.115.062-7.664.326-6.447-4.223-11.044-10.145-12.007-2.406-.393-4.926-.065-7.714-.065.65-.489 1.105-.965 1.658-1.231 8.572-4.129 18.65 1.891 19.129 11.525.181 3.64.202 7.334-.185 10.953-.936 8.753-10.077 13.607-16.744 10.874-.097-.04-.223-.005-.586-.005"/><path d="m7.99 14.877c7.814-.776 11.491.994 12.548 6.229-2.197-2.099-4.7-3.233-7.453-3.362-2.702-.125-5.423.203-8.27.337 0-2.391-.019-5.055.027-7.718.005-.298.305-.748.576-.86 5.43-2.246 13.06-2.053 17.879 2.551 2.673 2.553 3.649 5.829 3.766 9.41.086 2.612.059 5.23 0 7.841-.03 1.357.389 2.346 1.595 3.015.346.195.78.641.787.98.063 2.833.036 5.668.036 8.886-1.885-.527-3.599-.788-5.109-1.496-1.143-.537-1.863-.506-2.87.222-6.869 4.966-16.359 2.574-20.241-5.05-3.627-7.117.954-14.842 8.837-14.787 1.807.012 3.68.21 5.401.735 3.746 1.141 5.874 5.364 5.043 9.523-.665 3.322-3.845 5.833-7.242 5.716-3.903-.134-7.061-3.162-6.788-6.576.136-1.669.76-3.031 2.898-3.334.039.764.101 1.481.109 2.197.027 2.291.818 3.585 2.717 4.362 1.564.639 2.932.192 4.105-.903 1.5-1.399 1.627-3.209.952-4.971-.369-.96-1.124-1.936-1.966-2.515-4.476-3.066-10.965-.75-12.143 4.245-.745 3.161 1.308 7.125 4.801 9.267 4.744 2.911 10.073 1.95 13.851-2.5.184-.215.368-.433.586-.688.628.573 1.162 1.175 1.805 1.616.588.404 1.292.635 2.113 1.019.123-1.921.509-3.495-1.092-4.932-.761-.682-1.086-2.153-1.146-3.292-.171-3.301.237-6.664-.215-9.914-.823-5.908-5.892-9.419-12.329-8.999-.286.018-.57.06-.857.088-2.983.285-3.054.378-2.711 3.658"/><path d="m153.631 41.164c-.56.374-1.083.831-1.688 1.109-8.707 4.003-18.373-1.932-18.903-11.803-.219-4.085-.278-8.319.522-12.292 1.375-6.834 7.794-10.865 14.802-10.014 6.345.768 11.422 6.459 11.57 13.103.063 2.837.176 5.718-.203 8.512-.649 4.779-4.394 7.856-9.156 8.01-3.533.113-6.99-.201-9.361-3.222-.936-1.191-1.609-2.852-1.753-4.364-.274-2.879-.118-5.801-.07-8.705.062-3.947 3.202-7.017 7.082-6.992 3.881.023 6.987 3.125 7.028 7.051.024 2.323.009 4.647.003 6.97-.006 2.185-.415 2.659-2.979 3.257 0-3.273-.029-6.493.012-9.711.024-1.812-.701-3.128-2.25-3.993-2.463-1.377-5.71.33-5.84 3.198-.134 2.956-.142 5.93.032 8.882.054.927.695 1.979 1.366 2.684 2.545 2.677 9.349 2.849 11.691-.805.495-.77 1.182-1.613 1.218-2.448.166-3.802.778-7.667-.481-11.386-1.686-4.971-6.748-7.849-11.896-6.911-4.708.857-8.413 5.448-8.424 10.474-.007 3.137-.24 6.301.095 9.401.604 5.61 5.901 9.926 12.058 10.069 1.743.041 3.494-.241 5.241-.375z"/><path d="m126.241 30.791c-.128 6.056-5.185 11.673-11.03 12.528-7.488 1.095-14.052-3.193-15.427-10.704-.667-3.641-.637-7.576-.083-11.247.851-5.652 6.519-8.756 12.556-7.492 2.462.514 4.565 1.537 6.428 3.369.744.732 2.364.548 3.982.858-1.577-3.747-3.995-5.712-7.206-6.88-3.152-1.146-6.321-1.286-9.668-.265 1.059-2.419 6.535-3.539 10.742-2.424 5.468 1.448 10.063 7.201 9.597 12.224-2.833 0-5.688.026-8.539-.033-.336-.007-.754-.415-.981-.746-2.922-4.276-10.185-4.385-13.036-.141-.469.699-.97 1.552-.998 2.352-.101 3.186-.315 6.417.056 9.564.546 4.623 4.445 7.966 9.472 8.687 3.526.506 8.295-2.236 10.034-5.782.096-.195.116-.425.194-.731-1.79-.226-3.265-.334-4.71 1.212-1.972 2.112-4.629 2.441-7.305 1.395-2.84-1.112-4.363-3.342-4.511-6.395-.125-2.548-.074-5.109-.015-7.663.042-1.789 1.215-2.457 2.959-2.643 0 3.155-.004 6.223.002 9.292.005 2.383 1.143 4.124 3.063 4.715 1.716.527 3.364-.277 4.78-2.27.233-.326.643-.739.977-.746 2.856-.059 5.714-.034 8.667-.034"/><path d="m59.658 34.631c.407 2.964.307 3.11-2.726 3.143-1.315.015-2.666.097-3.94-.164-4.543-.933-7.659-3.35-7.483-9.33.1-3.366.014-6.736.022-10.105.001-.622.052-1.246.084-1.99h7.836v-3.468h-7.927v-9.053c-2.808 3.47-5.353 6.501-7.736 9.655-.473.624-.337 1.722-.523 2.837h4.962c0 4.311.204 8.432-.043 12.527-.455 7.546 5.398 12.091 12.087 12.544 1.789.12 3.608-.226 5.83-.388-.669.549-1.057.992-1.541 1.247-8.477 4.447-19.059-1.837-19.319-11.501-.098-3.701-.015-7.405-.015-11.252h-4.81c.182-3.373-.94-6.667 2.005-9.486 2.313-2.214 4.339-4.82 6.112-7.507 1.515-2.295 3.38-2.637 5.945-2.144v9.467h7.937v9.586h-7.847c0 3.774-.134 7.362.048 10.933.115 2.237 2.43 4.158 5.095 4.412 1.909.185 3.849.037 5.947.037"/></g></svg>