<svg width="300" height="100" xmlns="http://www.w3.org/2000/svg" xmlns:xlink="http://www.w3.org/1999/xlink"><g transform="translate(-51 -81)"><clipPath id="a" clip-rule="evenodd"><path d="M51 81h300v100H51V81z" fill="#FFF"/></clipPath><g clip-path="url(#a)" fill="#231F20"><use xlink:href="#b" transform="translate(51 120.47)"/><use xlink:href="#c" transform="translate(304.147 97)"/></g></g><defs><path id="b" d="M13.2 0L0 19h2.38l3.27-4.62h7.8l.36 2.16c.26 1.72.7 2.47 2.7 2.47h2L15.3 0h-2.1zm11.46 1.54L20.74 19h4.23L28.9 1.55h-4.24zm7.6 0l.83 1.5L29.5 19h4.25l3.53-15.87h1.32c2.44 0 3.46 1.42 3.27 3.53-.16 1.9-1.56 3.96-5.83 4.4l3.45 6.06c.87 1.54 1.26 1.9 3.6 1.9h2.25l-4.72-7.42c2.53-.4 5.3-1.97 5.6-4.8.38-3.25-1.95-5.26-5.9-5.26h-8.08zm25.67 0l1.1 2.03L55.6 19h2.2l2.9-12.8 6.58 10.94c.72 1.23 1.37 1.9 3.4 1.9L74.6 1.53h-2.2l-2.74 12.1L63.7 3.4c-.85-1.48-1.3-1.86-3.13-1.86h-2.64zm20.6 0L74.6 19h13.5c-.25-1.2-.8-1.66-2.34-1.66h-6.48l1.46-6.44h6.66l.4-1.77h-6.7l1.3-5.9h6.2c1.54 0 2.07-.48 2.33-1.7h-12.4zm13.94 0L95.17 19h2.02l6.03-10.4L104.7 19h2.02l10.5-17.46h-2.25l-7.28 12.22-1.42-11.47c-.06-.54-.52-.76-1.06-.76h-2.9l.56 4.15-4.6 8.06L96.6 2.3c-.07-.54-.53-.76-1.07-.76H92.5zm33.75 0c.25 1.2.8 1.68 2.34 1.68h7.85l-12.43 12.53c-1.07 1.1-1.8 1.8-1.85 3.26h16.14c-.25-1.18-.76-1.66-2.3-1.66h-8.2l12-12.35c1.52-1.64 1.86-2.47 2-3.46H126.2zm18.8 0L141.1 19h13.47c-.27-1.2-.8-1.66-2.35-1.66h-6.5l1.47-6.44h6.66l.4-1.77h-6.7l1.32-5.9h6.17c1.56 0 2.1-.48 2.34-1.7H145zm22.45 0L155.65 19h2.38l3.13-4.62h7.1l.45 2.16c.4 1.7.8 2.47 2.8 2.47h2l-3.9-17.46h-2.13zm12.22 0L175.75 19h11.74c-.25-1.2-.83-1.66-2.38-1.66h-4.72l3.53-15.8h-4.24zm20.64 0L188.56 19h2.34l3.13-4.62h7.1l.5 2.16c.37 1.7.77 2.47 2.77 2.47h2.03l-3.97-17.46h-2.12zm10.67 0l1.16 2.03L208.68 19h2.25l2.87-12.8 6.57 10.94c.73 1.23 1.4 1.9 3.44 1.9l3.9-17.48h-2.2l-2.7 12.1-6-10.24c-.86-1.48-1.3-1.86-3.14-1.86H211zm20.1 0l.78 1.5L228.3 19h6.45c5.76 0 11.13-3.18 12.04-8.72.9-5.47-3.03-8.74-8.6-8.74h-7.11zm5.02 1.64h1.14c4.02 0 5.86 2.64 5.17 7.1-.7 4.5-4.33 7.15-8.34 7.15h-1.2l3.22-14.25zM12.04 5.28l1.15 7.3H6.92l5.1-7.3zm154.42 1.16l1.36 6.13h-5.47l4.1-6.13zm32.9 0l1.38 6.13h-5.48l4.1-6.13z"/><path id="c" d="M28.85 0c-5.3 0-10.18 3.76-12.97 6.5C5.98 16.13.75 22.67.75 22.67h44.12l1.98-4.42h-35.6s2.7-3.68 8.47-9.13c1.45-1.36 5.26-4.76 9.13-4.76 2.55 0 4.55 1.6 4.55 3.75 0 2.13-1.8 2.73-1.8 2.73.18-.9-.44-3.4-2.84-3.4-2.48 0-3.52 1.9-3.52 3.18 0 2.63 2.38 4.5 5.16 4.5 5.33 0 7.8-3.8 7.8-7.45 0-3.7-3.6-7.68-9.35-7.68zM0 24.97S2.32 31.63 5.38 38c2.6 5.4 6.9 8.68 12.18 8.68 4.95 0 8.3-3.77 8.3-7.37 0-4.07-3.1-6.74-6.8-6.74-3.94 0-4.77 2.96-4.77 3.7 0 1.73 1.43 3.3 3.26 3.3 2.87 0 3.1-2.28 3.1-2.28s.87.56.87 2.03c0 1.42-1.2 3.23-3.97 3.23-2.22 0-5.48-1.17-7.72-5.9C7.2 31.05 7 29.42 7 29.42h34.82l2-4.46H0z"/></defs></svg>