<svg xmlns="http://www.w3.org/2000/svg" width="266" height="266"><g fill="#FFF" fill-rule="evenodd"><path d="M266 133c0 47.523-25.35 91.429-66.5 115.184-41.15 23.755-91.85 23.755-133 0C25.35 224.429 0 180.524 0 133 0 85.477 25.35 41.571 66.5 17.816c41.15-23.755 91.85-23.755 133 0a134.835 134.835 0 0 1 11.677 7.582l-39.088 53.8c-19.219-13.965-44.436-16.625-66.141-6.955A66.506 66.506 0 0 0 93.91 186.8c19.219 13.966 44.436 16.626 66.141 6.956a66.506 66.506 0 0 0 39.089-53.8c.24-2.315.359-4.63.359-6.957H266z" opacity=".7"/><path d="M211.248 25.498C245.728 50.389 266 90.663 266 133h-66.563c0-21.175-10.066-41.305-27.306-53.751l39.117-53.751z" opacity=".3"/><path d="M141.945 141.73v3.258c5.784.93 11.106 3.025 15.502 5.817 2.545 1.862 4.859 11.635 5.553 14.195h-59c.694-2.56 2.776-12.333 5.553-14.195 4.165-2.792 9.718-4.886 15.502-5.817v-3.258c-2.314-2.094-3.933-5.352-4.628-8.843-2.776 0-6.247-11.17-1.62-10.704-2.313-6.05 0-14.195 4.397-16.987-3.24-5.818-.694-1.629 12.494-3.025 3.702-.233 7.173 2.094 7.635 5.352 6.479.233 6.479 9.54 4.628 14.66 4.859-.698 1.388 10.937-1.62 10.704-.463 3.49-2.082 6.749-4.396 8.843z"/></g></svg>