<svg xmlns="http://www.w3.org/2000/svg" width="264" height="264" viewBox="0 0 264 264">
    <g fill="#FFF" fill-rule="evenodd">
        <path d="M132.23 0c47.084 0 90.583 25.16 114.119 66 23.535 40.84 23.535 91.16 0 132-23.536 40.84-67.035 66-114.118 66-47.084 0-90.583-25.16-114.118-66A130.265 130.265 0 0 1 13 188.206l59.615-28.103c10.029 21.331 30.651 35.693 54.108 37.66a65.838 65.838 0 0 0 59.615-28.09c13.428-19.365 15.536-44.445 5.508-65.776-10.028-21.331-30.65-35.693-54.107-37.66a63.827 63.827 0 0 0-5.508-.237V0z" opacity=".7"/>
        <path d="M12.562 188C-7.516 145.371-3.305 95.292 23.611 56.606 48.282 21.15 88.768 0 132 0v65.928c-23.576 0-45.37 12.566-57.158 32.964a65.863 65.863 0 0 0-2.561 61.036L12.562 188z" opacity=".3"/>
    </g>
</svg>
