<svg xmlns="http://www.w3.org/2000/svg" xmlns:xlink="http://www.w3.org/1999/xlink" width="133" height="25" viewBox="0 0 133 25">
    <defs>
        <path id="a" d="M24.436 24.437H0V0h24.436z"/>
        <linearGradient id="b" x1="18.579%" x2="76.41%" y1="9.257%" y2="91.913%">
            <stop offset="0%" stop-color="#02DB9C"/>
            <stop offset="100%" stop-color="#0B94D8"/>
        </linearGradient>
        <path id="d" d="M7.546 9.403V.377H.28v9.026h7.265z"/>
        <path id="f" d="M0 .377v9.026h14.891V.377z"/>
        <path id="h" d="M0 9.583h98.609V.197H0z"/>
    </defs>
    <g fill="none" fill-rule="evenodd">
        <g>
            <mask id="c" fill="#fff">
                <use xlink:href="#a"/>
            </mask>
            <path fill="url(#b)" d="M22.573 15.59L21.2 12.878l1.786-2.236c.075.516.127 1.04.127 1.577 0 1.176-.194 2.308-.54 3.371zm-6.432 6.78l-.004-4.344 4.75.764a10.93 10.93 0 0 1-4.746 3.58zm-5.62.597l-2.26-3.093 3.643-.331a.37.37 0 0 0 .093-.023l3.482-1.393v4.486c-1.03.323-2.125.5-3.26.5a10.9 10.9 0 0 1-1.698-.146zm-6.955-4.156l3.883 1.074 2.109 2.885a10.902 10.902 0 0 1-5.992-3.96zM1.35 11.688l1.125.305 2.784 1.004 1.894 6.12-4.175-1.154a10.821 10.821 0 0 1-1.655-5.744c0-.18.018-.355.027-.531zM5.645 3.55l.84 1.344-.322 1.95-3.534.21A10.976 10.976 0 0 1 5.645 3.55zm7.358-2.187l-1.66 2.007-4.357 1.075-.807-1.288a10.828 10.828 0 0 1 6.04-1.834c.265 0 .524.021.784.04zm6.96 3.203l-2.571.093c-.007 0-.012.004-.019.004h-.019l-3.64.544-1.728-1.574 1.805-2.183a10.866 10.866 0 0 1 6.171 3.116zm.837 7.752l-2.07-2.421-.924-4.59 2.739-.099a10.85 10.85 0 0 1 2.283 4.57L20.8 12.32zm-12.06.753l2.642 5.853-1.26.115-2.236.203-1.91-6.17H8.74zm8.402-7.707l.919 4.565-3.067 2.778-5.449-.268 4.258-6.576 3.339-.499zm-5.706-1.334l1.74 1.584-4.402 6.796H5.917l1.206-7.317 4.313-1.063zm-8.76 7.33l-1.281-.347c.128-1.157.441-2.258.904-3.277l3.754-.223-.788 4.782-2.59-.934zm9.37 7.427l-2.567-5.69 5.35.266.618 4.063-3.401 1.36zm9.274-.598l-5.219-.84-.632-4.179 2.923-2.649 2.14 2.501 1.729 3.417c-.26.615-.578 1.199-.941 1.75zM12.218 0C5.47 0 0 5.47 0 12.219c0 6.747 5.471 12.218 12.22 12.218 6.747 0 12.217-5.47 12.217-12.218 0-6.749-5.47-12.22-12.218-12.22z" mask="url(#c)"/>
        </g>
        <path fill="#191919" d="M99.115 7.597v2.024h2.78v7.002h2.559V9.62h2.766V7.597z"/>
        <g transform="translate(34 7.22)">
            <path fill="#191919" d="M79.292 4.703c.268-.227.401-.552.401-.973 0-.422-.133-.748-.4-.98-.268-.232-.664-.348-1.19-.348h-1.422v2.643h1.422c.526 0 .922-.114 1.19-.342zm2.528.722c-.307.486-.744.866-1.312 1.141l1.952 2.837h-2.741l-1.641-2.399H76.68v2.399h-2.56V.377h4.137c.819 0 1.53.135 2.133.406.603.27 1.069.658 1.396 1.16.328.503.491 1.095.491 1.773 0 .654-.153 1.223-.458 1.709zM85.712 5.78h3.394l.617-1.909h-4.011V2.35h4.563V.377h-7.097v9.026h7.265V7.43h-4.731z"/>
            <g transform="translate(91.063)">
                <mask id="e" fill="#fff">
                    <use xlink:href="#d"/>
                </mask>
                <path fill="#191919" d="M2.815 5.78h3.394l.617-1.909H2.815V2.35h4.563V.377H.28v9.026h7.265V7.43H2.815z" mask="url(#e)"/>
            </g>
            <mask id="g" fill="#fff">
                <use xlink:href="#f"/>
            </mask>
            <path fill="#191919" d="M5.675 9.403l1.81-5.493 1.732 5.493h2.74L14.891.377h-2.443l-1.9 5.815L8.725.377H6.373L4.46 6.14 2.637.377H0l2.934 9.026z" mask="url(#g)"/>
            <mask id="i" fill="#fff">
                <use xlink:href="#h"/>
            </mask>
            <path fill="#191919" d="M15.49 9.403h2.559V.377h-2.56zM27.86.377h-2.507v4.81L21.359.376h-2.107v9.026h2.508v-4.81l3.994 4.81h2.107zM35.106 6.721c-.47.439-1.092.658-1.868.658h-1.615V2.428h1.615c.776 0 1.399.219 1.868.657.47.438.705 1.045.705 1.818 0 .774-.235 1.38-.705 1.818m.873-5.79c-.767-.369-1.647-.554-2.637-.554h-4.28v9.026h4.28c.99 0 1.87-.185 2.637-.555.767-.37 1.361-.894 1.784-1.573.422-.679.633-1.474.633-2.385 0-.911-.211-1.706-.633-2.385-.423-.68-1.017-1.204-1.784-1.574M39.288 9.403h2.56V.377h-2.56zM49.151 5.186L45.156.377H43.05v9.026h2.508v-4.81l3.994 4.81h2.107V.377H49.15zM59.079 4.697v2.475c-.431.198-.892.297-1.384.297-.5 0-.943-.11-1.33-.33a2.31 2.31 0 0 1-.906-.915 2.713 2.713 0 0 1-.323-1.334c0-.782.237-1.408.711-1.876.474-.469 1.1-.703 1.874-.703.847 0 1.574.331 2.184.991l.73-2.26a4.643 4.643 0 0 0-.768-.42c-.672-.283-1.43-.425-2.275-.425-.965 0-1.831.2-2.598.6-.767.399-1.366.955-1.797 1.669-.43.713-.646 1.521-.646 2.424 0 .902.215 1.71.646 2.424a4.482 4.482 0 0 0 1.784 1.67c.758.4 1.611.6 2.56.6.672 0 1.344-.1 2.016-.297a5.912 5.912 0 0 0 1.784-.851v-3.74h-2.262z" mask="url(#i)"/>
        </g>
    </g>
</svg>
