<svg xmlns="http://www.w3.org/2000/svg" width="1420" height="520" viewBox="0 0 1420 520">
    <g fill="none" fill-rule="evenodd" opacity=".64">
        <path fill="#0D1134" d="M335.985 116.015c.712-1.993 1.202-3.224 1.2-3.227 4.715-3.149 16.156-10.487 16.652-10.765 1.48-.821 3.212-.78 4.818-1.16-.872.9-3.527 3.648-6.402 6.804-.15.164-.305.418-.494.541l-7.38 4.88c-2.58 1.278-5.442 1.905-8.166 2.851 6.409-2.125 13.126-3.7 20.28-4.491-3.403 3.44-3.403 3.44-5.224 5.668 27.29-17.226 27.29-17.226 30.337-17.399.453-.025.694.689.99.985-20.492 14.71-20.492 14.71-29.325 19.715.768.05 1.796.12 2.568.172-8.202 13.425-25.68 13.086-38.099 20.256-8.418 4.862-29.367 17.798-42.061 32.971 1.6-.23 3.74-.53 5.345-.752a898.21 898.21 0 0 0-4.592 5.373c.71-.364.71-.364 39.489-11.789-4.75 7.253-4.75 7.253-3.498 10.954 8.742-4.097 35.627-27.67 33.159-34.87 32.75-22.794 32.75-22.794 43.075-18.769a463.241 463.241 0 0 0-1.998 4.212c10.333-4.02 10.333-4.02 22.252-11.699 2.003 3.66 2.003 3.66.122 10.637 4.237.242 4.237.242 13.527 3.473-17.504 11.868-39.442 17.085-56.418 29.741 6.766-1.276 7.17-1.3 10.768-.666-.361 1.242-.3 3.05.156 4.264 13.947-4.215 13.947-4.215 17.33-4.703-18.507 9.652-18.77 9.814-32.637 18.228 3.242-3.673 3.242-3.673 4.355-5.914-26.026 10.754-92.791 77.482-93.445 78.149-5.613 5.716 1.004 11.091.338 16.67-5.738 3.101-8.5-.919-10.33-3.579-1.64.118-3.882-.001-5.464.417-12.326 3.253-90.097 46.87-63.009 66.87 21.591-5.104 27.2-26.587 45.72-34.837-3.623 4.097-10.373 11.717-6.078 18.532 1.913-.168 1.913-.168 20.924-9.945.229 2.517.543 5.973 1.282 11.955 21.383-1.02 29.944-19.044 45.926-27.226 3.86-1.976 48.209-22.169 58.173-22.974 13.376-1.086 13.376-1.086 58.842 1.603 22.327 1.323 43.952-4.534 66.026-5.788 2.502 2.296 4.996 4.6 7.482 6.908-7.562 6.973-10.376 9.627-17.728 16.736 1.282 9.393 1.282 9.393-6.446 33.221-26.051 13.019-26.051 13.019-31.903 28.13-10.342 26.683-10.342 26.683-27.689 34.031 6.387 5.8 6.387 5.8 7.733 8.229-16.18 21.506-23.69 27.18-23.74 27.204-1.213 7.572 2.038 15.03.433 22.612 2.233 2.342 5.325 3.823 7.74 5.979-2.888 6.863-2.888 6.863-2.68 16.522 8.846 6.172 8.846 6.172 23.216 8.705a635.953 635.953 0 0 0-3.618 6.815c-37.619-6.755-37.619-6.755-64.958-44.447-4.26-5.87-.94-12.63-2.55-18.811-4.533-17.385-11.247-34.228-15.806-51.607-41.287.137-41.287.137-59.235-9.553a735.937 735.937 0 0 1 1.91-7.037c-.87-1.106-2.499-2.336-3.908-2.865-3.463-12.42 17.005-19.659 9.642-32.923a795.96 795.96 0 0 0-5.284.057c-5.309 5.197-5.309 5.197-22.024 12.134l-51.569 14.156c-19.564 5.169-32.969 20.149-52.178 25.887 1.252-3.426 3.343-9.16-2.988-12.458-10.7 2.7-22.407-.705-32.689 4.57.118 1.46.285 3.404.416 4.864 5.208 3.073 11.719 3.096 17.19 5.552-4.67 6.895-19.612 4.352-29.61-5.04C91.02 363.9 91.02 363.9 82.45 357.73c6.204-16.576 17.261-31.452 22.42-48.396-9.746-6.368-9.854-6.512-11.7-8.893 1.286-5.068 1.286-5.068.994-7.56-13.437-4.442-13.437-4.442-83.655 87.775.91-3.218.91-3.218 7.034-13.556C2.976 387.978 2.976 387.978 2 388.978c2.322-4.324 2.322-4.324 3.217-6.484-.635.431-1.48 1.013-2.116 1.45 5.889-21.071 23.274-36.735 34.125-55.47-6.257 6.561-10.586 14.259-16.258 21.164 8.846-19.079 26.815-33.186 36.727-51.686a501.173 501.173 0 0 0-3.463 3.372c10.66-19.194 49.474-59.252 65.963-71.622.881-.662 93.79-66.96 123.91-70.812.046.683.103 1.597.15 2.282 34.096-8.754 58.877-34.183 91.73-45.157zm996.52 335.37l6.301 28.462c-1.714 10.825-12.432 16.855-12.542 16.912-.235.129-.634.023-.91.037-8.723.331-13.319.745-21.036 1.55a573.462 573.462 0 0 1-2.148 5.245c-7.293-6.344-18.49-8.39-23.904-16.795-.192-.296-.379-.712-.547-1.024-7.102-13.344-7.102-13.344-6.995-16.535.326-9.687.326-9.687-1.624-16.975a351.964 351.964 0 0 0-8.711-2.534c1.236-18.089-10.962-25.685-18.345-28.606-.873.357-1.74.72-2.601 1.085a495.187 495.187 0 0 0-11.345-7.163c-3.608.78-5.03 1.1-8.436 1.896-11.373-8.003-11.373-8.003-16.004-8.677-12.584-1.821-13.648-3.634-18.112-11.254a9.641 9.641 0 0 1-.94-2.376c1.76-.29 3.522-.568 5.285-.839 1.209-15.605 1.209-15.605-.73-30.204 4.668-1.92 5.533-2.269 10.11-4.06 11.965-.55 19.833 11.702 32.868 7.821.677-.203 1.535-.614 2.084-1.019.057-.472.13-1.102.183-1.575 23.241 4.21 23.241 4.21 26.3 8.618.836 1.202 6.168 4.62 7.392 5.09.373-1.088.746-2.177 1.114-3.266 15.01 4.908 15.01 4.908 24.791 15.178-1.121 2.043-2.236 4.088-3.369 6.126 14.702 20.368 14.702 20.368 17.982 22.124 3.311-3.49 9.005-9.562 9.98-10.601 5.83 6.327 8.56 17.39 7.947 22.54-.409 3.463-2.402 6.778-1.371 10.37 1.191 4.17 6.155 6.26 7.334 10.449zm-52.831 50.673a449.942 449.942 0 0 1 5.416 3.415 930.023 930.023 0 0 1-2.362 5.502c-2.73-.08-4.79-.14-8.411-.167-.199-.003-.469.032-.66-.006-.088-.01-.16-.102-.234-.147a231.592 231.592 0 0 0-2.947-1.911c.295-1.89.581-3.78.85-5.673.098-.696.057-1.405.29-2.086.196-.563.63-1.014.944-1.519a419.47 419.47 0 0 0 2.544-4.14 456.626 456.626 0 0 1 3.845 5.995c.087.138.174.345.298.468.103.107.297.189.427.269zM891.08 244.672c1.003.63 2.01 1.255 3.017 1.88-.51 6.306-.908 10.479-.908 10.483-.45.956-1.39 2.085-1.978 2.976-5.026 7.558-5.697 8.597-12.111 18.518-6.712.908-6.712.908-9.583 2.41a1127.72 1127.72 0 0 0-6.894-4.429c-.214-3.265-.214-3.265-3.353-7.712 2.505-3 2.505-3 7.364-7.46-.894-1.417-1.78-2.834-2.673-4.246.862-1.447 1.72-2.895 2.597-4.341 3.392-.363 6.883.057 10.197-1.037 5.177-1.704 9.523-4.739 14.325-7.042zm156.179-25.235c.438.434.438.434.986 3.562-1.642-.111-3.283-.22-4.925-.319-.118-.009-.283.015-.39-.023-.387-.143-.626-.449-.938-.67a494.519 494.519 0 0 0-3.636-2.584c.057-2.007.102-4.014.126-6.02.588.155 1.174.306 1.76.458.582.152 1.235.105 1.748.459.001 0 2.076 1.997 5.269 5.137zM647.076 80.787c-1.1 2.286-1.1 2.286-1.064 4.356-5.527 1.263-10.967 2.799-16.514 3.977-2.138.458-4.326.602-6.487.92.083-.48.159-.96.242-1.436 3.853-1.253 3.853-1.253 5.773-2.913-1.504-.046-3.01-.094-4.514-.133.92-1.16 1.468-2.555 2.77-3.48 1.156-.83 2.635-.884 3.954-1.315l-1.202-2.412c-5.532-1.05-5.532-1.05-7.609-1.704-.27-1.246-.55-2.487-.814-3.735.764-.77 1.525-1.543 2.289-2.315.605-.61.989-1.388 1.81-1.826.703-.373 1.493-.212 2.244-.319.932-.133 1.868-.26 2.806-.394-.587.752-1.176 1.502-1.76 2.254 1.868-.265 3.74-.52 5.608-.768-1 2.085-1 2.085-4.576 4.947 3.441-.485 5.408-.731 5.408-.731 1.946.88 1.946.88 7.158 6.417 1.94-.253 1.94-.253 4.478.61zm-25.458-1.818a307.73 307.73 0 0 1-2.592 1.52c.282 1.315.563 2.63.858 3.944a1243.084 1243.084 0 0 0-10.322 3.514c-.242.082-.555.233-.812.283-.407.081-.644-.217-.97-.323-.65-.217-1.305-.438-1.957-.658 1.053-.874 2.103-1.75 3.164-2.618-.584-.176-1.166-.358-1.748-.535.576-.86 1.153-1.713 1.729-2.572.804-.133 1.61-.264 2.415-.393.508-.082 1.039-.022 1.523-.24.602-.279.758-.863 1.137-1.297.114-.132.114-.132.617-.7.295-.328.295-.328 1.895-.574.67-.105 1.34-.206 2.014-.307 1.115.085 2.037.636 3.049.956zm636.751 103.432c33.473 34.824 33.473 34.824 36.828 45.577-1.59-1.623-3.67-3.811-5.221-5.462-.126-.137-13.01-13.87-27.352-27.584-9.985-9.544-10.932-25.034-26.14-31.14a97.36 97.36 0 0 1 4.516 5.648c-19.444-13.888-19.444-13.888-21.62-15.151 7.205 8.2 7.205 8.2 8.503 11.219-37.28-22.814-46.3-21.774-46.386-21.761-.948 4.615-2.71 13.202 19.809 19.732.587.171 45.73 28.893 29.822 43.154-6.214-4.078-6.214-4.078-9.846-5.696l-2.539 2.468c.298.952.706 2.22 1.008 3.171-1.069.414-2.494.962-3.562 1.374 17.804 14.986 17.813 15.175 18.04 20.143-.058-.017-40.511-29.444-46.861-34.429.067-.976.159-2.274.227-3.25-1.188-.91-1.188-.91-17.839-3.447 7.98 6.03 18.935 8.49 25.38 16.35l-3.665-.154c4.385 10.932 16.673 16.773 22.148 27.006-13.38 21.406-38.363-6.613-58.168-4.597 4.125 11.322 17.727 16.798 21.997 28.03-6.168 1.384-6.168 1.384-41.988-18.954a1753.64 1753.64 0 0 1-2.626 6.784c25.07 27.057 25.07 27.057 26.115 31.772-26.391-11.21-23.955-40.857-45.156-55.386-5.82.983-31.622-21.961-31.835-22.2-5.152-5.74-18.05-6.637-21.88-6.773-6.42 6.97-17.785 4.19-24.79 10.007.4 4.659.464 5.5.811 10.688-1.827 1.34-4.267 3.124-6.091 4.469-2.145-.864-5.484-1.402-7.15-2.865l-47.49-45.032c-19.556-3.776-37.031-13.022-56.805-16.214-19.542-3.158-34-20.962-56.807-14.708 7.948 26.938 47.36 3.739 60.555 24.956-.876.674-2.044 1.576-2.92 2.253.153.985.36 2.302.514 3.287-5.778 2.224-23.724 7.479-65.544 8.26-5.33-6.73-5.33-6.73-29.521-21.534-.046-8.57-14.606-15.573-26.805-19.94-.875.627-2.035 1.46-2.904 2.086.607 2.016 2.66 4.383 4.503 5.678 13.614 9.579 22.826 23.782 40.105 29.51 8.624 2.857 13.296 11.922 23.916 11.656 24.338-.608 24.338-.608 28.656 2.555-12.178 19.26-39.406 21.486-54.36 37.602 6.847 12.723 6.847 12.723 9.275 23.29-4.263 5.134-4.263 5.134-28.181 15.906.416 4.66.816 9.321 1.197 13.986-27.828 3.156-38.945 47.67-71.23 31.479-41.693-20.91-26.568-68.036-55.288-94.931 1.508-16.873-40.895-12.61-53.928-10.906-31.348 4.107-31.348 4.107-68.122-7.853-.863-1.928-2.006-4.493-2.862-6.422 3.468-5.085 6.747-9.893.743-15.092 21.6-22.165 66.547-68.292 117.376-53.234.396.904.93 2.109 1.332 3.015l-2.06 2.685c39.006 8.692 42.752 6.713 44.99 5.529-.13-.97-.3-2.269-.424-3.242 19.884-11.165 76.35 13.522 64.365-11.425-40.575-3.11-40.575-3.11-42.974-9.362 2.256-.39 5.35-.565 7.638-.437.794-.68 1.85-1.591 2.65-2.271.239.023 33.008 1.652 49.946.207-.34-.976-.783-2.278-1.126-3.253-20.287-7.118-20.287-7.118-20.884-7.87.895-.559 2.091-1.303 2.986-1.858l-2.624-2.215c-13.28 3.191-13.28 3.191-14.158 3.723 2.216.322 5.128.977 7.25 1.607-6.084 1.099-6.084 1.099-13.052-3.079-.307-.181-21.179-.42-14.496 12.502-6.9 2.854-14.64 1.247-21.661 3.452.977.564 2.274 1.314 3.25 1.88-.39.93-.913 2.175-1.3 3.104l2.247 2.67c-7.762.382-17.785-10.031-19.469-12.763-9.221-1.522-17.505-6.081-27.154-6.182-.492.895-1.146 2.087-1.63 2.98 7.577 4.384 17.213 4.38 24.78 8.79l-3.771.515c.093.972.217 2.264.308 3.235l-3.657.176c-3.436-7.482-3.436-7.482-51.95-7.637-1.258 1.654-2.486 4.138-3.077 6.056-7.533.856-9.343 2.515-13.314 6.145.649.804 1.52 1.881 2.172 2.691-11.145 6.679-11.145 6.679-36.25 6.97-.512-.848-1.188-1.975-1.698-2.82 7.783-10.177 22.288-10.756 32.264-17.8 1.644-1.159 1.738-4.2 1.48-6.03-5.178-1.75-6.444-1.977-10.98-2.658l46.364-20.481c-.415-.9-.962-2.095-1.379-2.99.452-.907 1.052-2.115 1.497-3.015 1.102-.058 2.57-.136 3.672-.196-.594.86-1.389 2.007-1.979 2.867.294.162 32.78 9.434 41.317-8.268 1.135.254 2.646.588 3.783.838 1.548-1.332 3.112-3.615 3.75-5.434 2.224-.164 5.287.173 7.355.886a2383.5 2383.5 0 0 1 5.041-5.134c-27.244-1.437-27.244-1.437-27.577-6.677 1.583-1.283 2.99-3.805 3.103-5.688-2.195-.073-5.145.11-7.31.462.084.99.2 2.313.287 3.302-2.722 2.199-2.722 2.199-9.528 5.182.026 1.025.064 2.393.092 3.42 1.658 1.335 3.661 3.32 4.967 4.93-1 .468-2.335 1.086-3.337 1.55-.018 1.92-.476 4.499-1.129 6.339a98.858 98.858 0 0 0-7.052 2.374c-5.9-2.513-5.9-2.513-10.539-8.84-16.961 4.3-16.961 4.3-21.011-3.344 16.014-8.844 26.876-24.354 46.683-28.283 14.778-2.93 48.806 4.22 52.471 8.621-7.809 2.136-15.391-.671-23.108-.544 7.25 2.05 13.304 6.406 20.706 8.157-.056-.963-.133-2.245-.188-3.207 2.227.466 5.244.94 7.524 1.165.033-.966.076-2.257.11-3.223 1.791-1.037 4.687-1.8 6.816-1.822-.51-.862-1.191-2.01-1.695-2.87l43.684-2.483c-.328-.925-.764-2.157-1.088-3.086 26.218 4.716 26.218 4.716 26.785 4.742-19.598-6.936-19.598-6.936-19.427-12.97 14.273 2.146 22.442 16.128 38.392 15.005-.097-.033-15.615-7.037-22.916-11.245 10.343 2.476 10.343 2.476 14.768 2.75-2.13-.59-4.779-2.073-6.243-3.553 7.45 1.522 14.645 3.959 22.331 4.628-4.305-2.072-4.305-2.072-18.337-5.489-.459-.884-1.075-2.062-1.53-2.946 2.365.147 5.572-.01 7.912-.426a3318.25 3318.25 0 0 0-7.654-2.37c-.273-1.018-.641-2.376-.913-3.394 5.217-.212 10.445.303 15.647-.451-2.893-2.058-6.366-3.358-9.266-5.409 22.406 6.219 43.208 16.014 65.631 22.19.769-.702 1.794-1.633 2.562-2.336 15.979.054 29.934 7.874 45.698 8.775-.915-.569-2.136-1.329-3.05-1.9 26.65 6.523 49.975 21.536 78.557 23.145-6.916-3.409-6.916-3.409-9.701-5.854.749.228 90.343 31.362 151.735 65.25-1.63-1.417-1.63-1.417-12.356-8.479 14.582 7.54 65.751 35.508 111.85 78.948-.22-.184-22.403-18.985-28.96-23.133 10.565 8.628 10.735 8.83 13.589 12.204-5.438-4.348-5.438-4.348-9.201-7.126 11.542 10.432 24.33 19.779 35.01 30.974a93.711 93.711 0 0 0-5.924-4.633l-3.358 1.279c-10.185-8.758-12.016-10.337-22.444-15.095zm-10.119 18.85c1.868 3.28 2.64 4.637 16.02 16.846-5.52-3.694-5.52-3.694-8.29-4.402-1.241-2.455-2.034-3.943-2.034-3.946-3.29-4.008-8.497-6.52-11.093-11.069-2.324-4.07-2.324-4.07-3.7-5.5-5.045-5.266-5.045-5.266-12.082-10.84-.166-.138-.415-.293-.56-.446-4.997-5.277-4.997-5.277-4.897-7.238 16.92 16.295 16.92 16.295 31.511 29.72a744.183 744.183 0 0 0-4.875-3.124zm29.2 35.417c-5.15-5.023-5.15-5.023-11.48-9.255-.104.4-.202.803-.297 1.205a785.69 785.69 0 0 1 5.59 4.457c-1.46-.737-3.082-1.228-4.39-2.183-1.826-1.328-3.21-3.025-4.829-4.527.317-.616.637-1.23.952-1.849.777.198 1.56.4 2.343.605a695.054 695.054 0 0 0-5.556-6.955c2.736 1.328 2.736 1.328 7.36 5.593 1.562 1.441 2.979 3.001 4.663 4.34 2.047 1.628 4.457 2.864 6.481 4.518.002.003 1.833 1.765 4.6 4.494a304.856 304.856 0 0 0-6.685-3.332c.419.964.838 1.926 1.248 2.889zm1.686 11.287a493.37 493.37 0 0 1 6.717 9.78c-3.714-1.144-3.714-1.144-8.303-3.43-4.695-2.336-4.695-2.336-9.573-3.29-.118-.02-.288-.02-.39-.074-.167-.09-.278-.312-.4-.446-2.553-2.859-5.099-5.642-5.099-5.642-2.674-1.795-5.95-2.614-8.783-4.147-2.878-1.558-5.517-3.419-8.296-5.101 5.16.576 6.807.824 6.81.827.013.006 4.7 2.548 13.002 7.424a356.07 356.07 0 0 0-.742-3.162c5.101 3.335 5.101 3.335 7.581 3.92.139-3.968.139-3.968-2.667-10.708 3.926.987 7.41 4.97 11.646 13.322-.5.242-1.006.478-1.503.727zm-24.48-3.158c.106.34.213.677.326 1.016-.806.475-1.602.96-2.403 1.437a540.831 540.831 0 0 0-4.354-2.672c-.102-.061-.263-.124-.345-.209-.144-.153-.27-.402-.387-.574a460.405 460.405 0 0 0-4.994-7.25l1.323.176c.279.04.568.076.851.12.272.034.561-.066.802.111 1.4 1.04 8.602 6.597 8.853 6.831.305.284.218.677.327 1.014zm-32.52.434c0 .003.855 3.22 1.896 7.721-1.153-.631-2.307-1.263-3.46-1.891-.424-.231-.949-.322-1.274-.687l-3.15-4.476c-.415-.763-.402-1.617-.612-2.425.956-.262 1.913-.525 2.872-.79.548.376 1.104.75 1.656 1.129.374.251.374.251 1.307.895.252.174.61.236.764.524zm1.796 49.763c-3.048 3.466-3.048 3.466-3.019 3.936.184 3.098.301 5.93.301 5.93-.009.018-1.43 2.436-7.014 8.771-14.08-9.28-14.08-9.28-25.76-14.911-.258-.126-.652-.235-.867-.418-.22-.193-.238-.607-.34-.867a396.855 396.855 0 0 0-4.546-11.019c.42-.761.828-1.529 1.238-2.293 2.166 1.263 4.056 2.888 6.486 3.813 1.006.386 1.926-.162 2.89-.242 2.908-.234 2.908-.234 8.176 2.426 1.41-.947 2.818-1.882 4.229-2.82 1.449.739 2.496 2.072 4.329 2.243 2.395.224 4.512-.827 6.776-1.205a528.249 528.249 0 0 1 7.121 6.656zm-103.883-46.405c46.822 31.43 47.149 39.913 47.44 47.399-2.927-1.518-6.342-2.297-8.813-4.497l-15.656-17.317c-2.794-3.513-4.19-7.784-7.552-10.991-.016-.016-6.656-5.227-18.499-13.846 1.025-.25 2.052-.5 3.08-.748zm82.303 69.08s1.624 1.803 4.2 4.732c-8.11-3.933-16.75-7.016-24.438-11.624-.35-.212-.732-.606-1.044-.866a703.189 703.189 0 0 0-13.493-10.87c6.532 1.709 6.532 1.709 15.074 7.323 2.89 1.896 5.586 4.019 8.618 5.758 3.562 2.045 7.56 3.435 11.083 5.546zm138.705 98.656c2.885 6.507 2.885 6.507 8.671 18.62-2.794-3.34-6.154-6.294-8.519-9.924-3.437-5.27-4.261-11.634-8.695-16.493-4.754-5.196-6.882-5.592-10.411-6.243-.624-.115-.624-.115-1.716-1.339-8.234-9.225-9.946-10.638-11.76-12.137-.143-.117-.331-.272-.473-.386a378.217 378.217 0 0 0-3.68-2.995c-.41-.33-.86-.856-1.177-1.261 2.792.368 2.792.368 5.539-2.612-11.916-13.079-11.916-13.079-21.898-21.234-.219-.183-.552-.383-.727-.596-3.246-3.9-4.028-8.765-6.38-13.016 8.723 4.72 8.927 4.963 9.108 5.176 3.552 4.24 4.215 9.627 7.077 14.143 12.395 1.706 13.407 1.846 37.574 32.853 4.103 5.265 4.906 11.654 7.467 17.444zm-86.329-113.477a473.836 473.836 0 0 1 3.112 6.212c-1.127.67-2.243 1.356-3.354 2.047-1.569-.985-3.35-1.712-4.726-2.934-.858-.763-1.093-1.823-1.645-2.73l-.764-1.263c-.3-.49-.357-1.094-.898-1.466-.006-.003-2.592-1.337-8.38-4.165.85-.468 1.712-.928 2.565-1.389a520.018 520.018 0 0 1 8.976 5.046c.214.123.476.31.702.402.086.037.226.012.323.018 1.362.06 2.726.14 4.089.222zm-8.047-13.112c.003.002 1.832 2.466 5.423 7.51-.514-.313-1.027-.63-1.538-.945-.08-.05-.08-.05-10.116-10.737-.695-.742-.695-.742-10.055-4.171-.507-3.984-.507-3.984-6.42-12.805.825-1.367 1.631-2.744 2.439-4.121 5.209 3.958 8.201 6.307 8.201 6.307 1.264 2.282.847 2.987-1.16 6.377 4.22 4.353 9.114 8.15 13.226 12.585zm-4.071 33.65c-1.654-.01-3.31.007-4.96.02 1.94 2.85 3.044 4.495 4.911 7.335-1.187-.662-2.565-1.053-3.569-1.97-1.827-1.679-3.103-3.72-4.667-5.571-.938 1.406-1.877 2.814-2.82 4.218a419.07 419.07 0 0 0-3.957-2.255c-.343-.195-.809-.228-1.034-.586l-1.649-4.108c-.252-1.163.003-2.334-.007-3.5 2.195-1.06 4.399-2.11 6.604-3.146l.054 2.806a489.197 489.197 0 0 1 11.08 4.368c.003.797.01 1.59.014 2.388zm24.093 18.99c.016.011 3.328 2.559 10.6 8.527-.036.681-.06 1.366-.104 2.044-7.855-6.558-7.855-6.558-13.185-9.065-.88-.413-7.282-4.657-7.314-4.685-.406-.365-.27-.87-.409-1.303-.146-.44-.285-.877-.428-1.317 2.397 1.662 4.612 3.51 7.134 5.025.561.336 1.237.249 1.855.377.62.127 1.306.008 1.85.396zM612.793 4.885c14.104-.517 14.104-.517 15.902.015-11.682 3.292-11.746 3.34-12.237 3.703-4.41 3.263-6.824 7.983-10.85 11.523-12.898 11.326-12.898 11.326-27.65 22.295a590.438 590.438 0 0 0 4.122 3.714c-29.895 9.459-29.895 9.459-38.14 14.106-7.385 4.16-16.055 5.736-23.682 9.408-11.435 5.503-17.871 16.193-29.103 21.903-4.906 2.498-9.937.266-14.905.48-2.883-8.646-2.883-8.646 3.401-17.087 4.54-6.105 13.11-7.498 18.602-12.488.467-.423 1.058-1.063 1.285-1.617a802.588 802.588 0 0 1-2.966-2.932c3.226-4.372 6.32-8.816 9.484-13.222-8.44 1.231-16.496 4.365-25.207 4.272 8.714-5.707 9.427-6.175 9.678-7.778-.51-.025-1.192-.054-1.703-.08 23.501-8.342 45.622-19.515 69.502-27.084l33.138-9.53c7.668-1.784 10.248-2.384 27.039-4.487.879.816 1.571 1.418 2.239 2.003-6.76 1.187-6.76 1.187-7.95 2.882zM313.947 260.833c4.07-1.98 4.07-1.98 15.873-4.257-4.916 2.85-9.596 6.004-14.533 8.828l-6.512 3.203c-4.396 2.135-6.543 2.144-8.108 2.144 5.9-2.995 5.9-2.995 6.373-4.3.332-.907.08-1.977 1-2.725 1.705-1.389 3.934-1.934 5.907-2.893zm-64.857 28.444c3.166-1.013 4.907-3.58 7.409-5.316 2.44-1.693 4.88-3.391 7.314-5.099.35.291.695.585 1.038.882 8.005-3.691 14.921-6.878 20.978-7.02-.617.708-1.229 1.421-1.84 2.139.776-.015 1.556.276 2.326-.057 1.386-.604 2.274-1.776 3.588-2.457 2.604-1.342 5.512-2.136 8.066-3.566 1.037-.578.843-1.644 1.27-2.46-30.096 7.674-38.188 9.738-50.149 22.954zM598.672 51.746c.436 1.27.89 2.534 1.348 3.799a1012.43 1012.43 0 0 0-10.999 5.103c-.263.122-.596.333-.876.412-.168.044-.397.042-.568.061-6.141.686-7.247.812-15.329 1.996-.686-.522-1.384-1.041-2.077-1.563l3.142-1.751c-.774-.228-1.541-.456-2.316-.687 1.15-.889 1.975-2.102 3.45-2.664 1.61-.61 3.323-.366 4.99-.543-.255.767-.503 1.535-.745 2.303 2.955-.602 2.955-.602 3.922-1.216 1.242-.788 2.248-1.87 3.732-2.356 1.06-.348 2.193-.379 3.277-.635 3.029-.711 6.03-1.52 9.049-2.26zm185.232-27.48c5.993 1.854 5.993 1.854 7.452 2.824-7.835-.903-7.835-.903-10.145-1.659-2.387-.782-2.387-.782-2.78-.804-.79-.04-1.59.034-2.364-.13-1.878-.393-3.59-1.165-5.386-1.75.332-.409.657-.82.977-1.236-.926-.813-1.85-1.627-2.786-2.44.533-.24 1.07-.478 1.606-.717-.901-.474-1.812-.945-2.713-1.417.043-.681.08-1.36.106-2.045l-2.716-.827c-.018-.347-.03-.693-.053-1.038 1.795-.823 1.795-.823 4.12-3.203 5.411-.061 5.411-.061 7.597-1 .08-.503.155-1.008.22-1.516 3.95.286 3.95.286 7.573 1.864-5.022 2.03-6.862 2.892-10.198 4.457.155.708.3 1.418.432 2.133l.766 3.676c.11.09.274.197.388.284 5.164 3.697 5.164 3.697 7.904 4.544zM431.848 85.3c5.793 1.265 5.793 1.265 7.949 4.295-6.403 3.75-6.403 3.75-15.012 5.216-4.064 6.044-4.064 6.044-4.262 9.34-10.613 1.854-10.613 1.854-13.75 4.264 1.401.519 2.802 1.035 4.195 1.564-3.805 2.178-7.396 4.238-14.593 4.026-1.773-1.865-1.773-1.865-4.989-3.327-6.087 2.343-12.006 5.037-18.233 7.087.98-1.664 1.516-2.582 21.09-11.117 7.479-3.264 13.445-8.443 20.262-12.54-3.13-2.345-3.13-2.345-5.994-5.49-4.523.077-4.523.077-7.05 1.531-3.96 2.274-3.96 2.274-7.881 3.533-6.554 2.104-13.107 4.223-19.675 6.287 3.174-7.434 8.757-10.256 29.523-20.764.004 0 24.552-7.294 27.901-8.285-2.71 4.873-2.71 4.873-4.188 7.254 5.571-.412 7.65-.536 12.97-.807.723.864 1.457 1.72 2.195 2.577-4.674 2.37-5.643 2.864-10.458 5.356zm-103.93 22.795c-2.53 2.662-2.53 2.662-13.778 12.145a253.92 253.92 0 0 1 4.142 1.921c-8.764 4.388-16.626 10.15-26.082 13.488-14 4.936-25.772 13.32-38.764 19.812a384.272 384.272 0 0 1 4.989-5.512 1124.08 1124.08 0 0 0-7.61 4.105c.46-1.6 1.68-5.855 23.411-16.999-5.225 1.061-8.325 1.779-8.334 1.782-7.684 3.409-14.575 8.015-22.076 11.706 1.39-1.829 1.39-1.829 14.28-11.156 5.73-4.147 10.89-8.887 16.937-12.703.058-.038 6.852-4.083 22.008-9.738.986 2.124.986 2.124 1.431 2.504 9.537-2.076 9.537-2.076 14.692-3.816 5.375-1.812 9.433-5.646 14.754-7.54zm222.758-96.478s.197.035 3.825 1.224c-19.028 8.4-39.175 14.435-58.562 22.074-16.602 6.541-30.907 16.759-47.432 23.423-6.024 2.43-12.586 3.17-18.85 4.838 21.815-11.308 21.815-11.308 27.893-15.006-12.317 4.014-12.317 4.014-20.312 5.96 10.832-7.84 24.235-13.631 33.103-17.464-.255.607-.5 1.213-.736 1.824a1983.34 1983.34 0 0 1 8.079-2.515c.306-1.057.384-1.325.815-2.583 45.62-15.39 47.12-15.75 72.177-21.775zM437.986 62.57c.434.32.875.637 1.309.959-9.524 5.916-9.524 5.916-44.708 15.309 17.536-11.053 17.536-11.053 26.033-13.162a998.665 998.665 0 0 0-6.686 4.12c2.27-.502 2.27-.502 24.052-7.226zm-12.212 76.778c.297 1.071.611 2.141.925 3.208-.592.648-1.187 1.292-1.777 1.939-.377.413-.55.961-1.122 1.23-.296.14-.752.179-1.074.255a989.194 989.194 0 0 0-6.54 1.562c-.098-.459-.193-.92-.288-1.381-3.765 1.482-7.346 3.321-11.266 4.49-.988.299-1.862-.191-2.795-.285 17.728-14.297 17.728-14.297 21.18-15.512-2.806 4.1-2.806 4.1-3.439 6.176 2.067-.565 4.126-1.13 6.196-1.682zm-57.27-48.235c-5.118 2.7-7.49 3.97-12.017 6.415l2.77-.191c-7.984 5.344-7.984 5.344-21.652 12.688.758-1.112 1.43-2.08 2.442-3.478-1.093.154-2.191.307-3.286.47 3.347-3.954 6.09-3.997 7.562-4.014 1.083-.015 1.102-.015 6.237-3.576 1.748-1.21 2.794-3.062 4.774-4.056.006-.003 4.668-1.573 13.17-4.258zm-6.94 6.89c15.212-12.41 19.856-13.27 29.101-14.972-5.174 2.88-10.159 6.026-15.446 8.745-.664.344-1.387.126-2.082.193-.552.053-.552.053-3.096 1.6-7.037 4.282-7.037 4.282-8.477 4.434zm-4.11-9.872c2.917-1.933 2.917-1.933 7.727-2.992-3.603 1.998-6.938 4.372-10.767 6.05-35.559 15.597-35.559 15.597-37.786 15.244-.12-.339-.24-.678-.355-1.023 11.397-7.355 18.277-11.798 27.041-13.346a485.17 485.17 0 0 0-5.665 4.215c9.005-3.478 9.005-3.478 15.15-7.803 3.877-2.728 3.877-2.728 10.338-5.375-1.827 1.716-4.542 2.463-6.176 4.398.168.206.333.418.493.632zm38.73-15.186c-18.038 10.658-18.038 10.658-26.095 12.954a719.161 719.161 0 0 1 5.158-3.3c-1.688.466-3.375.935-5.064 1.407a447.695 447.695 0 0 1 6.136-4.645c1.29-.64 2.765.008 4.072-.503 3.902-1.52 7.339-3.804 11.172-5.438 0 0 1.636-.184 4.621-.475zm-3.491 4.078c.547-.25 1.137-.118 1.708-.172-1.919 1.416-3.652 3.029-5.721 4.284-1.138.689-2.479.96-3.713 1.443a67.901 67.901 0 0 0-1.738-.605 979.926 979.926 0 0 1 9.464-4.95z"/>
        <g fill="#F2F2F2">
            <path d="M695.658 182.318c-4.35-2.216-11.191-1.853-15.285.812-4.093 2.66-3.883 6.615.468 8.831 4.349 2.214 11.19 1.851 15.281-.81 4.094-2.661 3.885-6.617-.464-8.833"/>
            <path d="M678.204 193.674c-5.887-2.997-6.172-8.368-.634-11.972 5.538-3.603 14.834-4.094 20.72-1.096 5.888 2.998 6.171 8.37.635 11.97-5.537 3.605-14.834 4.098-20.72 1.098m21.446-13.95c-6.685-3.405-17.238-2.847-23.524 1.243-6.285 4.089-5.963 10.187.722 13.59 6.68 3.404 17.23 2.846 23.517-1.244 6.286-4.091 5.965-10.19-.715-13.59"/>
            <path d="M674.092 196.353c-8.296-4.228-8.7-11.797-.893-16.878 7.806-5.079 20.909-5.774 29.207-1.547 8.295 4.226 8.697 11.796.888 16.876-7.806 5.081-20.903 5.775-29.202 1.55m28.994-18.866c-8.7-4.432-22.427-3.704-30.609 1.62-8.177 5.322-7.758 13.256.936 17.687 8.696 4.429 22.424 3.701 30.605-1.621 8.181-5.324 7.762-13.258-.932-17.686M1179.73 209.872c-4.057-5.704-12.987-9.787-19.952-9.124-6.963.665-9.32 5.826-5.262 11.53 4.056 5.7 12.985 9.783 19.948 9.12 6.962-.662 9.318-5.825 5.266-11.526"/>
            <path d="M1150.031 212.704c-5.49-7.717-2.288-14.729 7.134-15.628 9.422-.9 21.555 4.649 27.043 12.368 5.49 7.72 2.29 14.729-7.131 15.625-9.418.902-21.556-4.648-27.046-12.365m36.489-3.48c-6.232-8.762-20.005-15.061-30.7-14.04-10.697 1.02-14.33 8.977-8.095 17.742 6.229 8.758 19.998 15.055 30.695 14.036 10.697-1.022 14.33-8.98 8.1-17.738"/>
            <path d="M1143.033 213.372c-7.736-10.88-3.23-20.761 10.053-22.029 13.284-1.268 30.386 6.552 38.123 17.432 7.738 10.88 3.225 20.76-10.06 22.027-13.28 1.27-30.379-6.55-38.116-17.43m49.332-4.707c-8.112-11.403-26.031-19.598-39.949-18.267-13.916 1.328-18.644 11.684-10.537 23.084 8.107 11.403 26.023 19.595 39.946 18.267 13.922-1.327 18.648-11.685 10.54-23.084M1239.005 392.737c-3.118-3.517-9.373-5.601-13.975-4.66-4.605.946-5.807 4.56-2.687 8.078 3.118 3.517 9.37 5.598 13.973 4.655 4.603-.944 5.805-4.559 2.689-8.073"/>
            <path d="M1219.379 396.76c-4.222-4.757-2.587-9.67 3.64-10.946 6.23-1.276 14.726 1.555 18.948 6.315 4.218 4.76 2.585 9.67-3.64 10.945-6.228 1.28-14.728-1.552-18.948-6.314m24.114-4.945c-4.79-5.402-14.439-8.619-21.507-7.169-7.069 1.45-8.924 7.028-4.13 12.43 4.784 5.402 14.432 8.616 21.501 7.163 7.07-1.45 8.925-7.025 4.136-12.424"/>
            <path d="M1214.752 397.713c-5.944-6.71-3.645-13.632 5.134-15.434 8.778-1.801 20.76 2.19 26.708 8.899 5.947 6.706 3.644 13.63-5.138 15.432-8.779 1.803-20.757-2.19-26.704-8.897m32.606-6.689c-6.236-7.035-18.787-11.216-27.99-9.327-9.194 1.887-11.607 9.145-5.378 16.173 6.233 7.03 18.787 11.211 27.986 9.324 9.2-1.887 11.615-9.142 5.382-16.17M841.992 123.874c-4.631-2.361-11.919-1.975-16.278.862-4.36 2.835-4.137 7.046.497 9.405 4.632 2.36 11.917 1.972 16.276-.86 4.36-2.838 4.136-7.05-.495-9.407"/>
            <path d="M823.404 135.966c-6.27-3.19-6.572-8.912-.674-12.75 5.897-3.838 15.795-4.361 22.067-1.167 6.268 3.192 6.57 8.914.673 12.748-5.894 3.838-15.798 4.363-22.066 1.17m22.838-14.86c-7.116-3.623-18.354-3.03-25.05 1.325-6.695 4.357-6.35 10.852.77 14.475 7.115 3.624 18.348 3.03 25.044-1.325 6.695-4.36 6.352-10.852-.764-14.475"/>
            <path d="M819.024 138.82c-8.834-4.503-9.265-12.566-.95-17.976 8.314-5.41 22.267-6.15 31.102-1.647 8.837 4.5 9.264 12.562.948 17.972-8.311 5.413-22.261 6.151-31.1 1.65m30.878-20.093c-9.265-4.717-23.884-3.942-32.597 1.728-8.708 5.666-8.261 14.118.998 18.833 9.262 4.719 23.878 3.944 32.592-1.723 8.713-5.67 8.265-14.122-.993-18.838M691.934 77.934c-5.37-2.735-13.813-2.288-18.866 1-5.051 3.286-4.793 8.165.579 10.902 5.365 2.73 13.81 2.284 18.861-1 5.05-3.288 4.792-8.168-.574-10.902"/>
            <path d="M670.391 91.95c-7.268-3.7-7.617-10.33-.78-14.778 6.834-4.446 18.306-5.053 25.573-1.353 7.265 3.701 7.616 10.329.78 14.774-6.832 4.448-18.307 5.056-25.573 1.356m26.47-17.22c-8.25-4.2-21.273-3.513-29.033 1.536-7.756 5.047-7.359 12.574.891 16.775 8.244 4.2 21.264 3.51 29.026-1.538 7.757-5.05 7.36-12.574-.885-16.774"/>
            <path d="M665.316 95.255c-10.238-5.218-10.736-14.562-1.104-20.831 9.637-6.271 25.807-7.128 36.049-1.91 10.24 5.218 10.734 14.558 1.097 20.83-9.635 6.27-25.8 7.127-36.042 1.911M701.1 71.97c-10.739-5.467-27.678-4.571-37.777 2-10.092 6.568-9.573 16.362 1.153 21.83 10.735 5.468 27.677 4.57 37.776-2 10.096-6.573 9.579-16.365-1.152-21.83M802.475 50.563c-4.874-2.482-12.542-2.075-17.13.908-4.587 2.983-4.353 7.414.523 9.9 4.875 2.48 12.541 2.075 17.127-.91 4.587-2.984 4.353-7.414-.52-9.898"/>
            <path d="M782.914 63.29c-6.598-3.36-6.915-9.38-.708-13.418 6.205-4.037 16.621-4.589 23.22-1.228 6.598 3.36 6.915 9.379.708 13.415-6.203 4.038-16.621 4.59-23.22 1.23m24.035-15.636c-7.49-3.815-19.317-3.188-26.361 1.394-7.045 4.585-6.683 11.418.809 15.233 7.485 3.813 19.307 3.187 26.355-1.396 7.045-4.587 6.683-11.419-.803-15.231"/>
            <path d="M778.306 66.291c-9.297-4.737-9.75-13.221-1.002-18.913 8.748-5.694 23.433-6.473 32.733-1.735 9.299 4.734 9.744 13.22.995 18.913-8.747 5.695-23.429 6.471-32.726 1.735m32.492-21.144c-9.748-4.964-25.131-4.15-34.3 1.817-9.165 5.964-8.694 14.857 1.047 19.821 9.747 4.965 25.131 4.15 34.3-1.815 9.167-5.967 8.697-14.86-1.047-19.823M265.971 175.144c-4.092-.77-9.605 1.168-12.316 4.33-2.712 3.163-1.593 6.348 2.5 7.118 4.09.768 9.601-1.17 12.313-4.332 2.711-3.162 1.592-6.349-2.497-7.116"/>
            <path d="M254.406 188.625c-5.537-1.036-7.055-5.366-3.385-9.646 3.667-4.277 11.157-6.911 16.694-5.87 5.538 1.042 7.057 5.37 3.388 9.646-3.667 4.277-11.16 6.912-16.697 5.87m14.21-16.566c-6.286-1.181-14.788 1.808-18.954 6.666-4.165 4.855-2.438 9.77 3.849 10.951 6.281 1.181 14.78-1.808 18.947-6.666 4.165-4.857 2.442-9.77-3.842-10.951"/>
            <path d="M251.682 191.806c-7.802-1.468-9.947-7.567-4.776-13.6 5.172-6.03 15.73-9.743 23.537-8.277 7.801 1.466 9.942 7.569 4.768 13.6-5.169 6.033-15.725 9.744-23.53 8.277m19.21-22.402c-8.181-1.538-19.24 2.354-24.66 8.676-5.419 6.319-3.174 12.713 5.003 14.25 8.178 1.54 19.24-2.352 24.66-8.672 5.42-6.321 3.175-12.716-5.003-14.254M366.69 400.2c-2.767-1.408-7.116-1.18-9.72.517-2.602 1.69-2.47 4.204.298 5.615 2.765 1.408 7.115 1.177 9.72-.513 2.6-1.693 2.469-4.208-.297-5.62"/>
            <path d="M355.592 407.42c-3.745-1.904-3.926-5.32-.403-7.611 3.521-2.292 9.433-2.603 13.176-.697 3.746 1.907 3.926 5.322.402 7.611-3.52 2.294-9.432 2.605-13.175.697m13.638-8.87c-4.25-2.165-10.962-1.81-14.958.791-3.999 2.6-3.794 6.477.458 8.642 4.247 2.163 10.957 1.81 14.955-.79 3.999-2.603 3.793-6.48-.455-8.643"/>
            <path d="M352.976 409.125c-5.275-2.687-5.532-7.504-.57-10.733 4.966-3.231 13.298-3.671 18.576-.985 5.275 2.69 5.53 7.503.564 10.732-4.964 3.232-13.293 3.675-18.57.986m18.438-11.997c-5.533-2.818-14.262-2.355-19.464 1.03-5.2 3.385-4.934 8.432.596 11.246 5.529 2.818 14.26 2.356 19.461-1.03 5.204-3.383 4.937-8.43-.593-11.246M768.08 302.294c-2.766-1.41-7.116-1.18-9.719.516-2.604 1.69-2.47 4.205.297 5.616 2.766 1.407 7.117 1.176 9.719-.516 2.601-1.693 2.47-4.209-.296-5.616"/>
            <path d="M756.982 309.514c-3.743-1.905-3.926-5.322-.402-7.613 3.521-2.29 9.432-2.603 13.176-.697 3.745 1.906 3.924 5.324.402 7.613-3.52 2.292-9.433 2.605-13.176.697m13.637-8.871c-4.25-2.165-10.96-1.81-14.957.792-3.999 2.6-3.795 6.477.46 8.642 4.245 2.163 10.954 1.81 14.953-.791 4-2.603 3.794-6.481-.456-8.643"/>
            <path d="M754.366 311.218c-5.276-2.688-5.532-7.503-.57-10.733 4.968-3.23 13.298-3.67 18.576-.984 5.276 2.687 5.53 7.503.565 10.732-4.964 3.232-13.294 3.674-18.57.985m18.437-11.998c-5.532-2.816-14.262-2.353-19.464 1.032-5.201 3.384-4.932 8.432.594 11.247 5.53 2.817 14.261 2.355 19.463-1.032 5.204-3.384 4.936-8.43-.593-11.247M165.885 273.253c-6.308-1.453-14.999 1.213-19.41 5.958-4.414 4.742-2.876 9.766 3.434 11.217 6.31 1.45 14.996-1.214 19.41-5.956 4.413-4.744 2.875-9.766-3.434-11.22"/>
            <path d="M147.067 293.48c-8.54-1.963-10.627-8.785-4.657-15.202 5.969-6.42 17.773-10.042 26.314-8.076 8.54 1.966 10.629 8.786 4.659 15.204-5.968 6.417-17.778 10.042-26.316 8.074m23.122-24.852c-9.694-2.233-23.095 1.88-29.873 9.168-6.778 7.284-4.405 15.028 5.292 17.259 9.689 2.232 23.087-1.88 29.866-9.166 6.778-7.29 4.405-15.032-5.285-17.261"/>
            <path d="M142.635 298.253c-12.034-2.773-14.984-12.387-6.57-21.436 8.419-9.048 25.057-14.157 37.096-11.385 12.035 2.77 14.978 12.387 6.561 21.435-8.415 9.048-25.052 14.157-37.087 11.386m31.257-33.608c-12.616-2.904-30.051 2.447-38.872 11.931-8.815 9.478-5.728 19.557 6.883 22.461 12.615 2.905 30.048-2.445 38.868-11.929 8.82-9.48 5.733-19.56-6.879-22.463M446.904 316.857c-5.77-2.94-14.846-2.459-20.276 1.074-5.43 3.53-5.151 8.778.62 11.716 5.77 2.939 14.843 2.458 20.273-1.073s5.15-8.777-.617-11.717"/>
            <path d="M423.75 331.92c-7.809-3.975-8.186-11.1-.838-15.88 7.344-4.782 19.675-5.432 27.485-1.455 7.81 3.976 8.187 11.102.838 15.88-7.341 4.779-19.675 5.434-27.485 1.455m28.45-18.509c-8.866-4.514-22.865-3.774-31.204 1.653-8.34 5.425-7.911 13.514.96 18.03 8.858 4.514 22.853 3.773 31.194-1.653 8.34-5.428 7.911-13.516-.95-18.03"/>
            <path d="M418.296 335.474c-11.004-5.608-11.54-15.65-1.185-22.388 10.355-6.742 27.736-7.66 38.745-2.054 11.006 5.606 11.536 15.648 1.177 22.387-10.353 6.742-27.73 7.663-38.737 2.055m38.46-25.026c-11.54-5.88-29.748-4.913-40.602 2.15-10.848 7.06-10.29 17.586 1.241 23.461 11.538 5.876 29.745 4.912 40.6-2.149 10.851-7.063 10.295-17.59-1.238-23.462M369.703 273.738c-3.86-1.967-9.931-1.644-13.563.72-3.63 2.36-3.445 5.868.415 7.834 3.858 1.963 9.928 1.645 13.56-.717 3.63-2.364 3.445-5.872-.412-7.837"/>
            <path d="M354.217 283.812c-5.224-2.659-5.476-7.424-.562-10.623 4.913-3.196 13.16-3.632 18.384-.972 5.222 2.66 5.475 7.425.562 10.621-4.911 3.197-13.163 3.634-18.384.974m19.025-12.38c-5.926-3.018-15.29-2.523-20.868 1.105-5.576 3.63-5.291 9.041.643 12.06 5.923 3.02 15.285 2.523 20.862-1.105 5.577-3.63 5.291-9.04-.637-12.06"/>
            <path d="M350.569 286.189c-7.362-3.75-7.718-10.467-.794-14.975 6.926-4.508 18.551-5.123 25.915-1.374 7.36 3.753 7.715 10.468.787 14.976-6.925 4.508-18.547 5.122-25.908 1.373m25.723-16.739c-7.719-3.932-19.897-3.286-27.157 1.438-7.254 4.723-6.882 11.763.832 15.692 7.716 3.931 19.893 3.286 27.153-1.438 7.258-4.723 6.886-11.764-.828-15.692M1011.611 173.454c-2.73-2.482-7.795-3.58-11.31-2.452-3.513 1.13-4.145 4.057-1.413 6.537 2.733 2.48 7.794 3.576 11.31 2.45 3.512-1.128 4.146-4.055 1.413-6.535"/>
            <path d="M996.626 178.264c-3.699-3.357-2.84-7.332 1.915-8.86 4.755-1.526 11.632-.036 15.333 3.323 3.698 3.36 2.839 7.334-1.916 8.857-4.754 1.527-11.635.038-15.332-3.32m18.412-5.913c-4.199-3.81-12.006-5.503-17.404-3.77s-6.373 6.245-2.172 10.06c4.195 3.808 12.002 5.501 17.401 3.769 5.397-1.735 6.374-6.246 2.175-10.059"/>
            <path d="M993.093 179.4c-5.21-4.734-4.003-10.337 2.7-12.49 6.703-2.153 16.399-.051 21.612 4.682 5.215 4.733 4.002 10.336-2.703 12.488-6.702 2.153-16.396.054-21.609-4.68m24.895-7.994c-5.465-4.963-15.622-7.162-22.648-4.906-7.022 2.254-8.293 8.125-2.83 13.086 5.466 4.961 15.623 7.163 22.648 4.906 7.024-2.256 8.295-8.126 2.83-13.086M991.031 54.565c-3.287-1.676-8.461-1.402-11.555.612-3.094 2.013-2.937 5.002.352 6.677 3.288 1.674 8.46 1.4 11.555-.612 3.093-2.014 2.936-5.002-.352-6.677"/>
            <path d="M977.836 63.15c-4.451-2.266-4.666-6.328-.479-9.052 4.187-2.724 11.215-3.097 15.665-.829 4.451 2.268 4.667 6.327.48 9.052-4.185 2.723-11.216 3.096-15.666.828M994.05 52.6c-5.053-2.573-13.032-2.15-17.784.941-4.752 3.092-4.508 7.702.546 10.278 5.049 2.573 13.026 2.15 17.78-.943 4.753-3.094 4.51-7.703-.542-10.276"/>
            <path d="M974.727 65.175c-6.271-3.198-6.578-8.92-.676-12.761 5.903-3.84 15.808-4.366 22.082-1.17 6.274 3.196 6.574 8.92.671 12.76-5.9 3.84-15.804 4.367-22.077 1.171m21.92-14.264c-6.577-3.35-16.956-2.8-23.14 1.225-6.183 4.025-5.867 10.024.706 13.374 6.575 3.349 16.954 2.798 23.139-1.227 6.186-4.025 5.87-10.024-.705-13.372M159.153 280.597a.731.731 0 0 1-.578-1.175c.032-.043.82-1.07 2.347-2.845a.729.729 0 0 1 1.03-.077.733.733 0 0 1 .077 1.03c-1.496 1.74-2.289 2.77-2.296 2.78a.726.726 0 0 1-.58.287M255.952 227.815a.73.73 0 0 1-.035-1.46c2.439-.124 4.898-.166 7.358-.127a.732.732 0 0 1-.012 1.462h-.012c-2.426-.034-4.851.003-7.261.125h-.038zm21.871 1.09a.724.724 0 0 1-.11-.008 111.22 111.22 0 0 0-7.21-.845.728.728 0 0 1-.668-.788.72.72 0 0 1 .787-.668c2.43.204 4.89.491 7.31.857a.73.73 0 0 1-.109 1.453zm-36.378.63a.731.731 0 0 1-.13-1.45c2.406-.446 4.854-.82 7.27-1.106a.731.731 0 0 1 .172 1.45c-2.387.284-4.801.65-7.177 1.094a.686.686 0 0 1-.135.011zm50.658 2.46a.79.79 0 0 1-.2-.025 116.464 116.464 0 0 0-7.048-1.759.735.735 0 0 1-.56-.871.738.738 0 0 1 .871-.56c2.359.513 4.76 1.111 7.135 1.782a.729.729 0 0 1-.198 1.433zm-64.824 1.125a.731.731 0 0 1-.222-1.428c2.341-.75 4.72-1.433 7.072-2.029a.73.73 0 0 1 .358 1.418c-2.321.59-4.67 1.263-6.984 2.003a.701.701 0 0 1-.224.036zm78.633 3.66a.73.73 0 0 1-.276-.054 131.394 131.394 0 0 0-6.8-2.575.73.73 0 0 1-.448-.931.722.722 0 0 1 .927-.45c2.284.793 4.597 1.669 6.873 2.604a.732.732 0 0 1-.276 1.406zm-92.264 1.614a.73.73 0 0 1-.302-1.396 132.727 132.727 0 0 1 6.777-2.853.732.732 0 0 1 .527 1.365 130.098 130.098 0 0 0-6.703 2.818.701.701 0 0 1-.3.066zm105.476 4.635a.74.74 0 0 1-.343-.084 150.2 150.2 0 0 0-6.496-3.278.733.733 0 0 1-.348-.973.728.728 0 0 1 .973-.348 151.398 151.398 0 0 1 6.559 3.308.731.731 0 0 1-.345 1.375zm-118.446 2.118a.729.729 0 0 1-.37-1.36 140.995 140.995 0 0 1 6.429-3.564.727.727 0 0 1 .984.31c.186.358.047.8-.31.986a141.1 141.1 0 0 0-6.365 3.53.715.715 0 0 1-.368.098zm131.01 5.356a.718.718 0 0 1-.398-.12 174.645 174.645 0 0 0-6.174-3.859.732.732 0 0 1 .748-1.257 175.558 175.558 0 0 1 6.224 3.896c.338.22.434.672.21 1.01a.73.73 0 0 1-.61.33zm-143.243 2.668a.733.733 0 0 1-.43-1.323 157.92 157.92 0 0 1 6.048-4.176.73.73 0 1 1 .802 1.222 155 155 0 0 0-5.992 4.137.73.73 0 0 1-.428.14zm155.15 5.82a.733.733 0 0 1-.445-.153 195.673 195.673 0 0 0-5.85-4.34.73.73 0 1 1 .847-1.191 194.389 194.389 0 0 1 5.895 4.375.73.73 0 0 1-.447 1.308zm-166.598 3.296a.731.731 0 0 1-.48-1.282 166.375 166.375 0 0 1 5.65-4.707.73.73 0 0 1 1.025.115.736.736 0 0 1-.115 1.03 166.594 166.594 0 0 0-5.6 4.664.728.728 0 0 1-.48.18zm177.873 6.015a.728.728 0 0 1-.482-.183 232.35 232.35 0 0 0-5.543-4.733.731.731 0 0 1 .93-1.129 234.93 234.93 0 0 1 5.578 4.766.728.728 0 0 1 .066 1.03.719.719 0 0 1-.55.249zm-188.473 4.077a.74.74 0 0 1-.507-.202.732.732 0 0 1-.02-1.034c1.666-1.74 3.42-3.484 5.215-5.19a.729.729 0 1 1 1.003 1.058 160.497 160.497 0 0 0-5.165 5.144.718.718 0 0 1-.526.224zM362.971 275.774a.727.727 0 0 1-.505-.205c-.88-.85-1.763-1.685-2.64-2.507a.733.733 0 0 1-.037-1.035.728.728 0 0 1 1.03-.033c.886.827 1.772 1.669 2.66 2.523a.732.732 0 0 1-.508 1.257M621.886 178.501h-.03a218.454 218.454 0 0 0-7.275-.168.732.732 0 0 1 .006-1.462h.003c2.407.015 4.872.072 7.326.17a.73.73 0 0 1-.03 1.46m-21.89.27a.732.732 0 0 1-.047-1.463c2.407-.16 4.868-.28 7.316-.353.411.007.74.307.753.71a.731.731 0 0 1-.71.751c-2.43.073-4.872.19-7.262.351l-.05.003m36.454.792a.681.681 0 0 1-.076-.004c-2.419-.251-4.858-.47-7.251-.645a.732.732 0 0 1-.676-.78.734.734 0 0 1 .78-.677c2.41.175 4.864.395 7.297.65a.73.73 0 0 1-.074 1.456m-50.958.747a.731.731 0 0 1-.105-1.454c2.385-.35 4.828-.658 7.263-.917a.73.73 0 0 1 .803.652c.044.4-.248.76-.648.801-2.414.258-4.84.563-7.207.911a.636.636 0 0 1-.106.007m65.43 1.196a.663.663 0 0 1-.12-.01 256.798 256.798 0 0 0-7.2-1.073.732.732 0 0 1 .194-1.45c2.386.323 4.824.685 7.242 1.08a.73.73 0 0 1 .602.84.73.73 0 0 1-.719.613m-79.755 1.522a.732.732 0 0 1-.167-1.443 173.4 173.4 0 0 1 7.166-1.516.724.724 0 0 1 .852.583.729.729 0 0 1-.58.854c-2.379.45-4.77.956-7.105 1.503a.728.728 0 0 1-.166.019m94.1 1.216a.721.721 0 0 1-.157-.018 292.161 292.161 0 0 0-7.135-1.458.732.732 0 0 1-.582-.856.732.732 0 0 1 .855-.58c2.367.452 4.756.94 7.173 1.465a.732.732 0 0 1-.155 1.447m-108.14 2.728a.731.731 0 0 1-.228-1.427 168.008 168.008 0 0 1 7.009-2.136.732.732 0 0 1 .394 1.408c-2.334.656-4.67 1.368-6.947 2.12a.75.75 0 0 1-.228.035m122.331.72a.79.79 0 0 1-.19-.025 307.7 307.7 0 0 0-7.058-1.805.728.728 0 0 1-.537-.881.728.728 0 0 1 .882-.54c2.341.57 4.704 1.174 7.092 1.814a.732.732 0 0 1-.189 1.437m-135.96 4.467a.731.731 0 0 1-.29-1.401 161.177 161.177 0 0 1 6.786-2.762.732.732 0 0 1 .52 1.367 159.125 159.125 0 0 0-6.726 2.736.717.717 0 0 1-.29.06m-13.103 6.413a.73.73 0 0 1-.352-1.371c2.127-1.165 4.316-2.3 6.508-3.374a.732.732 0 0 1 .643 1.314 156.981 156.981 0 0 0-6.448 3.342.719.719 0 0 1-.35.09m-12.467 7.584a.728.728 0 0 1-.607-.324.733.733 0 0 1 .2-1.013c2.024-1.361 4.102-2.69 6.176-3.951a.727.727 0 0 1 1.002.244c.21.343.1.795-.244 1.002a162.922 162.922 0 0 0-6.12 3.918.721.721 0 0 1-.407.124m-11.743 8.671a.732.732 0 0 1-.459-1.301 168.237 168.237 0 0 1 5.803-4.483.728.728 0 0 1 1.02.154c.24.324.17.782-.154 1.021a166.407 166.407 0 0 0-5.753 4.447.729.729 0 0 1-.457.162m-10.96 9.65a.732.732 0 0 1-.505-1.259 178.005 178.005 0 0 1 5.401-4.961.73.73 0 1 1 .964 1.1 173.097 173.097 0 0 0-5.357 4.918.729.729 0 0 1-.504.203M485.08 234.99a.73.73 0 0 1-.545-1.216 187.815 187.815 0 0 1 4.988-5.38.73.73 0 1 1 1.051 1.015 184.818 184.818 0 0 0-4.949 5.338.729.729 0 0 1-.545.243m-9.314 11.263a.73.73 0 0 1-.577-1.177 199.662 199.662 0 0 1 4.57-5.739.731.731 0 0 1 1.125.933 196.728 196.728 0 0 0-4.537 5.696.728.728 0 0 1-.581.287m-8.488 11.904a.729.729 0 0 1-.608-1.134 216.539 216.539 0 0 1 4.155-6.046.731.731 0 0 1 1.189.848 215.865 215.865 0 0 0-4.127 6.006.728.728 0 0 1-.61.326M459.6 270.61a.73.73 0 0 1-.632-1.093 227.08 227.08 0 0 1 3.75-6.31.727.727 0 0 1 1.003-.239.732.732 0 0 1 .24 1.007 227.663 227.663 0 0 0-3.726 6.268.731.731 0 0 1-.635.367m-6.876 12.92a.73.73 0 0 1-.654-1.055c1.072-2.175 2.2-4.373 3.349-6.535a.73.73 0 0 1 1.288.688 249.938 249.938 0 0 0-3.328 6.492.726.726 0 0 1-.655.41m-6.08 13.32a.734.734 0 0 1-.673-1.014 245.36 245.36 0 0 1 2.95-6.729.731.731 0 1 1 1.33.609 237.97 237.97 0 0 0-2.933 6.686.73.73 0 0 1-.673.448m-5.26 13.68a.729.729 0 0 1-.688-.972c.79-2.27 1.64-4.592 2.53-6.906a.732.732 0 0 1 .944-.42.732.732 0 0 1 .42.945 222.584 222.584 0 0 0-2.516 6.863.73.73 0 0 1-.69.49m-4.273 14.07a.734.734 0 0 1-.714-.896c.006-.026.627-2.673 2.003-7.148.12-.383.528-.6.912-.484a.73.73 0 0 1 .482.914c-1.357 4.42-1.967 7.024-1.973 7.05a.732.732 0 0 1-.71.564M966.997 94.567c-2.413-.08-4.884-.131-7.263-.12l-.013-1.461h.06c2.416 0 4.854.04 7.264.12l-.048 1.461zm-21.826.351l-.095-1.459a240.32 240.32 0 0 1 7.318-.353l.048 1.461c-2.412.08-4.86.198-7.271.351zm36.346.617c-2.4-.243-4.839-.447-7.251-.607l.096-1.458c2.429.16 4.886.366 7.3.61l-.145 1.455zm-50.84.767l-.183-1.45c2.422-.305 4.873-.577 7.28-.807l.14 1.455c-2.394.23-4.83.498-7.238.802zm65.257 1.189a210.572 210.572 0 0 0-7.191-1.102l.195-1.45c2.413.328 4.85.701 7.241 1.112l-.245 1.44zm-79.646 1.07l-.267-1.437c2.387-.447 4.82-.865 7.22-1.244l.225 1.446c-2.386.375-4.802.79-7.178 1.235zm93.89 1.885a211.621 211.621 0 0 0-7.094-1.602l.297-1.432a210.99 210.99 0 0 1 7.144 1.615l-.346 1.42zm-108.123 1.202l-.35-1.42a265.49 265.49 0 0 1 7.136-1.653l.308 1.429c-2.37.513-4.756 1.067-7.094 1.644zm122.124 2.75a208.932 208.932 0 0 0-6.965-2.1l.396-1.407c2.344.662 4.704 1.374 7.014 2.115l-.445 1.392zm-136.17 1.13l-.427-1.4c2.34-.713 4.705-1.401 7.035-2.046l.388 1.41c-2.318.64-4.67 1.325-6.997 2.036zm149.858 3.794a208.83 208.83 0 0 0-6.8-2.581l.494-1.376c2.281.819 4.584 1.693 6.848 2.598l-.542 1.36zm-163.676.842l-.502-1.374c2.28-.834 4.607-1.65 6.915-2.425l.464 1.387c-2.294.77-4.609 1.582-6.877 2.412zm176.994 5.017a217.37 217.37 0 0 0-6.609-3.043l.587-1.34c2.216.976 4.455 2.008 6.654 3.064l-.632 1.319zm-190.544.358l-.577-1.343a264.105 264.105 0 0 1 6.777-2.795l.539 1.358a265.2 265.2 0 0 0-6.739 2.78zm-82.574.472l-.092-1.459a91.993 91.993 0 0 1 7.356-.168l-.025 1.462a89.171 89.171 0 0 0-7.239.165zm21.666 1.162c-2.4-.397-4.82-.71-7.19-.93l.134-1.457c2.406.224 4.86.543 7.295.946l-.24 1.441zm-35.97.971l-.34-1.422a85.771 85.771 0 0 1 7.231-1.396l.213 1.445a84.626 84.626 0 0 0-7.103 1.373zm50.088 2.355a113.001 113.001 0 0 0-7.006-1.898l.336-1.422c2.36.557 4.746 1.205 7.097 1.922l-.427 1.398zm33.562 1.162l-.653-1.307a247.392 247.392 0 0 1 6.608-3.178l.614 1.328a242.344 242.344 0 0 0-6.57 3.157zm216.666.266a226.856 226.856 0 0 0-6.39-3.48l.675-1.294c2.144 1.123 4.31 2.3 6.433 3.502l-.718 1.272zm-314.017.81l-.584-1.34a83.541 83.541 0 0 1 6.87-2.648l.464 1.387a81.68 81.68 0 0 0-6.75 2.6zm77.368 2.887c-2.15-.98-4.407-1.915-6.705-2.782l.512-1.368c2.331.878 4.617 1.827 6.797 2.82l-.604 1.33zm7.205 3.034l-.77-1.24c.594-.37 2.812-1.728 6.389-3.673l.695 1.285c-3.54 1.924-5.727 3.263-6.314 3.628zm241.87.84a232.19 232.19 0 0 0-6.152-3.886l.758-1.248a229.17 229.17 0 0 1 6.194 3.91l-.8 1.223zm-339.142.149l-.801-1.22a87.76 87.76 0 0 1 6.306-3.791l.7 1.284a87.322 87.322 0 0 0-6.205 3.727zm351.082 8.18a241.545 241.545 0 0 0-5.908-4.256l.837-1.2a255.668 255.668 0 0 1 5.941 4.282l-.87 1.173zm-362.51.707l-.978-1.085a98.344 98.344 0 0 1 5.627-4.731l.895 1.153a99.897 99.897 0 0 0-5.545 4.663zm373.94 8.313a258.091 258.091 0 0 0-5.651-4.591l.904-1.148a256.712 256.712 0 0 1 5.684 4.616l-.936 1.123zm-384.002 2.12l-1.113-.948c1.601-1.887 3.259-3.721 4.924-5.45l1.053 1.015a114.273 114.273 0 0 0-4.864 5.383zm394.92 7.519a274.292 274.292 0 0 0-5.396-4.893l.967-1.096a281.09 281.09 0 0 1 5.424 4.919l-.996 1.07zm-403.68 4.056l-1.209-.82c1.38-2.039 2.815-4.049 4.268-5.971l1.162.881a141.032 141.032 0 0 0-4.22 5.91zm414.085 6.14c-1.71-1.76-3.423-3.48-5.14-5.162l1.021-1.045a298.584 298.584 0 0 1 5.166 5.188l-1.047 1.019zm-421.665 6.263l-1.278-.707a172.232 172.232 0 0 1 3.683-6.344l1.246.761a176.055 176.055 0 0 0-3.651 6.29zm431.57 4.423a319.293 319.293 0 0 0-4.892-5.402l1.07-.993a309.777 309.777 0 0 1 4.914 5.423l-1.093.972zm-438.113 8.574l-1.326-.61a200.473 200.473 0 0 1 3.175-6.61l1.302.658a206.684 206.684 0 0 0-3.151 6.562zm447.532 2.549a330.597 330.597 0 0 0-4.648-5.613l1.114-.944a354.32 354.32 0 0 1 4.67 5.635l-1.136.922zm8.951 11.505a356.02 356.02 0 0 0-4.418-5.798l1.153-.9a372.082 372.082 0 0 1 4.435 5.823l-1.17.875zm8.503 11.847a396.704 396.704 0 0 0-4.197-5.963l1.185-.854a386.248 386.248 0 0 1 4.212 5.985l-1.2.832z"/>
            <path d="M898.384 20.797a.73.73 0 0 1-.02-1.462c2.459-.065 4.898-.1 7.316-.108h.003a.73.73 0 0 1 .001 1.462c-2.405.007-4.834.042-7.28.108h-.02zM920.28 21h-.032a288.192 288.192 0 0 0-7.28-.245.73.73 0 0 1-.714-.746c.009-.405.394-.703.746-.716 2.46.053 4.897.134 7.314.246a.73.73 0 0 1-.034 1.461zm-36.48.52a.73.73 0 0 1-.053-1.459 326.94 326.94 0 0 1 7.304-.446.74.74 0 0 1 .766.694.73.73 0 0 1-.694.766 323.78 323.78 0 0 0-7.269.443l-.054.001zm51.041.523c-.025 0-.048 0-.073-.003-2.395-.236-4.812-.44-7.251-.614a.732.732 0 0 1-.678-.78.737.737 0 0 1 .783-.678c2.45.176 4.88.38 7.29.616a.732.732 0 1 1-.07 1.459zm-65.578.842a.73.73 0 0 1-.083-1.456 330.14 330.14 0 0 1 7.276-.763c.416-.052.758.26.796.659a.73.73 0 0 1-.659.796c-2.398.227-4.812.477-7.245.76-.028.004-.057.004-.085.004zm80.057.964a.71.71 0 0 1-.111-.009 270.89 270.89 0 0 0-7.209-.996.73.73 0 0 1-.634-.816.74.74 0 0 1 .814-.634c2.425.302 4.864.64 7.248 1.002a.73.73 0 1 1-.108 1.453zm-94.527 1.003a.73.73 0 0 1-.11-1.453c2.43-.38 4.844-.732 7.237-1.058a.737.737 0 0 1 .822.625.731.731 0 0 1-.625.823c-2.386.326-4.787.677-7.21 1.056a.972.972 0 0 1-.114.007zm108.884 1.589c-.05 0-.1-.006-.152-.015a254.502 254.502 0 0 0-7.14-1.393.731.731 0 0 1 .26-1.438c2.394.431 4.81.902 7.181 1.4a.73.73 0 0 1-.149 1.446zm-123.264.943a.73.73 0 0 1-.14-1.447c2.413-.474 4.811-.918 7.192-1.338a.73.73 0 1 1 .254 1.44c-2.372.417-4.76.86-7.166 1.33a.653.653 0 0 1-.14.015zm-340.21.827h-.01c-2.419-.033-4.843-.036-7.282-.006-.345.022-.736-.315-.74-.722a.734.734 0 0 1 .72-.74c2.453-.03 4.895-.027 7.322.006a.73.73 0 0 1 .718.74.729.729 0 0 1-.728.722zm-21.894.59a.731.731 0 0 1-.048-1.46c2.417-.168 4.878-.3 7.311-.4.396-.03.743.295.758.7a.729.729 0 0 1-.698.759c-2.42.1-4.866.234-7.271.4l-.052.002zm36.486.002l-.05-.001c-2.409-.163-4.835-.291-7.272-.39a.733.733 0 0 1-.7-.762c.016-.404.36-.738.76-.7 2.45.099 4.886.23 7.31.393a.731.731 0 0 1-.048 1.46zM977.87 29.84a.706.706 0 0 1-.19-.025c-2.319-.627-4.69-1.23-7.05-1.795a.73.73 0 0 1-.541-.882.722.722 0 0 1 .88-.54c2.374.568 4.759 1.175 7.091 1.805a.732.732 0 0 1-.19 1.437zm-448.528.3c-.03 0-.057-.004-.086-.007-2.4-.28-4.815-.535-7.246-.757a.73.73 0 1 1 .132-1.456c2.445.225 4.872.48 7.283.762a.732.732 0 1 1-.083 1.457zm-65.56.088a.732.732 0 0 1-.09-1.456c2.4-.307 4.85-.583 7.275-.82a.727.727 0 0 1 .797.655.732.732 0 0 1-.654.798c-2.414.237-4.847.512-7.235.818a.655.655 0 0 1-.093.005zm362.352.214a.73.73 0 0 1-.164-1.443c2.396-.558 4.775-1.09 7.14-1.595.4-.089.78.168.866.562a.73.73 0 0 1-.561.866 416.998 416.998 0 0 0-7.113 1.59.668.668 0 0 1-.168.02zm-282.33 1.735a.856.856 0 0 1-.12-.009 315.503 315.503 0 0 0-7.202-1.104.728.728 0 0 1-.62-.825.725.725 0 0 1 .824-.622c2.43.345 4.843.712 7.237 1.11a.73.73 0 0 1-.119 1.45zm-94.443.336a.732.732 0 0 1-.135-1.45c2.373-.449 4.8-.871 7.215-1.253a.725.725 0 0 1 .834.607.728.728 0 0 1-.606.835c-2.4.381-4.813.8-7.17 1.248a.751.751 0 0 1-.138.013zm362.612 1.476a.729.729 0 0 1-.706-.542.729.729 0 0 1 .516-.893 402.299 402.299 0 0 1 7.08-1.837.73.73 0 0 1 .353 1.417c-2.338.585-4.689 1.196-7.053 1.83a.713.713 0 0 1-.19.025zm179.869.06a.707.707 0 0 1-.23-.038 252.999 252.999 0 0 0-6.935-2.2.731.731 0 0 1 .422-1.4c2.341.708 4.688 1.452 6.974 2.215.382.127.59.54.463.925a.734.734 0 0 1-.694.498zm-433.682.835c-.05 0-.1-.006-.152-.017-2.36-.5-4.743-.977-7.145-1.432a.728.728 0 0 1-.582-.852.737.737 0 0 1 .853-.583c2.413.458 4.807.937 7.177 1.435a.734.734 0 0 1-.15 1.45zm-123.054.786a.734.734 0 0 1-.178-1.441c2.356-.596 4.75-1.166 7.125-1.693a.734.734 0 0 1 .872.557.734.734 0 0 1-.556.872c-2.359.521-4.74 1.089-7.082 1.684a.776.776 0 0 1-.18.021zm362.823 2.323a.732.732 0 0 1-.212-1.43 505.868 505.868 0 0 1 7.02-2.06.723.723 0 0 1 .9.502.731.731 0 0 1-.502.904c-2.318.66-4.649 1.346-6.995 2.052a.7.7 0 0 1-.21.032zm-225.544.22a.692.692 0 0 1-.181-.022 355.62 355.62 0 0 0-7.08-1.738.73.73 0 0 1-.544-.879.729.729 0 0 1 .877-.545c2.395.563 4.765 1.146 7.109 1.747a.73.73 0 0 1-.181 1.438zm433.16.859a.77.77 0 0 1-.271-.051c-2.25-.9-4.535-1.778-6.794-2.604a.734.734 0 0 1-.436-.94c.14-.38.564-.57.938-.434a248.33 248.33 0 0 1 6.835 2.618.73.73 0 1 1-.272 1.41zm-584.466.634a.733.733 0 0 1-.225-1.428 236.4 236.4 0 0 1 7.005-2.134.73.73 0 1 1 .405 1.405 232.52 232.52 0 0 0-6.962 2.12.708.708 0 0 1-.223.037zm165.379 2.431a.755.755 0 0 1-.21-.03 369.422 369.422 0 0 0-7.003-2.03.732.732 0 0 1-.509-.901.734.734 0 0 1 .901-.507c2.374.66 4.72 1.341 7.032 2.036a.733.733 0 1 1-.212 1.433zm197.556.285a.732.732 0 0 1-.232-1.423c2.33-.78 4.649-1.535 6.952-2.27a.73.73 0 1 1 .442 1.394c-2.297.73-4.606 1.484-6.931 2.261a.755.755 0 0 1-.23.038zm-376.685 2.189a.733.733 0 0 1-.268-1.412 242.45 242.45 0 0 1 6.857-2.57.73.73 0 1 1 .49 1.378 228.309 228.309 0 0 0-6.813 2.552.74.74 0 0 1-.266.052zm611.601.283a.699.699 0 0 1-.311-.07 250.472 250.472 0 0 0-6.629-3 .734.734 0 0 1-.38-.961.733.733 0 0 1 .963-.379c2.214.963 4.457 1.978 6.668 3.019a.73.73 0 0 1-.31 1.391zM600.367 46.62a.737.737 0 0 1-.236-.04c-2.27-.78-4.577-1.549-6.921-2.303a.732.732 0 0 1 .448-1.393c2.351.758 4.668 1.53 6.947 2.312a.733.733 0 0 1-.238 1.424zm169.861.627a.735.735 0 0 1-.686-.48.734.734 0 0 1 .437-.94 573.576 573.576 0 0 1 6.884-2.46.73.73 0 1 1 .482 1.38 561.62 561.62 0 0 0-6.867 2.453.68.68 0 0 1-.25.047zm-376.316 3.121a.734.734 0 0 1-.663-.422.734.734 0 0 1 .354-.973 236.625 236.625 0 0 1 6.683-2.99.726.726 0 0 1 .959.383.73.73 0 0 1-.383.959 234.237 234.237 0 0 0-6.642 2.974.717.717 0 0 1-.308.069zm638.034 1.13a.732.732 0 0 1-.348-.09 241.048 241.048 0 0 0-6.442-3.385.731.731 0 0 1 .659-1.305c2.169 1.1 4.348 2.247 6.481 3.407a.734.734 0 0 1 .294.993.733.733 0 0 1-.644.38zm-417.85.134a.766.766 0 0 1-.265-.048 393.602 393.602 0 0 0-6.826-2.567.731.731 0 0 1 .5-1.374c2.327.851 4.613 1.71 6.855 2.576a.732.732 0 0 1-.265 1.413zm142.48.804a.73.73 0 0 1-.677-.463.73.73 0 0 1 .41-.949c2.284-.9 4.556-1.782 6.817-2.641a.726.726 0 0 1 .942.422.733.733 0 0 1-.423.945c-2.255.858-4.52 1.735-6.8 2.635a.724.724 0 0 1-.269.051zm-375.698 4.51a.731.731 0 0 1-.348-1.373 238.797 238.797 0 0 1 6.486-3.398.73.73 0 1 1 .657 1.304 242.35 242.35 0 0 0-6.446 3.38.732.732 0 0 1-.35.087zm246.751.207a.752.752 0 0 1-.288-.06 408.44 408.44 0 0 0-6.73-2.818.73.73 0 1 1 .553-1.352c2.307.942 4.56 1.886 6.754 2.829a.73.73 0 0 1-.289 1.401zm115.432.815a.732.732 0 0 1-.283-1.405c2.26-.958 4.51-1.893 6.749-2.81.374-.155.8.025.953.4a.734.734 0 0 1-.4.954 588.188 588.188 0 0 0-6.734 2.804.75.75 0 0 1-.285.057zm301.502.884a.727.727 0 0 1-.386-.111 258.017 258.017 0 0 0-6.235-3.757.73.73 0 0 1 .735-1.264 258.107 258.107 0 0 1 6.27 3.778.731.731 0 1 1-.384 1.354zm-403.609 4.317a.69.69 0 0 1-.31-.072 404.052 404.052 0 0 0-6.624-3.062.73.73 0 0 1 .602-1.332 401.12 401.12 0 0 1 6.646 3.073.73.73 0 1 1-.314 1.393zm88.725.649a.731.731 0 0 1-.3-1.397 624.55 624.55 0 0 1 6.683-2.967.732.732 0 0 1 .586 1.339 609.436 609.436 0 0 0-6.67 2.96.717.717 0 0 1-.299.065zm-361.408.488a.73.73 0 0 1-.62-.347.73.73 0 0 1 .232-1.005c2.06-1.287 4.168-2.56 6.268-3.785a.732.732 0 0 1 1 .263.732.732 0 0 1-.264.999 249.032 249.032 0 0 0-6.231 3.762.731.731 0 0 1-.385.113zm688.464 2.612a.735.735 0 0 1-.42-.133 263.209 263.209 0 0 0-6.013-4.109.73.73 0 0 1 .808-1.22c2.02 1.34 4.054 2.73 6.046 4.135a.73.73 0 0 1-.42 1.327zm-402.682 2.755a.73.73 0 0 1-.336-.081 386.758 386.758 0 0 0-6.507-3.31.73.73 0 1 1 .649-1.308 395.69 395.69 0 0 1 6.531 3.32.73.73 0 0 1-.337 1.38zm62.377.291a.731.731 0 0 1-.314-1.391 674.907 674.907 0 0 1 6.616-3.11.73.73 0 1 1 .612 1.323 707.757 707.757 0 0 0-6.6 3.107.73.73 0 0 1-.314.071zm-360.314 2.431a.73.73 0 0 1-.422-1.327 253.105 253.105 0 0 1 6.036-4.146.728.728 0 0 1 1.012.204.733.733 0 0 1-.204 1.014c-2 1.332-4.02 2.717-6.001 4.12a.72.72 0 0 1-.42.135zm712.32 3.261a.73.73 0 0 1-.451-.156 276.01 276.01 0 0 0-5.775-4.44.73.73 0 1 1 .872-1.17 258.87 258.87 0 0 1 5.807 4.462.73.73 0 0 1-.453 1.304zm-365.122.73a.73.73 0 0 1-.328-1.383 753.334 753.334 0 0 1 6.548-3.25.731.731 0 0 1 .643 1.315 749.82 749.82 0 0 0-6.536 3.24.708.708 0 0 1-.327.078zm-36.423.304a.729.729 0 0 1-.363-.097 331.446 331.446 0 0 0-6.37-3.566.73.73 0 0 1 .697-1.284 326.785 326.785 0 0 1 6.4 3.583.73.73 0 0 1-.364 1.364zm-322.45 4.474a.732.732 0 0 1-.456-1.305 263.043 263.043 0 0 1 5.793-4.476.731.731 0 1 1 .876 1.17 259.104 259.104 0 0 0-5.758 4.452.73.73 0 0 1-.454.16zm345.884 1.905a.732.732 0 0 1-.339-1.38 751.04 751.04 0 0 1 6.483-3.374.73.73 0 0 1 .668 1.3 791.69 791.69 0 0 0-6.471 3.368.735.735 0 0 1-.34.086zm-10.931 1.27a.727.727 0 0 1-.41-.127c-.02-.015-2.194-1.487-6.17-3.907a.73.73 0 1 1 .758-1.25c4.011 2.443 6.209 3.934 6.232 3.948a.731.731 0 0 1-.41 1.336zm400.254.683a.725.725 0 0 1-.482-.183 277.087 277.087 0 0 0-5.53-4.746.73.73 0 0 1 .937-1.121c1.87 1.562 3.74 3.169 5.557 4.77a.728.728 0 0 1 .066 1.031.721.721 0 0 1-.548.249zm-396.734 2a.733.733 0 0 1-.348-1.376l.967-.519a.731.731 0 0 1 .692 1.286l-.964.52a.748.748 0 0 1-.347.089zm-349.658 3.53a.73.73 0 0 1-.483-1.278 282.997 282.997 0 0 1 5.544-4.781.73.73 0 1 1 .938 1.12 284.344 284.344 0 0 0-5.515 4.756.726.726 0 0 1-.484.183zm757.097 4.413a.73.73 0 0 1-.51-.206 284.586 284.586 0 0 0-5.275-5.03.731.731 0 0 1 .996-1.07c1.8 1.672 3.566 3.36 5.3 5.053a.732.732 0 0 1-.511 1.253zm-767.783 5.54a.732.732 0 0 1-.511-1.253 292.88 292.88 0 0 1 5.294-5.055.73.73 0 1 1 .996 1.069 295.284 295.284 0 0 0-5.269 5.031.732.732 0 0 1-.51.208zm777.972 4.938a.716.716 0 0 1-.536-.234 295.1 295.1 0 0 0-5.016-5.289.73.73 0 1 1 1.047-1.019 303.06 303.06 0 0 1 5.041 5.314.732.732 0 0 1-.536 1.228zm-788.161 5.524a.73.73 0 0 1-.535-1.23 314.258 314.258 0 0 1 5.045-5.303.732.732 0 0 1 1.047 1.02 305.684 305.684 0 0 0-5.023 5.279.726.726 0 0 1-.534.234zm797.826 5.442a.726.726 0 0 1-.559-.26 307.804 307.804 0 0 0-4.755-5.527.73.73 0 0 1 1.095-.968 311.696 311.696 0 0 1 4.779 5.555.73.73 0 0 1-.56 1.2zm-807.53 5.475a.733.733 0 0 1-.474-.174.735.735 0 0 1-.082-1.03 324.777 324.777 0 0 1 4.804-5.524.724.724 0 0 1 1.03-.061c.302.267.326.729.06 1.032-1.6 1.799-3.193 3.632-4.782 5.502a.729.729 0 0 1-.555.255zm816.668 5.94c-.22 0-.436-.101-.581-.288a311.22 311.22 0 0 0-4.492-5.747.73.73 0 0 1 1.14-.913 332.698 332.698 0 0 1 4.513 5.77.733.733 0 0 1-.58 1.178zm-825.893 5.383a.733.733 0 0 1-.574-1.181 369.386 369.386 0 0 1 4.563-5.721.733.733 0 0 1 1.028-.105c.312.255.36.716.104 1.03a353.043 353.043 0 0 0-4.544 5.698.734.734 0 0 1-.577.28zm834.505 6.435a.729.729 0 0 1-.598-.313 330.048 330.048 0 0 0-4.23-5.946.734.734 0 0 1 .16-1.024.729.729 0 0 1 1.02.163 332.799 332.799 0 0 1 4.247 5.97.731.731 0 0 1-.599 1.15zm-843.269 5.253a.73.73 0 0 1-.591-1.158c1.438-1.999 2.883-3.962 4.334-5.899a.73.73 0 1 1 1.167.879 382.456 382.456 0 0 0-4.317 5.874.733.733 0 0 1-.593.304zm851.351 6.94a.728.728 0 0 1-.616-.341 350.483 350.483 0 0 0-3.966-6.126.731.731 0 0 1 1.218-.808 342.681 342.681 0 0 1 3.982 6.155.73.73 0 0 1-.618 1.12zM276.37 156.9a.73.73 0 0 1-.606-1.137 408.032 408.032 0 0 1 4.112-6.052.733.733 0 0 1 1.016-.186c.33.233.413.687.184 1.02a390.405 390.405 0 0 0-4.098 6.03.736.736 0 0 1-.609.325zm867.218 7.47a.732.732 0 0 1-.634-.366 333.967 333.967 0 0 0-3.698-6.297.73.73 0 1 1 1.249-.755 321.814 321.814 0 0 1 3.715 6.324.729.729 0 0 1-.632 1.095zm-875.114 4.822a.715.715 0 0 1-.384-.113.73.73 0 0 1-.237-1.004 429.756 429.756 0 0 1 3.904-6.19.728.728 0 0 1 1.008-.22c.34.22.438.671.22 1.012a423.617 423.617 0 0 0-3.892 6.168.723.723 0 0 1-.619.347zm882.11 8.036a.73.73 0 0 1-.648-.394 312.188 312.188 0 0 0-3.423-6.455.733.733 0 0 1 .294-.991.728.728 0 0 1 .988.292c1.214 2.226 2.36 4.39 3.44 6.483a.732.732 0 0 1-.65 1.065zm-867.614 1.844a.733.733 0 0 1-.73-.699.734.734 0 0 1 .7-.763c2.427-.104 4.89-.156 7.322-.156.403 0 .735.328.735.73 0 .404-.321.731-.725.731-2.421 0-4.864.051-7.27.155-.011.002-.021.002-.032.002zm21.907.478l-.066-.003c-2.392-.21-4.837-.369-7.261-.475a.73.73 0 0 1-.698-.762.744.744 0 0 1 .76-.699c2.448.107 4.912.268 7.328.478a.732.732 0 1 1-.063 1.46zm-36.456.798a.73.73 0 0 1-.097-1.455c2.348-.318 4.803-.592 7.296-.808.396-.047.756.262.79.665a.73.73 0 0 1-.664.79 150.34 150.34 0 0 0-7.225.802.754.754 0 0 1-.1.006zm50.937 1.13a.778.778 0 0 1-.128-.012 157.04 157.04 0 0 0-7.185-1.125.731.731 0 0 1 .19-1.45c2.427.322 4.867.705 7.253 1.137a.731.731 0 0 1-.13 1.45zm-59.765.478l.837-1.453c1.2-2.085 2.408-4.143 3.62-6.175a.733.733 0 0 1 1.002-.253.734.734 0 0 1 .254 1.003 446.487 446.487 0 0 0-3.357 5.716.738.738 0 0 1-.574.754l-1.782.408zm73.994 2.82a.744.744 0 0 1-.201-.028 142.037 142.037 0 0 0-7.037-1.816.73.73 0 0 1-.546-.877.73.73 0 0 1 .875-.548c2.388.553 4.78 1.17 7.108 1.833a.733.733 0 0 1-.199 1.435zm13.813 4.731a.743.743 0 0 1-.273-.052 137.15 137.15 0 0 0-6.807-2.535.734.734 0 0 1-.456-.928.733.733 0 0 1 .928-.456c2.314.792 4.63 1.654 6.88 2.562a.733.733 0 0 1-.272 1.41zm809.606.89a.725.725 0 0 1-.663-.425 302.997 302.997 0 0 0-3.13-6.607.732.732 0 0 1 1.314-.643c1.142 2.339 2.189 4.559 3.142 6.639a.732.732 0 0 1-.663 1.036zm-796.398 5.32a.722.722 0 0 1-.347-.088 127.89 127.89 0 0 0-6.479-3.271.732.732 0 0 1-.352-.972.728.728 0 0 1 .971-.351 130.88 130.88 0 0 1 6.555 3.308.73.73 0 0 1-.348 1.374zm12.41 7.672a.724.724 0 0 1-.42-.133 125.587 125.587 0 0 0-6.058-3.993.73.73 0 0 1 .767-1.243 124.964 124.964 0 0 1 6.131 4.04.73.73 0 0 1-.42 1.33zm789.75.508a.735.735 0 0 1-.68-.467 234.833 234.833 0 0 0-2.779-6.77.734.734 0 0 1 .386-.96c.368-.157.8.014.958.384 1 2.34 1.94 4.632 2.795 6.813a.732.732 0 0 1-.68 1zm-778.314 8.555a.731.731 0 0 1-.486-.185 127.328 127.328 0 0 0-5.553-4.67.731.731 0 1 1 .907-1.147c1.906 1.512 3.796 3.1 5.617 4.726a.73.73 0 0 1-.485 1.276zm788.217.777a.752.752 0 0 1-.301-.065 500.907 500.907 0 0 0-6.714-2.973.73.73 0 0 1 .579-1.342c1.224.53 3.549 1.545 6.735 2.98a.733.733 0 1 1-.3 1.399zm13.304 6.168a.727.727 0 0 1-.314-.07 685.224 685.224 0 0 0-6.627-3.115.73.73 0 1 1 .613-1.327c2.05.95 4.272 1.994 6.642 3.12a.732.732 0 0 1-.314 1.392zm-791.204 3.368a.735.735 0 0 1-.545-.244 129.271 129.271 0 0 0-4.986-5.273.732.732 0 0 1 0-1.033.728.728 0 0 1 1.032 0 131.222 131.222 0 0 1 5.043 5.331.733.733 0 0 1-.544 1.22zm804.37 3.064a.74.74 0 0 1-.326-.078 661.359 661.359 0 0 0-6.558-3.243.731.731 0 0 1 .638-1.314 697.312 697.312 0 0 1 6.573 3.25.73.73 0 0 1-.327 1.385zm13.023 6.698a.729.729 0 0 1-.34-.085 655.056 655.056 0 0 0-6.486-3.381.73.73 0 0 1 .667-1.3c2.13 1.095 4.3 2.225 6.5 3.387a.732.732 0 0 1-.341 1.379zm-808.269 1.62a.73.73 0 0 1-.593-.305 140.158 140.158 0 0 0-4.387-5.782.73.73 0 1 1 1.138-.915 140.571 140.571 0 0 1 4.435 5.844.73.73 0 0 1-.593 1.157zm821.132 5.377a.716.716 0 0 1-.356-.095 565.306 565.306 0 0 0-6.4-3.533.73.73 0 1 1 .697-1.285 515.148 515.148 0 0 1 6.416 3.545.73.73 0 1 1-.356 1.368zm-813.21 6.878a.73.73 0 0 1-.633-.363 154.302 154.302 0 0 0-3.791-6.195.73.73 0 1 1 1.227-.794 155.6 155.6 0 0 1 3.828 6.255.732.732 0 0 1-.631 1.097zm825.872.469a.723.723 0 0 1-.377-.104 457.71 457.71 0 0 0-6.293-3.716.73.73 0 1 1 .734-1.264 472.298 472.298 0 0 1 6.313 3.726.733.733 0 0 1-.377 1.358zm12.404 7.774a.721.721 0 0 1-.4-.119 353.99 353.99 0 0 0-6.152-3.94.73.73 0 0 1 .776-1.237 337.775 337.775 0 0 1 6.176 3.954.73.73 0 0 1-.4 1.342zm-831.523 4.695a.73.73 0 0 1-.662-.42 170.936 170.936 0 0 0-3.222-6.516.731.731 0 0 1 1.296-.677 172.758 172.758 0 0 1 3.248 6.572.733.733 0 0 1-.35.973.748.748 0 0 1-.31.068zm843.565 3.626a.729.729 0 0 1-.43-.14 266.584 266.584 0 0 0-5.952-4.227.73.73 0 1 1 .831-1.204c2.07 1.429 4.08 2.858 5.982 4.253a.728.728 0 0 1-.43 1.318zm11.49 9.068a.724.724 0 0 1-.475-.176 174.26 174.26 0 0 0-5.632-4.623.73.73 0 1 1 .902-1.15 172.294 172.294 0 0 1 5.68 4.664.73.73 0 0 1-.476 1.285zm-849.398.763a.73.73 0 0 1-.682-.474 193.065 193.065 0 0 0-2.69-6.758.73.73 0 1 1 1.347-.566c.934 2.221 1.846 4.512 2.71 6.81a.73.73 0 0 1-.685.988zm859.918 9.402c-.2 0-.4-.082-.543-.244a97.826 97.826 0 0 0-5.056-5.21.73.73 0 0 1 1.01-1.055 97.499 97.499 0 0 1 5.133 5.291.73.73 0 0 1-.544 1.218zm-855.26 4.435a.73.73 0 0 1-.701-.52 214.206 214.206 0 0 0-2.2-6.935.73.73 0 1 1 1.383-.468c.767 2.28 1.513 4.63 2.217 6.984a.734.734 0 0 1-.7.939zm863.642 7.48a.729.729 0 0 1-.656-.408c-.968-1.97-2.221-4.035-3.723-6.128a.732.732 0 0 1 .167-1.02.728.728 0 0 1 1.02.168c1.549 2.159 2.844 4.29 3.846 6.335a.73.73 0 0 1-.654 1.054zm-859.893 6.634a.73.73 0 0 1-.71-.564c-.555-2.375-1.15-4.75-1.763-7.065a.729.729 0 1 1 1.41-.376c.62 2.328 1.216 4.72 1.775 7.106a.733.733 0 0 1-.712.9zm862.228 7.438a.731.731 0 0 1-.714-.884 16.35 16.35 0 0 0 .362-3.455c0-1.131-.112-2.302-.336-3.477a.731.731 0 0 1 1.434-.275c.241 1.267.363 2.53.363 3.752a17.711 17.711 0 0 1-.396 3.763.731.731 0 0 1-.713.576zm-518.889.975a.844.844 0 0 1-.17-.018c-2.833-.67-5.219-1.247-7.126-1.712a.732.732 0 0 1-.538-.884.737.737 0 0 1 .882-.536c1.906.466 4.288 1.039 7.12 1.707a.73.73 0 1 1-.168 1.443zm-20.272 1.763a.73.73 0 0 1-.386-1.353c2.83-1.75 4.93-3.078 6.212-3.895a.73.73 0 0 1 .784 1.23c-1.284.82-3.39 2.154-6.227 3.907a.728.728 0 0 1-.383.11zm34.536 1.523a.748.748 0 0 1-.16-.018c-2.545-.571-4.927-1.115-7.14-1.625a.731.731 0 0 1 .33-1.424c2.208.51 4.587 1.051 7.13 1.623.394.089.64.478.554.872a.733.733 0 0 1-.714.572zm-354.665 2.609a.73.73 0 0 1-.72-.602c-.432-2.428-.89-4.814-1.368-7.157a.733.733 0 0 1 .568-.864.727.727 0 0 1 .861.57c.484 2.357.942 4.752 1.377 7.193a.732.732 0 0 1-.718.86zm368.951.53c-.05 0-.1-.005-.153-.017-2.482-.533-4.866-1.05-7.15-1.552a.73.73 0 0 1 .313-1.428c2.282.5 4.664 1.018 7.143 1.552a.731.731 0 0 1-.153 1.446zm-61.37 2.918a.731.731 0 0 1-.373-1.36 810.677 810.677 0 0 0 6.283-3.756.73.73 0 0 1 .755 1.253 895.447 895.447 0 0 1-6.293 3.76.734.734 0 0 1-.372.103zm75.68.095a.72.72 0 0 1-.147-.016 1520.81 1520.81 0 0 1-7.162-1.492.73.73 0 1 1 .3-1.43c2.316.488 4.7.985 7.156 1.49a.733.733 0 0 1-.148 1.448zm468.007 1.444a.732.732 0 0 1-.457-1.299c1.996-1.612 3.648-3.328 4.907-5.102a.73.73 0 0 1 1.19.848c-1.336 1.882-3.08 3.696-5.182 5.39a.715.715 0 0 1-.458.163zm-453.676 1.448a.79.79 0 0 1-.142-.015c-2.443-.482-4.833-.96-7.17-1.431a.733.733 0 0 1-.573-.861.735.735 0 0 1 .86-.573c2.337.472 4.726.95 7.165 1.431a.732.732 0 1 1-.14 1.449zm14.353 2.773a.726.726 0 0 1-.138-.012c-2.436-.462-4.828-.92-7.18-1.374a.73.73 0 0 1-.579-.857.725.725 0 0 1 .856-.579 2036 2036 0 0 0 7.175 1.373.73.73 0 0 1-.134 1.449zm-117.027 1.591a.724.724 0 0 1-.636-.37.73.73 0 0 1 .273-.996 941.091 941.091 0 0 0 6.342-3.646.732.732 0 0 1 .733 1.264 826.513 826.513 0 0 1-6.353 3.652.717.717 0 0 1-.36.096zm131.4 1.069a.656.656 0 0 1-.131-.012c-2.433-.441-4.83-.88-7.193-1.315a.73.73 0 0 1-.584-.851c.071-.4.46-.668.85-.588 2.36.437 4.757.876 7.187 1.316a.73.73 0 0 1-.129 1.45zm412.322.36a.732.732 0 0 1-.285-1.405c2.353-1.003 4.536-2.064 6.49-3.158a.732.732 0 0 1 .994.28.735.735 0 0 1-.281.997 68.92 68.92 0 0 1-6.634 3.226.727.727 0 0 1-.284.06zm-397.93 2.18a.74.74 0 0 1-.125-.01c-2.429-.418-4.828-.837-7.201-1.257a.73.73 0 1 1 .253-1.438c2.371.418 4.77.836 7.196 1.255a.73.73 0 0 1-.122 1.45zm-438.38.018a.73.73 0 0 1-.716-.602c-.29-1.602-.557-3.238-.8-4.906-.112-.779-.227-1.557-.345-2.33a.73.73 0 1 1 1.443-.22c.118.776.235 1.558.349 2.341.24 1.652.502 3.269.79 4.855a.733.733 0 0 1-.72.862zm452.79 2.409a.563.563 0 0 1-.119-.012c-2.426-.396-4.83-.795-7.21-1.195a.732.732 0 0 1-.599-.842c.067-.4.45-.66.841-.6 2.378.4 4.779.8 7.205 1.196a.73.73 0 0 1-.117 1.453zm369.735.189a.73.73 0 0 1-.21-1.43c1.756-.535 3.5-1.08 5.232-1.637.577-.186 1.145-.374 1.704-.564a.731.731 0 0 1 .467 1.384c-.565.191-1.14.383-1.724.571-1.74.56-3.492 1.107-5.258 1.645a.815.815 0 0 1-.211.03zm-542.713.915a.73.73 0 0 1-.35-1.371 863.883 863.883 0 0 0 6.396-3.542.732.732 0 0 1 .713 1.276 997.777 997.777 0 0 1-6.409 3.547.719.719 0 0 1-.35.09zm187.41 1.203c-.037 0-.077-.003-.115-.008-2.425-.377-4.832-.757-7.22-1.14a.73.73 0 0 1-.606-.836.722.722 0 0 1 .837-.605c2.385.38 4.788.759 7.214 1.136.399.063.67.437.61.836a.728.728 0 0 1-.72.617zm341.236 1.81a.731.731 0 0 1-.181-1.439 336.515 336.515 0 0 0 7.036-1.884.725.725 0 0 1 .9.508.73.73 0 0 1-.507.9 346.27 346.27 0 0 1-7.067 1.892.642.642 0 0 1-.181.024zm-326.789.376c-.036 0-.071 0-.106-.005-2.428-.359-4.837-.717-7.23-1.08a.73.73 0 0 1 .22-1.445c2.39.361 4.797.72 7.22 1.077a.73.73 0 1 1-.104 1.453zm14.467 2.063a.587.587 0 0 1-.1-.009c-2.428-.335-4.84-.672-7.238-1.014a.73.73 0 0 1 .204-1.447c2.397.342 4.808.68 7.232 1.014a.731.731 0 0 1-.098 1.456zm298.107.92a.73.73 0 0 1-.151-1.446 385.628 385.628 0 0 0 7.107-1.608.723.723 0 0 1 .878.544.729.729 0 0 1-.542.878c-2.361.557-4.74 1.095-7.135 1.614a.721.721 0 0 1-.157.017zm-527.315.56a.73.73 0 0 1-.342-1.378 812.017 812.017 0 0 0 6.452-3.438.73.73 0 1 1 .691 1.288 922.249 922.249 0 0 1-6.46 3.444.727.727 0 0 1-.341.083zm243.69.451a.669.669 0 0 1-.094-.006c-2.427-.313-4.844-.63-7.246-.949a.734.734 0 0 1-.628-.823.735.735 0 0 1 .822-.628c2.4.322 4.812.639 7.238.95a.73.73 0 0 1-.092 1.456zm14.502 1.798a.909.909 0 0 1-.09-.004c-2.428-.291-4.846-.585-7.255-.885a.728.728 0 0 1-.633-.814c.048-.402.42-.699.815-.636 2.403.3 4.819.592 7.248.882.4.05.686.413.638.814a.729.729 0 0 1-.723.643zm254.8.03a.732.732 0 0 1-.129-1.45c2.4-.434 4.789-.888 7.16-1.357a.726.726 0 0 1 .86.576.73.73 0 0 1-.575.858c-2.38.472-4.775.925-7.187 1.362a.652.652 0 0 1-.13.012zm-776.487 1.462a.73.73 0 0 1-.698-.514 114.941 114.941 0 0 1-1.944-7.085.732.732 0 0 1 .54-.883.733.733 0 0 1 .88.54c.575 2.383 1.22 4.738 1.918 6.994a.73.73 0 0 1-.696.948zm536.205.169a.74.74 0 0 1-.08-.005c-2.433-.266-4.853-.538-7.264-.813a.732.732 0 0 1 .165-1.453c2.41.277 4.83.546 7.258.813a.73.73 0 0 1-.079 1.458zm225.867.748a.732.732 0 0 1-.107-1.454 478.26 478.26 0 0 0 7.205-1.133.731.731 0 0 1 .237 1.443c-2.396.396-4.804.773-7.224 1.135a.71.71 0 0 1-.11.009zm-211.337.764c-.022 0-.047-.001-.07-.003-2.433-.24-4.86-.488-7.275-.74a.73.73 0 0 1 .152-1.452c2.413.251 4.834.497 7.264.737a.732.732 0 0 1-.071 1.458zm196.866 1.19a.732.732 0 0 1-.086-1.457c2.422-.292 4.834-.6 7.233-.925a.735.735 0 0 1 .82.627.729.729 0 0 1-.626.821 557.24 557.24 0 0 1-7.25.93.939.939 0 0 1-.091.004zm-497.103.104a.73.73 0 0 1-.328-1.384 827.215 827.215 0 0 0 6.505-3.327.732.732 0 0 1 .67 1.3 830.515 830.515 0 0 1-6.517 3.33.719.719 0 0 1-.33.081zm314.786.07l-.066-.003c-2.433-.216-4.86-.435-7.28-.662a.733.733 0 0 1-.659-.797c.037-.402.374-.71.796-.657 2.417.225 4.841.444 7.271.66.404.035.7.39.663.793a.73.73 0 0 1-.725.666zm14.56 1.203l-.055-.001c-2.435-.187-4.864-.382-7.288-.58a.731.731 0 0 1-.667-.79c.032-.405.423-.696.787-.67 2.421.2 4.847.395 7.279.582a.73.73 0 0 1-.056 1.46zm153.227.198a.732.732 0 0 1-.069-1.46 605.07 605.07 0 0 0 7.269-.74.73.73 0 1 1 .156 1.453 576.345 576.345 0 0 1-7.356.747zm-138.7.837l-.048-.001a1070.53 1070.53 0 0 1-7.272-.497.728.728 0 0 1-.677-.78c.027-.404.417-.702.78-.678 2.417.171 4.838.338 7.264.496a.73.73 0 1 1-.047 1.46zm124.126.388a.731.731 0 0 1-.053-1.459c2.435-.177 4.862-.369 7.284-.57a.73.73 0 0 1 .123 1.457c-2.426.203-4.86.392-7.3.569-.019.003-.036.003-.054.003zm-109.564.472c-.013 0-.026 0-.038-.002a1204.23 1204.23 0 0 1-7.29-.408.728.728 0 0 1-.685-.771.738.738 0 0 1 .77-.687c2.425.143 4.852.279 7.28.407a.73.73 0 1 1-.038 1.46zm94.969.43a.732.732 0 0 1-.035-1.46 697.78 697.78 0 0 0 7.29-.413.72.72 0 0 1 .774.684.73.73 0 0 1-.683.775c-2.429.15-4.865.288-7.307.413l-.04.002zm-80.378.242h-.028c-2.437-.096-4.872-.2-7.306-.313a.73.73 0 0 1-.695-.763c.019-.403.346-.728.763-.697 2.43.111 4.86.218 7.295.313a.73.73 0 0 1-.029 1.46zm65.773.367a.73.73 0 0 1-.022-1.46c2.438-.08 4.87-.168 7.298-.27.379-.053.742.297.76.7a.729.729 0 0 1-.7.76c-2.431.102-4.869.191-7.312.269l-.024.001zm-51.153.11h-.019c-2.438-.063-4.879-.133-7.318-.212a.731.731 0 0 1 .024-1.46h.024c2.435.078 4.872.147 7.308.21a.73.73 0 1 1-.019 1.462zm36.54.225a.73.73 0 0 1-.73-.72.733.733 0 0 1 .722-.742c2.436-.034 4.87-.077 7.3-.133.392.016.738.311.747.713a.732.732 0 0 1-.713.749c-2.436.055-4.874.1-7.315.133h-.01zm-21.916.038h-.008c-2.438-.027-4.877-.06-7.316-.104a.732.732 0 0 1 .013-1.462h.013c2.436.044 4.872.078 7.305.104a.73.73 0 0 1-.007 1.462zm9.57.05l-2.268-.003a.73.73 0 0 1 .001-1.462h.002l2.265.003c1.68 0 3.359-.005 5.037-.015h.004a.73.73 0 0 1 .003 1.462c-1.68.01-3.36.014-5.044.014zm-424.944 1.857a.725.725 0 0 1-.657-.413.728.728 0 0 1 .339-.977 792.72 792.72 0 0 0 6.561-3.211.732.732 0 0 1 .647 1.311 818.97 818.97 0 0 1-6.573 3.217.723.723 0 0 1-.317.073zm-232.042 4.108a.726.726 0 0 1-.655-.408 89.674 89.674 0 0 1-2.965-6.736.732.732 0 0 1 1.36-.535 87.974 87.974 0 0 0 2.915 6.625.732.732 0 0 1-.655 1.054zm218.816 2.136a.73.73 0 0 1-.305-1.395 766.655 766.655 0 0 0 6.62-3.087.732.732 0 0 1 .624 1.321 707.724 707.724 0 0 1-6.633 3.093.734.734 0 0 1-.306.068zm-13.345 5.978a.732.732 0 0 1-.292-1.402c2.242-.976 4.47-1.96 6.681-2.951a.731.731 0 1 1 .597 1.335c-2.215.992-4.448 1.979-6.695 2.957a.731.731 0 0 1-.291.061zm-197.863 4.32c-.22 0-.44-.1-.582-.29a74.085 74.085 0 0 1-4.143-6.094.73.73 0 1 1 1.246-.763 72.37 72.37 0 0 0 4.06 5.974.731.731 0 0 1-.581 1.173zm184.39 1.362a.732.732 0 0 1-.276-1.408c2.261-.922 4.509-1.856 6.745-2.799a.73.73 0 0 1 .956.389.734.734 0 0 1-.388.959 611.335 611.335 0 0 1-6.76 2.803.71.71 0 0 1-.277.056zm-13.605 5.353a.73.73 0 0 1-.257-1.415 546.02 546.02 0 0 0 6.81-2.63.73.73 0 0 1 .535 1.361 518.876 518.876 0 0 1-6.83 2.636.703.703 0 0 1-.258.048zm-160.81 3.903a.725.725 0 0 1-.474-.177 67.49 67.49 0 0 1-5.332-5.094.73.73 0 1 1 1.065-1 66.381 66.381 0 0 0 5.216 4.983.732.732 0 0 1-.476 1.288zm147.054 1.081a.732.732 0 0 1-.236-1.422c2.297-.794 4.59-1.606 6.878-2.437a.732.732 0 0 1 .498 1.376c-2.295.83-4.596 1.647-6.9 2.444a.798.798 0 0 1-.24.04zm-13.88 4.548a.73.73 0 0 1-.215-1.428 434.691 434.691 0 0 0 6.954-2.215.732.732 0 0 1 .921.465.73.73 0 0 1-.468.923 418.76 418.76 0 0 1-6.975 2.224.796.796 0 0 1-.217.031zm-121.147 2.589a.711.711 0 0 1-.344-.088 70.571 70.571 0 0 1-6.3-3.827.727.727 0 0 1-.192-1.014.728.728 0 0 1 1.014-.193 68.934 68.934 0 0 0 6.169 3.746.731.731 0 0 1-.347 1.376zm107.104 1.466a.73.73 0 0 1-.187-1.437c2.338-.626 4.68-1.279 7.026-1.956a.73.73 0 1 1 .405 1.405c-2.355.68-4.706 1.333-7.054 1.962a.708.708 0 0 1-.19.026zm-14.2 3.466a.733.733 0 0 1-.156-1.446c2.36-.517 4.727-1.068 7.1-1.649a.731.731 0 1 1 .35 1.421 303.18 303.18 0 0 1-7.138 1.656.721.721 0 0 1-.156.018zm-79.463.712a.72.72 0 0 1-.22-.034 82.094 82.094 0 0 1-6.913-2.53.732.732 0 0 1-.394-.956.733.733 0 0 1 .955-.394c2.18.911 4.464 1.749 6.792 2.485a.73.73 0 0 1-.22 1.429zm65.112 2.042a.731.731 0 0 1-.117-1.452c2.357-.383 4.77-.813 7.173-1.277a.732.732 0 0 1 .278 1.436c-2.419.465-4.846.898-7.216 1.285a.829.829 0 0 1-.118.008zm-50.9 1.257a.747.747 0 0 1-.115-.009c-2.459-.386-4.888-.854-7.22-1.39a.735.735 0 0 1-.548-.877.733.733 0 0 1 .877-.548c2.298.529 4.692.99 7.116 1.37a.73.73 0 0 1-.11 1.454zm36.412.633a.73.73 0 0 1-.069-1.458c2.375-.226 4.81-.502 7.235-.823a.731.731 0 0 1 .189 1.45c-2.442.32-4.893.6-7.286.83h-.069zm-21.886.73c-.009 0-.017 0-.025-.002a131.15 131.15 0 0 1-7.327-.47.73.73 0 1 1 .135-1.455c2.347.219 4.784.374 7.245.464a.732.732 0 0 1-.028 1.462zm7.302.084a.732.732 0 0 1-.009-1.462c2.37-.03 4.816-.117 7.27-.254.421-.034.747.286.769.688a.73.73 0 0 1-.687.77c-2.475.141-4.94.227-7.332.258h-.01zM159.492 287.02a.731.731 0 0 1-.108-1.453s1.284-.195 3.656-.435a.734.734 0 0 1 .8.654.733.733 0 0 1-.654.802c-2.316.233-3.574.421-3.586.423a.674.674 0 0 1-.108.008M192.903 285.94h-.034a230.737 230.737 0 0 0-7.437-.222.73.73 0 0 1-.718-.74.729.729 0 0 1 .73-.722h.007c2.477.034 4.995.11 7.484.224a.73.73 0 0 1-.032 1.46m-22.365.08a.731.731 0 0 1-.041-1.461c2.43-.136 4.946-.231 7.476-.28.448.011.736.312.744.717a.733.733 0 0 1-.715.744c-2.514.048-5.01.143-7.422.278l-.042.001m37.24 1.083c-.026 0-.054 0-.08-.003a232.76 232.76 0 0 0-7.404-.698.73.73 0 1 1 .114-1.458c2.466.193 4.974.429 7.45.703a.73.73 0 0 1-.08 1.456m14.765 2.126a.778.778 0 0 1-.128-.012c-2.413-.43-4.882-.826-7.34-1.178a.731.731 0 0 1 .206-1.449c2.475.356 4.96.756 7.39 1.189a.731.731 0 1 1-.127 1.45m14.583 3.113a.755.755 0 0 1-.178-.023c-2.383-.596-4.82-1.16-7.24-1.675a.733.733 0 0 1 .304-1.431 210.53 210.53 0 0 1 7.29 1.69.73.73 0 0 1-.176 1.44m14.326 4.139a.721.721 0 0 1-.228-.037 199.541 199.541 0 0 0-7.1-2.192.73.73 0 1 1 .406-1.405c2.4.693 4.807 1.437 7.15 2.209a.73.73 0 0 1-.228 1.425m13.967 5.204a.729.729 0 0 1-.28-.057 187.362 187.362 0 0 0-6.91-2.726.732.732 0 0 1 .511-1.37 188.57 188.57 0 0 1 6.961 2.747.732.732 0 0 1-.282 1.406m13.508 6.299a.72.72 0 0 1-.333-.08 181.67 181.67 0 0 0-6.664-3.275.73.73 0 0 1 .616-1.325 180.001 180.001 0 0 1 6.718 3.301.73.73 0 0 1-.337 1.379m12.935 7.403a.73.73 0 0 1-.389-.114 176.973 176.973 0 0 0-6.361-3.822.73.73 0 0 1 .724-1.269 176.516 176.516 0 0 1 6.414 3.855.73.73 0 0 1 .23 1.007.729.729 0 0 1-.618.343m12.244 8.493a.735.735 0 0 1-.443-.147 164.15 164.15 0 0 0-6.002-4.364.732.732 0 0 1 .834-1.201 171.33 171.33 0 0 1 6.052 4.4.73.73 0 0 1-.441 1.312m11.442 9.541a.721.721 0 0 1-.489-.19c-1.818-1.66-3.7-3.3-5.592-4.876a.73.73 0 0 1-.093-1.03.728.728 0 0 1 1.026-.094 167.767 167.767 0 0 1 5.642 4.918.732.732 0 0 1-.494 1.272m10.558 10.516a.732.732 0 0 1-.539-.235 169.072 169.072 0 0 0-5.138-5.352.732.732 0 0 1 1.03-1.036c1.76 1.754 3.503 3.57 5.183 5.398a.731.731 0 0 1-.536 1.225m9.598 11.397a.726.726 0 0 1-.579-.283 173.705 173.705 0 0 0-4.658-5.779.732.732 0 0 1 1.118-.941 176.555 176.555 0 0 1 4.696 5.827.73.73 0 0 1-.577 1.176m8.606 12.165a.726.726 0 0 1-.613-.335 186.336 186.336 0 0 0-4.163-6.145.731.731 0 0 1 1.194-.845 187.053 187.053 0 0 1 4.193 6.197.732.732 0 0 1-.61 1.128m7.606 12.814a.733.733 0 0 1-.644-.383 191.714 191.714 0 0 0-3.664-6.455.73.73 0 1 1 1.255-.749 194.768 194.768 0 0 1 3.693 6.506.732.732 0 0 1-.64 1.08m6.63 13.35a.728.728 0 0 1-.667-.429 210.993 210.993 0 0 0-3.185-6.71.733.733 0 0 1 1.31-.653 215.565 215.565 0 0 1 3.206 6.76.734.734 0 0 1-.665 1.031M362.896 403.949a.731.731 0 0 1-.68-.462 205.86 205.86 0 0 0-1.36-3.378.73.73 0 1 1 1.348-.56c.464 1.122.92 2.255 1.372 3.401a.734.734 0 0 1-.68.999"/>
            <path d="M733.75 20.208l-.273-1.436c2.382-.45 4.821-.678 7.251-.678l.142 1.462h-.142c-2.338 0-4.688.219-6.979.652zm21.17 1.897a45.901 45.901 0 0 0-6.929-1.87l.266-1.44a47.89 47.89 0 0 1 7.15 1.93l-.488 1.38zm-34.496 3.216l-.739-1.26a46.297 46.297 0 0 1 6.661-3.24l.527 1.363a44.645 44.645 0 0 0-6.449 3.137zm47.355 3.264a67.46 67.46 0 0 0-6.247-3.625l.663-1.306a68.922 68.922 0 0 1 6.382 3.707l-.798 1.224zm-58.704 5.578l-1.02-1.045a67.77 67.77 0 0 1 5.533-4.878l.9 1.149a66.677 66.677 0 0 0-5.413 4.774zm70.1 3.366a96.498 96.498 0 0 0-5.52-4.71l.904-1.147a96.717 96.717 0 0 1 5.604 4.78l-.987 1.077zm53.454.815l-.134-1.456c2.101-.193 4.26-.291 6.42-.291l.947.006-.019 1.461-.928-.005c-2.115 0-4.23.096-6.286.285zm21.57 1.276c-2.396-.477-4.8-.851-7.145-1.108l.159-1.453c2.388.263 4.834.643 7.271 1.128l-.285 1.433zm-35.67 1.665l-.464-1.388a63.336 63.336 0 0 1 7.13-1.922l.297 1.434a61.088 61.088 0 0 0-6.964 1.876zm49.601 2.25c-2.31-.831-4.63-1.576-6.897-2.215l.397-1.408c2.297.65 4.65 1.403 6.994 2.247l-.494 1.375zm-168.485 1.604l-1.174-.868a101.674 101.674 0 0 1 4.567-5.764l1.108.95a101.813 101.813 0 0 0-4.5 5.682zm105.896 2.342l-.787-1.23a59.12 59.12 0 0 1 6.462-3.59l.628 1.32a57.444 57.444 0 0 0-6.303 3.5zm-16.33.561a117.845 117.845 0 0 0-4.854-5.418l1.056-1.009c1.68 1.76 3.333 3.606 4.915 5.485l-1.118.942zm92.243 1.214a131.347 131.347 0 0 0-6.58-3.057l.575-1.343c2.193.945 4.432 1.985 6.655 3.091l-.65 1.309zm-86.068 6.91l-.544-.815c-.006-.006-.395-.586-1.13-1.595l1.178-.862c.25.34.46.633.63.873a41.305 41.305 0 0 1 3.281-3.111l.95 1.112c-2.465 2.107-3.726 3.626-3.74 3.643l-.625.756zm98.739.182a164.728 164.728 0 0 0-6.255-3.695l.714-1.276a172.107 172.107 0 0 1 6.312 3.727l-.771 1.244zm-202.409.956l-1.261-.734a149.143 149.143 0 0 1 3.84-6.255l1.223.797a148.64 148.64 0 0 0-3.802 6.192zm214.463 7.177a200.342 200.342 0 0 0-5.951-4.18l.816-1.212a204.005 204.005 0 0 1 5.994 4.21l-.859 1.182zm-221.254 5.69l-1.314-.634c1.08-2.246 2.19-4.45 3.295-6.548l1.292.681a207.066 207.066 0 0 0-3.273 6.502zm232.737 3.249a256.879 256.879 0 0 0-5.675-4.56l.895-1.153a249.906 249.906 0 0 1 5.71 4.586l-.93 1.127zm10.974 9.573a312.387 312.387 0 0 0-5.425-4.857l.96-1.101a309.448 309.448 0 0 1 5.452 4.88l-.987 1.078zm10.52 10.083a357.166 357.166 0 0 0-5.205-5.1l1.009-1.054a345.313 345.313 0 0 1 5.228 5.12l-1.033 1.034zm10.116 10.496a431.145 431.145 0 0 0-5.01-5.295l1.052-1.014a434.237 434.237 0 0 1 5.028 5.313l-1.07.996zm9.751 10.843a456.7 456.7 0 0 0-4.834-5.461l1.088-.977a501.519 501.519 0 0 1 4.847 5.476l-1.1.962zm9.426 11.131a536.914 536.914 0 0 0-4.675-5.598l1.116-.945a528.04 528.04 0 0 1 4.686 5.615l-1.127.928zm9.132 11.378a594.623 594.623 0 0 0-4.532-5.718l1.14-.914a583.86 583.86 0 0 1 4.541 5.73l-1.15.902zm8.862 11.592a715.014 715.014 0 0 0-4.4-5.82l1.16-.888c1.46 1.91 2.93 3.855 4.41 5.833l-1.17.875zm8.624 11.776c-1.436-2-2.863-3.97-4.282-5.91l1.178-.862a746.866 746.866 0 0 1 4.29 5.921l-1.186.851zm8.397 11.94a784.698 784.698 0 0 0-4.174-5.99l1.196-.841a831.722 831.722 0 0 1 4.178 6l-1.2.83zM833.937 126.646a.733.733 0 0 1-.695-.955c.016-.05.417-1.292 1.251-3.467a.73.73 0 0 1 1.363.522c-.818 2.136-1.22 3.381-1.224 3.393a.731.731 0 0 1-.695.507M925.318 46.05a.73.73 0 0 1-.035-1.46 89.282 89.282 0 0 1 7.439-.06.732.732 0 0 1-.023 1.463c-.008 0-.016 0-.025-.002a89.65 89.65 0 0 0-7.321.059h-.035zm22.046 1.534a.771.771 0 0 1-.131-.011 103.675 103.675 0 0 0-7.254-1.06.729.729 0 0 1-.646-.806.728.728 0 0 1 .805-.647c2.424.267 4.898.627 7.355 1.074a.73.73 0 0 1-.129 1.45zm-36.64.462a.728.728 0 0 1-.712-.567.729.729 0 0 1 .55-.875 83.067 83.067 0 0 1 7.318-1.33.736.736 0 0 1 .822.624.731.731 0 0 1-.625.822c-2.416.33-4.836.77-7.191 1.309a.775.775 0 0 1-.162.017zm50.96 3.096a.717.717 0 0 1-.218-.033 123.07 123.07 0 0 0-7.064-1.987.733.733 0 0 1-.532-.889.729.729 0 0 1 .885-.53c2.358.587 4.761 1.264 7.148 2.011a.732.732 0 0 1-.22 1.428zm-64.973 1.466a.732.732 0 0 1-.287-1.403 83.49 83.49 0 0 1 6.965-2.62.73.73 0 0 1 .452 1.392 82.188 82.188 0 0 0-6.844 2.573.702.702 0 0 1-.286.058zm78.813 3.67a.734.734 0 0 1-.286-.059 154.575 154.575 0 0 0-6.822-2.73.732.732 0 0 1 .507-1.371c2.275.846 4.592 1.774 6.887 2.758a.731.731 0 0 1-.286 1.403zm-91.821 3.275a.728.728 0 0 1-.614-.333.733.733 0 0 1 .216-1.012 91.294 91.294 0 0 1 6.412-3.78.731.731 0 0 1 .688 1.288 90.372 90.372 0 0 0-6.307 3.72.714.714 0 0 1-.395.117zm-11.742 8.94a.732.732 0 0 1-.483-1.279c1.866-1.65 3.798-3.24 5.743-4.726a.731.731 0 0 1 .885 1.163 102.112 102.112 0 0 0-5.662 4.66.726.726 0 0 1-.483.182zm-10.393 10.493a.729.729 0 0 1-.55-1.212 120.541 120.541 0 0 1 5.06-5.446.73.73 0 0 1 1.037 1.028 120.046 120.046 0 0 0-4.997 5.38.725.725 0 0 1-.55.25zm-9.079 11.659a.727.727 0 0 1-.599-1.147 139.573 139.573 0 0 1 4.403-5.988.73.73 0 1 1 1.153.897 140.64 140.64 0 0 0-4.358 5.924.724.724 0 0 1-.599.314zm-7.84 12.534a.732.732 0 0 1-.637-1.089 160.558 160.558 0 0 1 3.786-6.392.731.731 0 0 1 1.238.776 157.275 157.275 0 0 0-3.751 6.333.73.73 0 0 1-.636.372zm-6.642 13.218a.73.73 0 0 1-.667-1.03 161.98 161.98 0 0 1 3.184-6.716.731.731 0 0 1 1.304.656 158.994 158.994 0 0 0-3.153 6.655.732.732 0 0 1-.668.435zM985.565 60.973a.728.728 0 0 1-.33-.08 176.358 176.358 0 0 0-3.261-1.61.73.73 0 1 1 .634-1.317c1.087.523 2.184 1.065 3.287 1.622a.732.732 0 0 1-.33 1.385M692.122 186.81a.731.731 0 0 1-.144-1.445s1.237-.253 3.609-.656a.738.738 0 0 1 .842.598.731.731 0 0 1-.597.843c-2.337.396-3.556.645-3.562.645a.642.642 0 0 1-.148.016M783.633 180.611h-.014a550.942 550.942 0 0 0-7.343-.09.732.732 0 0 1 .004-1.462h.004c2.413.013 4.868.044 7.364.09a.732.732 0 0 1-.015 1.462zm-22.058.002a.732.732 0 0 1-.013-1.462c2.4-.046 4.854-.078 7.36-.092.35-.034.732.321.735.725a.732.732 0 0 1-.726.736c-2.497.015-4.945.047-7.341.093h-.015zm36.756.456c-.009 0-.02 0-.03-.002-2.48-.108-4.928-.197-7.34-.272a.73.73 0 0 1 .021-1.461h.023c2.419.076 4.872.166 7.358.274a.732.732 0 0 1-.032 1.46zm-51.45.016a.73.73 0 0 1-.728-.699.73.73 0 0 1 .695-.763c2.386-.108 4.838-.203 7.356-.285.4-.044.74.305.752.707a.732.732 0 0 1-.707.755c-2.509.08-4.955.175-7.335.283-.01.002-.022.002-.032.002zm66.135.802l-.05-.003c-2.47-.166-4.914-.317-7.33-.451a.731.731 0 0 1 .083-1.46c2.42.135 4.87.286 7.346.452a.732.732 0 0 1-.05 1.462zm-80.81.066a.732.732 0 0 1-.051-1.46c2.357-.173 4.806-.337 7.344-.487a.738.738 0 0 1 .773.688.73.73 0 0 1-.687.77 557.816 557.816 0 0 0-7.38.489zm95.47 1.108c-.023 0-.046 0-.07-.003a583.32 583.32 0 0 0-7.315-.631.728.728 0 0 1-.668-.788.735.735 0 0 1 .785-.67c2.42.195 4.865.404 7.333.633a.732.732 0 1 1-.066 1.459zm-110.115.189a.73.73 0 0 1-.725-.658.73.73 0 0 1 .65-.801c2.302-.24 4.748-.478 7.328-.706.383-.051.754.263.792.665a.729.729 0 0 1-.664.79c-2.57.23-5.008.465-7.304.705-.026.002-.053.005-.077.005zm124.738 1.34a.85.85 0 0 1-.087-.004 561.904 561.904 0 0 0-7.297-.809.731.731 0 0 1 .152-1.453c2.417.252 4.856.52 7.315.809a.732.732 0 1 1-.083 1.457zm-139.333.443a.73.73 0 0 1-.102-1.453c2.14-.306 4.579-.63 7.304-.962a.73.73 0 1 1 .177 1.45c-2.714.332-5.144.655-7.275.96a.838.838 0 0 1-.104.005zm153.918 1.44a.844.844 0 0 1-.104-.008 580.94 580.94 0 0 0-7.276-.983.733.733 0 0 1-.632-.82c.053-.4.42-.677.816-.63 2.416.31 4.848.638 7.298.986a.73.73 0 0 1 .62.826.73.73 0 0 1-.722.629zm14.533 2.235a.69.69 0 0 1-.122-.01c-2.433-.404-4.85-.791-7.25-1.161a.73.73 0 0 1 .223-1.444c2.405.37 4.83.757 7.267 1.163a.732.732 0 0 1-.118 1.452zm14.474 2.59a.732.732 0 0 1-.139-.013 577.34 577.34 0 0 0-7.222-1.338.732.732 0 0 1 .257-1.44c2.4.429 4.813.876 7.238 1.34a.73.73 0 0 1-.134 1.451zm14.406 2.943a.85.85 0 0 1-.158-.017c-2.405-.523-4.8-1.027-7.184-1.514a.732.732 0 0 1 .292-1.432c2.388.488 4.789.994 7.203 1.518a.73.73 0 1 1-.153 1.444zm14.326 3.297a.705.705 0 0 1-.172-.022 582.598 582.598 0 0 0-7.146-1.691.729.729 0 0 1-.547-.874.729.729 0 0 1 .874-.55 592.12 592.12 0 0 1 7.165 1.696.732.732 0 0 1-.174 1.441zm14.243 3.652a.77.77 0 0 1-.19-.025 563.067 563.067 0 0 0-7.102-1.868.732.732 0 0 1 .362-1.417c2.363.607 4.736 1.23 7.12 1.874a.73.73 0 0 1-.19 1.436zm14.145 4.005a.695.695 0 0 1-.209-.03c-2.357-.701-4.707-1.382-7.05-2.046a.732.732 0 0 1-.506-.902.728.728 0 0 1 .903-.503c2.348.664 4.704 1.347 7.07 2.048a.732.732 0 0 1-.208 1.433zm14.042 4.36a.717.717 0 0 1-.225-.036 582.323 582.323 0 0 0-6.998-2.22.73.73 0 0 1-.48-.916.724.724 0 0 1 .914-.48c2.33.723 4.67 1.466 7.014 2.226a.731.731 0 0 1-.225 1.426zm13.926 4.713a.706.706 0 0 1-.243-.042 642.823 642.823 0 0 0-6.94-2.4.73.73 0 1 1 .469-1.384c2.313.783 4.63 1.585 6.956 2.405a.731.731 0 0 1-.242 1.421zm13.802 5.065a.729.729 0 0 1-.258-.048 596.574 596.574 0 0 0-6.878-2.574.73.73 0 1 1 .501-1.372c2.295.841 4.592 1.702 6.895 2.579a.73.73 0 0 1-.26 1.415zm13.67 5.413a.71.71 0 0 1-.278-.054 614.121 614.121 0 0 0-6.808-2.747.73.73 0 0 1 .536-1.358c2.27.9 4.546 1.817 6.826 2.753.374.153.552.58.4.954a.732.732 0 0 1-.676.452zm13.526 5.765c-.1 0-.198-.02-.295-.063a601.78 601.78 0 0 0-6.737-2.92.731.731 0 0 1 .574-1.345c2.246.956 4.497 1.932 6.752 2.928a.731.731 0 0 1-.294 1.4zm13.373 6.107a.708.708 0 0 1-.31-.068 597.927 597.927 0 0 0-6.662-3.093.733.733 0 0 1-.36-.97.734.734 0 0 1 .968-.36 628.325 628.325 0 0 1 6.675 3.1.731.731 0 0 1-.31 1.391zm13.21 6.452a.728.728 0 0 1-.329-.077 548.717 548.717 0 0 0-6.576-3.264.73.73 0 0 1 .64-1.313c2.196 1.07 4.393 2.16 6.592 3.272a.73.73 0 0 1-.327 1.382zm13.041 6.79a.715.715 0 0 1-.344-.087 605.866 605.866 0 0 0-6.49-3.431.73.73 0 0 1 .673-1.297 596.988 596.988 0 0 1 6.508 3.441.73.73 0 0 1-.347 1.374zm12.861 7.122a.735.735 0 0 1-.362-.094 533.428 533.428 0 0 0-6.4-3.598.732.732 0 0 1-.285-.994.73.73 0 0 1 .992-.285 536.234 536.234 0 0 1 6.417 3.607.731.731 0 0 1 .273.996.732.732 0 0 1-.635.368zm12.677 7.454a.727.727 0 0 1-.379-.107 627.45 627.45 0 0 0-6.304-3.761.728.728 0 0 1-.26-1 .724.724 0 0 1 .997-.26 553.472 553.472 0 0 1 6.322 3.771.73.73 0 0 1-.376 1.357zm12.479 7.773a.72.72 0 0 1-.394-.115 615.526 615.526 0 0 0-6.207-3.924.73.73 0 0 1 .77-1.238c2.075 1.29 4.15 2.6 6.224 3.93a.73.73 0 0 1-.393 1.347zm12.278 8.09a.724.724 0 0 1-.41-.126 616.432 616.432 0 0 0-6.107-4.08.73.73 0 1 1 .805-1.22 610.592 610.592 0 0 1 6.12 4.09.73.73 0 0 1-.408 1.335zm12.067 8.397a.735.735 0 0 1-.423-.134c-2.001-1.43-4-2.842-6.001-4.233a.732.732 0 0 1-.183-1.018.727.727 0 0 1 1.015-.183 612.1 612.1 0 0 1 6.017 4.242.731.731 0 0 1-.425 1.326zm11.852 8.702a.726.726 0 0 1-.44-.149 600.804 600.804 0 0 0-5.891-4.38.732.732 0 0 1 .864-1.179 597.872 597.872 0 0 1 5.906 4.391.734.734 0 0 1-.44 1.317zm11.632 8.993a.718.718 0 0 1-.454-.16 592.427 592.427 0 0 0-5.78-4.525.73.73 0 1 1 .892-1.156 520.624 520.624 0 0 1 5.795 4.537c.317.25.37.71.118 1.026a.724.724 0 0 1-.571.278zm11.404 9.28a.736.736 0 0 1-.467-.17 543.892 543.892 0 0 0-5.668-4.67.732.732 0 0 1 .922-1.134c1.897 1.541 3.79 3.104 5.68 4.68a.733.733 0 0 1-.467 1.293zm11.177 9.555a.726.726 0 0 1-.48-.18c-1.85-1.62-3.7-3.222-5.553-4.806a.73.73 0 0 1 .95-1.113 638.453 638.453 0 0 1 5.565 4.818.73.73 0 0 1-.482 1.28zm10.942 9.823a.728.728 0 0 1-.494-.193 603.347 603.347 0 0 0-5.436-4.938.731.731 0 0 1 .976-1.09 626.625 626.625 0 0 1 5.447 4.95.733.733 0 0 1-.493 1.27zm10.706 10.081a.724.724 0 0 1-.507-.204 633.84 633.84 0 0 0-5.317-5.067.732.732 0 0 1-.03-1.033.73.73 0 0 1 1.032-.03 614.604 614.604 0 0 1 5.327 5.077.73.73 0 0 1-.505 1.257zm10.461 10.332a.728.728 0 0 1-.52-.216 579.742 579.742 0 0 0-5.195-5.191.732.732 0 0 1-.007-1.034.732.732 0 0 1 1.034-.005 623.866 623.866 0 0 1 5.207 5.202.73.73 0 0 1-.519 1.244zm10.225 10.57a.72.72 0 0 1-.53-.23 706.566 706.566 0 0 0-5.077-5.306.73.73 0 0 1 1.05-1.017 611.632 611.632 0 0 1 5.087 5.32.732.732 0 0 1-.53 1.233zm9.98 10.8a.72.72 0 0 1-.542-.24 638.813 638.813 0 0 0-4.955-5.423.731.731 0 0 1 1.073-.991 671.53 671.53 0 0 1 4.966 5.433.732.732 0 0 1-.542 1.22zm9.737 11.023a.722.722 0 0 1-.552-.253 674.541 674.541 0 0 0-4.834-5.532.733.733 0 0 1 .064-1.032.729.729 0 0 1 1.031.065 677.485 677.485 0 0 1 4.843 5.543.733.733 0 0 1-.075 1.032.733.733 0 0 1-.477.177zM1229.238 396.28a.73.73 0 0 1-.56-.262c-.782-.937-1.568-1.87-2.35-2.797a.73.73 0 1 1 1.116-.943c.785.93 1.57 1.864 2.355 2.803.258.31.216.77-.094 1.031a.72.72 0 0 1-.467.168"/>
        </g>
    </g>
</svg>
