<svg xmlns="http://www.w3.org/2000/svg" width="706" height="618"><g fill="#0D1134" opacity=".65"><path d="M430.42 340.822c66.002-66.23 117.593-139.194 145.276-205.448 28.8-68.924 28.385-123.206-1.154-152.84C559.64-32.422 538.642-40 512.076-40c-77.718 0-193.33 65.625-294.517 167.178C77.049 268.198 13.742 425.57 73.424 485.466 88.325 500.422 109.348 508 135.902 508c77.718 0 193.33-65.625 294.517-167.178zM230.854 140.535C327.2 43.841 440.203-21.117 512.076-21.117c21.387 0 37.931 5.715 49.17 16.995 23.43 23.516 22.377 71.693-2.898 132.182-26.767 64.038-76.915 134.85-141.225 199.392-96.345 96.694-209.348 161.652-281.209 161.652-21.399 0-37.943-5.715-49.182-17.007-50.487-50.645 15.516-202.49 144.123-331.562z"/><path d="M710.306 35.13l-68.333-83.454c-3.7-5.5-7.864-10.65-12.595-15.382-79.821-79.854-273.272-11.442-440.4 155.77C21.847 259.248-46.549 452.78 33.285 532.633c.302.303.642.567.956.87 0 0-.012-.013-.012-.026l.037.025c4.253 4.154 8.846 7.88 13.702 11.215l83.193 68.023c81.155 81.176 266.667 18.05 431.505-146.857 164.84-164.92 227.926-350.496 147.64-430.754zm-48.05-19.044l29.404 35.911c15.589 15.609 24.182 36.869 26.485 62.107l-57.45-57.487c-.025.113-.038.227-.063.327 1.875-14.312 2.466-27.994 1.623-40.858zm-455.487 93.763C358.686-42.119 544.07-113.45 611.587-45.907c67.516 67.544-3.775 252.994-155.692 404.974S118.593 582.38 51.077 514.836c-67.516-67.544 3.775-253.007 155.692-404.987zM148.023 594.1l-34.941-28.574c12.846.819 26.523.252 40.804-1.61-.1.012-.214.037-.302.05l57.085 57.096c-25.403-2.417-46.83-11.165-62.646-26.962zm97.8 26.547l-62.243-62.258c10.053-2.404 20.332-5.362 30.826-8.886l65.125 65.177c-11.663 2.845-22.9 4.821-33.707 5.967zm61.213-14.073L240.35 539.86c-.037.012-.05.025-.088.038a501.618 501.618 0 0 0 27.958-12.4c-.126.064-.24.14-.352.19l67.868 67.884c-9.751 4.14-19.314 7.816-28.7 11zm53.071-22.204l-68.71-68.74a608.772 608.772 0 0 0 25.314-14.4l69.404 69.432a542.67 542.67 0 0 1-26.008 13.708zm48.328-26.962l-69.843-69.886a.846.846 0 0 1-.139.088c7.902-5.148 15.854-10.485 23.793-16.111l70.246 70.275a689.588 689.588 0 0 1-24.057 15.634zm44.88-30.424l-70.547-70.59c-.025.025-.05.037-.076.063A807.805 807.805 0 0 0 405 438.92l70.838 70.867a748 748 0 0 1-22.522 17.195zm42.025-33.281l-70.963-70.993a908.173 908.173 0 0 0 21.239-18.957 4.502 4.502 0 0 0-.252.24l71.127 71.169c-6.996 6.394-14.08 12.524-21.15 18.54zm49.511-45.63c-3.322 3.336-6.681 6.571-10.028 9.819l-71.177-71.207c-.063.063-.139.126-.201.189 3.422-3.324 6.844-6.596 10.229-9.995 3.384-3.398 6.68-6.822 9.99-10.233-.075.075-.126.138-.189.201l71.178 71.207c-3.221 3.336-6.468 6.696-9.802 10.02zm27.102-28.372l-71.152-71.156c-.076.075-.164.15-.227.239 6.48-7.061 12.81-14.123 18.924-21.247l70.976 71.018c-6.027 7.074-12.154 14.135-18.521 21.146zm34.588-40.67l-70.837-70.88a803.037 803.037 0 0 0 17.476-22.241l70.561 70.59a770.381 770.381 0 0 1-17.2 22.532zm31.972-43.35l-70.247-70.301c5.637-7.943 10.96-15.873 16.106-23.803-.026.05-.05.088-.088.151l69.868 69.898a649.58 649.58 0 0 1-15.64 24.055zm28.913-46.372l-69.44-69.458a614.975 614.975 0 0 0 14.38-25.326l68.775 68.803c-4.253 8.572-8.782 17.232-13.715 25.98zm24.938-50.363l-67.943-67.984a1.27 1.27 0 0 1-.114.226 493.824 493.824 0 0 0 12.356-27.88.451.451 0 0 0-.05.138l66.798 66.826c-3.196 9.378-6.895 18.957-11.047 28.674zm19.188-56.127l-65.301-65.341c3.51-10.485 6.48-20.77 8.87-30.826l62.508 62.534c-1.183 10.762-3.183 21.977-6.077 33.633z"/><path d="M409.718 209.537c-7.341 34.294-21.417 61.911-42.229 82.853-18.162 18.277-37.36 29.086-57.585 32.432-20.872 3.527-44.473-3.569-70.806-21.299l-.114.115c-.162.32-.401.714-.715 1.188-4.243 6.283-8.13 13.358-11.647 21.23-.754 1.687-1.964 2.905-3.632 3.655-1.58.508-3.114.345-4.595-.484-1.532-1.084-2.55-2.537-3.048-4.356-.549-2.073-.447-3.956.307-5.643 3.619-8.28 7.712-15.795 12.271-22.55.288-1.064.728-1.818 1.322-2.257a32.298 32.298 0 0 1 1.644-2.35l.227-.229a22.64 22.64 0 0 1 1.646-2.347c4.559-5.831 10.287-12.208 17.173-19.137 9.231-9.289 22.575-19.158 40.025-29.606 12.086-7.055 21.698-13.405 28.841-19.048 2.763-2.317 5.165-4.507 7.209-6.563l.454-.457a204.309 204.309 0 0 1-10.177 3.978 4640.88 4640.88 0 0 0-27.993 10.309c-17.296 7.35-32.719 17.378-46.267 30.084a175.644 175.644 0 0 0-10.365 10.898c-.796-17.913-.812-30.19-.046-36.835 2.446-21.016 9.951-37.847 22.513-50.487 7.19-7.235 16.724-12.497 28.604-15.794 6.08-1.633 17.363-3.477 33.85-5.532 31.417-3.938 54.357-13.18 68.81-27.723 3.632-3.655 8.542-9.909 14.725-18.765 3.3-4.866 5.83-8.808 7.594-11.817 8.992 36.256 9.662 71.771 2.004 106.537z"/></g></svg>