<svg xmlns="http://www.w3.org/2000/svg" width="70" height="70"><g fill="none" fill-rule="evenodd"><circle cx="35" cy="35" r="35" fill="#FFF"/><path fill="#00DF9E" d="M35.661 66.568v-9.863l3.925-6.055 3.457 2.86c.146.11.294.147.44.147.11 0 .22-.037.332-.075l3.561-2.055 4.407-2.644a.668.668 0 0 0 .258-.919c-.184-.33-.624-.44-.918-.257l-4.444 2.645-3.121 1.798-3.674-3.011a.69.69 0 0 0-.243-.138l-.013-.008-3.048-.809 4.37-3.011a.651.651 0 0 0 .146-.918.625.625 0 0 0-.917-.184l-5.583 3.82c-.183.146-.294.44-.257.698.036.257.22.477.478.514l3.525.955-3.373 5.23-4.853-6.92 3.746-4.92c.257-.295.182-.7-.11-.957-.294-.22-.735-.145-.955.148l-3.743 4.855-4.595-2.247a.672.672 0 0 0-.88.33c-.185.33-.038.735.293.918l4.334 2.094-2.388 3.084-7.528-2.827c-.368-.11-.735.037-.882.403-.147.367.038.735.404.882l7.97 3.011c.11.037.183.037.256.037a.66.66 0 0 0 .551-.257l2.667-3.424 5.046 7.182v9.886C17.18 66.194 3.416 52.21 3.416 35c0-17.444 14.139-31.583 31.583-31.583 17.446 0 31.585 14.14 31.585 31.583 0 17.224-13.785 31.215-30.923 31.569M35 0C15.682 0 0 15.683 0 35c0 19.318 15.682 35 35 35 19.318 0 35-15.682 35-35C70 15.682 54.318 0 35 0"/></g></svg>