<svg xmlns="http://www.w3.org/2000/svg" width="70" height="70"><g fill="none" fill-rule="evenodd"><circle cx="35" cy="35" r="35" fill="#FFF"/><path fill="#00DF9E" d="M35.661 66.568v-9.863l3.925-6.055 3.457 2.86c.147.11.294.147.44.147.11 0 .222-.037.332-.075l3.562-2.055 4.407-2.644a.667.667 0 0 0 .256-.919c-.183-.33-.623-.44-.955-.257l-3.194 1.91.955-6.317c0-.184-.037-.404-.22-.551a.578.578 0 0 0-.552-.22l-6.755 1.044.335-4.819 6.09 2.673c.33.147.734 0 .882-.33.147-.368 0-.771-.33-.92l-6.912-3.017a.702.702 0 0 0-.288-.104c-.037-.004-.071.01-.107.013l-.041.005a.603.603 0 0 0-.209.067c-.027.011-.058.011-.083.026l-6.74 4.655-.495-5.867c-.037-.404-.331-.697-.734-.624-.368 0-.625.33-.625.734l.159 1.916-4.9.057.922-2.817a.642.642 0 0 0-.404-.845c-.368-.147-.735.073-.882.403l-1.102 3.379-2.607.625-1.91-3.525a.668.668 0 0 0-.918-.259c-.33.185-.478.588-.293.92l1.872 3.425-3.746 2.487c-.295.183-.403.625-.183.918.147.221.367.33.587.33.11 0 .258-.036.368-.146l4.07-2.726 2.528-.618-.231 2.575-1.507 2.805-2.84-1.376c-.368-.146-.771 0-.918.332a.628.628 0 0 0 .293.88l3.453 1.69 4.333 2.094-2.387 3.084-7.529-2.827c-.367-.11-.772.037-.882.403-.146.367.037.735.405.882l7.97 3.011c.11.037.182.037.256.037.22 0 .403-.074.55-.257l2.668-3.424 5.045 7.182v9.886C17.182 66.194 3.416 52.21 3.416 35c0-17.444 14.14-31.62 31.583-31.62 17.446 0 31.585 14.176 31.585 31.62 0 17.224-13.785 31.215-30.923 31.569zm4.223-22.313l-4.505 3.097-1.244-4.008 6.122-4.215-.373 5.126zm2.497.515l4.958-.735-.77 5.361-4.188-4.626zm3.563 5.985l-2.386 1.395-3.674-3.011a.691.691 0 0 0-.243-.138c-.005-.003-.009-.007-.014-.008l-3.048-.809 4.365-3.007 5 5.578zm-12.87-6.225l1.265 4.131c.018.05.061.075.087.117.038.075.08.138.142.19.045.038.095.056.147.08.037.014.062.049.101.055l3.526.955-3.372 5.23-4.854-6.92 2.959-3.838zm-6.3-2.772l.22-2.387 5.34-.034.248 2.969-5.808-.548zm5.264 1.865l-2.985 3.871-3.933-1.917 1.31-2.49 5.608.536zM34.999 0C15.683 0 0 15.683 0 35c0 19.318 15.683 35 35 35 19.318 0 35-15.682 35-35C70 15.682 54.318 0 35 0z"/></g></svg>