<svg xmlns="http://www.w3.org/2000/svg" width="70" height="70" viewBox="0 0 70 70">
    <g fill="none" fill-rule="evenodd">
        <circle cx="35" cy="35" r="35" fill="#FFF"/>
        <path fill="#00DF9E" d="M35.661 66.567v-9.862l3.925-6.055 3.457 2.86a.7.7 0 0 0 .44.146c.11 0 .22-.036.332-.072l3.561-2.057 3.93-2.358 3.269 3.863c.147.184.33.257.514.257a.552.552 0 0 0 .404-.147l5.124-3.698 1.728 1.354c-5.358 9.256-15.275 15.535-26.684 15.77zM9.03 52.97l5.772-.488c.106-.009.2-.041.284-.087.027-.013.054-.008.084-.022l2.974-2.116 7.639 2.886c.11.038.183.038.257.038.22 0 .404-.075.551-.258l2.666-3.424 5.046 7.182v9.887C23.825 66.338 14.607 61.015 9.03 52.97zm32.29-9.395l.334-4.82 5.713 2.507.082 1.364-6.13.949zm1.063 1.196l4.958-.735-.771 5.362-4.187-4.627zm-5.802 3.414l4.364-3.007 5 5.578-2.386 1.396-3.674-3.011a.684.684 0 0 0-.243-.14c-.004 0-.01-.006-.013-.007l-3.048-.81zM25.12 45.577l1.31-2.49 5.607.536-2.984 3.872-3.933-1.918zm-4.066-.46l2.817 1.377 4.334 2.095-2.388 3.085-6.658-2.501 1.895-4.056zm-8.433-5.5l4.53 2.679-3.75 1.663-1.662-3.099.882-1.244zm-.73-1.308c-.02.025-.048.042-.066.07-.008.015-.008.03-.016.046l-.608.872-1.428-4.657.215-.044h.074l4.043-1.134.123 1.505-2.337 3.342zm3.38-2.437l5.02.35 1.705 3.122-3.378 2.23-5.205-3.078 1.857-2.624zm5.037-.982l-4.737-.367-.452-5.455 6.773 1.974-1.584 3.848zm5.314 4.699l-.232 2.575-1.506 2.804-2.793-1.351-1.337-1.174 3.34-2.236 2.528-.618zm1.192-4.375l-.96 2.944-2.607.624-1.751-3.232 1.567-3.781 3.75 3.445zm5.044-1.369l-4.02.457-4.038-3.681 3.963-3.48 2.306.843 1.789 5.861zm-4.536 4.192l.78-2.388 3.959-.466v2.8l-4.74.054zm4.739 1.302v.215c0 .037 0 .074.036.11l.417 2.636-5.742-.542.221-2.388 5.068-.031zm3.953-5.91l-2.783.269-1.707-5.565h2.114l2.376 5.297zm4.134-1.367l-2.746 1.077-2.22-4.897 3.493.263 1.473 3.557zm-1.687 6.619l-4.085-3.717 2.717-.258c.073 0 .146 0 .22-.036l3.049-1.231v3.93l-1.901 1.312zm-4.63 3.198l-.412-2.362v-3.563l3.896 3.519-3.484 2.406zm6.428-2.751l-.376 5.127-4.503 3.096-1.238-4.014 6.117-4.21zm7.08-5.4v1.657a.73.73 0 0 0 0 .276v4.113l-5.619-2.466v-4.125l5.619.545zm-5.808-1.919l-1.554-3.703 3.549-2.461 3.813 5.201v1.514l-5.808-.55zm-29.41 14.268l1.182-.596c.021-.007.045-.005.064-.015l5.142-2.277 1.395 1.213-2.093 4.407-2.828 2.02-2.862-4.752zm-4.236 5.124l1.912-3.951 1.099-.554 2.715 4.517-5.44.453c-.095-.155-.193-.309-.286-.465zm-3-6.665l3.498 2.473-1.316 2.735a31.314 31.314 0 0 1-2.183-5.208zM34.968 55.29l-4.853-6.921 2.958-3.838 1.265 4.132c.018.048.061.074.087.116.038.075.08.138.143.19.045.038.094.055.146.08.037.014.06.05.102.054l3.525.955-3.373 5.232zm23.343-9.378l4.794-1.003 1.408 1.341a31.206 31.206 0 0 1-1.504 3.342l-4.698-3.68zm-4.288 1.502l2.617-1.085 2.857 2.239-4.298 3.107-2.719-3.232 1.543-1.03zm-1.506-.624l-1.357.905c-.012.007-.027.005-.038.013l-3.232 1.91.796-5.264 3.83 2.436zm-1.464-11.265l1.98 2.85-4.336 1.488v-3.81l2.356-.528zm1.95-1.823l-1.695.379a.624.624 0 0 0-.242.053l-2.369.53v-2.982l4.306 2.02zm2.122-.5l-5.398-2.534 8.814-3.554.452 4.99-3.868 1.097zm.787 11.967l-2.061.855-5.043-3.201-.073-1.542 4.995-1.726 1.164 2.966c.017.097.05.19.105.27l.913 2.378zm1.952-5.252l4.058 3.863-4.704.99-.896-2.3 1.542-2.553zm-2.172.932l-.934-2.397c-.012-.024-.032-.043-.046-.066-.01-.026-.013-.055-.027-.08l-2.203-3.101 2.717-.608h.035l3.885-1.101.138 1.53-3.565 5.823zM35 3.38c17.444 0 31.583 14.176 31.583 31.62a31.56 31.56 0 0 1-1.567 9.83l-6.422-6.12 1.875-3.105c.02-.022.03-.052.048-.077l.006-.013c.002 0 0-.001.002-.003a.632.632 0 0 0 .101-.33c0-.024.01-.046.008-.07l-.836-8.939c.002-.032-.006-.062-.01-.095v-.001-.004c-.006-.061-.01-.122-.036-.18-.004-.011-.014-.018-.018-.03a.578.578 0 0 0-.121-.183c-.012-.012-.022-.024-.036-.036-.03-.026-.046-.06-.082-.082-.023-.014-.054-.015-.08-.027a.729.729 0 0 0-.142-.048c-.042-.01-.077-.024-.12-.028a.718.718 0 0 0-.283.03l-9.91 3.99.692-3.182c.075-.367-.147-.698-.513-.809a.7.7 0 0 0-.808.551l-.65 2.96-3.427-4.686a.653.653 0 0 0-.32-.214.648.648 0 0 0-.188-.046l-.3-.033a.561.561 0 0 0-.478.11l-4.04 3.048-4.774-.404h-3.452l-2.865-1.028a.708.708 0 0 0-.66.11l-4.53 4.012-7.715-2.281c-.007-.015-.012-.026-.021-.04l-1.213-2.463a.63.63 0 0 0-.882-.293c-.367.146-.477.551-.33.88l.944 1.917-5.13 2.418a.674.674 0 0 0-.331.882c.184.367.587.513.918.33l4.848-2.276.256 3.129-4.296 1.203c-.008.003-.014.01-.022.012l-2.035.392c-.037 0-.073.038-.11.038l-.881.182c-.368.075-.588.442-.515.81a.7.7 0 0 0 .662.55c.073 0 .11-.036.147-.036l1.505-.309 1.836 6.111c.012.036.05.063.07.096.002.004.002.01.003.015l1.837 3.414-2.9 1.433-4.986-3.535a31.665 31.665 0 0 1-.891-7.447C3.416 17.555 17.555 3.38 35 3.38zM35 0C15.683 0 0 15.682 0 35c0 19.318 15.683 35 35 35 19.318 0 35-15.682 35-35C70 15.681 54.318 0 35 0z"/>
    </g>
</svg>
