<svg xmlns="http://www.w3.org/2000/svg" width="70" height="70"><g fill="none" fill-rule="evenodd"><circle cx="35" cy="35" r="35" fill="#FFF"/><path fill="#00DF9E" d="M35.661 66.567v-9.862l3.925-6.055 3.457 2.86a.7.7 0 0 0 .44.146c.11 0 .22-.036.33-.072l3.564-2.057 3.929-2.358 3.268 3.863a.642.642 0 0 0 .515.257.55.55 0 0 0 .404-.147l5.123-3.698 1.73 1.354c-5.36 9.256-15.275 15.535-26.685 15.77zM9.029 52.97l5.772-.488a.71.71 0 0 0 .284-.087c.027-.013.053-.008.082-.022l2.976-2.116 7.64 2.886c.11.038.182.038.255.038a.662.662 0 0 0 .552-.258l2.666-3.424 5.046 7.182v9.887c-10.478-.229-19.695-5.552-25.273-13.598zM35 3.379c17.446 0 31.585 14.176 31.585 31.62a31.7 31.7 0 0 1-.288 4.208l-4.457 2.591-3.245-3.09 1.875-3.104c.02-.022.03-.051.046-.076l.01-.014v-.003a.58.58 0 0 0 .101-.33c0-.024.01-.046.008-.07l-.835-8.939c0-.032-.007-.064-.01-.096v-.003c-.006-.06-.01-.123-.037-.18-.003-.012-.014-.019-.017-.03a.565.565 0 0 0-.157-.22c-.029-.026-.047-.06-.082-.082l-6.684-4.627a.68.68 0 0 0-.918.11l-2.317 2.648-2.163-2.441v-2.732l6.168 1.864c.038.037.11.037.185.037.293 0 .55-.184.661-.478.11-.366-.111-.734-.477-.845l-6.537-2.02-.037-1.505c0-.367-.33-.661-.7-.661-.365 0-.66.33-.66.698l.037 1.983v3.048l-3.195-.66c-.025-.006-.048.002-.072 0h-.001l-1.286-.158 2.975-5.462c.183-.331.037-.772-.294-.919a.667.667 0 0 0-.918.258l-3.204 5.946-1.166-.144a.676.676 0 0 0-.66.295l-4.525 6.977h-2.313l1.118-6.639 3.993.286h.073c.331 0 .661-.258.661-.624.037-.368-.257-.699-.624-.735l-4.583-.327-.008-.004c-.005 0-.01.003-.017.001h-.02c-.054-.006-.104.01-.156.017-.026.004-.051.002-.076.01a.675.675 0 0 0-.372.276c-.012.014-.024.026-.033.04-.023.038-.034.08-.05.121-.014.042-.039.078-.048.123l-.302 1.835-4.067.281v-3.439a.658.658 0 0 0-.662-.66H18.98l.522-.81c.22-.292.11-.732-.184-.916-.33-.222-.735-.11-.955.184l-.959 1.483-4.476-.272a.725.725 0 0 0-.735.66c0 .37.257.699.662.699l3.703.224-1.207 1.87-2.828 4.553c-.018.033-.022.068-.034.103a.562.562 0 0 0-.053.223.647.647 0 0 0 .04.287c.005.017.004.033.011.048l1.182 2.4.05.625-3.288 1.052c-.368.11-.552.478-.442.844.074.295.369.478.625.478.074 0 .147 0 .221-.036l2.997-.955.397 4.885-3.321 4.7-4.335-5.325c-.219-.295-.66-.331-.955-.11-.293.22-.328.66-.11.954l2.623 3.23-4.321 1.565A31.76 31.76 0 0 1 3.416 35c0-17.444 14.14-31.62 31.583-31.62zm30.017 41.45l-2.155-2.055 3.159-1.842a31.39 31.39 0 0 1-1.004 3.896zm-7.06.804l3.668-2.138 2.89 2.754a31.387 31.387 0 0 1-1.504 3.342l-5.053-3.958zm-3.932 1.78l2.616-1.085 2.858 2.239-4.3 3.107-2.716-3.232 1.542-1.03zm-5.338-3.06l3.832 2.436-1.326.884c-.036.013-.073.016-.107.034l-3.194 1.91.795-5.264zm4.317-10.654l-1.694.38a.629.629 0 0 0-.243.054l-2.367.53v-2.982l4.304 2.018zm-3.986-4.244l1.187-4.408 2.314-2.645 5.159 3.567-8.66 3.486zm6.108 3.745l-5.399-2.533 8.798-3.546.463 4.985-3.862 1.094zM48.7 39.862v-3.81l2.354-.528 1.98 2.85-4.334 1.488zm5.03-.308l1.167 2.967a.666.666 0 0 0 .103.268l.914 2.38-2.06.854-5.044-3.201-.073-1.542 4.994-1.726zm4.137.362l2.732 2.604-3.49 2.028-.794-2.062 1.552-2.57zm-2.18.943l-.927-2.408c-.012-.024-.032-.043-.047-.066-.011-.026-.014-.055-.028-.08l-2.201-3.101 2.716-.608h.037l3.88-1.1.141 1.53-3.572 5.833zm-11.36-16.436l-.698-2.873 2.764.554 2.431 2.777-1.118 4.169-3.379-4.627zm-3.01 19.15l.336-4.82 5.711 2.508.082 1.364-6.13.949zm1.063 1.197l4.958-.735-.771 5.362-4.187-4.627zm-5.802 3.414l4.365-3.007 5 5.578-2.388 1.396-3.672-3.011a.707.707 0 0 0-.243-.14c-.005 0-.009-.006-.014-.007l-3.048-.81zM25.12 45.577l1.31-2.49 5.608.536-2.985 3.872-3.933-1.918zm-4.064-.46l2.817 1.377 4.333 2.095-2.387 3.085-6.659-2.501 1.896-4.056zm-8.935.96l1.184-.596c.02-.007.042-.005.064-.015l5.141-2.277 1.395 1.213-2.092 4.407-2.829 2.02-2.863-4.752zm-4.235 5.124l1.912-3.951 1.098-.554 2.716 4.517-5.44.453c-.096-.155-.192-.309-.286-.465zm4.307-6.653l-2.864 1.433-5.024-3.537c-.087-.365-.176-.73-.252-1.1l4.985-1.814 1.35 1.662 1.805 3.356zm4.958-2.252l-3.749 1.663-1.66-3.099.88-1.244 4.529 2.68zm-1.88-6.424l5.02.35 1.707 3.122-3.378 2.23-5.206-3.078 1.857-2.624zm5.77-11.004l-3.333 2.551-2.655.85-.03-.372a.61.61 0 0 0-.076-.279l-.001-.002a.116.116 0 0 0-.01-.022l-1.058-2.143 2.244-3.673 4.92 3.09zm4.484-3.09l-3.288 2.214-5.373-3.38 1.247-1.931.216.013h7.198v3.084zm4.54 4.77l-2.1-.746a.683.683 0 0 0-.316-.103l-3.823-1.14 2.615-1.728 4.284-.296-.66 4.013zm1.792 7.297l-4.018.457-4.038-3.681 3.947-3.465 2.321.831 1.788 5.858zm-4.535 4.192l.78-2.388 3.959-.466v2.8l-4.74.054zm-.328 1.333l5.067-.031v.215c0 .037 0 .074.037.11l.417 2.636-5.741-.542.22-2.388zm-7.75-11.422l3.12-2.4 3.865 1.138-3.533 3.099-3.451-1.837zm2.693 2.982l-1.627 3.96-4.738-.367-.404-4.87 2.746-.874 4.023 2.15zm3.685 8.659l-.232 2.575-1.505 2.804-2.793-1.351-1.338-1.174 3.34-2.236 2.528-.618zm-2.374-.807l-1.75-3.232 1.566-3.781 3.75 3.445-.959 2.944-2.607.624zm12.768-5.352l-2.784.268-1.715-5.565h2.122l2.377 5.297zm2.656-4.931l1.476 3.563-2.745 1.077-2.227-4.918 3.496.278zm.264-1.307l-3.67-.321 3.884-5.975 3.011.368.767 3.16-3.992 2.768zm-.475 11.489l-4.084-3.716 2.752-.259c.037 0 .111 0 .184-.036l3.049-1.231v3.93l-1.9 1.312zm-4.63 3.198l-.41-2.362v-3.563l3.895 3.519-3.485 2.406zm6.427-2.751l-.374 5.127-4.503 3.096-1.238-4.014 6.115-4.21zm7.081-5.4v1.656a.723.723 0 0 0 0 .277v4.113l-5.618-2.466v-4.125l5.618.545zm-5.807-1.919l-1.553-3.703 3.554-2.465 3.806 5.205v1.514l-5.807-.55zM4.884 44.536l3.5 2.473-1.316 2.735a31.335 31.335 0 0 1-2.184-5.208zM34.97 55.29l-4.854-6.921 2.959-3.838 1.264 4.132c.018.048.061.074.087.116a.55.55 0 0 0 .142.19c.045.038.095.055.147.08.036.014.06.05.101.054l3.526.955-3.372 5.232zM35 0C15.681 0 0 15.682 0 35c0 19.318 15.682 35 35 35 19.317 0 35-15.682 35-35C70 15.681 54.317 0 35 0z"/></g></svg>