<svg xmlns="http://www.w3.org/2000/svg" width="70" height="70" viewBox="0 0 70 70">
    <g fill="none" fill-rule="evenodd">
        <circle cx="35" cy="35" r="35" fill="#FFF"/>
        <path fill="#00DF9E" d="M35.661 66.567v-9.862l3.926-6.055 3.456 2.86c.146.11.295.146.44.146.111 0 .222-.036.332-.072l3.561-2.057 3.93-2.358 3.27 3.863c.146.184.33.257.513.257a.555.555 0 0 0 .406-.147l5.122-3.698 1.728 1.354c-5.358 9.256-15.274 15.535-26.684 15.77zM9.031 52.97l5.77-.488c.106-.009.2-.041.284-.087.029-.013.054-.008.084-.022l2.974-2.116 7.639 2.886c.11.038.185.038.257.038.22 0 .404-.075.551-.258l2.666-3.424 5.046 7.182v9.887C23.825 66.338 14.607 61.015 9.03 52.97zM38.144 3.535l-2.96 1.88-2.084-1.973c.63-.038 1.261-.063 1.9-.063 1.061 0 2.11.055 3.144.156zm22.889 13.57l-4.092-.69 1.275-2.838a31.7 31.7 0 0 1 2.817 3.529zm3.983 27.723l-2.154-2.054 3.157-1.842a31.113 31.113 0 0 1-1.003 3.896zm-7.06.805l3.668-2.138 2.89 2.754a31.206 31.206 0 0 1-1.505 3.342l-5.052-3.958zm-3.932 1.78l2.616-1.085 2.858 2.239-4.299 3.107-2.719-3.232 1.544-1.03zm-5.338-3.06l3.83 2.436-1.325.884c-.034.013-.073.016-.106.034l-3.194 1.91.795-5.264zm-4.36-19.93l-.696-2.873 2.721.545 2.473 2.79-1.118 4.165-3.38-4.627zm-3.007 19.15l.335-4.82 5.71 2.508.084 1.364-6.129.949zm1.062 1.197l4.959-.735-.772 5.362-4.187-4.627zm-5.802 3.414l4.365-3.007 5 5.578-2.387 1.396-3.674-3.011a.69.69 0 0 0-.242-.14c-.005 0-.009-.006-.014-.007l-3.048-.81zM25.12 45.577l1.31-2.49 5.607.536-2.984 3.872-3.933-1.918zm-4.066-.46l2.817 1.377 4.334 2.095-2.388 3.085-6.657-2.501 1.894-4.056zm-8.933.96l1.184-.596c.02-.007.043-.005.063-.015l5.14-2.277 1.396 1.213-2.092 4.407-2.828 2.02-2.863-4.752zm-4.236 5.124l1.912-3.951 1.099-.554 2.715 4.517-5.44.453c-.095-.155-.192-.309-.286-.465zm1.152-11.67l1.35 1.661 1.805 3.356-2.864 1.433-5.022-3.537c-.089-.365-.177-.73-.253-1.1l4.984-1.814zm-5.595-3.493l2.342-.514 2.346 2.888-4.32 1.566a31.637 31.637 0 0 1-.368-3.94zm.406-6.236l3.156-.357 1.886 4.01-5.466 1.174c.02-1.642.164-3.254.424-4.827zm1.138-4.647L6.39 28.14l-2.28.256c.236-1.103.53-2.184.876-3.242zm7.579.677l.754 1.527-5.504.62-2.18-4.615c.234-.592.483-1.175.751-1.748l6.179 4.216zM27.173 6.636l-3.07.63-.685-1.681a31.391 31.391 0 0 1 5.378-1.592l-1.623 2.643zm8.569 12.362l-3.435-.246-2.264-3.547 1.166-2.932 3.231.277 1.302 6.448zm7.329-9.916l-2.305 2.67-5.105-.451V7.06l7.41 2.021zm12.753 6.563l-2.823-3.52-.008-.011-1.605-4.147a31.778 31.778 0 0 1 5.817 4.557l-1.38 3.121zm2.771 5.477c-.01.02-.017.039-.025.058a.665.665 0 0 0-.066.35l-.052 3.307-5.06-3.502 2.872-3.67 3.823.643-1.492 2.814zm7.644 9.207l-5.017-.912 4.224-2.824c.335 1.22.604 2.465.793 3.736zm-5.64 4.23l-.377-3.955 6.193 1.12c.11 1.078.17 2.17.17 3.275 0 .155-.011.308-.012.462l-5.975-.902zm-2.004 4.15l1.692-2.803 6.241.912a31.352 31.352 0 0 1-.23 2.389l-4.458 2.591-3.245-3.09zm-.728 1.207L60.6 42.52l-3.49 2.028-.796-2.062 1.553-2.57zm-2.18.943l-.928-2.408c-.012-.024-.032-.043-.046-.066-.01-.026-.013-.055-.027-.08l-2.203-3.101 2.717-.608h.035l3.881-1.1.142 1.53-3.57 5.833zm-1.956-1.305l1.166 2.966c.015.097.048.19.104.27l.912 2.378-2.06.855-5.044-3.201-.073-1.542 4.995-1.726zm-2.677-4.03l1.98 2.85-4.334 1.488v-3.81l2.354-.528zm1.95-1.823l-1.694.379a.63.63 0 0 0-.243.053l-2.367.53v-2.982l4.304 2.02zm5.52-6.58l.463 4.985-3.861 1.094-5.398-2.533 8.797-3.546zm-8.32-2.074l2.314-2.645 5.159 3.567-8.66 3.486 1.187-4.408zm-2.791-6.528l5.217 1.576-.771.986c-.004.003-.004.007-.007.01l-2.274 2.601-2.165-2.441v-2.732zm4.84-5.213l2.869 3.61-1.605 2.047-6.104-1.886-.026-1.09 4.865-2.681zm-10.14-1.037l2.363-2.72 6.421 2.963-4.218 2.326-4.566-2.57zm.747 7.71c-.025-.005-.047.003-.072 0h-.001l-1.287-.157 2.65-4.862 1.875 1.054.03 1.578v3.048l-3.195-.66zm-4.398 18.702l-4.085-3.717 2.717-.258c.073 0 .147 0 .22-.036l3.049-1.231v3.93l-1.901 1.312zm1.798.447l-.376 5.127-4.503 3.096-1.236-4.014 6.115-4.21zm-6.84-3.174l3.897 3.519-3.485 2.406-.412-2.362v-3.563zm-1.903-7.821h2.122l2.376 5.297-2.782.268-1.716-5.565zM26.994 39.37l5.068-.031v.215c0 .037 0 .074.038.11l.415 2.636-5.74-.542.22-2.388zm-3.746-.588l-1.751-3.232 1.567-3.781 3.752 3.445-.96 2.944-2.608.624zm-.153 1.425l2.528-.618-.232 2.575-1.505 2.804-2.794-1.351-1.337-1.174 3.34-2.236zm-9.68-1.711l1.856-2.624 5.021.35 1.707 3.122-3.378 2.23-5.206-3.078zm-.793 1.12l4.53 2.68-3.75 1.663-1.66-3.099.88-1.244zm-2.559-5.02l4.049-1.135.119 1.503-3.324 4.7L7.274 35.2l2.753-.603h.036zm3.94-2.528l-3.756 1.06-1.815-3.845 5.304-.6.267 3.385zm2.562-13.481l-1.213 1.87-2.46 3.966-5.194-3.527 5.38-2.52 3.487.21zm.85-1.31l-3.569-.217 1.664-4.343 4.657.32-2.751 4.24zm10.534-1.742l-2.037 1.8h-6.919l2.646-4.075 6.31 2.275zm.946-1.13l-6.568-2.321 1.801-3.454 3.197-.66 2.68 3.672-1.11 2.763zm2.062 6.748l-4.072.281v-3.12l2.234-1.994 2.099 3.256-.26 1.577zm-11.712 6.795l3.12-2.4 3.865 1.138-3.533 3.099-3.452-1.837zm-1.43.778l4.124 2.204-1.629 3.96-4.738-.367-.473-5.714 2.715-.083zm3.226-3.858l-3.265 2.499-2.908.088-.99-2.004 2.245-3.673 4.918 3.09zm5.401-2.037l4.287-.296-.663 4.013-2.101-.746a.674.674 0 0 0-.314-.103l-3.824-1.14 2.615-1.728zm-.917-1.053l-3.288 2.214-5.371-3.38 1.253-1.931.207.013h7.199v3.084zm6.537 13.405v2.8l-4.74.054.78-2.388 3.96-.466zm-4.224-.88l-4.037-3.682 3.948-3.465 2.321.831 1.789 5.858-4.02.457zm8.584-13.89c.004.001.006.005.01.007l1.25.225-3.974 6.128h-2.312l1.117-6.639 3.909.28zm2.523-.905l-.014-.007-1.8-.33-1.3-6.502 5.007.43 2.11 1.186-2.889 5.36-1.114-.137zm1.204 12.554l-2.745 1.077-2.227-4.918 3.497.278 1.475 3.563zm-4.881-5.191l3.883-5.975 3.01.368.767 3.16-3.99 2.768-3.67-.321zm12.073 6.857v1.657a.68.68 0 0 0 0 .276v4.113l-5.62-2.466v-4.125l5.62.545zm-5.809-1.919l-1.554-3.703 3.555-2.465 3.808 5.205v1.514l-5.809-.55zm23.03-7.944c.17.454.329.91.48 1.375l-5.011 3.363-.232-2.43c.002-.033-.006-.062-.008-.093l.036-3.678 4.736 1.463zm-2.537-5.23c.7 1.154 1.32 2.362 1.87 3.607l-3.75-1.18 1.37-2.513.51.086zm-12.5-11.709l1.64 4.2-6.115-2.782.59-3.119c1.339.48 2.636 1.051 3.884 1.701zm-5.206-2.145l-.579 3.078-6.89-1.893 3.39-2.145a31.33 31.33 0 0 1 4.079.96zM31.31 3.6l2.992 2.863v4.716l-3.14-.278-2.727-3.71 2.147-3.499c.24-.034.486-.064.728-.092zm-9.137 2.507l.758 1.862-1.702 3.268-2.676-3.233a31.529 31.529 0 0 1 3.62-1.897zm-4.757 2.628l2.416 2.945-4.684-.322a.585.585 0 0 0-.177-.013l-.849-.057a31.757 31.757 0 0 1 3.294-2.553zm-4.625 3.792l1.321.091-1.772 4.569L7.5 19.46a31.714 31.714 0 0 1 5.291-6.933zM4.885 44.536l3.5 2.473-1.317 2.735a31.314 31.314 0 0 1-2.183-5.208zM34.971 55.29l-4.855-6.921 2.96-3.838 1.263 4.132c.018.048.061.074.087.116.038.075.08.138.143.19.043.038.094.055.146.08.037.014.06.05.102.054l3.526.955-3.372 5.232zM35 0C15.683 0 0 15.682 0 35c0 19.318 15.683 35 35 35 19.318 0 35-15.682 35-35C70 15.681 54.318 0 35 0z"/>
    </g>
</svg>
