<svg height="100" width="300" xmlns="http://www.w3.org/2000/svg"><g fill="#f9ba00" transform="translate(11 26)"><path d="m47.361 24.25c0 12.984-10.56 23.393-23.726 23.393-13.025 0-23.619-10.457-23.619-23.353 0-13.168 10.595-23.536 24.046-23.536 12.785 0 23.3 10.644 23.3 23.496zm-44.89 0c0 11.578 9.471 20.955 21.164 20.955 11.743 0 21.267-9.332 21.267-20.915 0-11.815-9.381-21.093-21.404-21.093-11.505 0-21.028 9.51-21.028 21.053zm16.006-.944-.29.566c-1.087-.236-3.074-.988-5.157-1.927l-.285.521.854.465c3.028 1.55 4.024 1.874 5.777 1.874 3.501 0 6.154-1.967 7.389-5.436 2.175-.42 4.97-.607 8.283-.607 2.84 0 5.305.139 8.476.516l-.803.984c-1.469-.191-4.172-.377-6.113-.377-2.317 0-3.787.047-4.544.093l-.376.845c1.942-.093 2.648-.093 4.167-.093 2.557 0 4.589.093 6.245.232l-.803 1.031c-2.982-.088-4.354-.138-6.575-.138-1.235 0-2.135.05-3.603.09l-.381.845c1.276-.09 3.029-.138 4.878-.138 1.753 0 3.833.048 5.067.093l-.808 1.036c-.844-.052-2.505-.052-3.786-.052-2.033 0-4.588.093-5.915.284l-.381.747c2.414-.231 3.928-.324 6.581-.324 1.042 0 1.702 0 2.891.093l-.905 1.077c-1.61-.093-2.124-.093-2.744-.093-4.497 0-7.429.654-10.371 2.296 2.698 2.67 7.195 4.5 11.225 4.5.331 0 .519 0 1.373-.046l-1.947 1.927c-10.696-2.767-12.591-3.52-22.394-9.286-3.877-2.204-7.053-3.703-9.614-4.456l.335-1.17c.62.091 1.941.468 3.176.89l.564-1.267z"/><path d="m86.84 8.586v25.088h13.354v6.182h-21.261v-31.27zm29.875 31.27-.233-2.199c-1.85 1.922-3.934 2.813-6.535 2.813-3.222 0-5.824-1.314-7.15-3.56-.996-1.691-1.139-2.536-1.139-6.24v-13.315h7.435v13.03c0 3.288.945 4.646 3.267 4.646 2.46 0 3.695-1.594 3.695-4.645v-13.03h7.429v22.5h-6.77zm23.63-26.3h-1.236c-2.748 0-3.455.655-3.455 3.14v.66h4.401v4.966h-4.401v17.534h-7.43v-17.534h-3.221v-4.966h3.222v-.66c0-5.904 2.22-8.11 8.044-8.11h4.075v4.97zm11.407-3.234v7.034h4.218v4.967h-4.218v8.909c.051 3.283.245 3.471 3.08 3.471h1.469v5.154h-5.585c-4.406 0-6.397-2.014-6.397-6.605v-10.93h-3.12v-4.966h3.12v-7.034zm13.634-1.736v11.299c1.383-2.204 3.319-3.188 6.21-3.188 3.12 0 5.636 1.313 7.003 3.704.996 1.735 1.143 2.674 1.143 6.425v13.03h-7.394v-12.746c0-3.238-.99-4.69-3.267-4.69-2.46 0-3.695 1.593-3.695 4.69v12.746h-7.428v-31.27zm17.522 15.943c0-5.107 4.03-8.111 10.753-8.111 7.054 0 10.555 2.906 10.555 8.81v11.49c0 1.967 0 1.967.615 3.138h-6.86l-.427-1.87c-2.368 2.06-4.406 2.808-7.385 2.808-5.025 0-8.663-2.951-8.663-7.027 0-3.38 2.22-5.771 6.576-6.99.665-.187 2.845-.61 6.58-1.312 1.616-.33 2.226-.843 2.226-1.92 0-1.267-1.327-2.112-3.314-2.112-2.414 0-3.831 1.126-3.881 3.097h-6.775zm14.158 4.544c-.945.285-1.23.374-1.987.613-.9.232-1.703.415-2.699.607-2.413.61-3.602 1.552-3.602 3 0 1.458 1.138 2.299 2.993 2.299 3.597 0 5.295-1.593 5.295-4.922zm16.53-11.717.239 2.529c1.748-2.204 3.826-3.188 6.576-3.188 3.175 0 5.737 1.359 7.063 3.704.94 1.735 1.133 2.722 1.133 6.425v13.03h-7.435v-12.746c0-3.329-.95-4.69-3.267-4.69-2.419 0-3.644 1.593-3.644 4.69v12.746h-7.439v-22.5zm31.344 7.032c-.194-2.11-1.093-2.906-3.36-2.906-1.849 0-2.982.702-2.982 1.877 0 1.077 1.082 1.732 3.546 2.106l2.562.47c5.397.891 7.907 3.139 7.907 7.033 0 4.782-4.122 7.826-10.56 7.826-7.623 0-11.79-3-11.79-8.433h7.242v.276c0 1.878 1.565 3.053 4.075 3.053 2.175 0 3.501-.8 3.501-2.068 0-1.313-1.235-2.061-4.12-2.577l-2.363-.375c-5.402-.938-7.725-2.86-7.725-6.42 0-4.881 4.116-7.832 10.895-7.832 4.732 0 7.668 1.263 9.188 3.983.66 1.129.752 1.504.944 3.987zm10.366.141c.051-5.067 4.075-8.111 10.844-8.111 7.058 0 10.508 2.906 10.508 8.81v11.49c0 1.923 0 1.923.62 3.138h-6.911l-.376-1.87c-2.75 2.2-4.36 2.808-7.383 2.808-5.077 0-8.714-2.951-8.714-7.027 0-3.38 2.224-5.771 6.575-6.99.666-.187 2.846-.655 6.586-1.312 1.56-.33 2.22-.843 2.22-1.92 0-1.267-1.326-2.112-3.266-2.112-2.415 0-3.883 1.174-3.883 3.097h-6.82zm14.214 4.544c-.951.285-1.287.374-2.044.613-.808.139-1.702.33-2.698.607-2.414.61-3.598 1.552-3.598 3 0 1.458 1.134 2.299 3.034 2.299 3.598 0 5.306-1.593 5.306-4.922z"/></g></svg>