
<svg width="163px" height="153px" viewBox="0 0 163 153" version="1.1" xmlns="http://www.w3.org/2000/svg" xmlns:xlink="http://www.w3.org/1999/xlink">
    <defs>
        <linearGradient x1="50%" y1="39.1509131%" x2="68.0603781%" y2="122.614187%" id="linearGradient-1">
            <stop stop-color="#AF94C3" offset="0%"></stop>
            <stop stop-color="#8CF4D3" offset="100%"></stop>
        </linearGradient>
    </defs>
    <g id="Page-1" stroke="none" stroke-width="1" fill="none" fill-rule="evenodd">
        <g id="Desktop-HD" transform="translate(-446.000000, -436.000000)" fill="url(#linearGradient-1)">
            <path d="M446.992187,452.355423 L552.497276,436 L608.992187,528.675201 L527.992187,589 L446.992187,545.501998 L446.992187,452.355423 Z M490.580357,467.611607 C482.723175,472.209844 476.495559,478.448621 471.897321,486.328125 C467.299084,494.207629 465,502.812453 465,512.142857 C465,523.34827 468.270057,533.426295 474.810268,542.377232 C481.350479,551.32817 489.799055,557.522304 500.15625,560.959821 C501.361613,561.183037 502.254461,561.026788 502.834821,560.491071 C503.415181,559.955354 503.705357,559.285718 503.705357,558.482143 C503.705357,558.303571 503.694197,557.087065 503.671875,554.832589 C503.649553,552.578114 503.638393,550.602687 503.638393,548.90625 L502.098214,549.174107 C501.116067,549.352679 499.87724,549.430804 498.381696,549.408482 C496.886153,549.386161 495.334829,549.229912 493.727679,548.939732 C492.120528,548.649552 490.625007,547.979916 489.241071,546.930804 C487.857136,545.881691 486.875003,544.508937 486.294643,542.8125 L485.625,541.272321 C485.178569,540.245531 484.475451,539.107149 483.515625,537.857143 C482.555799,536.607137 481.584826,535.758931 480.602679,535.3125 L480.133929,534.977679 C479.821427,534.754463 479.531251,534.486609 479.263393,534.174107 C478.995534,533.861606 478.794644,533.549109 478.660714,533.236607 C478.526785,532.924106 478.638391,532.667412 478.995536,532.466518 C479.35268,532.265624 479.999995,532.165179 480.9375,532.165179 L482.276786,532.366071 C483.169647,532.544644 484.274547,533.080353 485.591518,533.973214 C486.908489,534.866076 487.991067,536.026779 488.839286,537.455357 C489.866077,539.285723 491.104903,540.680799 492.555804,541.640625 C494.006704,542.600451 495.468743,543.080357 496.941964,543.080357 C498.415186,543.080357 499.687495,542.968751 500.758929,542.745536 C501.830362,542.52232 502.834817,542.187502 503.772321,541.741071 C504.218752,538.749985 505.312491,536.450901 507.053571,534.84375 C504.508916,534.575892 502.220992,534.17411 500.189732,533.638393 C498.158472,533.102676 496.060279,532.232149 493.895089,531.026786 C491.7299,529.821423 489.933043,528.325902 488.504464,526.540179 C487.075886,524.754455 485.904022,522.410729 484.988839,519.508929 C484.073656,516.607128 483.616071,513.258948 483.616071,509.464286 C483.616071,504.151759 485.379447,499.553591 488.90625,495.669643 C487.254456,491.607123 487.433026,487.053597 489.441964,482.008929 C490.691971,481.607141 492.589273,481.908477 495.133929,482.912946 C497.678584,483.917416 499.542405,484.776782 500.725446,485.491071 C501.908488,486.205361 502.857139,486.808033 503.571429,487.299107 C507.723235,486.138387 512.008906,485.558036 516.428571,485.558036 C520.848236,485.558036 525.133908,486.138387 529.285714,487.299107 L531.830357,485.691964 C533.571437,484.62053 535.624988,483.638397 537.991071,482.745536 C540.357155,481.852674 542.165172,481.607141 543.415179,482.008929 C545.424117,487.053597 545.602687,491.607123 543.950893,495.669643 C547.477696,499.553591 549.241071,504.151759 549.241071,509.464286 C549.241071,513.258948 548.783487,516.618289 547.868304,519.542411 C546.95312,522.466532 545.770097,524.810259 544.319196,526.573661 C542.868296,528.337062 541.060279,529.821423 538.895089,531.026786 C536.7299,532.232149 534.631707,533.102676 532.600446,533.638393 C530.569186,534.17411 528.281263,534.575892 525.736607,534.84375 C528.058047,536.852689 529.21875,540.0223 529.21875,544.352679 C529.21875,547.075906 529.207589,550.078109 529.185268,553.359375 C529.162946,556.640641 529.151786,558.348214 529.151786,558.482143 C529.151786,559.285718 529.441961,559.955354 530.022321,560.491071 C530.602681,561.026788 531.49553,561.183037 532.700893,560.959821 C543.058088,557.522304 551.506664,551.32817 558.046875,542.377232 C564.587086,533.426295 567.857143,523.34827 567.857143,512.142857 C567.857143,502.812453 565.558059,494.207629 560.959821,486.328125 C556.361584,478.448621 550.122807,472.209844 542.243304,467.611607 C534.3638,463.01337 525.758975,460.714286 516.428571,460.714286 C507.098168,460.714286 498.482182,463.01337 490.580357,467.611607 Z M484.486607,534.575893 C484.620536,534.263391 484.464288,533.995537 484.017857,533.772321 C483.571426,533.638392 483.281251,533.683035 483.147321,533.90625 C483.013392,534.218752 483.169641,534.486606 483.616071,534.709821 C484.017859,534.97768 484.308035,534.933037 484.486607,534.575893 Z M486.5625,536.852679 C486.875002,536.629463 486.830359,536.272324 486.428571,535.78125 C485.982141,535.379462 485.625001,535.312499 485.357143,535.580357 C485.044641,535.803573 485.089284,536.160712 485.491071,536.651786 C485.937502,537.098217 486.294642,537.16518 486.5625,536.852679 Z M488.571429,539.866071 C488.973216,539.55357 488.973216,539.129467 488.571429,538.59375 C488.214284,538.01339 487.834823,537.879463 487.433036,538.191964 C487.031248,538.41518 487.031248,538.816961 487.433036,539.397321 C487.834823,539.977681 488.214284,540.13393 488.571429,539.866071 Z M491.383929,542.678571 C491.741073,542.321427 491.651788,541.897324 491.116071,541.40625 C490.580354,540.870533 490.13393,540.803569 489.776786,541.205357 C489.374998,541.562502 489.464283,541.986605 490.044643,542.477679 C490.58036,543.013396 491.026784,543.080359 491.383929,542.678571 Z M495.200893,544.352679 C495.334822,543.861605 495.044646,543.504465 494.330357,543.28125 C493.660711,543.102678 493.236608,543.258926 493.058036,543.75 C492.879463,544.241074 493.169639,544.575892 493.928571,544.754464 C494.598218,545.022323 495.022321,544.888396 495.200893,544.352679 Z M499.419643,544.6875 C499.419643,544.10714 499.040182,543.861607 498.28125,543.950893 C497.566961,543.950893 497.209821,544.196426 497.209821,544.6875 C497.209821,545.26786 497.589282,545.513393 498.348214,545.424107 C499.062504,545.424107 499.419643,545.178574 499.419643,544.6875 Z M503.303571,544.017857 C503.214285,543.526783 502.812504,543.325892 502.098214,543.415179 C501.383925,543.549108 501.071428,543.883926 501.160714,544.419643 C501.25,544.95536 501.651782,545.133929 502.366071,544.955357 C503.080361,544.776785 503.392858,544.464288 503.303571,544.017857 Z" id="Shape"></path>
        </g>
    </g>
</svg>