<svg xmlns="http://www.w3.org/2000/svg" width="124" height="30" viewBox="0 0 124 30">
    <g fill="#000" fill-rule="evenodd">
        <path d="M27.931 15.455a.443.443 0 0 1-.463-.447.427.427 0 0 1 .384-.466l.03-.002a.49.49 0 0 1 .525.452v.016a.449.449 0 0 1-.45.447h-.025zm-.214 2.247a.464.464 0 0 1-.457-.458.475.475 0 0 1 .487-.455.459.459 0 0 1 .429.472c0 .244-.199.44-.444.441h-.015zm-.57 2.18a.46.46 0 0 1-.473-.44.463.463 0 0 1 .424-.5.464.464 0 0 1 .505.481c0 .25-.202.455-.455.46zm-.014-9.767c.253 0 .46.198.47.449 0 .255-.21.461-.466.46a.464.464 0 0 1-.466-.46.466.466 0 0 1 .462-.45zm-.962 11.82a.455.455 0 0 1-.457-.452v-.002a.442.442 0 0 1 .427-.458h.024a.462.462 0 0 1 .474.46.47.47 0 0 1-.463.449l-.005.004zm0-13.856a.464.464 0 0 1 .464.453.479.479 0 0 1-.477.464.461.461 0 0 1-.446-.468.444.444 0 0 1 .468-.454l-.009.005zm2.005 4.68a.442.442 0 0 1-.435.45h-.024a.46.46 0 0 1-.466-.452.477.477 0 0 1 .496-.466.46.46 0 0 1 .429.468zm-3.312-5.617a.464.464 0 0 1-.465-.461c0-.255.208-.462.465-.462.258 0 .466.207.466.462a.464.464 0 0 1-.466.461zm0 16.634a.458.458 0 0 1-.46-.456c0-.252.206-.457.46-.457.255 0 .46.205.46.457a.458.458 0 0 1-.46.456zM23.276 5.538a.46.46 0 0 1-.478-.44v-.015a.47.47 0 0 1 .459-.46c.252 0 .459.2.461.451a.442.442 0 0 1-.444.466l.002-.002zm-.015 19.83a.458.458 0 0 1-.464-.45.475.475 0 0 1 .475-.465.46.46 0 0 1 .448.466.44.44 0 0 1-.461.45l.002-.001zm-1.47-3.094c.068-.676-.03-10.185-.028-13.068 0-.278.03-.538-.402-.532-.347 0-.429.126-.429.451.013 1.5-.024 12.698-.024 12.698v1.409c-.16.017-.291.04-.429.042-1.966 0-3.934.038-5.898-.021-.494-.015-.985-.326-1.466-.526a9.173 9.173 0 0 1-1.597-.82c.129 0 .258-.025.386-.025l6.585.028c1.01 0 .994 0 .994-.961V7.798c0-.368.084-.539.505-.526.953.03 1.908.02 2.86 0 .32 0 .43.109.43.426v14.968c0 .606 0 .606-.631.608-.974.009-.96-.017-.859-.998l.003-.002zm-.389 4.39a.453.453 0 0 1-.465-.44v-.007a.47.47 0 0 1 .467-.47.462.462 0 0 1 .453.463.446.446 0 0 1-.438.456h-.02l.003-.003zm-2.071.953a.445.445 0 0 1-.455-.456.464.464 0 0 1 .455-.45.478.478 0 0 1 .47.47.46.46 0 0 1-.47.436zm-2.23.583a.46.46 0 0 1-.43-.467.464.464 0 0 1 .483-.444c.258.01.458.224.449.479a.458.458 0 0 1-.502.432zm-2.232.212a.47.47 0 0 1-.464-.474.464.464 0 0 1 .478-.449c.257.007.46.22.453.474a.464.464 0 0 1-.467.45zm-2.256-.212a.458.458 0 0 1-.476-.438v-.018c0-.255.208-.461.465-.461s.466.206.466.461a.462.462 0 0 1-.455.456zm-3.939-7.494c-.408-.162-.798-.366-1.198-.551l.05-.13h6.265c.97 0 .846.085.848-.85 0-2.777.01-5.556 0-8.333 0-.457.126-.595.588-.578.893.034 1.786.021 2.68 0 .323 0 .467.083.467.425-.008 3.438-.008 6.876 0 10.313 0 .37-.16.485-.503.425a1.708 1.708 0 0 0-.356-.053c-.569.02-.57.024-.57-.568v-8.51c0-.234.09-.537-.304-.598-.459-.073-.596.034-.596.51v8.647c0 .587 0 .59-.61.59-1.515 0-3.028-.022-4.544 0-.867.033-1.506-.454-2.228-.739h.011zm1.747 6.913a.462.462 0 0 1-.49-.46.479.479 0 0 1 .469-.449c.253.002.459.204.461.456a.445.445 0 0 1-.437.45h-.013l.01.003zm-2.065-.951a.447.447 0 0 1-.465-.445.461.461 0 0 1 .448-.474h.013a.47.47 0 0 1 .46.46c.002.25-.2.454-.453.457h-.013l.01.002zm-1.884-1.296a.442.442 0 0 1-.444-.462.462.462 0 0 1 .463-.453.474.474 0 0 1 .46.462.457.457 0 0 1-.49.45l.01.003zm-1.545-1.58a.473.473 0 0 1-.528-.486.498.498 0 0 1 .485-.466.538.538 0 0 1 .467.504.545.545 0 0 1-.433.445l.009.002zm-1.355-5.43l.024-.084h4.893c1.271 0 1.271 0 1.271-1.276 0-1.064.01-2.128 0-3.192 0-.346.047-.508.466-.491.92.038 1.846.025 2.767 0 .322 0 .429.098.429.41-.01 1.786-.01 3.573 0 5.36 0 .34-.107.513-.47.479a1.524 1.524 0 0 0-.318 0c-.414.044-.556-.115-.556-.517.02-1.292 0-2.581 0-3.873 0-.355-.111-.519-.496-.519-.384 0-.51.12-.504.498.017 1.292 0 2.583.015 3.873 0 .425-.13.544-.545.538-1.318-.021-2.64.06-3.95-.036-.618-.045-1.216-.39-1.815-.624-.406-.157-.81-.364-1.22-.55l.01.003zm0 3.574a.47.47 0 0 1-.468-.451.462.462 0 0 1 .462-.462h.01a.443.443 0 0 1 .453.455c0 .25-.204.454-.457.454h-.01l.01.004zm-.96-2.05a.462.462 0 0 1-.471-.444.479.479 0 0 1 .47-.472.474.474 0 0 1 .452.457.46.46 0 0 1-.459.456l.009.004zm-1.051-2.633a.46.46 0 0 1 .455-.46c.26.005.468.214.47.47a.46.46 0 0 1-.472.443.44.44 0 0 1-.453-.457v.004zm-.215-2.245a.477.477 0 0 1 .46-.464c.253-.002.46.2.463.452a.452.452 0 0 1-.48.47.472.472 0 0 1-.443-.458zm.655-2.717c.26.001.47.209.474.466a.462.462 0 0 1-.468.447.442.442 0 0 1-.446-.438v-.01a.457.457 0 0 1 .442-.463l-.002-.002zm.601-2.176c.257.002.464.21.462.465v.011a.465.465 0 0 1-.507.418.464.464 0 0 1-.423-.445.468.468 0 0 1 .468-.45zm.962-2.04a.445.445 0 0 1 .455.453.461.461 0 0 1-.453.463.479.479 0 0 1-.472-.47.464.464 0 0 1 .467-.447h.003zm1.315-1.856c.253.01.452.22.447.47a.46.46 0 0 1-.466.447.472.472 0 0 1-.461-.46.479.479 0 0 1 .478-.457h.002zM6.48 4.625a.468.468 0 0 1 .46.46.46.46 0 0 1-.46.455.443.443 0 0 1-.463-.42v-.024a.455.455 0 0 1 .44-.47h.023zm1.853-1.291a.46.46 0 0 1 .492.425.459.459 0 0 1-.492.488.459.459 0 0 1-.429-.488.46.46 0 0 1 .429-.425zm2.073-.955a.46.46 0 0 1 .455.46.444.444 0 0 1-.455.452.46.46 0 0 1-.474-.444v-.02a.475.475 0 0 1 .474-.448zm2.207-.585c.244.013.439.206.453.449a.46.46 0 0 1-.48.455.453.453 0 0 1-.45-.455.473.473 0 0 1 .468-.452l.009.003zm2.256-.19a.457.457 0 0 1 .461.453.457.457 0 0 1-.457.458.457.457 0 0 1-.462-.451c0-.252.204-.456.458-.46zm2.283.187c.244.024.439.211.47.452a.498.498 0 0 1-.506.461.46.46 0 0 1-.447-.461.475.475 0 0 1 .483-.452zm2.181.588a.472.472 0 0 1 .472.47.46.46 0 0 1-.472.442.445.445 0 0 1-.453-.457.46.46 0 0 1 .453-.455zm2.071.955a.46.46 0 0 1 .453.466.46.46 0 0 1-.47.449.459.459 0 0 1-.453-.466v-.004a.462.462 0 0 1 .47-.445zm8.506 10.045a14.326 14.326 0 0 0-4.292-8.926C22.653 1.504 19.04.006 14.83 0 6.472.168-.166 7.02.003 15.305.167 23.315 6.65 29.784 14.73 30c4.194.03 7.832-1.426 10.794-4.366 3.402-3.375 4.87-7.496 4.387-12.255zM36 28h4V4h-4zM64.643 14.046a6.365 6.365 0 0 0-.41-2.326 5.085 5.085 0 0 0-1.163-1.8 5.263 5.263 0 0 0-1.801-1.154 6.315 6.315 0 0 0-2.32-.409h-9.597v15.294h9.597c.79.01 1.574-.13 2.311-.41a5.254 5.254 0 0 0 1.801-1.153 5.1 5.1 0 0 0 1.164-1.791 6.338 6.338 0 0 0 .41-2.335l.008-3.916zM69 17.962a10.44 10.44 0 0 1-.763 4.04 9.428 9.428 0 0 1-5.284 5.254c-1.273.507-2.632.76-4.003.743H47.193a2.237 2.237 0 0 1-.87-.167 2.096 2.096 0 0 1-1.156-1.154 2.236 2.236 0 0 1-.167-.87V6.196a2.22 2.22 0 0 1 .628-1.56c.197-.202.434-.361.695-.468.276-.113.572-.17.87-.168H58.95c1.371-.012 2.73.244 4.003.754a9.428 9.428 0 0 1 5.284 5.263c.517 1.279.775 2.647.761 4.025l.002 3.92zM93.023 18.194h-13.87V13.81h13.872l-.002 4.383zM95 28H79.154a7.104 7.104 0 0 1-1.994-.317 5.812 5.812 0 0 1-3.54-2.937 6.027 6.027 0 0 1-.617-2.853V6.196a2.218 2.218 0 0 1 .634-1.56c.199-.202.437-.362.7-.469.279-.113.578-.17.879-.167H95v4.355H77.393v13.538c-.032.478.132.949.457 1.304.304.302.749.453 1.334.453H95V28zM110.464 12.571L117.935 4H124l-10.523 12.032L123.932 28h-6.021l-7.447-8.503L103.072 28h-6.037l10.438-11.968L97 4h6.004z"/>
    </g>
</svg>
