<svg xmlns="http://www.w3.org/2000/svg" width="148" height="36" viewBox="0 0 148 36">
    <g fill="#000" fill-rule="evenodd">
        <path d="M58.36 11.035c-.862-.921-1.922-1.664-3.15-2.212C53.983 8.278 52.573 8 51.02 8c-1.555 0-2.972.278-4.208.823-1.235.547-2.3 1.29-3.163 2.212a9.483 9.483 0 0 0-1.976 3.2A10.732 10.732 0 0 0 41 17.994c0 1.302.226 2.568.673 3.764a9.503 9.503 0 0 0 1.976 3.195c.863.921 1.928 1.668 3.162 2.218 1.237.55 2.654.83 4.208.83 1.553 0 2.963-.28 4.192-.832a9.698 9.698 0 0 0 3.148-2.216 9.506 9.506 0 0 0 1.971-3.203c.445-1.2.67-2.463.67-3.756 0-1.291-.225-2.555-.67-3.756a9.5 9.5 0 0 0-1.97-3.202m-5.154 12.196c-.64.314-1.377.472-2.187.472-.81 0-1.545-.158-2.186-.472a5.036 5.036 0 0 1-1.64-1.269 5.67 5.67 0 0 1-1.031-1.826 6.534 6.534 0 0 1-.357-2.143c0-.736.12-1.456.357-2.143a5.677 5.677 0 0 1 1.03-1.825 4.947 4.947 0 0 1 1.64-1.261c.642-.31 1.377-.467 2.187-.467.82 0 1.558.156 2.195.467.64.31 1.191.736 1.64 1.262.452.528.8 1.142 1.036 1.824.238.686.358 1.407.358 2.143 0 .736-.12 1.457-.358 2.143a5.607 5.607 0 0 1-1.035 1.825 5.103 5.103 0 0 1-1.649 1.27M74.454 8H62.546a.55.55 0 0 0-.546.55v3.028a.55.55 0 0 0 .546.552h3.46c.078 0 .142.063.142.142v14.177c0 .306.244.551.545.551h3.577c.3 0 .544-.245.544-.55V12.271c0-.08.064-.142.142-.142h3.498a.55.55 0 0 0 .546-.552V8.55A.548.548 0 0 0 74.454 8M95.464 20.428H91.69a.536.536 0 0 0-.507.363c-.263.78-.74 1.455-1.414 2.008-.733.6-1.695.904-2.862.904-.798 0-1.527-.15-2.165-.45a5.061 5.061 0 0 1-1.65-1.22 5.748 5.748 0 0 1-1.075-1.812 6.365 6.365 0 0 1-.389-2.228c0-.736.12-1.462.355-2.155a5.484 5.484 0 0 1 1.018-1.823c.443-.518.995-.94 1.641-1.25.647-.312 1.392-.468 2.215-.468.638 0 1.215.094 1.716.28a4.32 4.32 0 0 1 1.325.77c.378.325.683.712.909 1.149.19.369.338.771.436 1.196a.536.536 0 0 0 .517.426h3.703a.529.529 0 0 0 .406-.194.572.572 0 0 0 .123-.452 9.204 9.204 0 0 0-.84-2.654 8.408 8.408 0 0 0-1.904-2.526 8.773 8.773 0 0 0-2.808-1.681C89.365 8.206 88.14 8 86.795 8c-1.564 0-2.974.277-4.19.823-1.216.547-2.251 1.29-3.079 2.213a9.543 9.543 0 0 0-1.886 3.202 11.23 11.23 0 0 0-.64 3.755c0 1.338.224 2.621.667 3.817a9.462 9.462 0 0 0 1.944 3.183c.847.912 1.893 1.649 3.108 2.19 1.215.542 2.607.817 4.14.817 1.267 0 2.445-.192 3.502-.57 1.059-.379 1.991-.912 2.77-1.584a8.93 8.93 0 0 0 1.927-2.327c.429-.75.741-1.562.929-2.414a.567.567 0 0 0-.106-.469.521.521 0 0 0-.417-.208M110.826 18.335a3.997 3.997 0 0 0-1.049-.796l-.14-.071a.141.141 0 0 1-.079-.126c0-.027.006-.09.072-.125a3.931 3.931 0 0 0 1.19-.921c.3-.34.55-.752.74-1.223.192-.474.288-1.045.288-1.699a6.86 6.86 0 0 0-.23-1.643 4.673 4.673 0 0 0-.894-1.766c-.44-.554-1.07-1.026-1.87-1.402-.797-.374-1.844-.563-3.11-.563h-7.205a.546.546 0 0 0-.539.552v17.896c0 .305.242.552.54.552h7.355c1.277 0 2.327-.193 3.12-.575.795-.382 1.42-.86 1.861-1.422.44-.559.741-1.165.896-1.804.15-.626.228-1.19.228-1.679 0-.718-.114-1.35-.34-1.878-.225-.526-.506-.965-.834-1.307zm-3.684-4.132a1.47 1.47 0 0 1-.34.608 1.944 1.944 0 0 1-.7.468c-.3.125-.698.188-1.185.188h-2.165a.141.141 0 0 1-.14-.142v-3.508c0-.078.063-.142.14-.142h2.165c.51 0 .922.068 1.224.2.302.132.535.292.695.48.16.183.267.379.317.582a2.5 2.5 0 0 1 .083.61c0 .202-.031.422-.094.656zm-4.53 5.083c0-.078.063-.142.14-.142h2.305c.466 0 .853.074 1.154.22.3.147.535.327.696.531.163.207.275.431.336.667.062.247.095.473.095.672 0 .215-.033.45-.095.698-.06.235-.176.457-.346.663-.17.207-.404.381-.696.52-.293.139-.687.21-1.17.21h-2.28a.141.141 0 0 1-.14-.142v-3.897zM127.454 8h-11.908a.55.55 0 0 0-.546.55v3.028a.55.55 0 0 0 .546.552h3.46c.078 0 .141.063.141.142v14.177c0 .306.245.551.546.551h3.575a.548.548 0 0 0 .546-.55V12.271c0-.08.064-.142.142-.142h3.498a.55.55 0 0 0 .546-.552V8.55a.548.548 0 0 0-.546-.551M147.883 20.636a.526.526 0 0 0-.418-.209h-3.774a.535.535 0 0 0-.507.365c-.263.779-.738 1.454-1.413 2.007-.734.6-1.696.904-2.863.904-.797 0-1.527-.15-2.165-.45a5.042 5.042 0 0 1-1.648-1.219 5.72 5.72 0 0 1-1.076-1.812 6.347 6.347 0 0 1-.39-2.23c0-.736.12-1.459.354-2.155a5.537 5.537 0 0 1 1.02-1.823 4.984 4.984 0 0 1 1.64-1.25c.647-.31 1.392-.468 2.215-.468.638 0 1.215.094 1.716.28a4.32 4.32 0 0 1 1.325.771c.378.324.683.71.909 1.148.19.37.338.772.436 1.196.058.252.27.427.517.427h3.703c.156 0 .304-.07.406-.195a.567.567 0 0 0 .122-.45 9.246 9.246 0 0 0-.84-2.656 8.37 8.37 0 0 0-1.904-2.524 8.75 8.75 0 0 0-2.808-1.683c-1.075-.405-2.3-.61-3.645-.61-1.564 0-2.974.276-4.19.822-1.216.547-2.251 1.292-3.079 2.213-.825.923-1.46 2-1.886 3.203a11.22 11.22 0 0 0-.64 3.755c0 1.336.224 2.62.667 3.817a9.463 9.463 0 0 0 1.944 3.182 9.446 9.446 0 0 0 3.108 2.191c1.215.542 2.609.817 4.14.817 1.267 0 2.446-.192 3.503-.57a8.714 8.714 0 0 0 2.77-1.584 8.912 8.912 0 0 0 1.926-2.327 8.57 8.57 0 0 0 .929-2.414.571.571 0 0 0-.104-.47M9.612 23.212c3.567 2.39 8.381 1.565 10.938-1.81a.365.365 0 0 0-.086-.526L17.74 19.05a.37.37 0 0 0-.493.073 4.05 4.05 0 0 1-5.382.795 3.952 3.952 0 0 1-1.251-5.24.36.36 0 0 0-.114-.479l-2.723-1.826a.375.375 0 0 0-.525.117c-2.22 3.603-1.208 8.331 2.36 10.722m14.113-9.832c-3.568-2.39-8.381-1.566-10.938 1.81a.364.364 0 0 0 .087.526l2.722 1.825a.37.37 0 0 0 .492-.074 4.051 4.051 0 0 1 5.383-.794 3.953 3.953 0 0 1 1.252 5.24.36.36 0 0 0 .114.479l2.723 1.825a.375.375 0 0 0 .525-.115c2.22-3.603 1.208-8.331-2.36-10.722M18.315.473l12.87 7.234A3.514 3.514 0 0 1 33 10.766v14.467a3.517 3.517 0 0 1-1.815 3.06l-12.87 7.233a3.71 3.71 0 0 1-3.63 0l-12.87-7.233A3.52 3.52 0 0 1 0 25.233V10.766c0-1.262.693-2.429 1.815-3.059L14.685.473a3.715 3.715 0 0 1 3.63 0"/>
    </g>
</svg>
