<svg xmlns="http://www.w3.org/2000/svg" width="100" height="80" viewBox="0 0 100 80">
    <path fill="#000" fill-rule="evenodd" d="M49.967 5h.024C69.32 5.006 84.994 20.672 85 40c0 19.32-15.66 34.987-34.987 35h-.048C31.048 74.987 15.635 59.972 15 41.206v-2.413C15.636 20.033 31.043 5.013 49.966 5zm21.978 16.405l4.092.696a31.69 31.69 0 0 0-2.834-3.541l-1.258 2.845zm6.975 5.851l-.001.001a31.569 31.569 0 0 0-1.827-3.523L75.29 26.11l3.631 1.147zm1.138 2.978a31.895 31.895 0 0 0-.471-1.341l-4.754-1.502-.034 3.715.229 2.484 5.03-3.356zm1.197 5.101a31.397 31.397 0 0 0-.79-3.74l-4.236 2.827 5.026.913zM81.599 40c0-1.086-.055-2.172-.166-3.252l-6.22-1.13.179 1.946v.003l.184 2.01 6.016.917c.003-.164.007-.329.007-.494zm-.278 4.198c.102-.77.176-1.55.222-2.337l-6.248-.952-1.713 2.81 3.243 3.095 4.496-2.616zm-1.297 5.67a31.43 31.43 0 0 0 1.015-3.933l-3.19 1.857 2.175 2.076zm-2.005 4.747a31.38 31.38 0 0 0 1.507-3.344l-2.9-2.766-3.654 2.128 5.047 3.982zM50.644 71.593h-.002a31.625 31.625 0 0 0 26.711-15.77l-1.75-1.381-5.113 3.72a.68.68 0 0 1-.918-.109l-3.285-3.867-3.943 2.328-.006.004-3.542 2.051a.68.68 0 0 1-.773-.063l-3.458-2.843-3.92 6.05v9.88zm-.702-11.295l3.391-5.228-3.54-.948-.017-.007a.623.623 0 0 1-.077-.034.694.694 0 0 1-.107-.056.658.658 0 0 1-.063-.052.655.655 0 0 1-.133-.153.66.66 0 0 1-.056-.114c-.006-.015-.016-.026-.02-.042l-1.278-4.152-2.96 3.864 4.86 6.922zm-.658 11.295h-.002v-9.866L44.206 54.5l-2.672 3.422a.68.68 0 0 1-.776.218l-7.67-2.884-2.987 2.112-.02.01a.668.668 0 0 1-.154.076c-.007.003-.012.008-.018.008a.652.652 0 0 1-.144.028l-5.815.486a31.602 31.602 0 0 0 25.334 13.617zm-26.472-15.38h-.002c.095.157.191.314.289.471l5.467-.457-2.72-4.517-1.138.575-1.896 3.927zm-3.017-6.703h-.002a31.415 31.415 0 0 0 2.205 5.26l1.335-2.764-3.538-2.496zm-.822-3.17h-.002c.074.37.16.736.247 1.102l5.036 3.55 2.867-1.45-1.798-3.353-1.35-1.668-5 1.82zm-.618-5.306h-.003a31.7 31.7 0 0 0 .377 3.949l4.339-1.58-2.338-2.888-2.375.519zm.407-6.23c-.265 1.6-.406 3.22-.423 4.842l5.493-1.2-1.888-4.006-3.182.364zm1.149-4.677a31.298 31.298 0 0 0-.885 3.279l2.306-.264-1.421-3.015zm1.394-3.507h-.001a30.122 30.122 0 0 0-.738 1.704l2.194 4.655 5.498-.628-.74-1.503-6.213-4.228zm6.408-9.076a31.724 31.724 0 0 0-5.313 6.951l4.887-2.296 1.748-4.565-1.322-.09zm4.642-3.797v-.001a31.786 31.786 0 0 0-3.283 2.529l5.7.39-2.417-2.918zm4.764-2.63a31.45 31.45 0 0 0-3.61 1.891l2.672 3.225 1.702-3.229-.764-1.887zm6.63-2.107a31.417 31.417 0 0 0-5.376 1.578l.676 1.673 3.1-.641 1.6-2.61zm2.545-.399a33 33 0 0 0-.764.098l-2.137 3.483 2.703 3.696 3.186.283v-4.708L46.294 8.61zm3.672-.213c-.63 0-1.255.02-1.876.057l2.063 1.96 2.94-1.863a31.606 31.606 0 0 0-3.127-.154zm9.337 1.4a31.421 31.421 0 0 0-4.109-.968l-3.382 2.143 6.915 1.895.576-3.07zm6.581 7.707l-6.445-2.956-2.355 2.715 4.585 2.56 4.215-2.32zm-5.278-7.272l-.58 3.09 6.126 2.81-1.52-4.137c-1.3-.681-2.645-1.27-4.026-1.763zm13.014 15.82l2.009-2.643-4.38-.744-2.875 3.674 5.078 3.503.032-3.386v-.014a.677.677 0 0 1 .018-.135V26.3a.673.673 0 0 1 .052-.139c.007-.014.017-.026.025-.04a.66.66 0 0 1 .041-.067zM72.14 43.47l2.112-3.46-.14-1.52-3.875 1.09c-.005.003-.008 0-.015.003-.007.002-.013.007-.02.007l-2.739.612 2.197 3.122.007.011c.012.02.023.041.034.063.01.02.021.038.03.059.001.003.005.006.005.009l.945 2.398 1.458-2.391v-.003zm-.837 3.984l.81 2.102 3.488-2.031-2.744-2.62-1.554 2.549zm-2.232 4.93l-1.623 1.069 2.75 3.238 4.295-3.126-2.838-2.24-2.584 1.06zm-5.412-3.033l-.782 5.266 3.195-1.887 1.428-.939-3.84-2.44zm-1.282-27.266l6.127 1.88 1.593-2.034-2.878-3.61-4.864 2.676.022 1.088zm4.491 3.97l.74-.944-5.22-1.601v2.72l2.18 2.462 2.3-2.636zm-2.864 8.416l8.687-3.498-5.184-3.58-2.32 2.657-1.183 4.42zm.69 1.189l5.415 2.546 3.875-1.091-.46-5.01-8.83 3.555zm1.478 3.439h.004l1.786-.4-4.288-2.016v2.974l2.498-.558zm2.533 5.47l-5.001 1.718.093 1.543 5.022 3.19 2.072-.85-.979-2.539-1.207-3.061zm-5.03.29l4.349-1.492-2-2.843-2.35.525v3.81zm-4.368-15.426l3.398 4.634 1.115-4.165-2.471-2.791-2.75-.567.708 2.889zM56.282 48.57l6.141-.93-.082-1.372-5.71-2.512-.35 4.814zm1.09 1.21l4.164 4.623.796-5.375-4.96.751zm-1.462.407l-4.347 3.002 3.022.81.007.002a.671.671 0 0 1 .139.055l.029.02a.655.655 0 0 1 .082.054l3.681 3.027 2.409-1.395-5.022-5.575zm-.669-6.082l-6.143 4.223 1.245 4.05 4.524-3.126.374-5.147zm-6.84-3.147v3.553l.396 2.374 3.497-2.404-3.893-3.523zm-1.916-7.819l1.723 5.56 2.798-.254-2.396-5.306h-2.125zm-4.75 13.633l5.751.522-.436-2.615a.686.686 0 0 1-.01-.112v-.226l-5.089.049-.215 2.382zm-1.672 3.797l3.97 1.933 2.979-3.888-5.628-.51-1.321 2.465zm-4.055-.448l-1.91 4.062 6.67 2.51 2.414-3.092-4.35-2.12-2.824-1.36zm-2.54-1.936l-5.13 2.263-1.276.646 2.852 4.742 2.682-1.897.17-.12 2.085-4.431-1.383-1.203zm-5.904-3.564l-.876 1.24 1.662 3.097 3.754-1.657-4.54-2.68zm-2.586-5.035c-.008.001-.015.006-.022.009l-2.74.598 3.637 4.495 3.323-4.704-.122-1.522-4.062 1.124h-.014zm3.966-2.506l-.273-3.408-5.3.606 1.81 3.843 3.763-1.04zm2.569-13.493l-3.555-.202-5.318 2.5 5.204 3.54 2.448-3.956a.03.03 0 0 1 .004-.006l.003-.007 1.214-1.869zm.847-1.317l2.742-4.225-4.654-.319-1.661 4.34 3.573.204zm10.56-1.748l-6.334-2.255-2.633 4.056h6.946l2.021-1.801zm.92-1.116l1.112-2.775-2.673-3.655-3.2.661-1.81 3.432 6.572 2.337zm2.332 5.153l-2.085-3.257-2.248 2.005v3.115l4.072-.279.261-1.584zm4.519-.556l-1.3-6.461-3.224-.286-1.176 2.938 2.284 3.565 3.416.244zm5.04-7.264l2.302-2.65-7.396-2.027v4.225l5.094.452zm-.701 7.895l2.891-5.346-2.11-1.177-5.007-.444 1.306 6.493 1.772.327 1.148.147zm2.784.357l3.209.661v-3.058l-.034-1.593-1.88-1.05-2.633 4.867 1.286.164.018.005c.012.004.023.001.034.004zm-5.562 14.675l.005.004a.663.663 0 0 1-.177.042l-2.753.25 4.114 3.724 1.896-1.303v-3.947l-3.07 1.227c-.005.003-.01.003-.015.003zm1.387-6.15l-3.5-.287 2.227 4.931 2.757-1.101-1.484-3.543zm.476-7.628l-3.88 5.985 3.687.302 3.98-2.747-.773-3.155-3.014-.385zm-5.438 5.89l3.977-6.135-1.204-.223-3.991-.284-1.097 6.642h2.315zm-10.488 11.99l2.611-.627.986-2.933-3.773-3.445-1.578 3.783 1.754 3.223zm-.072 1.416l-3.413 2.272 1.355 1.18 2.776 1.336 1.495-2.786.235-2.59-2.448.588zm-7.911-4.309l-1.857 2.629 5.216 3.079 3.381-2.252-1.684-3.095-5.056-.36zm5.781-11.018l-4.902-3.093-2.263 3.658.997 2.024 2.885-.081 3.283-2.508zm4.494-3.07v-3.103h-7.244l-.162-.01-1.262 1.944 5.354 3.377 3.314-2.208zm-1.713 2.773l3.996 1.17a.551.551 0 0 1 .04.013l2.218.798.664-4.019-4.298.294-2.62 1.744zm-4.572 3.376l3.466 1.851 3.532-3.102-3.878-1.132-3.12 2.383zm-4.152.864l.46 5.734 4.739.338 1.649-3.955-4.11-2.195-2.738.078zm16.995 6.385l-3.959.446-.803 2.394 4.762-.045v-2.795zm-4.235-.89l4.023-.455-1.815-5.858-2.291-.827-3.943 3.464 4.026 3.675zm19.51-.578l-5.612-.534V42.3l5.612 2.47v-6.052zm-5.822-1.92l5.823.555v-1.518l-3.793-5.176-3.569 2.462 1.54 3.677zm15.69-19.292a31.773 31.773 0 0 0-5.699-4.46l1.509 4.063 2.807 3.523 1.383-3.126z"/>
</svg>
