<svg xmlns="http://www.w3.org/2000/svg" width="100" height="80" viewBox="0 0 100 80">
    <path fill="#000" fill-rule="nonzero" d="M73.435 62.512l-4.517-.713a1.225 1.225 0 0 0-1.366.864l-1.272 4.366a1.359 1.359 0 0 1-2.445.349l-5.93-9.268c.834.272 1.707.41 2.585.41a8.474 8.474 0 0 0 5.968-2.492 8.234 8.234 0 0 0 2.34-4.84l.036-.03 5.957 9.304a1.341 1.341 0 0 1-.014 1.459 1.359 1.359 0 0 1-1.342.59zm-44.876 0l4.518-.713a1.225 1.225 0 0 1 1.366.864l1.272 4.366a1.359 1.359 0 0 0 2.445.349l5.936-9.268a8.352 8.352 0 0 1-2.586.41 8.474 8.474 0 0 1-5.968-2.492 8.228 8.228 0 0 1-2.34-4.84l-.036-.03-5.957 9.304a1.341 1.341 0 0 0 .014 1.459c.292.441.816.672 1.342.59h-.006zM48.906 42.18a1.05 1.05 0 0 0 1.602 0l6.774-7.384a1.037 1.037 0 0 0-.032-1.473l-1.193-1.186c-.401-.4-1.046-.42-1.471-.047l-4.937 4.335-2.313-1.78a1.051 1.051 0 0 0-1.419.088l-1.193 1.187a1.067 1.067 0 0 0-.053 1.452l4.235 4.808zm-16.599-2.514a4.143 4.143 0 0 0 0-4.953 4.143 4.143 0 0 1-.618-3.756A4.176 4.176 0 0 1 34.4 28.27a4.166 4.166 0 0 0 2.942-3.986 4.155 4.155 0 0 1 1.715-3.418 4.208 4.208 0 0 1 3.797-.589 4.195 4.195 0 0 0 4.748-1.53A4.153 4.153 0 0 1 51 17a4.153 4.153 0 0 1 3.408 1.748 4.195 4.195 0 0 0 3.397 1.749 4.21 4.21 0 0 0 1.335-.219 4.208 4.208 0 0 1 3.8.586 4.155 4.155 0 0 1 1.717 3.421 4.165 4.165 0 0 0 2.931 4.012 4.176 4.176 0 0 1 2.713 2.687 4.143 4.143 0 0 1-.619 3.756 4.143 4.143 0 0 0 0 4.954 4.143 4.143 0 0 1 .619 3.756 4.176 4.176 0 0 1-2.713 2.686 4.165 4.165 0 0 0-2.93 4.007 4.155 4.155 0 0 1-1.727 3.4 4.208 4.208 0 0 1-3.786.58 4.201 4.201 0 0 0-4.743 1.53A4.154 4.154 0 0 1 51 57.376a4.153 4.153 0 0 1-3.408-1.749 4.201 4.201 0 0 0-4.742-1.53 4.208 4.208 0 0 1-3.786-.58 4.155 4.155 0 0 1-1.726-3.4 4.165 4.165 0 0 0-2.932-4.007 4.176 4.176 0 0 1-2.715-2.685 4.143 4.143 0 0 1 .616-3.758zm7.088-2.476c0 6.371 5.196 11.536 11.605 11.536 6.41 0 11.605-5.165 11.605-11.536 0-6.372-5.196-11.537-11.605-11.537-6.41 0-11.605 5.165-11.605 11.537z"/>
</svg>
