
<svg width="200px" height="192px" viewBox="0 0 200 192" version="1.1" xmlns="http://www.w3.org/2000/svg" xmlns:xlink="http://www.w3.org/1999/xlink">
    <defs>
        <linearGradient x1="50%" y1="38.7477792%" x2="68.0603781%" y2="125.312408%" id="linearGradient-1">
            <stop stop-color="#AF94C3" offset="0%"></stop>
            <stop stop-color="#8CF4D3" offset="100%"></stop>
        </linearGradient>
    </defs>
    <g id="Page-1" stroke="none" stroke-width="1" fill="none" fill-rule="evenodd">
        <g id="Desktop-HD" transform="translate(-922.000000, -48.000000)" fill="url(#linearGradient-1)">
            <g id="Group" transform="translate(922.000000, 48.000000)">
                <path d="M51.3140397,0 L188.766929,33.7300596 L199.619188,132.943302 L144.492879,192 L58.2993777,190.168788 C20.5150049,138.041864 1.34453627,111.59788 0.787971831,110.836835 C-0.262657277,109.400208 -0.262657277,109.765002 0.787971831,111.931217 L51.3140397,0 Z M122.989813,100.794282 C120.719414,100.794282 118.948529,100.885333 117.677105,101.067439 C125.124015,106.439563 128.847414,112.995276 128.847414,120.734776 L128.847414,134.938963 L162.903236,134.938963 L162.903236,120.734776 C162.903236,116.637393 160.451241,112.949805 155.547178,109.671899 C151.369643,106.940311 145.966174,104.709547 139.336607,102.979541 C133.342753,101.522694 127.893876,100.794282 122.989813,100.794282 Z M77.6137746,100.794282 C72.6574616,100.794282 67.1505297,101.522694 61.0928137,102.979541 C54.3926127,104.709547 48.9315719,106.940311 44.7095274,109.671899 C39.7532143,112.949805 37.2750949,116.637393 37.2750949,120.734776 L37.2750949,134.938963 L117.677105,134.938963 L117.677105,120.734776 C117.677105,116.637393 115.198986,112.949805 110.242673,109.671899 C106.112412,106.940311 100.697262,104.709547 93.9970609,102.979541 C88.0311285,101.522694 82.5700877,100.794282 77.6137746,100.794282 Z M77.6138857,89.7474734 C80.6451863,89.7474734 83.469765,88.973535 86.0877064,87.4256351 C88.7056478,85.8777352 90.7724127,83.8063119 92.288063,81.2113032 C93.8037133,78.6162945 94.5615271,75.7709329 94.5615271,72.675133 C94.5615271,69.5793331 93.8037133,66.7339715 92.288063,64.1389628 C90.7724127,61.543954 88.7056478,59.4725308 86.0877064,57.9246309 C83.469765,56.3767309 80.6451863,55.6027926 77.6138857,55.6027926 C74.5825851,55.6027926 71.7350423,56.3767309 69.0711721,57.9246309 C66.4073019,59.4725308 64.2946089,61.5667169 62.7330298,64.2072521 C61.1714507,66.8477873 60.3906728,69.670386 60.3906728,72.675133 C60.3906728,75.6798799 61.1714507,78.5024786 62.7330298,81.1430138 C64.2946089,83.783549 66.4073019,85.8777352 69.0711721,87.4256351 C71.7350423,88.973535 74.5825851,89.7474734 77.6138857,89.7474734 Z M122.702231,89.7474734 C125.709281,89.7474734 128.534043,88.973535 131.176602,87.4256351 C133.819162,85.8777352 135.914953,83.783549 137.46404,81.1430138 C139.013126,78.5024786 139.787658,75.6798799 139.787658,72.675133 C139.787658,69.670386 139.013126,66.8477873 137.46404,64.2072521 C135.914953,61.5667169 133.819162,59.4725308 131.176602,57.9246309 C128.534043,56.3767309 125.709281,55.6027926 122.702231,55.6027926 C119.69518,55.6027926 116.870418,56.3767309 114.227859,57.9246309 C111.585299,59.4725308 109.489508,61.5667169 107.940422,64.2072521 C106.391335,66.8477873 105.616803,69.670386 105.616803,72.675133 C105.616803,75.6798799 106.391335,78.5024786 107.940422,81.1430138 C109.489508,83.783549 111.585299,85.8777352 114.227859,87.4256351 C116.870418,88.973535 119.69518,89.7474734 122.702231,89.7474734 Z" id="Combined-Shape"></path>
            </g>
        </g>
    </g>
</svg>