
<svg width="200px" height="228px" viewBox="0 0 200 228" version="1.1" xmlns="http://www.w3.org/2000/svg" xmlns:xlink="http://www.w3.org/1999/xlink">
    <defs>
        <linearGradient x1="23.9712535%" y1="37.6872348%" x2="100.918006%" y2="82.5315679%" id="linearGradient-1">
            <stop stop-color="#AF94C3" offset="0%"></stop>
            <stop stop-color="#8CF4D3" offset="100%"></stop>
        </linearGradient>
    </defs>
    <g id="Page-1" stroke="none" stroke-width="1" fill="none" fill-rule="evenodd">
        <g id="Desktop-HD" transform="translate(-238.000000, -284.000000)" fill="url(#linearGradient-1)">
            <g id="hand" transform="translate(238.000000, 284.000000)">
                <path d="M0,-2.84217094e-14 L113.492537,-2.84217094e-14 L200,34.625 L170.538758,160.21875 L62.96875,228 L27.0160772,130.289062 L0,-2.84217094e-14 Z M131.849753,92.3588048 C130.205623,89.0273804 126.544724,87.2239852 122.923315,87.9622226 L144.735069,65.993254 L144.654838,65.9124404 C147.294536,64.0184758 148.571081,60.7303611 147.907169,57.5351174 C147.243256,54.3398737 144.764773,51.8433713 141.592593,51.1746315 C138.420413,50.5058917 135.156033,51.7917186 133.275739,54.4506081 L133.195509,54.3711642 L78.7327561,109.229894 C73.1927882,98.3556719 68.215792,90.6934479 63.7963282,86.241852 C59.3836636,81.7971046 53.0713094,79.7123879 44.8606255,79.9904415 C43.1371053,80.0487665 41.4999797,80.7645859 40.2807011,81.9929748 L37.7962825,84.4968263 C36.7345725,85.5665787 36.7345725,87.3006473 37.7962825,88.3703997 L52.7000744,103.38529 C57.5628445,124.736515 61.6437094,137.073599 64.9426691,140.395175 L87.5132109,163.132557 C87.9628511,163.712568 88.4474101,164.264233 88.9641548,164.784442 C95.8680373,171.738519 107.060839,171.738519 113.964722,164.784442 C114.206772,164.540631 114.439304,164.292712 114.663677,164.039313 L146.493335,131.978234 L146.407666,131.891941 C149.886494,129.523626 151.013753,124.883063 149.01354,121.164387 C147.013328,117.445711 142.538384,115.862454 138.668845,117.504383 L138.452631,116.566124 C140.958259,115.065274 142.478641,112.331975 142.441063,109.395835 C142.403484,106.459696 140.813655,103.766784 138.270448,102.331495 C135.727242,100.896206 132.617031,100.936593 130.111403,102.437443 L129.941423,102.179935 C132.711122,99.7186718 133.493883,95.6902292 131.849753,92.3588048 Z M80,36 L80,60 L88,60 L88,36 L80,36 Z M112.308306,43 L94,59.9426588 L99.6916941,66 L118,49.0573412 L112.308306,43 Z M59.6916941,43 L54,49.0573412 L72.3083059,66 L78,59.9426588 L59.6916941,43 Z" id="Combined-Shape"></path>
            </g>
        </g>
    </g>
</svg>