
<svg width="200px" height="228px" viewBox="0 0 200 228" version="1.1" xmlns="http://www.w3.org/2000/svg" xmlns:xlink="http://www.w3.org/1999/xlink">
    <defs>
        <linearGradient x1="23.9712535%" y1="37.6872348%" x2="55.764995%" y2="100%" id="linearGradient-1">
            <stop stop-color="#AF94C3" offset="0%"></stop>
            <stop stop-color="#8CF4D3" offset="100%"></stop>
        </linearGradient>
    </defs>
    <g id="Page-1" stroke="none" stroke-width="1" fill="none" fill-rule="evenodd">
        <g id="Desktop-HD" transform="translate(-690.000000, -285.000000)" fill="url(#linearGradient-1)">
            <path d="M690,353.15173 L791.492537,285 L890,353.15173 L890,453.928173 L791.492537,513 L709.402985,453.928173 L690,353.15173 Z M759.255,382.544 C754.932,378.323 749.162,376 743.003,376 L742.959,376 C730.277,376.023 719.978,386.335 720,398.988 C720.018,408.811 734.887,430.943 743.065,442 C751.203,430.809 766.017,408.398 766,398.57 C765.989,392.471 763.594,386.78 759.255,382.544 Z M743.012,406.802 C739.292,406.808 736.272,403.806 736.266,400.095 C736.26,396.385 739.269,393.371 742.988,393.365 C746.708,393.358 749.728,396.361 749.734,400.071 C749.74,403.781 746.731,406.795 743.012,406.801 L743.012,406.802 Z M831.502,340 L831.474,340 C823.479,340.014 816.986,346.547 817,354.563 C817.01,360.141 825.108,373.141 831.537,382 C837.94,373.027 846.01,359.865 846,354.283 C845.985,346.27 839.62,340 831.502,340 Z M831.513,362.065 C830.051484,362.065796 828.649526,361.485906 827.615609,360.452926 C826.581692,359.419947 826.00053,358.018516 826,356.557 C825.995,353.51 828.454,351.035 831.494,351.03 C834.534,351.024 837.002,353.49 837.007,356.538 C837.01585,359.581257 834.556256,362.055625 831.513,362.065 Z M804.99,386 C803.203672,386.001786 801.55399,386.956432 800.662373,388.50433 C799.770756,390.052229 799.772662,391.958218 800.667373,393.50433 C801.562084,395.050442 803.213672,396.001786 805,396 L805.01,396 C807.771424,395.994477 810.005523,393.751424 810,390.99 C809.994477,388.228576 807.751424,385.994477 804.99,386 Z M818.99,386 C816.228576,386.002761 813.992239,388.243576 813.995,391.005 C813.997761,393.766424 816.238576,396.002761 819,396 L819.01,396 C821.771424,395.994477 824.005523,393.751424 824,390.99 C823.994477,388.228576 821.751424,385.994477 818.99,386 Z M808.99,407 C806.228576,407.002762 803.992239,409.243576 803.995,412.005 C803.997762,414.766424 806.238576,417.002761 809,417 L809.01,417 C811.771424,416.994477 814.005523,414.751424 814,411.99 C813.994477,409.228576 811.751424,406.994477 808.99,407 Z M806.99,445 C805.664192,445.001855 804.393467,445.530515 803.457574,446.469596 C802.521681,447.408678 801.997345,448.681193 802,450.007 C802.00276,452.766147 804.240851,455.001105 807,455 L807.007,455 C808.793328,454.996963 810.442343,454.041163 811.332877,452.492639 C812.223411,450.944115 812.220171,449.038126 811.324377,447.492639 C810.428583,445.947152 808.776328,444.996963 806.99,445 Z M821.988,407 C820.661743,407.003179 819.391083,407.533151 818.455622,408.473301 C817.520161,409.41345 816.996548,410.686743 817,412.013 C817.006068,414.770585 819.24441,417.002214 822.002,417 L822.012,417 C823.338064,416.997882 824.608886,416.468661 825.54449,415.52893 C826.480095,414.589199 827.003718,413.31606 827,411.99 C826.997351,410.663569 826.467749,409.392548 825.527759,408.456684 C824.587768,407.520819 823.314429,406.996814 821.988,407 Z M819.993,445 C818.206672,445.00125 816.556704,445.9554 815.664623,447.503031 C814.772542,449.050662 814.773876,450.956651 815.668123,452.503031 C816.56237,454.049411 818.213672,455.00125 820,455 L820.01,455 C822.771424,454.995305 825.006194,452.752924 825.0015,449.9915 C824.996805,447.230076 822.754424,444.995306 819.993,445 Z M844.797,424.592 C844.424101,423.31985 843.560977,422.248012 842.397609,421.612407 C841.23424,420.976802 839.865982,420.829528 838.594,421.203 C837.32105,421.574084 836.24813,422.436539 835.612099,423.599969 C834.976068,424.763399 834.829229,426.13213 835.204,427.404 C835.706315,429.117624 837.084682,430.433097 838.819882,430.854891 C840.555082,431.276685 842.383497,430.740721 843.616382,429.448891 C844.849266,428.157061 845.299315,426.305624 844.797,424.592 Z M841.834,434.35 C840.165843,433.662684 838.256779,433.927377 836.838548,435.042623 C835.420318,436.157869 834.71291,437.950677 834.987471,439.733867 C835.262033,441.517057 836.475977,443.014031 838.164,443.651 C840.71564,444.598614 843.556517,443.331072 844.555666,440.799168 C845.554816,438.267264 844.345128,435.401273 841.834,434.351 L841.834,434.35 Z M836.3,445.452 C835.389866,443.915579 833.729197,442.981419 831.94355,443.001408 C830.157904,443.021397 828.518562,443.992498 827.64305,445.548908 C826.767538,447.105317 826.788866,449.010579 827.699,450.547 C829.107325,452.922193 832.173941,453.706863 834.55,452.3 C836.923736,450.891825 837.707111,447.826367 836.3,445.452 Z M793.919,403.104 C793.624147,401.322787 792.39193,399.838876 790.695228,399.221736 C788.998527,398.604597 787.100902,398.950093 785.73059,400.125637 C784.360278,401.301181 783.73014,403.124166 784.082,404.895 C784.616286,407.570209 787.196334,409.323364 789.880301,408.834973 C792.564268,408.346583 794.361353,405.796937 793.919,403.105 L793.919,403.104 Z M797.045,390.063 C796.266177,388.989382 795.09247,388.269445 793.782467,388.061803 C792.472465,387.854161 791.133655,388.175851 790.061,388.956 L790.061,388.953 C787.827163,390.577596 787.332128,393.704911 788.955,395.94 C789.89592,397.237131 791.402544,398.003463 793.005,398 C794.8836,397.997565 796.602304,396.942323 797.454483,395.268128 C798.306663,393.593932 798.148492,391.583345 797.045,390.063 Z M798.304,407.176 C797.024703,406.829252 795.660036,407.005294 794.510616,407.665348 C793.361196,408.325401 792.52132,409.415316 792.176,410.695 C791.829252,411.974297 792.005294,413.338964 792.665348,414.488384 C793.325401,415.637804 794.415316,416.47768 795.695,416.823 C796.131,416.943 796.571,417 797.005,417 C799.507233,416.992572 801.618689,415.136569 801.946947,412.655949 C802.275204,410.175329 800.719176,407.834012 798.305,407.176 L798.304,407.176 Z M836.924,411.943 C835.474216,410.898713 833.57744,410.707202 831.948169,411.440608 C830.318898,412.174014 829.204656,413.720914 829.025169,415.498608 C828.845681,417.276301 829.628216,419.014713 831.078,420.059 C833.319172,421.673328 836.444672,421.165171 838.059,418.924 C839.673328,416.682828 839.165171,413.557328 836.924,411.943 Z M782.992,445 C781.665488,445.001854 780.394102,445.530862 779.457805,446.470535 C778.521508,447.410208 777.99708,448.68349 778,450.01 C778.004413,452.767194 780.240802,455.000004 782.998,455 L783.008,455 C784.334594,454.998411 785.606134,454.469488 786.542489,453.529757 C787.478843,452.590027 788.003186,451.316591 788,449.99 C787.99788,448.6641 787.468998,447.393378 786.529758,446.457513 C785.590517,445.521649 784.317899,444.997345 782.992,445 Z M769.99,445 C767.229033,445.00662 764.995576,447.249029 765,450.01 C765.006614,452.76706 767.242932,454.998906 770,455 L770.01,455 C771.336247,454.997881 772.607273,454.468724 773.543195,453.529051 C774.479117,452.589378 775.003186,451.316245 775,449.99 C774.99735,448.663917 774.468024,447.393199 773.528466,446.457392 C772.588908,445.521585 771.316083,444.997345 769.99,445 Z M756.99,445 C754.229033,445.00662 751.995576,447.249029 752,450.01 C752.006614,452.76706 754.242932,454.998906 757,455 L757.01,455 C758.336247,454.997881 759.607273,454.468724 760.543195,453.529051 C761.479117,452.589378 762.003186,451.316245 762,449.99 C761.99735,448.663917 761.468024,447.393199 760.528466,446.457392 C759.588908,445.521585 758.316083,444.997345 756.99,445 Z M793.99,445 C791.228576,445.002762 788.992239,447.243576 788.995,450.005 C788.997762,452.766424 791.238576,455.002761 794,455 L794.01,455 C796.770967,454.99338 799.004424,452.750971 799,449.99 C798.997881,448.663753 798.468724,447.392727 797.529051,446.456805 C796.589378,445.520883 795.316245,444.996814 793.99,445 Z" id="path"></path>
        </g>
    </g>
</svg>