
<svg width="200px" height="213px" viewBox="0 0 200 213" version="1.1" xmlns="http://www.w3.org/2000/svg" xmlns:xlink="http://www.w3.org/1999/xlink">
    <defs>
        <linearGradient x1="50%" y1="37.8370098%" x2="-3.36816692%" y2="62.4486502%" id="linearGradient-1">
            <stop stop-color="#AF94C3" offset="0%"></stop>
            <stop stop-color="#8CF4D3" offset="100%"></stop>
        </linearGradient>
    </defs>
    <g id="Page-1" stroke="none" stroke-width="1" fill="none" fill-rule="evenodd">
        <g id="Desktop-HD" transform="translate(-239.000000, -533.000000)" fill="url(#linearGradient-1)">
            <path d="M274,533 L427.766929,576.73006 L438.619188,675.943302 L375.989616,746 L297.299378,733.168788 C259.515005,681.041864 240.344536,654.59788 239.787972,653.836835 C238.737343,652.400208 238.737343,652.765002 239.787972,654.931217 L274,533 Z M336.376476,598.000299 L386.999701,598.000299 L386.999701,657.99731 L376.999402,657.99731 L376.999402,668 L386.999701,668 C392.521074,667.996043 396.996043,663.521074 397,657.999701 L397,598.000299 C396.996043,592.478926 392.521074,588.003957 386.999701,588 L327.00269,588 C321.480383,588.002638 317.003958,592.477993 317,598.000299 L317,608.000598 L327.000299,608.000598 L327.000299,598.000299 L336.374085,598.000299 L336.376476,598.000299 Z M287.000003,628.012257 L287.000003,687.990134 C286.998733,690.645304 288.052933,693.192089 289.930422,695.069578 C291.807911,696.947067 294.354696,698.001267 297.009866,697.999997 L356.987743,697.999997 C359.643327,698.001902 362.190727,696.947982 364.068733,695.070425 C365.946739,693.192867 367.001268,690.645718 366.999997,687.990134 L366.999997,628.012257 C367.001903,625.356259 365.947655,622.808495 364.06958,620.93042 C362.191505,619.052345 359.643741,617.998097 356.987743,618.000003 L297.009866,618.000003 C294.354282,617.998732 291.807133,619.053261 289.929575,620.931267 C288.052018,622.809273 286.998098,625.356673 287.000003,628.012257 Z M331.999103,638 L331.999103,653.000897 L347,653.000897 L347,663.001495 L331.999103,663.001495 L331.999103,678 L321.998505,678 L321.998505,663.001495 L307,663.001495 L307,653.000897 L321.998505,653.000897 L321.998505,638 L331.999103,638 Z" id="plus"></path>
        </g>
    </g>
</svg>