
<svg width="200px" height="209px" viewBox="0 0 200 209" version="1.1" xmlns="http://www.w3.org/2000/svg" xmlns:xlink="http://www.w3.org/1999/xlink">
    <defs>
        <linearGradient x1="65.5442119%" y1="71.3426009%" x2="21.7242652%" y2="20.6434709%" id="linearGradient-1">
            <stop stop-color="#AF94C3" offset="0%"></stop>
            <stop stop-color="#8CF4D3" offset="100%"></stop>
        </linearGradient>
    </defs>
    <g id="Page-1" stroke="none" stroke-width="1" fill="none" fill-rule="evenodd">
        <g id="Desktop-HD" transform="translate(-1159.000000, -530.000000)" fill="url(#linearGradient-1)">
            <g id="shield" transform="translate(1159.000000, 530.000000)">
                <g id="Clipped">
                    <path d="M50.6798605,0 L170.523938,23.3877922 L200,139.159777 L134.833857,209 L23.0898737,181.396652 L0,83.3407986 L50.6798605,0 Z M119.97763,112.153509 C119.97763,121.017544 109.585609,127.182018 100.418761,133.453947 C91.2497174,127.182018 80.8576957,121.019737 80.8576957,112.153509 L80.8576957,89.004386 L100.418761,80.7719298 L119.97763,89.004386 L119.97763,112.153509 Z M122.825391,42 L55.6033043,42 C52.5206087,42 50,44.5460526 50,47.6578947 L50,160.820175 C50,163.932018 52.5206087,166.47807 55.6033043,166.47807 L145.234217,166.47807 C148.314717,166.47807 150.835326,163.932018 150.835326,160.820175 L150.835326,70.2916667 L122.825391,42 Z M150.835326,70.2916667 L150.835326,160.820175 L150.835326,70.2916667 Z M145.234217,166.47807 L55.6033043,166.47807 L145.234217,166.47807 Z" id="Combined-Shape"></path>
                </g>
            </g>
        </g>
    </g>
</svg>